<svg version="1.1" xmlns="http://www.w3.org/2000/svg" viewBox="10 10 360 320" preserveAspectRatio="none"><!-- svg-source:excalidraw --><metadata/><defs><style class="style-fonts">
      </style></defs><g stroke-linecap="round" transform="translate(10 230) rotate(0 180 50)"><path d="M25 0 C105.73 0, 186.46 0, 335 0 C351.67 0, 360 8.33, 360 25 C360 35.71, 360 46.43, 360 75 C360 91.67, 351.67 100, 335 100 C260.86 100, 186.72 100, 25 100 C8.33 100, 0 91.67, 0 75 C0 59.02, 0 43.03, 0 25 C0 8.33, 8.33 0, 25 0" stroke="none" stroke-width="0" fill="#d2bab0"/><path d="M25 0 C115.07 0, 205.13 0, 335 0 M25 0 C114.9 0, 204.8 0, 335 0 M335 0 C351.67 0, 360 8.33, 360 25 M335 0 C351.67 0, 360 8.33, 360 25 M360 25 C360 44.48, 360 63.96, 360 75 M360 25 C360 36.79, 360 48.58, 360 75 M360 75 C360 91.67, 351.67 100, 335 100 M360 75 C360 91.67, 351.67 100, 335 100 M335 100 C214 100, 92.99 100, 25 100 M335 100 C251.4 100, 167.79 100, 25 100 M25 100 C8.33 100, 0 91.67, 0 75 M25 100 C8.33 100, 0 91.67, 0 75 M0 75 C0 57.05, 0 39.1, 0 25 M0 75 C0 62.97, 0 50.94, 0 25 M0 25 C0 8.33, 8.33 0, 25 0 M0 25 C0 8.33, 8.33 0, 25 0" stroke="#846358" stroke-width="2" fill="none"/></g><g stroke-linecap="round" transform="translate(10 10) rotate(0 180 50)"><path d="M25 0 C87.22 0, 149.43 0, 335 0 C351.67 0, 360 8.33, 360 25 C360 38.72, 360 52.45, 360 75 C360 91.67, 351.67 100, 335 100 C257.23 100, 179.47 100, 25 100 C8.33 100, 0 91.67, 0 75 C0 64.8, 0 54.59, 0 25 C0 8.33, 8.33 0, 25 0" stroke="none" stroke-width="0" fill="#d2bab0"/><path d="M25 0 C122.02 0, 219.05 0, 335 0 M25 0 C121.77 0, 218.53 0, 335 0 M335 0 C351.67 0, 360 8.33, 360 25 M335 0 C351.67 0, 360 8.33, 360 25 M360 25 C360 38.95, 360 52.89, 360 75 M360 25 C360 42.01, 360 59.01, 360 75 M360 75 C360 91.67, 351.67 100, 335 100 M360 75 C360 91.67, 351.67 100, 335 100 M335 100 C249.76 100, 164.52 100, 25 100 M335 100 C214.78 100, 94.55 100, 25 100 M25 100 C8.33 100, 0 91.67, 0 75 M25 100 C8.33 100, 0 91.67, 0 75 M0 75 C0 56.8, 0 38.61, 0 25 M0 75 C0 60.59, 0 46.18, 0 25 M0 25 C0 8.33, 8.33 0, 25 0 M0 25 C0 8.33, 8.33 0, 25 0" stroke="#846358" stroke-width="2" fill="none"/></g></svg>