<svg version="1.1" xmlns="http://www.w3.org/2000/svg" viewBox="10 10 360 320" preserveAspectRatio="none"><!-- svg-source:excalidraw --><metadata/><defs><style class="style-fonts">
      </style></defs><g stroke-linecap="round" transform="translate(10 10) rotate(0 180 160)"><path d="M32 0 C104.19 0, 176.38 0, 328 0 C349.33 0, 360 10.67, 360 32 C360 87.28, 360 142.56, 360 288 C360 309.33, 349.33 320, 328 320 C212.88 320, 97.76 320, 32 320 C10.67 320, 0 309.33, 0 288 C0 217.08, 0 146.16, 0 32 C0 10.67, 10.67 0, 32 0" stroke="none" stroke-width="0" fill="#0a0a0a"/><path d="M32 0 C137.24 0, 242.47 0, 328 0 M32 0 C140.95 0, 249.91 0, 328 0 M328 0 C349.33 0, 360 10.67, 360 32 M328 0 C349.33 0, 360 10.67, 360 32 M360 32 C360 131.79, 360 231.58, 360 288 M360 32 C360 97.65, 360 163.3, 360 288 M360 288 C360 309.33, 349.33 320, 328 320 M360 288 C360 309.33, 349.33 320, 328 320 M328 320 C248.96 320, 169.91 320, 32 320 M328 320 C255.37 320, 182.73 320, 32 320 M32 320 C10.67 320, 0 309.33, 0 288 M32 320 C10.67 320, 0 309.33, 0 288 M0 288 C0 207.97, 0 127.94, 0 32 M0 288 C0 209.83, 0 131.66, 0 32 M0 32 C0 10.67, 10.67 0, 32 0 M0 32 C0 10.67, 10.67 0, 32 0" stroke="#f7f7f7" stroke-width="2" fill="none"/></g><g stroke-linecap="round"><g transform="translate(10 170) rotate(0 180 0)"><path d="M0 0 C103.3 0, 206.6 0, 360 0" stroke="#f7f7f7" stroke-width="2.5" fill="none" stroke-dasharray="8 10"/></g></g><mask/></svg>