<svg version="1.1" xmlns="http://www.w3.org/2000/svg" viewBox="10 10 360 320" preserveAspectRatio="none"><!-- svg-source:excalidraw --><metadata/><defs><style class="style-fonts">
      </style></defs><g stroke-linecap="round" transform="translate(10 10) rotate(0 180 30)"><path d="M15 0 C99.84 0, 184.68 0, 345 0 C355 0, 360 5, 360 15 C360 25.59, 360 36.17, 360 45 C360 55, 355 60, 345 60 C224.4 60, 103.79 60, 15 60 C5 60, 0 55, 0 45 C0 36.54, 0 28.08, 0 15 C0 5, 5 0, 15 0" stroke="none" stroke-width="0" fill="#0a0a0a"/><path d="M15 0 C140.9 0, 266.81 0, 345 0 M15 0 C94.86 0, 174.73 0, 345 0 M345 0 C355 0, 360 5, 360 15 M345 0 C355 0, 360 5, 360 15 M360 15 C360 21.5, 360 28, 360 45 M360 15 C360 25.33, 360 35.65, 360 45 M360 45 C360 55, 355 60, 345 60 M360 45 C360 55, 355 60, 345 60 M345 60 C274.52 60, 204.04 60, 15 60 M345 60 C267.72 60, 190.45 60, 15 60 M15 60 C5 60, 0 55, 0 45 M15 60 C5 60, 0 55, 0 45 M0 45 C0 34.88, 0 24.76, 0 15 M0 45 C0 35.65, 0 26.31, 0 15 M0 15 C0 5, 5 0, 15 0 M0 15 C0 5, 5 0, 15 0" stroke="#f7f7f7" stroke-width="2" fill="none"/></g><g stroke-linecap="round" transform="translate(10 270) rotate(0 180 30)"><path d="M15 0 C126 0, 236.99 0, 345 0 C355 0, 360 5, 360 15 C360 21.28, 360 27.56, 360 45 C360 55, 355 60, 345 60 C260.24 60, 175.49 60, 15 60 C5 60, 0 55, 0 45 C0 38.6, 0 32.2, 0 15 C0 5, 5 0, 15 0" stroke="none" stroke-width="0" fill="#0a0a0a"/><path d="M15 0 C124.02 0, 233.03 0, 345 0 M15 0 C111.52 0, 208.03 0, 345 0 M345 0 C355 0, 360 5, 360 15 M345 0 C355 0, 360 5, 360 15 M360 15 C360 25.36, 360 35.72, 360 45 M360 15 C360 24.7, 360 34.39, 360 45 M360 45 C360 55, 355 60, 345 60 M360 45 C360 55, 355 60, 345 60 M345 60 C277.58 60, 210.16 60, 15 60 M345 60 C241.81 60, 138.61 60, 15 60 M15 60 C5 60, 0 55, 0 45 M15 60 C5 60, 0 55, 0 45 M0 45 C0 36.14, 0 27.29, 0 15 M0 45 C0 33.46, 0 21.92, 0 15 M0 15 C0 5, 5 0, 15 0 M0 15 C0 5, 5 0, 15 0" stroke="#f7f7f7" stroke-width="2" fill="none"/></g></svg>