<?xml version="1.0" standalone="no"?>
<!DOCTYPE svg PUBLIC "-//W3C//DTD SVG 1.1//EN" "http://www.w3.org/Graphics/SVG/1.1/DTD/svg11.dtd">
<svg version="1.1" xmlns="http://www.w3.org/2000/svg" viewBox="10 10 360 320" width="380" height="340" preserveAspectRatio="none"><!-- svg-source:excalidraw --><metadata></metadata><defs><style class="style-fonts">
      </style></defs><g stroke-linecap="round" transform="translate(10 10) rotate(0 180 70)"><path d="M32 0 C128.2 0, 224.4 0, 328 0 C349.33 0, 360 10.67, 360 32 C360 60.44, 360 88.89, 360 108 C360 129.33, 349.33 140, 328 140 C253.57 140, 179.13 140, 32 140 C10.67 140, 0 129.33, 0 108 C0 80.95, 0 53.91, 0 32 C0 10.67, 10.67 0, 32 0" stroke="none" stroke-width="0" fill="#fafafa"></path><path d="M32 0 C115.59 0, 199.18 0, 328 0 M32 0 C122.56 0, 213.11 0, 328 0 M328 0 C349.33 0, 360 10.67, 360 32 M328 0 C349.33 0, 360 10.67, 360 32 M360 32 C360 61.83, 360 91.65, 360 108 M360 32 C360 47.7, 360 63.39, 360 108 M360 108 C360 129.33, 349.33 140, 328 140 M360 108 C360 129.33, 349.33 140, 328 140 M328 140 C262.22 140, 196.43 140, 32 140 M328 140 C226.68 140, 125.37 140, 32 140 M32 140 C10.67 140, 0 129.33, 0 108 M32 140 C10.67 140, 0 129.33, 0 108 M0 108 C0 79.52, 0 51.04, 0 32 M0 108 C0 81.55, 0 55.11, 0 32 M0 32 C0 10.67, 10.67 0, 32 0 M0 32 C0 10.67, 10.67 0, 32 0" stroke="#000000" stroke-width="2" fill="none"></path></g><g stroke-linecap="round" transform="translate(10 190) rotate(0 180 70)"><path d="M32 0 C130.8 0, 229.6 0, 328 0 C349.33 0, 360 10.67, 360 32 C360 59.78, 360 87.57, 360 108 C360 129.33, 349.33 140, 328 140 C209.87 140, 91.74 140, 32 140 C10.67 140, 0 129.33, 0 108 C0 82.25, 0 56.51, 0 32 C0 10.67, 10.67 0, 32 0" stroke="none" stroke-width="0" fill="#fafafa"></path><path d="M32 0 C104.29 0, 176.59 0, 328 0 M32 0 C120.89 0, 209.78 0, 328 0 M328 0 C349.33 0, 360 10.67, 360 32 M328 0 C349.33 0, 360 10.67, 360 32 M360 32 C360 55.78, 360 79.55, 360 108 M360 32 C360 60.56, 360 89.12, 360 108 M360 108 C360 129.33, 349.33 140, 328 140 M360 108 C360 129.33, 349.33 140, 328 140 M328 140 C243.55 140, 159.1 140, 32 140 M328 140 C224.05 140, 120.09 140, 32 140 M32 140 C10.67 140, 0 129.33, 0 108 M32 140 C10.67 140, 0 129.33, 0 108 M0 108 C0 81.62, 0 55.23, 0 32 M0 108 C0 91.96, 0 75.92, 0 32 M0 32 C0 10.67, 10.67 0, 32 0 M0 32 C0 10.67, 10.67 0, 32 0" stroke="#000000" stroke-width="2" fill="none"></path></g></svg>