<svg xmlns="http://www.w3.org/2000/svg" viewBox="8.30 8.31 222.14 52.40" width="222.14" height="52.40" xmlns:v="https://vecta.io/nano"><path fill="#1e1e1e" d="M126.724 10.91q0 0 .04.05.05.06.08.12.03.06.05.12.02.07.03.14.01 5.61 0 .12-.01.07-.03.14-.02.06-.05.12-.03.06-.08.12-.04.05-.09.09-.06.05-.12.08-.06.03-.12.05-.07.02-.14.03-5.61.01-.12 0-.07-.01-.14-.03-.06-.02-.12-.05-.06-.03-.12-.08-.05-.04-.07-.09-.03-.05-.04-.03-.01.01-.12.01-.11 0-.24 0-.14 0-.39 0-.25 0-.41-.01-.16 0-.31 0-.14 0-.4 0-.25 0-.52 0-.28 0-.45 0-.16 0-.42 0-.26 0-.53 0-.28 0-.67 0-.39 0-.81 0-.41 0-.67 0-.26 0-.64.11-.39.11-.74.14-.35.02-.76.03-.4 0-.71 0-.3 0-.59 0-.29 0-.57 0-.28 0-.56 0-.28 0-.45 0-.16 0-.53-.01-.36-.02-.53-.13-.18-.12-.34-.12-.16 0-.42-.01-.26 0-.53 0-.28 0-.56 0-.28 0-.56-.01-.28 0-.45 0-.17 0-.42 0-.26 0-.54 0-.27 0-.66 0-.39 0-.7 0-.3 0-.58 0-.29 0-.57 0-.28 0-.45 0-.17 0-.42 0-.26 0-.54 0-.27 0-.55 0-.28 0-.56 0-.28 0-.45 0-.17 0-.43 0-.25 0-.42 0-.16 0-.3 0-.15 0-.29 0-.14 0-.28 0-.14 0-.29-.01-.15-.02-.29.09-.13.1-.26.12-.13.01-.27.13-.14.11-.28.14-.14.02-.29.14-.15.12-.42.15-.26.03-.42.15-.17.11-.53.16-.36.04-.58.04-.23 0-.5.11-.27.11-.73.14-.45.03-.76.04-.32 0-.72 0-.39 0-.81.01-.42 0-.84 0-.41 0-.72 0-.31 0-.71 0-.4 0-.7 0-.3 0-.7 0-.4 0-.7 0-.3 0-.48 0-.17 0-.36-.01-.19-.01-.45.1-.25.11-.48.14-.23.03-.51.04-.28 0-.45 0-.16 0-.42.01-.26 0-.53 0-.28 0-.56 0-.28 0-.56 0-.28 0-.56 0-.28 0-.56 0-.28 0-.56 0-.28 0-.72-.01-.43 0-.92-.13-.48-.13-.76-.25-.27-.13-.64-.15-.38-.02-.79-.14-.42-.12-.79-.13-.37-.02-.67-.03-.3 0-.7 0-.39 0-.58 0-.19 0-.46 0-.26 0-.53 0-.28 0-.67 0-.39 0-.63-.01-.24-.01-.51.1-.28.11-.69.14-.41.02-.82.14-.42.12-.88.15-.47.02-.9.03-.43 0-.96 0-.53 0-.98.01-.44 0-.86 0-.43 0-.85 0-.42 0-.73 0-.31 0-.55-.01-.23 0-.56.09-.32.1-.65.24-.33.15-.62.17-.29.03-.57.15-.29.12-.63.15-.35.03-.58.03-.22 0-.5.11-.27.11-.73.14-.45.03-.88.04-.42 0-.84 0-.42.01-.73.01-.31 0-.66-.01-.35-.01-.69-.13-.34-.13-.74-.27-.4-.14-.66-.26-.27-.13-.55-.16-.27-.02-.59-.15-.32-.13-.66-.25-.34-.12-.74-.15-.41-.02-.83-.14-.42-.12-.68-.14-.27-.01-.54-.02-.27 0-.66 0-.39 0-.69 0-.31 0-.59 0-.29 0-.57 0-.28 0-.56 0-.28 0-.51-.01-.23 0-.62.11-.38.11-.93.14-.55.02-1.33.14-.77.11-1.4.14-.63.02-1.21.03-.57 0-.91 0-.34 0-.59 0-.25-.01-.52-.12-.27-.12-.59-.13-.32-.01-.84-.02-.51 0-1.06 0-.55 0-1 0-.45 0-.87 0-.43 0-.74 0-.31 0-.82 0-.51 0-1.06 0-.55 0-1.22 0-.67 0-1.14 0-.47 0-.9 0-.43 0-.74 0-.31 0-.48 0-.18 0-.44 0-.25 0-.53 0-.28 0-.62-.01-.35-.01-.64-.12-.29-.12-.58-.14-.28-.02-.56-.14-.28-.12-.49-.13-.22-.01-.6-.02-.37 0-.79 0-.41 0-.83 0-.42 0-.84 0-.42 0-.72 0-.31 0-.6 0-.28 0-.56-.02-.29-.02-.55-.2-.26-.18-.32-.26-.06-.08-.19-.08-.12.01-.31 0-.19-.01-.45.09-.25.11-.37.11-.12.01-.21.09-.09.09-.33.22-.25.13-.46.33-.22.2-.47.55-.25.35-.51.73-.26.38-.4.71-.13.34-.16.69-.02.36-.03.77 0 .4-.01.97 0 .56-.12 1.15-.12.59-.25 1.23-.13.65-.15 1.2-.02.55-.03.99 0 .45-.01.87 0 .43 0 .96 0 .53 0 1 0 .48-.13 1.2-.12.71-.37 1.31-.25.59-.41 1.14-.16.55-.29.96-.14.42-.16.82-.03.4-.16 1.1-.12.69-.39 1.42-.26.74-.64 1.53-.38.8-.56 1.5-.18.69-.32 1.14-.15.45-.17.83-.02.38-.03.95-.01.57-.13 1.05-.12.48-.26 1.02-.13.54-.26 1.06-.14.52-.16 1.04-.03.52-.03 1.1-.01.58-.13 1.28-.11.7-.25 1.38-.13.67-.15 1.34-.03.66-.03 1.24-.01.59-.01 1.15 0 .56-.01.93-.01.36.18.7.18.33.44.74.26.41.54.82.28.42.54.82.26.4.49.65.23.26.47.4.25.15.6.39.36.24.84.38.48.15.93.3.44.14.86.28.41.14.9.27.48.13 1 .15.51.02 1.17.03.66.01 1.35.01.7 0 1.4 0 .7 0 1.48 0 .79 0 1.62-.11.83-.11 1.58-.14.75-.02 1.55-.02.8-.01 1.59-.11.78-.11 1.64-.36.85-.25 1.72-.3.86-.05 1.82-.18.96-.12 1.82-.14.85-.03 1.56-.14.7-.11 1.4-.25.69-.13 1.26-.26.57-.14 1.37-.39.8-.26 1.79-.43.99-.17 1.99-.2 1-.04 1.9-.04.9-.01 1.64.1.74.12 1.42.14.68.02 1.3.02.61.01 1.32.13.71.11 1.4.25.69.13 1.73.27 1.04.14 2.15.39 1.11.26 2.1.42 1 .16 1.91.31.91.15 1.55.41.64.26 1.22.43.58.16 1.13.41.55.25 1.4.4.84.16 1.78.3.94.14 1.89.17.95.02 1.93.03.97.01 1.73.01.75 0 1.39 0 .63 0 1.2.11.58.12 1.22.14.64.02 1.53.02.89.01 1.86-.1.96-.11 2.03-.13 1.06-.02 1.95-.25.88-.23 1.63-.28.74-.04 1.34-.16.6-.13 1.32-.15.71-.03 1.41-.03.7-.01 1.38-.01.68 0 1.47-.11.79-.11 1.82-.24 1.04-.13 1.91-.38.87-.25 1.7-.4.83-.16 1.44-.41.6-.25 1.23-.43.63-.18 1.21-.22.58-.03 1.23-.15.65-.11 1.46-.25.81-.13 1.67-.28.85-.14 1.61-.17.75-.03 1.35-.03.6-.01 1.06-.01.45 0 .88 0 .43 0 .85 0 .42 0 .95 0 .54 0 1.2 0 .67 0 1.36 0 .7 0 1.53 0 .84 0 1.57.11.73.11 1.41.14.68.02 1.29.02.62.01 1.19.12.56.12 1.13.14.56.02 1.12.14.56.12 1.12.14.56.02 1.12.14.56.12 1.12.14.55.02 1.22.14.68.11 1.23.14.55.02 1.25.02.7.01 1.4.12.7.12 1.26.14.56.02 1.04.02.49.01 1.03.12.55.12.96.14.41.02 1.05.02.64.01 1.44.01.8 0 1.63 0 .83 0 1.59 0 .75 0 1.47.11.71.12 1.27.14.56.02 1.09.02.52.01 1.04-.1.52-.1 1.07-.23.56-.13 1.13-.28.57-.14 1.35-.28.77-.13 1.26-.27.49-.14 1.14-.28.66-.14 1.45-.39.8-.25 1.45-.42.65-.17 1.26-.21.61-.04.96-.04.35-.01.64-.01.3 0 .69 0 .4 0 .81 0 .42 0 .73 0 .3 0 .7 0 .4 0 .81 0 .42 0 .84 0 .42 0 .95 0 .53 0 1.09 0 .55 0 1.11 0 .56 0 1.05 0 .49 0 .93.12.43.11.81.13.38.02.79.02.41.01.89.01.48.01.84.13.37.13.72.25.36.13.65.15.3.03.73.15.44.13.81.26.38.12.97.14.59.02 1.16.03.57.01 1.24.01.67 0 1.37 0 .69 0 1.28 0 .59 0 1.19 0 .6 0 1.17.11.57.12 1.03.14.46.03.89.14.42.12.84.14.41.02.97.14.55.13 1.22.26.66.13 1.35.27.7.14 1.39.28.69.14 1.48.28.79.13 1.4.16.61.03 1.29.15.68.11 1.24.14.55.02 1.03.02.49.01 1.03.12.54.12 1.18.14.63.02 1.24.02.61.01 1.18.12.57.12 1.1.14.52.02 1.19.02.67.01 1.25.01.58 0 1.14 0 .57 0 1.02 0 .45 0 .83 0 .38 0 .79-.11.41-.11.83-.13.42-.02.84-.14.42-.11.81-.13.4-.02.89-.23.48-.22.92-.37.43-.16.95-.41.52-.24 1.07-.52.55-.27.87-.43.32-.16.68-.39.37-.23.62-.46.26-.23.52-.59.26-.36.53-.76.27-.39.42-.68.16-.29.3-.57.15-.28.29-.56.14-.28.26-.51.12-.23.14-.39.03-.16.17-.47.13-.3.27-.59.14-.28.28-.56.14-.28.28-.56.14-.28.28-.56.14-.28.27-.54.13-.26.28-.68.16-.42.3-.61.14-.19.26-.54.13-.34.28-.65.14-.32.26-.55.12-.23.14-.48.02-.25.14-.64.12-.38.14-.75.01-.36.02-.71.01-.34.12-.75.12-.41.14-.67.01-.26.02-.53 0-.27 0-.66 0-.39 0-.69.01-.31.02-.48.02-.16-.13-.33-.16-.17-.42-.43-.25-.27-.55-.57-.29-.3-.6-.73-.31-.43-.5-.77-.19-.35-.35-.77-.15-.43-.29-.83-.14-.4-.27-.69-.13-.29-.29-.63-.16-.34-.2-.81-.04-.47-.04-.83-.01-.37.12-.82.12-.45.26-.88.13-.42.28-.86.14-.44.27-.7.13-.27.15-.66.03-.38.17-.75.13-.37.27-.67.15-.29.31-.62.17-.32.42-.61.26-.29.38-.48.11-.18.14-.44.02-.26.14-.53.11-.27.14-.66.02-.38.14-.69.11-.3.13-.63.01-.34.02-.63 0-.3 0-.58 0-.28 0-.56 0-.28.01-.5.01-.21-.1-.47-.11-.26-.13-.42-.02-.16-.09-.32-.07-.16-.28-.39-.21-.23-.4-.43-.19-.19-.34-.46-.15-.26-.26-.39-.11-.13-.21-.23-.09-.11-.3-.22-.2-.11-.4-.22-.21-.11-.58-.13-.37-.03-.67-.14-.3-.12-.64-.14-.34-.01-.59-.03-.25-.01-.52-.12-.27-.12-.59-.13-.32-.01-.72-.02-.4 0-.97 0-.56-.01-1.12-.12-.56-.11-1.09-.13-.53-.02-1.01-.03-.49-.01-.92-.12-.44-.12-.81-.14-.38-.01-.79-.02-.41 0-.72 0-.31 0-.7 0-.4 0-.7 0-.31 0-.77-.01-.45-.01-.77-.12-.31-.11-.65-.13-.33-.01-.85-.02-.52 0-1.21 0-.7-.01-1.39-.12-.7-.11-1.3-.14-.59-.02-1.19-.14-.6-.12-1.17-.26-.57-.14-1.13-.28-.56-.14-1.09-.27-.53-.13-1.09-.16-.56-.03-1.01-.15-.44-.11-.98-.14-.54-.02-.99-.14-.44-.11-.86-.13-.42-.02-.95-.14-.53-.11-1.16-.13-.63-.02-1.31-.03-.69 0-1.39 0-.7 0-1.25-.01-.55 0-1.07.1-.52.11-.96.24-.43.12-.97.26-.54.14-.97.27-.43.14-.9.29-.47.15-1.02.18-.55.04-1.07.15-.53.11-1.08.24-.55.14-1.14.28-.6.15-1.2.18-.6.03-1.05.04-.46 0-.89 0-.43 0-.85 0-.42.01-.73.01-.31 0-.82 0-.51 0-1.06 0-.55 0-1.19-.01-.64 0-1.33.11-.69.12-1.53.14-.84.02-1.56.03-.73 0-1.43 0-.71 0-1.3.01-.59 0-1.16 0-.56 0-1.07-.01-.51 0-.9-.14-.38-.13-.67-.27-.29-.13-.65-.26-.36-.13-.88-.26-.51-.14-1.03-.27-.51-.13-1.03-.16-.52-.02-1.11-.03-.6-.01-1.09-.13-.5-.13-.9-.25-.39-.13-.87-.15-.48-.02-.92-.03-.43 0-.9-.01-.47 0-.9-.11-.43-.11-.84-.13-.41-.02-.94-.14-.54-.11-.98-.14-.44-.02-.98-.14-.53-.11-1.05-.13-.52-.02-1.07-.03-.55 0-1.22 0-.67 0-1.34-.01-.68 0-1.45.11-.77.11-1.37.24-.6.13-1.27.27-.67.12-1.46.37-.8.25-1.76.53-.97.28-1.84.45-.87.17-1.5.31-.63.15-.9.19-.28.03-.61.03-.33.01-.84-.1-.51-.12-1.07-.14-.55-.02-1-.14-.46-.12-.79-.14-.34-.03-.63-.15-.27-.12-.54-.14-.26-.02-.65-.13-.39-.12-.86-.13-.48-.02-1.03-.03-.54 0-1.14-.01-.6 0-1.07-.11-.47-.12-.74-.16-.27-.04-.55-.25-.29-.2-.33-.26-.04-.06-.06-.12-.03-.06-.05-.13-.01-.06-.02-.13 0-.07.01-.14.01-.07.04-.13.02-.07.06-.12.03-.06.08-.11.05-.05.1-.09.06-.04.12-.07.06-.03.13-.05.07-.01.14-.01.06-.01.13.01.07.01.13.03.07.02.13.06.05.04.1.08.05.05.09.11.05.05.07.11.03.07.05.13.01.07.02.14 0 .07-.01.14-.01.06-.04.13-.02.06-.06.12-.03.06-.08.11-.05.04-.1.08-.06.04-.12.07-.06.03-.13.04-.07.02-.14.02-.07 0-.13-.01-.07-.01-.13-.03-.07-.03-.13-.06-.06-.04-.11-.09-.05-.03-.09-.09-.04-.06-.06-.12-.03-.06-.05-.13-.01-.06-.02-.13 0-.07.01-.14.01-.07.04-.13.02-.07.06-.12.03-.06.08-.11.05-.05.1-.09.06-.04.12-.07.06-.03.13-.05.07-.01.14-.01.06-.01.13.01.07.01.13.03.07.02.13.06.05.04.12.11.07.07.21.07.13 0 .56.11.43.11.95.11.51 0 1.08 0 .56.01 1.13.03.58.03.98.15.39.12.68.15.3.02.59.14.28.12.57.13.29.02.73.13.44.11.99.14.54.02 1.03.13.49.11.7.1.21-.01.41-.03.2-.03.81-.17.61-.14 1.46-.3.86-.16 1.78-.43.93-.27 1.75-.53.83-.25 1.52-.39.7-.15 1.32-.28.62-.14 1.47-.26.85-.11 1.57-.11.72 0 1.39 0 .67 0 1.24 0 .57.01 1.16.03.59.03 1.13.15.54.11.98.14.44.02.97.14.54.11.96.14.43.02.84.13.42.11.8.11.38 0 .83 0 .45.01 1.04.04.58.03 1.04.18.46.14.86.24.39.1.92.11.52 0 1.12.03.61.03 1.19.18.59.15 1.14.29.54.15.96.29.42.14.71.28.29.13.53.22.24.1.63.09.39 0 .95 0 .57 0 1.16 0 .59-.01 1.29-.01.71 0 1.42 0 .72-.01 1.51-.03.78-.02 1.48-.13.7-.11 1.4-.11.69 0 1.24 0 .55 0 1.06 0 .51 0 .82 0 .31 0 .73-.01.42 0 .85 0 .42 0 .86 0 .44-.01.96-.03.52-.03 1.05-.16.52-.13 1.09-.26.56-.14 1.15-.26.59-.12 1.1-.15.52-.02.9-.15.38-.13.83-.27.46-.15 1-.29.54-.14 1-.27.46-.14 1.07-.26.62-.12 1.24-.12.62 0 1.32 0 .7 0 1.4 0 .7.01 1.41.03.7.03 1.24.15.53.11.96.14.44.02.88.14.44.11.98.14.53.02.98.14.45.12 1.01.14.56.03 1.15.18.6.15 1.16.28.55.14 1.11.28.55.13 1.08.23.54.11 1.11.13.58.02 1.27.14.69.11 1.33.11.64 0 1.17 0 .54.01 1 .04.45.03.75.14.29.11.63.1.33 0 .64 0 .3 0 .7 0 .4 0 .71 0 .31 0 .73 0 .43.01.9.03.46.03.88.14.42.11.83.12.41 0 1 .02.59.03 1.14.14.55.11 1.05.11.49 0 .92 0 .42.01.88.04.46.03.71.14.26.11.39.11.13 0 .59.03.45.03.76.15.3.12.71.15.41.03.75.2.35.17.65.34.3.17.49.36.18.19.35.38.17.2.31.45.14.25.27.39.14.14.43.46.28.32.44.68.16.35.18.52.03.18.15.48.11.3.12.65 0 .35 0 .63 0 .28 0 .57 0 .29 0 .6-.01.31-.04.77-.03.46-.15.76-.11.3-.14.7-.02.4-.14.69-.12.29-.16.59-.04.3-.25.67-.22.38-.46.65-.25.27-.36.51-.11.24-.24.51-.13.27-.23.51-.1.24-.13.65-.03.41-.18.76-.15.34-.29.74-.13.41-.26.81-.13.41-.23.75-.1.34-.09.58.01.25.02.56.02.32.14.55.12.23.27.55.15.33.29.76.15.43.28.79.13.37.28.63.15.26.4.62.25.35.51.61.26.26.54.56.28.29.57.69.3.39.32.79.02.4.01.71 0 .3 0 .7 0 .39 0 .69-.01.3-.03.65-.03.34-.14.73-.11.39-.12.66 0 .27-.03.73-.02.46-.14.86-.12.4-.16.71-.03.31-.19.65-.16.34-.3.62-.13.28-.28.69-.16.4-.3.59-.14.19-.26.56-.13.36-.28.66-.15.3-.29.58-.14.28-.28.56-.14.28-.28.56-.14.27-.27.54-.13.28-.23.49-.1.21-.13.38-.03.17-.19.5-.16.33-.3.61-.14.29-.29.58-.15.29-.33.61-.18.33-.47.76-.3.44-.61.86-.31.42-.66.74-.35.32-.8.61-.44.28-.79.46-.35.17-.91.45-.56.28-1.12.54-.55.26-1 .42-.45.16-1.03.41-.58.24-1.02.27-.45.03-.87.14-.42.12-.84.14-.42.03-.85.14-.43.11-.9.12-.47 0-.92 0-.45 0-1.02 0-.56 0-1.15 0-.58 0-1.26-.01-.68 0-1.27-.03-.6-.02-1.16-.13-.55-.12-1.11-.12-.55 0-1.25-.03-.71-.02-1.24-.14-.54-.11-.96-.11-.42 0-1.04-.03-.61-.02-1.29-.14-.68-.12-1.3-.15-.61-.03-1.44-.17-.84-.14-1.55-.28-.7-.14-1.39-.28-.7-.14-1.37-.28-.67-.14-1.17-.25-.51-.11-.94-.13-.43-.03-.86-.15-.42-.11-.86-.13-.43-.02-.99-.13-.55-.12-1.08-.11-.53 0-1.12 0-.59 0-1.28 0-.7 0-1.37 0-.68 0-1.26-.01-.59-.01-1.29-.04-.69-.03-1.15-.18-.46-.14-.81-.25-.36-.11-.67-.14-.31-.02-.75-.17-.45-.15-.7-.25-.25-.09-.61-.09-.37.01-.79 0-.43 0-.9-.03-.46-.03-.88-.14-.42-.11-.82-.11-.4.01-.96.01-.56 0-1.11 0-.56 0-1.09 0-.53 0-.95 0-.42 0-.84 0-.41 0-.81 0-.4 0-.7 0-.31 0-.73 0-.41 0-.8 0-.4 0-.69 0-.28 0-.61.01-.33 0-.86.03-.53.03-1.1.18-.56.16-1.37.41-.82.25-1.48.4-.66.14-1.16.28-.5.14-1.29.28-.79.14-1.34.28-.55.14-1.12.27-.57.14-1.17.26-.61.11-1.21.11-.61 0-1.22-.03-.62-.02-1.32-.13-.7-.11-1.4-.11-.7 0-1.53 0-.83 0-1.63 0-.81 0-1.47-.01-.65 0-1.13-.03-.48-.02-1.01-.14-.53-.11-.96-.11-.42 0-1.04-.03-.61-.02-1.3-.13-.69-.12-1.34-.12-.66 0-1.27-.03-.61-.02-1.29-.14-.67-.12-1.23-.14-.57-.03-1.13-.14-.56-.12-1.12-.14-.56-.03-1.12-.14-.56-.12-1.12-.14-.55-.02-1.11-.14-.56-.11-1.12-.11-.56 0-1.29-.03-.73-.02-1.45-.13-.72-.11-1.5-.11-.78 0-1.48 0-.69 0-1.36 0-.66 0-1.2 0-.53 0-.95 0-.42 0-.85 0-.42 0-.88 0-.45 0-1.04.01-.59 0-1.29.03-.7.02-1.51.16-.81.14-1.61.27-.81.14-1.5.26-.69.12-1.24.15-.54.03-1.05.18-.52.15-1.15.41-.64.26-1.5.43-.87.16-1.77.42-.89.25-1.97.39-1.09.14-1.92.25-.84.12-1.56.12-.72 0-1.41.01-.69 0-1.34.02-.64.02-1.23.14-.59.13-1.32.17-.73.04-1.63.27-.9.23-2.01.26-1.11.02-2.09.13-.97.12-1.91.11-.95 0-1.66-.03-.7-.02-1.26-.13-.57-.11-1.13-.11-.57 0-1.33 0-.75 0-1.74-.01-.98-.01-1.98-.04-1.01-.03-1.99-.17-.99-.15-1.94-.33-.94-.17-1.52-.43-.58-.27-1.15-.43-.56-.16-1.17-.4-.6-.25-1.43-.39-.84-.13-1.85-.3-1.02-.16-2.12-.41-1.1-.25-2.13-.39-1.03-.14-1.73-.27-.7-.14-1.35-.25-.64-.11-1.21-.11-.56 0-1.3-.03-.73-.02-1.45-.13-.73-.11-1.57-.1-.83 0-1.77.03-.95.04-1.84.19-.9.15-1.68.4-.78.25-1.39.4-.61.14-1.33.28-.72.14-1.48.26-.76.12-1.62.14-.87.03-1.82.15-.95.12-1.76.17-.81.04-1.64.29-.82.24-1.71.36-.88.12-1.72.12-.83.01-1.54.03-.7.02-1.54.13-.84.12-1.68.12-.83 0-1.53 0-.7 0-1.4 0-.7 0-1.37-.01-.68-.01-1.28-.04-.6-.03-1.18-.18-.58-.15-1.01-.3-.44-.14-.88-.28-.43-.15-1-.33-.57-.18-1-.46-.44-.28-.75-.48-.32-.2-.65-.56-.33-.36-.63-.8-.29-.45-.57-.87-.28-.42-.56-.86-.28-.43-.54-.95-.26-.52-.27-1.05-.01-.54-.01-1.1 0-.57.01-1.17 0-.59.03-1.32.03-.73.17-1.45.14-.72.25-1.36.11-.64.11-1.18.01-.54.04-1.14.03-.6.17-1.19.15-.58.28-1.12.14-.54.24-.94.11-.41.11-.91.01-.5.04-.98.04-.49.2-1 .15-.51.35-1.26.2-.74.59-1.57.39-.82.62-1.47.23-.64.34-1.24.11-.6.14-1.05.04-.45.19-.93.15-.49.32-1.06.17-.58.41-1.14.24-.56.34-1.14.09-.58.09-1 0-.41 0-.94 0-.54 0-.96.01-.43.01-.89.01-.46.04-1.08.02-.61.16-1.31.14-.7.25-1.22.11-.52.11-1.02 0-.5 0-.93.01-.44.05-.92.05-.48.24-.99.2-.5.51-.95.3-.45.6-.87.31-.42.64-.72.34-.29.6-.44.26-.14.46-.28.2-.15.42-.19.22-.04.52-.15.31-.12.66-.12.36 0 .74.06.38.06.6.24.22.19.25.24.03.04.09.02.06-.01.34-.01.29 0 .6 0 .3 0 .72 0 .42 0 .84 0 .42 0 .84 0 .42 0 .82 0 .41.01.75.04.35.03.63.15.28.12.56.14.28.02.54.12.27.11.48.1.21 0 .49 0 .28 0 .53 0 .26 0 .44 0 .17 0 .48 0 .31 0 .74 0 .43 0 .9 0 .47 0 1.14 0 .67 0 1.22 0 .55 0 1.06 0 .51 0 .82 0 .31 0 .74 0 .42 0 .87 0 .45 0 1 0 .56 0 1.09 0 .54.01.99.04.46.03.71.14.25.11.36.1.11-.01.44-.01.34 0 .9 0 .57-.01 1.15-.03.57-.02 1.35-.14.78-.11 1.28-.13.51-.02.91-.12.4-.12.72-.12.33 0 .61 0 .28 0 .56 0 .28 0 .57 0 .28 0 .59 0 .3 0 .7 0 .39 0 .69 0 .3.01.65.04.35.02.77.13.42.12.84.15.43.03.88.18.44.15.69.26.24.1.53.13.29.03.63.18.34.15.72.28.39.14.61.23.23.1.45.09.22 0 .53 0 .3 0 .72-.01.42 0 .82 0 .41-.01.74-.02.32-.01.61-.13.29-.11.62-.12.33-.02.55-.03.21-.01.49-.13.28-.12.56-.14.28-.03.55-.15.28-.13.74-.26.46-.13.8-.13.33 0 .64 0 .31 0 .73 0 .42 0 .84 0 .43 0 .87 0 .44-.01.97-.01.53 0 .94 0 .42-.01.79-.02.37-.02.79-.14.41-.12.79-.14.37-.01.67-.12.29-.11.66-.12.37 0 .76 0 .39 0 .67 0 .27 0 .53 0 .27 0 .46 0 .19 0 .59 0 .4 0 .72 0 .32.01.78.04.46.02.88.13.42.12.84.15.42.03.76.18.34.14.69.24.34.09.69.09.34 0 .62 0 .28 0 .56 0 .28 0 .56 0 .28 0 .56 0 .28 0 .56 0 .28 0 .56 0 .27 0 .53 0 .25-.01.41-.01.16 0 .4 0 .23 0 .34-.02.1-.01.4-.12.3-.12.63-.13.32 0 .49 0 .18 0 .48 0 .3 0 .7 0 .4 0 .7 0 .3 0 .7 0 .4 0 .71 0 .31 0 .72 0 .42 0 .84 0 .41-.01.81-.01.39 0 .68 0 .3-.01.62-.02.33-.01.62-.13.28-.11.61-.12.33-.02.48-.02.15 0 .32-.12.16-.1.4-.12.24-.02.37-.13.13-.11.27-.14.14-.02.28-.14.14-.11.3-.14.16-.03.35-.15.19-.12.54-.14.36-.02.5-.02.14 0 .28 0 .14 0 .29 0 .14 0 .3 0 .17 0 .42 0 .26 0 .43 0 .17 0 .45 0 .28 0 .56 0 .28 0 .55 0 .28 0 .54 0 .25 0 .42 0 .17 0 .45 0 .28 0 .57 0 .28 0 .58 0 .31 0 .7 0 .39 0 .66 0 .28 0 .54 0 .25 0 .42 0 .17 0 .45 0 .28.01.56.01.28 0 .56 0 .29 0 .58 0 .29.01.64.05.36.04.51.15.15.11.3.09.16-.02.32-.02.17 0 .45 0 .28 0 .56 0 .28 0 .57 0 .28 0 .58 0 .31 0 .69 0 .38-.01.64-.02.26-.02.67-.13.41-.12.77-.12.35-.01.76-.01.42 0 .81 0 .39 0 .67 0 .27 0 .53 0 .26 0 .42 0 .17 0 .45 0 .27 0 .52 0 .26 0 .4 0 .15 0 .31 0 .16.01.41.01.26 0 .4 0 .15 0 .31 0 .17.01.43.07.25.06.45.23.2.18.2.18h0z"/></svg>