<svg preserveAspectRatio="none" xmlns="http://www.w3.org/2000/svg" viewBox="8.30 8.31 222.14 52.40"><path fill="#000" d="M 126.72 10.91 L 126.72 10.91 L 126.76 10.96 L 126.81 11.02 L 126.84 11.08 L 126.87 11.14 L 126.89 11.20 L 126.91 11.27 L 126.92 11.34 L 126.93 16.95 L 126.92 11.46 L 126.91 11.53 L 126.89 11.60 L 126.87 11.66 L 126.84 11.72 L 126.81 11.78 L 126.76 11.84 L 126.72 11.89 L 126.67 11.93 L 126.61 11.98 L 126.55 12.01 L 126.49 12.04 L 126.43 12.06 L 126.36 12.08 L 126.29 12.09 L 120.68 12.10 L 126.17 12.09 L 126.10 12.08 L 126.03 12.06 L 125.97 12.04 L 125.91 12.01 L 125.85 11.98 L 125.79 11.93 L 125.74 11.89 L 125.72 11.84 L 125.69 11.79 L 125.68 11.81 L 125.67 11.82 L 125.56 11.82 L 125.45 11.82 L 125.32 11.82 L 125.18 11.82 L 124.93 11.82 L 124.68 11.82 L 124.52 11.81 L 124.36 11.81 L 124.21 11.81 L 124.07 11.81 L 123.81 11.81 L 123.56 11.81 L 123.29 11.81 L 123.01 11.81 L 122.84 11.81 L 122.68 11.81 L 122.42 11.81 L 122.16 11.81 L 121.89 11.81 L 121.61 11.81 L 121.22 11.81 L 120.83 11.81 L 120.41 11.81 L 120.00 11.81 L 119.74 11.81 L 119.48 11.81 L 119.10 11.92 L 118.71 12.03 L 118.36 12.06 L 118.01 12.08 L 117.60 12.09 L 117.20 12.09 L 116.89 12.09 L 116.59 12.09 L 116.30 12.09 L 116.01 12.09 L 115.73 12.09 L 115.45 12.09 L 115.17 12.09 L 114.89 12.09 L 114.72 12.09 L 114.56 12.09 L 114.19 12.08 L 113.83 12.06 L 113.66 11.95 L 113.48 11.83 L 113.32 11.83 L 113.16 11.83 L 112.90 11.82 L 112.64 11.82 L 112.37 11.82 L 112.09 11.82 L 111.81 11.82 L 111.53 11.82 L 111.25 11.81 L 110.97 11.81 L 110.80 11.81 L 110.63 11.81 L 110.38 11.81 L 110.12 11.81 L 109.84 11.81 L 109.57 11.81 L 109.18 11.81 L 108.79 11.81 L 108.48 11.81 L 108.18 11.81 L 107.90 11.81 L 107.61 11.81 L 107.33 11.81 L 107.05 11.81 L 106.88 11.81 L 106.71 11.81 L 106.46 11.81 L 106.20 11.81 L 105.92 11.81 L 105.65 11.81 L 105.37 11.81 L 105.09 11.81 L 104.81 11.81 L 104.53 11.81 L 104.36 11.81 L 104.19 11.81 L 103.93 11.81 L 103.68 11.81 L 103.51 11.81 L 103.35 11.81 L 103.21 11.81 L 103.06 11.81 L 102.92 11.81 L 102.78 11.81 L 102.64 11.81 L 102.50 11.81 L 102.35 11.80 L 102.20 11.78 L 102.06 11.89 L 101.93 11.99 L 101.80 12.01 L 101.67 12.02 L 101.53 12.14 L 101.39 12.25 L 101.25 12.28 L 101.11 12.30 L 100.96 12.42 L 100.81 12.54 L 100.54 12.57 L 100.28 12.60 L 100.12 12.72 L 99.95 12.83 L 99.59 12.88 L 99.23 12.92 L 99.01 12.92 L 98.78 12.92 L 98.51 13.03 L 98.24 13.14 L 97.78 13.17 L 97.33 13.20 L 97.02 13.21 L 96.70 13.21 L 96.30 13.21 L 95.91 13.21 L 95.49 13.22 L 95.07 13.22 L 94.65 13.22 L 94.24 13.22 L 93.93 13.22 L 93.62 13.22 L 93.22 13.22 L 92.82 13.22 L 92.52 13.22 L 92.22 13.22 L 91.82 13.22 L 91.42 13.22 L 91.12 13.22 L 90.82 13.22 L 90.64 13.22 L 90.47 13.22 L 90.28 13.21 L 90.09 13.20 L 89.83 13.31 L 89.58 13.42 L 89.35 13.45 L 89.12 13.48 L 88.84 13.49 L 88.56 13.49 L 88.39 13.49 L 88.23 13.49 L 87.97 13.50 L 87.71 13.50 L 87.44 13.50 L 87.16 13.50 L 86.88 13.50 L 86.60 13.50 L 86.32 13.50 L 86.04 13.50 L 85.76 13.50 L 85.48 13.50 L 85.20 13.50 L 84.92 13.50 L 84.64 13.50 L 84.36 13.50 L 83.92 13.49 L 83.49 13.49 L 83.00 13.36 L 82.52 13.23 L 82.24 13.11 L 81.97 12.98 L 81.60 12.96 L 81.22 12.94 L 80.81 12.82 L 80.39 12.70 L 80.02 12.69 L 79.65 12.67 L 79.35 12.66 L 79.05 12.66 L 78.65 12.66 L 78.26 12.66 L 78.07 12.66 L 77.88 12.66 L 77.61 12.66 L 77.35 12.66 L 77.08 12.66 L 76.80 12.66 L 76.41 12.66 L 76.02 12.66 L 75.78 12.65 L 75.54 12.64 L 75.27 12.75 L 74.99 12.86 L 74.58 12.89 L 74.17 12.91 L 73.76 13.03 L 73.34 13.15 L 72.88 13.18 L 72.41 13.20 L 71.98 13.21 L 71.55 13.21 L 71.02 13.21 L 70.49 13.21 L 70.04 13.22 L 69.60 13.22 L 69.18 13.22 L 68.75 13.22 L 68.33 13.22 L 67.91 13.22 L 67.60 13.22 L 67.29 13.22 L 67.05 13.21 L 66.82 13.21 L 66.49 13.30 L 66.17 13.40 L 65.84 13.54 L 65.51 13.69 L 65.22 13.71 L 64.93 13.74 L 64.65 13.86 L 64.36 13.98 L 64.02 14.01 L 63.67 14.04 L 63.44 14.04 L 63.22 14.04 L 62.94 14.15 L 62.67 14.26 L 62.21 14.29 L 61.76 14.32 L 61.33 14.33 L 60.91 14.33 L 60.49 14.33 L 60.07 14.34 L 59.76 14.34 L 59.45 14.34 L 59.10 14.33 L 58.75 14.32 L 58.41 14.20 L 58.07 14.07 L 57.67 13.93 L 57.27 13.79 L 57.01 13.67 L 56.74 13.54 L 56.46 13.51 L 56.19 13.49 L 55.87 13.36 L 55.55 13.23 L 55.21 13.11 L 54.87 12.99 L 54.47 12.96 L 54.06 12.94 L 53.64 12.82 L 53.22 12.70 L 52.96 12.68 L 52.69 12.67 L 52.42 12.66 L 52.15 12.66 L 51.76 12.66 L 51.37 12.66 L 51.07 12.66 L 50.76 12.66 L 50.48 12.66 L 50.19 12.66 L 49.91 12.66 L 49.63 12.66 L 49.35 12.66 L 49.07 12.66 L 48.84 12.65 L 48.61 12.65 L 48.22 12.76 L 47.84 12.87 L 47.29 12.90 L 46.74 12.92 L 45.96 13.04 L 45.19 13.15 L 44.56 13.18 L 43.93 13.20 L 43.35 13.21 L 42.78 13.21 L 42.44 13.21 L 42.10 13.21 L 41.85 13.21 L 41.60 13.20 L 41.33 13.09 L 41.06 12.97 L 40.74 12.96 L 40.42 12.95 L 39.90 12.94 L 39.39 12.94 L 38.84 12.94 L 38.29 12.94 L 37.84 12.94 L 37.39 12.94 L 36.97 12.94 L 36.54 12.94 L 36.23 12.94 L 35.92 12.94 L 35.41 12.94 L 34.90 12.94 L 34.35 12.94 L 33.80 12.94 L 33.13 12.94 L 32.46 12.94 L 31.99 12.94 L 31.52 12.94 L 31.09 12.94 L 30.66 12.94 L 30.35 12.94 L 30.04 12.94 L 29.87 12.94 L 29.69 12.94 L 29.43 12.94 L 29.18 12.94 L 28.90 12.94 L 28.62 12.94 L 28.28 12.93 L 27.93 12.92 L 27.64 12.81 L 27.35 12.69 L 27.06 12.67 L 26.78 12.65 L 26.50 12.53 L 26.22 12.41 L 26.01 12.40 L 25.79 12.39 L 25.41 12.38 L 25.04 12.38 L 24.62 12.38 L 24.21 12.38 L 23.79 12.38 L 23.37 12.38 L 22.95 12.38 L 22.53 12.38 L 22.23 12.38 L 21.92 12.38 L 21.63 12.38 L 21.35 12.38 L 21.07 12.36 L 20.78 12.34 L 20.52 12.16 L 20.26 11.98 L 20.20 11.90 L 20.14 11.82 L 20.01 11.82 L 19.89 11.83 L 19.70 11.82 L 19.51 11.81 L 19.25 11.91 L 19.00 12.02 L 18.88 12.02 L 18.76 12.03 L 18.67 12.11 L 18.58 12.20 L 18.34 12.33 L 18.09 12.46 L 17.88 12.66 L 17.66 12.86 L 17.41 13.21 L 17.16 13.56 L 16.90 13.94 L 16.64 14.32 L 16.50 14.65 L 16.37 14.99 L 16.34 15.34 L 16.32 15.70 L 16.31 16.11 L 16.31 16.51 L 16.30 17.08 L 16.30 17.64 L 16.18 18.23 L 16.06 18.82 L 15.93 19.46 L 15.80 20.11 L 15.78 20.66 L 15.76 21.21 L 15.75 21.65 L 15.75 22.10 L 15.74 22.52 L 15.74 22.95 L 15.74 23.48 L 15.74 24.01 L 15.74 24.48 L 15.74 24.96 L 15.61 25.68 L 15.49 26.39 L 15.24 26.99 L 14.99 27.58 L 14.83 28.13 L 14.67 28.68 L 14.54 29.09 L 14.40 29.51 L 14.38 29.91 L 14.35 30.31 L 14.22 31.01 L 14.10 31.70 L 13.83 32.43 L 13.57 33.17 L 13.19 33.96 L 12.81 34.76 L 12.63 35.46 L 12.45 36.15 L 12.31 36.60 L 12.16 37.05 L 12.14 37.43 L 12.12 37.81 L 12.11 38.38 L 12.10 38.95 L 11.98 39.43 L 11.86 39.91 L 11.72 40.45 L 11.59 40.99 L 11.46 41.51 L 11.32 42.03 L 11.30 42.55 L 11.27 43.07 L 11.27 43.65 L 11.26 44.23 L 11.14 44.93 L 11.03 45.63 L 10.89 46.31 L 10.76 46.98 L 10.74 47.65 L 10.71 48.31 L 10.71 48.89 L 10.70 49.48 L 10.70 50.04 L 10.70 50.60 L 10.69 50.97 L 10.68 51.33 L 10.87 51.67 L 11.05 52.00 L 11.31 52.41 L 11.57 52.82 L 11.85 53.23 L 12.13 53.65 L 12.39 54.05 L 12.65 54.45 L 12.88 54.70 L 13.11 54.96 L 13.35 55.10 L 13.60 55.25 L 13.95 55.49 L 14.31 55.73 L 14.79 55.87 L 15.27 56.02 L 15.72 56.17 L 16.16 56.31 L 16.58 56.45 L 16.99 56.59 L 17.48 56.72 L 17.96 56.85 L 18.48 56.87 L 18.99 56.89 L 19.65 56.90 L 20.31 56.91 L 21.00 56.91 L 21.70 56.91 L 22.40 56.91 L 23.10 56.91 L 23.88 56.91 L 24.67 56.91 L 25.50 56.80 L 26.33 56.69 L 27.08 56.66 L 27.83 56.64 L 28.63 56.64 L 29.43 56.63 L 30.22 56.53 L 31.00 56.42 L 31.86 56.17 L 32.71 55.92 L 33.58 55.87 L 34.44 55.82 L 35.40 55.69 L 36.36 55.57 L 37.22 55.55 L 38.07 55.52 L 38.78 55.41 L 39.48 55.30 L 40.18 55.16 L 40.87 55.03 L 41.44 54.90 L 42.01 54.76 L 42.81 54.51 L 43.61 54.25 L 44.60 54.08 L 45.59 53.91 L 46.59 53.88 L 47.59 53.84 L 48.49 53.84 L 49.39 53.83 L 50.13 53.94 L 50.87 54.06 L 51.55 54.08 L 52.23 54.10 L 52.85 54.10 L 53.46 54.11 L 54.17 54.23 L 54.88 54.34 L 55.57 54.48 L 56.26 54.61 L 57.30 54.75 L 58.34 54.89 L 59.45 55.14 L 60.56 55.40 L 61.55 55.56 L 62.55 55.72 L 63.46 55.87 L 64.37 56.02 L 65.01 56.28 L 65.65 56.54 L 66.23 56.71 L 66.81 56.87 L 67.36 57.12 L 67.91 57.37 L 68.76 57.52 L 69.60 57.68 L 70.54 57.82 L 71.48 57.96 L 72.43 57.99 L 73.38 58.01 L 74.36 58.02 L 75.33 58.03 L 76.09 58.03 L 76.84 58.03 L 77.48 58.03 L 78.11 58.03 L 78.68 58.14 L 79.26 58.26 L 79.90 58.28 L 80.54 58.30 L 81.43 58.30 L 82.32 58.31 L 83.29 58.20 L 84.25 58.09 L 85.32 58.07 L 86.38 58.05 L 87.27 57.82 L 88.15 57.59 L 88.90 57.54 L 89.64 57.50 L 90.24 57.38 L 90.84 57.25 L 91.56 57.23 L 92.27 57.20 L 92.97 57.20 L 93.67 57.19 L 94.35 57.19 L 95.03 57.19 L 95.82 57.08 L 96.61 56.97 L 97.64 56.84 L 98.68 56.71 L 99.55 56.46 L 100.42 56.21 L 101.25 56.06 L 102.08 55.90 L 102.69 55.65 L 103.29 55.40 L 103.92 55.22 L 104.55 55.04 L 105.13 55.00 L 105.71 54.97 L 106.36 54.85 L 107.01 54.74 L 107.82 54.60 L 108.63 54.47 L 109.49 54.32 L 110.34 54.18 L 111.10 54.15 L 111.85 54.12 L 112.45 54.12 L 113.05 54.11 L 113.51 54.11 L 113.96 54.11 L 114.39 54.11 L 114.82 54.11 L 115.24 54.11 L 115.66 54.11 L 116.19 54.11 L 116.73 54.11 L 117.39 54.11 L 118.06 54.11 L 118.75 54.11 L 119.45 54.11 L 120.28 54.11 L 121.12 54.11 L 121.85 54.22 L 122.58 54.33 L 123.26 54.36 L 123.94 54.38 L 124.55 54.38 L 125.17 54.39 L 125.74 54.50 L 126.30 54.62 L 126.87 54.64 L 127.43 54.66 L 127.99 54.78 L 128.55 54.90 L 129.11 54.92 L 129.67 54.94 L 130.23 55.06 L 130.79 55.18 L 131.35 55.20 L 131.90 55.22 L 132.57 55.34 L 133.25 55.45 L 133.80 55.48 L 134.35 55.50 L 135.05 55.50 L 135.75 55.51 L 136.45 55.62 L 137.15 55.74 L 137.71 55.76 L 138.27 55.78 L 138.75 55.78 L 139.24 55.79 L 139.78 55.90 L 140.33 56.02 L 140.74 56.04 L 141.15 56.06 L 141.79 56.06 L 142.43 56.07 L 143.23 56.07 L 144.03 56.07 L 144.86 56.07 L 145.69 56.07 L 146.45 56.07 L 147.20 56.07 L 147.92 56.18 L 148.63 56.30 L 149.19 56.32 L 149.75 56.34 L 150.28 56.34 L 150.80 56.35 L 151.32 56.24 L 151.84 56.14 L 152.39 56.01 L 152.95 55.88 L 153.52 55.73 L 154.09 55.59 L 154.87 55.45 L 155.64 55.32 L 156.13 55.18 L 156.62 55.04 L 157.27 54.90 L 157.93 54.76 L 158.72 54.51 L 159.52 54.26 L 160.17 54.09 L 160.82 53.92 L 161.43 53.88 L 162.04 53.84 L 162.39 53.84 L 162.74 53.83 L 163.03 53.83 L 163.33 53.83 L 163.72 53.83 L 164.12 53.83 L 164.53 53.83 L 164.95 53.83 L 165.26 53.83 L 165.56 53.83 L 165.96 53.83 L 166.36 53.83 L 166.77 53.83 L 167.19 53.83 L 167.61 53.83 L 168.03 53.83 L 168.56 53.83 L 169.09 53.83 L 169.65 53.83 L 170.20 53.83 L 170.76 53.83 L 171.32 53.83 L 171.81 53.83 L 172.30 53.83 L 172.74 53.95 L 173.17 54.06 L 173.55 54.08 L 173.93 54.10 L 174.34 54.10 L 174.75 54.11 L 175.23 54.11 L 175.71 54.12 L 176.07 54.24 L 176.44 54.37 L 176.79 54.49 L 177.15 54.62 L 177.44 54.64 L 177.74 54.67 L 178.17 54.79 L 178.61 54.92 L 178.98 55.05 L 179.36 55.17 L 179.95 55.19 L 180.54 55.21 L 181.11 55.22 L 181.68 55.23 L 182.35 55.23 L 183.02 55.23 L 183.72 55.23 L 184.41 55.23 L 185.00 55.23 L 185.59 55.23 L 186.19 55.23 L 186.79 55.23 L 187.36 55.34 L 187.93 55.46 L 188.39 55.48 L 188.85 55.51 L 189.28 55.62 L 189.70 55.74 L 190.12 55.76 L 190.53 55.78 L 191.09 55.90 L 191.64 56.03 L 192.31 56.16 L 192.97 56.29 L 193.66 56.43 L 194.36 56.57 L 195.05 56.71 L 195.74 56.85 L 196.53 56.99 L 197.32 57.12 L 197.93 57.15 L 198.54 57.18 L 199.22 57.30 L 199.90 57.41 L 200.46 57.44 L 201.01 57.46 L 201.49 57.46 L 201.98 57.47 L 202.52 57.58 L 203.06 57.70 L 203.70 57.72 L 204.33 57.74 L 204.94 57.74 L 205.55 57.75 L 206.12 57.86 L 206.69 57.98 L 207.22 58.00 L 207.74 58.02 L 208.41 58.02 L 209.08 58.03 L 209.66 58.03 L 210.24 58.03 L 210.80 58.03 L 211.37 58.03 L 211.82 58.03 L 212.27 58.03 L 212.65 58.03 L 213.03 58.03 L 213.44 57.92 L 213.85 57.81 L 214.27 57.79 L 214.69 57.77 L 215.11 57.65 L 215.53 57.54 L 215.92 57.52 L 216.32 57.50 L 216.81 57.29 L 217.29 57.07 L 217.73 56.92 L 218.16 56.76 L 218.68 56.51 L 219.20 56.27 L 219.75 55.99 L 220.30 55.72 L 220.62 55.56 L 220.94 55.40 L 221.30 55.17 L 221.67 54.94 L 221.92 54.71 L 222.18 54.48 L 222.44 54.12 L 222.70 53.76 L 222.97 53.36 L 223.24 52.97 L 223.39 52.68 L 223.55 52.39 L 223.69 52.11 L 223.84 51.83 L 223.98 51.55 L 224.12 51.27 L 224.24 51.04 L 224.36 50.81 L 224.38 50.65 L 224.41 50.49 L 224.55 50.18 L 224.68 49.88 L 224.82 49.59 L 224.96 49.31 L 225.10 49.03 L 225.24 48.75 L 225.38 48.47 L 225.52 48.19 L 225.66 47.91 L 225.80 47.63 L 225.93 47.37 L 226.06 47.11 L 226.21 46.69 L 226.37 46.27 L 226.51 46.08 L 226.65 45.89 L 226.77 45.54 L 226.90 45.20 L 227.05 44.89 L 227.19 44.57 L 227.31 44.34 L 227.43 44.11 L 227.45 43.86 L 227.47 43.61 L 227.59 43.22 L 227.71 42.84 L 227.73 42.47 L 227.74 42.11 L 227.75 41.76 L 227.76 41.42 L 227.87 41.01 L 227.99 40.60 L 228.01 40.34 L 228.02 40.08 L 228.03 39.81 L 228.03 39.54 L 228.03 39.15 L 228.03 38.76 L 228.03 38.46 L 228.04 38.15 L 228.05 37.98 L 228.07 37.82 L 227.92 37.65 L 227.76 37.48 L 227.50 37.22 L 227.25 36.95 L 226.95 36.65 L 226.66 36.35 L 226.35 35.92 L 226.04 35.49 L 225.85 35.15 L 225.66 34.80 L 225.50 34.38 L 225.35 33.95 L 225.21 33.55 L 225.07 33.15 L 224.94 32.86 L 224.81 32.57 L 224.65 32.23 L 224.49 31.89 L 224.45 31.42 L 224.41 30.95 L 224.41 30.59 L 224.40 30.22 L 224.53 29.77 L 224.65 29.32 L 224.79 28.89 L 224.92 28.47 L 225.07 28.03 L 225.21 27.59 L 225.34 27.33 L 225.47 27.06 L 225.49 26.67 L 225.52 26.29 L 225.66 25.92 L 225.79 25.55 L 225.93 25.25 L 226.08 24.96 L 226.24 24.63 L 226.41 24.31 L 226.66 24.02 L 226.92 23.73 L 227.04 23.54 L 227.15 23.36 L 227.18 23.10 L 227.20 22.84 L 227.32 22.57 L 227.43 22.30 L 227.46 21.91 L 227.48 21.53 L 227.60 21.22 L 227.71 20.92 L 227.73 20.59 L 227.74 20.25 L 227.75 19.96 L 227.75 19.66 L 227.75 19.38 L 227.75 19.10 L 227.75 18.82 L 227.75 18.54 L 227.76 18.32 L 227.77 18.11 L 227.66 17.85 L 227.55 17.59 L 227.53 17.43 L 227.51 17.27 L 227.44 17.11 L 227.37 16.95 L 227.16 16.72 L 226.95 16.49 L 226.76 16.29 L 226.57 16.10 L 226.42 15.83 L 226.27 15.57 L 226.16 15.44 L 226.05 15.31 L 225.95 15.21 L 225.86 15.10 L 225.65 14.99 L 225.45 14.88 L 225.25 14.77 L 225.04 14.66 L 224.67 14.64 L 224.30 14.61 L 224.00 14.50 L 223.70 14.38 L 223.36 14.36 L 223.02 14.35 L 222.77 14.33 L 222.52 14.32 L 222.25 14.21 L 221.98 14.09 L 221.66 14.08 L 221.34 14.07 L 220.94 14.06 L 220.54 14.06 L 219.97 14.06 L 219.41 14.05 L 218.85 13.94 L 218.29 13.83 L 217.76 13.81 L 217.23 13.79 L 216.75 13.78 L 216.26 13.77 L 215.83 13.66 L 215.39 13.54 L 215.02 13.52 L 214.64 13.51 L 214.23 13.50 L 213.82 13.50 L 213.51 13.50 L 213.20 13.50 L 212.81 13.50 L 212.41 13.50 L 212.11 13.50 L 211.80 13.50 L 211.34 13.49 L 210.89 13.48 L 210.57 13.37 L 210.26 13.26 L 209.92 13.24 L 209.59 13.23 L 209.07 13.22 L 208.55 13.22 L 207.86 13.22 L 207.16 13.21 L 206.47 13.10 L 205.77 12.99 L 205.17 12.96 L 204.58 12.94 L 203.98 12.82 L 203.38 12.70 L 202.81 12.56 L 202.24 12.42 L 201.68 12.28 L 201.12 12.14 L 200.59 12.01 L 200.06 11.88 L 199.50 11.85 L 198.94 11.82 L 198.49 11.70 L 198.05 11.59 L 197.51 11.56 L 196.97 11.54 L 196.52 11.42 L 196.08 11.31 L 195.66 11.29 L 195.24 11.27 L 194.71 11.15 L 194.18 11.04 L 193.55 11.02 L 192.92 11.00 L 192.24 10.99 L 191.55 10.99 L 190.85 10.99 L 190.15 10.99 L 189.60 10.98 L 189.05 10.98 L 188.53 11.08 L 188.01 11.19 L 187.57 11.32 L 187.14 11.44 L 186.60 11.58 L 186.06 11.72 L 185.63 11.85 L 185.20 11.99 L 184.73 12.14 L 184.26 12.29 L 183.71 12.32 L 183.16 12.36 L 182.64 12.47 L 182.11 12.58 L 181.56 12.71 L 181.01 12.85 L 180.42 12.99 L 179.82 13.14 L 179.22 13.17 L 178.62 13.20 L 178.17 13.21 L 177.71 13.21 L 177.28 13.21 L 176.85 13.21 L 176.43 13.21 L 176.01 13.22 L 175.70 13.22 L 175.39 13.22 L 174.88 13.22 L 174.37 13.22 L 173.82 13.22 L 173.27 13.22 L 172.63 13.21 L 171.99 13.21 L 171.30 13.32 L 170.61 13.44 L 169.77 13.46 L 168.93 13.48 L 168.21 13.49 L 167.48 13.49 L 166.78 13.49 L 166.07 13.49 L 165.48 13.50 L 164.89 13.50 L 164.32 13.50 L 163.76 13.50 L 163.25 13.49 L 162.74 13.49 L 162.35 13.35 L 161.97 13.22 L 161.68 13.08 L 161.39 12.95 L 161.03 12.82 L 160.67 12.69 L 160.15 12.56 L 159.64 12.42 L 159.12 12.29 L 158.61 12.16 L 158.09 12.13 L 157.57 12.11 L 156.98 12.10 L 156.38 12.09 L 155.89 11.97 L 155.39 11.84 L 154.99 11.72 L 154.60 11.59 L 154.12 11.57 L 153.64 11.55 L 153.20 11.54 L 152.77 11.54 L 152.30 11.53 L 151.83 11.53 L 151.40 11.42 L 150.97 11.31 L 150.56 11.29 L 150.15 11.27 L 149.62 11.15 L 149.08 11.04 L 148.64 11.01 L 148.20 10.99 L 147.66 10.87 L 147.13 10.76 L 146.61 10.74 L 146.09 10.72 L 145.54 10.71 L 144.99 10.71 L 144.32 10.71 L 143.65 10.71 L 142.98 10.70 L 142.30 10.70 L 141.53 10.81 L 140.76 10.92 L 140.16 11.05 L 139.56 11.18 L 138.89 11.32 L 138.22 11.44 L 137.43 11.69 L 136.63 11.94 L 135.67 12.22 L 134.70 12.50 L 133.83 12.67 L 132.96 12.84 L 132.33 12.98 L 131.70 13.13 L 131.43 13.17 L 131.15 13.20 L 130.82 13.20 L 130.49 13.21 L 129.98 13.10 L 129.47 12.98 L 128.91 12.96 L 128.36 12.94 L 127.91 12.82 L 127.45 12.70 L 127.12 12.68 L 126.78 12.65 L 126.49 12.53 L 126.22 12.41 L 125.95 12.39 L 125.69 12.37 L 125.30 12.26 L 124.91 12.14 L 124.44 12.13 L 123.96 12.11 L 123.41 12.10 L 122.87 12.10 L 122.27 12.09 L 121.67 12.09 L 121.20 11.98 L 120.73 11.86 L 120.46 11.82 L 120.19 11.78 L 119.91 11.57 L 119.62 11.37 L 119.58 11.31 L 119.54 11.25 L 119.52 11.19 L 119.49 11.13 L 119.47 11.06 L 119.46 11.00 L 119.45 10.93 L 119.45 10.86 L 119.46 10.79 L 119.47 10.72 L 119.50 10.66 L 119.52 10.59 L 119.56 10.54 L 119.59 10.48 L 119.64 10.43 L 119.69 10.38 L 119.74 10.34 L 119.80 10.30 L 119.86 10.27 L 119.92 10.24 L 119.99 10.22 L 120.06 10.21 L 120.13 10.21 L 120.19 10.20 L 120.26 10.22 L 120.33 10.23 L 120.39 10.25 L 120.46 10.27 L 120.52 10.31 L 120.57 10.35 L 120.62 10.39 L 126.72 10.91 L 126.72 10.91 L 126.72 10.91 L 126.52 10.73 L 126.32 10.56 L 126.07 10.50 L 125.81 10.44 L 125.64 10.43 L 125.48 10.43 L 125.33 10.43 L 125.19 10.43 L 124.93 10.43 L 124.68 10.43 L 124.52 10.42 L 124.36 10.42 L 124.21 10.42 L 124.07 10.42 L 123.81 10.42 L 123.56 10.42 L 123.29 10.42 L 123.01 10.42 L 122.84 10.42 L 122.68 10.42 L 122.42 10.42 L 122.16 10.42 L 121.89 10.42 L 121.61 10.42 L 121.22 10.42 L 120.83 10.42 L 120.41 10.42 L 120.00 10.42 L 119.65 10.43 L 119.29 10.43 L 118.88 10.55 L 118.47 10.66 L 118.21 10.68 L 117.95 10.69 L 117.57 10.70 L 117.19 10.70 L 116.88 10.70 L 116.58 10.70 L 116.30 10.70 L 116.01 10.70 L 115.73 10.70 L 115.45 10.70 L 115.17 10.70 L 114.89 10.70 L 114.72 10.70 L 114.56 10.70 L 114.40 10.72 L 114.25 10.74 L 114.10 10.63 L 113.95 10.52 L 113.59 10.48 L 113.24 10.44 L 112.95 10.43 L 112.66 10.43 L 112.37 10.43 L 112.09 10.43 L 111.81 10.43 L 111.53 10.43 L 111.25 10.42 L 110.97 10.42 L 110.80 10.42 L 110.63 10.42 L 110.38 10.42 L 110.12 10.42 L 109.84 10.42 L 109.57 10.42 L 109.18 10.42 L 108.79 10.42 L 108.48 10.42 L 108.18 10.42 L 107.90 10.42 L 107.61 10.42 L 107.33 10.42 L 107.05 10.42 L 106.88 10.42 L 106.71 10.42 L 106.46 10.42 L 106.20 10.42 L 105.92 10.42 L 105.65 10.42 L 105.37 10.42 L 105.09 10.42 L 104.81 10.42 L 104.53 10.42 L 104.36 10.42 L 104.19 10.42 L 103.93 10.42 L 103.68 10.42 L 103.51 10.42 L 103.35 10.42 L 103.21 10.42 L 103.06 10.42 L 102.92 10.42 L 102.78 10.42 L 102.64 10.42 L 102.50 10.42 L 102.14 10.44 L 101.79 10.46 L 101.60 10.58 L 101.41 10.70 L 101.25 10.73 L 101.09 10.76 L 100.95 10.87 L 100.81 10.99 L 100.67 11.01 L 100.53 11.04 L 100.40 11.15 L 100.27 11.26 L 100.03 11.28 L 99.79 11.30 L 99.63 11.40 L 99.46 11.52 L 99.31 11.52 L 99.16 11.52 L 98.83 11.54 L 98.50 11.55 L 98.22 11.66 L 97.93 11.78 L 97.60 11.79 L 97.28 11.80 L 96.98 11.81 L 96.69 11.81 L 96.30 11.81 L 95.90 11.81 L 95.49 11.82 L 95.07 11.82 L 94.65 11.82 L 94.24 11.82 L 93.93 11.82 L 93.62 11.82 L 93.22 11.82 L 92.82 11.82 L 92.52 11.82 L 92.22 11.82 L 91.82 11.82 L 91.42 11.82 L 91.12 11.82 L 90.82 11.82 L 90.64 11.82 L 90.47 11.82 L 90.15 11.82 L 89.82 11.83 L 89.52 11.95 L 89.22 12.06 L 89.12 12.07 L 89.01 12.09 L 88.78 12.09 L 88.54 12.09 L 88.38 12.09 L 88.22 12.09 L 87.97 12.10 L 87.71 12.10 L 87.44 12.10 L 87.16 12.10 L 86.88 12.10 L 86.60 12.10 L 86.32 12.10 L 86.04 12.10 L 85.76 12.10 L 85.48 12.10 L 85.20 12.10 L 84.92 12.10 L 84.64 12.10 L 84.36 12.10 L 84.02 12.10 L 83.67 12.10 L 83.33 12.01 L 82.98 11.91 L 82.64 11.77 L 82.30 11.62 L 81.88 11.59 L 81.46 11.56 L 81.04 11.44 L 80.62 11.33 L 80.16 11.31 L 79.70 11.28 L 79.38 11.27 L 79.06 11.27 L 78.66 11.27 L 78.26 11.27 L 78.07 11.27 L 77.88 11.27 L 77.61 11.27 L 77.35 11.27 L 77.08 11.27 L 76.80 11.27 L 76.41 11.27 L 76.02 11.27 L 75.65 11.27 L 75.28 11.28 L 74.99 11.39 L 74.69 11.50 L 74.32 11.51 L 73.94 11.53 L 73.53 11.65 L 73.11 11.77 L 72.74 11.79 L 72.37 11.80 L 71.95 11.81 L 71.54 11.81 L 71.01 11.81 L 70.48 11.81 L 70.04 11.82 L 69.60 11.82 L 69.17 11.82 L 68.75 11.82 L 68.33 11.82 L 67.91 11.82 L 67.60 11.82 L 67.29 11.82 L 66.96 11.82 L 66.62 11.82 L 66.16 11.95 L 65.70 12.08 L 65.42 12.21 L 65.15 12.33 L 64.87 12.36 L 64.59 12.38 L 64.31 12.50 L 64.03 12.62 L 63.82 12.63 L 63.60 12.64 L 63.27 12.66 L 62.94 12.67 L 62.65 12.78 L 62.36 12.90 L 62.04 12.91 L 61.71 12.92 L 61.30 12.93 L 60.90 12.93 L 60.48 12.93 L 60.06 12.94 L 59.76 12.94 L 59.45 12.94 L 59.23 12.94 L 59.01 12.95 L 58.78 12.85 L 58.56 12.76 L 58.17 12.62 L 57.79 12.49 L 57.45 12.34 L 57.11 12.19 L 56.82 12.16 L 56.53 12.13 L 56.29 12.03 L 56.04 11.92 L 55.60 11.77 L 55.15 11.62 L 54.72 11.59 L 54.30 11.56 L 53.88 11.44 L 53.46 11.33 L 53.11 11.31 L 52.76 11.28 L 52.46 11.27 L 52.16 11.27 L 51.77 11.27 L 51.37 11.27 L 51.07 11.27 L 50.76 11.27 L 50.48 11.27 L 50.19 11.27 L 49.91 11.27 L 49.63 11.27 L 49.35 11.27 L 49.07 11.27 L 48.74 11.27 L 48.42 11.27 L 48.02 11.39 L 47.62 11.49 L 47.11 11.51 L 46.61 11.53 L 45.83 11.64 L 45.05 11.76 L 44.48 11.78 L 43.90 11.80 L 43.33 11.81 L 42.77 11.81 L 42.43 11.81 L 42.10 11.81 L 41.99 11.82 L 41.88 11.83 L 41.63 11.72 L 41.38 11.61 L 40.92 11.58 L 40.47 11.55 L 39.93 11.54 L 39.40 11.54 L 38.84 11.54 L 38.29 11.54 L 37.84 11.54 L 37.39 11.54 L 36.97 11.54 L 36.54 11.54 L 36.23 11.54 L 35.92 11.54 L 35.41 11.54 L 34.90 11.54 L 34.35 11.54 L 33.80 11.54 L 33.13 11.54 L 32.46 11.54 L 31.99 11.54 L 31.52 11.54 L 31.09 11.54 L 30.66 11.54 L 30.35 11.54 L 30.04 11.54 L 29.87 11.54 L 29.69 11.54 L 29.43 11.54 L 29.18 11.54 L 28.90 11.54 L 28.62 11.54 L 28.41 11.54 L 28.20 11.55 L 27.93 11.44 L 27.67 11.34 L 27.39 11.32 L 27.11 11.30 L 26.83 11.18 L 26.55 11.06 L 26.20 11.03 L 25.86 11.00 L 25.45 10.99 L 25.05 10.99 L 24.63 10.99 L 24.21 10.99 L 23.79 10.99 L 23.37 10.99 L 22.95 10.99 L 22.53 10.99 L 22.23 10.99 L 21.92 10.99 L 21.63 10.99 L 21.35 10.99 L 21.29 11.00 L 21.23 11.02 L 21.20 10.98 L 21.17 10.93 L 20.95 10.74 L 20.73 10.56 L 20.35 10.50 L 19.97 10.44 L 19.61 10.44 L 19.26 10.44 L 18.95 10.56 L 18.65 10.67 L 18.43 10.71 L 18.21 10.75 L 18.01 10.90 L 17.81 11.04 L 17.55 11.18 L 17.29 11.33 L 16.95 11.62 L 16.62 11.92 L 16.31 12.34 L 16.01 12.76 L 15.71 13.21 L 15.40 13.66 L 15.20 14.16 L 15.01 14.67 L 14.96 15.15 L 14.92 15.63 L 14.91 16.07 L 14.91 16.50 L 14.91 17.00 L 14.91 17.50 L 14.80 18.02 L 14.69 18.54 L 14.55 19.24 L 14.41 19.94 L 14.39 20.55 L 14.36 21.17 L 14.35 21.63 L 14.35 22.09 L 14.34 22.52 L 14.34 22.94 L 14.34 23.48 L 14.34 24.01 L 14.34 24.42 L 14.34 24.84 L 14.25 25.42 L 14.15 26.00 L 13.91 26.56 L 13.67 27.12 L 13.50 27.70 L 13.33 28.27 L 13.18 28.76 L 13.03 29.24 L 12.99 29.69 L 12.96 30.14 L 12.85 30.74 L 12.74 31.34 L 12.51 31.98 L 12.28 32.63 L 11.89 33.45 L 11.50 34.28 L 11.30 35.02 L 11.10 35.77 L 10.95 36.28 L 10.79 36.79 L 10.75 37.28 L 10.72 37.76 L 10.71 38.26 L 10.71 38.76 L 10.60 39.17 L 10.50 39.57 L 10.36 40.11 L 10.23 40.65 L 10.08 41.23 L 9.94 41.82 L 9.91 42.42 L 9.88 43.02 L 9.87 43.56 L 9.87 44.10 L 9.76 44.74 L 9.65 45.38 L 9.51 46.10 L 9.37 46.82 L 9.34 47.55 L 9.31 48.28 L 9.31 48.87 L 9.30 49.47 L 9.30 50.04 L 9.30 50.60 L 9.31 51.14 L 9.32 51.67 L 9.58 52.19 L 9.84 52.71 L 10.12 53.14 L 10.40 53.58 L 10.68 54.00 L 10.96 54.42 L 11.25 54.87 L 11.55 55.31 L 11.88 55.67 L 12.21 56.03 L 12.53 56.23 L 12.84 56.43 L 13.28 56.71 L 13.71 56.99 L 14.28 57.17 L 14.85 57.35 L 15.28 57.50 L 15.72 57.64 L 16.16 57.78 L 16.59 57.93 L 17.17 58.08 L 17.75 58.23 L 18.35 58.26 L 18.95 58.29 L 19.63 58.30 L 20.30 58.31 L 21.00 58.31 L 21.70 58.31 L 22.40 58.31 L 23.10 58.31 L 23.93 58.31 L 24.77 58.31 L 25.61 58.19 L 26.45 58.08 L 27.15 58.06 L 27.86 58.04 L 28.69 58.03 L 29.53 58.03 L 30.41 57.91 L 31.30 57.79 L 32.12 57.55 L 32.95 57.30 L 33.76 57.26 L 34.57 57.21 L 35.52 57.09 L 36.47 56.97 L 37.34 56.94 L 38.20 56.92 L 38.96 56.80 L 39.72 56.68 L 40.44 56.54 L 41.16 56.40 L 41.77 56.26 L 42.38 56.11 L 43.16 55.86 L 43.94 55.61 L 44.84 55.46 L 45.73 55.31 L 46.68 55.27 L 47.62 55.24 L 48.45 55.24 L 49.29 55.23 L 50.02 55.34 L 50.74 55.45 L 51.47 55.47 L 52.21 55.50 L 52.77 55.50 L 53.34 55.50 L 53.98 55.61 L 54.63 55.72 L 55.33 55.86 L 56.03 55.99 L 57.06 56.13 L 58.09 56.27 L 59.19 56.52 L 60.29 56.77 L 61.31 56.93 L 62.32 57.10 L 63.16 57.23 L 63.99 57.37 L 64.59 57.62 L 65.20 57.86 L 65.76 58.02 L 66.33 58.18 L 66.91 58.45 L 67.49 58.71 L 68.43 58.88 L 69.38 59.06 L 70.37 59.21 L 71.35 59.35 L 72.36 59.38 L 73.36 59.41 L 74.34 59.42 L 75.33 59.43 L 76.08 59.43 L 76.84 59.43 L 77.41 59.43 L 77.97 59.43 L 78.54 59.54 L 79.10 59.65 L 79.80 59.67 L 80.51 59.70 L 81.46 59.70 L 82.40 59.71 L 83.37 59.59 L 84.35 59.48 L 85.46 59.46 L 86.57 59.43 L 87.47 59.20 L 88.37 58.97 L 89.10 58.93 L 89.83 58.89 L 90.42 58.76 L 91.01 58.64 L 91.65 58.62 L 92.30 58.60 L 92.99 58.60 L 93.68 58.59 L 94.40 58.59 L 95.12 58.59 L 95.96 58.47 L 96.79 58.36 L 97.88 58.22 L 98.96 58.08 L 99.85 57.83 L 100.75 57.57 L 101.62 57.41 L 102.48 57.24 L 103.12 56.98 L 103.75 56.72 L 104.27 56.57 L 104.78 56.42 L 105.32 56.39 L 105.87 56.36 L 106.56 56.24 L 107.25 56.12 L 108.06 55.98 L 108.86 55.85 L 109.67 55.71 L 110.48 55.57 L 111.18 55.55 L 111.88 55.52 L 112.47 55.52 L 113.06 55.51 L 113.51 55.51 L 113.97 55.51 L 114.39 55.51 L 114.82 55.51 L 115.24 55.51 L 115.66 55.51 L 116.19 55.51 L 116.73 55.51 L 117.39 55.51 L 118.06 55.51 L 118.75 55.51 L 119.45 55.51 L 120.23 55.51 L 121.01 55.51 L 121.73 55.62 L 122.45 55.73 L 123.18 55.75 L 123.91 55.78 L 124.47 55.78 L 125.03 55.78 L 125.59 55.89 L 126.15 56.01 L 126.70 56.03 L 127.26 56.05 L 127.82 56.17 L 128.38 56.28 L 128.94 56.31 L 129.50 56.33 L 130.06 56.45 L 130.62 56.56 L 131.19 56.59 L 131.75 56.61 L 132.42 56.73 L 133.10 56.85 L 133.71 56.87 L 134.32 56.90 L 134.98 56.90 L 135.63 56.90 L 136.32 57.02 L 137.01 57.13 L 137.62 57.15 L 138.24 57.18 L 138.66 57.18 L 139.09 57.18 L 139.62 57.29 L 140.15 57.41 L 140.63 57.43 L 141.11 57.46 L 141.76 57.46 L 142.42 57.47 L 143.23 57.47 L 144.03 57.47 L 144.86 57.47 L 145.69 57.47 L 146.39 57.47 L 147.09 57.47 L 147.79 57.58 L 148.49 57.69 L 149.11 57.71 L 149.72 57.74 L 150.33 57.74 L 150.93 57.74 L 151.54 57.63 L 152.14 57.51 L 152.71 57.37 L 153.28 57.24 L 153.83 57.10 L 154.38 56.96 L 155.17 56.82 L 155.96 56.68 L 156.46 56.54 L 156.96 56.40 L 157.62 56.26 L 158.28 56.11 L 159.10 55.86 L 159.91 55.61 L 160.47 55.45 L 161.04 55.30 L 161.57 55.27 L 162.10 55.24 L 162.43 55.24 L 162.76 55.23 L 163.04 55.23 L 163.33 55.23 L 163.73 55.23 L 164.12 55.23 L 164.53 55.23 L 164.95 55.23 L 165.26 55.23 L 165.56 55.23 L 165.96 55.23 L 166.36 55.23 L 166.77 55.23 L 167.19 55.23 L 167.61 55.23 L 168.03 55.23 L 168.56 55.23 L 169.09 55.23 L 169.65 55.23 L 170.20 55.23 L 170.76 55.23 L 171.32 55.23 L 171.72 55.22 L 172.12 55.22 L 172.54 55.33 L 172.96 55.44 L 173.42 55.47 L 173.89 55.50 L 174.32 55.50 L 174.74 55.51 L 175.11 55.50 L 175.47 55.50 L 175.72 55.59 L 175.97 55.69 L 176.42 55.84 L 176.86 55.99 L 177.17 56.01 L 177.48 56.04 L 177.84 56.15 L 178.19 56.26 L 178.65 56.40 L 179.11 56.55 L 179.80 56.58 L 180.50 56.61 L 181.09 56.62 L 181.67 56.63 L 182.35 56.63 L 183.02 56.63 L 183.72 56.63 L 184.41 56.63 L 185.00 56.63 L 185.59 56.63 L 186.12 56.63 L 186.65 56.62 L 187.20 56.74 L 187.76 56.85 L 188.19 56.87 L 188.63 56.89 L 189.05 57.00 L 189.48 57.12 L 189.91 57.15 L 190.34 57.17 L 190.85 57.28 L 191.35 57.39 L 192.02 57.53 L 192.69 57.67 L 193.39 57.81 L 194.08 57.95 L 194.78 58.09 L 195.49 58.23 L 196.33 58.37 L 197.16 58.51 L 197.77 58.54 L 198.39 58.57 L 199.07 58.69 L 199.75 58.81 L 200.36 58.83 L 200.98 58.86 L 201.40 58.86 L 201.82 58.86 L 202.36 58.97 L 202.89 59.09 L 203.60 59.11 L 204.30 59.14 L 204.85 59.14 L 205.41 59.14 L 205.96 59.26 L 206.52 59.37 L 207.12 59.39 L 207.71 59.42 L 208.39 59.42 L 209.07 59.43 L 209.65 59.43 L 210.24 59.43 L 210.80 59.43 L 211.37 59.43 L 211.82 59.43 L 212.27 59.43 L 212.74 59.43 L 213.21 59.42 L 213.64 59.31 L 214.07 59.20 L 214.49 59.17 L 214.91 59.15 L 215.33 59.03 L 215.75 58.92 L 216.20 58.89 L 216.64 58.86 L 217.22 58.62 L 217.80 58.37 L 218.25 58.21 L 218.70 58.05 L 219.25 57.79 L 219.81 57.53 L 220.37 57.25 L 220.93 56.97 L 221.28 56.80 L 221.63 56.62 L 222.07 56.34 L 222.52 56.05 L 222.87 55.73 L 223.22 55.41 L 223.53 54.99 L 223.84 54.57 L 224.14 54.13 L 224.43 53.70 L 224.61 53.37 L 224.79 53.05 L 224.94 52.76 L 225.09 52.47 L 225.23 52.18 L 225.37 51.90 L 225.53 51.57 L 225.69 51.24 L 225.72 51.07 L 225.75 50.90 L 225.85 50.69 L 225.95 50.48 L 226.08 50.20 L 226.21 49.93 L 226.35 49.66 L 226.49 49.38 L 226.63 49.10 L 226.77 48.82 L 226.91 48.54 L 227.05 48.26 L 227.20 47.96 L 227.35 47.66 L 227.48 47.30 L 227.60 46.93 L 227.74 46.74 L 227.88 46.55 L 228.04 46.15 L 228.19 45.74 L 228.32 45.46 L 228.46 45.18 L 228.62 44.84 L 228.78 44.50 L 228.81 44.19 L 228.85 43.88 L 228.97 43.48 L 229.09 43.08 L 229.11 42.62 L 229.14 42.16 L 229.14 41.89 L 229.15 41.62 L 229.26 41.23 L 229.37 40.84 L 229.40 40.50 L 229.42 40.15 L 229.43 39.85 L 229.43 39.55 L 229.43 39.16 L 229.43 38.76 L 229.43 38.46 L 229.44 38.15 L 229.42 37.75 L 229.40 37.35 L 229.10 36.96 L 228.81 36.56 L 228.53 36.27 L 228.25 35.97 L 227.99 35.71 L 227.73 35.45 L 227.48 35.10 L 227.23 34.74 L 227.08 34.48 L 226.93 34.22 L 226.80 33.85 L 226.67 33.49 L 226.52 33.06 L 226.38 32.63 L 226.23 32.30 L 226.08 31.98 L 225.96 31.75 L 225.84 31.52 L 225.82 31.20 L 225.81 30.89 L 225.80 30.64 L 225.79 30.40 L 225.89 30.06 L 225.99 29.72 L 226.12 29.31 L 226.25 28.91 L 226.38 28.50 L 226.52 28.10 L 226.67 27.76 L 226.82 27.41 L 226.85 27.00 L 226.88 26.59 L 226.98 26.35 L 227.08 26.11 L 227.21 25.84 L 227.34 25.57 L 227.45 25.33 L 227.56 25.09 L 227.81 24.82 L 228.05 24.55 L 228.27 24.17 L 228.48 23.80 L 228.52 23.50 L 228.56 23.20 L 228.68 22.91 L 228.80 22.62 L 228.82 22.22 L 228.85 21.82 L 228.96 21.52 L 229.08 21.22 L 229.11 20.76 L 229.14 20.30 L 229.15 19.99 L 229.15 19.68 L 229.15 19.39 L 229.15 19.10 L 229.15 18.82 L 229.15 18.54 L 229.15 18.19 L 229.14 17.84 L 229.03 17.54 L 228.91 17.24 L 228.88 17.06 L 228.86 16.89 L 228.70 16.54 L 228.54 16.18 L 228.26 15.86 L 227.97 15.54 L 227.83 15.40 L 227.70 15.26 L 227.56 15.01 L 227.42 14.76 L 227.25 14.56 L 227.08 14.37 L 226.90 14.18 L 226.71 13.99 L 226.41 13.82 L 226.11 13.65 L 225.76 13.48 L 225.42 13.31 L 225.01 13.28 L 224.60 13.25 L 224.30 13.13 L 223.99 13.01 L 223.54 12.98 L 223.08 12.95 L 222.95 12.95 L 222.82 12.95 L 222.56 12.84 L 222.31 12.73 L 221.85 12.70 L 221.39 12.67 L 220.97 12.66 L 220.54 12.66 L 220.05 12.66 L 219.55 12.66 L 219.00 12.55 L 218.45 12.44 L 217.86 12.41 L 217.27 12.39 L 216.86 12.39 L 216.45 12.38 L 216.03 12.27 L 215.61 12.16 L 215.15 12.13 L 214.68 12.11 L 214.25 12.10 L 213.83 12.10 L 213.52 12.10 L 213.21 12.10 L 212.81 12.10 L 212.41 12.10 L 212.11 12.10 L 211.80 12.10 L 211.47 12.10 L 211.13 12.11 L 210.84 12.00 L 210.54 11.89 L 210.09 11.86 L 209.63 11.83 L 209.09 11.82 L 208.56 11.82 L 207.92 11.82 L 207.28 11.82 L 206.59 11.71 L 205.90 11.59 L 205.32 11.57 L 204.75 11.55 L 204.21 11.44 L 203.68 11.34 L 203.13 11.21 L 202.57 11.07 L 202.02 10.93 L 201.46 10.80 L 200.86 10.65 L 200.27 10.50 L 199.71 10.47 L 199.15 10.45 L 198.70 10.33 L 198.25 10.21 L 197.72 10.19 L 197.18 10.16 L 196.74 10.05 L 196.30 9.93 L 195.86 9.91 L 195.43 9.88 L 194.90 9.77 L 194.36 9.65 L 193.66 9.62 L 192.95 9.60 L 192.25 9.59 L 191.55 9.59 L 190.85 9.59 L 190.15 9.59 L 189.53 9.59 L 188.91 9.59 L 188.29 9.71 L 187.68 9.83 L 187.22 9.97 L 186.76 10.10 L 186.22 10.24 L 185.68 10.38 L 185.22 10.53 L 184.77 10.67 L 184.39 10.80 L 184.01 10.93 L 183.49 10.95 L 182.98 10.98 L 182.39 11.10 L 181.80 11.22 L 181.24 11.36 L 180.67 11.49 L 180.15 11.62 L 179.62 11.75 L 179.10 11.78 L 178.58 11.80 L 178.14 11.81 L 177.70 11.81 L 177.28 11.81 L 176.85 11.81 L 176.43 11.81 L 176.01 11.82 L 175.70 11.82 L 175.39 11.82 L 174.88 11.82 L 174.37 11.82 L 173.82 11.82 L 173.27 11.82 L 172.58 11.82 L 171.88 11.82 L 171.18 11.93 L 170.48 12.04 L 169.70 12.06 L 168.91 12.08 L 168.19 12.09 L 167.48 12.09 L 166.77 12.09 L 166.07 12.09 L 165.48 12.10 L 164.89 12.10 L 164.32 12.10 L 163.76 12.10 L 163.37 12.10 L 162.98 12.11 L 162.74 12.01 L 162.50 11.92 L 162.21 11.79 L 161.92 11.65 L 161.50 11.51 L 161.08 11.37 L 160.54 11.22 L 159.99 11.08 L 159.40 10.93 L 158.82 10.78 L 158.21 10.75 L 157.61 10.72 L 157.09 10.72 L 156.56 10.71 L 156.17 10.61 L 155.77 10.51 L 155.31 10.37 L 154.85 10.22 L 154.27 10.19 L 153.68 10.16 L 153.23 10.15 L 152.78 10.15 L 152.40 10.15 L 152.02 10.15 L 151.60 10.04 L 151.19 9.93 L 150.76 9.91 L 150.34 9.88 L 149.80 9.77 L 149.27 9.65 L 148.83 9.63 L 148.39 9.60 L 147.85 9.49 L 147.31 9.37 L 146.72 9.34 L 146.13 9.32 L 145.56 9.31 L 144.99 9.31 L 144.32 9.31 L 143.65 9.31 L 142.93 9.31 L 142.21 9.31 L 141.36 9.42 L 140.51 9.54 L 139.89 9.68 L 139.27 9.81 L 138.57 9.96 L 137.88 10.10 L 137.05 10.35 L 136.23 10.61 L 135.30 10.88 L 134.38 11.15 L 133.52 11.31 L 132.67 11.47 L 132.06 11.61 L 131.45 11.75 L 131.25 11.78 L 131.05 11.80 L 130.84 11.81 L 130.63 11.82 L 130.14 11.71 L 129.65 11.60 L 129.11 11.58 L 128.56 11.55 L 128.12 11.44 L 127.68 11.33 L 127.39 11.31 L 127.10 11.30 L 126.82 11.18 L 126.53 11.06 L 126.23 11.04 L 125.94 11.01 L 125.55 10.89 L 125.15 10.77 L 124.57 10.74 L 124.00 10.72 L 123.44 10.71 L 122.87 10.71 L 122.36 10.71 L 121.84 10.71 L 121.41 10.60 L 120.98 10.49 L 120.85 10.49 L 120.71 10.49 L 120.64 10.42 L 120.57 10.35 L 120.52 10.31 L 120.46 10.27 L 120.39 10.25 L 120.33 10.23 L 120.26 10.22 L 120.19 10.20 L 120.13 10.21 L 120.06 10.21 L 119.99 10.22 L 119.92 10.24 L 119.86 10.27 L 119.80 10.30 L 119.74 10.34 L 119.69 10.38 L 119.64 10.43 L 119.59 10.48 L 119.56 10.54 L 119.52 10.59 L 119.50 10.66 L 119.47 10.72 L 119.46 10.79 L 119.45 10.86 L 119.45 10.93 L 119.46 11.00 L 119.47 11.06 L 119.49 11.13 L 119.52 11.19 L 119.54 11.25 L 119.58 11.31 L 119.62 11.37 L 119.67 11.40 L 119.72 11.45 L 119.78 11.49 L 119.84 11.52 L 119.91 11.55 L 119.97 11.57 L 120.04 11.58 L 120.10 11.59 L 120.17 11.59 L 120.24 11.59 L 120.31 11.57 L 120.38 11.56 L 120.44 11.53 L 120.50 11.50 L 120.56 11.46 L 120.61 11.42 L 120.66 11.38 L 120.71 11.33 L 120.74 11.27 L 120.78 11.21 L 120.80 11.15 L 120.83 11.08 L 120.84 11.02 L 120.85 10.95 L 120.85 10.88 L 120.84 10.81 L 120.83 10.74 L 120.81 10.68 L 120.78 10.61 L 120.76 10.55 L 120.71 10.50 L 120.67 10.44 Z"/></svg>
