<svg xmlns="http://www.w3.org/2000/svg" viewBox="8.32 8.30 203.58 51.04" width="203.58" height="51.04" xmlns:v="https://vecta.io/nano"><path fill="#1e1e1e" d="M117.395 10.323q0 0 .06.03.06.02.12.06.06.04.11.08.05.05.09.11.04.06.06.12.03.06.05.13.01.07.01.13 0 .06-.01.13-.01.07-.04.13-.02.06-.06.12-.04.06-.08.11-.05.05-.11.09-.06.04-.12.06-.06.03-.13.05-.07.01-.13.01-.06 0-.13-.01-.07-.01-.8-.23-.74-.21-.95-.34-.2-.11-.46-.12-.25-.02-.71-.02-.45-.01-1.04-.01-.58 0-1.3 0-.71 0-1.37 0-.67 0-1.39-.1-.73-.1-1.35-.12-.62-.02-1.11-.02-.48-.01-.98.09-.49.1-1.12.12-.63.02-1.43.02-.8.01-1.64.1-.84.09-1.8.21-.96.12-1.86.25-.91.12-1.6.15-.7.02-1.34.03-.63 0-1.26 0-.62 0-1.34 0-.72 0-1.56 0-.84 0-1.44 0-.6 0-1.14-.1-.54-.11-1.16-.23-.61-.12-1.04-.25-.43-.11-.87-.23-.44-.11-.89-.13-.45-.03-.94-.03-.48-.01-.98-.01-.49 0-1.09 0-.59 0-1.31 0-.71 0-1.35 0-.64 0-1.34 0-.69 0-1.3.09-.6.1-1.1.2-.5.12-.9.24-.4.12-.85.24-.46.11-.92.32-.46.21-.97.47-.52.25-1.05.41-.53.16-1.04.29-.51.13-1.14.26-.63.13-1.14.16-.51.02-.91.13-.4.1-.82.12-.42.03-.77-.01-.34-.03-.62-.36-.27-.33-.36-.51-.08-.18-.17-.24-.08-.05-.23-.06-.15-.01-.53-.02-.39-.01-.67-.11-.28-.11-.54-.13-.26-.02-.55-.13-.29-.12-.58-.22-.29-.11-.73-.13-.45-.02-.94-.12-.49-.11-.98-.13-.49-.02-.99-.12-.49-.1-1.1-.13-.6-.02-1.02-.12-.42-.1-.85-.11-.44-.02-.89-.03-.44 0-.83.09-.39.09-.9.12-.52.02-1.12.02-.6.01-1.11.01-.52 0-1.22 0-.7 0-1.46 0-.76 0-1.5-.1-.75-.1-1.47-.11-.72-.02-1.34-.02-.61-.01-1.23.08-.62.1-1.27.12-.64.02-1.35.02-.7 0-1.43.1-.74.1-1.48.12-.75.02-1.49.13-.74.1-1.41.12-.67.02-1.2.03-.53 0-.93 0-.41 0-.89 0-.48 0-1.04 0-.56 0-1.14.1-.59.09-1.2.21-.61.12-1.23.24-.61.12-1.12.24-.51.13-1.01.25-.5.12-.99.24-.49.13-.84.23-.35.11-.66.3-.31.18-.55.4-.25.22-.48.44-.23.22-.57.67-.35.44-.81.92-.46.48-.94 1.16-.48.68-.96 1.3-.49.61-.87 1.31-.38.69-.75 1.43-.37.73-.74 1.46-.37.74-.73 1.56-.37.81-.53 1.35-.16.53-.29 1.12-.13.59-.25 1.18-.12.59-.15 1.18-.02.58-.02 1.2-.01.61-.01 1.33 0 .72 0 1.48 0 .77-.1 1.42-.1.65-.12 1.21-.02.56.06.9.07.35.26.77.2.42.54.92.35.5.64 1.26.29.75.44 1.39.16.63.37 1.22.22.59.45 1.08.22.48.54.93.31.46.77.95.46.49.88 1.03.43.54.72 1.17.3.63.56 1.17.27.54.42 1.04.15.5.35.95.21.45.55.94.33.48.62 1.01.28.53.52 1.1.25.58.66 1.14.41.57.82 1.02.4.45.87.6.47.15 1.21.19.73.03 1.37-.06.64-.09 1.1-.11.45-.02.84-.02.39 0 .77 0 .37-.01.84-.01.48 0 1.03.01.56 0 1.04-.1.48-.09 1.08-.21.59-.12 1.11-.24.52-.12 1.22-.25.71-.12 1.34-.25.64-.12 1.29-.25.65-.13 1.37-.15.72-.03 1.26-.13.54-.11 1.15-.13.62-.02 1.31-.12.69-.1 1.32-.22.63-.12 1.25-.24.61-.12 1.16-.25.55-.13 1.09-.15.54-.03 1.04-.04.51 0 .91 0 .4 0 .82 0 .42 0 .84.11.41.11.89.23.48.12.89.24.4.13.77.25.37.12.87.26.51.14.9.36.39.22.91.35.52.13 1.1.25.58.12 1.16.14.58.03 1.39.03.82.01 1.6.01.79 0 1.47.1.68.11 1.28.22.61.12 1.22.14.62.03 1.33.13.72.1 1.55.12.84.02 1.81.13.98.1 1.96.22.97.12 1.94.14.97.03 1.96.03.99.01 2.16.01 1.18 0 2.39-.1 1.22-.1 2.44-.21 1.22-.12 2.35-.34 1.13-.22 2.06-.37.92-.14 1.73-.27.8-.13 1.66-.16.86-.03 1.81-.13.95-.1 1.93-.22.98-.12 1.89-.25.9-.12 1.7-.15.8-.02 1.48-.03.69 0 1.34.1.66.1 1.37.22.72.12 1.64.24.91.12 1.77.14.86.03 1.75.03.89.01 1.78.11.89.1 1.76.22.86.12 2.01.24 1.15.12 2.35.15 1.21.02 2.35.03 1.12 0 2.14 0 1.02 0 2.01 0 .98 0 2.15-.09 1.16-.1 2.58-.32 1.41-.21 2.69-.45 1.28-.25 2.36-.4 1.07-.15 2.2-.18 1.13-.03 2.15-.04 1.02 0 2.11 0 1.1 0 2.01 0 .92 0 1.88 0 .97 0 2.45-.1 1.49-.1 3.77-.12 2.28-.02 5.41-.22 3.13-.21 6.63-.45 3.51-.23 7.09-.48 3.58-.25 6.49-.4 2.91-.15 5.68-.18 2.78-.02 4.93-.03 2.15-.01 3.83.1 1.67.1 2.82.47 1.15.37 1.59.93.45.55.41 1.02-.04.46-.14.71-.11.25-.19.1-.08-.15-.13-.26-.06-.11.28-.1.34.01.75-.17.41-.17.9-.41.49-.23 1.12-.49.63-.26 1.27-.42.64-.15 1.19-.29.54-.13.89-.16.34-.03.61-.04.27 0 .49 0 .21 0 .55-.07.34-.07.59-.26.24-.2.46-.31.22-.12.44-.42.23-.31.69-.68.45-.37 1.02-1.03.58-.65 1.17-1.26.59-.6.87-1.06.28-.45.43-.9.14-.45.27-1.02.13-.58.25-1.21.13-.63.37-1.39.24-.76.59-1.53.36-.77.72-1.4.36-.63.5-1.07.15-.45.19-1.05.03-.59.25-1.35.21-.76.45-1.49.23-.72.37-1.42.14-.7.17-1.31.02-.61.03-1.23.01-.62.01-1.34 0-.72 0-1.48 0-.76.1-1.54.11-.77.22-1.37.12-.6.08-.96-.04-.36-.4-.68-.36-.33-.76-.83-.39-.49-.79-1.02-.4-.53-.6-.98-.2-.44-.32-.8-.13-.36-.3-.65-.18-.3-.57-.63-.4-.32-.87-.68-.47-.37-.92-.69-.46-.33-.66-.72-.21-.38-.39-.59-.18-.21-.46-.41-.28-.21-.81-.44-.53-.23-1.34-.58-.8-.34-1.45-.61-.66-.27-1.3-.52-.63-.26-1.13-.5-.5-.24-1.06-.38-.56-.13-1.17-.26-.6-.13-1.31-.25-.71-.12-1.54-.25-.84-.12-1.7-.24-.87-.13-1.62-.25-.74-.12-1.57-.14-.82-.03-1.68-.03-.86-.01-1.65-.01-.79 0-1.59-.11-.79-.1-1.52-.32-.73-.22-1.74-.25-1.01-.04-2.11-.15-1.1-.11-2.08-.13-.98-.02-1.87.07-.89.1-1.98.12-1.09.02-2.3.02-1.21 0-2.63 0-1.42 0-2.76.1-1.34.1-2.7.41-1.35.32-3.13.58-1.77.27-3.42.52-1.65.25-3.09.4-1.43.15-3.01.28-1.58.13-3.28.25-1.7.13-3.03.25-1.33.13-2.59.25-1.26.13-2.72.25-1.46.13-2.85.15-1.4.03-2.51.03-1.11 0-2.02-.2-.92-.19-1.88-.23-.96-.04-1.94-.15-.99-.1-2.08-.12-1.09-.03-2.05-.14-.96-.1-1.75-.33-.79-.22-1.52-.36-.75-.14-1.27-.27-.53-.12-1.05-.18-.52-.06-.77-.56-.26-.5 1.18-1.28 1.44-.76 1.5-.77.07-.01.14 0 .07 0 .14.02.06.02.12.05.06.03.12.08.05.04.1.09.04.05.06.11.04.06.06.12.02.06.03.13.01.07 0 .14 0 .07-.02.13-.02.07-.05.13-.03.06-.06.11-.05.06-.1.1-.05.05-.11.08-.06.03-.13.06-.06.02-.13.03-.07 0-.14 0-.06-.01-.13-.03-.07-.01-.13-.04-.06-.04-.11-.08-.06-.04-.1-.09-.05-.05-.08-.11-.03-.06-.05-.13-.03-.06-.03-.13-.01-.07-.01-.14.01-.07.03-.13.02-.07.05-.12.03-.06.07-.12.04-.05.09-.1.06-.04.12-.07.06-.04.12-.06.07-.02.13-.03.07-.01.14 0 .07 0 .14.02.06.02.12.05.06.03.12.08.05.04.1.09.04.05.06.11.04.06.06.12.02.06.03.13.01.07 0 .14 0 .07-.02.13-.02.07-.05.13-.03.06-.06.11-.05.06-.1.1-.05.05-.11.08-.06.03-1.04.32-.97.28-1.07-.01-.09-.29.2-.3.3-.01.87.12.56.13 1.31.27.76.15 1.53.37.76.21 1.63.31.87.1 1.96.12 1.09.02 2.08.13 1 .1 1.99.15 1 .04 1.9.23.9.2 1.93.19 1.03 0 2.39-.03 1.37-.02 2.8-.14 1.43-.13 2.69-.25 1.25-.13 2.59-.25 1.34-.13 3.05-.25 1.7-.13 3.27-.25 1.57-.13 2.98-.28 1.41-.15 3.04-.4 1.64-.25 3.39-.51 1.75-.26 3.13-.57 1.38-.32 2.8-.42 1.42-.1 2.86-.11 1.44 0 2.65 0 1.2 0 2.26-.02 1.05-.02 1.96-.12.9-.09 1.95-.07 1.05.02 2.16.13 1.1.11 2.18.16 1.07.04 1.83.26.77.23 1.47.32.7.08 1.44.08.75 0 1.62.01.87 0 1.74.03.88.02 1.67.15.78.13 1.64.25.86.13 1.71.25.84.13 1.57.25.73.13 1.36.26.63.13 1.27.29.64.16 1.18.42.55.26 1.17.51.62.25 1.28.52.66.27 1.47.62.81.34 1.42.61.6.27 1 .57.41.29.7.62.28.34.44.65.15.32.48.54.34.22.84.6.5.39.99.8.49.42.76.87.28.45.42.85.14.4.29.75.16.35.5.8.35.46.72.91.36.46.82.94.47.48.58 1.17.11.69-.01 1.39-.12.69-.22 1.4-.09.71-.09 1.43 0 .72 0 1.44 0 .72-.01 1.35-.01.64-.04 1.31-.03.68-.19 1.47-.15.79-.4 1.54-.24.76-.43 1.43-.2.67-.24 1.28-.03.61-.23 1.21-.19.6-.57 1.26-.37.67-.7 1.37-.33.71-.54 1.39-.21.68-.33 1.28-.13.6-.26 1.22-.14.61-.32 1.17-.19.55-.55 1.15-.36.59-.99 1.24-.64.65-1.24 1.33-.6.69-1.03 1.04-.44.36-.72.7-.27.35-.56.52-.29.17-.63.42-.33.24-.88.37-.56.13-.84.13-.29.01-.53.01-.25 0-.51.03-.27.02-.76.14-.5.13-1.09.27-.59.14-1.15.37-.56.23-1.05.47-.5.24-1.06.46-.56.22-1.09.22-.53 0-.98-.17-.44-.17-.48-.62-.03-.45.08-.71.1-.25.14-.33.04-.08-.12-.25-.16-.16-1.05-.43-.88-.26-2.45-.35-1.57-.1-3.7-.09-2.12.01-4.88.03-2.76.03-5.64.18-2.89.15-6.47.4-3.58.24-7.08.48-3.51.24-6.66.44-3.15.21-5.43.23-2.28.02-3.77.12-1.48.1-2.47.1-.99 0-1.91 0-.91 0-2 0-1.1 0-2.11 0-1.01.01-2.09.04-1.08.03-2.1.17-1.02.15-2.3.39-1.28.24-2.72.46-1.45.22-2.67.32-1.22.1-2.23.1-1.02 0-2.04 0-1.02 0-2.15 0-1.15-.01-2.39-.03-1.24-.03-2.43-.15-1.19-.13-2.06-.25-.87-.12-1.71-.22-.85-.09-1.71-.1-.85 0-1.76-.03-.9-.02-1.86-.15-.96-.13-1.69-.24-.72-.12-1.32-.22-.6-.09-1.22-.09-.61.01-1.37.03-.75.02-1.62.15-.88.12-1.87.24-.99.12-1.98.23-.98.1-1.82.13-.84.02-1.6.15-.76.12-1.67.26-.92.15-2.07.37-1.15.22-2.41.35-1.26.12-2.51.22-1.25.1-2.45.1-1.21 0-2.2-.01-1 0-2.01-.03-1.01-.02-2.01-.14-1.01-.13-1.95-.23-.95-.1-1.79-.12-.85-.02-1.57-.13-.72-.1-1.35-.12-.63-.03-1.28-.15-.64-.12-1.26-.22-.61-.09-1.35-.09-.73 0-1.56-.01-.82 0-1.47-.03-.66-.03-1.3-.17-.65-.13-1.28-.29-.62-.16-1.02-.38-.39-.23-.83-.34-.44-.11-.83-.24-.38-.13-.76-.25-.38-.11-.84-.23-.47-.12-.8-.21-.33-.09-.66-.09-.33.01-.73.01-.39 0-.88 0-.49.01-.95.03-.47.02-.96.14-.5.12-1.13.24-.64.13-1.28.25-.65.12-1.4.23-.74.1-1.33.13-.6.02-1.14.12-.54.1-1.26.13-.72.02-1.32.14-.59.12-1.23.25-.64.12-1.34.24-.69.13-1.2.25-.51.12-1.12.24-.61.12-1.16.23-.55.1-1.17.1-.62 0-1.1 0-.47 0-.84.01-.37 0-.75 0-.38 0-.78.02-.41.02-1.09.11-.67.09-1.57.04-.89-.04-1.61-.29-.72-.26-1.28-.85-.57-.59-1.05-1.26-.48-.66-.75-1.28-.26-.62-.51-1.08-.25-.47-.6-.97-.35-.51-.6-1.05-.25-.55-.4-1.05-.15-.49-.39-.99-.25-.49-.5-1.05-.26-.57-.62-1.02-.36-.45-.83-.95-.48-.51-.86-1.06-.37-.54-.64-1.11-.26-.56-.5-1.21-.24-.66-.39-1.29-.16-.64-.4-1.27-.24-.63-.58-1.12-.33-.48-.58-1.03-.24-.54-.35-1.04-.12-.5-.1-1.19.02-.69.12-1.33.1-.64.1-1.35 0-.72 0-1.44 0-.72.01-1.34 0-.63.03-1.29.03-.65.16-1.3.13-.65.27-1.27.13-.63.32-1.23.18-.6.57-1.47.38-.87.76-1.62.38-.75.76-1.5.38-.74.79-1.49.41-.76.92-1.41.51-.65 1.01-1.36.5-.7.97-1.2.47-.49.83-.94.35-.45.62-.72.28-.27.59-.54.3-.27.74-.53.44-.26.89-.4.44-.14.95-.27.51-.13 1.01-.25.51-.12 1.03-.25.53-.12 1.16-.24.63-.13 1.25-.25.63-.12 1.28-.22.64-.1 1.26-.1.62-.01 1.1-.01.48 0 .88 0 .4 0 .92 0 .52-.01 1.15-.02.62-.02 1.36-.13.75-.1 1.49-.12.75-.02 1.49-.12.74-.1 1.48-.11.74 0 1.33-.02.6-.02 1.23-.12.63-.1 1.31-.09.68 0 1.44.02.77.02 1.51.12.74.1 1.45.1.71 0 1.41 0 .7 0 1.21 0 .52 0 1.1-.01.59 0 1.02-.02.44-.01.84-.11.41-.1.95-.1.54 0 1.06.03.52.02.94.12.42.11 1 .13.59.02 1.09.12.5.1.99.12.5.02.99.13.49.1.98.13.49.03.89.16.41.14.62.23.2.09.45.11.25.02.5.12.26.08.56.09.31 0 .65.05.34.05.7.29.36.24.53.53.17.29.16.36 0 .07 0 .02 0-.04.34-.06.33-.01.74-.12.4-.1.92-.13.53-.02 1.09-.14.56-.12 1.04-.25.48-.12.94-.26.47-.14.94-.36.47-.23 1-.47.53-.24 1.02-.37.5-.13.91-.25.41-.13.96-.25.55-.13 1.23-.23.68-.11 1.43-.11.75 0 1.39 0 .64 0 1.35 0 .72 0 1.31 0 .6 0 1.1 0 .49 0 1 .01.5.01 1.04.03.53.03 1.05.16.53.14.93.26.41.12.99.23.59.12 1.06.21.48.1 1.01.1.53-.01 1.37-.01.84 0 1.56 0 .72 0 1.34 0 .62 0 1.25 0 .62-.01 1.27-.03.65-.02 1.53-.15.87-.12 1.84-.24.97-.12 1.85-.22.87-.1 1.7-.1.83-.01 1.4-.03.56-.01 1.07-.11.51-.1 1.07-.1.57 0 1.23.02.66.02 1.38.12.72.1 1.33.1.62 0 1.33 0 .72 0 1.31 0 .59 0 1.07.01.48.01.91.05.44.04.71.19.27.15.92.34.65.18.65.18h0z"/></svg>