<svg xmlns="http://www.w3.org/2000/svg" viewBox="8.32 8.30 203.58 51.04"><path fill="#000" d="M 117.39 10.32 L 117.39 10.32 L 117.45 10.35 L 117.52 10.37 L 117.58 10.41 L 117.64 10.45 L 117.69 10.49 L 117.73 10.54 L 117.78 10.60 L 117.82 10.66 L 117.84 10.72 L 117.87 10.78 L 117.89 10.85 L 117.90 10.92 L 117.90 10.98 L 117.90 11.04 L 117.89 11.11 L 117.88 11.18 L 117.84 11.24 L 117.83 11.30 L 117.78 11.36 L 117.74 11.42 L 117.70 11.47 L 117.66 11.52 L 117.59 11.56 L 117.53 11.60 L 117.47 11.62 L 117.41 11.65 L 117.34 11.67 L 117.28 11.68 L 117.22 11.68 L 117.16 11.68 L 117.09 11.67 L 117.02 11.66 L 116.29 11.44 L 115.55 11.23 L 115.34 11.10 L 115.14 10.99 L 114.88 10.98 L 114.63 10.96 L 114.17 10.96 L 113.72 10.95 L 113.13 10.95 L 112.55 10.95 L 111.83 10.95 L 111.12 10.95 L 110.46 10.95 L 109.79 10.95 L 109.07 10.85 L 108.34 10.75 L 107.72 10.73 L 107.10 10.71 L 106.61 10.71 L 106.13 10.70 L 105.63 10.80 L 105.14 10.90 L 104.51 10.92 L 103.88 10.94 L 103.08 10.94 L 102.28 10.95 L 101.44 11.04 L 100.59 11.13 L 99.64 11.25 L 98.68 11.37 L 97.78 11.50 L 96.87 11.62 L 96.18 11.65 L 95.48 11.67 L 94.84 11.68 L 94.21 11.68 L 93.58 11.68 L 92.95 11.68 L 92.23 11.68 L 91.52 11.68 L 90.67 11.68 L 89.83 11.68 L 89.23 11.68 L 88.64 11.68 L 88.09 11.58 L 87.55 11.47 L 86.94 11.35 L 86.33 11.23 L 85.89 11.10 L 85.46 10.99 L 85.02 10.87 L 84.58 10.76 L 84.13 10.74 L 83.68 10.71 L 83.19 10.71 L 82.71 10.70 L 82.21 10.70 L 81.72 10.70 L 81.12 10.70 L 80.53 10.70 L 79.81 10.70 L 79.10 10.70 L 78.46 10.70 L 77.82 10.70 L 77.12 10.70 L 76.43 10.70 L 75.82 10.79 L 75.22 10.89 L 74.72 10.99 L 74.22 11.11 L 73.82 11.23 L 73.42 11.35 L 72.97 11.47 L 72.52 11.58 L 72.05 11.79 L 71.59 12.00 L 71.08 12.26 L 70.56 12.51 L 70.03 12.67 L 69.50 12.83 L 68.99 12.96 L 68.48 13.09 L 67.85 13.22 L 67.22 13.35 L 66.71 13.38 L 66.20 13.40 L 65.80 13.51 L 65.40 13.61 L 64.98 13.63 L 64.56 13.66 L 64.22 13.62 L 63.88 13.59 L 63.60 13.26 L 63.33 12.93 L 63.24 12.75 L 63.16 12.57 L 63.07 12.51 L 62.99 12.46 L 62.84 12.45 L 62.69 12.44 L 62.31 12.43 L 61.92 12.42 L 61.64 12.32 L 61.36 12.21 L 61.10 12.19 L 60.84 12.17 L 60.55 12.06 L 60.26 11.94 L 59.97 11.84 L 59.68 11.73 L 59.24 11.71 L 58.79 11.69 L 58.30 11.59 L 57.81 11.48 L 57.32 11.46 L 56.83 11.44 L 56.33 11.34 L 55.84 11.24 L 55.23 11.21 L 54.63 11.19 L 54.21 11.09 L 53.79 10.99 L 53.36 10.98 L 52.92 10.96 L 52.47 10.95 L 52.03 10.95 L 51.64 11.04 L 51.25 11.13 L 50.74 11.16 L 50.22 11.18 L 49.62 11.18 L 49.02 11.19 L 48.51 11.19 L 47.99 11.19 L 47.29 11.19 L 46.59 11.19 L 45.83 11.19 L 45.07 11.19 L 44.33 11.09 L 43.58 10.99 L 42.86 10.98 L 42.14 10.96 L 41.52 10.96 L 40.91 10.95 L 40.29 11.04 L 39.67 11.14 L 39.02 11.16 L 38.38 11.18 L 37.67 11.18 L 36.97 11.18 L 36.24 11.28 L 35.50 11.38 L 34.76 11.40 L 34.01 11.42 L 33.27 11.53 L 32.53 11.63 L 31.86 11.65 L 31.19 11.67 L 30.66 11.68 L 30.13 11.68 L 29.73 11.68 L 29.32 11.68 L 28.84 11.68 L 28.36 11.68 L 27.80 11.68 L 27.24 11.68 L 26.66 11.78 L 26.07 11.87 L 25.46 11.99 L 24.85 12.11 L 24.23 12.23 L 23.62 12.35 L 23.11 12.47 L 22.60 12.60 L 22.10 12.72 L 21.60 12.84 L 21.11 12.96 L 20.62 13.09 L 20.27 13.19 L 19.92 13.30 L 19.61 13.49 L 19.30 13.67 L 19.06 13.89 L 18.81 14.11 L 18.58 14.33 L 18.35 14.55 L 18.01 15.00 L 17.66 15.44 L 17.20 15.92 L 16.74 16.40 L 16.26 17.08 L 15.78 17.76 L 15.30 18.38 L 14.81 18.99 L 14.43 19.69 L 14.05 20.38 L 13.68 21.12 L 13.31 21.85 L 12.94 22.58 L 12.57 23.32 L 12.21 24.14 L 11.84 24.95 L 11.68 25.49 L 11.52 26.02 L 11.39 26.61 L 11.26 27.20 L 11.14 27.79 L 11.02 28.38 L 10.99 28.97 L 10.97 29.55 L 10.97 30.17 L 10.96 30.78 L 10.96 31.50 L 10.96 32.22 L 10.96 32.98 L 10.96 33.75 L 10.86 34.40 L 10.76 35.05 L 10.74 35.61 L 10.72 36.17 L 10.80 36.51 L 10.87 36.86 L 11.06 37.28 L 11.26 37.70 L 11.60 38.20 L 11.95 38.70 L 12.24 39.46 L 12.53 40.21 L 12.68 40.85 L 12.84 41.48 L 13.05 42.07 L 13.27 42.66 L 13.50 43.15 L 13.72 43.63 L 14.04 44.08 L 14.35 44.54 L 14.81 45.03 L 15.27 45.52 L 15.69 46.06 L 16.12 46.60 L 16.41 47.23 L 16.71 47.86 L 16.97 48.40 L 17.24 48.94 L 17.39 49.44 L 17.54 49.94 L 17.74 50.39 L 17.95 50.84 L 18.29 51.33 L 18.62 51.81 L 18.91 52.34 L 19.19 52.87 L 19.43 53.44 L 19.68 54.02 L 20.09 54.58 L 20.50 55.15 L 20.91 55.60 L 21.31 56.05 L 21.78 56.20 L 22.25 56.35 L 22.99 56.39 L 23.72 56.42 L 24.36 56.33 L 25.00 56.24 L 25.46 56.22 L 25.91 56.20 L 26.30 56.20 L 26.69 56.20 L 27.07 56.20 L 27.44 56.19 L 27.91 56.19 L 28.39 56.19 L 28.94 56.20 L 29.50 56.20 L 29.98 56.10 L 30.46 56.01 L 31.06 55.89 L 31.65 55.77 L 32.17 55.65 L 32.69 55.53 L 33.39 55.40 L 34.10 55.28 L 34.73 55.15 L 35.37 55.03 L 36.02 54.90 L 36.67 54.77 L 37.39 54.75 L 38.11 54.72 L 38.65 54.62 L 39.19 54.51 L 39.80 54.49 L 40.42 54.47 L 41.11 54.37 L 41.80 54.27 L 42.43 54.15 L 43.06 54.03 L 43.68 53.91 L 44.29 53.79 L 44.84 53.66 L 45.39 53.53 L 45.93 53.51 L 46.47 53.48 L 46.97 53.47 L 47.48 53.47 L 47.88 53.47 L 48.28 53.47 L 48.70 53.47 L 49.12 53.47 L 49.54 53.58 L 49.95 53.69 L 50.43 53.81 L 50.91 53.93 L 51.32 54.05 L 51.72 54.18 L 52.09 54.30 L 52.46 54.42 L 52.96 54.56 L 53.47 54.70 L 53.86 54.92 L 54.25 55.14 L 54.77 55.27 L 55.29 55.40 L 55.87 55.52 L 56.45 55.64 L 57.03 55.66 L 57.61 55.69 L 58.42 55.69 L 59.24 55.70 L 60.02 55.70 L 60.81 55.70 L 61.49 55.80 L 62.17 55.91 L 62.77 56.02 L 63.38 56.14 L 63.99 56.16 L 64.61 56.19 L 65.32 56.29 L 66.04 56.39 L 66.87 56.41 L 67.71 56.43 L 68.68 56.54 L 69.66 56.64 L 70.64 56.76 L 71.61 56.88 L 72.58 56.90 L 73.55 56.93 L 74.53 56.93 L 75.52 56.94 L 76.69 56.94 L 77.88 56.94 L 79.08 56.84 L 80.30 56.74 L 81.52 56.63 L 82.74 56.51 L 83.87 56.29 L 85.00 56.07 L 85.93 55.92 L 86.85 55.78 L 87.66 55.65 L 88.46 55.52 L 89.32 55.49 L 90.18 55.46 L 91.13 55.36 L 92.08 55.26 L 93.06 55.14 L 94.05 55.02 L 94.95 54.89 L 95.86 54.77 L 96.66 54.74 L 97.45 54.72 L 98.14 54.71 L 98.83 54.71 L 99.48 54.81 L 100.14 54.91 L 100.85 55.03 L 101.57 55.15 L 102.49 55.27 L 103.40 55.39 L 104.26 55.41 L 105.12 55.44 L 106.01 55.44 L 106.90 55.45 L 107.79 55.55 L 108.68 55.65 L 109.55 55.77 L 110.41 55.89 L 111.56 56.01 L 112.71 56.13 L 113.91 56.16 L 115.12 56.18 L 116.26 56.19 L 117.38 56.19 L 118.40 56.19 L 119.42 56.19 L 120.41 56.19 L 121.39 56.19 L 122.56 56.10 L 123.72 56.00 L 125.14 55.78 L 126.55 55.57 L 127.83 55.33 L 129.11 55.08 L 130.19 54.93 L 131.26 54.78 L 132.39 54.75 L 133.52 54.72 L 134.54 54.71 L 135.56 54.71 L 136.65 54.71 L 137.75 54.71 L 138.66 54.71 L 139.58 54.71 L 140.54 54.71 L 141.51 54.71 L 142.99 54.61 L 144.48 54.51 L 146.76 54.49 L 149.04 54.47 L 152.17 54.27 L 155.30 54.06 L 158.80 53.82 L 162.31 53.59 L 165.89 53.34 L 169.47 53.09 L 172.38 52.94 L 175.29 52.79 L 178.06 52.76 L 180.84 52.74 L 182.99 52.73 L 185.14 52.72 L 186.82 52.83 L 188.49 52.93 L 189.64 53.30 L 190.79 53.67 L 191.23 54.23 L 191.68 54.78 L 191.64 55.25 L 191.60 55.71 L 191.50 55.96 L 191.39 56.21 L 191.31 56.06 L 191.23 55.91 L 191.18 55.80 L 191.12 55.69 L 191.46 55.70 L 191.80 55.71 L 192.21 55.53 L 192.62 55.36 L 193.11 55.12 L 193.60 54.89 L 194.23 54.63 L 194.86 54.37 L 195.50 54.21 L 196.14 54.06 L 196.69 53.92 L 197.23 53.79 L 197.58 53.76 L 197.92 53.73 L 198.19 53.72 L 198.46 53.72 L 198.68 53.72 L 198.89 53.72 L 199.23 53.65 L 199.57 53.58 L 199.82 53.39 L 200.06 53.19 L 200.28 53.08 L 200.50 52.96 L 200.72 52.66 L 200.95 52.35 L 201.41 51.98 L 201.86 51.61 L 202.43 50.95 L 203.01 50.30 L 203.60 49.69 L 204.19 49.09 L 204.47 48.63 L 204.75 48.18 L 204.90 47.73 L 205.04 47.28 L 205.17 46.71 L 205.30 46.13 L 205.42 45.50 L 205.55 44.87 L 205.79 44.11 L 206.03 43.35 L 206.38 42.58 L 206.74 41.81 L 207.10 41.18 L 207.46 40.55 L 207.60 40.11 L 207.75 39.66 L 207.79 39.06 L 207.82 38.47 L 208.04 37.71 L 208.25 36.95 L 208.49 36.22 L 208.72 35.50 L 208.86 34.80 L 209.00 34.10 L 209.03 33.49 L 209.05 32.88 L 209.06 32.26 L 209.07 31.64 L 209.07 30.92 L 209.07 30.20 L 209.07 29.44 L 209.07 28.68 L 209.17 27.90 L 209.28 27.13 L 209.39 26.53 L 209.51 25.93 L 209.47 25.57 L 209.43 25.21 L 209.07 24.89 L 208.71 24.56 L 208.31 24.06 L 207.92 23.57 L 207.52 23.04 L 207.12 22.51 L 206.92 22.06 L 206.72 21.62 L 206.60 21.26 L 206.47 20.90 L 206.30 20.61 L 206.12 20.31 L 205.73 19.98 L 205.33 19.66 L 204.86 19.30 L 204.39 18.93 L 203.94 18.61 L 203.48 18.28 L 203.28 17.89 L 203.07 17.51 L 202.89 17.30 L 202.71 17.09 L 202.43 16.89 L 202.15 16.68 L 201.62 16.45 L 201.09 16.22 L 200.28 15.87 L 199.48 15.53 L 198.83 15.26 L 198.17 14.99 L 197.53 14.74 L 196.90 14.48 L 196.40 14.24 L 195.90 14.00 L 195.34 13.86 L 194.78 13.73 L 194.17 13.60 L 193.57 13.47 L 192.86 13.35 L 192.15 13.23 L 191.32 13.10 L 190.48 12.98 L 189.62 12.86 L 188.75 12.73 L 188.00 12.61 L 187.26 12.49 L 186.43 12.47 L 185.61 12.44 L 184.75 12.44 L 183.89 12.43 L 183.10 12.43 L 182.31 12.43 L 181.51 12.32 L 180.72 12.22 L 179.99 12.00 L 179.26 11.78 L 178.25 11.75 L 177.24 11.71 L 176.14 11.60 L 175.04 11.49 L 174.06 11.47 L 173.08 11.45 L 172.19 11.54 L 171.30 11.64 L 170.21 11.66 L 169.12 11.68 L 167.91 11.68 L 166.70 11.68 L 165.28 11.68 L 163.86 11.68 L 162.52 11.78 L 161.18 11.88 L 159.82 12.19 L 158.47 12.51 L 156.69 12.77 L 154.92 13.04 L 153.27 13.29 L 151.62 13.54 L 150.18 13.69 L 148.75 13.84 L 147.17 13.97 L 145.59 14.10 L 143.89 14.22 L 142.19 14.35 L 140.86 14.47 L 139.53 14.60 L 138.27 14.72 L 137.01 14.85 L 135.55 14.97 L 134.09 15.10 L 132.70 15.12 L 131.30 15.15 L 130.19 15.15 L 129.08 15.15 L 128.17 14.95 L 127.25 14.76 L 126.29 14.72 L 125.33 14.68 L 124.35 14.57 L 123.36 14.47 L 122.27 14.45 L 121.18 14.42 L 120.22 14.31 L 119.26 14.21 L 118.47 13.98 L 117.68 13.76 L 116.95 13.62 L 116.20 13.48 L 115.68 13.35 L 115.15 13.23 L 114.63 13.17 L 114.11 13.11 L 113.86 12.61 L 113.60 12.11 L 115.04 11.33 L 116.48 10.57 L 116.54 10.56 L 116.61 10.55 L 116.68 10.56 L 116.75 10.56 L 116.82 10.58 L 116.88 10.60 L 116.94 10.63 L 117.00 10.66 L 117.06 10.71 L 117.11 10.75 L 117.16 10.80 L 117.20 10.85 L 117.22 10.91 L 117.26 10.97 L 117.28 11.03 L 117.30 11.09 L 117.31 11.16 L 117.32 11.23 L 117.31 11.30 L 117.31 11.37 L 117.29 11.43 L 117.27 11.50 L 117.24 11.56 L 117.21 11.62 L 117.18 11.67 L 117.13 11.73 L 117.08 11.77 L 117.03 11.82 L 116.97 11.85 L 116.91 11.88 L 116.84 11.91 L 117.40 10.32 L 117.40 10.32 L 117.40 10.32 L 116.75 10.14 L 116.10 9.95 L 115.83 9.80 L 115.56 9.65 L 115.12 9.61 L 114.69 9.57 L 114.21 9.56 L 113.73 9.55 L 113.14 9.55 L 112.55 9.55 L 111.83 9.55 L 111.12 9.55 L 110.50 9.55 L 109.89 9.55 L 109.17 9.45 L 108.45 9.35 L 107.79 9.33 L 107.13 9.31 L 106.56 9.31 L 106.00 9.31 L 105.49 9.41 L 104.98 9.51 L 104.42 9.52 L 103.85 9.54 L 103.02 9.55 L 102.19 9.55 L 101.32 9.65 L 100.44 9.75 L 99.47 9.87 L 98.50 9.99 L 97.63 10.11 L 96.75 10.24 L 96.10 10.26 L 95.45 10.28 L 94.83 10.29 L 94.20 10.29 L 93.58 10.29 L 92.96 10.29 L 92.24 10.29 L 91.52 10.29 L 90.68 10.29 L 89.84 10.29 L 89.31 10.30 L 88.78 10.30 L 88.30 10.20 L 87.83 10.11 L 87.24 9.99 L 86.66 9.88 L 86.25 9.76 L 85.85 9.64 L 85.32 9.50 L 84.80 9.37 L 84.27 9.34 L 83.73 9.32 L 83.23 9.31 L 82.72 9.30 L 82.23 9.30 L 81.73 9.30 L 81.13 9.30 L 80.54 9.30 L 79.82 9.30 L 79.11 9.30 L 78.47 9.30 L 77.83 9.30 L 77.08 9.30 L 76.33 9.30 L 75.65 9.41 L 74.97 9.51 L 74.42 9.64 L 73.87 9.76 L 73.46 9.89 L 73.05 10.01 L 72.55 10.14 L 72.06 10.27 L 71.53 10.51 L 71.00 10.75 L 70.53 10.98 L 70.06 11.20 L 69.59 11.34 L 69.13 11.48 L 68.65 11.60 L 68.17 11.73 L 67.61 11.85 L 67.05 11.97 L 66.52 11.99 L 66.00 12.02 L 65.60 12.12 L 65.19 12.23 L 64.86 12.24 L 64.52 12.26 L 64.52 12.30 L 64.52 12.35 L 64.52 12.28 L 64.53 12.21 L 64.36 11.92 L 64.19 11.63 L 63.83 11.39 L 63.47 11.15 L 63.13 11.10 L 62.79 11.05 L 62.48 11.05 L 62.18 11.04 L 61.92 10.96 L 61.67 10.86 L 61.42 10.84 L 61.17 10.82 L 60.97 10.73 L 60.76 10.64 L 60.35 10.50 L 59.95 10.37 L 59.46 10.34 L 58.97 10.31 L 58.48 10.21 L 57.99 10.10 L 57.49 10.08 L 57.00 10.06 L 56.50 9.96 L 56.00 9.86 L 55.41 9.84 L 54.83 9.82 L 54.41 9.71 L 53.99 9.61 L 53.47 9.59 L 52.95 9.56 L 52.41 9.56 L 51.87 9.56 L 51.46 9.66 L 51.06 9.76 L 50.62 9.77 L 50.19 9.79 L 49.60 9.79 L 49.02 9.80 L 48.50 9.80 L 47.99 9.80 L 47.29 9.80 L 46.59 9.80 L 45.88 9.80 L 45.17 9.80 L 44.43 9.70 L 43.69 9.60 L 42.92 9.58 L 42.16 9.56 L 41.48 9.56 L 40.80 9.55 L 40.17 9.65 L 39.54 9.75 L 38.94 9.77 L 38.35 9.79 L 37.61 9.79 L 36.87 9.80 L 36.13 9.90 L 35.39 10.00 L 34.64 10.02 L 33.90 10.04 L 33.15 10.14 L 32.41 10.25 L 31.79 10.27 L 31.16 10.28 L 30.64 10.29 L 30.12 10.29 L 29.72 10.29 L 29.32 10.29 L 28.84 10.29 L 28.36 10.29 L 27.74 10.30 L 27.12 10.30 L 26.48 10.40 L 25.83 10.50 L 25.20 10.62 L 24.58 10.74 L 23.95 10.87 L 23.32 10.99 L 22.79 11.11 L 22.27 11.24 L 21.76 11.36 L 21.26 11.48 L 20.75 11.61 L 20.24 11.74 L 19.80 11.88 L 19.35 12.02 L 18.91 12.28 L 18.47 12.54 L 18.17 12.81 L 17.86 13.08 L 17.58 13.35 L 17.31 13.62 L 16.96 14.07 L 16.60 14.52 L 16.13 15.01 L 15.66 15.51 L 15.16 16.21 L 14.66 16.92 L 14.15 17.57 L 13.64 18.22 L 13.23 18.98 L 12.82 19.73 L 12.44 20.47 L 12.06 21.22 L 11.68 21.97 L 11.30 22.72 L 10.92 23.59 L 10.53 24.46 L 10.35 25.06 L 10.16 25.66 L 10.03 26.29 L 9.89 26.91 L 9.76 27.56 L 9.63 28.21 L 9.60 28.86 L 9.57 29.52 L 9.57 30.15 L 9.56 30.77 L 9.56 31.49 L 9.56 32.21 L 9.56 32.93 L 9.56 33.64 L 9.46 34.28 L 9.36 34.92 L 9.34 35.61 L 9.32 36.30 L 9.44 36.80 L 9.55 37.30 L 9.79 37.84 L 10.04 38.39 L 10.37 38.87 L 10.71 39.36 L 10.95 39.99 L 11.19 40.62 L 11.35 41.26 L 11.50 41.89 L 11.74 42.55 L 11.98 43.20 L 12.24 43.76 L 12.51 44.33 L 12.88 44.87 L 13.26 45.42 L 13.74 45.93 L 14.21 46.43 L 14.57 46.88 L 14.93 47.33 L 15.19 47.90 L 15.44 48.46 L 15.69 48.95 L 15.93 49.45 L 16.08 49.94 L 16.23 50.44 L 16.48 50.99 L 16.73 51.53 L 17.08 52.04 L 17.43 52.54 L 17.68 53.01 L 17.93 53.47 L 18.19 54.09 L 18.46 54.71 L 18.94 55.37 L 19.42 56.04 L 19.99 56.63 L 20.55 57.22 L 21.27 57.48 L 21.99 57.73 L 22.88 57.77 L 23.78 57.82 L 24.45 57.73 L 25.13 57.64 L 25.54 57.62 L 25.94 57.60 L 26.32 57.60 L 26.70 57.60 L 27.07 57.60 L 27.44 57.59 L 27.91 57.59 L 28.39 57.59 L 29.01 57.59 L 29.63 57.59 L 30.18 57.49 L 30.73 57.38 L 31.34 57.26 L 31.95 57.14 L 32.46 57.02 L 32.97 56.90 L 33.66 56.77 L 34.36 56.65 L 35.00 56.53 L 35.64 56.40 L 36.23 56.28 L 36.83 56.16 L 37.55 56.14 L 38.27 56.11 L 38.81 56.01 L 39.35 55.91 L 39.95 55.89 L 40.54 55.86 L 41.28 55.76 L 42.03 55.65 L 42.68 55.53 L 43.32 55.41 L 43.96 55.28 L 44.59 55.16 L 45.09 55.04 L 45.58 54.92 L 46.05 54.90 L 46.51 54.88 L 47.00 54.87 L 47.49 54.87 L 47.88 54.87 L 48.28 54.87 L 48.61 54.86 L 48.94 54.86 L 49.27 54.95 L 49.60 55.04 L 50.07 55.16 L 50.53 55.28 L 50.91 55.39 L 51.29 55.51 L 51.67 55.64 L 52.06 55.77 L 52.50 55.88 L 52.94 55.99 L 53.33 56.22 L 53.73 56.44 L 54.35 56.60 L 54.98 56.76 L 55.63 56.89 L 56.27 57.03 L 56.93 57.06 L 57.58 57.09 L 58.40 57.09 L 59.23 57.10 L 59.96 57.10 L 60.70 57.10 L 61.31 57.19 L 61.93 57.29 L 62.57 57.41 L 63.22 57.53 L 63.85 57.56 L 64.48 57.58 L 65.20 57.68 L 65.92 57.79 L 66.77 57.81 L 67.61 57.83 L 68.56 57.93 L 69.50 58.03 L 70.51 58.16 L 71.51 58.28 L 72.52 58.30 L 73.53 58.33 L 74.53 58.33 L 75.52 58.34 L 76.73 58.34 L 77.93 58.34 L 79.18 58.24 L 80.43 58.14 L 81.69 58.02 L 82.95 57.89 L 84.10 57.67 L 85.25 57.45 L 86.17 57.30 L 87.08 57.16 L 87.84 57.04 L 88.60 56.91 L 89.44 56.89 L 90.28 56.86 L 91.26 56.76 L 92.25 56.65 L 93.24 56.53 L 94.23 56.41 L 95.11 56.29 L 95.98 56.16 L 96.73 56.14 L 97.49 56.12 L 98.10 56.11 L 98.72 56.11 L 99.32 56.20 L 99.92 56.30 L 100.64 56.42 L 101.37 56.53 L 102.33 56.66 L 103.29 56.79 L 104.19 56.81 L 105.10 56.84 L 105.95 56.84 L 106.81 56.85 L 107.66 56.94 L 108.50 57.04 L 109.37 57.16 L 110.24 57.28 L 111.43 57.41 L 112.62 57.53 L 113.86 57.56 L 115.10 57.58 L 116.25 57.59 L 117.38 57.59 L 118.40 57.59 L 119.42 57.59 L 120.44 57.59 L 121.45 57.59 L 122.67 57.49 L 123.89 57.39 L 125.34 57.17 L 126.78 56.95 L 128.06 56.71 L 129.34 56.47 L 130.36 56.32 L 131.38 56.18 L 132.46 56.15 L 133.54 56.12 L 134.55 56.11 L 135.56 56.11 L 136.66 56.11 L 137.75 56.11 L 138.66 56.11 L 139.58 56.11 L 140.57 56.11 L 141.56 56.11 L 143.04 56.01 L 144.53 55.91 L 146.81 55.89 L 149.09 55.87 L 152.24 55.66 L 155.39 55.46 L 158.90 55.22 L 162.40 54.98 L 165.98 54.74 L 169.56 54.49 L 172.45 54.34 L 175.33 54.19 L 178.09 54.16 L 180.85 54.14 L 182.97 54.13 L 185.10 54.12 L 186.67 54.22 L 188.24 54.31 L 189.12 54.57 L 190.01 54.84 L 190.17 55.00 L 190.33 55.17 L 190.29 55.25 L 190.25 55.33 L 190.15 55.58 L 190.04 55.84 L 190.07 56.29 L 190.11 56.74 L 190.55 56.91 L 191.00 57.08 L 191.53 57.08 L 192.06 57.08 L 192.62 56.86 L 193.18 56.64 L 193.68 56.40 L 194.17 56.16 L 194.73 55.93 L 195.29 55.70 L 195.88 55.56 L 196.47 55.42 L 196.97 55.29 L 197.46 55.17 L 197.73 55.15 L 197.99 55.12 L 198.24 55.12 L 198.48 55.12 L 198.77 55.11 L 199.05 55.11 L 199.61 54.98 L 200.16 54.85 L 200.49 54.61 L 200.83 54.36 L 201.12 54.19 L 201.41 54.02 L 201.68 53.67 L 201.96 53.33 L 202.40 52.97 L 202.83 52.62 L 203.43 51.93 L 204.03 51.25 L 204.67 50.60 L 205.30 49.95 L 205.66 49.36 L 206.02 48.76 L 206.21 48.21 L 206.39 47.65 L 206.53 47.04 L 206.66 46.42 L 206.79 45.82 L 206.91 45.22 L 207.12 44.54 L 207.33 43.86 L 207.66 43.15 L 207.99 42.45 L 208.36 41.78 L 208.74 41.12 L 208.93 40.52 L 209.13 39.92 L 209.16 39.31 L 209.20 38.70 L 209.40 38.03 L 209.59 37.36 L 209.83 36.60 L 210.08 35.85 L 210.23 35.06 L 210.39 34.27 L 210.42 33.59 L 210.45 32.92 L 210.46 32.28 L 210.47 31.65 L 210.47 30.93 L 210.47 30.21 L 210.47 29.49 L 210.47 28.77 L 210.56 28.06 L 210.66 27.35 L 210.78 26.66 L 210.90 25.96 L 210.79 25.27 L 210.68 24.58 L 210.21 24.10 L 209.75 23.62 L 209.39 23.16 L 209.02 22.71 L 208.67 22.25 L 208.33 21.80 L 208.17 21.45 L 208.02 21.10 L 207.88 20.70 L 207.74 20.30 L 207.46 19.85 L 207.19 19.40 L 206.70 18.98 L 206.21 18.57 L 205.71 18.18 L 205.21 17.80 L 204.87 17.58 L 204.54 17.36 L 204.39 17.04 L 204.23 16.73 L 203.95 16.39 L 203.66 16.06 L 203.25 15.77 L 202.85 15.47 L 202.25 15.20 L 201.64 14.93 L 200.83 14.59 L 200.02 14.24 L 199.36 13.97 L 198.70 13.70 L 198.08 13.45 L 197.46 13.20 L 196.91 12.94 L 196.37 12.68 L 195.73 12.52 L 195.09 12.36 L 194.46 12.23 L 193.83 12.10 L 193.10 11.97 L 192.37 11.85 L 191.53 11.72 L 190.68 11.60 L 189.82 11.47 L 188.96 11.35 L 188.18 11.22 L 187.39 11.09 L 186.51 11.07 L 185.64 11.04 L 184.77 11.04 L 183.90 11.03 L 183.15 11.03 L 182.41 11.03 L 181.71 10.95 L 181.01 10.86 L 180.24 10.63 L 179.48 10.41 L 178.41 10.37 L 177.33 10.32 L 176.23 10.21 L 175.12 10.10 L 174.07 10.08 L 173.02 10.06 L 172.12 10.15 L 171.21 10.25 L 170.16 10.27 L 169.10 10.29 L 167.90 10.29 L 166.69 10.29 L 165.25 10.29 L 163.81 10.30 L 162.39 10.40 L 160.97 10.50 L 159.59 10.82 L 158.21 11.13 L 156.46 11.39 L 154.71 11.65 L 153.07 11.90 L 151.44 12.15 L 150.03 12.30 L 148.62 12.45 L 147.05 12.58 L 145.48 12.70 L 143.78 12.83 L 142.07 12.95 L 140.73 13.08 L 139.39 13.20 L 138.14 13.33 L 136.88 13.45 L 135.45 13.58 L 134.02 13.70 L 132.65 13.72 L 131.29 13.75 L 130.26 13.75 L 129.23 13.76 L 128.33 13.56 L 127.43 13.37 L 126.43 13.33 L 125.44 13.28 L 124.44 13.18 L 123.45 13.07 L 122.36 13.05 L 121.27 13.03 L 120.40 12.93 L 119.53 12.83 L 118.77 12.62 L 118.00 12.40 L 117.24 12.25 L 116.49 12.11 L 115.93 11.98 L 115.36 11.85 L 115.06 11.86 L 114.77 11.87 L 114.86 12.16 L 114.96 12.45 L 115.93 12.17 L 116.91 11.88 L 116.97 11.85 L 117.03 11.82 L 117.08 11.77 L 117.13 11.73 L 117.18 11.67 L 117.21 11.62 L 117.24 11.56 L 117.27 11.50 L 117.29 11.43 L 117.31 11.37 L 117.31 11.30 L 117.32 11.23 L 117.31 11.16 L 117.30 11.09 L 117.28 11.03 L 117.26 10.97 L 117.22 10.91 L 117.20 10.85 L 117.16 10.80 L 117.11 10.75 L 117.06 10.71 L 117.00 10.66 L 116.94 10.63 L 116.88 10.60 L 116.82 10.58 L 116.75 10.56 L 116.68 10.56 L 116.61 10.55 L 116.54 10.56 L 116.48 10.57 L 116.41 10.59 L 116.35 10.61 L 116.29 10.65 L 116.23 10.68 L 116.17 10.72 L 116.12 10.77 L 116.08 10.82 L 116.04 10.88 L 116.01 10.94 L 115.98 10.99 L 115.96 11.06 L 115.94 11.12 L 115.93 11.19 L 115.93 11.26 L 115.94 11.33 L 115.94 11.40 L 115.97 11.46 L 115.99 11.53 L 116.02 11.59 L 116.05 11.65 L 116.10 11.70 L 116.14 11.75 L 116.20 11.79 L 116.25 11.83 L 116.31 11.87 L 116.37 11.90 L 116.44 11.91 L 116.51 11.93 L 116.57 11.94 L 116.64 11.94 L 116.71 11.94 L 116.78 11.93 Z"/></svg>
