<svg xmlns="http://www.w3.org/2000/svg" viewBox="8.12 8.14 327.72 74.45" width="327.72" height="74.45" xmlns:v="https://vecta.io/nano"><path fill="#1e1e1e" d="M175.772 16.248q0 0-.56-.09-.56-.09-1.29.19-.72.28-1.61.43-.89.15-1.7.15-.81.01-1.34-.09-.53-.11-1.26-.22-.73-.12-1.31-.24-.58-.11-1.22-.01-.64.11-1.5-.01-.87-.12-1.69-.11-.83.02-1.4.02-.56 0-1.11-.01-.55 0-1.09.11-.55.11-1.36.23-.81.11-1.58.11-.76 0-1.3 0-.54 0-1.19 0-.65 0-1.32 0-.67 0-1.8.11-1.13.11-1.85.3-.72.2-1.25.4-.54.2-1.49.15-.94-.05-1.71-.27-.77-.22-1.39-.23-.63 0-1.2-.01-.57 0-1.23 0-.66 0-1.22-.1-.57-.1-1.32-.22-.75-.12-1.61-.12-.86-.01-1.4-.01-.54 0-1.1 0-.56 0-1.21 0-.65 0-1.6.2-.95.19-1.75.3-.79.11-1.58.14-.79.04-1.83-.18-1.05-.22-1.97-.56-.91-.34-1.73-.56-.82-.21-1.35-.32-.52-.11-1.53-.45-1.01-.35-1.66-.57-.65-.23-1.38-.33-.73-.11-1.26-.34-.53-.23-1.44-.55-.91-.33-1.45-.44-.55-.11-1.59-.13-1.03-.01-1.88-.23-.84-.23-1.57-.23-.74 0-1.7.27-.96.27-1.58.41-.61.14-1.25.18-.64.03-1.22.03-.57.01-1.43.27-.86.26-1.48.41-.62.15-1.62.3-1 .14-1.65.14-.65.01-1.32.01-.67 0-1.28.09-.61.09-1.28.19-.66.11-1.33.22-.67.12-1.77.25-1.09.14-1.66.14-.57.01-1.23.01-.66 0-1.39-.1-.73-.1-1.35-.11-.62-.01-1.29-.01-.66-.01-1.31-.11-.65-.09-1.68-.44-1.04-.35-1.94-.56-.9-.22-1.48-.23-.57-.01-1.23-.01-.66 0-1.33 0-.67 0-1.25 0-.58 0-1.53-.11-.94-.11-1.8-.57-.85-.45-1.37-.54-.53-.1-1.18-.21-.65-.11-1.32-.22-.67-.12-1.4-.33-.73-.22-1.41-.45-.69-.22-1.42-.35-.74-.14-1.6.05-.86.19-2.07.53-1.22.33-1.79.6-.58.27-1.35.6-.76.33-1.25.78-.48.46-.94.91-.46.44-1.01.77-.55.33-1.54.44-1 .1-1.7.01-.7-.1-1.29-.21-.6-.11-1.16-.22-.57-.11-1.15-.12-.59-.01-1.14-.11-.56-.11-1.4-.23-.84-.12-1.55-.35-.7-.23-1.45-.33-.76-.11-1.83-.23-1.08-.11-1.64-.11-.56 0-1.6.19-1.05.19-1.84.22-.8.03-1.48.12-.68.08-1.66.11-.99.03-1.98.03-.99 0-1.93.09-.93.08-1.6.45-.67.36-1.28.72-.6.37-1.08.73-.47.37-1.12.9-.64.53-1.01 1.36-.37.82-.61 1.3-.23.49-.45 1.01-.21.52-.43 1.07-.23.56-.35 1.53-.12.98-.23 1.52-.1.54-.21 1.08-.11.54-.22 1.65-.12 1.11-.23 1.68-.11.57-.12 1.52-.02.95-.02 1.49 0 .55-.1 1.17-.1.63-.21 1.29-.1.65-.12 1.26-.01.61-.11 1.17-.11.56-.22 1.11-.11.55-.22 1.55-.11 1-.22 2.2-.12 1.2-.23 1.8-.11.59-.22 1.16-.12.57-.24 1.4-.12.84-.22 1.45-.11.62-.22 1.74-.11 1.12-.22 2.33-.11 1.2-.22 1.88-.11.67-.13 1.29-.01.61-.01 1.28-.01.66-.01 1.33 0 .67 0 1.62 0 .94.2 2.06.2 1.12.31 1.79.11.67.3 1.29.19.62.4 1.17.22.55.44 1.11.22.56.44 1.12.23.56.53 1.19.31.62.56 1.22.25.6.55 1.12.29.51.62 1.06.32.55 1.07 1.32.75.76 1.35 1.28.59.52 1.17.83.57.31 1.33.85.76.55 1.26.77.49.22 1.08.14.58-.08 1.33-.43.74-.35 1.54-.7.81-.34 1.58-.52.78-.18 1.61-.22.83-.04 1.4-.04.58 0 1.45 0 .87 0 1.41 0 .54 0 1.1 0 .56 0 1.56-.11 1-.11 1.91-.22.92-.11 1.74-.12.82 0 1.79.1.97.11 2.22.21 1.25.11 2.04.22.78.11 1.52.12.73.02 1.39.12.66.1 1.32.21.66.11 1.89.22 1.23.12 2.08.23.85.1 1.69.12.84.02 1.64.02.8 0 1.59 0 .79 0 1.52.21.72.2 1.39.43.67.22 1.34.44.67.22 1.51.44.83.22 1.67.34.85.12 1.65.23.8.12 1.5.23.71.12 1.39.23.67.11 1.47.13.8.01 1.74-.08.93-.09 2.03-.2 1.09-.1 1.97-.3.89-.2 1.72-.33.84-.13 1.69-.33.85-.21 1.91-.52 1.06-.3 2.14-.72 1.08-.41 2.02-.77.94-.35 1.78-.61.84-.25 1.64-.31.79-.06 1.68-.07.88-.01 1.73-.1.85-.09 1.74-.2.89-.11 1.69-.22.8-.11 1.54-.13.75-.02 1.43-.03.69 0 1.6.09.91.1 1.95.11 1.04.02 2.05.02 1.02 0 1.84 0 .83 0 1.62 0 .79 0 1.67 0 .88 0 1.91.1 1.03.09 2.1.11 1.06.01 2.08.01 1.02.01 1.85.01.82 0 1.62 0 .79 0 1.72.09.92.1 1.87.31.94.21 1.77.43.82.23 1.54.46.71.23 1.32.46.6.23 1.37.56.76.32 1.5.54.74.23 1.68.45.94.22 1.82.34.87.13 1.68.24.8.12 1.54.13.74.02 1.46-.07.73-.08 1.7-.19.98-.11 2.02-.13 1.04-.02 1.88-.2.84-.18 1.66-.31.83-.13 1.42-.4.59-.27 1.41-.53.81-.25 1.65-.4.84-.14 1.64-.26.79-.12 1.53-.32.74-.19 1.36-.33.62-.13 1.19-.24.57-.12 1.56-.26.99-.14 1.58-.23.59-.09 1.35-.2.77-.11 1.39-.31.63-.19 1.45-.33.82-.14 1.41-.25.58-.11 1.67-.25 1.09-.14 1.76-.15.66 0 1.33 0 .67 0 1.49-.09.81-.09 1.65-.11.83-.02 1.53-.02.7 0 1.29 0 .6 0 1.22.21.62.22 1.17.44.55.22 1.12.32.58.11 1.37.33.8.21 1.45.33.66.12 1.43.46.77.33 1.36.44.59.12 1.16.24.58.11 1.14.23.56.11 1.24.12.67.01 1.58.11.91.1 1.81.21.9.11 1.88.22.99.11 1.77.13.78.01 1.56.02.78 0 1.58-.18.79-.17 1.85-.21 1.06-.04 1.99-.05.92-.01 1.73-.01.81 0 1.42 0 .6 0 1.17 0 .57 0 1.22 0 .66 0 1.42 0 .76 0 1.55 0 .78 0 1.56 0 .79 0 1.39 0 .6 0 1.26 0 .66 0 1.77-.27 1.1-.28 1.92-.42.82-.14 1.56-.34.75-.2 1.47-.34.73-.13 1.35-.33.63-.19 1.18-.41.56-.21 1.52-.58.96-.36 1.6-.4.65-.04 1.76-.15 1.11-.12 1.83-.21.71-.09 1.28-.2.58-.1 1.11-.13.54-.03 1.48.08.94.1 1.66.45.72.34 1.52.67.8.34 1.37.67.57.33 1.13.67.56.33 1.14.54.59.21 1.32.43.74.22 1.38.34.65.12 1.26.13.61.02 1.36.02.76.01 1.54.01.78 0 1.56 0 .79 0 1.48 0 .69 0 1.37 0 .67 0 1.51-.19.84-.18 1.73-.33.89-.15 1.77-.26.89-.11 1.44-.12.56 0 1.56-.11 1-.11 1.93-.11.93-.01 1.83-.01.9 0 1.44 0 .54 0 1.63-.1 1.1-.11 1.68-.12.58 0 1.24 0 .66 0 1.33 0 .67 0 1.34 0 .68 0 1.26 0 .58 0 1.24 0 .65 0 1.42 0 .76 0 1.54 0 .78 0 1.76 0 .97 0 1.93-.09.96-.09 1.87-.2.9-.11 1.94-.13 1.04-.02 2.01-.12.98-.09 1.93-.11.95-.02 1.86-.02.9 0 1.66-.09.76-.09 1.49-.11.74-.02 1.52-.02.78-.01 1.97.09 1.19.09 1.98.2.78.12 1.65.23.86.11 1.58.22.72.11 1.35.13.62.01 1.38.02.75 0 1.53 0 .79 0 1.57 0 .79 0 1.48 0 .69 0 1.65-.19.95-.19 1.62-.4.66-.22 1.66-.56 1.01-.34 1.83-.74.83-.4 1.4-.63.56-.24 1.19-.39.62-.16 1.2-.27.57-.12 1.24-.33.67-.22 1.32-.57.66-.36 1.15-.62.49-.26 1.45-.76.97-.5 1.55-.87.59-.38 1.18-1.07.59-.69 1.12-1.49.52-.8.74-1.52.21-.73.32-1.31.1-.58.11-1.16.01-.59.02-1.25 0-.66 0-1.24 0-.58 0-1.14 0-.56 0-1.58 0-1.01 0-1.91 0-.9 0-1.82 0-.91 0-1.81 0-.9-.11-1.88-.11-.98-.11-1.54 0-.57-.11-1.48-.11-.91-.31-1.94-.2-1.03-.31-1.69-.12-.67-.23-1.34-.11-.67-.14-1.41-.02-.73-.02-1.32-.01-.59-.1-1.19-.09-.6-.11-1.22-.02-.63-.02-1.3 0-.67 0-1.52 0-.86.09-1.63.1-.76.11-1.39.02-.63.02-1.2 0-.58 0-1.14 0-.56.1-1.28.1-.72.11-1.43.01-.71.11-1.44.1-.74.02-1.31-.08-.57-.17-1.11-.1-.54-.61-1.47-.5-.92-1.27-1.71-.77-.79-1.28-1.21-.51-.42-1.09-.73-.58-.31-1.17-.66-.59-.34-1.09-.7-.51-.36-1.01-.82-.5-.47-.95-.92-.46-.45-.92-.75-.46-.29-1.07-.39-.6-.09-1.53-.21-.93-.11-1.79-.13-.87-.01-1.67-.02-.8 0-1.43.09-.64.09-1.31.19-.66.11-1.49.31-.83.2-1.82.42-.99.22-2 .45-1 .22-1.91.44-.91.23-1.65.36-.74.14-1.42.25-.69.11-1.62.14-.92.02-1.82.03-.9 0-1.89 0-.99 0-1.91 0-.91 0-1.72 0-.81 0-1.78 0-.98 0-2.13.09-1.16.1-2.57.2-1.42.11-2.24.13-.82.02-1.67.12-.84.09-1.83.2-.99.11-2.09.22-1.1.11-2.07.14-.97.02-1.7.02-.72 0-1.46-.09-.74-.1-1.35-.21-.6-.12-1.31-.33-.71-.22-1.38-.44-.68-.23-1.43-.44-.76-.21-1.49-.33-.73-.12-1.34-.24-.61-.12-1.18-.23-.57-.12-1.65-.45-1.09-.34-2.2-.68-1.12-.33-1.87-.44-.76-.1-1.5-.12-.74-.02-1.42-.02-.69-.01-1.86.19-1.16.2-1.78.39-.61.19-1.3.56-.69.38-1.65.91-.97.53-1.75 1.06-.78.53-1.59 1.02-.82.48-1.54.85-.72.37-1.49.56-.78.2-1.68.32-.9.13-1.89.24-1 .12-1.91.23-.91.11-1.71.22-.8.11-1.38.22-.59.11-1.41.14-.82.03-1.61.03-.79 0-1.81-.09-1.01-.1-1.8-.11-.78-.02-1.56-.02-.79 0-1.39 0-.6 0-1.32-.1-.72-.1-1.43-.11-.72-.01-1.54-.11-.83-.1-1.71-.21-.88-.11-1.77-.22-.9-.11-1.79-.22-.9-.11-1.8-.23-.9-.11-1.8-.22-.89-.11-1.88-.23-.99-.11-1.86-.32-.88-.22-1.55-.34-.67-.12-1.35-.24-.67-.11-1.51-.22-.85-.11-1.86-.32-1.02-.21-1.99-.54-.96-.33-1.75-.56-.79-.23-1.5-.46-.71-.23-1.25-.35-.55-.12-1.32-.34-.77-.21-1.34-.33-.57-.13-1.38-.23-.82-.11-1.66-.33-.85-.22-1.6-.34-.74-.12-1.29-.13-.54-.02-1.19-.02-.64-.01-1.2.16-.55.17-1.37.31-.81.13-1.5.25-.68.11-1.41.31-.73.2-1.35.33-.61.13-1.12.32-.51.19-1.46.7-.93.5-1.61.84-.67.35-1.39.61-.72.27-2.47.21-1.74-.05-1.82-.04-.08.02-.16.02-.07 0-.15-.02-.08-.02-.15-.06-.07-.04-.13-.09-.05-.05-.1-.12-.04-.06-.07-.14-.03-.07-.03-.15-.01-.08 0-.16.01-.08.04-.15.03-.08.07-.14.05-.06.11-.12.06-.05.13-.08.07-.04-.14.24-.22.28-.19.17.02-.1.08-.19.06-.09.14-.15.09-.07.19-.1.1-.04.2-.04.11 0 .21.03.1.03.19.1.08.06.15.15.06.08.09.19.03.1.02.2 0 .11-.04.21-.04.1-.11.18-.06.08-.15.14-.09.06-.2.08-.1.02-.21.01-.1-.01-.2-.05-.1-.04-.17-.11-.08-.08-.13-.17-.06-.09-.07-.2-.02-.1-.01-.21.02-.1.07-.2.05-.09.12-.17.08-.07.17-.12.1-.04.21-.05.1-.02.2 0 .11.03.2.08.09.05.16.13.07.08.11.18.04.1-.16.48-.21.39-.29.4-.08.02-.16.02-.07 0-.15-.02-.08-.02-.15-.06-.07-.04-.13-.09-.05-.05-.1-.12-.04-.06-.07-.14-.03-.07-.03-.15-.01-.08 0-.16.01-.08.04-.15.03-.07.07-.14.05-.06.11-.12.06-.05.13-.08.07-.04 1.74-.18 1.67-.16 2.29-.38.62-.22 1.25-.54.63-.33 1.21-.66.57-.33 1.08-.57.5-.24 1.13-.46.62-.23 1.2-.35.57-.13 1.39-.34.81-.21 1.5-.33.69-.11 1.41-.23.72-.11 1.5-.31.79-.2 1.47-.2.68 0 1.33.03.66.03 1.48.16.83.14 1.58.34.74.19 1.62.31.88.12 1.5.26.62.13 1.35.34.73.2 1.35.34.63.14 1.31.37.69.22 1.51.47.83.24 1.69.54.86.3 1.81.5.95.2 1.83.32.88.11 1.56.23.68.11 1.41.25.73.12 1.49.32.76.19 1.76.31.99.11 1.89.22.9.11 1.8.23.9.11 1.79.22.9.11 1.8.22.89.12 1.77.23.88.1 1.61.2.74.09 1.56.11.81.02 1.41.11.61.09 1.21.09.6 0 1.4 0 .79 0 1.64.02.85.02 1.78.11.93.09 1.7.09.77-.01 1.46-.02.69-.01 1.31-.12.62-.12 1.43-.23.82-.12 1.73-.23.92-.11 1.89-.22.98-.12 1.8-.23.83-.11 1.4-.23.58-.12 1.25-.46.66-.35 1.43-.79.77-.45 1.62-1.03.85-.58 1.83-1.12.97-.54 1.82-.97.84-.44 1.57-.66.73-.22 1.39-.33.66-.11 1.31-.21.66-.1 1.36-.09.71 0 1.56.03.85.03 1.77.18.93.15 1.44.34.5.19 1.12.34.61.14 1.56.44.94.3 1.51.41.57.11 1.15.23.59.11 1.42.25.84.14 1.62.37.78.23 1.44.45.67.22 1.28.41.6.19 1.16.3.56.1 1.18.19.62.09 1.33.09.71 0 1.61-.02.9-.02 1.99-.13 1.1-.11 2.09-.22.99-.11 1.91-.21.91-.1 1.69-.11.78-.02 2.19-.13 1.41-.11 2.64-.2 1.22-.1 2.2-.1.97 0 1.78 0 .81 0 1.72 0 .92 0 1.9 0 .99 0 1.88 0 .88-.01 1.68-.02.8-.01 1.47-.13.67-.11 1.36-.24.69-.12 1.62-.35.92-.23 1.93-.45 1-.23 1.98-.45.98-.22 1.88-.43.89-.21 1.58-.32.69-.11 1.44-.21.76-.09 1.57-.09.82.01 1.77.03.96.02 1.96.15 1 .12 1.88.33.89.22 1.51.63.62.41 1.06.86.45.44.85.83.41.39.85.7.44.32 1 .65.56.33 1.28.73.72.4 1.3.88.57.48 1.03.95.46.47.94 1.05.49.57.7 1.06.21.5.56 1.11.35.62.47 1.24.11.62.19 1.4.07.79-.02 1.43-.09.64-.11 1.46-.02.81-.11 1.41-.09.59-.09 1.16 0 .56 0 1.15 0 .59-.02 1.32-.02.72-.11 1.37-.09.65-.09 1.5 0 .86.01 2.03.02 1.18.12 1.89.09.72.1 1.29 0 .57.01 1.19.02.61.13 1.28.11.66.22 1.31.11.64.22 1.21.11.56.22 1.55.11.99.21 1.54.11.54.12 1.56.01 1.02.11 1.55.1.54.1 1.44 0 .9 0 1.81 0 .92 0 1.82 0 .9 0 1.91 0 1.02 0 1.58 0 .57 0 1.15 0 .58 0 1.26-.01.68-.13 1.9-.11 1.22-.43 2.29-.32 1.07-.61 1.58-.28.51-.66.99-.38.48-.77.87-.38.38-1.09 1.03-.7.65-1.48.99-.78.35-1.68.9-.89.56-1.77 1.03-.88.47-1.65.7-.77.24-1.81.47-1.04.22-2.02.66-.98.44-1.98.77-.99.33-1.82.67-.83.34-1.72.58-.89.23-1.55.33-.65.1-1.34.1-.69 0-1.48 0-.79 0-1.57 0-.78 0-1.56 0-.78-.01-1.52-.03-.73-.03-1.43-.14-.69-.11-1.57-.22-.88-.11-1.61-.22-.73-.1-1.85-.19-1.12-.1-1.88-.09-.76 0-1.42.01-.65.02-1.51.11-.85.1-1.74.1-.9 0-1.78.02-.89.01-1.93.11-1.04.1-1.99.12-.95.01-1.88.12-.92.11-1.97.21-1.04.09-2.01.09-.98 0-1.76 0-.78 0-1.54 0-.77 0-1.42 0-.66 0-1.24 0-.58 0-1.26 0-.67 0-1.34 0-.67 0-1.32 0-.66 0-1.23 0-.56.01-1.12.01-.57.01-1.12.11-.54.11-1.54.11-.99 0-1.89 0-.9 0-1.83.01-.92.01-1.47.11-.55.1-1.44.11-.9.01-1.67.12-.78.11-1.63.34-.85.23-1.5.33-.65.1-1.33.1-.68 0-1.37 0-.69 0-1.48 0-.78 0-1.57 0-.78 0-1.56-.01-.78 0-1.53-.03-.74-.03-1.47-.17-.73-.15-1.53-.38-.79-.24-1.51-.52-.73-.27-1.28-.61-.56-.33-1.06-.62-.51-.3-1.24-.61-.74-.3-1.61-.7-.88-.39-1.73-.38-.85.02-1.47.13-.62.11-1.42.21-.8.1-1.37.11-.56.01-1.09.11-.54.11-1.36.22-.83.11-1.33.35-.5.24-1.11.47-.61.23-1.34.45-.72.22-1.38.34-.66.12-1.48.34-.83.22-1.53.33-.71.11-1.43.33-.71.22-1.36.31-.65.1-1.31.1-.66 0-1.26 0-.6 0-1.39 0-.78 0-1.56 0-.79 0-1.55 0-.76 0-1.42 0-.65 0-1.22 0-.57 0-1.17 0-.61 0-1.41 0-.81.01-1.71.01-.9.01-1.81.03-.92.02-1.88.22-.97.19-1.78.19-.8-.01-1.66-.03-.86-.02-1.85-.13-1-.11-1.89-.22-.88-.11-1.72-.21-.84-.09-1.66-.12-.82-.02-1.39-.14-.56-.11-1.15-.23-.58-.12-1.34-.29-.76-.17-1.34-.45-.59-.27-1.31-.4-.72-.14-1.45-.34-.74-.2-1.46-.35-.73-.16-1.6-.53-.86-.38-1.44-.38-.57.01-1.24.01-.69 0-1.45.02-.76.01-1.67.1-.9.1-1.57.1-.67 0-1.31 0-.64.01-1.59.13-.95.13-1.56.24-.61.12-1.32.24-.72.11-1.47.33-.75.22-1.51.33-.76.11-1.44.21-.68.1-1.54.22-.85.13-1.41.24-.57.11-1.15.24-.57.12-1.41.34-.83.21-1.61.33-.77.11-1.5.23-.73.12-1.45.34-.73.22-1.53.55-.8.34-1.59.46-.79.12-1.78.32-1 .2-1.96.21-.97.02-1.94.13-.97.11-1.82.2-.84.09-1.69.07-.84-.03-1.64-.14-.81-.12-1.76-.26-.95-.14-1.95-.37-1-.24-1.82-.49-.82-.26-1.56-.57-.74-.31-1.3-.53-.56-.21-1.24-.43-.68-.22-1.46-.44-.78-.21-1.63-.41-.84-.19-1.68-.28-.83-.09-1.62-.09-.8 0-1.62 0-.83 0-1.86-.01-1.03 0-2.17-.02-1.13-.01-2.08-.11-.95-.09-1.83-.09-.88 0-1.67 0-.79 0-1.62 0-.83 0-1.85 0-1.03 0-2.15-.02-1.12-.02-1.93-.11-.81-.09-1.48-.09-.66.01-1.31.02-.65.02-1.46.13-.81.11-1.72.22-.9.11-1.84.21-.93.09-1.77.1-.84.01-1.44.03-.6.03-1.38.26-.78.24-1.71.59-.94.35-2.09.79-1.15.44-2.25.76-1.11.32-2.02.53-.92.22-1.7.34-.79.12-1.77.34-.98.21-2.08.32-1.11.11-2.14.2-1.04.09-1.96.06-.92-.02-1.6-.13-.67-.11-1.36-.23-.69-.11-1.49-.22-.81-.12-1.75-.26-.94-.14-1.82-.37-.89-.24-1.56-.46-.67-.22-1.8-.61-1.13-.38-1.92-.38-.78 0-1.59 0-.81 0-1.75-.03-.94-.02-1.8-.13-.87-.11-1.48-.2-.6-.09-1.24-.12-.63-.02-1.29-.13-.66-.11-1.2-.2-.54-.09-1.38-.12-.83-.02-1.61-.13-.77-.11-1.47-.2-.7-.09-1.68-.2-.98-.11-1.76-.11-.79 0-1.6.01-.82.01-1.83.13-1.01.11-1.57.21-.55.1-1.11.1-.56 0-1.1 0-.54 0-1.41 0-.87 0-1.43 0-.57 0-1.22.02-.66.02-1.28.15-.61.13-1.41.47-.79.34-1.79.76-1 .42-1.89.48-.89.06-1.58-.18-.69-.24-1.05-.7-.35-.46-1.1-.74-.74-.28-1.49-.81-.75-.54-1.41-1.3-.67-.77-1.18-1.24-.51-.48-.86-1.05-.34-.58-.68-1.19-.35-.61-.58-1.16-.23-.56-.56-1.24-.33-.69-.55-1.25-.23-.56-.45-1.13-.23-.57-.46-1.18-.23-.61-.45-1.34-.22-.73-.33-1.4-.11-.67-.22-1.32-.11-.65-.21-1.26-.1-.62-.1-1.56 0-.95 0-1.62 0-.68.01-1.36 0-.68.02-1.42.03-.73.14-1.39.11-.66.2-1.27.09-.6.2-1.72.11-1.13.23-2.25.11-1.12.25-2.09.14-.97.25-1.53.11-.56.22-1.12.1-.56.19-1.17.1-.6.21-1.71.11-1.11.14-1.64.02-.53.22-1.5.2-.96.22-1.69.03-.73.22-1.87.2-1.14.21-2.17 0-1.02.03-1.65.02-.63.22-1.69.2-1.05.22-1.68.03-.63.23-1.58.2-.94.23-1.58.04-.65.19-1.27.15-.63.37-1.19.23-.56.68-1.57.45-1.02.7-1.6.25-.59.57-1.11.32-.52.71-.89.39-.36.96-.81.58-.45 1.14-.79.56-.34 1.33-.82.76-.48 1.33-.71.56-.23 1.65-.33 1.09-.1 2.07-.1.99 0 1.8-.01.8-.01 1.66-.11.85-.11 1.49-.12.64-.01 1.22-.13.57-.11 1.2-.21.64-.09 1.22-.09.59 0 1.68.12 1.09.11 1.63.14.53.03 1.33.27.79.23 1.45.33.67.1 1.52.3.85.19 1.58.22.72.02 1.28.14.56.11 1.12.21.55.11 1.5.19.95.08 1.51-.11.56-.19 1.05-.66.48-.48 1.19-1.07.71-.59 1.47-.92.77-.33 1.53-.66.77-.34 1.36-.45.59-.11 1.21-.33.62-.22 1.16-.33.53-.11 1.08-.21.55-.09 1.51.08.96.18 1.63.39.66.22 1.28.41.62.2 1.29.31.68.11 1.36.23.68.12 1.42.29.74.17 1.43.56.69.39 1.4.47.72.07 1.3.07.58.01 1.26.01.67 0 1.35 0 .68 0 1.41.03.73.03 1.3.15.57.13 1.46.45.88.33 1.83.52.96.19 1.64.2.68 0 1.4.02.72.02 1.33.11.61.09 1.27.09.65 0 1.19-.01.55 0 1.53-.13.98-.12 1.65-.23.68-.12 1.36-.23.68-.11 1.42-.2.73-.1 1.39-.1.67 0 1.66-.01.98-.01 1.92-.23.95-.22 1.51-.45.57-.23 1.2-.33.63-.11 1.18-.11.55 0 1.54-.13.99-.12 1.63-.34.63-.22 1.26-.32.63-.1 1.62-.06.99.04 1.58.23.6.18 1.17.18.57.01 1.2.03.64.03 1.21.15.57.12 1.2.28.64.17 1.44.56.8.39 1.6.51.81.13 1.55.39.74.26 1.57.55.82.29 1.84.52 1.02.24 1.92.57.9.34 1.68.63.79.29 1.53.29.73-.01 1.43-.12.69-.11 1.57-.23.87-.12 1.52-.22.64-.1 1.3-.1.65 0 1.21 0 .56 0 1.55 0 .99 0 1.88.04.89.03 1.73.22.84.18 1.49.18.66 0 1.24 0 .58 0 1.25.01.67.01 1.62.26.95.25 1.6.21.65-.03 1.47-.26.81-.23 1.79-.34.98-.12 1.63-.22.65-.1 1.32-.1.67 0 1.32 0 .65 0 1.62 0 .96 0 1.69.01.72.01 1.29-.1.56-.11 1.28-.23.71-.13 1.27-.13.56 0 1.15.01.58 0 1.39.05.8.05 1.38.12.58.07 1.4-.05.83-.12 1.43.02.6.15 1.27.26.66.1 1.45.18.78.09 1.44.08.66 0 1.29-.17.63-.17 1.48-.42.85-.25 1.41-.16.55.1.65.13.1.03.2.08.09.05.16.13.08.07.14.16.05.09.09.19.03.1.04.21 0 .09-.01.2-.02.1-.06.2-.04.1-.11.18-.06.09-.14.15-.09.07-.18.12-.1.04-.2.06-.11.02-.2.02-.11-.01-.11-.01h0z"/></svg>