<svg preserveAspectRatio="none" xmlns="http://www.w3.org/2000/svg" viewBox="8.12 8.14 327.72 74.45" xmlns:v="https://vecta.io/nano"><path d="M175.77 16.25h0l-.56-.09-.56-.09-.73.28-.72.28-.89.15-.89.15h-.81l-.81.01-.53-.1-.53-.11-.73-.11-.73-.12-.58-.12-.58-.11-.64.1-.64.11-.86-.12-.87-.12-.82.01-.83.02h-.57-.56l-.55-.01h-.55l-.54.11-.55.11-.81.12-.81.11h-.77-.76-.54-.54-.65-.65-.67-.67l-1.13.11-1.13.11-.72.19-.72.2-.53.2-.54.2-.95-.05-.94-.05-.77-.22-.77-.22-.62-.01h-.63l-.57-.01h-.57-.66-.66l-.56-.1-.57-.1-.75-.12-.75-.12h-.86l-.86-.01h-.54-.54-.56-.56-.65-.65l-.95.2-.95.19-.8.11-.79.11-.79.03-.79.04-1.04-.22-1.05-.22-.92-.34-.91-.34-.82-.22-.82-.21-.53-.11-.52-.11-1.01-.34-1.01-.35-.65-.22-.65-.23-.73-.1-.73-.11-.53-.23-.53-.23-.91-.32-.91-.33-.54-.11-.55-.11-1.04-.02-1.03-.01-.85-.22-.84-.23h-.73-.74l-.96.27-.96.27-.62.14-.61.14-.64.04-.64.03h-.58l-.57.01-.86.26-.86.26-.62.15-.62.15-1 .15-1 .14h-.65l-.65.01h-.67-.67l-.61.09-.61.09-.67.1-.66.11-.67.11-.67.12-1.1.13-1.09.14h-.57l-.57.01h-.66-.66l-.73-.1-.73-.1-.62-.01-.62-.01h-.67l-.66-.01-.65-.1-.65-.09-1.03-.35-1.04-.35-.9-.21-.9-.22-.58-.01-.57-.01h-.66-.66-.67-.67-.58-.58l-.95-.11-.94-.11-.86-.46-.85-.45-.52-.09-.53-.1-.65-.11-.65-.11-.67-.11-.67-.12-.73-.21-.73-.22-.68-.23-.69-.22-.73-.13-.74-.14-.86.19-.86.19-1.21.34-1.22.33-.57.27-.58.27-.77.33-.76.33-.49.45-.48.46-.46.45-.46.44-.55.33-.55.33-.99.11-1 .1-.7-.09-.7-.1-.59-.11-.6-.11-.56-.11-.57-.11-.58-.01-.59-.01-.55-.1-.56-.11-.84-.12-.84-.12-.71-.23-.7-.23-.75-.1-.76-.11-1.07-.12-1.08-.11h-.56-.56l-1.04.19-1.05.19-.79.03-.8.03-.68.09-.68.08-.98.03-.99.03h-.99-.99l-.94.09-.93.08-.67.37-.67.36-.61.36-.6.37-.48.36-.47.37-.65.53-.64.53-.37.83-.37.82-.24.48-.23.49-.22.52-.21.52-.22.55-.23.56-.12.97-.12.98-.11.54-.1.54-.11.54-.11.54-.11 1.11-.12 1.11-.11.57-.11.57-.01.95-.02.95v.54.55l-.1.62-.1.63-.11.66-.1.65-.02.61-.01.61-.1.56-.11.56-.11.55-.11.55-.11 1-.11 1-.11 1.2-.12 1.2-.11.6-.11.59-.11.57-.12.57-.12.83-.12.84-.1.61-.11.62-.11 1.12-.11 1.12-.11 1.21-.11 1.2-.11.68-.11.67-.02.62-.01.61v.67l-.01.66v.67.67.95.94l.2 1.12.2 1.12.11.67.11.67.19.62.19.62.21.55.22.55.22.56.22.56.22.56.23.56.3.63.31.62.25.6.25.6.3.52.29.51.33.55.32.55.75.77.75.76.6.52.59.52.58.31.57.31.76.54.76.55.5.22.49.22.59-.08.58-.08.75-.35.74-.35.8-.35.81-.34.77-.18.78-.18.83-.04.83-.04h.57.58.87.87.54.54.56.56l1-.11 1-.11.91-.11.92-.11.82-.01h.82l.97.1.97.11 1.25.1 1.25.11.79.11.78.11.74.01.73.02.66.1.66.1.66.11.66.11 1.23.11 1.23.12.85.11.85.1.84.02.84.02h.8.8.79.79l.73.21.72.2.67.23.67.22.67.22.67.22.84.22.83.22.84.12.85.12.8.11.8.12.7.11.71.12.68.11.67.11.8.02.8.01.94-.09.93-.09 1.1-.11 1.09-.1.88-.2.89-.2.83-.13.84-.13.85-.2.85-.21 1.06-.31 1.06-.3 1.08-.42 1.08-.41.94-.36.94-.35.84-.26.84-.25.8-.06.79-.06.89-.01.88-.01.85-.09.85-.09.89-.11.89-.11.8-.11.8-.11.74-.02.75-.02.68-.01h.69l.91.09.91.1 1.04.01 1.04.02h1.01 1.02.82.83.79.79.88.88l1.03.1 1.03.09 1.07.02 1.06.01H117l1.02.01h.83.82.8.79l.93.09.92.1.95.21.94.21.83.22.82.23.72.23.71.23.61.23.6.23.77.33.76.32.74.22.74.23.94.22.94.22.88.12.87.13.81.11.8.12.74.01.74.02.72-.09.73-.08.97-.11.98-.11 1.04-.02 1.04-.02.84-.18.84-.18.82-.13.83-.13.59-.27.59-.27.82-.26.81-.25.84-.15.84-.14.8-.12.79-.12.74-.2.74-.19.62-.14.62-.13.57-.11.57-.12.99-.14.99-.14.59-.09.59-.09.76-.11.77-.11.62-.2.63-.19.82-.14.82-.14.59-.11.58-.11 1.09-.14 1.09-.14.67-.01h.66.67.67l.82-.09.81-.09.84-.02.83-.02h.7.7.59.6l.62.21.62.22.55.22.55.22.57.1.58.11.79.22.8.21.65.12.66.12.77.34.77.33.59.11.59.12.57.12.58.11.56.12.56.11.68.01.67.01.91.1.91.1.9.11.9.11.98.11.99.11.78.02.78.01.78.01h.78l.8-.18.79-.17 1.06-.04 1.06-.04.93-.01.92-.01h.81.81.61.6.57.57.65.66.76.76.79.78.78.79.6.6.66.66l1.11-.27 1.1-.28.82-.14.82-.14.74-.2.75-.2.72-.14.73-.13.62-.2.63-.19.55-.22.56-.21.96-.37.96-.36.64-.04.65-.04 1.11-.11 1.11-.12.72-.09.71-.09.57-.11.58-.1.53-.03.54-.03.94.11.94.1.72.35.72.34.8.33.8.34.57.33.57.33.56.34.56.33.58.21.59.21.73.22.74.22.64.12.65.12.61.01.61.02h.75l.76.01h.78.78.78.79.69.69.68.67l.84-.19.84-.18.89-.15.89-.15.88-.11.89-.11.55-.01h.56l1-.11 1-.11h.93l.93-.01h.9.9.54.54l1.09-.1 1.1-.11.58-.01h.58.66.66.67.67.67.68.58.58.66.65.77.76.78.78.98.97l.96-.09.96-.09.91-.11.9-.11 1.04-.02 1.04-.02.97-.1.98-.09.95-.02.95-.02h.91.9l.76-.09.76-.09.73-.02.74-.02h.78l.78-.01 1.19.1 1.19.09.79.11.78.12.87.11.86.11.72.11.72.11.63.02.62.01.76.01h.75.78.79.78.79.69.69l.96-.19.95-.19.67-.21.66-.22 1-.34 1.01-.34.82-.4.83-.4.57-.23.56-.24.63-.15.62-.16.58-.11.57-.12.67-.21.67-.22.65-.35.66-.36.49-.26.49-.26.96-.5.97-.5.58-.37.59-.38.59-.69.59-.69.53-.8.52-.8.22-.72.21-.73.11-.58.1-.58.01-.58.01-.59.01-.66v-.66-.58-.58-.56-.56-1.02-1.01-.9-.9-.92-.91-.9-.9l-.11-.98-.11-.98v-.56-.57l-.11-.91-.11-.91-.2-1.03-.2-1.03-.11-.66-.12-.67-.11-.67-.11-.67-.03-.74-.02-.73v-.59l-.01-.59-.09-.6-.09-.6-.02-.62-.02-.63v-.67-.67-.85-.86l.09-.77.1-.76.01-.63.02-.63v-.57-.58-.56-.56l.1-.72.1-.72.01-.71.01-.71.1-.73.1-.74-.08-.57-.08-.57-.09-.54-.1-.54-.51-.93-.5-.92-.77-.79-.77-.79-.51-.42-.51-.42-.58-.31-.58-.31-.59-.35-.59-.34-.5-.36-.51-.36-.5-.46-.5-.47-.45-.45-.46-.45-.46-.3-.46-.29-.61-.1-.6-.09-.93-.12-.93-.11-.86-.02-.87-.01-.8-.01h-.8l-.63.09-.64.09-.67.1-.66.11-.83.2-.83.2-.99.22-.99.22-1.01.23-1 .22-.91.22-.91.23-.74.13-.74.14-.68.11-.69.11-.93.03-.92.02-.9.01h-.9-.99-.99-.92-.91-.81-.81-.97-.98l-1.15.09-1.16.1-1.41.1-1.42.11-.82.02-.82.02-.85.1-.84.09-.99.11-.99.11-1.1.11-1.1.11-.97.03-.97.02h-.73-.72l-.74-.09-.74-.1-.61-.11-.6-.12-.71-.21-.71-.22-.67-.22-.68-.23-.75-.21-.76-.21-.73-.12-.73-.12-.61-.12-.61-.12-.57-.11-.57-.12-1.08-.33-1.09-.34-1.11-.34-1.12-.33-.75-.11-.76-.1-.74-.02-.74-.02h-.68l-.69-.01-1.17.2-1.16.2-.62.19-.61.19-.69.37-.69.38-.96.53-.97.53-.78.53-.78.53-.81.49-.82.48-.72.37-.72.37-.77.19-.78.2-.9.12-.9.13-.99.11-1 .12-.91.11-.91.11-.8.11-.8.11-.58.11-.59.11-.82.03-.82.03h-.79-.79l-1.02-.09-1.01-.1-.79-.01-.78-.02h-.78-.79-.6-.6l-.72-.1-.72-.1-.71-.01-.72-.01-.82-.1-.83-.1-.88-.11-.88-.11-.89-.11-.9-.11-.89-.11-.9-.11-.9-.12-.9-.11-.9-.11-.89-.11-.99-.12-.99-.11-.87-.21-.88-.22-.67-.12-.67-.12-.68-.12-.67-.11-.84-.11-.85-.11-1.01-.21-1.02-.21-.97-.33-.96-.33-.79-.23-.79-.23-.71-.23-.71-.23-.54-.12-.55-.12-.77-.22-.77-.21-.57-.12-.57-.13-.81-.1-.82-.11-.84-.22-.85-.22-.75-.12-.74-.12-.55-.01-.54-.02h-.65l-.64-.01-.56.17-.55.17-.82.14-.81.13-.69.12-.68.11-.73.2-.73.2-.62.13-.61.13-.51.19-.51.19-.95.51-.93.5-.68.34-.67.35-.72.26-.72.27-1.75-.06-1.74-.05-.08.01-.08.02h-.08-.07l-.08-.02-.08-.02-.07-.04-.07-.04-.06-.05-.05-.05-.05-.07-.04-.06-.03-.08-.03-.07v-.08l-.01-.08.01-.08.01-.08.03-.07.03-.08.04-.06.05-.06.06-.06.06-.05.07-.03.07-.04-.21.28-.22.28.03-.11.02-.1.06-.09.06-.09.08-.06.09-.07.1-.03.1-.04h.1.11l.1.03.1.03.09.07.08.06.07.09.06.08.03.11.03.1-.01.1v.11l-.04.1-.04.1-.07.08-.06.08-.09.06-.09.06-.11.02-.1.02-.11-.01-.1-.01-.1-.04-.1-.04-.07-.07-.08-.08-.05-.09-.06-.09-.01-.11-.02-.1.01-.11.02-.1.05-.1.05-.09.07-.08.08-.07.09-.05.1-.04.11-.01.1-.02.1.02.11.03.09.05 6.04.75h0 0l.11.01h.09l.11-.02.1-.02.1-.04.09-.05.09-.07.08-.06.06-.09.07-.08.04-.1.04-.1.02-.1.01-.11v-.09l-.01-.11-.03-.1-.04-.1-.05-.09-.06-.09-.08-.07-.07-.08-.09-.05-.1-.05-.1-.03-.1-.03-.55-.1-.56-.09-.85.25-.85.25-.63.17-.63.17h-.66l-.66.01-.78-.09-.79-.08-.66-.1-.67-.11-.6-.15-.6-.14-.83.12-.82.12-.58-.07-.58-.07-.8-.05-.81-.05h-.58l-.59-.01h-.56-.56l-.71.13-.72.12-.56.11-.57.11-.72-.01-.73-.01h-.96-.97-.65-.65-.67-.67l-.65.1-.65.1-.98.12-.98.11-.81.23-.82.23-.65.03-.65.04-.95-.25-.95-.25-.67-.01-.67-.01h-.58-.58-.66-.65l-.84-.18-.84-.19-.89-.03-.89-.04h-.99-.99-.56-.56-.65-.66l-.64.1-.65.1-.87.12-.88.12-.69.11-.7.11-.73.01h-.74l-.79-.29-.78-.29-.9-.34-.9-.33-1.02-.24-1.02-.23-.82-.29-.83-.29-.74-.26-.74-.26-.81-.13-.8-.12-.8-.39-.8-.39-.64-.17-.63-.16-.57-.12-.57-.12-.64-.03-.63-.02-.57-.01h-.57l-.6-.18-.59-.19-.99-.04-.99-.04-.63.1-.63.1-.63.22-.64.22-.99.12-.99.13h-.55-.55l-.63.11-.63.1-.57.23-.56.23-.95.22-.94.22-.98.01-.99.01h-.67-.66l-.73.1-.74.09-.68.11-.68.11-.68.12-.67.11-.98.12-.98.13h-.55l-.54.01h-.65-.66l-.61-.09-.61-.09-.72-.02-.72-.02h-.68l-.68-.01-.96-.19-.95-.19-.88-.33-.89-.32-.57-.13-.57-.12-.73-.03-.73-.03h-.68-.68-.67-.68l-.58-.01h-.58l-.72-.07-.71-.08-.69-.39-.69-.39-.74-.17-.74-.17-.68-.12-.68-.12-.68-.11-.67-.11-.62-.2-.62-.19-.66-.22-.67-.21-.96-.18-.96-.17-.55.09-.55.1-.53.11-.54.11-.62.22-.62.22-.59.11-.59.11-.77.34-.76.33-.77.33-.76.33-.71.59-.71.59-.48.48-.49.47-.56.19-.56.19-.95-.08-.95-.08-.55-.11-.56-.1-.56-.11-.56-.12-.72-.02-.73-.03-.85-.19-.85-.2-.67-.1-.66-.1-.79-.23-.8-.24-.53-.03-.54-.03-1.09-.11-1.09-.12h-.59-.58l-.64.09-.63.1-.57.11-.58.12-.64.01-.64.01-.85.11-.86.1-.8.01-.81.01h-.99-.98l-1.09.1-1.09.1-.56.23-.57.23-.76.48-.77.48-.56.34-.56.34-.58.45-.57.45-.39.36-.39.37-.32.52-.32.52-.25.59-.25.58-.45 1.02-.45 1.01-.23.56-.22.56-.15.63-.15.62-.04.65-.03.64-.2.94-.2.95-.03.63-.02.63-.2 1.05-.2 1.06-.02.63-.03.63v1.02l-.01 1.03-.2 1.14-.19 1.14-.03.73-.02.73-.2.96-.2.97-.02.53-.03.53-.11 1.11-.11 1.11-.1.6-.09.61-.1.56-.11.56-.11.56-.11.56-.14.97-.14.97-.11 1.12-.12 1.12-.11 1.13-.11 1.12-.09.6-.09.61-.11.66-.11.66-.03.73-.02.74v.68l-.01.68v.68.67.95.94l.1.62.1.61.11.65.11.65.11.67.11.67.22.73.22.73.23.61.23.61.23.57.22.57.23.56.22.56.33.69.33.68.23.56.23.55.35.61.34.61.34.58.35.57.51.48.51.47.67.77.66.76.75.54.75.53.74.28.75.28.35.46.36.46.69.24.69.24.89-.06.89-.06 1-.42 1-.42.79-.34.8-.34.61-.13.62-.13.66-.02.65-.02h.57.56.87.87.54.54.56.56l.55-.1.56-.1 1.01-.11 1.01-.12.82-.01.81-.01h.79.78l.98.11.98.11.7.09.7.09.77.11.78.11.83.02.84.03.54.09.54.09.66.11.66.11.63.02.64.03.6.09.61.09.87.11.86.11.94.02.94.03h.81.81.78.79l1.13.38 1.13.39.67.22.67.22.89.24.88.23.94.14.94.14.81.12.8.11.69.11.69.12.67.11.68.11.92.02.92.03 1.04-.09 1.03-.09 1.11-.11 1.1-.11.98-.21.98-.22.79-.12.78-.12.92-.22.91-.21 1.11-.32 1.1-.32 1.15-.44 1.15-.44.94-.35.93-.35.78-.24.78-.23.6-.03.6-.02.84-.01.84-.01.93-.09.94-.1.9-.11.91-.11.81-.11.81-.11.65-.02.65-.01.66-.01h.67l.81.09.81.09 1.12.02 1.12.02h1.03 1.02.83.83.79.79.88.88l.95.09.95.1 1.13.01 1.14.02h1.03l1.03.01h.83.82.8.79l.83.09.84.09.84.19.85.2.78.21.78.22.68.22.68.22.56.21.56.22.74.31.74.31.82.26.82.25 1 .24 1 .23.95.14.95.14.81.12.8.11.84.03.85.02.84-.09.85-.09.97-.11.97-.11.97-.02.96-.01 1-.2.99-.2.79-.12.79-.12.8-.34.8-.33.73-.22.72-.22.73-.12.73-.12.77-.11.78-.12.83-.21.84-.22.57-.12.58-.13.57-.11.56-.11.85-.13.86-.12.68-.1.68-.1.76-.11.76-.11.75-.22.75-.22.72-.11.71-.12.61-.12.61-.11.95-.13.95-.12.64-.01h.64.67.67l.9-.1.91-.09.76-.01.76-.02h.69.67l.57-.01h.58l.86.38.87.37.73.16.72.15.74.2.73.2.72.14.72.13.59.27.58.28.76.17.76.17.58.12.59.12.56.11.57.12.82.02.82.03.84.09.84.1.88.11.89.11 1 .11.99.11.86.02.86.02.8.01h.81l.97-.19.96-.2.92-.02.91-.02.9-.01h.9l.81-.01h.8.61.6.57.57.65.66.76.76.79.78.78.79.6.6.66.66l.65-.1.65-.09.71-.22.72-.22.71-.11.7-.11.83-.22.82-.22.66-.12.66-.12.72-.22.73-.22.61-.23.61-.23.5-.24.5-.24.83-.11.82-.11.54-.11.53-.1.56-.01.57-.01.8-.1.8-.1.62-.11.62-.11.85-.02.85-.01.88.39.87.4.74.3.73.31.51.3.5.29.56.33.55.34.73.27.72.28.79.24.8.23.73.15.73.14.74.03.75.03h.78l.78.01h.78.79.78.79.69.69.68.68l.65-.1.65-.1.85-.23.85-.23.78-.11.77-.11.9-.01.89-.01.55-.1.55-.1.92-.01.93-.01h.9.9.99 1l.54-.11.55-.1.57-.01h.56l.56-.01h.57.66.65.67.67.67.68.58.58.66.65.77.76.78.78.98.97l1.04-.09 1.05-.1.92-.11.93-.11.95-.01.95-.02 1.04-.1 1.04-.1.89-.01.88-.02h.9.89l.85-.1.86-.09.65-.02.66-.01h.76l.76-.01 1.12.1 1.12.09.73.1.73.11.88.11.88.11.69.11.7.11.73.03.74.02.78.01h.78.78.78.79.79.69.69l.65-.1.66-.1.89-.23.89-.24.83-.34.83-.34.99-.33 1-.33.98-.44.98-.44 1.04-.22 1.04-.23.77-.24.77-.23.88-.47.88-.47.89-.56.9-.55.78-.35.78-.34.7-.65.71-.65.38-.38.39-.39.38-.48.38-.48.28-.51.29-.51.32-1.07.32-1.07.11-1.22.12-1.22.01-.68v-.68-.58-.58-.57-.56-1.02-1.01-.9-.9-.92-.91-.9-.9l-.1-.54-.1-.53-.01-1.02-.01-1.02-.11-.54-.1-.55-.11-.99-.11-.99-.11-.56-.11-.57-.11-.64-.11-.65-.11-.66-.11-.67-.02-.61-.01-.62v-.57l-.01-.57-.09-.72-.1-.71-.02-1.18-.01-1.17v-.86-.85l.09-.65.09-.65.02-.72.02-.73v-.59-.59-.56-.57l.09-.59.09-.6.02-.81.02-.82.09-.64.09-.64-.07-.79-.08-.78-.11-.62-.12-.62-.35-.62-.35-.61-.21-.5-.21-.49-.49-.57-.48-.58-.46-.47-.46-.47-.57-.48-.58-.48-.72-.4-.72-.4-.56-.33-.56-.33-.44-.32-.44-.31-.41-.39-.4-.39-.45-.44-.44-.45-.62-.41-.62-.41-.89-.22-.88-.21-1-.12-1-.13-.96-.02-.95-.02-.82-.01h-.81l-.76.09-.75.1-.69.11-.69.11-.89.21-.9.21-.98.22-.98.22-1 .23-1.01.22-.92.23-.93.23-.69.12-.69.13-.67.11-.67.12-.8.01-.8.01-.88.01h-.89-.99-.98-.92-.91-.81-.81-.97-.98l-1.22.1-1.23.09-1.41.11-1.41.11-.78.02-.78.01-.91.1-.92.1-.99.11-.99.11-1.1.11-1.09.11-.9.02-.9.02h-.71-.71l-.62-.09-.62-.09-.56-.1-.56-.11-.6-.19-.61-.19-.67-.22-.66-.22-.78-.23-.78-.23-.84-.14-.83-.14-.59-.11-.58-.12-.57-.11-.57-.11-.94-.3-.95-.3-.61-.14-.62-.15-.5-.19-.51-.19-.93-.15-.92-.15-.85-.03-.85-.03h-.71l-.7-.01-.66.1-.65.1-.66.11-.66.11-.73.22-.73.22-.84.44-.85.43-.97.54-.98.54-.85.58-.85.58-.77.45-.77.44-.66.35-.67.34-.58.12-.57.12-.83.11-.82.11-.98.12-.97.11-.92.11-.91.11-.82.12-.81.11-.62.12-.62.11-.69.01-.69.01-.77.01h-.77l-.93-.09-.93-.09-.85-.02-.85-.02h-.79-.8-.6-.6l-.61-.09-.6-.09-.81-.02-.82-.02-.74-.09-.73-.1-.88-.1-.88-.11-.89-.12-.9-.11-.9-.11-.89-.11-.9-.11-.9-.12-.9-.11-.9-.11-.99-.11-1-.12-.76-.19-.76-.2-.73-.12-.73-.14-.68-.11-.68-.12-.88-.11-.88-.12-.95-.2-.95-.2-.86-.3-.86-.3-.83-.24-.82-.25-.69-.22-.68-.23-.63-.14-.62-.14-.73-.2-.73-.21-.62-.13-.62-.14-.88-.12-.88-.12-.74-.19-.75-.2-.83-.14-.82-.13-.66-.03-.65-.03h-.68-.68l-.79.2-.78.2-.72.11-.72.12-.69.11-.69.12-.81.21-.82.21-.57.13-.58.12-.62.23-.63.22-.5.24-.51.24-.57.33-.58.33-.63.33-.63.32-.62.22-.62.22-1.67.16-1.67.14-.07.04-.07.03-.06.05-.06.06-.05.06-.04.07-.03.07-.03.07-.01.08-.01.08.01.08v.08l.03.07.03.08.04.06.05.07.05.05.06.05.07.04.07.04.08.02.08.02h.07.08l.08-.02.08-.01.21-.39.2-.38-.04-.1-.04-.1-.07-.08-.07-.08z"/></svg>