<svg xmlns="http://www.w3.org/2000/svg" viewBox="8.31 8.30 132.42 33.50"><path fill="#000" d="M 74.77 9.88 L 74.77 9.88 L 74.84 9.91 L 74.90 9.94 L 74.95 9.98 L 75.00 10.02 L 75.05 10.08 L 75.09 10.13 L 75.13 10.19 L 75.16 10.25 L 75.18 10.31 L 75.20 10.38 L 75.21 10.45 L 75.21 10.52 L 75.21 10.57 L 75.20 10.64 L 75.18 10.71 L 75.16 10.77 L 75.13 10.84 L 75.10 10.90 L 75.06 10.95 L 75.02 11.00 L 74.96 11.05 L 74.91 11.09 L 74.85 11.13 L 74.79 11.16 L 74.73 11.18 L 74.66 11.20 L 74.59 11.21 L 74.52 11.21 L 74.47 11.21 L 74.40 11.20 L 74.33 11.18 L 74.27 11.16 L 73.97 11.04 L 73.67 10.92 L 73.51 10.81 L 73.36 10.71 L 73.35 10.68 L 73.33 10.65 L 73.39 10.67 L 73.44 10.70 L 73.31 10.70 L 73.17 10.69 L 72.88 10.69 L 72.59 10.69 L 72.27 10.69 L 71.95 10.69 L 71.62 10.69 L 71.30 10.69 L 70.97 10.69 L 70.65 10.69 L 70.37 10.69 L 70.10 10.69 L 69.76 10.69 L 69.41 10.69 L 69.05 10.74 L 68.69 10.79 L 68.23 10.86 L 67.77 10.92 L 67.24 10.93 L 66.71 10.95 L 66.24 10.95 L 65.77 10.95 L 65.36 10.95 L 64.95 10.95 L 64.51 10.95 L 64.06 10.95 L 63.68 10.95 L 63.30 10.95 L 62.91 11.00 L 62.52 11.06 L 62.06 11.07 L 61.59 11.08 L 61.19 11.08 L 60.78 11.08 L 60.41 11.08 L 60.04 11.08 L 59.69 11.03 L 59.33 10.97 L 58.97 10.91 L 58.61 10.85 L 58.30 10.84 L 57.99 10.83 L 57.62 10.83 L 57.25 10.83 L 56.91 10.82 L 56.58 10.82 L 56.30 10.82 L 56.02 10.82 L 55.68 10.82 L 55.34 10.82 L 54.96 10.77 L 54.58 10.72 L 54.17 10.71 L 53.75 10.70 L 53.27 10.70 L 52.79 10.69 L 52.43 10.74 L 52.08 10.78 L 51.76 10.89 L 51.44 11.00 L 51.12 11.08 L 50.79 11.17 L 50.51 11.19 L 50.23 11.20 L 49.92 11.26 L 49.60 11.31 L 49.27 11.33 L 48.94 11.34 L 48.53 11.39 L 48.12 11.44 L 47.73 11.50 L 47.34 11.56 L 47.02 11.63 L 46.69 11.69 L 46.39 11.76 L 46.10 11.83 L 45.90 11.84 L 45.70 11.86 L 45.48 11.86 L 45.25 11.86 L 44.98 11.91 L 44.71 11.96 L 44.44 12.02 L 44.16 12.08 L 43.73 12.15 L 43.30 12.22 L 42.91 12.28 L 42.52 12.34 L 42.16 12.41 L 41.81 12.48 L 41.55 12.50 L 41.30 12.51 L 41.08 12.51 L 40.87 12.52 L 40.67 12.52 L 40.48 12.52 L 40.28 12.52 L 40.08 12.52 L 39.84 12.52 L 39.59 12.52 L 39.33 12.52 L 39.07 12.52 L 38.73 12.52 L 38.38 12.52 L 38.07 12.46 L 37.76 12.40 L 37.49 12.34 L 37.23 12.27 L 36.90 12.20 L 36.56 12.13 L 36.26 12.02 L 35.96 11.91 L 35.71 11.89 L 35.47 11.87 L 35.16 11.82 L 34.85 11.76 L 34.61 11.75 L 34.37 11.74 L 34.12 11.74 L 33.87 11.73 L 33.60 11.66 L 33.34 11.59 L 33.18 11.53 L 33.02 11.46 L 32.90 11.41 L 32.77 11.36 L 32.60 11.35 L 32.42 11.34 L 32.18 11.29 L 31.93 11.24 L 31.76 11.23 L 31.59 11.22 L 31.41 11.22 L 31.22 11.22 L 30.98 11.21 L 30.74 11.21 L 30.53 11.16 L 30.33 11.10 L 30.18 11.10 L 30.02 11.09 L 29.84 11.09 L 29.65 11.09 L 29.46 11.09 L 29.26 11.08 L 29.17 11.08 L 29.07 11.08 L 28.90 11.13 L 28.73 11.18 L 28.59 11.19 L 28.45 11.20 L 28.27 11.25 L 28.08 11.31 L 27.94 11.32 L 27.80 11.33 L 27.61 11.38 L 27.42 11.44 L 27.22 11.45 L 27.01 11.46 L 26.79 11.51 L 26.57 11.56 L 26.25 11.63 L 25.94 11.69 L 25.62 11.76 L 25.30 11.82 L 24.94 11.89 L 24.59 11.96 L 24.33 11.97 L 24.07 11.98 L 23.90 12.03 L 23.73 12.07 L 23.50 12.14 L 23.27 12.21 L 23.02 12.23 L 22.78 12.25 L 22.57 12.25 L 22.36 12.26 L 22.16 12.26 L 21.97 12.26 L 21.77 12.26 L 21.58 12.26 L 21.28 12.25 L 20.99 12.25 L 20.78 12.20 L 20.56 12.15 L 20.37 12.14 L 20.18 12.13 L 19.93 12.07 L 19.69 12.02 L 19.46 12.01 L 19.24 12.00 L 18.99 12.00 L 18.74 12.00 L 18.48 12.00 L 18.22 12.00 L 18.06 12.00 L 17.91 12.00 L 17.77 12.00 L 17.63 12.00 L 17.44 11.98 L 17.25 11.96 L 17.16 11.90 L 17.06 11.84 L 17.11 11.85 L 17.15 11.87 L 17.06 11.87 L 16.97 11.87 L 16.84 11.87 L 16.72 11.87 L 16.59 11.87 L 16.46 11.87 L 16.38 11.87 L 16.30 11.87 L 16.13 11.87 L 15.96 11.87 L 15.81 11.86 L 15.67 11.86 L 15.48 11.91 L 15.30 11.96 L 15.06 11.98 L 14.82 11.99 L 14.70 11.98 L 14.58 11.97 L 14.44 12.06 L 14.30 12.14 L 14.12 12.21 L 13.93 12.28 L 13.79 12.36 L 13.65 12.45 L 13.52 12.57 L 13.38 12.70 L 13.29 12.83 L 13.21 12.96 L 13.09 13.10 L 12.96 13.24 L 12.81 13.44 L 12.66 13.64 L 12.50 13.76 L 12.34 13.88 L 12.30 13.98 L 12.26 14.08 L 12.20 14.24 L 12.15 14.39 L 12.07 14.72 L 12.00 15.04 L 11.88 15.27 L 11.76 15.50 L 11.68 15.74 L 11.61 15.98 L 11.48 16.27 L 11.35 16.55 L 11.24 16.76 L 11.13 16.97 L 11.12 17.15 L 11.10 17.33 L 11.03 17.55 L 10.97 17.77 L 10.92 17.98 L 10.86 18.19 L 10.85 18.44 L 10.84 18.69 L 10.78 18.95 L 10.73 19.20 L 10.72 19.43 L 10.71 19.66 L 10.71 19.96 L 10.71 20.27 L 10.71 20.50 L 10.70 20.74 L 10.75 20.96 L 10.80 21.18 L 10.86 21.47 L 10.93 21.76 L 10.94 22.03 L 10.96 22.30 L 11.01 22.61 L 11.07 22.93 L 11.08 23.20 L 11.09 23.47 L 11.14 23.76 L 11.19 24.05 L 11.25 24.37 L 11.31 24.69 L 11.37 24.97 L 11.43 25.26 L 11.54 25.53 L 11.66 25.80 L 11.74 26.14 L 11.82 26.48 L 11.89 26.74 L 11.95 27.00 L 12.02 27.22 L 12.09 27.44 L 12.15 27.75 L 12.22 28.06 L 12.29 28.33 L 12.35 28.60 L 12.41 28.89 L 12.47 29.18 L 12.58 29.44 L 12.69 29.69 L 12.78 29.98 L 12.86 30.27 L 12.94 30.57 L 13.01 30.87 L 13.03 31.18 L 13.05 31.48 L 13.05 31.80 L 13.05 32.12 L 13.05 32.34 L 13.05 32.56 L 13.05 32.81 L 13.05 33.07 L 13.05 33.27 L 13.05 33.48 L 13.05 33.80 L 13.04 34.11 L 12.93 34.41 L 12.82 34.70 L 12.75 35.01 L 12.69 35.31 L 12.68 35.64 L 12.67 35.97 L 12.61 36.26 L 12.56 36.56 L 12.58 36.72 L 12.61 36.88 L 12.69 37.02 L 12.77 37.17 L 12.90 37.37 L 13.03 37.57 L 13.15 37.81 L 13.28 38.05 L 13.39 38.23 L 13.51 38.40 L 13.71 38.50 L 13.91 38.60 L 14.26 38.71 L 14.61 38.82 L 15.13 38.85 L 15.65 38.87 L 16.19 38.93 L 16.74 38.99 L 17.22 39.05 L 17.69 39.12 L 18.08 39.18 L 18.47 39.24 L 18.89 39.25 L 19.31 39.27 L 19.81 39.27 L 20.31 39.27 L 20.83 39.27 L 21.35 39.27 L 21.92 39.27 L 22.49 39.27 L 23.01 39.27 L 23.52 39.27 L 24.04 39.22 L 24.56 39.17 L 25.15 39.16 L 25.74 39.15 L 26.38 39.14 L 27.02 39.14 L 27.57 39.14 L 28.11 39.14 L 28.62 39.14 L 29.14 39.14 L 29.74 39.09 L 30.34 39.04 L 31.07 38.93 L 31.81 38.82 L 32.64 38.69 L 33.46 38.56 L 34.15 38.43 L 34.84 38.30 L 35.47 38.22 L 36.11 38.14 L 36.71 38.12 L 37.30 38.11 L 37.93 38.05 L 38.56 38.00 L 39.13 37.94 L 39.70 37.88 L 40.16 37.77 L 40.62 37.66 L 41.17 37.52 L 41.71 37.39 L 42.25 37.36 L 42.80 37.33 L 43.32 37.27 L 43.85 37.22 L 44.31 37.21 L 44.77 37.19 L 45.10 37.14 L 45.42 37.09 L 45.74 37.03 L 46.06 36.97 L 46.36 36.90 L 46.66 36.83 L 47.02 36.82 L 47.37 36.80 L 47.75 36.80 L 48.14 36.80 L 48.58 36.80 L 49.02 36.80 L 49.42 36.80 L 49.82 36.80 L 50.21 36.80 L 50.61 36.80 L 50.98 36.80 L 51.35 36.80 L 51.67 36.86 L 51.98 36.91 L 52.25 36.98 L 52.52 37.04 L 52.83 37.11 L 53.15 37.17 L 53.43 37.24 L 53.72 37.31 L 54.08 37.42 L 54.44 37.54 L 54.85 37.61 L 55.26 37.68 L 55.66 37.75 L 56.06 37.81 L 56.53 37.88 L 57.00 37.95 L 57.36 38.08 L 57.73 38.20 L 58.04 38.27 L 58.36 38.34 L 58.62 38.40 L 58.88 38.47 L 59.27 38.53 L 59.65 38.59 L 59.97 38.60 L 60.29 38.61 L 60.69 38.62 L 61.09 38.62 L 61.48 38.67 L 61.88 38.73 L 62.22 38.74 L 62.56 38.75 L 62.89 38.80 L 63.22 38.86 L 63.50 38.87 L 63.77 38.88 L 64.09 38.93 L 64.40 38.99 L 64.72 39.00 L 65.05 39.01 L 65.43 38.96 L 65.80 38.91 L 66.11 38.90 L 66.42 38.89 L 66.69 38.88 L 66.96 38.88 L 67.30 38.88 L 67.64 38.88 L 68.02 38.93 L 68.40 38.99 L 68.76 39.00 L 69.13 39.01 L 69.49 39.01 L 69.85 39.01 L 70.24 38.96 L 70.63 38.91 L 71.07 38.90 L 71.51 38.89 L 71.91 38.83 L 72.31 38.78 L 72.76 38.77 L 73.21 38.76 L 73.64 38.71 L 74.07 38.65 L 74.49 38.59 L 74.90 38.52 L 75.26 38.51 L 75.63 38.50 L 75.97 38.49 L 76.30 38.49 L 76.63 38.49 L 76.96 38.49 L 77.32 38.49 L 77.67 38.49 L 78.09 38.44 L 78.51 38.39 L 78.95 38.33 L 79.39 38.27 L 79.73 38.21 L 80.07 38.14 L 80.43 38.07 L 80.78 38.01 L 81.09 37.99 L 81.40 37.97 L 81.67 37.97 L 81.94 37.97 L 82.23 37.97 L 82.53 37.97 L 82.95 37.92 L 83.37 37.87 L 83.82 37.86 L 84.27 37.85 L 84.67 37.79 L 85.07 37.74 L 85.38 37.73 L 85.69 37.71 L 85.97 37.71 L 86.24 37.71 L 86.50 37.71 L 86.77 37.71 L 87.08 37.71 L 87.39 37.71 L 87.72 37.71 L 88.04 37.71 L 88.44 37.71 L 88.84 37.71 L 89.23 37.76 L 89.63 37.81 L 89.97 37.82 L 90.32 37.84 L 90.68 37.90 L 91.04 37.95 L 91.33 38.02 L 91.61 38.09 L 91.90 38.16 L 92.19 38.23 L 92.47 38.34 L 92.75 38.45 L 93.14 38.46 L 93.52 38.48 L 93.97 38.54 L 94.41 38.59 L 94.90 38.60 L 95.39 38.61 L 95.90 38.62 L 96.42 38.62 L 96.88 38.62 L 97.35 38.62 L 97.71 38.62 L 98.06 38.62 L 98.44 38.62 L 98.83 38.62 L 99.23 38.62 L 99.64 38.62 L 100.19 38.67 L 100.74 38.73 L 101.41 38.74 L 102.07 38.74 L 102.68 38.75 L 103.28 38.75 L 103.87 38.75 L 104.46 38.75 L 105.05 38.75 L 105.63 38.75 L 106.03 38.75 L 106.43 38.75 L 106.94 38.81 L 107.45 38.86 L 107.96 38.92 L 108.46 38.98 L 108.91 38.99 L 109.35 39.00 L 109.91 39.01 L 110.47 39.01 L 111.05 39.01 L 111.63 39.01 L 112.15 39.01 L 112.66 39.01 L 113.10 38.96 L 113.54 38.91 L 113.89 38.85 L 114.24 38.79 L 114.64 38.73 L 115.05 38.67 L 115.48 38.51 L 115.90 38.35 L 116.39 38.20 L 116.87 38.06 L 117.32 37.97 L 117.76 37.88 L 118.14 37.86 L 118.51 37.85 L 118.79 37.84 L 119.08 37.84 L 119.38 37.84 L 119.68 37.84 L 119.98 37.90 L 120.28 37.96 L 120.52 38.02 L 120.75 38.07 L 121.05 38.08 L 121.35 38.10 L 121.68 38.15 L 122.00 38.21 L 122.28 38.22 L 122.56 38.23 L 122.82 38.28 L 123.09 38.34 L 123.30 38.35 L 123.51 38.36 L 123.76 38.41 L 124.01 38.47 L 124.18 38.48 L 124.35 38.48 L 124.59 38.49 L 124.83 38.49 L 125.15 38.49 L 125.46 38.50 L 125.63 38.55 L 125.79 38.61 L 125.97 38.62 L 126.15 38.62 L 126.39 38.69 L 126.62 38.75 L 126.78 38.81 L 126.94 38.86 L 127.13 38.87 L 127.32 38.88 L 127.55 38.95 L 127.78 39.01 L 128.02 39.07 L 128.26 39.13 L 128.49 39.19 L 128.71 39.25 L 128.96 39.26 L 129.21 39.27 L 129.52 39.32 L 129.83 39.38 L 130.07 39.39 L 130.31 39.40 L 130.57 39.40 L 130.82 39.40 L 131.04 39.40 L 131.26 39.41 L 131.42 39.36 L 131.59 39.32 L 131.87 39.25 L 132.15 39.18 L 132.32 39.18 L 132.48 39.17 L 132.61 39.09 L 132.74 39.01 L 133.00 38.89 L 133.25 38.76 L 133.52 38.62 L 133.79 38.49 L 134.10 38.36 L 134.42 38.22 L 134.70 38.09 L 134.97 37.96 L 135.15 37.90 L 135.32 37.84 L 135.38 37.79 L 135.44 37.74 L 135.47 37.69 L 135.50 37.64 L 135.57 37.46 L 135.63 37.28 L 135.76 37.07 L 135.89 36.86 L 136.02 36.61 L 136.15 36.36 L 136.25 36.21 L 136.35 36.06 L 136.36 35.95 L 136.37 35.85 L 136.37 35.62 L 136.37 35.39 L 136.38 35.14 L 136.38 34.89 L 136.38 34.45 L 136.39 34.02 L 136.56 33.58 L 136.74 33.14 L 136.82 32.91 L 136.90 32.69 L 136.95 32.53 L 137.01 32.37 L 137.02 32.28 L 137.02 32.19 L 137.03 32.02 L 137.03 31.85 L 137.03 31.57 L 137.03 31.29 L 137.09 30.98 L 137.15 30.68 L 137.21 30.49 L 137.27 30.31 L 137.28 30.15 L 137.29 30.00 L 137.25 29.87 L 137.22 29.75 L 137.11 29.50 L 137.00 29.26 L 136.92 28.98 L 136.84 28.71 L 136.79 28.54 L 136.73 28.37 L 136.62 28.18 L 136.51 27.99 L 136.44 27.82 L 136.38 27.65 L 136.28 27.53 L 136.17 27.41 L 136.08 27.24 L 135.98 27.08 L 135.89 26.89 L 135.80 26.70 L 135.77 26.55 L 135.74 26.40 L 135.73 26.30 L 135.73 26.20 L 135.73 26.03 L 135.73 25.85 L 135.73 25.71 L 135.73 25.58 L 135.80 25.33 L 135.87 25.09 L 135.94 24.94 L 136.01 24.79 L 136.11 24.54 L 136.21 24.28 L 136.41 24.10 L 136.62 23.92 L 136.74 23.75 L 136.86 23.58 L 137.01 23.42 L 137.16 23.27 L 137.26 23.16 L 137.37 23.06 L 137.42 22.97 L 137.47 22.88 L 137.54 22.75 L 137.61 22.61 L 137.70 22.48 L 137.79 22.36 L 137.80 22.21 L 137.81 22.07 L 137.87 21.89 L 137.92 21.70 L 137.93 21.51 L 137.95 21.32 L 138.01 21.08 L 138.07 20.84 L 138.15 20.62 L 138.22 20.40 L 138.27 20.29 L 138.32 20.19 L 138.32 20.08 L 138.33 19.96 L 138.33 19.84 L 138.34 19.72 L 138.29 19.59 L 138.24 19.47 L 138.23 19.32 L 138.22 19.18 L 138.18 19.06 L 138.14 18.93 L 138.10 18.83 L 138.06 18.74 L 137.97 18.60 L 137.88 18.46 L 137.76 18.33 L 137.64 18.19 L 137.51 18.01 L 137.38 17.82 L 137.29 17.73 L 137.20 17.63 L 137.05 17.52 L 136.90 17.41 L 136.71 17.28 L 136.52 17.16 L 136.34 17.04 L 136.17 16.92 L 135.95 16.80 L 135.74 16.69 L 135.48 16.58 L 135.21 16.47 L 135.03 16.27 L 134.85 16.06 L 134.71 15.97 L 134.58 15.87 L 134.35 15.74 L 134.12 15.62 L 133.82 15.45 L 133.53 15.27 L 133.22 15.14 L 132.91 15.00 L 132.61 14.86 L 132.31 14.71 L 132.08 14.57 L 131.85 14.43 L 131.64 14.29 L 131.43 14.15 L 131.19 13.97 L 130.94 13.79 L 130.67 13.62 L 130.40 13.45 L 130.07 13.33 L 129.73 13.20 L 129.35 13.07 L 128.97 12.94 L 128.57 12.81 L 128.17 12.67 L 127.82 12.54 L 127.48 12.41 L 127.16 12.28 L 126.85 12.16 L 126.60 12.08 L 126.34 12.01 L 126.08 11.94 L 125.81 11.87 L 125.63 11.82 L 125.46 11.76 L 125.22 11.75 L 124.99 11.74 L 124.73 11.68 L 124.48 11.63 L 124.25 11.62 L 124.03 11.61 L 123.77 11.61 L 123.52 11.61 L 123.26 11.61 L 123.00 11.61 L 122.69 11.61 L 122.38 11.61 L 122.10 11.61 L 121.83 11.61 L 121.52 11.61 L 121.20 11.61 L 120.97 11.60 L 120.74 11.60 L 120.61 11.64 L 120.47 11.67 L 120.23 11.78 L 119.98 11.90 L 119.69 11.98 L 119.41 12.06 L 119.14 12.13 L 118.87 12.20 L 118.58 12.28 L 118.28 12.35 L 118.01 12.36 L 117.75 12.38 L 117.48 12.43 L 117.22 12.49 L 116.87 12.50 L 116.52 12.51 L 116.20 12.52 L 115.87 12.52 L 115.51 12.52 L 115.16 12.52 L 114.83 12.57 L 114.50 12.62 L 114.06 12.63 L 113.62 12.64 L 113.19 12.69 L 112.76 12.75 L 112.30 12.81 L 111.85 12.87 L 111.32 12.94 L 110.80 13.01 L 110.26 13.02 L 109.72 13.03 L 109.24 13.04 L 108.77 13.04 L 108.31 13.04 L 107.85 13.04 L 107.34 13.04 L 106.83 13.04 L 106.31 13.04 L 105.80 13.04 L 105.12 13.04 L 104.44 13.04 L 103.76 13.04 L 103.09 13.04 L 102.64 12.99 L 102.19 12.93 L 101.79 12.92 L 101.38 12.91 L 100.92 12.86 L 100.45 12.80 L 100.00 12.74 L 99.54 12.67 L 99.08 12.61 L 98.62 12.54 L 98.20 12.48 L 97.78 12.41 L 97.48 12.34 L 97.18 12.27 L 96.94 12.21 L 96.71 12.15 L 96.41 12.14 L 96.10 12.13 L 95.78 12.08 L 95.46 12.02 L 95.18 12.01 L 94.90 12.00 L 94.61 11.94 L 94.32 11.88 L 94.03 11.82 L 93.75 11.76 L 93.47 11.75 L 93.20 11.74 L 92.91 11.68 L 92.61 11.62 L 92.38 11.56 L 92.14 11.50 L 91.92 11.49 L 91.70 11.48 L 91.44 11.47 L 91.18 11.47 L 91.02 11.41 L 90.87 11.36 L 90.71 11.35 L 90.54 11.34 L 90.30 11.29 L 90.06 11.24 L 89.79 11.23 L 89.51 11.22 L 89.15 11.22 L 88.78 11.22 L 88.34 11.22 L 87.90 11.22 L 87.55 11.22 L 87.20 11.22 L 86.83 11.21 L 86.46 11.21 L 86.23 11.16 L 86.00 11.10 L 85.79 11.10 L 85.57 11.09 L 85.27 11.09 L 84.96 11.09 L 84.66 11.08 L 84.36 11.08 L 83.94 11.14 L 83.51 11.19 L 83.09 11.20 L 82.68 11.21 L 82.28 11.21 L 81.88 11.21 L 81.49 11.21 L 81.10 11.21 L 80.76 11.21 L 80.42 11.21 L 80.09 11.21 L 79.76 11.21 L 79.44 11.21 L 79.11 11.21 L 78.68 11.21 L 78.25 11.21 L 77.90 11.21 L 77.56 11.21 L 77.28 11.21 L 77.00 11.21 L 76.74 11.21 L 76.47 11.21 L 76.16 11.21 L 75.84 11.21 L 75.52 11.21 L 75.20 11.21 L 74.85 11.21 L 74.51 11.21 L 74.23 11.26 L 73.95 11.30 L 73.73 11.37 L 73.50 11.44 L 73.38 11.57 L 73.26 11.70 L 73.21 11.81 L 73.16 11.92 L 73.12 11.97 L 73.07 12.02 L 73.02 12.06 L 72.96 12.10 L 72.90 12.13 L 72.84 12.16 L 72.77 12.18 L 72.71 12.20 L 72.64 12.20 L 72.57 12.21 L 72.50 12.20 L 72.43 12.19 L 72.37 12.17 L 72.30 12.15 L 72.24 12.11 L 72.19 12.08 L 72.13 12.03 L 72.08 11.99 L 72.04 11.93 L 72.00 11.88 L 71.97 11.82 L 71.94 11.76 L 71.92 11.69 L 71.90 11.62 L 71.90 11.56 L 71.89 11.49 L 71.90 11.42 L 71.91 11.35 L 71.93 11.29 L 71.95 11.22 L 71.99 11.16 L 74.77 9.88 L 74.77 9.88 L 74.77 9.88 L 74.55 9.79 L 74.34 9.70 L 74.28 9.66 L 74.23 9.62 L 74.10 9.52 L 73.97 9.41 L 73.78 9.36 L 73.59 9.31 L 73.39 9.31 L 73.18 9.31 L 72.88 9.30 L 72.59 9.30 L 72.27 9.30 L 71.95 9.30 L 71.62 9.30 L 71.30 9.30 L 70.97 9.30 L 70.65 9.30 L 70.37 9.30 L 70.10 9.30 L 69.71 9.30 L 69.32 9.31 L 68.91 9.36 L 68.50 9.41 L 68.07 9.47 L 67.65 9.54 L 67.17 9.55 L 66.69 9.56 L 66.22 9.56 L 65.76 9.56 L 65.36 9.56 L 64.95 9.56 L 64.51 9.56 L 64.06 9.56 L 63.64 9.57 L 63.21 9.57 L 62.81 9.62 L 62.42 9.67 L 61.99 9.68 L 61.57 9.69 L 61.17 9.69 L 60.78 9.69 L 60.46 9.70 L 60.15 9.70 L 59.85 9.65 L 59.55 9.60 L 59.15 9.53 L 58.75 9.47 L 58.39 9.45 L 58.03 9.44 L 57.64 9.44 L 57.25 9.44 L 56.91 9.43 L 56.58 9.43 L 56.30 9.43 L 56.02 9.43 L 55.73 9.43 L 55.44 9.44 L 55.07 9.38 L 54.70 9.33 L 54.23 9.32 L 53.77 9.31 L 53.24 9.31 L 52.71 9.31 L 52.24 9.37 L 51.77 9.43 L 51.40 9.55 L 51.03 9.67 L 50.80 9.73 L 50.57 9.80 L 50.32 9.81 L 50.07 9.82 L 49.76 9.88 L 49.45 9.93 L 49.14 9.94 L 48.82 9.95 L 48.37 10.01 L 47.92 10.07 L 47.51 10.13 L 47.10 10.19 L 46.75 10.26 L 46.40 10.33 L 46.14 10.39 L 45.88 10.45 L 45.76 10.46 L 45.64 10.47 L 45.38 10.47 L 45.13 10.48 L 44.78 10.53 L 44.43 10.58 L 44.17 10.65 L 43.90 10.71 L 43.49 10.77 L 43.08 10.83 L 42.68 10.90 L 42.28 10.97 L 41.95 11.03 L 41.63 11.09 L 41.44 11.10 L 41.25 11.11 L 41.05 11.11 L 40.86 11.12 L 40.67 11.12 L 40.47 11.12 L 40.28 11.12 L 40.08 11.12 L 39.84 11.12 L 39.59 11.12 L 39.33 11.12 L 39.07 11.12 L 38.79 11.12 L 38.51 11.12 L 38.28 11.08 L 38.05 11.03 L 37.79 10.97 L 37.53 10.91 L 37.24 10.85 L 36.94 10.79 L 36.60 10.66 L 36.26 10.54 L 35.95 10.52 L 35.65 10.49 L 35.33 10.44 L 35.01 10.38 L 34.71 10.37 L 34.40 10.35 L 34.23 10.35 L 34.06 10.35 L 33.93 10.32 L 33.80 10.28 L 33.67 10.22 L 33.53 10.17 L 33.29 10.08 L 33.05 10.00 L 32.84 9.99 L 32.62 9.97 L 32.37 9.91 L 32.12 9.86 L 31.88 9.84 L 31.64 9.83 L 31.43 9.83 L 31.23 9.83 L 31.07 9.83 L 30.92 9.83 L 30.73 9.78 L 30.55 9.73 L 30.31 9.71 L 30.07 9.70 L 29.86 9.70 L 29.66 9.70 L 29.46 9.70 L 29.27 9.69 L 29.07 9.70 L 28.88 9.70 L 28.68 9.76 L 28.49 9.81 L 28.34 9.82 L 28.20 9.83 L 28.02 9.89 L 27.83 9.94 L 27.69 9.95 L 27.55 9.96 L 27.37 10.02 L 27.19 10.07 L 27.00 10.08 L 26.82 10.09 L 26.55 10.15 L 26.28 10.20 L 25.97 10.27 L 25.66 10.33 L 25.34 10.39 L 25.02 10.46 L 24.72 10.52 L 24.42 10.57 L 24.14 10.58 L 23.86 10.60 L 23.60 10.66 L 23.34 10.73 L 23.18 10.78 L 23.01 10.84 L 22.87 10.85 L 22.72 10.85 L 22.54 10.85 L 22.35 10.86 L 22.16 10.86 L 21.96 10.86 L 21.77 10.86 L 21.57 10.86 L 21.37 10.86 L 21.17 10.86 L 20.97 10.81 L 20.77 10.76 L 20.57 10.75 L 20.37 10.74 L 20.12 10.68 L 19.87 10.63 L 19.57 10.62 L 19.28 10.60 L 19.01 10.60 L 18.74 10.60 L 18.48 10.60 L 18.22 10.60 L 18.06 10.60 L 17.91 10.60 L 17.77 10.60 L 17.63 10.60 L 17.67 10.62 L 17.70 10.63 L 17.66 10.59 L 17.62 10.55 L 17.44 10.52 L 17.27 10.48 L 17.13 10.48 L 16.98 10.48 L 16.85 10.48 L 16.72 10.48 L 16.59 10.48 L 16.46 10.48 L 16.38 10.48 L 16.30 10.48 L 16.13 10.48 L 15.96 10.48 L 15.72 10.48 L 15.49 10.48 L 15.28 10.53 L 15.08 10.58 L 14.93 10.59 L 14.77 10.59 L 14.50 10.61 L 14.23 10.62 L 13.98 10.74 L 13.73 10.87 L 13.52 10.94 L 13.32 11.02 L 13.07 11.18 L 12.81 11.33 L 12.56 11.56 L 12.31 11.80 L 12.21 11.95 L 12.11 12.10 L 11.99 12.23 L 11.87 12.35 L 11.76 12.52 L 11.65 12.68 L 11.45 12.84 L 11.25 13.00 L 11.11 13.27 L 10.97 13.54 L 10.89 13.77 L 10.80 14.00 L 10.75 14.28 L 10.69 14.55 L 10.58 14.76 L 10.46 14.96 L 10.38 15.22 L 10.30 15.49 L 10.19 15.72 L 10.09 15.95 L 9.94 16.26 L 9.79 16.57 L 9.76 16.81 L 9.73 17.05 L 9.67 17.22 L 9.62 17.40 L 9.55 17.69 L 9.48 17.98 L 9.46 18.24 L 9.45 18.51 L 9.39 18.77 L 9.34 19.03 L 9.33 19.33 L 9.31 19.62 L 9.31 19.94 L 9.31 20.26 L 9.31 20.57 L 9.31 20.87 L 9.37 21.18 L 9.43 21.48 L 9.49 21.72 L 9.54 21.95 L 9.55 22.20 L 9.57 22.45 L 9.62 22.76 L 9.68 23.08 L 9.69 23.35 L 9.70 23.62 L 9.75 23.96 L 9.81 24.30 L 9.88 24.63 L 9.94 24.96 L 10.01 25.32 L 10.09 25.68 L 10.21 25.96 L 10.33 26.24 L 10.39 26.53 L 10.46 26.82 L 10.53 27.10 L 10.60 27.38 L 10.67 27.59 L 10.73 27.79 L 10.79 28.08 L 10.86 28.38 L 10.92 28.64 L 10.99 28.91 L 11.06 29.25 L 11.13 29.60 L 11.25 29.88 L 11.38 30.17 L 11.44 30.40 L 11.51 30.64 L 11.57 30.86 L 11.63 31.08 L 11.64 31.30 L 11.65 31.52 L 11.65 31.82 L 11.65 32.13 L 11.65 32.35 L 11.65 32.56 L 11.65 32.82 L 11.65 33.07 L 11.65 33.27 L 11.65 33.48 L 11.66 33.66 L 11.67 33.85 L 11.57 34.07 L 11.47 34.30 L 11.39 34.72 L 11.30 35.14 L 11.29 35.48 L 11.27 35.82 L 11.22 36.18 L 11.16 36.54 L 11.22 36.93 L 11.28 37.32 L 11.42 37.59 L 11.56 37.87 L 11.69 38.07 L 11.81 38.27 L 11.95 38.52 L 12.08 38.78 L 12.33 39.12 L 12.58 39.46 L 12.98 39.67 L 13.37 39.89 L 13.87 40.04 L 14.36 40.20 L 14.95 40.23 L 15.54 40.26 L 16.05 40.32 L 16.57 40.38 L 17.03 40.44 L 17.49 40.50 L 17.92 40.57 L 18.34 40.64 L 18.81 40.65 L 19.29 40.66 L 19.80 40.67 L 20.31 40.67 L 20.83 40.67 L 21.35 40.67 L 21.92 40.67 L 22.49 40.67 L 23.04 40.67 L 23.59 40.67 L 24.12 40.62 L 24.65 40.57 L 25.20 40.56 L 25.76 40.55 L 26.39 40.54 L 27.03 40.54 L 27.57 40.54 L 28.11 40.54 L 28.65 40.54 L 29.19 40.54 L 29.85 40.49 L 30.50 40.43 L 31.26 40.32 L 32.03 40.20 L 32.86 40.07 L 33.69 39.94 L 34.38 39.81 L 35.06 39.69 L 35.64 39.61 L 36.22 39.54 L 36.80 39.52 L 37.38 39.51 L 38.04 39.45 L 38.69 39.39 L 39.31 39.33 L 39.94 39.26 L 40.44 39.14 L 40.95 39.02 L 41.43 38.89 L 41.92 38.77 L 42.41 38.75 L 42.91 38.73 L 43.43 38.67 L 43.94 38.61 L 44.42 38.60 L 44.90 38.59 L 45.28 38.53 L 45.66 38.47 L 46.01 38.41 L 46.35 38.34 L 46.60 38.28 L 46.85 38.22 L 47.13 38.21 L 47.40 38.20 L 47.77 38.20 L 48.14 38.20 L 48.58 38.20 L 49.02 38.20 L 49.42 38.20 L 49.82 38.20 L 50.21 38.20 L 50.61 38.20 L 50.91 38.19 L 51.22 38.19 L 51.46 38.24 L 51.69 38.28 L 51.95 38.35 L 52.21 38.41 L 52.53 38.47 L 52.84 38.54 L 53.09 38.60 L 53.35 38.66 L 53.72 38.78 L 54.10 38.90 L 54.57 38.98 L 55.03 39.06 L 55.43 39.13 L 55.84 39.20 L 56.26 39.26 L 56.67 39.32 L 57.01 39.43 L 57.35 39.54 L 57.69 39.62 L 58.04 39.70 L 58.32 39.77 L 58.61 39.84 L 59.06 39.91 L 59.52 39.98 L 59.89 40.00 L 60.26 40.01 L 60.63 40.01 L 60.99 40.02 L 61.38 40.07 L 61.76 40.12 L 62.09 40.13 L 62.43 40.14 L 62.75 40.20 L 63.08 40.25 L 63.35 40.26 L 63.63 40.27 L 63.94 40.33 L 64.26 40.38 L 64.69 40.39 L 65.12 40.40 L 65.52 40.35 L 65.92 40.30 L 66.18 40.29 L 66.45 40.29 L 66.71 40.28 L 66.97 40.28 L 67.25 40.28 L 67.54 40.28 L 67.91 40.33 L 68.28 40.38 L 68.70 40.39 L 69.11 40.41 L 69.52 40.41 L 69.94 40.41 L 70.34 40.36 L 70.73 40.30 L 71.18 40.29 L 71.62 40.28 L 72.02 40.23 L 72.42 40.18 L 72.87 40.16 L 73.31 40.15 L 73.79 40.10 L 74.26 40.04 L 74.64 39.98 L 75.03 39.92 L 75.35 39.91 L 75.66 39.90 L 75.99 39.89 L 76.31 39.89 L 76.63 39.89 L 76.96 39.89 L 77.36 39.89 L 77.76 39.89 L 78.22 39.83 L 78.68 39.78 L 79.15 39.72 L 79.61 39.65 L 79.97 39.58 L 80.34 39.52 L 80.64 39.46 L 80.95 39.40 L 81.19 39.38 L 81.44 39.37 L 81.69 39.37 L 81.95 39.37 L 82.28 39.37 L 82.61 39.37 L 83.04 39.31 L 83.48 39.26 L 83.93 39.25 L 84.38 39.24 L 84.79 39.19 L 85.19 39.13 L 85.46 39.12 L 85.73 39.11 L 85.99 39.11 L 86.25 39.11 L 86.51 39.11 L 86.77 39.11 L 87.08 39.11 L 87.39 39.11 L 87.72 39.11 L 88.04 39.11 L 88.39 39.11 L 88.75 39.11 L 89.13 39.16 L 89.51 39.21 L 89.85 39.22 L 90.18 39.23 L 90.47 39.28 L 90.77 39.33 L 91.03 39.39 L 91.29 39.45 L 91.53 39.51 L 91.77 39.57 L 92.12 39.69 L 92.46 39.82 L 92.93 39.85 L 93.40 39.87 L 93.85 39.93 L 94.31 39.99 L 94.84 40.00 L 95.37 40.01 L 95.89 40.02 L 96.41 40.02 L 96.88 40.02 L 97.35 40.02 L 97.70 40.02 L 98.06 40.02 L 98.44 40.02 L 98.83 40.02 L 99.20 40.02 L 99.57 40.02 L 100.12 40.07 L 100.66 40.12 L 101.36 40.13 L 102.06 40.14 L 102.67 40.15 L 103.28 40.15 L 103.87 40.15 L 104.46 40.15 L 105.05 40.15 L 105.63 40.15 L 105.99 40.15 L 106.35 40.15 L 106.82 40.20 L 107.30 40.25 L 107.82 40.31 L 108.35 40.38 L 108.84 40.39 L 109.33 40.40 L 109.90 40.41 L 110.47 40.41 L 111.05 40.41 L 111.63 40.41 L 112.18 40.41 L 112.74 40.41 L 113.24 40.35 L 113.74 40.30 L 114.10 40.24 L 114.46 40.17 L 114.93 40.10 L 115.40 40.03 L 115.88 39.85 L 116.35 39.68 L 116.78 39.55 L 117.21 39.42 L 117.57 39.34 L 117.93 39.27 L 118.24 39.26 L 118.55 39.25 L 118.82 39.24 L 119.09 39.24 L 119.32 39.24 L 119.54 39.23 L 119.76 39.28 L 119.98 39.33 L 120.27 39.39 L 120.56 39.46 L 120.88 39.47 L 121.21 39.49 L 121.53 39.54 L 121.85 39.60 L 122.12 39.61 L 122.39 39.62 L 122.65 39.67 L 122.91 39.73 L 123.12 39.74 L 123.33 39.75 L 123.58 39.80 L 123.83 39.86 L 124.07 39.87 L 124.31 39.88 L 124.57 39.89 L 124.83 39.89 L 125.03 39.88 L 125.23 39.88 L 125.38 39.93 L 125.53 39.98 L 125.72 39.99 L 125.92 40.01 L 126.07 40.05 L 126.22 40.09 L 126.45 40.16 L 126.68 40.24 L 126.88 40.25 L 127.09 40.26 L 127.25 40.31 L 127.41 40.36 L 127.67 40.42 L 127.92 40.49 L 128.21 40.56 L 128.50 40.63 L 128.78 40.65 L 129.05 40.66 L 129.36 40.72 L 129.68 40.77 L 129.98 40.78 L 130.28 40.80 L 130.55 40.80 L 130.82 40.80 L 131.12 40.80 L 131.43 40.80 L 131.68 40.74 L 131.93 40.68 L 132.15 40.62 L 132.37 40.56 L 132.62 40.54 L 132.87 40.52 L 133.13 40.39 L 133.39 40.25 L 133.64 40.13 L 133.88 40.01 L 134.13 39.88 L 134.37 39.76 L 134.68 39.63 L 134.99 39.50 L 135.26 39.37 L 135.52 39.25 L 135.77 39.15 L 136.02 39.05 L 136.25 38.86 L 136.49 38.67 L 136.62 38.47 L 136.75 38.26 L 136.82 38.08 L 136.89 37.89 L 137.00 37.72 L 137.11 37.54 L 137.23 37.30 L 137.36 37.05 L 137.52 36.79 L 137.67 36.53 L 137.72 36.24 L 137.76 35.95 L 137.77 35.68 L 137.77 35.41 L 137.78 35.15 L 137.78 34.89 L 137.77 34.59 L 137.76 34.29 L 137.90 33.96 L 138.04 33.64 L 138.13 33.39 L 138.22 33.15 L 138.30 32.90 L 138.38 32.66 L 138.40 32.46 L 138.42 32.26 L 138.42 32.06 L 138.43 31.86 L 138.43 31.65 L 138.43 31.43 L 138.47 31.22 L 138.51 31.02 L 138.58 30.78 L 138.65 30.55 L 138.66 30.21 L 138.68 29.87 L 138.61 29.58 L 138.55 29.29 L 138.43 29.03 L 138.31 28.77 L 138.24 28.53 L 138.18 28.30 L 138.09 28.05 L 138.01 27.80 L 137.89 27.59 L 137.77 27.38 L 137.68 27.16 L 137.59 26.94 L 137.45 26.78 L 137.32 26.61 L 137.27 26.51 L 137.21 26.41 L 137.17 26.33 L 137.12 26.26 L 137.13 26.26 L 137.13 26.25 L 137.13 26.21 L 137.13 26.17 L 137.13 26.01 L 137.13 25.85 L 137.12 25.81 L 137.12 25.78 L 137.15 25.68 L 137.19 25.57 L 137.25 25.44 L 137.31 25.31 L 137.33 25.20 L 137.36 25.08 L 137.50 24.98 L 137.63 24.88 L 137.78 24.68 L 137.94 24.48 L 138.05 24.36 L 138.17 24.23 L 138.32 24.07 L 138.48 23.91 L 138.59 23.74 L 138.69 23.56 L 138.76 23.44 L 138.82 23.31 L 138.97 23.07 L 139.11 22.84 L 139.15 22.59 L 139.19 22.35 L 139.24 22.15 L 139.30 21.94 L 139.31 21.74 L 139.33 21.55 L 139.37 21.39 L 139.42 21.24 L 139.47 21.07 L 139.52 20.90 L 139.60 20.72 L 139.68 20.53 L 139.70 20.28 L 139.73 20.02 L 139.72 19.76 L 139.72 19.49 L 139.67 19.33 L 139.61 19.17 L 139.60 19.05 L 139.60 18.93 L 139.53 18.69 L 139.46 18.44 L 139.37 18.26 L 139.29 18.07 L 139.14 17.84 L 139.00 17.61 L 138.86 17.47 L 138.73 17.32 L 138.60 17.13 L 138.47 16.95 L 138.30 16.76 L 138.13 16.58 L 137.92 16.42 L 137.70 16.26 L 137.50 16.13 L 137.30 16.00 L 137.09 15.85 L 136.88 15.71 L 136.60 15.57 L 136.32 15.42 L 136.17 15.37 L 136.02 15.33 L 135.91 15.19 L 135.81 15.04 L 135.57 14.87 L 135.33 14.69 L 135.07 14.54 L 134.81 14.40 L 134.48 14.21 L 134.16 14.02 L 133.83 13.88 L 133.49 13.73 L 133.24 13.61 L 132.99 13.49 L 132.80 13.37 L 132.61 13.25 L 132.42 13.13 L 132.23 13.00 L 131.98 12.82 L 131.73 12.63 L 131.38 12.42 L 131.03 12.20 L 130.62 12.04 L 130.20 11.88 L 129.81 11.75 L 129.42 11.61 L 129.03 11.48 L 128.65 11.36 L 128.32 11.23 L 127.99 11.10 L 127.64 10.97 L 127.30 10.83 L 127.01 10.75 L 126.71 10.66 L 126.45 10.59 L 126.19 10.53 L 125.95 10.46 L 125.71 10.39 L 125.44 10.37 L 125.17 10.36 L 124.91 10.30 L 124.65 10.25 L 124.36 10.24 L 124.06 10.22 L 123.79 10.22 L 123.53 10.22 L 123.26 10.22 L 123.00 10.22 L 122.69 10.22 L 122.38 10.22 L 122.10 10.22 L 121.83 10.22 L 121.52 10.22 L 121.20 10.22 L 120.89 10.22 L 120.58 10.22 L 120.29 10.29 L 120.01 10.36 L 119.75 10.48 L 119.49 10.58 L 119.26 10.65 L 119.04 10.71 L 118.78 10.78 L 118.53 10.85 L 118.30 10.90 L 118.07 10.96 L 117.82 10.98 L 117.57 10.99 L 117.31 11.04 L 117.05 11.10 L 116.77 11.10 L 116.50 11.11 L 116.18 11.12 L 115.86 11.12 L 115.46 11.12 L 115.05 11.12 L 114.71 11.17 L 114.37 11.23 L 113.95 11.24 L 113.52 11.25 L 113.05 11.30 L 112.58 11.36 L 112.12 11.42 L 111.67 11.48 L 111.18 11.55 L 110.69 11.61 L 110.19 11.62 L 109.69 11.63 L 109.23 11.64 L 108.77 11.64 L 108.31 11.64 L 107.85 11.64 L 107.34 11.64 L 106.83 11.64 L 106.31 11.64 L 105.79 11.64 L 105.12 11.64 L 104.44 11.64 L 103.80 11.64 L 103.17 11.64 L 102.73 11.59 L 102.29 11.54 L 101.89 11.53 L 101.49 11.52 L 101.06 11.46 L 100.64 11.41 L 100.18 11.35 L 99.73 11.29 L 99.28 11.22 L 98.83 11.16 L 98.44 11.10 L 98.05 11.03 L 97.77 10.97 L 97.50 10.91 L 97.20 10.84 L 96.90 10.77 L 96.58 10.75 L 96.25 10.74 L 95.93 10.68 L 95.60 10.63 L 95.34 10.62 L 95.07 10.61 L 94.83 10.56 L 94.60 10.52 L 94.26 10.45 L 93.92 10.38 L 93.65 10.37 L 93.38 10.36 L 93.15 10.31 L 92.92 10.26 L 92.63 10.19 L 92.34 10.12 L 92.04 10.11 L 91.74 10.09 L 91.58 10.10 L 91.43 10.10 L 91.29 10.05 L 91.15 10.00 L 90.94 9.98 L 90.74 9.97 L 90.49 9.91 L 90.24 9.86 L 89.89 9.84 L 89.54 9.83 L 89.16 9.83 L 88.78 9.83 L 88.34 9.83 L 87.90 9.83 L 87.55 9.83 L 87.20 9.83 L 86.91 9.83 L 86.62 9.83 L 86.41 9.78 L 86.19 9.73 L 85.90 9.71 L 85.61 9.70 L 85.29 9.70 L 84.97 9.70 L 84.62 9.70 L 84.28 9.70 L 83.85 9.75 L 83.41 9.80 L 83.03 9.81 L 82.65 9.82 L 82.27 9.82 L 81.88 9.82 L 81.49 9.82 L 81.10 9.82 L 80.76 9.82 L 80.42 9.82 L 80.09 9.82 L 79.76 9.82 L 79.44 9.82 L 79.11 9.82 L 78.68 9.82 L 78.25 9.82 L 77.90 9.82 L 77.56 9.82 L 77.28 9.82 L 77.00 9.82 L 76.74 9.82 L 76.47 9.82 L 76.16 9.82 L 75.84 9.82 L 75.52 9.82 L 75.20 9.82 L 74.79 9.83 L 74.40 9.83 L 74.01 9.89 L 73.61 9.95 L 73.18 10.11 L 72.75 10.27 L 72.42 10.59 L 72.10 10.92 L 72.03 11.07 L 71.95 11.22 L 71.93 11.29 L 71.91 11.35 L 71.90 11.42 L 71.89 11.49 L 71.90 11.56 L 71.90 11.62 L 71.92 11.69 L 71.94 11.76 L 71.97 11.82 L 72.00 11.88 L 72.04 11.93 L 72.08 11.99 L 72.13 12.03 L 72.19 12.08 L 72.24 12.11 L 72.30 12.15 L 72.37 12.17 L 72.43 12.19 L 72.50 12.20 L 72.57 12.21 L 72.64 12.20 L 72.71 12.20 L 72.77 12.18 L 72.84 12.16 L 72.90 12.13 L 72.96 12.10 L 73.02 12.06 L 73.07 12.02 L 73.12 11.97 L 73.16 11.92 L 73.20 11.86 L 73.23 11.80 L 73.25 11.73 L 73.27 11.67 L 73.28 11.60 L 73.29 11.53 L 73.29 11.46 L 73.28 11.39 L 73.26 11.33 L 73.25 11.26 L 73.22 11.20 L 73.19 11.14 L 73.14 11.08 L 73.10 11.03 L 73.05 10.98 L 73.00 10.94 L 72.94 10.90 L 72.88 10.87 L 72.81 10.85 L 72.75 10.83 L 72.68 10.82 L 72.61 10.81 L 72.55 10.81 L 72.48 10.82 L 72.41 10.84 L 72.34 10.85 L 72.28 10.88 L 72.22 10.91 L 72.17 10.96 L 72.11 11.00 L 72.07 11.05 L 72.02 11.10 Z"/></svg>
