<svg xmlns="http://www.w3.org/2000/svg" viewBox="8.31 8.30 132.42 33.50" width="132.42" height="33.50" xmlns:v="https://vecta.io/nano"><path fill="#1e1e1e" d="M74.768 9.881q0 0 .07.03.06.03.11.07.05.04.1.1.04.05.08.11.03.06.05.12.02.07.03.14 0 .07 0 .12-.01.07-.03.14-.02.06-.05.13-.03.06-.07.11-.04.05-.1.1-.05.04-.11.08-.06.03-.12.05-.07.02-.14.03-.07 0-.12 0-.07-.01-.14-.03-.06-.02-.36-.14-.3-.12-.46-.23-.15-.1-.16-.13-.02-.03.04-.01.05.03-.08.03-.14-.01-.43-.01-.29 0-.61 0-.32 0-.65 0-.32 0-.65 0-.32 0-.6 0-.27 0-.61 0-.35 0-.71.05-.36.05-.82.12-.46.06-.99.07-.53.02-1 .02-.47 0-.88 0-.41 0-.85 0-.45 0-.83 0-.38 0-.77.05-.39.06-.85.07-.47.01-.87.01-.41 0-.78 0-.37 0-.72-.05-.36-.06-.72-.12-.36-.06-.67-.07-.31-.01-.68-.01-.37 0-.71-.01-.33 0-.61 0-.28 0-.62 0-.34 0-.72-.05-.38-.05-.79-.06-.42-.01-.9-.01-.48-.01-.84.04-.35.04-.67.15-.32.11-.64.19-.33.09-.61.11-.28.01-.59.07-.32.05-.65.07-.33.01-.74.06-.41.05-.8.11-.39.06-.71.13-.33.06-.63.13-.29.07-.49.08-.2.02-.42.02-.23 0-.5.05-.27.05-.54.11-.28.06-.71.13-.43.07-.82.13-.39.06-.75.13-.35.07-.61.09-.25.01-.47.01-.21.01-.41.01-.19 0-.39 0-.2 0-.44 0-.25 0-.51 0-.26 0-.6 0-.35 0-.66-.06-.31-.06-.58-.12-.26-.07-.59-.14-.34-.07-.64-.18-.3-.11-.55-.13-.24-.02-.55-.07-.31-.06-.55-.07-.24-.01-.49-.01-.25-.01-.52-.08-.26-.07-.42-.13-.16-.07-.28-.12-.13-.05-.3-.06-.18-.01-.42-.06-.25-.05-.42-.06-.17-.01-.35-.01-.19 0-.43-.01-.24 0-.45-.05-.2-.06-.35-.06-.16-.01-.34-.01-.19 0-.38 0-.2-.01-.29-.01-.1 0-.27.05-.17.05-.31.06-.14.01-.32.06-.19.06-.33.07-.14.01-.33.06-.19.06-.39.07-.21.01-.43.06-.22.05-.54.12-.31.06-.63.13-.32.06-.68.13-.35.07-.61.08-.26.01-.43.06-.17.04-.4.11-.23.07-.48.09-.24.02-.45.02-.21.01-.41.01-.19 0-.39 0-.19 0-.49-.01-.29 0-.5-.05-.22-.05-.41-.06-.19-.01-.44-.07-.24-.05-.47-.06-.22-.01-.47-.01-.25 0-.51 0-.26 0-.42 0-.15 0-.29 0-.14 0-.33-.02-.19-.02-.28-.08-.1-.06-.05-.05.04.02-.05.02-.09 0-.22 0-.12 0-.25 0-.13 0-.21 0-.08 0-.25 0-.17 0-.32-.01-.14 0-.33.05-.18.05-.42.07-.24.01-.36 0-.12-.01-.26.08-.14.08-.32.15-.19.07-.33.15-.14.09-.27.21-.14.13-.23.26-.08.13-.2.27-.13.14-.28.34-.15.2-.31.32-.16.12-.2.22-.04.1-.1.26-.05.15-.13.48-.07.32-.19.55-.12.23-.2.47-.07.24-.2.53-.13.28-.24.49-.11.21-.12.39-.02.18-.09.4-.06.22-.11.43-.06.21-.07.46-.01.25-.07.51-.05.25-.06.48-.01.23-.01.53 0 .31 0 .54-.01.24.04.46.05.22.11.51.07.29.08.56.02.27.07.58.06.32.07.59.01.27.06.56.05.29.11.61.06.32.12.6.06.29.17.56.12.27.2.61.08.34.15.6.06.26.13.48.07.22.13.53.07.31.14.58.06.27.12.56.06.29.17.55.11.25.2.54.08.29.16.59.07.3.09.61.02.3.02.62 0 .32 0 .54 0 .22 0 .47 0 .26 0 .46 0 .21 0 .53-.01.31-.12.61-.11.29-.18.6-.06.3-.07.63-.01.33-.07.62-.05.3-.03.46.03.16.11.3.08.15.21.35.13.2.25.44.13.24.24.42.12.17.32.27.2.1.55.21.35.11.87.14.52.02 1.06.08.55.06 1.03.12.47.07.86.13.39.06.81.07.42.02.92.02.5 0 1.02 0 .52 0 1.09 0 .57 0 1.09 0 .51 0 1.03-.05.52-.05 1.11-.06.59-.01 1.23-.02.64 0 1.19 0 .54 0 1.05 0 .52 0 1.12-.05.6-.05 1.33-.16.74-.11 1.57-.24.82-.13 1.51-.26.69-.13 1.32-.21.64-.08 1.24-.1.59-.01 1.22-.07.63-.05 1.2-.11.57-.06 1.03-.17.46-.11 1.01-.25.54-.13 1.08-.16.55-.03 1.07-.09.53-.05.99-.06.46-.02.79-.07.32-.05.64-.11.32-.06.62-.13.3-.07.66-.08.35-.02.73-.02.39 0 .83 0 .44 0 .84 0 .4 0 .79 0 .4 0 .77 0 .37 0 .69.06.31.05.58.12.27.06.58.13.32.06.6.13.29.07.65.18.36.12.77.19.41.07.81.14.4.06.87.13.47.07.83.2.37.12.68.19.32.07.58.13.26.07.65.13.38.06.7.07.32.01.72.02.4 0 .79.05.4.06.74.07.34.01.67.06.33.06.61.07.27.01.59.06.31.06.63.07.33.01.71-.04.37-.05.68-.06.31-.01.58-.02.27 0 .61 0 .34 0 .72.05.38.06.74.07.37.01.73.01.36 0 .75-.05.39-.05.83-.06.44-.01.84-.07.4-.05.85-.06.45-.01.88-.06.43-.06.85-.12.41-.07.77-.08.37-.01.71-.02.33 0 .66 0 .33 0 .69 0 .35 0 .77-.05.42-.05.86-.11.44-.06.78-.12.34-.07.7-.14.35-.06.66-.08.31-.02.58-.02.27 0 .56 0 .3 0 .72-.05.42-.05.87-.06.45-.01.85-.07.4-.05.71-.06.31-.02.59-.02.27 0 .53 0 .27 0 .58 0 .31 0 .64 0 .32 0 .72 0 .4 0 .79.05.4.05.74.06.35.02.71.08.36.05.65.12.28.07.57.14.29.07.57.18.28.11.67.12.38.02.83.08.44.05.93.06.49.01 1 .02.52 0 .98 0 .47 0 .83 0 .35 0 .73 0 .39 0 .79 0 .41 0 .96.05.55.06 1.22.07.66 0 1.27.01.6 0 1.19 0 .59 0 1.18 0 .58 0 .98 0 .4 0 .91.06.51.05 1.02.11.5.06.95.07.44.01 1 .02.56 0 1.14 0 .58 0 1.1 0 .51 0 .95-.05.44-.05.79-.11.35-.06.75-.12.41-.06.84-.22.42-.16.91-.31.48-.14.93-.23.44-.09.82-.11.37-.01.65-.02.29 0 .59 0 .3 0 .6.06.3.06.54.12.23.05.53.06.3.02.63.07.32.06.6.07.28.01.54.06.27.06.48.07.21.01.46.06.25.06.42.07.17 0 .41.01.24 0 .56 0 .31.01.48.06.16.06.34.07.18 0 .42.07.23.06.39.12.16.05.35.06.19.01.42.08.23.06.47.12.24.06.47.12.22.06.47.07.25.01.56.06.31.06.55.07.24.01.5.01.25 0 .47 0 .22.01.38-.04.17-.04.45-.11.28-.07.45-.07.16-.01.29-.09.13-.08.39-.2.25-.13.52-.27.27-.13.58-.26.32-.14.6-.27.27-.13.45-.19.17-.06.23-.11.06-.05.09-.1.03-.05.1-.23.06-.18.19-.39.13-.21.26-.46.13-.25.23-.4.1-.15.11-.26.01-.1.01-.33 0-.23.01-.48 0-.25 0-.69.01-.43.18-.87.18-.44.26-.67.08-.22.13-.38.06-.16.07-.25 0-.09.01-.26 0-.17 0-.45 0-.28.06-.59.06-.3.12-.49.06-.18.07-.34.01-.15-.03-.28-.03-.12-.14-.37-.11-.24-.19-.52-.08-.27-.13-.44-.06-.17-.17-.36-.11-.19-.18-.36-.06-.17-.16-.29-.11-.12-.2-.29-.1-.16-.19-.35-.09-.19-.12-.34-.03-.15-.04-.25 0-.1 0-.27 0-.18 0-.32 0-.13.07-.38.07-.24.14-.39.07-.15.17-.4.1-.26.3-.44.21-.18.33-.35.12-.17.27-.33.15-.15.25-.26.11-.1.16-.19.05-.09.12-.22.07-.14.16-.27.09-.12.1-.27.01-.14.07-.32.05-.19.06-.38.02-.19.08-.43.06-.24.14-.46.07-.22.12-.33.05-.1.05-.21.01-.12.01-.24.01-.12-.04-.25-.05-.12-.06-.27-.01-.14-.05-.26-.04-.13-.08-.23-.04-.09-.13-.23-.09-.14-.21-.27-.12-.14-.25-.32-.13-.19-.22-.28-.09-.1-.24-.21-.15-.11-.34-.24-.19-.12-.37-.24-.17-.12-.39-.24-.21-.11-.47-.22-.27-.11-.45-.31-.18-.21-.32-.3-.13-.1-.36-.23-.23-.12-.53-.29-.29-.18-.6-.31-.31-.14-.61-.28-.3-.15-.53-.29-.23-.14-.44-.28-.21-.14-.45-.32-.25-.18-.52-.35-.27-.17-.6-.29-.34-.13-.72-.26-.38-.13-.78-.26-.4-.14-.75-.27-.34-.13-.66-.26-.31-.12-.56-.2-.26-.07-.52-.14-.27-.07-.45-.12-.17-.06-.41-.07-.23-.01-.49-.07-.25-.05-.48-.06-.22-.01-.48-.01-.25 0-.51 0-.26 0-.57 0-.31 0-.59 0-.27 0-.58 0-.32 0-.55-.01-.23 0-.36.04-.14.03-.38.14-.25.12-.54.2-.28.08-.55.15-.27.07-.56.15-.3.07-.57.08-.26.02-.53.07-.26.06-.61.07-.35.01-.67.02-.33 0-.69 0-.35 0-.68.05-.33.05-.77.06-.44.01-.87.06-.43.06-.89.12-.45.06-.98.13-.52.07-1.06.08-.54.01-1.02.02-.47 0-.93 0-.46 0-.97 0-.51 0-1.03 0-.51 0-1.19 0-.68 0-1.36 0-.67 0-1.12-.05-.45-.06-.85-.07-.41-.01-.87-.06-.47-.06-.92-.12-.46-.07-.92-.13-.46-.07-.88-.13-.42-.07-.72-.14-.3-.07-.54-.13-.23-.06-.53-.07-.31-.01-.63-.06-.32-.06-.6-.07-.28-.01-.57-.07-.29-.06-.58-.12-.28-.06-.56-.07-.27-.01-.56-.07-.3-.06-.53-.12-.24-.06-.46-.07-.22-.01-.48-.02-.26 0-.42-.06-.15-.05-.31-.06-.17-.01-.41-.06-.24-.05-.51-.06-.28-.01-.64-.01-.37 0-.81 0-.44 0-.79 0-.35 0-.72-.01-.37 0-.6-.05-.23-.06-.44-.06-.22-.01-.52-.01-.31 0-.61-.01-.3 0-.72.06-.43.05-.85.06-.41.01-.81.01-.4 0-.79 0-.39 0-.73 0-.34 0-.67 0-.33 0-.65 0-.33 0-.76 0-.43 0-.78 0-.34 0-.62 0-.28 0-.54 0-.27 0-.58 0-.32 0-.64 0-.32 0-.67 0-.34 0-.62.05-.28.04-.5.11-.23.07-.35.2-.12.13-.17.24-.05.11-.09.16-.05.05-.1.09-.06.04-.12.07-.06.03-.13.05-.06.02-.13.02-.07.01-.14 0-.07-.01-.13-.03-.07-.02-.13-.06-.05-.03-.11-.08-.05-.04-.09-.1-.04-.05-.07-.11-.03-.06-.05-.13-.02-.07-.02-.13-.01-.07 0-.14.01-.07.03-.13.02-.07.06-.13.03-.06.08-.11.04-.05.1-.09.05-.05.11-.08.06-.03.13-.04.07-.02.14-.03.06 0 .13.01.07.01.13.03.07.02.13.05.06.04.11.08.05.05.09.1.05.06.08.12.03.06.04.13.02.06.03.13 0 .07-.01.14-.01.07-.03.13-.02.07-.05.13-.04.06-.08.11-.05.05-.1.09-.06.04-.12.07-.06.03-.13.05-.06.02-.13.02-.07.01-.14 0-.07-.01-.13-.03-.07-.02-.13-.06-.05-.03-.11-.08-.05-.04-.09-.1-.04-.05-.07-.11-.03-.06-.05-.13-.02-.07-.02-.13-.01-.07 0-.14.01-.07.03-.13.02-.07.1-.22.07-.15.39-.48.33-.32.76-.48.43-.16.83-.22.39-.06.78-.06.41-.01.73-.01.32 0 .64 0 .31 0 .58 0 .26 0 .54 0 .28 0 .62 0 .35 0 .78 0 .43 0 .76 0 .32 0 .65 0 .33 0 .67 0 .34 0 .73 0 .39 0 .78 0 .38 0 .76-.01.38-.01.82-.06.43-.05.77-.05.35 0 .67 0 .32 0 .61.01.29.02.51.07.21.05.5.05.29 0 .64 0 .35 0 .79 0 .44 0 .82 0 .38 0 .73.01.35.02.6.07.25.06.45.07.21.02.35.07.14.05.29.05.16-.01.46.01.3.01.59.08.29.07.52.12.23.05.5.06.27.01.61.08.34.07.57.11.24.05.51.06.26.01.59.06.32.06.65.07.32.02.62.09.3.07.57.13.28.06.67.13.39.06.84.12.45.07.9.13.46.06.88.11.43.06.83.07.4.01.84.06.44.05 1.07.05.64 0 1.32 0 .67 0 1.19 0 .52 0 1.03 0 .51 0 .97 0 .46 0 .92 0 .46-.01.96-.02.5-.01.99-.07.49-.07.94-.13.46-.06.93-.12.47-.05.9-.06.42-.01.76-.07.34-.05.75-.05.4 0 .72 0 .32-.01.59-.02.28 0 .54-.06.26-.05.51-.06.25-.02.48-.08.23-.05.48-.12.26-.07.48-.13.23-.07.49-.17.26-.12.54-.19.29-.07.6-.07.31 0 .63 0 .31 0 .58 0 .28 0 .59 0 .31 0 .57 0 .27 0 .53 0 .27 0 .57.02.29.01.55.06.26.06.53.07.27.02.51.09.24.07.5.13.26.07.56.16.29.08.63.22.35.13.68.26.33.13.71.25.39.13.78.27.39.13.81.29.41.16.76.38.35.21.6.4.25.18.44.31.19.12.38.24.19.12.44.24.25.12.59.27.33.14.65.33.33.19.59.33.26.15.5.33.24.17.34.32.11.14.26.18.15.05.43.2.28.14.49.28.21.15.41.28.2.13.42.29.21.16.38.34.17.19.3.37.13.19.26.34.14.14.28.37.15.23.23.42.09.18.16.43.07.24.07.36.01.12.07.28.05.16.05.43.01.26-.02.52-.02.25-.1.44-.08.18-.13.35-.05.17-.1.32-.04.16-.06.35-.01.2-.07.41-.05.2-.09.44-.04.25-.18.48-.15.24-.21.37-.07.12-.17.3-.11.17-.27.33-.15.16-.27.29-.11.12-.27.32-.15.2-.28.3-.14.1-.17.22-.02.11-.08.24-.06.13-.1.24-.03.1-.03.13.01.04.01.2 0 .16 0 .2 0 .04 0 .05-.01 0 .04.07.04.08.1.18.05.1.18.27.14.16.23.38.09.22.21.43.12.21.2.46.09.25.15.48.07.24.19.5.12.26.18.55.07.29.05.63-.01.34-.08.57-.07.24-.11.44-.04.21-.04.43 0 .21-.01.41 0 .2-.02.4-.02.2-.1.44-.08.25-.17.49-.09.25-.23.57-.14.33-.13.63.01.3.01.56-.01.26-.01.53-.01.27-.05.56-.05.29-.2.55-.16.26-.29.51-.12.24-.23.42-.11.17-.18.36-.07.18-.2.39-.13.2-.37.39-.23.19-.48.29-.25.1-.51.22-.27.13-.58.26-.31.13-.55.25-.25.13-.49.25-.25.12-.51.26-.26.13-.51.15-.25.02-.47.08-.22.06-.47.12-.25.06-.56.06-.3 0-.57 0-.27 0-.57-.02-.3-.01-.62-.06-.31-.06-.58-.07-.28-.02-.57-.09-.29-.07-.54-.14-.26-.06-.42-.11-.16-.05-.37-.06-.2-.01-.43-.09-.23-.07-.38-.11-.15-.04-.35-.06-.19-.01-.34-.06-.15-.05-.35-.05-.2.01-.46.01-.26-.01-.5-.02-.24-.01-.49-.07-.25-.05-.46-.06-.21-.01-.47-.07-.26-.05-.53-.06-.27-.01-.59-.07-.32-.05-.65-.07-.32-.01-.61-.08-.29-.06-.51-.11-.22-.05-.44-.04-.23 0-.5 0-.27.01-.58.02-.31.01-.67.08-.36.08-.79.21-.43.13-.9.3-.48.18-.95.25-.47.07-.83.14-.36.06-.86.11-.5.06-1.06.06-.55 0-1.13 0-.58 0-1.15 0-.57-.01-1.06-.02-.49-.01-1.02-.08-.52-.06-1-.11-.47-.05-.83-.05-.36 0-.94 0-.59 0-1.18 0-.59 0-1.2 0-.61-.01-1.31-.02-.7-.01-1.24-.06-.55-.05-.92-.05-.37 0-.76 0-.38 0-.74 0-.35 0-.82 0-.47 0-.99 0-.52-.01-1.05-.02-.53-.01-.99-.07-.45-.06-.92-.08-.47-.03-.81-.16-.35-.12-.59-.18-.24-.06-.5-.12-.26-.06-.56-.11-.29-.05-.62-.06-.34-.01-.72-.06-.38-.05-.74-.05-.35 0-.67 0-.33 0-.64 0-.31 0-.57 0-.26 0-.52 0-.26 0-.53.01-.27.01-.67.07-.41.05-.86.06-.45.01-.89.06-.43.06-.76.06-.33 0-.59 0-.25 0-.5.01-.24.02-.55.08-.3.06-.67.12-.36.07-.82.14-.47.06-.93.11-.46.06-.86.06-.4 0-.73 0-.32 0-.64 0-.33.01-.64.02-.32.01-.71.07-.38.06-.85.12-.48.05-.92.06-.45.02-.85.07-.4.05-.84.06-.45.01-.84.07-.4.05-.82.05-.41 0-.82-.02-.42-.01-.79-.06-.37-.05-.66-.05-.28 0-.54 0-.26.01-.53.01-.26.01-.66.06-.4.05-.83.04-.43-.01-.75-.06-.31-.06-.59-.07-.27-.01-.6-.06-.32-.06-.66-.07-.33-.01-.71-.06-.39-.05-.75-.06-.37 0-.74-.01-.37-.02-.83-.09-.45-.07-.74-.14-.28-.07-.63-.15-.34-.08-.68-.19-.34-.11-.75-.17-.42-.06-.83-.13-.4-.07-.86-.15-.47-.08-.85-.2-.37-.12-.63-.18-.25-.06-.56-.13-.32-.06-.58-.12-.26-.07-.49-.11-.24-.05-.55-.05-.3.01-.7.01-.39 0-.79 0-.4 0-.84 0-.44 0-.81 0-.37 0-.64.01-.28.01-.53.07-.25.06-.59.13-.35.06-.73.12-.38.06-.86.07-.48.01-.99.07-.52.06-1.02.08-.49.02-.98.14-.48.13-.99.25-.5.12-1.13.19-.62.06-1.27.12-.66.06-1.24.07-.58.02-1.16.09-.58.08-1.26.2-.69.13-1.52.26-.83.13-1.6.25-.76.11-1.41.17-.66.05-1.2.05-.54 0-1.08 0-.54 0-1.18 0-.63.01-1.19.02-.55.01-1.08.06-.53.05-1.08.05-.55 0-1.12 0-.57 0-1.09 0-.52 0-1.03 0-.51-.01-.99-.02-.47-.01-.89-.08-.43-.07-.89-.13-.46-.06-.98-.12-.51-.06-1.1-.09-.59-.03-1.08-.19-.5-.15-.89-.37-.4-.21-.65-.55-.25-.34-.38-.6-.14-.25-.26-.45-.13-.2-.27-.48-.14-.27-.2-.66-.06-.39 0-.75.05-.36.07-.7.01-.34.1-.76.08-.42.18-.65.1-.22.09-.41-.01-.18-.01-.39 0-.2 0-.45 0-.26 0-.47 0-.22 0-.53 0-.3-.01-.52-.01-.22-.07-.44-.06-.22-.13-.46-.06-.23-.19-.52-.12-.28-.19-.63-.07-.34-.14-.61-.06-.26-.13-.56-.06-.29-.12-.49-.07-.21-.14-.49-.07-.28-.14-.57-.06-.29-.18-.57-.12-.28-.2-.64-.07-.36-.13-.69-.07-.33-.13-.67-.05-.34-.06-.61-.01-.27-.07-.59-.05-.31-.07-.56-.01-.25-.06-.48-.06-.24-.12-.54-.06-.31-.06-.61 0-.31 0-.63 0-.32.02-.61.01-.3.06-.56.06-.26.07-.53.02-.26.09-.55.07-.29.12-.47.06-.17.09-.41.03-.24.18-.55.15-.31.25-.54.11-.23.19-.5.08-.26.2-.46.11-.21.17-.48.05-.28.14-.51.08-.23.22-.5.14-.27.34-.43.2-.16.31-.32.11-.17.23-.29.12-.13.22-.28.1-.15.35-.39.25-.23.51-.38.25-.16.45-.24.21-.07.46-.2.25-.12.52-.13.27-.02.43-.02.15-.01.35-.06.21-.05.44-.05.24 0 .41 0 .17 0 .25 0 .08 0 .21 0 .13 0 .26 0 .13 0 .28 0 .14 0 .31.04.18.03.22.07.04.04.01.03-.04-.02.1-.02.14 0 .29 0 .16 0 .42 0 .26 0 .53 0 .27 0 .56.02.3.01.55.06.25.06.45.07.2.01.4.06.2.05.4.05.2 0 .4 0 .19 0 .39 0 .19 0 .38-.01.18 0 .33 0 .14-.01.31-.07.16-.05.42-.12.26-.06.54-.08.28-.01.58-.06.3-.06.62-.13.32-.06.63-.12.31-.07.58-.12.27-.06.45-.07.19-.01.37-.06.18-.06.32-.07.14-.01.33-.06.18-.06.32-.07.15-.01.34-.06.2-.06.39-.06.2-.01.39 0 .2 0 .4 0 .21 0 .45.01.24.02.42.07.19.05.34.05.16 0 .36 0 .21 0 .45.01.24.02.49.07.25.06.47.08.21.01.45.09.24.09.38.14.13.06.26.1.13.03.3.03.17 0 .48.02.3.01.62.07.32.05.62.08.31.02.65.14.34.13.64.19.29.06.55.12.26.06.49.11.23.04.51.04.28 0 .54 0 .26 0 .51 0 .24 0 .44 0 .19 0 .39 0 .19 0 .38-.01.2 0 .39-.01.19-.01.51-.07.33-.06.73-.13.4-.07.81-.13.41-.06.68-.12.26-.07.61-.12.35-.05.6-.06.26 0 .38-.01.12-.01.38-.07.26-.06.61-.13.35-.07.76-.13.41-.06.86-.12.45-.06.77-.07.31-.01.62-.06.31-.06.56-.07.25-.01.48-.08.23-.06.6-.18.37-.12.84-.18.47-.06 1-.06.53 0 .99.01.47.01.84.06.37.06.66.05.29 0 .57 0 .28 0 .61 0 .34.01.73.01.39 0 .75.01.36.02.76.08.4.07.7.12.3.05.61.05.32-.01.71-.01.4 0 .82-.01.43-.01.82-.06.4-.05.83-.05.42-.01.87-.01.44 0 .85 0 .4 0 .86 0 .47 0 .95-.01.48-.01.9-.08.43-.06.84-.11.41-.05.8-.06.39 0 .66 0 .28 0 .6 0 .33 0 .65 0 .33 0 .65 0 .32 0 .61 0 .3.01.51.01.2 0 .39.05.19.05.32.16.13.1.18.14.06.04.27.13.22.09.22.09h0z"/></svg>