<svg xmlns="http://www.w3.org/2000/svg" viewBox="8.13 8.13 652.56 258.92"><path fill="#000" d="M 354.09 13.98 L 354.09 13.98 L 352.99 13.98 L 351.89 13.98 L 351.28 13.98 L 350.66 13.98 L 349.98 14.12 L 349.31 14.27 L 348.44 14.70 L 347.57 15.13 L 346.99 15.20 L 346.40 15.28 L 345.51 15.50 L 344.61 15.73 L 343.85 15.89 L 343.10 16.05 L 342.33 16.11 L 341.57 16.17 L 340.84 16.18 L 340.11 16.19 L 339.39 16.34 L 338.67 16.49 L 337.91 16.55 L 337.15 16.62 L 336.48 16.62 L 335.80 16.63 L 335.25 16.80 L 334.70 16.96 L 333.94 17.01 L 333.18 17.06 L 332.50 17.06 L 331.83 17.07 L 331.27 17.24 L 330.72 17.41 L 329.96 17.45 L 329.20 17.50 L 328.52 17.51 L 327.84 17.51 L 327.17 17.51 L 326.50 17.51 L 325.84 17.51 L 325.18 17.51 L 324.06 17.51 L 322.95 17.51 L 322.29 17.51 L 321.64 17.51 L 320.79 17.51 L 319.95 17.51 L 319.16 17.69 L 318.37 17.86 L 317.50 18.07 L 316.63 18.29 L 315.66 18.33 L 314.69 18.38 L 313.79 18.39 L 312.89 18.40 L 311.74 18.21 L 310.60 18.02 L 309.42 17.60 L 308.25 17.18 L 306.97 16.75 L 305.69 16.32 L 304.32 15.67 L 302.96 15.03 L 301.99 14.56 L 301.03 14.08 L 299.64 13.66 L 298.26 13.24 L 296.43 13.00 L 294.60 12.76 L 292.46 12.53 L 290.32 12.30 L 288.15 12.27 L 285.99 12.23 L 283.93 12.04 L 281.87 11.85 L 280.04 11.63 L 278.22 11.41 L 276.12 11.38 L 274.02 11.35 L 271.65 11.34 L 269.27 11.33 L 267.21 11.33 L 265.16 11.33 L 263.15 11.33 L 261.15 11.33 L 259.01 11.51 L 256.88 11.70 L 254.64 11.73 L 252.40 11.76 L 250.19 11.77 L 247.97 11.77 L 246.13 11.77 L 244.28 11.77 L 242.55 11.96 L 240.81 12.14 L 238.63 12.17 L 236.46 12.20 L 234.29 12.39 L 232.12 12.58 L 230.10 12.79 L 228.09 13.01 L 226.42 13.05 L 224.75 13.09 L 223.24 13.26 L 221.72 13.45 L 220.03 13.84 L 218.34 14.23 L 216.39 14.67 L 214.44 15.10 L 212.46 15.54 L 210.48 15.99 L 208.87 16.42 L 207.27 16.86 L 205.99 16.95 L 204.71 17.04 L 203.44 17.23 L 202.18 17.42 L 200.67 17.64 L 199.16 17.86 L 197.47 18.25 L 195.78 18.65 L 194.03 19.09 L 192.27 19.52 L 190.55 20.13 L 188.82 20.75 L 187.61 21.21 L 186.41 21.68 L 185.22 21.97 L 184.04 22.25 L 182.78 22.65 L 181.52 23.05 L 180.01 23.49 L 178.49 23.93 L 176.95 24.38 L 175.41 24.82 L 173.81 25.09 L 172.22 25.36 L 171.05 25.58 L 169.87 25.81 L 168.88 25.85 L 167.88 25.90 L 166.94 25.90 L 166.01 25.90 L 165.13 25.49 L 164.24 25.08 L 163.39 24.66 L 162.55 24.23 L 161.46 23.59 L 160.37 22.96 L 159.16 22.52 L 157.95 22.08 L 156.80 21.62 L 155.66 21.17 L 154.21 20.74 L 152.77 20.31 L 151.57 19.86 L 150.38 19.41 L 149.25 18.96 L 148.13 18.52 L 147.41 18.27 L 146.68 18.01 L 145.86 17.80 L 145.03 17.58 L 144.15 17.36 L 143.28 17.14 L 142.00 16.72 L 140.72 16.31 L 139.46 16.07 L 138.20 15.83 L 136.88 15.61 L 135.57 15.38 L 134.24 15.16 L 132.92 14.94 L 131.76 14.72 L 130.61 14.49 L 129.66 14.27 L 128.71 14.04 L 127.65 13.82 L 126.59 13.61 L 125.66 13.38 L 124.73 13.16 L 123.50 12.95 L 122.27 12.74 L 120.95 12.52 L 119.64 12.29 L 118.20 12.26 L 116.75 12.23 L 115.40 12.23 L 114.05 12.22 L 112.83 12.03 L 111.62 11.84 L 110.75 11.81 L 109.87 11.79 L 108.99 11.78 L 108.11 11.78 L 107.14 11.58 L 106.17 11.39 L 105.17 11.37 L 104.18 11.34 L 103.09 11.34 L 102.01 11.33 L 100.59 11.51 L 99.17 11.69 L 97.78 11.73 L 96.38 11.76 L 95.10 11.95 L 93.82 12.13 L 92.63 12.17 L 91.44 12.20 L 90.39 12.39 L 89.34 12.57 L 88.44 12.78 L 87.55 12.99 L 86.73 13.36 L 85.92 13.73 L 84.57 14.02 L 83.23 14.30 L 81.96 14.70 L 80.69 15.09 L 79.31 15.36 L 77.94 15.63 L 76.61 15.85 L 75.27 16.08 L 74.20 16.47 L 73.13 16.85 L 72.03 17.29 L 70.93 17.72 L 70.04 18.15 L 69.15 18.57 L 68.26 19.01 L 67.37 19.45 L 66.01 19.75 L 64.66 20.04 L 63.59 20.44 L 62.52 20.83 L 61.16 21.10 L 59.80 21.37 L 58.47 21.60 L 57.14 21.83 L 56.07 22.22 L 55.00 22.60 L 54.04 22.87 L 53.08 23.13 L 52.04 23.53 L 51.01 23.92 L 50.05 24.19 L 49.10 24.45 L 48.26 24.84 L 47.43 25.23 L 46.22 25.34 L 45.00 25.44 L 43.95 25.63 L 42.90 25.82 L 41.80 26.04 L 40.70 26.25 L 39.40 26.48 L 38.10 26.70 L 36.91 26.74 L 35.71 26.79 L 34.86 26.97 L 34.00 27.15 L 33.04 27.19 L 32.08 27.23 L 31.36 27.24 L 30.65 27.24 L 29.98 27.24 L 29.31 27.24 L 28.55 27.42 L 27.79 27.59 L 27.00 27.96 L 26.21 28.33 L 25.40 28.91 L 24.58 29.49 L 23.66 29.98 L 22.73 30.48 L 21.83 30.94 L 20.94 31.39 L 20.05 31.83 L 19.17 32.28 L 18.42 32.55 L 17.68 32.83 L 17.09 33.20 L 16.50 33.58 L 16.08 33.97 L 15.66 34.36 L 14.99 34.83 L 14.31 35.31 L 13.89 35.70 L 13.47 36.09 L 13.09 37.21 L 12.70 38.32 L 12.49 39.14 L 12.28 39.95 L 12.05 40.66 L 11.82 41.38 L 11.81 42.12 L 11.79 42.86 L 11.78 43.90 L 11.78 44.95 L 11.77 46.23 L 11.77 47.51 L 11.77 48.65 L 11.77 49.78 L 11.77 50.89 L 11.77 52.00 L 11.77 53.11 L 11.77 54.22 L 11.77 55.14 L 11.77 56.06 L 11.77 56.95 L 11.77 57.84 L 11.58 58.99 L 11.39 60.13 L 11.37 60.98 L 11.34 61.84 L 11.34 63.09 L 11.33 64.33 L 11.14 65.53 L 10.95 66.73 L 10.93 68.15 L 10.90 69.56 L 10.90 70.91 L 10.89 72.25 L 10.89 73.58 L 10.89 74.91 L 11.07 76.37 L 11.25 77.83 L 11.46 79.55 L 11.68 81.27 L 11.90 82.85 L 12.12 84.42 L 12.34 86.16 L 12.56 87.90 L 12.78 89.67 L 13.00 91.43 L 13.22 93.01 L 13.44 94.59 L 13.67 96.33 L 13.89 98.07 L 13.93 100.07 L 13.97 102.06 L 13.98 104.05 L 13.98 106.04 L 14.16 107.80 L 14.35 109.57 L 14.38 111.38 L 14.41 113.19 L 14.42 114.97 L 14.42 116.74 L 14.43 118.33 L 14.43 119.92 L 14.43 121.84 L 14.43 123.76 L 14.43 125.74 L 14.43 127.72 L 14.24 129.75 L 14.06 131.77 L 13.84 133.77 L 13.63 135.77 L 13.40 137.58 L 13.18 139.39 L 12.96 141.17 L 12.74 142.95 L 12.52 144.90 L 12.30 146.84 L 12.08 148.65 L 11.86 150.45 L 11.64 152.23 L 11.41 154.00 L 11.38 155.73 L 11.35 157.45 L 11.34 159.40 L 11.33 161.34 L 11.33 163.14 L 11.33 164.94 L 11.33 166.72 L 11.33 168.49 L 11.33 169.89 L 11.33 171.30 L 11.33 173.00 L 11.33 174.71 L 11.33 176.47 L 11.33 178.23 L 11.33 179.99 L 11.33 181.76 L 11.33 183.35 L 11.33 184.93 L 11.33 186.30 L 11.33 187.67 L 11.33 188.82 L 11.33 189.97 L 11.51 191.21 L 11.69 192.44 L 12.07 193.50 L 12.45 194.55 L 12.71 195.91 L 12.98 197.26 L 13.37 198.34 L 13.76 199.41 L 14.20 200.71 L 14.64 202.02 L 15.07 202.93 L 15.49 203.84 L 15.94 204.94 L 16.39 206.03 L 16.99 207.08 L 17.59 208.14 L 18.10 209.49 L 18.60 210.84 L 19.05 211.97 L 19.49 213.10 L 19.94 214.41 L 20.39 215.72 L 20.66 216.91 L 20.93 218.09 L 21.17 219.41 L 21.40 220.72 L 21.44 222.11 L 21.49 223.49 L 21.67 224.57 L 21.86 225.66 L 21.89 226.83 L 21.93 228.00 L 21.94 229.30 L 21.94 230.60 L 21.76 231.81 L 21.57 233.02 L 21.54 234.25 L 21.52 235.49 L 21.32 236.86 L 21.13 238.24 L 21.10 239.69 L 21.07 241.15 L 21.07 242.49 L 21.06 243.84 L 21.41 244.86 L 21.75 245.88 L 22.16 246.75 L 22.57 247.62 L 23.12 248.23 L 23.68 248.84 L 24.46 249.45 L 25.25 250.07 L 26.06 250.51 L 26.88 250.95 L 27.81 251.61 L 28.73 252.27 L 29.57 252.72 L 30.41 253.16 L 31.28 253.61 L 32.16 254.05 L 33.09 254.71 L 34.03 255.36 L 35.35 255.78 L 36.67 256.20 L 38.19 256.64 L 39.70 257.08 L 41.59 257.52 L 43.48 257.96 L 45.41 258.21 L 47.35 258.46 L 49.19 258.88 L 51.04 259.30 L 52.78 259.54 L 54.52 259.79 L 56.46 260.02 L 58.40 260.24 L 60.34 260.28 L 62.29 260.31 L 64.63 260.32 L 66.98 260.33 L 68.81 260.15 L 70.63 259.97 L 72.22 259.75 L 73.81 259.54 L 75.55 259.32 L 77.30 259.10 L 79.29 259.06 L 81.28 259.02 L 83.05 258.83 L 84.81 258.64 L 86.76 258.43 L 88.72 258.21 L 90.32 257.99 L 91.93 257.77 L 93.79 257.20 L 95.65 256.63 L 98.00 255.97 L 100.36 255.32 L 102.78 254.66 L 105.20 254.00 L 107.25 253.34 L 109.29 252.68 L 111.32 252.19 L 113.36 251.70 L 115.90 251.07 L 118.44 250.44 L 120.91 249.96 L 123.38 249.48 L 125.63 249.03 L 127.89 248.59 L 129.95 248.32 L 132.02 248.06 L 134.06 248.01 L 136.10 247.96 L 138.50 248.14 L 140.90 248.32 L 143.33 248.53 L 145.76 248.75 L 147.52 249.16 L 149.27 249.57 L 150.99 249.82 L 152.71 250.06 L 154.86 250.48 L 157.02 250.89 L 159.22 251.33 L 161.42 251.76 L 163.66 252.40 L 165.91 253.03 L 167.78 253.70 L 169.65 254.36 L 171.44 255.03 L 173.23 255.69 L 175.51 256.34 L 177.80 256.99 L 180.36 257.46 L 182.92 257.94 L 184.99 258.20 L 187.05 258.46 L 189.06 258.69 L 191.06 258.91 L 193.44 259.32 L 195.83 259.73 L 198.22 259.98 L 200.61 260.23 L 202.86 260.46 L 205.10 260.68 L 206.96 260.91 L 208.82 261.13 L 210.56 261.16 L 212.30 261.20 L 214.61 261.20 L 216.93 261.21 L 219.16 261.21 L 221.39 261.21 L 223.05 261.21 L 224.71 261.21 L 226.28 261.21 L 227.85 261.21 L 229.40 261.21 L 230.95 261.21 L 232.82 261.03 L 234.70 260.85 L 236.71 260.82 L 238.72 260.78 L 240.72 260.78 L 242.71 260.77 L 244.33 260.77 L 245.96 260.77 L 247.47 260.59 L 248.98 260.41 L 251.08 260.19 L 253.19 259.98 L 255.35 259.58 L 257.51 259.18 L 259.52 258.75 L 261.53 258.32 L 263.37 258.05 L 265.22 257.79 L 266.62 257.56 L 268.02 257.34 L 269.74 257.11 L 271.46 256.89 L 273.37 256.49 L 275.28 256.09 L 277.30 255.83 L 279.31 255.57 L 281.08 255.17 L 282.84 254.77 L 284.41 254.34 L 285.99 253.90 L 287.45 253.81 L 288.91 253.73 L 290.64 253.71 L 292.36 253.70 L 294.49 253.70 L 296.61 253.70 L 298.63 253.69 L 300.64 253.69 L 302.45 253.69 L 304.26 253.69 L 306.04 253.69 L 307.81 253.69 L 309.73 253.51 L 311.64 253.33 L 313.84 253.30 L 316.04 253.26 L 317.89 253.26 L 319.73 253.25 L 321.43 253.63 L 323.12 254.01 L 324.53 254.45 L 325.93 254.89 L 327.27 255.33 L 328.61 255.77 L 329.89 256.01 L 331.16 256.26 L 332.88 256.67 L 334.59 257.09 L 336.18 257.53 L 337.76 257.97 L 339.15 258.42 L 340.54 258.86 L 341.65 259.11 L 342.76 259.36 L 343.92 259.79 L 345.09 260.21 L 346.25 260.26 L 347.42 260.30 L 348.96 260.50 L 350.50 260.70 L 351.87 260.92 L 353.24 261.14 L 354.96 261.55 L 356.69 261.96 L 358.28 262.40 L 359.87 262.84 L 361.42 263.28 L 362.98 263.72 L 364.30 263.97 L 365.63 264.22 L 367.26 264.25 L 368.89 264.29 L 370.78 264.12 L 372.67 263.94 L 374.50 263.91 L 376.33 263.88 L 377.74 263.87 L 379.16 263.87 L 380.44 263.69 L 381.72 263.51 L 382.78 263.13 L 383.84 262.75 L 385.34 262.31 L 386.84 261.87 L 388.38 261.43 L 389.92 260.99 L 391.47 260.54 L 393.01 260.10 L 394.56 259.66 L 396.11 259.22 L 397.51 258.95 L 398.91 258.68 L 399.94 258.13 L 400.98 257.57 L 402.32 257.08 L 403.67 256.59 L 405.36 255.96 L 407.04 255.33 L 408.99 254.67 L 410.95 254.01 L 412.93 253.35 L 414.91 252.68 L 416.70 252.03 L 418.50 251.37 L 419.92 250.88 L 421.34 250.40 L 423.12 250.12 L 424.90 249.83 L 426.67 249.60 L 428.44 249.37 L 429.63 249.15 L 430.83 248.93 L 432.33 248.71 L 433.84 248.49 L 435.38 248.27 L 436.92 248.04 L 438.15 248.00 L 439.37 247.96 L 440.69 247.95 L 442.00 247.95 L 443.51 247.95 L 445.02 247.95 L 446.79 248.13 L 448.56 248.32 L 450.65 248.35 L 452.74 248.37 L 454.75 248.38 L 456.75 248.38 L 458.61 248.57 L 460.46 248.76 L 462.43 248.97 L 464.39 249.19 L 466.73 249.41 L 469.08 249.63 L 471.35 250.04 L 473.62 250.45 L 475.88 251.08 L 478.13 251.70 L 480.14 252.17 L 482.15 252.64 L 484.32 253.08 L 486.49 253.53 L 488.70 253.97 L 490.90 254.41 L 492.90 254.67 L 494.89 254.92 L 496.53 255.15 L 498.16 255.38 L 499.55 255.60 L 500.94 255.83 L 502.63 256.05 L 504.32 256.26 L 506.25 256.48 L 508.18 256.71 L 509.99 256.93 L 511.79 257.15 L 513.56 257.37 L 515.34 257.59 L 516.70 257.63 L 518.06 257.66 L 519.45 257.85 L 520.84 258.05 L 522.30 258.08 L 523.76 258.10 L 525.52 258.30 L 527.29 258.49 L 529.05 258.70 L 530.82 258.92 L 532.41 259.14 L 534.00 259.36 L 535.38 259.58 L 536.76 259.81 L 538.10 260.03 L 539.44 260.25 L 540.94 260.47 L 542.44 260.69 L 543.93 260.72 L 545.42 260.76 L 547.37 260.95 L 549.31 261.14 L 550.89 261.17 L 552.46 261.20 L 553.83 261.21 L 555.20 261.21 L 556.53 261.21 L 557.87 261.21 L 559.38 261.21 L 560.89 261.21 L 562.43 261.21 L 563.97 261.21 L 565.66 261.03 L 567.34 260.85 L 569.10 260.64 L 570.85 260.42 L 572.58 260.03 L 574.30 259.63 L 575.62 259.04 L 576.94 258.45 L 578.47 257.79 L 580.00 257.13 L 581.90 256.29 L 583.81 255.44 L 585.62 254.74 L 587.44 254.04 L 589.21 253.37 L 590.99 252.70 L 592.36 252.05 L 593.73 251.40 L 595.06 250.74 L 596.39 250.08 L 597.77 249.58 L 599.14 249.08 L 601.23 248.44 L 603.31 247.80 L 604.95 247.32 L 606.59 246.85 L 608.35 246.40 L 610.11 245.94 L 611.49 245.51 L 612.86 245.07 L 613.93 244.98 L 615.00 244.88 L 615.93 244.87 L 616.86 244.85 L 617.75 244.85 L 618.64 244.85 L 619.79 245.04 L 620.93 245.23 L 622.10 245.65 L 623.28 246.07 L 624.39 246.50 L 625.51 246.94 L 626.39 247.19 L 627.27 247.43 L 628.08 247.88 L 628.89 248.34 L 629.49 248.56 L 630.10 248.78 L 630.84 249.23 L 631.58 249.68 L 632.16 249.89 L 632.75 250.11 L 633.29 250.12 L 633.83 250.14 L 634.45 249.88 L 635.07 249.62 L 635.49 249.22 L 635.90 248.81 L 636.34 248.37 L 636.78 247.94 L 637.22 247.50 L 637.66 247.06 L 638.06 246.49 L 638.46 245.91 L 639.34 245.17 L 640.23 244.43 L 641.12 243.76 L 642.00 243.09 L 643.10 242.40 L 644.20 241.72 L 645.26 240.89 L 646.32 240.07 L 647.42 239.20 L 648.52 238.33 L 649.36 237.16 L 650.20 235.99 L 651.07 234.53 L 651.94 233.07 L 652.42 231.78 L 652.91 230.49 L 653.37 229.34 L 653.82 228.20 L 653.87 227.21 L 653.92 226.22 L 654.12 225.07 L 654.32 223.92 L 654.35 222.87 L 654.38 221.83 L 654.38 220.55 L 654.39 219.27 L 654.58 217.72 L 654.76 216.16 L 654.79 214.67 L 654.82 213.17 L 655.01 211.40 L 655.20 209.63 L 655.42 207.87 L 655.64 206.10 L 655.86 204.15 L 656.08 202.20 L 656.48 200.00 L 656.89 197.81 L 657.14 195.81 L 657.39 193.82 L 657.43 191.87 L 657.47 189.92 L 657.66 187.89 L 657.85 185.87 L 657.89 184.28 L 657.92 182.69 L 657.92 180.95 L 657.93 179.22 L 657.93 177.64 L 657.93 176.06 L 657.75 174.75 L 657.57 173.43 L 657.19 172.17 L 656.80 170.90 L 656.21 169.63 L 655.61 168.36 L 655.29 166.94 L 654.97 165.52 L 654.56 164.23 L 654.16 162.94 L 654.07 161.52 L 653.98 160.09 L 653.63 159.26 L 653.28 158.43 L 653.01 157.29 L 652.75 156.15 L 652.52 155.03 L 652.29 153.92 L 652.07 153.01 L 651.85 152.11 L 651.80 150.95 L 651.75 149.79 L 651.75 148.86 L 651.74 147.93 L 651.74 146.67 L 651.74 145.41 L 651.74 143.91 L 651.74 142.41 L 651.74 141.24 L 651.74 140.07 L 651.56 138.83 L 651.38 137.59 L 651.34 136.03 L 651.31 134.48 L 650.95 133.22 L 650.59 131.97 L 650.34 130.80 L 650.09 129.63 L 649.86 128.51 L 649.64 127.39 L 649.59 126.21 L 649.54 125.03 L 649.36 123.98 L 649.17 122.94 L 649.14 121.59 L 649.10 120.23 L 648.91 119.16 L 648.73 118.08 L 648.69 116.91 L 648.65 115.74 L 648.47 114.50 L 648.29 113.26 L 648.25 111.89 L 648.21 110.51 L 648.40 109.29 L 648.58 108.07 L 648.79 106.77 L 649.01 105.47 L 649.42 104.10 L 649.84 102.72 L 650.08 101.26 L 650.32 99.81 L 650.55 98.45 L 650.77 97.10 L 651.19 95.54 L 651.60 93.98 L 652.04 92.43 L 652.48 90.88 L 652.92 89.51 L 653.37 88.13 L 653.81 86.62 L 654.24 85.12 L 654.69 83.75 L 655.14 82.37 L 655.38 81.09 L 655.63 79.81 L 656.05 78.27 L 656.46 76.73 L 656.71 75.58 L 656.96 74.42 L 657.18 73.14 L 657.41 71.86 L 657.44 70.78 L 657.47 69.70 L 657.48 68.60 L 657.48 67.50 L 657.49 66.21 L 657.49 64.93 L 657.49 63.61 L 657.49 62.29 L 657.49 60.96 L 657.49 59.63 L 657.49 58.31 L 657.49 56.98 L 657.49 55.65 L 657.49 54.33 L 657.49 53.00 L 657.49 51.67 L 657.49 50.35 L 657.49 49.02 L 657.49 47.88 L 657.49 46.73 L 657.49 45.44 L 657.49 44.14 L 657.49 43.01 L 657.49 41.87 L 657.31 41.03 L 657.14 40.18 L 656.92 39.11 L 656.71 38.04 L 656.33 37.21 L 655.96 36.38 L 655.68 35.43 L 655.41 34.49 L 655.18 33.59 L 654.95 32.70 L 654.57 31.88 L 654.19 31.07 L 653.92 30.13 L 653.65 29.18 L 653.28 28.58 L 652.91 27.98 L 652.45 26.89 L 651.99 25.80 L 651.55 24.91 L 651.12 24.02 L 650.68 23.14 L 650.24 22.25 L 649.80 21.37 L 649.36 20.49 L 648.62 19.71 L 647.89 18.92 L 647.11 18.48 L 646.33 18.04 L 645.27 17.41 L 644.20 16.77 L 643.10 16.11 L 642.00 15.45 L 640.79 15.00 L 639.57 14.56 L 638.26 14.11 L 636.95 13.67 L 635.63 13.23 L 634.31 12.80 L 633.21 12.55 L 632.10 12.30 L 630.66 12.08 L 629.21 11.86 L 628.19 11.63 L 627.18 11.40 L 625.81 11.37 L 624.44 11.35 L 622.69 11.15 L 620.94 10.96 L 619.22 10.93 L 617.50 10.90 L 615.92 10.90 L 614.34 10.89 L 612.61 10.89 L 610.87 10.89 L 609.15 11.07 L 607.44 11.25 L 605.34 11.65 L 603.24 12.04 L 600.85 12.47 L 598.47 12.91 L 596.42 13.34 L 594.38 13.78 L 592.38 14.22 L 590.38 14.66 L 588.20 15.10 L 586.02 15.55 L 583.46 16.17 L 580.91 16.79 L 578.84 17.44 L 576.78 18.09 L 574.98 18.74 L 573.17 19.40 L 571.16 19.89 L 569.16 20.39 L 567.16 20.84 L 565.17 21.29 L 563.18 21.73 L 561.19 22.18 L 559.39 22.62 L 557.59 23.06 L 556.29 23.14 L 554.99 23.23 L 553.72 23.42 L 552.45 23.62 L 550.88 23.65 L 549.32 23.69 L 547.59 23.70 L 545.86 23.70 L 544.09 23.70 L 542.33 23.71 L 540.69 23.52 L 539.06 23.33 L 537.62 22.92 L 536.17 22.51 L 534.88 22.27 L 533.59 22.02 L 532.04 21.61 L 530.50 21.19 L 529.00 20.95 L 527.50 20.70 L 525.79 20.48 L 524.07 20.25 L 522.31 20.03 L 520.55 19.81 L 519.08 19.39 L 517.61 18.97 L 516.31 18.73 L 515.01 18.49 L 513.64 18.06 L 512.26 17.64 L 510.63 17.40 L 509.00 17.17 L 507.21 16.75 L 505.42 16.33 L 503.51 16.09 L 501.60 15.84 L 499.76 15.42 L 497.92 15.01 L 496.36 14.76 L 494.80 14.51 L 492.94 14.47 L 491.07 14.44 L 488.88 14.24 L 486.69 14.05 L 484.34 14.02 L 481.98 13.99 L 479.93 13.98 L 477.88 13.98 L 476.02 13.79 L 474.15 13.60 L 472.19 13.39 L 470.23 13.17 L 467.91 13.14 L 465.60 13.11 L 463.34 12.92 L 461.07 12.73 L 459.25 12.70 L 457.43 12.67 L 455.43 12.48 L 453.43 12.29 L 451.48 12.26 L 449.53 12.23 L 447.36 12.22 L 445.20 12.22 L 443.18 12.22 L 441.16 12.22 L 439.53 12.22 L 437.90 12.22 L 436.34 12.22 L 434.78 12.22 L 433.04 12.22 L 431.31 12.22 L 429.32 12.03 L 427.33 11.85 L 425.38 11.82 L 423.44 11.79 L 421.59 11.60 L 419.75 11.40 L 418.56 11.37 L 417.37 11.34 L 415.70 11.34 L 414.03 11.33 L 412.65 11.33 L 411.26 11.33 L 409.56 11.33 L 407.86 11.33 L 406.14 11.51 L 404.43 11.69 L 402.91 12.08 L 401.39 12.47 L 400.18 12.72 L 398.98 12.98 L 397.66 13.20 L 396.34 13.43 L 395.02 13.65 L 393.69 13.87 L 392.37 14.09 L 391.04 14.31 L 389.77 14.71 L 388.50 15.10 L 386.93 15.36 L 385.37 15.63 L 384.26 16.02 L 383.16 16.41 L 382.27 16.83 L 381.38 17.25 L 380.42 17.53 L 379.46 17.82 L 378.47 17.88 L 377.49 17.94 L 376.59 17.94 L 375.69 17.95 L 374.89 18.13 L 374.09 18.30 L 373.13 18.34 L 372.17 18.38 L 371.27 18.39 L 370.37 18.40 L 369.23 18.21 L 368.09 18.02 L 367.04 17.99 L 366.00 17.97 L 364.77 17.57 L 363.54 17.18 L 362.48 16.94 L 361.42 16.71 L 360.49 16.48 L 359.56 16.25 L 358.59 15.82 L 357.62 15.39 L 356.80 15.16 L 355.98 14.93 L 354.87 14.51 L 353.78 14.09 L 352.74 13.85 L 351.70 13.61 L 350.67 13.58 L 349.65 13.55 L 348.72 13.54 L 347.78 13.52 L 347.47 13.35 L 347.15 13.17 L 347.05 13.15 L 346.94 13.14 L 346.84 13.10 L 346.74 13.07 L 346.66 13.01 L 346.57 12.95 L 346.50 12.87 L 346.43 12.79 L 346.38 12.70 L 346.33 12.60 L 346.31 12.50 L 346.28 12.40 L 346.28 12.29 L 346.28 12.18 L 346.31 12.08 L 346.34 11.98 L 346.39 11.88 L 346.44 11.79 L 346.51 11.71 L 346.58 11.63 L 346.67 11.57 L 346.76 11.51 L 346.85 11.48 L 346.95 11.44 L 347.06 11.43 L 347.17 11.42 L 350.67 11.93 L 354.16 12.45 L 354.26 12.48 L 354.37 12.51 L 354.45 12.57 L 354.54 12.63 L 354.60 12.72 L 354.67 12.80 L 354.70 12.90 L 354.73 13.00 L 354.73 13.10 L 354.73 13.21 L 354.70 13.31 L 354.66 13.41 L 354.60 13.49 L 354.53 13.58 L 354.44 13.63 L 354.36 13.69 L 354.25 13.72 L 354.15 13.75 L 354.05 13.74 L 353.95 13.74 L 353.85 13.70 L 353.75 13.65 L 353.67 13.59 L 353.59 13.52 L 353.54 13.42 L 353.48 13.33 L 353.46 13.23 L 353.44 13.13 L 353.45 13.03 L 353.46 12.92 L 353.51 12.83 L 353.55 12.73 L 353.63 12.66 L 353.70 12.58 L 353.80 12.53 L 353.89 12.48 L 354.00 12.46 L 354.09 12.45 L 354.19 12.47 L 354.30 12.48 L 354.39 12.53 L 354.49 12.59 L 354.56 12.66 L 354.63 12.74 L 354.09 13.98 L 354.09 13.98 L 354.09 13.98 L 354.19 13.96 L 354.30 13.95 L 354.39 13.91 L 354.49 13.87 L 354.58 13.81 L 354.67 13.75 L 354.74 13.67 L 354.81 13.60 L 354.86 13.50 L 354.91 13.41 L 354.93 13.30 L 354.96 13.20 L 354.96 13.10 L 354.96 13.00 L 354.93 12.90 L 354.91 12.79 L 354.86 12.70 L 354.81 12.60 L 354.74 12.53 L 354.67 12.45 L 354.58 12.39 L 354.49 12.33 L 354.39 12.29 L 354.30 12.25 L 354.19 12.24 L 354.09 12.22 L 352.99 12.22 L 351.89 12.22 L 351.28 12.22 L 350.66 12.22 L 349.64 12.44 L 348.63 12.66 L 347.73 13.10 L 346.83 13.54 L 345.96 13.76 L 345.10 13.97 L 344.36 13.98 L 343.63 13.99 L 343.04 14.20 L 342.46 14.41 L 341.69 14.42 L 340.93 14.42 L 340.07 14.43 L 339.21 14.43 L 338.62 14.64 L 338.03 14.86 L 336.90 14.86 L 335.77 14.87 L 335.00 15.07 L 334.23 15.27 L 333.66 15.28 L 333.10 15.30 L 332.45 15.30 L 331.80 15.31 L 331.02 15.51 L 330.25 15.71 L 329.68 15.72 L 329.12 15.74 L 328.47 15.75 L 327.82 15.75 L 327.16 15.75 L 326.50 15.75 L 325.84 15.75 L 325.18 15.75 L 324.06 15.75 L 322.95 15.75 L 322.29 15.75 L 321.64 15.75 L 320.79 15.75 L 319.94 15.75 L 318.97 15.95 L 318.01 16.14 L 317.11 16.36 L 316.22 16.57 L 315.42 16.60 L 314.62 16.62 L 313.75 16.63 L 312.88 16.63 L 311.89 16.46 L 310.90 16.28 L 309.87 15.90 L 308.85 15.53 L 307.55 15.09 L 306.26 14.65 L 304.98 14.04 L 303.71 13.44 L 302.76 12.98 L 301.80 12.51 L 300.29 12.04 L 298.78 11.56 L 296.81 11.29 L 294.84 11.01 L 292.67 10.78 L 290.50 10.55 L 288.26 10.51 L 286.02 10.47 L 284.03 10.28 L 282.03 10.09 L 280.23 9.88 L 278.43 9.67 L 276.24 9.63 L 274.05 9.59 L 271.66 9.58 L 269.27 9.57 L 267.22 9.57 L 265.16 9.57 L 263.16 9.57 L 261.15 9.57 L 258.94 9.76 L 256.73 9.94 L 254.55 9.97 L 252.38 10.00 L 250.17 10.01 L 247.97 10.01 L 246.13 10.01 L 244.28 10.01 L 242.46 10.20 L 240.63 10.38 L 238.53 10.41 L 236.43 10.44 L 234.20 10.63 L 231.97 10.82 L 229.93 11.04 L 227.90 11.26 L 226.31 11.29 L 224.71 11.33 L 223.11 11.52 L 221.50 11.71 L 219.73 12.12 L 217.95 12.53 L 216.00 12.96 L 214.06 13.38 L 212.08 13.83 L 210.09 14.27 L 208.45 14.71 L 206.81 15.16 L 205.71 15.22 L 204.60 15.28 L 203.26 15.48 L 201.91 15.68 L 200.41 15.90 L 198.91 16.12 L 197.15 16.53 L 195.38 16.94 L 193.62 17.37 L 191.85 17.81 L 190.04 18.45 L 188.23 19.09 L 187.00 19.56 L 185.77 20.04 L 184.70 20.29 L 183.64 20.53 L 182.31 20.95 L 180.99 21.37 L 179.49 21.81 L 178.00 22.24 L 176.46 22.68 L 174.92 23.12 L 173.42 23.37 L 171.93 23.62 L 170.73 23.85 L 169.54 24.08 L 168.67 24.11 L 167.80 24.14 L 166.95 24.15 L 166.10 24.16 L 165.58 23.84 L 165.06 23.52 L 164.20 23.09 L 163.34 22.66 L 162.30 22.05 L 161.26 21.44 L 159.91 20.93 L 158.56 20.42 L 157.43 19.98 L 156.30 19.54 L 154.79 19.08 L 153.28 18.62 L 152.14 18.19 L 151.00 17.76 L 149.89 17.32 L 148.78 16.88 L 148.02 16.62 L 147.26 16.35 L 146.37 16.11 L 145.48 15.88 L 144.59 15.65 L 143.71 15.43 L 142.48 15.03 L 141.26 14.63 L 139.89 14.37 L 138.53 14.10 L 137.20 13.87 L 135.86 13.65 L 134.53 13.42 L 133.21 13.20 L 132.07 12.99 L 130.94 12.77 L 130.03 12.56 L 129.12 12.34 L 128.03 12.11 L 126.94 11.89 L 126.04 11.67 L 125.14 11.46 L 123.85 11.23 L 122.57 11.00 L 121.25 10.78 L 119.93 10.56 L 118.36 10.51 L 116.79 10.47 L 115.43 10.46 L 114.06 10.46 L 112.98 10.28 L 111.90 10.10 L 110.91 10.06 L 109.93 10.03 L 109.03 10.02 L 108.12 10.02 L 107.32 9.84 L 106.52 9.66 L 105.38 9.62 L 104.23 9.58 L 103.12 9.58 L 102.01 9.57 L 100.48 9.76 L 98.96 9.94 L 97.65 9.97 L 96.34 10.00 L 94.96 10.19 L 93.58 10.39 L 92.48 10.41 L 91.39 10.44 L 90.21 10.64 L 89.04 10.83 L 88.09 11.05 L 87.14 11.28 L 86.17 11.71 L 85.20 12.14 L 84.04 12.36 L 82.88 12.58 L 81.52 13.00 L 80.16 13.41 L 78.89 13.65 L 77.61 13.90 L 76.29 14.12 L 74.97 14.35 L 73.76 14.77 L 72.54 15.19 L 71.42 15.64 L 70.29 16.08 L 69.34 16.53 L 68.39 16.98 L 67.49 17.43 L 66.60 17.87 L 65.45 18.10 L 64.30 18.32 L 63.11 18.75 L 61.92 19.17 L 60.69 19.41 L 59.46 19.65 L 58.15 19.87 L 56.84 20.10 L 55.62 20.52 L 54.41 20.94 L 53.51 21.19 L 52.62 21.43 L 51.50 21.85 L 50.38 22.28 L 49.50 22.52 L 48.63 22.76 L 47.68 23.19 L 46.73 23.62 L 45.81 23.65 L 44.89 23.69 L 43.74 23.89 L 42.59 24.09 L 41.48 24.31 L 40.37 24.53 L 39.09 24.74 L 37.81 24.96 L 36.73 24.99 L 35.65 25.03 L 34.65 25.22 L 33.65 25.42 L 32.83 25.45 L 32.01 25.47 L 31.32 25.48 L 30.63 25.48 L 29.96 25.48 L 29.30 25.48 L 28.35 25.68 L 27.41 25.87 L 26.45 26.30 L 25.48 26.73 L 24.53 27.38 L 23.58 28.04 L 22.74 28.49 L 21.90 28.93 L 21.02 29.37 L 20.15 29.82 L 19.26 30.26 L 18.38 30.70 L 17.72 30.94 L 17.06 31.18 L 16.32 31.63 L 15.57 32.08 L 15.02 32.57 L 14.48 33.05 L 13.89 33.46 L 13.30 33.86 L 12.77 34.36 L 12.24 34.85 L 11.88 35.62 L 11.52 36.38 L 11.28 37.06 L 11.04 37.75 L 10.81 38.62 L 10.57 39.50 L 10.36 40.18 L 10.14 40.86 L 10.09 41.82 L 10.03 42.78 L 10.02 43.86 L 10.01 44.94 L 10.01 46.22 L 10.01 47.51 L 10.01 48.64 L 10.01 49.78 L 10.01 50.89 L 10.01 52.00 L 10.01 53.11 L 10.01 54.22 L 10.01 55.14 L 10.01 56.06 L 10.01 56.95 L 10.01 57.84 L 9.84 58.84 L 9.66 59.83 L 9.62 60.81 L 9.58 61.78 L 9.58 63.05 L 9.57 64.32 L 9.39 65.38 L 9.21 66.45 L 9.18 67.99 L 9.14 69.52 L 9.14 70.88 L 9.13 72.24 L 9.13 73.58 L 9.13 74.91 L 9.31 76.47 L 9.50 78.04 L 9.72 79.76 L 9.93 81.49 L 10.15 83.08 L 10.37 84.66 L 10.59 86.39 L 10.81 88.12 L 11.03 89.89 L 11.26 91.65 L 11.48 93.24 L 11.70 94.83 L 11.92 96.56 L 12.14 98.29 L 12.17 100.19 L 12.21 102.10 L 12.21 104.07 L 12.22 106.05 L 12.41 107.90 L 12.59 109.74 L 12.62 111.48 L 12.65 113.22 L 12.66 114.98 L 12.66 116.75 L 12.66 118.33 L 12.67 119.92 L 12.67 121.84 L 12.67 123.76 L 12.67 125.74 L 12.67 127.72 L 12.48 129.66 L 12.30 131.61 L 12.09 133.60 L 11.87 135.58 L 11.66 137.38 L 11.44 139.18 L 11.21 140.95 L 10.99 142.73 L 10.77 144.69 L 10.55 146.65 L 10.33 148.44 L 10.11 150.24 L 9.89 152.01 L 9.67 153.79 L 9.63 155.60 L 9.59 157.42 L 9.58 159.38 L 9.57 161.34 L 9.57 163.14 L 9.57 164.94 L 9.57 166.72 L 9.57 168.49 L 9.57 169.89 L 9.57 171.30 L 9.57 173.00 L 9.57 174.71 L 9.57 176.47 L 9.57 178.23 L 9.57 179.99 L 9.57 181.76 L 9.57 183.35 L 9.57 184.93 L 9.57 186.30 L 9.57 187.67 L 9.57 188.82 L 9.57 189.98 L 9.76 191.34 L 9.95 192.69 L 10.36 193.91 L 10.78 195.13 L 11.02 196.37 L 11.25 197.60 L 11.68 198.81 L 12.11 200.01 L 12.54 201.29 L 12.98 202.58 L 13.43 203.58 L 13.89 204.58 L 14.33 205.64 L 14.76 206.70 L 15.41 207.85 L 16.06 209.00 L 16.51 210.23 L 16.95 211.45 L 17.40 212.60 L 17.85 213.74 L 18.29 215.02 L 18.72 216.29 L 18.97 217.39 L 19.22 218.48 L 19.44 219.75 L 19.66 221.03 L 19.69 222.28 L 19.73 223.54 L 19.92 224.74 L 20.12 225.95 L 20.15 227.00 L 20.17 228.05 L 20.18 229.33 L 20.18 230.61 L 20.01 231.67 L 19.83 232.74 L 19.79 234.09 L 19.76 235.45 L 19.57 236.72 L 19.39 237.99 L 19.35 239.55 L 19.31 241.11 L 19.31 242.48 L 19.30 243.86 L 19.69 245.13 L 20.08 246.41 L 20.53 247.40 L 20.98 248.38 L 21.67 249.19 L 22.36 250.00 L 23.26 250.73 L 24.15 251.45 L 25.09 251.97 L 26.03 252.50 L 26.87 253.10 L 27.71 253.71 L 28.64 254.21 L 29.57 254.71 L 30.47 255.17 L 31.36 255.62 L 32.20 256.21 L 33.03 256.81 L 34.58 257.34 L 36.12 257.87 L 37.67 258.32 L 39.21 258.77 L 41.15 259.22 L 43.08 259.67 L 45.10 259.94 L 47.12 260.21 L 48.88 260.61 L 50.65 261.01 L 52.46 261.27 L 54.27 261.53 L 56.23 261.76 L 58.20 261.99 L 60.22 262.03 L 62.25 262.07 L 64.61 262.08 L 66.98 262.09 L 68.89 261.90 L 70.80 261.72 L 72.42 261.50 L 74.04 261.29 L 75.78 261.07 L 77.51 260.85 L 79.42 260.81 L 81.32 260.78 L 83.15 260.59 L 84.99 260.39 L 86.95 260.18 L 88.91 259.96 L 90.54 259.74 L 92.17 259.52 L 94.17 258.91 L 96.16 258.31 L 98.50 257.66 L 100.83 257.02 L 103.25 256.36 L 105.67 255.70 L 107.75 255.03 L 109.83 254.36 L 111.80 253.89 L 113.77 253.42 L 116.32 252.78 L 118.86 252.15 L 121.29 251.68 L 123.72 251.21 L 125.97 250.76 L 128.23 250.31 L 130.23 250.06 L 132.24 249.81 L 134.19 249.76 L 136.14 249.72 L 138.46 249.90 L 140.77 250.07 L 143.19 250.29 L 145.60 250.50 L 147.23 250.89 L 148.87 251.29 L 150.66 251.55 L 152.46 251.81 L 154.57 252.21 L 156.69 252.62 L 158.88 253.05 L 161.08 253.49 L 163.25 254.11 L 165.43 254.72 L 167.24 255.37 L 169.06 256.02 L 170.84 256.68 L 172.61 257.34 L 174.97 258.01 L 177.32 258.69 L 179.96 259.18 L 182.60 259.67 L 184.71 259.94 L 186.83 260.20 L 188.85 260.43 L 190.86 260.66 L 193.20 261.07 L 195.53 261.47 L 197.98 261.72 L 200.43 261.98 L 202.68 262.21 L 204.93 262.43 L 206.77 262.66 L 208.61 262.88 L 210.44 262.92 L 212.26 262.96 L 214.59 262.96 L 216.92 262.97 L 219.15 262.97 L 221.38 262.97 L 223.05 262.97 L 224.71 262.97 L 226.28 262.97 L 227.85 262.97 L 229.40 262.97 L 230.95 262.97 L 232.91 262.79 L 234.87 262.60 L 236.81 262.57 L 238.75 262.54 L 240.73 262.54 L 242.72 262.53 L 244.34 262.53 L 245.96 262.53 L 247.57 262.35 L 249.18 262.16 L 251.28 261.94 L 253.37 261.73 L 255.60 261.32 L 257.83 260.91 L 259.86 260.48 L 261.90 260.04 L 263.68 259.78 L 265.46 259.53 L 266.88 259.30 L 268.30 259.08 L 269.99 258.86 L 271.69 258.63 L 273.66 258.22 L 275.64 257.81 L 277.59 257.57 L 279.54 257.32 L 281.38 256.90 L 283.23 256.49 L 284.84 256.04 L 286.45 255.60 L 287.73 255.54 L 289.01 255.48 L 290.69 255.47 L 292.37 255.46 L 294.49 255.46 L 296.61 255.46 L 298.63 255.46 L 300.64 255.46 L 302.45 255.46 L 304.26 255.46 L 306.04 255.46 L 307.81 255.46 L 309.81 255.27 L 311.80 255.08 L 313.94 255.06 L 316.07 255.03 L 317.90 255.02 L 319.73 255.01 L 321.23 255.37 L 322.73 255.73 L 324.07 256.15 L 325.41 256.57 L 326.74 257.00 L 328.06 257.44 L 329.45 257.71 L 330.83 257.99 L 332.50 258.39 L 334.18 258.80 L 335.73 259.23 L 337.29 259.67 L 338.64 260.10 L 340.00 260.54 L 341.18 260.81 L 342.37 261.08 L 343.44 261.47 L 344.50 261.87 L 345.91 261.96 L 347.33 262.06 L 348.80 262.25 L 350.27 262.44 L 351.61 262.66 L 352.96 262.87 L 354.61 263.27 L 356.28 263.67 L 357.84 264.10 L 359.40 264.53 L 360.95 264.97 L 362.50 265.41 L 363.90 265.68 L 365.31 265.95 L 367.08 266.00 L 368.85 266.05 L 370.84 265.87 L 372.83 265.70 L 374.60 265.67 L 376.36 265.64 L 377.76 265.63 L 379.16 265.63 L 380.56 265.44 L 381.96 265.25 L 383.19 264.83 L 384.42 264.42 L 385.88 263.99 L 387.34 263.56 L 388.87 263.12 L 390.41 262.68 L 391.95 262.24 L 393.50 261.79 L 395.05 261.35 L 396.59 260.91 L 397.92 260.66 L 399.25 260.41 L 400.52 259.77 L 401.78 259.14 L 403.03 258.69 L 404.27 258.25 L 405.96 257.62 L 407.66 256.98 L 409.58 256.33 L 411.51 255.68 L 413.49 255.02 L 415.47 254.35 L 417.29 253.69 L 419.11 253.02 L 420.50 252.54 L 421.90 252.07 L 423.53 251.82 L 425.17 251.57 L 426.92 251.35 L 428.66 251.12 L 429.90 250.89 L 431.14 250.67 L 432.62 250.45 L 434.10 250.23 L 435.63 250.01 L 437.17 249.79 L 438.30 249.75 L 439.43 249.72 L 440.72 249.71 L 442.01 249.71 L 443.51 249.71 L 445.02 249.71 L 446.70 249.89 L 448.37 250.07 L 450.54 250.10 L 452.71 250.14 L 454.73 250.14 L 456.75 250.15 L 458.52 250.33 L 460.28 250.51 L 462.24 250.72 L 464.20 250.94 L 466.56 251.16 L 468.91 251.38 L 471.11 251.78 L 473.31 252.18 L 475.49 252.79 L 477.66 253.40 L 479.71 253.88 L 481.76 254.35 L 483.95 254.80 L 486.14 255.25 L 488.35 255.70 L 490.55 256.14 L 492.61 256.41 L 494.67 256.67 L 496.29 256.90 L 497.92 257.12 L 499.29 257.34 L 500.66 257.56 L 502.37 257.79 L 504.09 258.01 L 506.04 258.23 L 507.98 258.46 L 509.78 258.68 L 511.57 258.90 L 513.35 259.12 L 515.12 259.34 L 516.57 259.38 L 518.01 259.42 L 519.30 259.61 L 520.59 259.79 L 522.16 259.83 L 523.72 259.86 L 525.41 260.05 L 527.09 260.24 L 528.85 260.45 L 530.61 260.67 L 532.18 260.89 L 533.76 261.11 L 535.12 261.33 L 536.48 261.55 L 537.82 261.77 L 539.15 261.99 L 540.67 262.21 L 542.19 262.43 L 543.78 262.47 L 545.38 262.52 L 547.26 262.70 L 549.14 262.89 L 550.78 262.93 L 552.43 262.96 L 553.81 262.97 L 555.19 262.97 L 556.53 262.97 L 557.87 262.97 L 559.38 262.97 L 560.89 262.97 L 562.43 262.97 L 563.97 262.97 L 565.75 262.79 L 567.53 262.60 L 569.30 262.39 L 571.07 262.17 L 572.88 261.76 L 574.70 261.35 L 576.18 260.70 L 577.66 260.06 L 579.17 259.40 L 580.69 258.75 L 582.61 257.90 L 584.52 257.05 L 586.30 256.37 L 588.07 255.68 L 589.84 255.01 L 591.61 254.35 L 593.05 253.67 L 594.48 252.99 L 595.83 252.32 L 597.18 251.66 L 598.46 251.20 L 599.74 250.73 L 601.78 250.11 L 603.82 249.48 L 605.45 249.01 L 607.08 248.54 L 608.81 248.09 L 610.55 247.65 L 611.97 247.20 L 613.39 246.75 L 614.26 246.69 L 615.14 246.64 L 616.01 246.63 L 616.88 246.62 L 617.76 246.61 L 618.64 246.61 L 619.63 246.79 L 620.63 246.96 L 621.65 247.34 L 622.68 247.72 L 623.77 248.15 L 624.86 248.58 L 625.83 248.85 L 626.79 249.12 L 627.40 249.49 L 628.00 249.86 L 628.74 250.15 L 629.47 250.43 L 630.07 250.80 L 630.66 251.18 L 631.40 251.47 L 632.14 251.76 L 632.93 251.83 L 633.71 251.90 L 634.28 251.88 L 634.85 251.87 L 635.52 251.43 L 636.18 250.98 L 636.66 250.53 L 637.13 250.08 L 637.57 249.63 L 638.02 249.19 L 638.46 248.74 L 638.91 248.30 L 639.39 247.62 L 639.88 246.94 L 640.61 246.37 L 641.34 245.80 L 642.20 245.14 L 643.06 244.49 L 644.10 243.85 L 645.13 243.21 L 646.26 242.34 L 647.40 241.47 L 648.51 240.58 L 649.62 239.70 L 650.62 238.37 L 651.62 237.03 L 652.54 235.50 L 653.45 233.97 L 654.00 232.54 L 654.55 231.12 L 655.01 229.97 L 655.46 228.82 L 655.57 227.58 L 655.68 226.34 L 655.87 225.28 L 656.06 224.22 L 656.10 223.05 L 656.14 221.88 L 656.14 220.58 L 656.15 219.28 L 656.33 217.83 L 656.51 216.38 L 656.55 214.79 L 656.58 213.21 L 656.77 211.52 L 656.95 209.83 L 657.17 208.07 L 657.38 206.31 L 657.60 204.36 L 657.83 202.40 L 658.23 200.26 L 658.62 198.13 L 658.88 196.08 L 659.14 194.04 L 659.18 192.00 L 659.23 189.96 L 659.42 188.00 L 659.61 186.04 L 659.64 184.38 L 659.68 182.73 L 659.68 180.97 L 659.69 179.22 L 659.69 177.64 L 659.69 176.06 L 659.50 174.63 L 659.31 173.20 L 658.90 171.80 L 658.49 170.39 L 657.85 169.01 L 657.21 167.62 L 656.95 166.39 L 656.69 165.15 L 656.27 163.79 L 655.84 162.43 L 655.79 161.20 L 655.73 159.97 L 655.33 158.88 L 654.92 157.79 L 654.69 156.77 L 654.46 155.75 L 654.24 154.66 L 654.02 153.57 L 653.79 152.63 L 653.57 151.70 L 653.54 150.71 L 653.51 149.72 L 653.51 148.82 L 653.50 147.91 L 653.50 146.66 L 653.50 145.41 L 653.50 143.91 L 653.50 142.41 L 653.50 141.24 L 653.50 140.06 L 653.31 138.70 L 653.12 137.34 L 653.10 135.88 L 653.07 134.43 L 652.68 132.97 L 652.29 131.50 L 652.05 130.38 L 651.81 129.26 L 651.59 128.15 L 651.36 127.04 L 651.33 126.01 L 651.30 124.97 L 651.11 123.81 L 650.91 122.64 L 650.88 121.41 L 650.86 120.19 L 650.66 118.99 L 650.47 117.79 L 650.44 116.74 L 650.42 115.69 L 650.22 114.35 L 650.03 113.01 L 650.00 111.74 L 649.97 110.47 L 650.15 109.41 L 650.32 108.34 L 650.53 107.05 L 650.75 105.76 L 651.14 104.50 L 651.53 103.23 L 651.79 101.67 L 652.06 100.10 L 652.28 98.74 L 652.51 97.39 L 652.91 95.91 L 653.30 94.44 L 653.74 92.90 L 654.17 91.36 L 654.61 90.02 L 655.04 88.67 L 655.49 87.14 L 655.94 85.61 L 656.37 84.26 L 656.81 82.92 L 657.08 81.53 L 657.36 80.15 L 657.76 78.67 L 658.16 77.19 L 658.42 75.99 L 658.68 74.80 L 658.91 73.48 L 659.14 72.16 L 659.19 70.96 L 659.23 69.76 L 659.24 68.64 L 659.25 67.51 L 659.25 66.22 L 659.25 64.93 L 659.25 63.61 L 659.25 62.29 L 659.25 60.96 L 659.25 59.63 L 659.25 58.31 L 659.25 56.98 L 659.25 55.65 L 659.25 54.33 L 659.25 53.00 L 659.25 51.67 L 659.25 50.35 L 659.25 49.02 L 659.25 47.88 L 659.25 46.73 L 659.25 45.44 L 659.25 44.14 L 659.25 43.00 L 659.25 41.86 L 659.06 40.85 L 658.86 39.84 L 658.65 38.76 L 658.43 37.68 L 658.00 36.68 L 657.57 35.67 L 657.34 34.84 L 657.11 34.01 L 656.88 33.13 L 656.66 32.25 L 656.23 31.30 L 655.80 30.34 L 655.57 29.51 L 655.33 28.69 L 654.88 27.89 L 654.43 27.09 L 654.02 26.11 L 653.61 25.12 L 653.16 24.19 L 652.71 23.26 L 652.26 22.36 L 651.82 21.47 L 651.37 20.58 L 650.93 19.69 L 650.05 18.71 L 649.17 17.72 L 648.20 17.13 L 647.23 16.53 L 646.17 15.89 L 645.10 15.25 L 644.00 14.60 L 642.90 13.94 L 641.54 13.42 L 640.18 12.92 L 638.85 12.47 L 637.52 12.01 L 636.19 11.57 L 634.86 11.12 L 633.68 10.85 L 632.49 10.58 L 630.98 10.35 L 629.48 10.12 L 628.52 9.90 L 627.56 9.68 L 626.02 9.63 L 624.49 9.59 L 622.81 9.40 L 621.13 9.21 L 619.33 9.18 L 617.53 9.14 L 615.94 9.14 L 614.35 9.13 L 612.61 9.13 L 610.87 9.13 L 609.06 9.31 L 607.25 9.50 L 605.08 9.90 L 602.91 10.31 L 600.53 10.74 L 598.15 11.18 L 596.08 11.62 L 594.01 12.06 L 592.01 12.51 L 590.00 12.95 L 587.83 13.38 L 585.67 13.82 L 583.08 14.45 L 580.49 15.08 L 578.37 15.74 L 576.25 16.41 L 574.41 17.08 L 572.57 17.75 L 570.66 18.21 L 568.74 18.68 L 566.76 19.12 L 564.78 19.57 L 562.79 20.01 L 560.81 20.46 L 558.99 20.90 L 557.18 21.35 L 556.03 21.41 L 554.88 21.47 L 553.53 21.67 L 552.19 21.87 L 550.73 21.90 L 549.28 21.93 L 547.57 21.94 L 545.85 21.94 L 544.09 21.94 L 542.33 21.94 L 540.80 21.76 L 539.26 21.58 L 537.96 21.20 L 536.67 20.82 L 535.29 20.55 L 533.91 20.29 L 532.44 19.89 L 530.96 19.49 L 529.37 19.23 L 527.79 18.96 L 526.04 18.74 L 524.30 18.51 L 522.53 18.28 L 520.77 18.06 L 519.44 17.67 L 518.10 17.28 L 516.72 17.02 L 515.34 16.76 L 514.06 16.36 L 512.78 15.96 L 511.02 15.69 L 509.26 15.42 L 507.54 15.02 L 505.82 14.62 L 503.83 14.36 L 501.83 14.09 L 500.07 13.69 L 498.31 13.29 L 496.69 13.04 L 495.07 12.78 L 493.09 12.73 L 491.11 12.68 L 488.98 12.50 L 486.84 12.31 L 484.43 12.27 L 482.01 12.24 L 479.94 12.23 L 477.88 12.23 L 476.11 12.04 L 474.33 11.86 L 472.37 11.65 L 470.42 11.43 L 468.02 11.39 L 465.63 11.35 L 463.43 11.17 L 461.22 10.98 L 459.34 10.94 L 457.46 10.91 L 455.53 10.72 L 453.60 10.54 L 451.58 10.50 L 449.56 10.47 L 447.38 10.46 L 445.20 10.46 L 443.18 10.46 L 441.16 10.46 L 439.53 10.46 L 437.90 10.46 L 436.34 10.46 L 434.78 10.46 L 433.04 10.46 L 431.31 10.46 L 429.40 10.27 L 427.50 10.09 L 425.48 10.06 L 423.46 10.03 L 421.70 9.84 L 419.93 9.65 L 418.67 9.62 L 417.41 9.58 L 415.73 9.58 L 414.04 9.57 L 412.65 9.57 L 411.26 9.57 L 409.56 9.57 L 407.86 9.57 L 406.05 9.76 L 404.25 9.94 L 402.60 10.35 L 400.96 10.76 L 399.79 11.01 L 398.62 11.26 L 397.33 11.48 L 396.04 11.70 L 394.72 11.92 L 393.40 12.15 L 392.07 12.37 L 390.75 12.59 L 389.37 13.01 L 387.99 13.41 L 386.53 13.65 L 385.07 13.89 L 383.83 14.32 L 382.58 14.75 L 381.61 15.20 L 380.63 15.66 L 379.81 15.89 L 378.98 16.12 L 378.19 16.15 L 377.40 16.18 L 376.53 16.19 L 375.67 16.19 L 374.70 16.39 L 373.73 16.58 L 372.92 16.60 L 372.11 16.62 L 371.24 16.63 L 370.37 16.64 L 369.37 16.46 L 368.38 16.28 L 367.23 16.25 L 366.07 16.21 L 365.09 15.86 L 364.11 15.51 L 362.96 15.25 L 361.81 14.99 L 360.89 14.77 L 359.98 14.54 L 359.17 14.17 L 358.35 13.79 L 357.41 13.51 L 356.46 13.24 L 355.43 12.85 L 354.39 12.45 L 353.25 12.18 L 352.09 11.91 L 350.90 11.85 L 349.72 11.80 L 348.81 11.80 L 347.89 11.80 L 347.53 11.61 L 347.17 11.42 L 347.06 11.43 L 346.95 11.44 L 346.85 11.48 L 346.76 11.51 L 346.67 11.57 L 346.58 11.63 L 346.51 11.71 L 346.44 11.79 L 346.39 11.88 L 346.34 11.98 L 346.31 12.08 L 346.28 12.18 L 346.28 12.29 L 346.28 12.40 L 346.31 12.50 L 346.33 12.60 L 346.38 12.70 L 346.43 12.79 L 346.50 12.87 L 346.57 12.95 L 346.66 13.01 L 346.74 13.07 L 346.84 13.10 L 346.94 13.14 L 347.05 13.15 L 347.15 13.17 L 350.59 13.46 L 354.02 13.75 L 354.02 13.75 L 354.02 13.75 L 354.11 13.74 L 354.22 13.74 L 354.32 13.70 L 354.42 13.66 L 354.50 13.59 L 354.58 13.52 L 354.64 13.43 L 354.69 13.34 L 354.72 13.24 L 354.74 13.14 L 354.73 13.04 L 354.72 12.93 L 354.68 12.84 Z"/></svg>
