<svg xmlns="http://www.w3.org/2000/svg" viewBox="8.13 8.13 652.56 258.92" width="652.56" height="258.92" xmlns:v="https://vecta.io/nano"><path fill="#1e1e1e" d="M354.087 13.976q0 0-1.1 0-1.1 0-1.71 0-.62 0-1.3.14-.67.15-1.54.58-.87.43-1.45.5-.59.08-1.48.3-.9.23-1.66.39-.75.16-1.52.22-.76.06-1.49.07-.73.01-1.45.16-.72.15-1.48.21-.76.07-1.43.07-.68.01-1.23.18-.55.16-1.31.21-.76.05-1.44.05-.67.01-1.23.18-.55.17-1.31.21-.76.05-1.44.06-.68 0-1.35 0-.67 0-1.33 0-.66 0-1.78 0-1.11 0-1.77 0-.65 0-1.5 0-.84 0-1.63.18-.79.17-1.66.38-.87.22-1.84.26-.97.05-1.87.06-.9.01-2.05-.18-1.14-.19-2.32-.61-1.17-.42-2.45-.85-1.28-.43-2.65-1.08-1.36-.64-2.33-1.11-.96-.48-2.35-.9-1.38-.42-3.21-.66-1.83-.24-3.97-.47-2.14-.23-4.31-.26-2.16-.04-4.22-.23-2.06-.19-3.89-.41-1.82-.22-3.92-.25-2.1-.03-4.47-.04-2.38-.01-4.44-.01-2.05 0-4.06 0-2 0-4.14.18-2.13.19-4.37.22-2.24.03-4.45.04-2.22 0-4.06 0-1.85 0-3.58.19-1.74.18-3.92.21-2.17.03-4.34.22-2.17.19-4.19.4-2.01.22-3.68.26-1.67.04-3.18.21-1.52.19-3.21.58-1.69.39-3.64.83-1.95.43-3.93.87-1.98.45-3.59.88-1.6.44-2.88.53-1.28.09-2.55.28-1.26.19-2.77.41-1.51.22-3.2.61-1.69.4-3.44.84-1.76.43-3.48 1.04-1.73.62-2.94 1.08-1.2.47-2.39.76-1.18.28-2.44.68-1.26.4-2.77.84-1.52.44-3.06.89-1.54.44-3.14.71-1.59.27-2.76.49-1.18.23-2.17.27-1 .05-1.94.05-.93 0-1.81-.41-.89-.41-1.74-.83-.84-.43-1.93-1.07-1.09-.63-2.3-1.07-1.21-.44-2.36-.9-1.14-.45-2.59-.88-1.44-.43-2.64-.88-1.19-.45-2.32-.9-1.12-.44-1.84-.69-.73-.26-1.55-.47-.83-.22-1.71-.44-.87-.22-2.15-.64-1.28-.41-2.54-.65-1.26-.24-2.58-.46-1.31-.23-2.64-.45-1.32-.22-2.48-.44-1.15-.23-2.1-.45-.95-.23-2.01-.45-1.06-.21-1.99-.44-.93-.22-2.16-.43-1.23-.21-2.55-.43-1.31-.23-2.75-.26-1.45-.03-2.8-.03-1.35-.01-2.57-.2-1.21-.19-2.08-.22-.88-.02-1.76-.03-.88 0-1.85-.2-.97-.19-1.97-.21-.99-.03-2.08-.03-1.08-.01-2.5.17-1.42.18-2.81.22-1.4.03-2.68.22-1.28.18-2.47.22-1.19.03-2.24.22-1.05.18-1.95.39-.89.21-1.71.58-.81.37-2.16.66-1.34.28-2.61.68-1.27.39-2.65.66-1.37.27-2.7.49-1.34.23-2.41.62-1.07.38-2.17.82-1.1.43-1.99.86-.89.42-1.78.86-.89.44-2.25.74-1.35.29-2.42.69-1.07.39-2.43.66-1.36.27-2.69.5-1.33.23-2.4.62-1.07.38-2.03.65-.96.26-2 .66-1.03.39-1.99.66-.95.26-1.79.65-.83.39-2.04.5-1.22.1-2.27.29-1.05.19-2.15.41-1.1.21-2.4.44-1.3.22-2.49.26-1.2.05-2.05.23-.86.18-1.82.22-.96.04-1.68.05-.71 0-1.38 0-.67 0-1.43.18-.76.17-1.55.54-.79.37-1.6.95-.82.58-1.74 1.07-.93.5-1.83.96-.89.45-1.78.89-.88.45-1.63.72-.74.28-1.33.65-.59.38-1.01.77-.42.39-1.09.86-.68.48-1.1.87-.42.39-.8 1.51-.39 1.11-.6 1.93-.21.81-.44 1.52-.23.72-.24 1.46-.02.74-.03 1.78 0 1.05-.01 2.33 0 1.28 0 2.42 0 1.13 0 2.24 0 1.11 0 2.22 0 1.11 0 2.03 0 .92 0 1.81 0 .89-.19 2.04-.19 1.14-.21 1.99-.03.86-.03 2.11-.01 1.24-.2 2.44-.19 1.2-.21 2.62-.03 1.41-.03 2.76-.01 1.34-.01 2.67 0 1.33.18 2.79.18 1.46.39 3.18.22 1.72.44 3.3.22 1.57.44 3.31.22 1.74.44 3.51.22 1.76.44 3.34.22 1.58.45 3.32.22 1.74.26 3.74.04 1.99.05 3.98 0 1.99.18 3.75.19 1.77.22 3.58.03 1.81.04 3.59 0 1.77.01 3.36 0 1.59 0 3.51 0 1.92 0 3.9 0 1.98-.19 4.01-.18 2.02-.4 4.02-.21 2-.44 3.81-.22 1.81-.44 3.59-.22 1.78-.44 3.73-.22 1.94-.44 3.75-.22 1.8-.44 3.58-.23 1.77-.26 3.5-.03 1.72-.04 3.67-.01 1.94-.01 3.74 0 1.8 0 3.58 0 1.77 0 3.17 0 1.41 0 3.11 0 1.71 0 3.47 0 1.76 0 3.52 0 1.77 0 3.36 0 1.58 0 2.95 0 1.37 0 2.52 0 1.15.18 2.39.18 1.23.56 2.29.38 1.05.64 2.41.27 1.35.66 2.43.39 1.07.83 2.37.44 1.31.87 2.22.42.91.87 2.01.45 1.09 1.05 2.14.6 1.06 1.11 2.41.5 1.35.95 2.48.44 1.13.89 2.44.45 1.31.72 2.5.27 1.18.51 2.5.23 1.31.27 2.7.05 1.38.23 2.46.19 1.09.22 2.26.04 1.17.05 2.47 0 1.3-.18 2.51-.19 1.21-.22 2.44-.02 1.24-.22 2.61-.19 1.38-.22 2.83-.03 1.46-.03 2.8-.01 1.35.34 2.37.34 1.02.75 1.89.41.87.96 1.48.56.61 1.34 1.22.79.62 1.6 1.06.82.44 1.75 1.1.92.66 1.76 1.11.84.44 1.71.89.88.44 1.81 1.1.94.65 2.26 1.07 1.32.42 2.84.86 1.51.44 3.4.88 1.89.44 3.82.69 1.94.25 3.78.67 1.85.42 3.59.66 1.74.25 3.68.48 1.94.22 3.88.26 1.95.03 4.29.04 2.35.01 4.18-.17 1.82-.18 3.41-.4 1.59-.21 3.33-.43 1.75-.22 3.74-.26 1.99-.04 3.76-.23 1.76-.19 3.71-.4 1.96-.22 3.56-.44 1.61-.22 3.47-.79 1.86-.57 4.21-1.23 2.36-.65 4.78-1.31 2.42-.66 4.47-1.32 2.04-.66 4.07-1.15 2.04-.49 4.58-1.12 2.54-.63 5.01-1.11 2.47-.48 4.72-.93 2.26-.44 4.32-.71 2.07-.26 4.11-.31 2.04-.05 4.44.13 2.4.18 4.83.39 2.43.22 4.19.63 1.75.41 3.47.66 1.72.24 3.87.66 2.16.41 4.36.85 2.2.43 4.44 1.07 2.25.63 4.12 1.3 1.87.66 3.66 1.33 1.79.66 4.07 1.31 2.29.65 4.85 1.12 2.56.48 4.63.74 2.06.26 4.07.49 2 .22 4.38.63 2.39.41 4.78.66 2.39.25 4.64.48 2.24.22 4.1.45 1.86.22 3.6.25 1.74.04 4.05.04 2.32.01 4.55.01 2.23 0 3.89 0 1.66 0 3.23 0 1.57 0 3.12 0 1.55 0 3.42-.18 1.88-.18 3.89-.21 2.01-.04 4.01-.04 1.99-.01 3.61-.01 1.63 0 3.14-.18 1.51-.18 3.61-.4 2.11-.21 4.27-.61 2.16-.4 4.17-.83 2.01-.43 3.85-.7 1.85-.26 3.25-.49 1.4-.22 3.12-.45 1.72-.22 3.63-.62 1.91-.4 3.93-.66 2.01-.26 3.78-.66 1.76-.4 3.33-.83 1.58-.44 3.04-.53 1.46-.08 3.19-.1 1.72-.01 3.85-.01 2.12 0 4.14-.01 2.01 0 3.82 0 1.81 0 3.59 0 1.77 0 3.69-.18 1.91-.18 4.11-.21 2.2-.04 4.05-.04 1.84-.01 3.54.37 1.69.38 3.1.82 1.4.44 2.74.88 1.34.44 2.62.68 1.27.25 2.99.66 1.71.42 3.3.86 1.58.44 2.97.89 1.39.44 2.5.69 1.11.25 2.27.68 1.17.42 2.33.47 1.17.04 2.71.24 1.54.2 2.91.42 1.37.22 3.09.63 1.73.41 3.32.85 1.59.44 3.14.88 1.56.44 2.88.69 1.33.25 2.96.28 1.63.04 3.52-.13 1.89-.18 3.72-.21 1.83-.03 3.24-.04 1.42 0 2.7-.18 1.28-.18 2.34-.56 1.06-.38 2.56-.82 1.5-.44 3.04-.88 1.54-.44 3.09-.89 1.54-.44 3.09-.88 1.55-.44 2.95-.71 1.4-.27 2.43-.82 1.04-.56 2.38-1.05 1.35-.49 3.04-1.12 1.68-.63 3.63-1.29 1.96-.66 3.94-1.32 1.98-.67 3.77-1.32 1.8-.66 3.22-1.15 1.42-.48 3.2-.76 1.78-.29 3.55-.52 1.77-.23 2.96-.45 1.2-.22 2.7-.44 1.51-.22 3.05-.44 1.54-.23 2.77-.27 1.22-.04 2.54-.05 1.31 0 2.82 0 1.51 0 3.28.18 1.77.19 3.86.22 2.09.02 4.1.03 2 0 3.86.19 1.85.19 3.82.4 1.96.22 4.3.44 2.35.22 4.62.63 2.27.41 4.53 1.04 2.25.62 4.26 1.09 2.01.47 4.18.91 2.17.45 4.38.89 2.2.44 4.2.7 1.99.25 3.63.48 1.63.23 3.02.45 1.39.23 3.08.45 1.69.21 3.62.43 1.93.23 3.74.45 1.8.22 3.57.44 1.78.22 3.14.26 1.36.03 2.75.22 1.39.2 2.85.23 1.46.02 3.22.22 1.77.19 3.53.4 1.77.22 3.36.44 1.59.22 2.97.44 1.38.23 2.72.45 1.34.22 2.84.44 1.5.22 2.99.25 1.49.04 3.44.23 1.94.19 3.52.22 1.57.03 2.94.04 1.37 0 2.7 0 1.34 0 2.85 0 1.51 0 3.05 0 1.54 0 3.23-.18 1.68-.18 3.44-.39 1.75-.22 3.48-.61 1.72-.4 3.04-.99 1.32-.59 2.85-1.25 1.53-.66 3.43-1.5 1.91-.85 3.72-1.55 1.82-.7 3.59-1.37 1.78-.67 3.15-1.32 1.37-.65 2.7-1.31 1.33-.66 2.71-1.16 1.37-.5 3.46-1.14 2.08-.64 3.72-1.12 1.64-.47 3.4-.92 1.76-.46 3.14-.89 1.37-.44 2.44-.53 1.07-.1 2-.11.93-.02 1.82-.02.89 0 2.04.19 1.14.19 2.31.61 1.18.42 2.29.85 1.12.44 2 .69.88.24 1.69.69.81.46 1.41.68.61.22 1.35.67.74.45 1.32.66.59.22 1.13.23.54.02 1.16-.24.62-.26 1.04-.66.41-.41.85-.85.44-.43.88-.87.44-.44.84-1.01.4-.58 1.28-1.32.89-.74 1.78-1.41.88-.67 1.98-1.36 1.1-.68 2.16-1.51 1.06-.82 2.16-1.69 1.1-.87 1.94-2.04.84-1.17 1.71-2.63.87-1.46 1.35-2.75.49-1.29.95-2.44.45-1.14.5-2.13.05-.99.25-2.14.2-1.15.23-2.2.03-1.04.03-2.32.01-1.28.2-2.83.18-1.56.21-3.05.03-1.5.22-3.27.19-1.77.41-3.53.22-1.77.44-3.72.22-1.95.62-4.15.41-2.19.66-4.19.25-1.99.29-3.94.04-1.95.23-3.98.19-2.02.23-3.61.03-1.59.03-3.33.01-1.73.01-3.31 0-1.58-.18-2.89-.18-1.32-.56-2.58-.39-1.27-.98-2.54-.6-1.27-.92-2.69-.32-1.42-.73-2.71-.4-1.29-.49-2.71-.09-1.43-.44-2.26-.35-.83-.62-1.97-.26-1.14-.49-2.26-.23-1.11-.45-2.02-.22-.9-.27-2.06-.05-1.16-.05-2.09-.01-.93-.01-2.19 0-1.26 0-2.76 0-1.5 0-2.67 0-1.17-.18-2.41-.18-1.24-.22-2.8-.03-1.55-.39-2.81-.36-1.25-.61-2.42-.25-1.17-.48-2.29-.22-1.12-.27-2.3-.05-1.18-.23-2.23-.19-1.04-.22-2.39-.04-1.36-.23-2.43-.18-1.08-.22-2.25-.04-1.17-.22-2.41-.18-1.24-.22-2.61-.04-1.38.15-2.6.18-1.22.39-2.52.22-1.3.63-2.67.42-1.38.66-2.84.24-1.45.47-2.81.22-1.35.64-2.91.41-1.56.85-3.11.44-1.55.88-2.92.45-1.38.89-2.89.43-1.5.88-2.87.45-1.38.69-2.66.25-1.28.67-2.82.41-1.54.66-2.69.25-1.16.47-2.44.23-1.28.26-2.36.03-1.08.04-2.18 0-1.1.01-2.39 0-1.28 0-2.6 0-1.32 0-2.65 0-1.33 0-2.65 0-1.33 0-2.66 0-1.32 0-2.65 0-1.33 0-2.65 0-1.33 0-2.47 0-1.15 0-2.44 0-1.3 0-2.43 0-1.14-.18-1.98-.17-.85-.39-1.92-.21-1.07-.59-1.9-.37-.83-.65-1.78-.27-.94-.5-1.84-.23-.89-.61-1.71-.38-.81-.65-1.75-.27-.95-.64-1.55-.37-.6-.83-1.69-.46-1.09-.9-1.98-.43-.89-.87-1.77-.44-.89-.88-1.77-.44-.88-1.18-1.66-.73-.79-1.51-1.23-.78-.44-1.84-1.07-1.07-.64-2.17-1.3-1.1-.66-2.31-1.11-1.22-.44-2.53-.89-1.31-.44-2.63-.88-1.32-.43-2.42-.68-1.11-.25-2.55-.47-1.45-.22-2.47-.45-1.01-.23-2.38-.26-1.37-.02-3.12-.22-1.75-.19-3.47-.22-1.72-.03-3.3-.03-1.58-.01-3.31-.01-1.74 0-3.46.18-1.71.18-3.81.58-2.1.39-4.49.82-2.38.44-4.43.87-2.04.44-4.04.88-2 .44-4.18.88-2.18.45-4.74 1.07-2.55.62-4.62 1.27-2.06.65-3.86 1.3-1.81.66-3.82 1.15-2 .5-4 .95-1.99.45-3.98.89-1.99.45-3.79.89-1.8.44-3.1.52-1.3.09-2.57.28-1.27.2-2.84.23-1.56.04-3.29.05-1.73 0-3.5 0-1.76.01-3.4-.18-1.63-.19-3.07-.6-1.45-.41-2.74-.65-1.29-.25-2.84-.66-1.54-.42-3.04-.66-1.5-.25-3.21-.47-1.72-.23-3.48-.45-1.76-.22-3.23-.64-1.47-.42-2.77-.66-1.3-.24-2.67-.67-1.38-.42-3.01-.66-1.63-.23-3.42-.65-1.79-.42-3.7-.66-1.91-.25-3.75-.67-1.84-.41-3.4-.66-1.56-.25-3.42-.29-1.87-.03-4.06-.23-2.19-.19-4.54-.22-2.36-.03-4.41-.04-2.05 0-3.91-.19-1.87-.19-3.83-.4-1.96-.22-4.28-.25-2.31-.03-4.57-.22-2.27-.19-4.09-.22-1.82-.03-3.82-.22-2-.19-3.95-.22-1.95-.03-4.12-.04-2.16 0-4.18 0-2.02 0-3.65 0-1.63 0-3.19 0-1.56 0-3.3 0-1.73 0-3.72-.19-1.99-.18-3.94-.21-1.94-.03-3.79-.22-1.84-.2-3.03-.23-1.19-.03-2.86-.03-1.67-.01-3.05-.01-1.39 0-3.09 0-1.7 0-3.42.18-1.71.18-3.23.57-1.52.39-2.73.64-1.2.26-2.52.48-1.32.23-2.64.45-1.33.22-2.65.44-1.33.22-2.6.62-1.27.39-2.84.65-1.56.27-2.67.66-1.1.39-1.99.81-.89.42-1.85.7-.96.29-1.95.35-.98.06-1.88.06-.9.01-1.7.19-.8.17-1.76.21-.96.04-1.86.05-.9.01-2.04-.18-1.14-.19-2.19-.22-1.04-.02-2.27-.42-1.23-.39-2.29-.63-1.06-.23-1.99-.46-.93-.23-1.9-.66-.97-.43-1.79-.66-.82-.23-1.93-.65-1.09-.42-2.13-.66-1.04-.24-2.07-.27-1.02-.03-1.95-.04-.94-.02-1.25-.19-.32-.18-.42-.2-.11-.01-.21-.05-.1-.03-.18-.09-.09-.06-.16-.14-.07-.08-.12-.17-.05-.1-.07-.2-.03-.1-.03-.21 0-.11.03-.21.03-.1.08-.2.05-.09.12-.17.07-.08.16-.14.09-.06.18-.09.1-.04.21-.05.11-.01 3.61.5 3.49.52 3.59.55.11.03.19.09.09.06.15.15.07.08.1.18.03.1.03.2 0 .11-.03.21-.04.1-.1.18-.07.09-.16.14-.08.06-.19.09-.1.03-.2.02-.1 0-.2-.04-.1-.05-.18-.11-.08-.07-.13-.17-.06-.09-.08-.19-.02-.1-.01-.2.01-.11.06-.2.04-.1.12-.17.07-.08.17-.13.09-.05.2-.07.09-.01.19.01.11.01.2.06.1.06.17.13.07.08.12.18.04.09.05.2.01.1-.01.2-.03.1-.08.19-.06.09-.14.16-.08.07-.18.11-.1.04-.21.04-.09.01-.09.01 0 0-3.43-.29-3.44-.29-3.54-.31-.11-.01-.21-.05-.1-.03-.18-.09-.09-.06-.16-.14-.07-.08-.12-.17-.05-.1-.07-.2-.03-.1-.03-.21 0-.11.03-.21.03-.1.08-.2.05-.09.12-.17.07-.08.16-.14.09-.06.18-.09.1-.04.21-.05.11-.01.47.18.36.19 1.28.19.91 0 2.09.05 1.19.06 2.35.33 1.14.27 2.18.67 1.03.39 1.98.66.94.28 1.76.66.81.37 1.72.6.92.22 2.07.48 1.15.26 2.13.61.98.35 2.14.39 1.15.03 2.14.21 1 .18 1.87.17.87-.01 1.68-.03.81-.02 1.78-.21.97-.2 1.83-.2.87-.01 1.66-.04.79-.03 1.62-.26.82-.23 1.8-.69.97-.45 2.22-.88 1.24-.43 2.7-.67 1.46-.24 2.84-.64 1.38-.42 2.7-.64 1.33-.22 2.65-.45 1.32-.22 2.61-.44 1.29-.22 2.46-.47 1.17-.25 2.81-.66 1.65-.41 3.45-.59 1.81-.19 3.51-.19 1.7 0 3.09 0 1.39 0 3.08.01 1.68 0 2.94.04 1.26.03 3.03.22 1.76.19 3.78.22 2.02.03 3.92.21 1.91.19 3.64.19 1.74 0 3.3 0 1.56 0 3.19 0 1.63 0 3.65 0 2.02 0 4.2 0 2.18.01 4.2.04 2.02.04 3.95.22 1.93.19 3.81.22 1.88.04 4.09.23 2.2.18 4.59.22 2.4.04 4.35.26 1.96.21 3.74.39 1.77.19 3.83.19 2.07.01 4.49.04 2.41.04 4.55.23 2.13.18 4.11.23 1.98.05 3.6.31 1.62.25 3.38.65 1.76.4 3.76.67 1.99.26 3.71.66 1.72.4 3.48.67 1.76.27 3.04.67 1.28.4 2.66.66 1.38.26 2.72.65 1.33.39 3.09.61 1.77.23 3.51.46 1.75.22 3.33.49 1.59.26 3.07.66 1.47.4 2.85.66 1.38.27 2.67.65 1.3.38 2.84.56 1.53.18 3.29.18 1.76 0 3.48 0 1.71-.01 3.16-.04 1.46-.03 2.8-.23 1.35-.2 2.5-.26 1.15-.06 2.96-.51 1.82-.44 3.8-.89 1.99-.44 3.97-.89 1.98-.44 3.9-.91 1.91-.46 3.75-1.13 1.84-.67 3.96-1.34 2.12-.66 4.71-1.29 2.59-.63 4.75-1.07 2.17-.43 4.18-.87 2-.45 4.07-.89 2.07-.44 4.45-.88 2.38-.43 4.55-.84 2.17-.4 3.98-.59 1.81-.18 3.55-.18 1.74 0 3.33.01 1.59 0 3.39.04 1.8.03 3.48.22 1.68.19 3.21.23 1.54.05 2.5.27.96.22 2.46.45 1.51.23 2.7.5 1.18.27 2.51.72 1.33.44 2.66.9 1.33.45 2.69.95 1.36.52 2.46 1.18 1.1.65 2.17 1.29 1.06.64 2.03 1.24.97.59 1.85 1.58.88.98 1.32 1.87.45.89.89 1.78.45.9.9 1.83.45.93.86 1.92.41.98.86 1.78.45.8.69 1.62.23.83.66 1.79.43.95.65 1.83.23.88.46 1.71.23.83.66 1.84.43 1 .65 2.08.21 1.08.41 2.09.19 1.01.19 2.15 0 1.14 0 2.44 0 1.29 0 2.44 0 1.14 0 2.47 0 1.32 0 2.65 0 1.33 0 2.65 0 1.33 0 2.66 0 1.32 0 2.65 0 1.33 0 2.65 0 1.32 0 2.61 0 1.29-.01 2.42-.01 1.12-.05 2.32-.05 1.2-.28 2.52-.23 1.32-.49 2.51-.26 1.2-.66 2.68-.4 1.48-.68 2.86-.27 1.39-.71 2.73-.43 1.35-.88 2.88-.45 1.53-.88 2.88-.44 1.34-.87 2.88-.44 1.54-.83 3.01-.4 1.48-.63 2.83-.22 1.36-.49 2.93-.26 1.56-.65 2.83-.39 1.26-.61 2.55-.21 1.29-.38 2.36-.18 1.06-.15 2.33.03 1.27.22 2.61.2 1.34.22 2.39.03 1.05.22 2.25.2 1.2.22 2.42.03 1.23.23 2.4.19 1.16.22 2.2.03 1.03.26 2.14.22 1.11.46 2.23.24 1.12.63 2.59.39 1.46.42 2.91.02 1.46.21 2.82.19 1.36.19 2.54 0 1.17 0 2.67 0 1.5 0 2.75 0 1.25.01 2.16 0 .9.03 1.89.03.99.25 1.92.23.94.45 2.03.22 1.09.45 2.11.23 1.02.64 2.11.4 1.09.46 2.32.05 1.23.48 2.59.42 1.36.68 2.6.26 1.23.9 2.62.64 1.38 1.05 2.79.41 1.4.6 2.83.19 1.43.19 3.01 0 1.58-.01 3.33 0 1.76-.04 3.41-.03 1.66-.22 3.62-.19 1.96-.24 4-.04 2.04-.3 4.08-.26 2.05-.65 4.18-.4 2.14-.63 4.1-.22 1.95-.43 3.71-.22 1.76-.4 3.45-.19 1.69-.22 3.27-.04 1.59-.22 3.04-.18 1.45-.19 2.75 0 1.3-.04 2.47-.04 1.17-.23 2.23-.19 1.06-.3 2.3-.11 1.24-.56 2.39-.46 1.15-1.01 2.57-.55 1.43-1.46 2.96-.92 1.53-1.92 2.87-1 1.33-2.11 2.21-1.11.89-2.25 1.76-1.13.87-2.16 1.51-1.04.64-1.9 1.29-.86.66-1.59 1.23-.73.57-1.22 1.25-.48.68-.93 1.12-.44.45-.89.89-.44.45-.91.9-.48.45-1.14.9-.67.44-1.24.45-.57.02-1.35-.05-.79-.07-1.53-.36-.74-.29-1.33-.67-.6-.37-1.33-.65-.74-.29-1.34-.66-.61-.37-1.57-.64-.97-.27-2.06-.7-1.09-.43-2.12-.81-1.02-.38-2.02-.55-.99-.18-1.87-.18-.88.01-1.75.02-.87.01-1.75.06-.87.06-2.29.51-1.42.45-3.16.89-1.73.45-3.36.92-1.63.47-3.67 1.1-2.04.62-3.32 1.09-1.28.46-2.63 1.12-1.35.67-2.78 1.35-1.44.68-3.21 1.34-1.77.67-3.54 1.36-1.78.68-3.69 1.53-1.92.85-3.44 1.5-1.51.66-2.99 1.3-1.48.65-3.3 1.06-1.81.41-3.58.63-1.77.21-3.55.4-1.78.18-3.32.18-1.54 0-3.05 0-1.51 0-2.85 0-1.34 0-2.72 0-1.38-.01-3.03-.04-1.64-.04-3.52-.23-1.88-.18-3.48-.23-1.59-.04-3.11-.26-1.52-.22-2.85-.44-1.34-.22-2.7-.44-1.36-.22-2.94-.44-1.57-.22-3.33-.44-1.76-.21-3.44-.4-1.69-.19-3.25-.22-1.57-.04-2.86-.22-1.29-.19-2.73-.23-1.45-.04-3.22-.26-1.78-.22-3.57-.44-1.8-.22-3.74-.45-1.95-.22-3.67-.44-1.71-.23-3.08-.45-1.37-.22-3-.44-1.62-.23-3.68-.49-2.06-.27-4.26-.71-2.21-.45-4.4-.9-2.19-.45-4.24-.92-2.05-.48-4.22-1.09-2.18-.61-4.38-1.01-2.2-.4-4.55-.62-2.36-.22-4.32-.44-1.96-.21-3.72-.39-1.77-.18-3.79-.19-2.02 0-4.19-.04-2.17-.03-3.84-.21-1.68-.18-3.19-.18-1.5 0-2.79 0-1.29.01-2.42.04-1.13.04-2.67.26-1.53.22-3.01.44-1.48.22-2.72.44-1.24.23-2.98.46-1.75.22-3.39.47-1.63.25-3.03.72-1.39.48-3.21 1.15-1.82.66-3.8 1.33-1.98.66-3.91 1.31-1.92.65-3.62 1.29-1.69.63-2.93 1.07-1.25.45-2.51 1.08-1.27.64-2.6.89-1.33.25-2.87.69-1.55.44-3.1.89-1.54.44-3.08.88-1.53.44-2.99.87-1.46.43-2.69.84-1.23.42-2.63.61-1.4.19-2.8.19-1.4.01-3.16.04-1.77.03-3.76.2-1.99.18-3.76.13-1.77-.05-3.18-.32-1.4-.27-2.95-.71-1.55-.44-3.11-.87-1.56-.43-3.23-.83-1.65-.4-3-.61-1.34-.22-2.81-.41-1.47-.19-2.89-.29-1.41-.09-2.47-.49-1.07-.39-2.26-.66-1.18-.27-2.54-.71-1.35-.43-2.91-.87-1.55-.43-3.23-.84-1.67-.4-3.05-.68-1.39-.27-2.71-.71-1.33-.43-2.67-.85-1.34-.42-2.84-.78-1.5-.36-3.33-.35-1.83.01-3.96.04-2.14.02-4.13.21-2 .19-3.77.19-1.78 0-3.59 0-1.81 0-3.82 0-2.02 0-4.14 0-2.12 0-3.8.01-1.68.01-2.96.07-1.28.06-2.89.5-1.61.45-3.46.86-1.84.42-3.79.67-1.95.24-3.93.65-1.97.41-3.67.64-1.69.22-3.11.44-1.42.23-3.2.48-1.78.26-3.82.7-2.03.43-4.26.84-2.23.41-4.32.62-2.1.22-3.71.41-1.61.18-3.23.18-1.62 0-3.61.01-1.98 0-3.92.03-1.94.03-3.9.22-1.96.18-3.51.18-1.55 0-3.12 0-1.57 0-3.23 0-1.67 0-3.9 0-2.23 0-4.56-.01-2.33 0-4.15-.04-1.83-.04-3.67-.26-1.84-.23-4.09-.45-2.25-.23-4.7-.49-2.45-.25-4.78-.65-2.34-.41-4.35-.64-2.02-.23-4.14-.49-2.11-.27-4.75-.76-2.64-.49-4.99-1.17-2.36-.67-4.13-1.33-1.78-.66-3.6-1.31-1.81-.65-3.99-1.26-2.17-.62-4.37-1.06-2.19-.43-4.31-.84-2.11-.4-3.91-.66-1.79-.26-3.43-.66-1.63-.39-4.04-.6-2.42-.22-4.73-.39-2.32-.18-4.27-.14-1.95.05-3.96.3-2 .25-4.26.7-2.25.45-4.68.92-2.43.47-4.97 1.1-2.55.64-4.52 1.11-1.97.47-4.05 1.14-2.08.67-4.5 1.33-2.42.66-4.75 1.3-2.34.65-4.33 1.25-2 .61-3.63.83-1.63.22-3.59.44-1.96.21-3.8.41-1.83.19-3.73.22-1.91.04-3.64.26-1.74.22-3.36.43-1.62.22-3.53.4-1.91.19-4.28.18-2.36-.01-4.39-.05-2.02-.04-3.99-.27-1.96-.23-3.77-.49-1.81-.26-3.58-.66-1.76-.4-3.78-.67-2.02-.27-3.95-.72-1.94-.45-3.48-.9-1.55-.45-3.09-.98-1.55-.53-2.38-1.13-.84-.59-1.73-1.04-.9-.46-1.83-.96-.93-.5-1.77-1.11-.84-.6-1.78-1.13-.94-.52-1.83-1.24-.9-.73-1.59-1.54-.69-.81-1.14-1.79-.45-.99-.84-2.27-.39-1.27-.38-2.65 0-1.37.04-2.93.04-1.56.22-2.83.19-1.27.22-2.63.04-1.35.22-2.42.17-1.06.17-2.34-.01-1.28-.03-2.33-.03-1.05-.23-2.26-.19-1.2-.23-2.46-.03-1.25-.25-2.53-.22-1.27-.47-2.36-.25-1.1-.68-2.37-.44-1.28-.89-2.42-.45-1.15-.89-2.37-.45-1.23-1.1-2.38-.65-1.15-1.08-2.21-.44-1.06-.9-2.06-.45-1-.89-2.29-.43-1.28-.86-2.48-.43-1.21-.66-2.44-.24-1.24-.66-2.46-.41-1.22-.6-2.57-.19-1.36-.19-2.52 0-1.15 0-2.52 0-1.37 0-2.95 0-1.59 0-3.36 0-1.76 0-3.52 0-1.76 0-3.47 0-1.7 0-3.11 0-1.4 0-3.17 0-1.78 0-3.58 0-1.8.01-3.76.01-1.96.05-3.78.04-1.81.26-3.59.22-1.77.44-3.57.22-1.79.44-3.75.22-1.96.44-3.74.23-1.77.45-3.57.21-1.8.43-3.78.21-1.99.39-3.94.19-1.94.19-3.92 0-1.98 0-3.9 0-1.92-.01-3.51 0-1.58 0-3.35-.01-1.76-.04-3.5-.03-1.74-.21-3.58-.19-1.85-.2-3.83 0-1.97-.04-3.88-.03-1.9-.25-3.63-.22-1.73-.44-3.32-.22-1.59-.45-3.35-.22-1.77-.44-3.5-.22-1.73-.44-3.31-.22-1.59-.43-3.32-.22-1.72-.41-3.29-.18-1.56-.18-2.89 0-1.34.01-2.7 0-1.36.04-2.89.03-1.54.21-2.61.18-1.06.19-2.33 0-1.27.04-2.24.04-.98.22-1.97.17-1 .17-1.89 0-.89 0-1.81 0-.92 0-2.03 0-1.11 0-2.22 0-1.11 0-2.25 0-1.13 0-2.42 0-1.28.01-2.36.01-1.08.07-2.04.05-.96.27-1.64.21-.68.45-1.56.23-.87.47-1.56.24-.68.6-1.44.36-.77.89-1.26.53-.5 1.12-.9.59-.41 1.13-.89.55-.49 1.3-.94.74-.45 1.4-.69.66-.24 1.54-.68.89-.44 1.76-.89.88-.44 1.72-.88.84-.45 1.79-1.11.95-.65 1.92-1.08.96-.43 1.9-.62.95-.2 1.61-.2.67 0 1.36 0 .69-.01 1.51-.03.82-.03 1.82-.23 1-.19 2.08-.23 1.08-.03 2.36-.25 1.28-.21 2.39-.43 1.11-.22 2.26-.42 1.15-.2 2.07-.24.92-.03 1.87-.46.95-.43 1.82-.67.88-.24 2-.67 1.12-.42 2.01-.66.9-.25 2.11-.67 1.22-.42 2.53-.65 1.31-.22 2.54-.46 1.23-.24 2.42-.66 1.19-.43 2.34-.65 1.15-.23 2.04-.67.9-.45 1.85-.9.95-.45 2.08-.89 1.12-.45 2.34-.87 1.21-.42 2.53-.65 1.32-.22 2.6-.47 1.27-.24 2.63-.65 1.36-.42 2.52-.64 1.16-.22 2.13-.65.97-.43 1.92-.66.95-.22 2.12-.41 1.18-.2 2.27-.23 1.1-.02 2.48-.22 1.38-.19 2.69-.22 1.31-.03 2.83-.21 1.53-.19 2.64-.18 1.11 0 2.26.04 1.14.04 1.94.22.8.18 1.71.18.9.01 1.88.04.99.04 2.07.22 1.08.18 2.45.18 1.36.01 2.93.05 1.57.05 2.89.27 1.32.22 2.6.45 1.29.23 2.19.44.9.22 1.99.44 1.09.23 2 .45.91.21 2.04.43 1.14.21 2.46.43 1.33.23 2.67.45 1.33.23 2.69.5 1.37.26 2.59.66 1.23.4 2.11.62.89.23 1.78.46.89.24 1.65.51.76.26 1.87.7 1.11.44 2.25.87 1.14.43 2.65.89 1.51.46 2.64.9 1.13.44 2.48.95 1.35.51 2.39 1.12 1.04.61 1.9 1.04.86.43 1.38.75.52.32 1.37.31.85-.01 1.72-.04.87-.03 2.06-.26 1.2-.23 2.69-.48 1.5-.25 3.04-.69 1.54-.44 3.03-.87 1.5-.44 2.82-.86 1.33-.42 2.39-.66 1.07-.25 2.3-.73 1.23-.47 3.04-1.11 1.81-.64 3.58-1.08 1.76-.43 3.53-.84 1.76-.41 3.26-.63 1.5-.22 2.85-.42 1.34-.2 2.45-.26 1.1-.06 2.74-.51 1.64-.44 3.63-.88 1.98-.45 3.92-.87 1.95-.43 3.73-.84 1.77-.41 3.38-.6 1.6-.19 3.2-.23 1.59-.03 3.62-.25 2.04-.22 4.27-.41 2.23-.19 4.33-.22 2.1-.03 3.93-.21 1.82-.19 3.67-.19 1.84 0 4.04 0 2.21-.01 4.38-.04 2.18-.03 4.39-.21 2.21-.19 4.22-.19 2 0 4.06 0 2.05 0 4.44.01 2.39.01 4.58.05 2.19.04 3.99.25 1.8.21 3.8.4 1.99.19 4.23.23 2.24.04 4.41.27 2.17.23 4.14.51 1.97.27 3.48.75 1.51.47 2.47.94.95.46 2.22 1.06 1.28.61 2.57 1.05 1.3.44 2.32.81 1.03.38 2.02.56.99.17 1.86.17.87-.01 1.67-.03.8-.03 1.69-.24.9-.22 1.86-.41.97-.2 1.82-.2.85 0 1.5 0 .66 0 1.77 0 1.12 0 1.78 0 .66 0 1.32 0 .66 0 1.31 0 .65-.01 1.21-.03.57-.01 1.34-.21.78-.2 1.43-.21.65 0 1.21-.02.57-.01 1.34-.21.77-.2 1.9-.21 1.13 0 1.72-.22.59-.21 1.45-.21.86-.01 1.62-.01.77-.01 1.35-.22.59-.21 1.32-.22.74-.01 1.6-.22.87-.22 1.77-.66.9-.44 1.91-.66 1.02-.22 1.64-.22.61 0 1.71 0 1.1 0 1.2.02.11.01.2.05.1.04.19.1.09.06.16.14.07.07.12.17.05.09.07.2.03.1.03.2 0 .1-.03.2-.02.11-.07.2-.05.1-.12.17-.07.08-.16.14-.09.06-.19.1-.09.04-.2.05-.1.02-.1.02h0z"/></svg>