<svg xmlns="http://www.w3.org/2000/svg" viewBox="8.30 8.30 143.85 52.03"><path fill="#000" d="M 90.35 11.20 L 90.35 11.20 L 86.13 11.21 L 86.20 11.22 L 86.27 11.24 L 86.33 11.26 L 86.39 11.29 L 86.45 11.32 L 86.51 11.37 L 86.56 11.41 L 86.60 11.46 L 86.65 11.52 L 86.68 11.58 L 86.71 11.64 L 86.73 11.70 L 86.75 11.77 L 86.76 11.84 L 86.77 20.47 L 86.76 11.96 L 86.75 12.03 L 86.73 12.10 L 86.71 12.16 L 86.68 12.22 L 86.65 12.28 L 86.60 12.34 L 86.56 12.39 L 86.51 12.43 L 86.45 12.48 L 86.39 12.51 L 86.33 12.54 L 86.27 12.56 L 86.20 12.58 L 86.13 12.59 L 81.79 12.60 L 85.86 12.60 L 85.64 12.60 L 85.38 12.60 L 85.12 12.60 L 84.96 12.60 L 84.80 12.60 L 84.58 12.59 L 84.37 12.58 L 84.12 12.47 L 83.86 12.36 L 83.55 12.35 L 83.25 12.33 L 82.97 12.33 L 82.68 12.33 L 82.19 12.32 L 81.70 12.32 L 81.06 12.32 L 80.42 12.32 L 79.64 12.32 L 78.86 12.32 L 77.94 12.32 L 77.02 12.32 L 76.19 12.32 L 75.35 12.32 L 74.53 12.32 L 73.72 12.32 L 73.12 12.32 L 72.52 12.32 L 71.85 12.32 L 71.19 12.32 L 70.62 12.32 L 70.06 12.32 L 69.40 12.32 L 68.74 12.32 L 67.99 12.32 L 67.23 12.32 L 66.54 12.43 L 65.84 12.54 L 65.13 12.56 L 64.42 12.58 L 63.85 12.59 L 63.27 12.59 L 62.72 12.59 L 62.17 12.59 L 61.62 12.59 L 61.08 12.59 L 60.54 12.59 L 59.99 12.59 L 59.34 12.59 L 58.69 12.59 L 57.91 12.59 L 57.12 12.59 L 56.21 12.59 L 55.29 12.59 L 54.35 12.59 L 53.40 12.59 L 52.56 12.59 L 51.72 12.59 L 50.88 12.59 L 50.03 12.59 L 49.21 12.48 L 48.38 12.37 L 47.92 12.35 L 47.45 12.33 L 46.71 12.33 L 45.97 12.33 L 45.16 12.32 L 44.36 12.32 L 43.44 12.32 L 42.52 12.32 L 41.69 12.32 L 40.85 12.32 L 40.03 12.32 L 39.21 12.32 L 38.61 12.32 L 38.01 12.32 L 37.49 12.32 L 36.97 12.32 L 36.44 12.43 L 35.90 12.54 L 35.43 12.56 L 34.96 12.58 L 34.54 12.59 L 34.12 12.59 L 33.60 12.59 L 33.08 12.59 L 32.54 12.59 L 32.01 12.59 L 31.46 12.59 L 30.92 12.59 L 30.38 12.59 L 29.84 12.59 L 29.29 12.59 L 28.75 12.59 L 28.31 12.59 L 27.88 12.59 L 27.40 12.59 L 26.92 12.59 L 26.50 12.70 L 26.09 12.80 L 25.79 12.82 L 25.49 12.84 L 25.15 12.95 L 24.80 13.05 L 24.44 13.17 L 24.08 13.28 L 23.68 13.52 L 23.28 13.76 L 22.86 13.92 L 22.44 14.09 L 21.92 14.34 L 21.40 14.59 L 20.91 14.77 L 20.42 14.94 L 19.99 14.98 L 19.57 15.01 L 19.22 15.11 L 18.87 15.21 L 18.39 15.44 L 17.90 15.67 L 17.40 15.91 L 16.91 16.15 L 16.50 16.51 L 16.10 16.87 L 15.60 17.25 L 15.10 17.63 L 14.83 17.98 L 14.55 18.33 L 14.30 18.79 L 14.04 19.26 L 13.79 19.97 L 13.53 20.67 L 13.37 21.46 L 13.21 22.25 L 12.96 23.18 L 12.71 24.11 L 12.44 25.17 L 12.17 26.23 L 11.90 27.06 L 11.64 27.89 L 11.59 28.69 L 11.54 29.50 L 11.42 30.22 L 11.30 30.95 L 11.17 31.72 L 11.04 32.49 L 11.01 33.18 L 10.98 33.88 L 10.87 34.78 L 10.76 35.68 L 10.73 36.38 L 10.71 37.09 L 10.71 37.77 L 10.70 38.45 L 10.70 39.13 L 10.70 39.81 L 10.70 40.58 L 10.70 41.34 L 10.80 42.09 L 10.90 42.85 L 11.12 43.50 L 11.35 44.15 L 11.71 44.92 L 12.07 45.68 L 12.46 46.38 L 12.86 47.07 L 13.18 47.68 L 13.49 48.29 L 13.67 48.88 L 13.85 49.47 L 13.98 49.97 L 14.11 50.48 L 14.29 50.81 L 14.46 51.13 L 14.85 51.37 L 15.25 51.61 L 15.86 51.87 L 16.48 52.14 L 17.35 52.51 L 18.22 52.89 L 19.13 53.17 L 20.03 53.45 L 20.88 53.62 L 21.72 53.79 L 22.45 54.05 L 23.17 54.30 L 23.70 54.45 L 24.23 54.60 L 24.79 54.63 L 25.35 54.66 L 25.72 54.79 L 26.10 54.92 L 26.48 55.05 L 26.87 55.18 L 27.23 55.30 L 27.59 55.43 L 28.08 55.45 L 28.57 55.47 L 29.21 55.59 L 29.86 55.70 L 30.56 55.73 L 31.27 55.76 L 31.88 55.99 L 32.49 56.22 L 33.05 56.38 L 33.60 56.53 L 34.12 56.77 L 34.63 57.01 L 35.21 57.05 L 35.79 57.09 L 36.45 57.10 L 37.11 57.11 L 37.68 57.11 L 38.25 57.11 L 38.90 57.11 L 39.56 57.11 L 40.23 57.11 L 40.91 57.11 L 41.59 57.11 L 42.27 57.11 L 42.94 57.11 L 43.62 57.11 L 44.63 57.11 L 45.63 57.11 L 46.49 57.11 L 47.34 57.11 L 48.05 57.11 L 48.77 57.11 L 49.39 57.11 L 50.01 57.12 L 50.46 57.23 L 50.90 57.33 L 51.39 57.35 L 51.87 57.37 L 52.73 57.38 L 53.59 57.38 L 54.52 57.38 L 55.45 57.38 L 56.51 57.38 L 57.56 57.38 L 58.43 57.38 L 59.29 57.38 L 60.01 57.38 L 60.72 57.38 L 61.30 57.38 L 61.88 57.38 L 62.32 57.38 L 62.76 57.38 L 63.28 57.38 L 63.81 57.38 L 64.35 57.38 L 64.89 57.38 L 65.54 57.38 L 66.19 57.38 L 66.75 57.38 L 67.32 57.38 L 67.97 57.38 L 68.63 57.38 L 69.31 57.38 L 69.98 57.38 L 70.58 57.38 L 71.18 57.38 L 71.84 57.49 L 72.50 57.60 L 73.15 57.62 L 73.80 57.64 L 74.47 57.65 L 75.14 57.65 L 75.93 57.65 L 76.72 57.65 L 77.50 57.65 L 78.29 57.66 L 79.21 57.55 L 80.13 57.44 L 80.96 57.42 L 81.79 57.40 L 82.42 57.30 L 83.06 57.20 L 83.49 56.97 L 83.93 56.75 L 84.41 56.57 L 84.90 56.39 L 85.33 56.35 L 85.77 56.32 L 86.28 56.20 L 86.80 56.09 L 87.38 56.06 L 87.95 56.04 L 88.61 56.03 L 89.27 56.03 L 89.83 56.03 L 90.40 56.02 L 91.17 56.02 L 91.93 56.02 L 92.63 56.02 L 93.32 56.02 L 93.90 56.02 L 94.47 56.02 L 94.91 56.02 L 95.35 56.02 L 95.66 56.02 L 95.96 56.02 L 96.24 56.02 L 96.52 56.02 L 96.90 56.02 L 97.29 56.02 L 97.58 56.02 L 97.87 56.02 L 98.21 56.03 L 98.56 56.04 L 98.84 56.15 L 99.12 56.26 L 99.48 56.28 L 99.85 56.29 L 100.25 56.41 L 100.65 56.52 L 101.11 56.54 L 101.58 56.56 L 102.11 56.56 L 102.64 56.56 L 103.19 56.57 L 103.73 56.57 L 104.30 56.57 L 104.88 56.57 L 105.43 56.68 L 105.98 56.79 L 106.60 56.81 L 107.22 56.83 L 107.99 56.83 L 108.77 56.84 L 109.51 56.84 L 110.25 56.84 L 110.72 56.95 L 111.19 57.06 L 111.72 57.08 L 112.24 57.11 L 112.81 57.22 L 113.38 57.34 L 114.00 57.47 L 114.62 57.59 L 115.39 57.62 L 116.16 57.64 L 116.97 57.76 L 117.78 57.87 L 118.46 57.89 L 119.14 57.91 L 119.71 57.92 L 120.29 57.92 L 120.73 57.92 L 121.16 57.93 L 121.58 57.93 L 121.99 57.93 L 122.48 57.93 L 122.96 57.93 L 123.49 57.82 L 124.02 57.71 L 124.60 57.69 L 125.17 57.67 L 125.83 57.66 L 126.49 57.66 L 127.06 57.66 L 127.62 57.65 L 128.25 57.66 L 128.87 57.66 L 129.43 57.55 L 129.99 57.44 L 130.64 57.42 L 131.28 57.40 L 131.74 57.29 L 132.20 57.17 L 132.76 57.15 L 133.33 57.12 L 133.77 57.12 L 134.21 57.11 L 134.58 57.11 L 134.96 57.11 L 135.47 57.01 L 135.98 56.90 L 136.41 56.88 L 136.85 56.85 L 137.45 56.75 L 138.04 56.64 L 138.63 56.50 L 139.21 56.37 L 139.87 56.34 L 140.52 56.32 L 140.93 56.21 L 141.34 56.11 L 141.75 55.98 L 142.15 55.85 L 142.60 55.71 L 143.04 55.56 L 143.30 55.55 L 143.55 55.53 L 143.66 55.45 L 143.76 55.36 L 143.96 55.27 L 144.15 55.18 L 144.25 55.02 L 144.34 54.86 L 144.46 54.63 L 144.58 54.40 L 144.71 54.05 L 144.84 53.69 L 144.97 53.29 L 145.11 52.88 L 145.36 52.24 L 145.62 51.60 L 145.89 51.02 L 146.16 50.45 L 146.43 49.90 L 146.70 49.35 L 146.98 48.79 L 147.26 48.23 L 147.55 47.78 L 147.83 47.33 L 148.09 46.94 L 148.35 46.54 L 148.59 45.97 L 148.84 45.40 L 149.00 44.76 L 149.15 44.12 L 149.29 43.59 L 149.42 43.05 L 149.45 42.40 L 149.47 41.75 L 149.59 41.19 L 149.70 40.62 L 149.72 40.00 L 149.74 39.38 L 149.75 38.74 L 149.76 38.11 L 149.65 37.54 L 149.54 36.98 L 149.52 36.40 L 149.49 35.82 L 149.49 35.27 L 149.49 34.72 L 149.49 34.24 L 149.49 33.76 L 149.60 33.34 L 149.71 32.91 L 149.73 32.59 L 149.75 32.27 L 149.65 31.92 L 149.56 31.56 L 149.43 31.04 L 149.30 30.53 L 149.16 29.95 L 149.01 29.38 L 148.98 28.69 L 148.95 28.00 L 148.95 27.47 L 148.95 26.94 L 148.87 26.61 L 148.79 26.28 L 148.61 26.05 L 148.42 25.82 L 148.12 25.50 L 147.83 25.19 L 147.63 24.74 L 147.44 24.29 L 147.29 23.88 L 147.15 23.46 L 147.02 23.09 L 146.90 22.72 L 146.69 22.37 L 146.48 22.02 L 146.24 21.76 L 146.00 21.49 L 145.72 21.20 L 145.43 20.90 L 145.14 20.49 L 144.84 20.07 L 144.65 19.73 L 144.47 19.40 L 144.32 19.00 L 144.17 18.60 L 144.09 18.40 L 144.01 18.20 L 143.82 18.08 L 143.62 17.96 L 143.36 17.71 L 143.10 17.47 L 142.84 17.31 L 142.57 17.16 L 142.32 16.92 L 142.06 16.68 L 141.69 16.53 L 141.31 16.37 L 140.97 16.09 L 140.62 15.80 L 140.39 15.56 L 140.15 15.33 L 139.85 15.21 L 139.55 15.08 L 139.04 14.94 L 138.54 14.80 L 137.90 14.56 L 137.27 14.32 L 136.52 14.17 L 135.77 14.02 L 134.97 13.88 L 134.16 13.74 L 133.44 13.60 L 132.73 13.46 L 132.12 13.32 L 131.50 13.17 L 130.95 12.92 L 130.40 12.68 L 129.79 12.53 L 129.18 12.39 L 128.31 12.25 L 127.44 12.11 L 126.39 11.98 L 125.35 11.85 L 124.27 11.72 L 123.18 11.58 L 122.33 11.45 L 121.48 11.31 L 120.86 11.28 L 120.24 11.25 L 119.66 11.14 L 119.08 11.02 L 118.45 10.89 L 117.83 10.76 L 117.08 10.74 L 116.33 10.72 L 115.31 10.71 L 114.29 10.71 L 113.11 10.70 L 111.92 10.70 L 110.93 10.70 L 109.93 10.70 L 109.08 10.70 L 108.23 10.70 L 107.54 10.70 L 106.85 10.70 L 106.06 10.81 L 105.26 10.92 L 104.34 10.94 L 103.42 10.96 L 102.36 11.08 L 101.31 11.19 L 100.12 11.21 L 98.93 11.23 L 97.93 11.35 L 96.94 11.46 L 96.09 11.48 L 95.24 11.50 L 94.42 11.62 L 93.60 11.73 L 92.67 11.75 L 91.74 11.78 L 90.79 11.89 L 89.85 11.99 L 88.79 12.02 L 87.74 12.04 L 86.99 12.15 L 86.24 12.26 L 85.69 12.28 L 85.14 12.30 L 84.80 12.41 L 84.47 12.53 L 83.91 12.55 L 83.36 12.58 L 82.92 12.59 L 82.49 12.59 L 81.86 12.59 L 81.23 12.59 L 80.45 12.59 L 79.67 12.59 L 78.86 12.59 L 78.06 12.59 L 77.40 12.59 L 76.75 12.59 L 76.41 12.69 L 76.07 12.80 L 75.79 12.83 L 75.52 12.85 L 75.45 12.84 L 75.38 12.83 L 75.32 12.81 L 75.25 12.78 L 75.19 12.74 L 75.14 12.71 L 75.09 12.66 L 75.04 12.61 L 75.00 12.56 L 74.96 12.50 L 74.93 12.44 L 74.90 12.37 L 74.89 12.31 L 74.87 12.24 L 74.87 12.17 L 74.87 12.10 L 74.88 12.03 L 74.90 11.97 L 74.92 11.90 L 74.94 11.85 L 74.98 11.79 L 75.02 11.73 L 75.07 11.68 L 75.11 11.63 L 75.17 11.60 L 75.23 11.56 L 75.29 11.53 L 75.35 11.50 L 75.42 11.49 L 75.49 11.47 L 75.55 11.47 L 90.35 11.20 L 90.35 11.20 L 90.35 11.20 L 85.86 11.20 L 85.64 11.20 L 85.38 11.20 L 85.12 11.20 L 84.96 11.20 L 84.80 11.20 L 84.73 11.21 L 84.66 11.22 L 84.42 11.11 L 84.19 11.01 L 83.74 10.98 L 83.30 10.94 L 83.00 10.94 L 82.70 10.94 L 82.20 10.93 L 81.70 10.93 L 81.06 10.93 L 80.42 10.93 L 79.64 10.93 L 78.86 10.93 L 77.94 10.93 L 77.02 10.93 L 76.19 10.93 L 75.35 10.93 L 74.53 10.93 L 73.72 10.93 L 73.12 10.93 L 72.52 10.93 L 71.85 10.93 L 71.19 10.93 L 70.62 10.93 L 70.06 10.93 L 69.40 10.93 L 68.74 10.93 L 67.93 10.93 L 67.12 10.94 L 66.42 11.04 L 65.71 11.15 L 65.05 11.17 L 64.40 11.19 L 63.83 11.20 L 63.26 11.20 L 62.72 11.20 L 62.17 11.20 L 61.62 11.20 L 61.08 11.20 L 60.54 11.20 L 59.99 11.20 L 59.34 11.20 L 58.69 11.20 L 57.91 11.20 L 57.12 11.20 L 56.21 11.20 L 55.29 11.20 L 54.35 11.20 L 53.40 11.20 L 52.56 11.20 L 51.72 11.20 L 50.92 11.21 L 50.12 11.21 L 49.32 11.10 L 48.51 10.99 L 48.00 10.97 L 47.49 10.94 L 46.73 10.94 L 45.97 10.94 L 45.17 10.93 L 44.36 10.93 L 43.44 10.93 L 42.52 10.93 L 41.69 10.93 L 40.85 10.93 L 40.03 10.93 L 39.21 10.93 L 38.61 10.93 L 38.01 10.93 L 37.42 10.94 L 36.84 10.94 L 36.28 11.05 L 35.73 11.16 L 35.32 11.18 L 34.92 11.19 L 34.52 11.20 L 34.11 11.20 L 33.60 11.20 L 33.08 11.20 L 32.54 11.20 L 32.01 11.20 L 31.46 11.20 L 30.92 11.20 L 30.38 11.20 L 29.84 11.20 L 29.29 11.20 L 28.75 11.20 L 28.31 11.20 L 27.88 11.20 L 27.31 11.21 L 26.75 11.21 L 26.31 11.32 L 25.86 11.43 L 25.55 11.45 L 25.24 11.48 L 24.82 11.60 L 24.39 11.72 L 23.94 11.87 L 23.50 12.01 L 23.08 12.25 L 22.67 12.50 L 22.27 12.65 L 21.88 12.80 L 21.37 13.05 L 20.85 13.30 L 20.49 13.44 L 20.12 13.58 L 19.72 13.61 L 19.32 13.64 L 18.85 13.77 L 18.39 13.90 L 17.84 14.15 L 17.29 14.40 L 16.71 14.69 L 16.13 14.98 L 15.67 15.38 L 15.21 15.78 L 14.66 16.21 L 14.12 16.63 L 13.75 17.09 L 13.38 17.55 L 13.07 18.12 L 12.76 18.68 L 12.47 19.49 L 12.18 20.29 L 12.01 21.11 L 11.85 21.93 L 11.60 22.84 L 11.35 23.75 L 11.09 24.80 L 10.82 25.85 L 10.54 26.74 L 10.26 27.64 L 10.21 28.48 L 10.15 29.33 L 10.03 30.02 L 9.91 30.71 L 9.78 31.53 L 9.64 32.35 L 9.62 33.06 L 9.59 33.77 L 9.48 34.67 L 9.36 35.57 L 9.34 36.31 L 9.31 37.06 L 9.31 37.75 L 9.30 38.45 L 9.30 39.13 L 9.30 39.81 L 9.30 40.62 L 9.30 41.43 L 9.42 42.30 L 9.54 43.17 L 9.79 43.92 L 10.05 44.68 L 10.44 45.50 L 10.82 46.33 L 11.23 47.03 L 11.63 47.74 L 11.91 48.28 L 12.19 48.82 L 12.35 49.33 L 12.50 49.85 L 12.66 50.43 L 12.81 51.01 L 13.13 51.55 L 13.45 52.10 L 14.02 52.47 L 14.60 52.84 L 15.26 53.13 L 15.92 53.42 L 16.83 53.81 L 17.74 54.20 L 18.71 54.51 L 19.68 54.81 L 20.52 54.98 L 21.35 55.14 L 22.05 55.39 L 22.75 55.64 L 23.37 55.81 L 24.00 55.98 L 24.54 56.01 L 25.08 56.04 L 25.36 56.14 L 25.64 56.24 L 26.03 56.37 L 26.43 56.51 L 26.88 56.65 L 27.33 56.80 L 27.87 56.83 L 28.41 56.86 L 29.06 56.98 L 29.71 57.09 L 30.35 57.11 L 30.99 57.13 L 31.52 57.34 L 32.05 57.55 L 32.59 57.70 L 33.12 57.85 L 33.70 58.11 L 34.28 58.36 L 35.00 58.42 L 35.73 58.49 L 36.41 58.50 L 37.10 58.51 L 37.67 58.51 L 38.24 58.51 L 38.90 58.51 L 39.56 58.51 L 40.23 58.51 L 40.91 58.51 L 41.59 58.51 L 42.27 58.51 L 42.94 58.51 L 43.62 58.51 L 44.63 58.51 L 45.63 58.51 L 46.49 58.51 L 47.34 58.51 L 48.05 58.51 L 48.77 58.51 L 49.30 58.51 L 49.84 58.51 L 50.27 58.61 L 50.71 58.72 L 51.27 58.75 L 51.84 58.77 L 52.71 58.78 L 53.58 58.78 L 54.52 58.78 L 55.45 58.78 L 56.51 58.78 L 57.56 58.78 L 58.43 58.78 L 59.29 58.78 L 60.01 58.78 L 60.72 58.78 L 61.30 58.78 L 61.88 58.78 L 62.32 58.78 L 62.76 58.78 L 63.28 58.78 L 63.81 58.78 L 64.35 58.78 L 64.89 58.78 L 65.54 58.78 L 66.19 58.78 L 66.75 58.78 L 67.32 58.78 L 67.97 58.78 L 68.63 58.78 L 69.31 58.78 L 69.98 58.78 L 70.52 58.78 L 71.06 58.78 L 71.71 58.89 L 72.37 59.00 L 73.07 59.02 L 73.77 59.04 L 74.45 59.05 L 75.14 59.05 L 75.93 59.05 L 76.71 59.05 L 77.55 59.05 L 78.38 59.05 L 79.30 58.94 L 80.23 58.83 L 81.07 58.81 L 81.92 58.79 L 82.70 58.66 L 83.49 58.53 L 83.99 58.28 L 84.49 58.03 L 84.85 57.89 L 85.20 57.76 L 85.59 57.73 L 85.97 57.70 L 86.47 57.59 L 86.98 57.48 L 87.49 57.46 L 87.99 57.44 L 88.63 57.43 L 89.27 57.43 L 89.84 57.43 L 90.40 57.42 L 91.17 57.42 L 91.93 57.42 L 92.63 57.42 L 93.32 57.42 L 93.90 57.42 L 94.47 57.42 L 94.91 57.42 L 95.35 57.42 L 95.66 57.42 L 95.96 57.42 L 96.24 57.42 L 96.52 57.42 L 96.90 57.42 L 97.29 57.42 L 97.58 57.42 L 97.87 57.42 L 98.08 57.42 L 98.29 57.41 L 98.56 57.52 L 98.82 57.62 L 99.22 57.65 L 99.62 57.68 L 100.02 57.79 L 100.42 57.90 L 100.99 57.93 L 101.55 57.96 L 102.09 57.96 L 102.64 57.96 L 103.18 57.97 L 103.72 57.97 L 104.23 57.97 L 104.74 57.96 L 105.28 58.07 L 105.82 58.18 L 106.50 58.20 L 107.19 58.23 L 107.98 58.23 L 108.77 58.24 L 109.43 58.24 L 110.09 58.23 L 110.55 58.34 L 111.00 58.45 L 111.54 58.47 L 112.07 58.49 L 112.58 58.60 L 113.09 58.71 L 113.78 58.85 L 114.46 58.98 L 115.25 59.01 L 116.04 59.04 L 116.85 59.15 L 117.66 59.27 L 118.39 59.29 L 119.12 59.31 L 119.70 59.32 L 120.28 59.32 L 120.72 59.32 L 121.16 59.33 L 121.58 59.33 L 121.99 59.33 L 122.54 59.32 L 123.10 59.32 L 123.64 59.21 L 124.19 59.10 L 124.70 59.08 L 125.21 59.06 L 125.85 59.06 L 126.50 59.06 L 127.06 59.06 L 127.62 59.05 L 128.31 59.05 L 129.00 59.05 L 129.57 58.94 L 130.15 58.83 L 130.81 58.81 L 131.48 58.79 L 131.94 58.67 L 132.39 58.56 L 132.88 58.54 L 133.37 58.52 L 133.79 58.52 L 134.21 58.51 L 134.66 58.51 L 135.11 58.51 L 135.63 58.40 L 136.16 58.29 L 136.58 58.27 L 137.01 58.25 L 137.67 58.13 L 138.33 58.01 L 138.87 57.88 L 139.40 57.75 L 140.06 57.73 L 140.72 57.70 L 141.22 57.58 L 141.72 57.45 L 142.15 57.32 L 142.58 57.18 L 142.96 57.06 L 143.33 56.93 L 143.67 56.89 L 144.02 56.85 L 144.25 56.71 L 144.48 56.57 L 144.79 56.39 L 145.10 56.22 L 145.32 55.90 L 145.55 55.57 L 145.70 55.27 L 145.86 54.97 L 146.01 54.56 L 146.16 54.16 L 146.29 53.76 L 146.43 53.36 L 146.66 52.76 L 146.90 52.15 L 147.16 51.61 L 147.42 51.06 L 147.69 50.52 L 147.96 49.97 L 148.22 49.44 L 148.49 48.92 L 148.75 48.50 L 149.01 48.08 L 149.29 47.65 L 149.58 47.21 L 149.87 46.53 L 150.17 45.85 L 150.34 45.15 L 150.51 44.46 L 150.66 43.85 L 150.81 43.25 L 150.84 42.59 L 150.86 41.92 L 150.98 41.35 L 151.09 40.79 L 151.12 40.10 L 151.14 39.41 L 151.15 38.69 L 151.15 37.98 L 151.04 37.40 L 150.93 36.82 L 150.91 36.31 L 150.89 35.79 L 150.89 35.25 L 150.89 34.71 L 150.88 34.33 L 150.88 33.94 L 150.99 33.53 L 151.09 33.13 L 151.12 32.63 L 151.14 32.14 L 151.03 31.68 L 150.91 31.22 L 150.79 30.70 L 150.66 30.19 L 150.53 29.68 L 150.40 29.18 L 150.38 28.57 L 150.35 27.96 L 150.35 27.36 L 150.34 26.76 L 150.19 26.21 L 150.05 25.66 L 149.76 25.28 L 149.47 24.90 L 149.24 24.66 L 149.00 24.42 L 148.87 24.10 L 148.74 23.79 L 148.61 23.40 L 148.47 23.01 L 148.32 22.57 L 148.17 22.13 L 147.89 21.66 L 147.61 21.19 L 147.32 20.86 L 147.03 20.53 L 146.77 20.27 L 146.51 20.01 L 146.27 19.66 L 146.02 19.32 L 145.88 19.07 L 145.74 18.81 L 145.60 18.44 L 145.47 18.07 L 145.27 17.68 L 145.08 17.30 L 144.79 17.08 L 144.50 16.87 L 144.22 16.61 L 143.94 16.35 L 143.67 16.19 L 143.40 16.03 L 143.11 15.77 L 142.82 15.51 L 142.43 15.34 L 142.05 15.18 L 141.80 14.97 L 141.56 14.76 L 141.25 14.46 L 140.93 14.16 L 140.47 13.96 L 140.01 13.76 L 139.49 13.62 L 138.97 13.47 L 138.32 13.22 L 137.66 12.98 L 136.85 12.81 L 136.03 12.64 L 135.22 12.50 L 134.41 12.36 L 133.72 12.23 L 133.02 12.09 L 132.49 11.97 L 131.95 11.85 L 131.40 11.61 L 130.85 11.36 L 130.15 11.20 L 129.46 11.03 L 128.55 10.88 L 127.64 10.74 L 126.58 10.60 L 125.53 10.46 L 124.46 10.33 L 123.38 10.19 L 122.50 10.06 L 121.62 9.92 L 121.02 9.89 L 120.42 9.87 L 119.89 9.76 L 119.36 9.65 L 118.67 9.51 L 117.99 9.37 L 117.17 9.35 L 116.36 9.32 L 115.32 9.31 L 114.29 9.31 L 113.11 9.30 L 111.92 9.30 L 110.93 9.30 L 109.93 9.30 L 109.08 9.30 L 108.23 9.30 L 107.49 9.30 L 106.75 9.30 L 105.95 9.41 L 105.15 9.52 L 104.24 9.54 L 103.32 9.57 L 102.27 9.68 L 101.22 9.79 L 100.03 9.81 L 98.84 9.84 L 97.84 9.95 L 96.84 10.06 L 95.98 10.09 L 95.13 10.11 L 94.31 10.22 L 93.48 10.34 L 92.56 10.36 L 91.64 10.38 L 90.69 10.49 L 89.75 10.61 L 88.69 10.63 L 87.62 10.65 L 86.86 10.77 L 86.11 10.88 L 85.50 10.91 L 84.88 10.93 L 84.55 11.05 L 84.21 11.16 L 83.76 11.18 L 83.32 11.19 L 82.90 11.20 L 82.48 11.20 L 81.85 11.20 L 81.23 11.20 L 80.45 11.20 L 79.67 11.20 L 78.86 11.20 L 78.06 11.20 L 77.30 11.21 L 76.54 11.21 L 76.16 11.32 L 75.79 11.44 L 75.64 11.45 L 75.49 11.47 L 75.42 11.49 L 75.35 11.50 L 75.29 11.53 L 75.23 11.56 L 75.17 11.60 L 75.11 11.63 L 75.07 11.68 L 75.02 11.73 L 74.98 11.79 L 74.94 11.85 L 74.92 11.90 L 74.90 11.97 L 74.88 12.03 L 74.87 12.10 L 74.87 12.17 L 74.87 12.24 L 74.89 12.31 L 74.90 12.37 L 74.93 12.44 L 74.96 12.50 L 75.00 12.56 L 75.04 12.61 L 75.09 12.66 L 75.14 12.71 L 75.19 12.74 L 75.25 12.78 L 75.32 12.81 L 75.38 12.83 L 75.45 12.84 L 75.52 12.85 L 75.58 12.85 L 75.65 12.85 L 75.72 12.84 L 75.79 12.82 L 75.85 12.79 L 75.91 12.77 L 75.97 12.73 L 76.03 12.69 L 76.07 12.64 L 76.12 12.59 L 76.16 12.53 L 76.19 12.47 L 76.22 12.41 L 76.24 12.34 L 76.26 12.28 L 76.27 12.21 L 76.27 12.14 L 76.26 12.07 L 76.25 12.01 L 76.23 11.94 L 76.21 11.89 L 76.18 11.82 L 76.14 11.77 L 76.10 11.71 L 76.05 11.66 L 76.00 11.62 L 75.94 11.58 L 75.89 11.54 L 75.82 11.52 L 75.76 11.49 L 75.69 11.48 L 75.62 11.47 Z"/></svg>
