<svg xmlns="http://www.w3.org/2000/svg" viewBox="8.30 8.30 143.85 52.03" width="143.85" height="52.03" xmlns:v="https://vecta.io/nano"><path fill="#1e1e1e" d="M90.353 11.202q0 0-4.22.01.07.01.14.03.06.02.12.05.06.03.12.08.05.04.09.09.05.06.08.12.03.06.05.12.02.07.03.14.01 8.63 0 .12-.01.07-.03.14-.02.06-.05.12-.03.06-.08.12-.04.05-.09.09-.06.05-.12.08-.06.03-.12.05-.07.02-.14.03-4.34.01-.27.01-.22 0-.48 0-.26 0-.42 0-.16 0-.38-.01-.21-.01-.46-.12-.26-.11-.57-.12-.3-.02-.58-.02-.29 0-.78-.01-.49 0-1.13 0-.64 0-1.42 0-.78 0-1.7 0-.92 0-1.75 0-.84 0-1.66 0-.81 0-1.41 0-.6 0-1.27 0-.66 0-1.23 0-.56 0-1.22 0-.66 0-1.41 0-.76 0-1.45.11-.7.11-1.41.13-.71.02-1.28.03-.58 0-1.13 0-.55 0-1.1 0-.54 0-1.08 0-.55 0-1.2 0-.65 0-1.43 0-.79 0-1.7 0-.92 0-1.86 0-.95 0-1.79 0-.84 0-1.68 0-.85 0-1.67-.11-.83-.11-1.29-.13-.47-.02-1.21-.02-.74 0-1.55-.01-.8 0-1.72 0-.92 0-1.75 0-.84 0-1.66 0-.82 0-1.42 0-.6 0-1.12 0-.52 0-1.05.11-.54.11-1.01.13-.47.02-.89.03-.42 0-.94 0-.52 0-1.06 0-.53 0-1.08 0-.54 0-1.08 0-.54 0-1.09 0-.54 0-.98 0-.43 0-.91 0-.48 0-.9.11-.41.1-.71.12-.3.02-.64.13-.35.1-.71.22-.36.11-.76.35-.4.24-.82.4-.42.17-.94.42-.52.25-1.01.43-.49.17-.92.21-.42.03-.77.13-.35.1-.83.33-.49.23-.99.47-.49.24-.9.6-.4.36-.9.74-.5.38-.77.73-.28.35-.53.81-.26.47-.51 1.18-.26.7-.42 1.49-.16.79-.41 1.72-.25.93-.52 1.99-.27 1.06-.54 1.89-.26.83-.31 1.63-.05.81-.17 1.53-.12.73-.25 1.5-.13.77-.16 1.46-.03.7-.14 1.6-.11.9-.14 1.6-.02.71-.02 1.39-.01.68-.01 1.36 0 .68 0 1.45 0 .76.1 1.51.1.76.32 1.41.23.65.59 1.42.36.76.75 1.46.4.69.72 1.3.31.61.49 1.2.18.59.31 1.09.13.51.31.84.17.32.56.56.4.24 1.01.5.62.27 1.49.64.87.38 1.78.66.9.28 1.75.45.84.17 1.57.43.72.25 1.25.4.53.15 1.09.18.56.03.93.16.38.13.76.26.39.13.75.25.36.13.85.15.49.02 1.13.14.65.11 1.35.14.71.03 1.32.26.61.23 1.17.39.55.15 1.07.39.51.24 1.09.28.58.04 1.24.05.66.01 1.23.01.57 0 1.22 0 .66 0 1.33 0 .68 0 1.36 0 .68 0 1.35 0 .68 0 1.69 0 1 0 1.86 0 .85 0 1.56 0 .72 0 1.34 0 .62.01 1.07.12.44.1.93.12.48.02 1.34.03.86 0 1.79 0 .93 0 1.99 0 1.05 0 1.92 0 .86 0 1.58 0 .71 0 1.29 0 .58 0 1.02 0 .44 0 .96 0 .53 0 1.07 0 .54 0 1.19 0 .65 0 1.21 0 .57 0 1.22 0 .66 0 1.34 0 .67 0 1.27 0 .6 0 1.26.11.66.11 1.31.13.65.02 1.32.03.67 0 1.46 0 .79 0 1.57 0 .79.01 1.71-.1.92-.11 1.75-.13.83-.02 1.46-.12.64-.1 1.07-.33.44-.22.92-.4.49-.18.92-.22.44-.03.95-.15.52-.11 1.1-.14.57-.02 1.23-.03.66 0 1.22 0 .57-.01 1.34-.01.76 0 1.46 0 .69 0 1.27 0 .57 0 1.01 0 .44 0 .75 0 .3 0 .58 0 .28 0 .66 0 .39 0 .68 0 .29 0 .63.01.35.01.63.12.28.11.64.13.37.01.77.13.4.11.86.13.47.02 1 .02.53 0 1.08.01.54 0 1.11 0 .58 0 1.13.11.55.11 1.17.13.62.02 1.39.02.78.01 1.52.01.74 0 1.21.11.47.11 1 .13.52.03 1.09.14.57.12 1.19.25.62.12 1.39.15.77.02 1.58.14.81.11 1.49.13.68.02 1.25.03.58 0 1.02 0 .43.01.85.01.41 0 .9 0 .48 0 1.01-.11.53-.11 1.11-.13.57-.02 1.23-.03.66 0 1.23 0 .56-.01 1.19 0 .62 0 1.18-.11.56-.11 1.21-.13.64-.02 1.1-.13.46-.12 1.02-.14.57-.03 1.01-.03.44-.01.81-.01.38 0 .89-.1.51-.11.94-.13.44-.03 1.04-.13.59-.11 1.18-.25.58-.13 1.24-.16.65-.02 1.06-.13.41-.1.82-.23.4-.13.85-.27.44-.15.7-.16.25-.02.36-.1.1-.09.3-.18.19-.09.29-.25.09-.16.21-.39.12-.23.25-.58.13-.36.26-.76.14-.41.39-1.05.26-.64.53-1.22.27-.57.54-1.12.27-.55.55-1.11.28-.56.57-1.01.28-.45.54-.84.26-.4.5-.97.25-.57.41-1.21.15-.64.29-1.17.13-.54.16-1.19.02-.65.14-1.21.11-.57.13-1.19.02-.62.03-1.26.01-.63-.1-1.2-.11-.56-.13-1.14-.03-.58-.03-1.13 0-.55 0-1.03 0-.48.11-.9.11-.43.13-.75.02-.32-.08-.67-.09-.36-.22-.88-.13-.51-.27-1.09-.15-.57-.18-1.26-.03-.69-.03-1.22 0-.53-.08-.86-.08-.33-.26-.56-.19-.23-.49-.55-.29-.31-.49-.76-.19-.45-.34-.86-.14-.42-.27-.79-.12-.37-.33-.72-.21-.35-.45-.61-.24-.27-.52-.56-.29-.3-.58-.71-.3-.42-.49-.76-.18-.33-.33-.73-.15-.4-.23-.6-.08-.2-.27-.32-.2-.12-.46-.37-.26-.24-.52-.4-.27-.15-.52-.39-.26-.24-.63-.39-.38-.16-.72-.44-.35-.29-.58-.53-.24-.23-.54-.35-.3-.13-.81-.27-.5-.14-1.14-.38-.63-.24-1.38-.39-.75-.15-1.55-.29-.81-.14-1.53-.28-.71-.14-1.32-.28-.62-.15-1.17-.4-.55-.24-1.16-.39-.61-.14-1.48-.28-.87-.14-1.92-.27-1.04-.13-2.12-.26-1.09-.14-1.94-.27-.85-.14-1.47-.17-.62-.03-1.2-.14-.58-.12-1.21-.25-.62-.13-1.37-.15-.75-.02-1.77-.03-1.02 0-2.2-.01-1.19 0-2.18 0-1 0-1.85 0-.85 0-1.54 0-.69 0-1.48.11-.8.11-1.72.13-.92.02-1.98.14-1.05.11-2.24.13-1.19.02-2.19.14-.99.11-1.84.13-.85.02-1.67.14-.82.11-1.75.13-.93.03-1.88.14-.94.1-2 .13-1.05.02-1.8.13-.75.11-1.3.13-.55.02-.89.13-.33.12-.89.14-.55.03-.99.04-.43 0-1.06 0-.63 0-1.41 0-.78 0-1.59 0-.8 0-1.46 0-.65 0-.99.1-.34.11-.62.14-.27.02-.34.01-.07-.01-.13-.03-.07-.03-.13-.07-.05-.03-.1-.08-.05-.05-.09-.1-.04-.06-.07-.12-.03-.07-.04-.13-.02-.07-.02-.14 0-.07.01-.14.02-.06.04-.13.02-.05.06-.11.04-.06.09-.11.04-.05.1-.08.06-.04.12-.07.06-.03.13-.04.07-.02.13-.02.07 0 .14.01.07.01.13.04.07.02.12.06.06.04.11.08.05.05.09.11.04.05.07.12.02.05.04.12.01.06.02.13 0 .07-.01.14-.02.06-.04.13-.03.06-.06.12-.04.06-.09.11-.04.05-.1.09-.06.04-.12.06-.06.03-.13.05-.07.01-.14.01-.06 0-.13-.01-.07-.01-.13-.03-.07-.03-.13-.07-.05-.03-.1-.08-.05-.05-.09-.1-.04-.06-.07-.12-.03-.07-.04-.13-.02-.07-.02-.14 0-.07.01-.14.02-.06.04-.13.02-.05.06-.11.04-.06.09-.11.04-.05.1-.08.06-.04.12-.07.06-.03.13-.04.07-.02.22-.04.15-.01.52-.13.38-.11 1.14-.11.76-.01 1.56-.01.81 0 1.59 0 .78 0 1.4 0 .63 0 1.05 0 .42-.01.86-.02.45-.02.79-.13.33-.12.95-.14.61-.03 1.36-.14.76-.12 1.83-.14 1.06-.02 2-.14.95-.11 1.87-.13.92-.02 1.75-.14.82-.11 1.67-.13.86-.03 1.86-.14 1-.11 2.19-.14 1.19-.02 2.24-.13 1.05-.11 1.97-.14.91-.02 1.71-.13.8-.11 1.54-.11.74 0 1.59 0 .85 0 1.85 0 .99 0 2.18 0 1.18.01 2.21.01 1.04.01 1.85.04.82.02 1.5.16.69.14 1.22.25.53.11 1.13.13.6.03 1.48.17.88.13 1.96.27 1.07.13 2.12.27 1.06.14 1.97.28.91.15 1.6.32.7.16 1.25.41.55.24 1.09.36.53.12 1.23.26.69.13 1.5.27.81.14 1.63.31.81.17 1.47.41.65.25 1.17.4.52.14.98.34.46.2.78.5.31.3.55.51.25.21.63.37.39.17.68.43.29.26.56.42.27.16.55.42.28.26.57.47.29.22.48.6.2.39.33.76.14.37.28.63.14.25.39.59.24.35.5.61.26.26.55.59.29.33.57.8.28.47.43.91.15.44.29.83.13.39.26.7.13.32.37.56.23.24.52.62.29.38.43.93.15.55.16 1.15 0 .6.03 1.21.02.61.15 1.11.13.51.26 1.02.12.52.24.98.11.46.09.95-.03.5-.13.9-.11.41-.11.8.01.38.01.92 0 .54.02 1.06.02.51.13 1.09.11.58.11 1.29-.01.72-.03 1.41-.03.69-.14 1.25-.12.57-.14 1.24-.03.66-.18 1.26-.15.61-.32 1.3-.17.7-.47 1.38-.29.68-.58 1.12-.28.43-.54.85-.26.42-.53.94-.26.53-.53 1.08-.27.54-.53 1.09-.26.54-.5 1.15-.23.6-.37 1-.13.4-.28.8-.15.41-.31.71-.15.3-.38.63-.22.32-.53.49-.31.18-.54.32-.23.14-.58.18-.34.04-.71.17-.38.12-.81.26-.43.13-.93.26-.5.12-1.16.15-.66.02-1.19.15-.54.13-1.2.25-.66.12-1.09.14-.42.02-.95.13-.52.11-.97.11-.45 0-.87.01-.42 0-.91.02-.49.02-.94.13-.46.12-1.13.14-.66.02-1.24.13-.57.11-1.26.11-.69 0-1.25.01-.56 0-1.21 0-.64 0-1.15.02-.51.02-1.06.13-.54.11-1.1.11-.55.01-.96.01-.42 0-.86-.01-.44 0-1.02 0-.58-.01-1.31-.03-.73-.02-1.54-.14-.81-.11-1.6-.14-.79-.03-1.47-.16-.69-.14-1.2-.25-.51-.11-1.04-.13-.54-.02-.99-.13-.46-.11-1.12-.1-.66 0-1.45-.01-.79 0-1.48-.03-.68-.02-1.22-.13-.54-.11-1.05-.1-.51 0-1.05 0-.54-.01-1.09-.01-.54 0-1.1-.03-.57-.03-.97-.14-.4-.11-.8-.14-.4-.03-.66-.13-.27-.11-.48-.1-.21 0-.5 0-.29 0-.68 0-.38 0-.66 0-.28 0-.58 0-.31 0-.75 0-.44 0-1.01 0-.58 0-1.27 0-.7 0-1.46 0-.77 0-1.33.01-.57 0-1.21 0-.64.01-1.14.03-.51.02-1.02.13-.5.11-.88.14-.39.03-.74.16-.36.14-.86.39-.5.25-1.29.38-.78.13-1.63.15-.84.02-1.77.13-.92.11-1.75.11-.84 0-1.62 0-.79 0-1.48 0-.68-.01-1.38-.03-.7-.02-1.36-.13-.65-.11-1.19-.11-.54 0-1.21 0-.68 0-1.34 0-.65 0-1.22 0-.56 0-1.21 0-.65 0-1.19 0-.54 0-1.07 0-.52 0-.96 0-.44 0-1.02 0-.58 0-1.29 0-.72 0-1.58 0-.87 0-1.92 0-1.06 0-1.99 0-.94 0-1.81 0-.87-.01-1.44-.03-.56-.03-1-.14-.43-.1-.97-.1-.53 0-1.25 0-.71 0-1.56 0-.86 0-1.86 0-1.01 0-1.69 0-.67 0-1.35 0-.68 0-1.36 0-.67 0-1.33 0-.66 0-1.23 0-.57 0-1.26-.01-.68-.01-1.41-.08-.72-.06-1.3-.31-.58-.26-1.11-.41-.54-.15-1.07-.36-.53-.21-1.17-.23-.64-.02-1.29-.13-.65-.12-1.19-.15-.54-.03-.99-.18-.45-.14-.85-.28-.39-.13-.67-.23-.28-.1-.82-.13-.54-.03-1.17-.2-.62-.17-1.32-.42-.7-.25-1.53-.41-.84-.17-1.81-.47-.97-.31-1.88-.7-.91-.39-1.57-.68-.66-.29-1.24-.66-.57-.37-.89-.92-.32-.54-.47-1.12-.16-.58-.31-1.1-.16-.51-.44-1.05-.28-.54-.68-1.25-.41-.7-.79-1.53-.39-.82-.65-1.58-.25-.75-.37-1.62-.12-.87-.12-1.68 0-.81 0-1.49 0-.68.01-1.38 0-.69.03-1.44.02-.74.14-1.64.11-.9.14-1.61.02-.71.16-1.53.13-.82.25-1.51.12-.69.18-1.54.05-.84.33-1.74.28-.89.55-1.94.26-1.05.51-1.96.25-.91.41-1.73.17-.82.46-1.62.29-.81.6-1.37.31-.57.68-1.03.37-.46.91-.88.55-.43 1.01-.83.46-.4 1.04-.69.58-.29 1.13-.54.55-.25 1.01-.38.47-.13.87-.16.4-.03.77-.17.36-.14.88-.39.51-.25.9-.4.4-.15.81-.4.42-.24.86-.38.45-.15.88-.27.42-.12.73-.15.31-.02.76-.13.44-.11 1-.11.57-.01 1-.01.44 0 .98 0 .55 0 1.09 0 .54 0 1.08 0 .55 0 1.08 0 .54 0 1.06 0 .51 0 .92 0 .4-.01.8-.02.41-.02.96-.13.56-.11 1.14-.11.59-.01 1.19-.01.6 0 1.42 0 .82 0 1.66 0 .83 0 1.75 0 .92 0 1.73 0 .8.01 1.56.01.76 0 1.27.03.51.02 1.32.13.8.11 1.6.11.8-.01 1.64-.01.84 0 1.79 0 .94 0 1.86 0 .91 0 1.7 0 .78 0 1.43 0 .65 0 1.2 0 .54 0 1.08 0 .55 0 1.1 0 .54 0 1.11 0 .57-.01 1.22-.03.66-.02 1.37-.13.7-.1 1.51-.11.81 0 1.47 0 .66 0 1.22 0 .57 0 1.23 0 .67 0 1.27 0 .6 0 1.41 0 .82 0 1.66 0 .83 0 1.75 0 .92 0 1.7 0 .78 0 1.42 0 .64 0 1.14 0 .5.01.8.01.3 0 .74.04.45.03.68.13.24.11.31.1.07-.01.23-.01.16 0 .42 0 .26 0 .48 0 4.49 0 4.49 0h0z"/></svg>