<svg xmlns="http://www.w3.org/2000/svg" viewBox="8.30 8.30 364.62 269.12" width="364.62" height="269.12" xmlns:v="https://vecta.io/nano"><path fill="#1e1e1e" d="M197.955 9.503q0 0 .01 4.22.01-.07.03-.14.02-.06.05-.12.03-.06.08-.12.04-.05.09-.09.06-.05.12-.08.06-.03.12-.05.07-.02.14-.03 8.63-.01.12 0 .07.01.14.03.06.02.12.05.06.03.12.08.05.04.09.09.05.06.08.12.03.06.05.12.02.07.03.14.01 4.34-.06.63-.06.57-.69.76-.64.19-.76-.04-.11-.23-.1-.17.01.06-.19.06-.2-.01-.43-.01-.23 0-.47 0-.23 0-.66 0-.42 0-.7 0-.27 0-.51 0-.25 0-.86 0-.62 0-1.07-.01-.46 0-1.12.19-.65.19-1.4.23-.75.04-1.65.05-.91.01-1.85.01-.94 0-1.88 0-.94 0-1.7 0-.76 0-1.47 0-.72 0-1.43 0-.72 0-1.38 0-.66-.01-1.36.18-.7.19-1.21.23-.52.03-1.19.23-.67.2-1.23.24-.55.05-.86.05-.3.01-.74.01-.45.01-.91.01-.47 0-1.13 0-.66 0-1.17 0-.51 0-1.18 0-.67 0-1.42-.01-.74 0-1.46-.19-.72-.19-1.43-.23-.71-.04-1.42-.23-.71-.2-1.37-.24-.66-.03-1.55-.04-.89-.01-1.64-.01-.74 0-1.46 0-.72 0-1.24 0-.52 0-1.19 0-.67 0-1.37 0-.71 0-1.22 0-.52 0-1.15 0-.62-.01-1.32.18-.69.19-1.63.23-.94.04-1.89.05-.94.01-1.89.01-.94 0-1.85 0-.91 0-1.85.19-.94.19-1.92.23-.98.04-1.93.04-.95.01-1.71.01-.76.01-1.48.01-.72 0-1.47-.01-.76 0-1.51-.2-.75-.19-1.62-.41-.86-.22-1.78-.27-.92-.04-2.08-.24-1.16-.2-2.31-.43-1.15-.23-2.51-.27-1.36-.04-2.82-.25-1.45-.21-2.73-.63-1.28-.43-2.27-.89-1-.46-1.92-.73-.93-.28-1.84-.51-.9-.24-2.18-.28-1.28-.05-2.68-.06-1.39-.01-2.95-.01-1.57-.01-3.18.36-1.61.38-3.08.64-1.46.27-2.53.51-1.07.25-2.08.3-1 .05-1.99.06-.99.01-2.13-.18-1.14-.19-2.66-.22-1.53-.04-3.18-.05-1.65 0-3.14-.2-1.5-.19-2.75-.42-1.26-.23-2.27-.47-1.02-.24-1.94-.47-.93-.23-1.84-.27-.9-.04-2.2-.05-1.29-.01-2.66.17-1.37.18-2.78.41-1.41.23-3.04.46-1.63.24-2.92.29-1.29.05-2.31.06-1.01.01-1.93.01-.92-.01-1.67.18-.76.19-1.89.23-1.14.04-2.12.05-.99.01-2.1.01-1.12 0-2.48.19-1.36.19-2.57.23-1.21.03-2.17.22-.97.19-1.9.42-.94.21-1.73.45-.78.24-1.31.29-.53.05-1.15.23-.62.19-1.09.39-.47.21-1.11.62-.65.41-1.32.86-.68.44-1.38 1.1-.7.65-1.46 1.2-.76.54-1.48.84-.72.3-1.42.73-.7.43-1.59.89-.9.46-1.61.91-.71.45-1.21.9-.5.45-1.14 1.07-.64.63-.92 1.08-.28.44-.51 1.03-.22.59-.27 1.23-.04.64-.05 1.56-.01.92-.2 1.86-.2.94-.23 1.89-.04.94-.24 1.89-.2.94-.23 1.67-.04.72-.05 1.43-.01.71-.01 1.23 0 .52 0 1.19 0 .67 0 1.37 0 .71 0 1.55-.01.84.18 1.38.19.55.23 1.29.04.73.05 1.63.01.9.01 1.84 0 .94 0 2.24 0 1.29.19 2.66.18 1.37.4 2.55.21 1.17.81 2.51.6 1.33 1.09 2.36.5 1.03.79 1.61.29.58.74 1.48.44.9.74 1.9.29 1 .35 1.76.06.77.25 1.64.19.87.42 1.61.23.74.47 1.66.24.93.47 2.06.24 1.13.48 2.14.24 1.01.29 2.15.05 1.15.25 2.14.2.98.24 1.94.04.95.23 1.89.2.95.24 1.93.04.98.05 2.13.01 1.14.01 2.12 0 .99 0 2.16 0 1.17-.19 2.37-.2 1.21-.42 2.4-.23 1.18-.47 2.37-.23 1.18-.47 2.36-.23 1.19-.48 2.39-.24 1.21-.67 2.4-.43 1.2-1.07 3.5-.65 2.29-1.16 4.45-.5 2.16-.79 3.32-.28 1.16-.34 2.34-.06 1.17-.26 2.17-.2.99-.24 1.94-.04.95-.24 2.11-.2 1.15-.43 2.49-.22 1.34-.27 2.74-.04 1.41-.24 2.84-.2 1.44-.43 2.84-.23 1.4-.27 2.63-.05 1.23-.25 2.42-.19 1.19-.23 2.73-.04 1.53-.05 2.97-.01 1.45-.01 3.25 0 1.8 0 3.86 0 2.06 0 3.99 0 1.93 0 3.82 0 1.9 0 3.4 0 1.49.19 3.11.19 1.63.22 3.27.04 1.65.24 3.31.2 1.65.24 3.32.04 1.68.04 2.96.01 1.28.01 2.48.01 1.2.01 2.01 0 .81 0 1.73 0 .92 0 1.86 0 .94 0 2.07 0 1.13 0 2.31 0 1.17 0 2.35 0 1.18-.01 2.33 0 1.16.19 2.33.19 1.18.23 2.39.04 1.21.05 2.2.01 1 .01 1.96 0 .95 0 1.9 0 .95 0 2.09 0 1.13 0 2.49 0 1.36 0 2.58 0 1.22 0 2.41 0 1.19 0 2.41 0 1.21-.19 2.21-.19 1-.23 1.93-.04.92-.04 1.89-.01.98-.21 1.93-.19.96-.23 1.72-.03.76-.23 1.66-.2.91-.23 1.81-.04.9-.05 1.84-.01.94-.01 1.88 0 .94 0 2.08 0 1.13 0 2.12 0 .98 0 1.93 0 .96 0 1.9 0 .95 0 1.66-.01.71.18 1.42.19.71.23 1.47.04.75.05 1.63.01.87.2 1.8.19.93.22 1.86.04.94.22 1.63.18.7.4 1.19.21.5.44.96.22.46.64 1.12.42.66.68 1.14.26.49.66.93.4.44.81.87.41.42 1.05.7.65.27 1.21.75.56.47 1.05.95.49.47.97.94.48.48.9.91.42.43 1.07.7.65.28 1.19.74.54.45 1.16.88.63.44 1.34.73.72.29 1.19.7.48.42 1.04.48.56.05 1.36.08.8.02 1.66-.33.85-.35 1.77-.79.92-.44 1.7-.93.79-.48 1.94-.78 1.15-.3 2.12-.55.98-.24 1.94-.48.96-.24 2.13-.48 1.17-.25 2.18-.3 1.02-.05 1.79-.06.78-.01 1.69-.01.91 0 1.66 0 .75 0 1.47 0 .71 0 1.23 0 .53 0 1.2 0 .67 0 1.18 0 .51 0 1.18 0 .67 0 1.38 0 .7 0 1.4 0 .71 0 1.61 0 .9 0 1.6 0 .7 0 1.41-.18.71-.19 1.65-.23.95-.05 1.7-.05.76-.01 1.47-.01.72 0 1.43 0 .72 0 1.24 0 .52 0 1.25 0 .73.01 1.3.21.57.2 1.25.44.68.23 1.22.47.53.24 1.39.67.87.43 1.77.88.9.45 1.77.71.88.27 1.99.32 1.11.05 2.28.25 1.17.2 2.17.25 1 .04 1.99.24.99.2 1.91.43.92.22 1.82.26.91.04 1.85.05.93.01 1.88.01.94.01 2.05.01 1.11 0 2.47-.19 1.36-.19 2.79-.23 1.43-.04 2.44-.04 1.02-.01 2.16-.2 1.15-.19 2.1-.22.95-.03 1.9-.42.94-.38 1.92-.47.99-.08 2.13-.29 1.15-.2 2.52-.24 1.37-.05 2.95-.24 1.57-.2 3.21-.42 1.64-.23 3.12-.47 1.48-.23 2.55-.28 1.08-.05 2.05-.06.97-.01 1.93-.01.95-.01 1.89-.01.95 0 2.3 0 1.35.01 2.77.2 1.43.19 2.88.42 1.45.24 2.68.66 1.24.43 2.57.69 1.33.27 2.33.32 1 .05 2.15.06 1.14.01 2.29.02 1.14 0 2.29-.19 1.16-.18 2.53-.41 1.37-.23 2.97-.46 1.6-.23 3.05-.47 1.45-.24 2.87-.47 1.41-.23 2.44-.47 1.03-.23 2.02-.47 1-.25 1.99-.3.99-.05 2.13-.06 1.15-.01 2.32-.01 1.17 0 2.38 0 1.21 0 2.43.19 1.21.2 2.37.42 1.16.22 2.53.27 1.37.05 2.44.25 1.06.2 2.04.43.97.23 1.88.46.92.23 2 .28 1.1.04 2.45.05 1.36.01 2.76.01 1.41 0 3.01 0 1.61 0 2.9 0 1.3 0 2.5.19 1.21.19 2.37.23 1.16.04 2.14.04.99.01 2.14.01 1.14 0 2.5 0 1.37.01 2.58.01 1.22 0 2.63 0 1.4 0 2.63.19 1.23.19 2.42.22 1.19.04 2.38.24 1.18.2 2.15.23.96.04 2.1.05 1.14.01 2.31.01 1.17 0 2.35 0 1.18 0 2.55 0 1.38 0 2.95 0 1.58 0 3.03-.19 1.45-.19 2.87-.22 1.42-.04 2.65-.24 1.23-.19 2.42-.23 1.19-.04 2.37-.24 1.19-.2 2.78-.24 1.59-.04 3.24-.05 1.66 0 3.53.19 1.86.19 3.57.41 1.7.23 2.97.47 1.26.23 2.81.27 1.55.05 3.17.06 1.61.01 3.24-.18 1.62-.18 3.1-.41 1.48-.23 2.7-.27 1.23-.05 2-.23.77-.19 1.52-.43.76-.23 1.33-.28.58-.06 1.26-.07.69-.01 1.4-.01.7 0 1.6 0 .89 0 1.83 0 .94 0 2.07 0 1.13 0 2.12 0 .98 0 2.12 0 1.14 0 2.13 0 .98 0 1.94 0 .95 0 1.9 0 .94 0 1.82.01.88 0 1.78-.36.9-.37 1.88-.64.97-.28 2.11-.52 1.14-.24 2.16-.49 1.01-.24 2.19-.29 1.18-.05 2.36-.06 1.18-.01 2.18-.01.99 0 2.13 0 1.15 0 2.13 0 .99 0 1.99 0 .99 0 1.76.19.77.19 1.44.23.68.03 1.45.04.76.02 1.29.21.52.19 1.32.22.8.03 1.47.05.66.01 1.46-.33.81-.34 1.7-.95.88-.61 1.61-1.28.73-.68 1.43-1.36.7-.69 1.2-1.37.5-.68.99-1.4.49-.73.99-1.27.49-.54.97-1.03.48-.49.96-.96.47-.48.9-.9.43-.43.69-1.05.27-.63.7-1.33.43-.69.71-1.4.27-.7.74-1.46.47-.77.92-1.26.45-.5.71-1.15.27-.64.71-1.36.44-.71.89-1.57.44-.85.71-1.75.27-.9.51-1.8.24-.9.28-1.81.05-.9.06-1.65 0-.75.01-1.65 0-.91 0-1.85 0-.93 0-1.88 0-.94 0-1.89 0-.94 0-1.7 0-.75 0-1.62.01-.86-.18-1.61-.19-.74-.23-1.82-.03-1.09-.23-1.68-.2-.6-.24-1.49-.04-.9-.23-1.8-.19-.89-.42-1.84-.23-.94-.47-2.09-.23-1.14-.47-2.51-.24-1.36-.48-2.6-.24-1.24-.29-2.63-.04-1.38-.24-2.6-.2-1.22-.24-2.25-.04-1.03-.05-2.18-.01-1.15-.01-2.33 0-1.17 0-2.54 0-1.37 0-2.97 0-1.6 0-3.05 0-1.46 0-3.07 0-1.62 0-3.29 0-1.67.19-3.13.19-1.47.23-2.9.03-1.43.23-3.04.2-1.61.24-3.06.04-1.46.24-2.91.19-1.45.42-2.88.23-1.43.48-2.69.24-1.26.67-2.46.42-1.2.69-2.34.26-1.13.31-1.9.05-.76.06-1.86.01-1.09.02-2.1 0-1 .19-2.17.2-1.17.43-2.54.22-1.37.45-2.56.24-1.2.28-2.39.05-1.19.25-2.19.2-.99.23-1.91.04-.93.05-1.87.01-.94.01-2.1 0-1.16.19-2.34.19-1.18.23-2.33.03-1.15.04-2.33.01-1.18.01-2.36 0-1.18 0-2.17 0-.99 0-1.95 0-.95.01-1.87 0-.91-.19-1.82-.18-.91-.41-2.04-.22-1.13-.46-2.11-.23-.99-.47-2.13-.23-1.14-.46-2.1-.23-.96-.66-2.11-.43-1.15-.7-2.52-.28-1.38-.52-2.21-.25-.84-.49-1.97-.24-1.13-.48-2.29-.23-1.17-.47-2.16-.24-1-.47-2.33-.24-1.33-.48-2.38-.24-1.05-.29-2.21-.05-1.16-.25-2.33-.2-1.18-.24-2.2-.04-1.02-.05-1.98 0-.96-.01-1.91 0-.95 0-1.71 0-.75 0-1.66 0-.91 0-1.85 0-.94 0-1.69 0-.76 0-1.66 0-.91 0-1.66 0-.75 0-1.5.01-.75.2-1.7.2-.94.42-1.85.22-.91.27-1.66.04-.75.24-1.66.2-.9.24-1.66.04-.76.24-1.48.19-.71.23-1.38.03-.67.04-1.56.01-.88.01-1.63 0-.75 0-1.65 0-.91.01-1.89 0-.98.19-1.74.19-.76.22-1.85.04-1.09.24-2.06.2-.98.23-1.93.04-.96.25-1.93.2-.97.42-2.08.23-1.11.27-2.06.04-.95.05-1.9.01-.94.01-1.89 0-.94 0-1.7 0-.76.01-1.44 0-.68-.18-1.53-.18-.85-.42-1.62-.23-.78-.28-1.73-.05-.96-.06-1.87 0-.91-.19-1.81-.18-.89-.39-1.61-.22-.72-.42-1.19-.2-.46-.63-.95-.43-.48-.72-1.17-.28-.69-.72-1.4-.43-.7-.73-1.44-.29-.75-.49-1.38-.21-.63-.72-1.05-.51-.42-1.09-.67-.59-.25-1.42-.3-.83-.05-1.8-.06-.96-.02-1.76-.22-.79-.19-1.71-.42-.92-.23-1.7-.47-.78-.25-1.67-.67-.9-.42-1.99-.68-1.08-.26-2.22-.5-1.14-.24-2.28-.29-1.15-.04-2.32-.05-1.18-.01-2.36-.01-1.18-.01-2.32-.01-1.14 0-2.65.37-1.52.37-3.14.82-1.63.45-3.85 1.11-2.22.66-3.44.97-1.21.33-2.4.58-1.19.25-2.21.5-1.02.24-2.21.3-1.18.05-2.36.06-1.19.01-2.54.01-1.35 0-2.94.19-1.59.19-3.26.23-1.66.03-3.13.04-1.47.01-2.87.01-1.41 0-2.8.19-1.39.18-2.81.41-1.41.23-3.02.46-1.62.24-3.28.48-1.67.23-3.13.28-1.46.05-2.89.25-1.43.2-2.49.24-1.07.04-2.04.05-.97 0-1.77 0-.79 0-1.74-.19-.95-.2-1.92-.43-.96-.24-2.12-.67-1.16-.43-2.3-.88-1.15-.46-2.48-.73-1.34-.27-2.72-.51-1.38-.25-2.58-.29-1.2-.05-2.19-.06-1-.01-1.95-.01-.96 0-1.91 0-.94 0-1.89 0-.94 0-2.06-.01-1.11 0-2.44.19-1.33.19-2.73.41-1.4.23-2.65.46-1.25.24-2.47.29-1.22.05-2.22.06-1 .01-1.77.01-.77 0-1.87 0-1.1 0-2.07 0-.98 0-2.31 0-1.33 0-2.73 0-1.4 0-3.01 0-1.6 0-3.06 0-1.45 0-2.88 0-1.42 0-2.65 0-1.24 0-2.58 0-1.34 0-3.11.37-1.77.38-3.83.65-2.07.26-4.37.69-2.29.43-4.29.71-2 .28-3.6.33-1.59.06-3.13-.33-1.53-.39-3.05-1.28-1.51-.88-2.11-1.75-.6-.86.08-1.43.67-.55 1.64-.83.96-.28 1.03-.28.07 0 .14.01.06.02.13.05.06.02.12.06.05.04.1.09.05.05.09.11.04.05.06.12.03.06.04.13.01.07.01.13 0 .07-.01.14-.02.07-.04.13-.03.06-.07.11-.04.06-.09.1-.05.05-.1.09-.06.04-.13.06-.06.03-.13.04-.06.01-.13.01-.07 0-.14-.01-.07-.02-.13-.04-.06-.03-.12-.07-.05-.04-.1-.09-.05-.04-.09-.1-.04-.05-.06-.11-.03-.07-.04-.13-.01-.07-.01-.14 0-.07.01-.14.02-.06.04-.13.03-.06.07-.12.04-.05.09-.1.05-.05.1-.09.06-.03.12-.06.07-.03.14-.04.06-.01.13-.01.07 0 .14.01.06.02.13.05.06.02.12.06.05.04.1.09.05.05.09.11.04.05.06.12.03.06.04.13.01.07.01.13 0 .07-.01.14-.02.07-.04.13-.03.06-.07.11-.04.06-.09.1-.05.05-.1.09-.06.04-.13.06-.06.03-.86.26-.81.23-1.08.26-.27.03.08.26.35.22 1.68.99 1.34.78 2.68 1.12 1.35.35 2.81.29 1.46-.05 3.41-.33 1.95-.27 4.24-.7 2.31-.43 4.36-.7 2.06-.26 3.87-.64 1.81-.38 3.23-.38 1.41-.01 2.65-.01 1.23 0 2.65 0 1.43 0 2.88 0 1.46 0 3.06 0 1.61 0 3.01 0 1.4 0 2.73 0 1.33 0 2.31 0 .97 0 2.07 0 1.1 0 1.86 0 .77 0 1.76-.01.98-.01 2.14-.05 1.16-.05 2.37-.28 1.21-.23 2.62-.45 1.42-.23 2.81-.42 1.39-.19 2.55-.19 1.16 0 2.1 0 .95 0 1.9 0 .94 0 1.9 0 .96 0 1.97.01 1.01.01 2.26.06 1.26.05 2.7.3 1.43.25 2.84.53 1.4.29 2.6.76 1.2.47 2.31.89 1.11.42 2.02.64.91.22 1.78.4.87.18 1.59.18.72-.01 1.68-.01.96-.01 1.98-.05 1.02-.04 2.45-.24 1.43-.2 2.89-.24 1.46-.05 3.09-.28 1.62-.24 3.23-.47 1.6-.24 3.02-.46 1.43-.23 2.87-.42 1.45-.2 2.9-.2 1.45 0 2.91-.01 1.46-.01 3.08-.04 1.63-.04 3.23-.23 1.6-.19 2.99-.19 1.39 0 2.56-.01 1.16-.01 2.27-.06 1.1-.04 2.07-.27.96-.23 2.14-.48 1.18-.26 2.37-.57 1.19-.32 3.41-.98 2.21-.66 3.86-1.11 1.64-.46 3.25-.85 1.6-.38 2.83-.38 1.22-.01 2.41 0 1.18 0 2.37.01 1.19.01 2.4.06 1.21.05 2.42.3 1.2.25 2.37.53 1.17.29 2.08.72.92.43 1.64.65.71.23 1.61.45.9.23 1.62.41.71.18 1.61.19.91.01 1.87.08.96.07 1.75.4.8.34 1.52.95.72.62 1 1.41.29.78.55 1.45.26.68.69 1.37.43.7.69 1.34.26.64.68 1.12.43.48.69 1.07.27.6.51 1.39.24.8.44 1.79.2.99.21 1.96.01.96.05 1.82.04.85.26 1.57.22.72.42 1.67.2.95.2 1.71 0 .75 0 1.51 0 .76 0 1.71 0 .95-.01 1.91-.01.96-.06 1.98-.05 1.01-.28 2.17-.23 1.17-.42 2.09-.2.92-.24 1.87-.03.95-.23 1.92-.2.98-.24 2.08-.04 1.11-.22 1.85-.19.75-.19 1.65 0 .89 0 1.8 0 .91 0 1.65 0 .75-.01 1.66-.01.91-.05 1.67-.04.75-.24 1.47-.2.71-.24 1.45-.04.74-.23 1.65-.2.91-.25 1.67-.04.76-.28 1.72-.23.96-.41 1.82-.18.86-.18 1.54 0 .68 0 1.43 0 .75 0 1.66 0 .9 0 1.66 0 .75 0 1.69 0 .94 0 1.85 0 .91 0 1.66 0 .76 0 1.71.01.94.01 1.89.01.95.05 1.91.04.97.24 2.14.19 1.18.24 2.32.05 1.14.28 2.14.23 1 .47 2.33.23 1.33.47 2.32.23.98.47 2.15.24 1.18.47 2.28.24 1.1.48 1.94.25.84.52 2.19.27 1.35.69 2.49.43 1.13.67 2.14.24 1.02.48 2.16.24 1.14.47 2.13.24.98.46 2.12.23 1.14.43 2.12.19.98.19 1.96 0 .99 0 1.94 0 .96 0 1.95 0 .99 0 2.18 0 1.18-.01 2.37-.01 1.18-.04 2.39-.04 1.21-.23 2.37-.19 1.17-.19 2.28 0 1.11-.01 2.06-.01.96-.05 1.95-.04.98-.24 1.98-.2.99-.25 2.18-.04 1.19-.28 2.43-.24 1.24-.47 2.6-.22 1.36-.41 2.47-.18 1.11-.18 2.06-.01.95-.02 2.07-.01 1.12-.07 1.96-.06.84-.34 2.07-.28 1.24-.71 2.42-.42 1.19-.65 2.38-.23 1.2-.45 2.61-.23 1.41-.42 2.82-.2 1.4-.24 2.85-.04 1.46-.23 3.07-.2 1.61-.24 3.04-.04 1.42-.23 2.88-.18 1.46-.18 3.09 0 1.62 0 3.24 0 1.61 0 3.07 0 1.45 0 3.05 0 1.6 0 2.97 0 1.37 0 2.54 0 1.17.01 2.31.01 1.14.04 2.11.04.98.24 2.2.2 1.22.25 2.6.04 1.37.28 2.56.23 1.2.47 2.56.23 1.36.46 2.48.24 1.12.46 2.06.23.95.44 1.91.2.97.23 1.82.04.86.24 1.46.19.6.23 1.71.04 1.1.23 1.86.19.75.2 1.7 0 .96 0 1.71 0 .76 0 1.7 0 .95 0 1.89 0 .95 0 1.89 0 .93 0 1.84-.01.91-.02 1.68-.01.76-.06 1.75-.05.99-.31 1.97-.25.99-.55 1.96-.29.97-.78 1.91-.48.94-.91 1.63-.43.69-.72 1.39-.3.7-.78 1.24-.48.54-.88 1.19-.4.66-.68 1.37-.28.71-.71 1.41-.44.71-.75 1.4-.3.7-.81 1.22-.52.53-.99 1-.47.48-.94.95-.47.48-.92.98-.46.49-.93 1.19-.47.69-1.01 1.43-.55.73-1.29 1.46-.74.73-1.52 1.45-.78.72-1.76 1.39-.99.68-2 1.09-1 .41-1.82.41-.81 0-1.73-.04-.92-.05-1.44-.24-.51-.19-1.17-.19-.66 0-1.42-.04-.76-.04-1.51-.23-.75-.19-1.66-.19-.91.01-1.9.01-.98 0-2.12 0-1.15 0-2.14 0-.99 0-2.16.01-1.16.01-2.26.05-1.11.05-2.06.28-.96.23-2.08.47-1.13.24-2.05.5-.92.26-1.91.65-.99.39-2 .39-1.02.01-1.96.01-.95 0-1.9 0-.96 0-1.94 0-.99 0-2.13 0-1.14 0-2.12 0-.99 0-2.12 0-1.13 0-2.07 0-.93 0-1.83 0-.9 0-1.6 0-.7 0-1.35.01-.66.01-1.14.05-.47.04-1.17.26-.71.23-1.57.43-.86.21-2.11.26-1.26.05-2.71.27-1.45.23-3.13.42-1.68.19-3.35.18-1.66-.01-3.27-.06-1.61-.05-2.91-.29-1.31-.23-2.99-.46-1.67-.22-3.49-.41-1.82-.18-3.43-.18-1.61.01-3.15.05-1.53.04-2.71.23-1.18.2-2.38.24-1.19.04-2.42.24-1.23.19-2.66.23-1.44.04-2.89.23-1.46.19-3.08.19-1.62 0-3 0-1.37 0-2.55 0-1.18 0-2.35 0-1.18 0-2.33-.01-1.15-.01-2.17-.05-1.02-.04-2.2-.24-1.19-.19-2.38-.23-1.18-.04-2.4-.23-1.21-.19-2.57-.19-1.35.01-2.57.01-1.21 0-2.58-.01-1.36 0-2.51 0-1.14 0-2.14-.01-1 0-2.21-.04-1.21-.04-2.41-.23-1.19-.19-2.43-.19-1.24 0-2.85 0-1.6 0-3.01 0-1.41 0-2.78-.01-1.37-.01-2.54-.06-1.17-.05-2.15-.29-.98-.24-1.94-.47-.95-.23-1.95-.42-.99-.19-2.36-.24-1.37-.04-2.58-.27-1.2-.23-2.35-.42-1.15-.18-2.3-.18-1.15 0-2.33 0-1.17 0-2.29.01-1.13.01-2.04.06-.91.04-1.84.27-.94.23-1.99.47-1.06.24-2.49.48-1.44.24-2.9.47-1.46.24-3.05.47-1.6.24-2.97.46-1.37.23-2.58.42-1.21.19-2.41.19-1.21 0-2.37-.01-1.16-.01-2.23-.07-1.06-.05-2.49-.34-1.43-.28-2.65-.7-1.22-.42-2.6-.65-1.38-.22-2.76-.4-1.37-.19-2.67-.19-1.3 0-2.24 0-.95 0-1.9.01-.95 0-1.91.01-.96.01-1.98.05-1.02.05-2.47.28-1.45.23-3.1.46-1.64.23-3.26.43-1.61.2-2.97.24-1.35.04-2.48.24-1.12.21-2.03.28-.91.07-1.88.46-.96.38-1.98.43-1.03.04-2.19.23-1.16.19-2.22.2-1.06.01-2.44.05-1.39.04-2.75.23-1.37.18-2.53.19-1.16 0-2.11-.01-.94 0-1.9-.01-.95-.01-1.94-.06-.98-.04-1.96-.28-.97-.23-1.89-.42-.92-.19-1.91-.23-.98-.04-2.16-.24-1.17-.2-2.33-.26-1.15-.06-2.16-.36-1.01-.31-1.97-.78-.95-.48-1.81-.9-.85-.42-1.34-.65-.49-.22-1.15-.44-.66-.23-1.12-.4-.45-.18-1.06-.17-.61.01-1.13.01-.52 0-1.23 0-.71 0-1.43 0-.72 0-1.46.01-.74 0-1.59.04-.86.03-1.58.22-.73.19-1.52.2-.79 0-1.69 0-.9 0-1.61 0-.7 0-1.4 0-.71 0-1.38 0-.67 0-1.18 0-.51 0-1.18 0-.67 0-1.2 0-.52 0-1.23 0-.72 0-1.47 0-.75 0-1.66 0-.9 0-1.66.01-.76.01-1.71.06-.95.04-2.05.27-1.1.23-2.04.47-.95.24-1.92.48-.98.25-2.02.51-1.05.27-1.78.72-.72.46-1.69.92-.97.47-1.99.87-1.01.4-1.99.38-.98-.01-1.76-.12-.79-.12-1.35-.57-.55-.46-1.24-.73-.69-.28-1.41-.77-.71-.5-1.19-.92-.49-.41-1.16-.7-.67-.29-1.2-.81-.52-.51-.99-.98-.48-.47-.95-.93-.47-.45-.93-.85-.46-.4-1.13-.69-.67-.29-1.2-.81-.52-.53-.98-1.05-.47-.52-.76-1.05-.29-.54-.71-1.21-.43-.67-.68-1.18-.25-.51-.49-1.07-.24-.56-.45-1.38-.22-.82-.25-1.77-.04-.95-.24-1.89-.19-.95-.2-1.87-.01-.92-.04-1.59-.03-.67-.22-1.4-.19-.73-.2-1.53 0-.8 0-1.75 0-.94 0-1.9 0-.95 0-1.93 0-.99 0-2.12 0-1.14 0-2.08 0-.95.01-1.9.01-.95.05-1.93.04-.97.24-1.88.2-.91.24-1.66.03-.76.22-1.7.19-.93.2-1.85.01-.92.05-1.91.04-.99.22-1.97.19-.99.19-2.14 0-1.15 0-2.34 0-1.19 0-2.41 0-1.22 0-2.58 0-1.36 0-2.49 0-1.14 0-2.09 0-.94 0-1.9 0-.95-.01-1.94-.01-.99-.05-2.14-.03-1.16-.22-2.35-.19-1.18-.19-2.39 0-1.21 0-2.39 0-1.18 0-2.35 0-1.18 0-2.31 0-1.13 0-2.07 0-.94 0-1.86 0-.92 0-1.73 0-.8-.01-2 0-1.2-.01-2.48 0-1.27-.04-2.9-.04-1.64-.24-3.29-.19-1.66-.23-3.31-.04-1.65-.23-3.28-.19-1.63-.19-3.16 0-1.54 0-3.44 0-1.89 0-3.82 0-1.93 0-3.99 0-2.06 0-3.86 0-1.81.01-3.26.01-1.45.05-3.04.04-1.59.24-2.78.2-1.2.25-2.43.04-1.22.27-2.66.23-1.44.43-2.83.19-1.39.24-2.81.05-1.41.28-2.79.23-1.39.42-2.51.2-1.11.24-2.07.04-.96.24-1.96.2-.99.26-2.18.06-1.19.36-2.41.29-1.22.8-3.39.51-2.18 1.17-4.51.66-2.34 1.08-3.51.42-1.17.65-2.32.23-1.16.47-2.34.24-1.18.47-2.36.23-1.18.46-2.36.23-1.17.41-2.31.19-1.14.18-2.26 0-1.11 0-2.09 0-.99-.01-2.11-.01-1.13-.04-2.04-.04-.92-.24-1.86-.19-.95-.23-1.9-.04-.96-.24-1.94-.2-.99-.25-2.12-.04-1.14-.27-2.09-.24-.96-.47-2.08-.24-1.12-.47-2.02-.23-.89-.46-1.64-.23-.76-.44-1.7-.21-.95-.26-1.69-.05-.74-.31-1.61-.26-.86-.68-1.71-.43-.84-.72-1.43-.29-.59-.79-1.63-.5-1.04-1.13-2.46-.63-1.42-.87-2.7-.24-1.27-.43-2.7-.2-1.43-.2-2.78 0-1.34 0-2.28 0-.93-.01-1.81-.01-.88-.04-1.51-.03-.62-.22-1.19-.19-.57-.19-1.52-.01-.95-.01-1.66 0-.7 0-1.37 0-.67 0-1.2 0-.52.01-1.25.01-.72.05-1.51.04-.79.24-1.74.2-.94.24-1.88.03-.95.22-1.88.2-.93.2-1.8.01-.88.07-1.64.06-.76.34-1.51.28-.75.65-1.33.36-.57 1.07-1.27.7-.7 1.26-1.19.56-.5 1.34-.99.79-.5 1.69-.97.9-.46 1.62-.91.72-.44 1.42-.73.7-.28 1.35-.76.66-.47 1.37-1.14.72-.66 1.44-1.14.73-.48 1.43-.92.69-.44 1.25-.68.56-.25 1.29-.46.72-.22 1.25-.26.53-.05 1.26-.28.74-.23 1.71-.46.98-.23 2.01-.44 1.04-.2 2.27-.24 1.22-.04 2.59-.23 1.37-.19 2.53-.19 1.17 0 2.14-.01.97-.01 2.02-.04 1.06-.03 1.82-.22.77-.19 1.77-.2 1 0 2-.01 1.01-.01 2.25-.06 1.24-.04 2.83-.28 1.58-.23 3-.45 1.42-.23 2.85-.42 1.42-.19 2.78-.18 1.36.01 2.35.06.98.05 1.97.29.99.24 1.98.47 1 .24 2.22.46 1.22.22 2.65.41 1.43.19 3.05.2 1.61 0 3.19.04 1.58.04 2.71.23 1.13.18 2.04.17.91-.01 1.84-.05.93-.05 1.96-.29 1.03-.23 2.49-.5 1.46-.26 3.14-.65 1.68-.38 3.32-.38 1.64 0 3.05.01 1.41.01 2.77.06 1.37.06 2.36.31.99.25 1.98.55.98.29 1.99.75 1.01.47 2.19.87 1.18.4 2.54.59 1.36.19 2.73.24 1.38.04 2.58.28 1.2.23 2.3.41 1.11.2 2.06.24.95.05 1.88.29.94.23 1.61.41.66.18 1.33.18.66 0 1.38 0 .72 0 1.48-.01.75 0 1.69 0 .94-.01 1.85-.05.91-.03 1.87-.22.95-.19 1.93-.2.98 0 1.92 0 .94 0 1.87-.01.93-.01 1.78-.04.85-.03 1.56-.22.71-.19 1.43-.2.72 0 1.24 0 .51 0 1.22 0 .7 0 1.37 0 .67 0 1.19 0 .52 0 1.24 0 .72 0 1.47 0 .75 0 1.65.01.91.01 1.67.05.75.05 1.46.24.71.2 1.42.24.7.04 1.4.22.7.19 1.36.19.65 0 1.32 0 .67 0 1.18 0 .51 0 1.17 0 .66 0 1.13 0 .46 0 .89-.01.44 0 .71-.01.28 0 .75-.04.47-.03 1.14-.23.67-.19 1.2-.23.52-.04 1.24-.23.72-.19 1.48-.2.75 0 1.47 0 .71 0 1.43 0 .71 0 1.47 0 .76 0 1.7 0 .94 0 1.88 0 .93 0 1.82-.01.89-.01 1.54-.04.66-.03 1.33-.21.68-.2 1.23-.2.55 0 1.17 0 .61 0 .86 0 .24 0 .51 0 .28 0 .7 0 .43 0 .67 0 .23 0 .47 0 .24 0 .5.01.26.01.66.14.4.12.37.24-.04.11-.31.15-.26.04-.32-.14-.07-4.46-.07-4.46h0z"/></svg>