<svg preserveAspectRatio="none" xmlns="http://www.w3.org/2000/svg" viewBox="8.30 8.30 364.62 269.12"><path fill="#000" d="M 197.96 9.50 L 197.96 9.50 L 197.97 13.72 L 197.97 13.65 L 198.00 13.58 L 198.02 13.52 L 198.05 13.46 L 198.08 13.40 L 198.13 13.34 L 198.17 13.29 L 198.22 13.25 L 198.28 13.20 L 198.34 13.17 L 198.40 13.14 L 198.46 13.12 L 198.53 13.10 L 198.60 13.09 L 207.23 13.08 L 198.72 13.09 L 198.79 13.10 L 198.86 13.12 L 198.92 13.14 L 198.98 13.17 L 199.04 13.20 L 199.10 13.25 L 199.15 13.29 L 199.19 13.34 L 199.24 13.40 L 199.27 13.46 L 199.30 13.52 L 199.32 13.58 L 199.34 13.65 L 199.35 13.72 L 199.36 18.06 L 199.29 14.35 L 199.23 14.92 L 198.60 15.11 L 197.96 15.30 L 197.84 15.07 L 197.73 14.84 L 197.74 14.90 L 197.75 14.96 L 197.55 14.96 L 197.35 14.95 L 197.12 14.95 L 196.89 14.95 L 196.65 14.95 L 196.42 14.95 L 195.99 14.95 L 195.57 14.95 L 195.29 14.95 L 195.02 14.95 L 194.78 14.95 L 194.53 14.95 L 193.92 14.95 L 193.30 14.95 L 192.85 14.94 L 192.39 14.94 L 191.73 15.13 L 191.08 15.32 L 190.33 15.36 L 189.58 15.40 L 188.68 15.41 L 187.77 15.42 L 186.83 15.42 L 185.89 15.42 L 184.95 15.42 L 184.01 15.42 L 183.25 15.42 L 182.49 15.42 L 181.78 15.42 L 181.06 15.42 L 180.35 15.42 L 179.63 15.42 L 178.97 15.42 L 178.31 15.41 L 177.61 15.60 L 176.91 15.79 L 176.40 15.83 L 175.88 15.86 L 175.21 16.06 L 174.54 16.26 L 173.98 16.30 L 173.43 16.35 L 173.12 16.35 L 172.82 16.36 L 172.38 16.36 L 171.93 16.37 L 171.47 16.37 L 171.00 16.37 L 170.34 16.37 L 169.68 16.37 L 169.17 16.37 L 168.66 16.37 L 167.99 16.37 L 167.32 16.37 L 166.57 16.36 L 165.83 16.36 L 165.11 16.17 L 164.39 15.98 L 163.68 15.94 L 162.97 15.90 L 162.26 15.71 L 161.55 15.51 L 160.89 15.47 L 160.23 15.44 L 159.34 15.43 L 158.45 15.42 L 157.70 15.42 L 156.96 15.42 L 156.24 15.42 L 155.52 15.42 L 155.00 15.42 L 154.48 15.42 L 153.81 15.42 L 153.14 15.42 L 152.44 15.42 L 151.73 15.42 L 151.22 15.42 L 150.70 15.42 L 150.07 15.42 L 149.45 15.41 L 148.75 15.60 L 148.06 15.79 L 147.12 15.83 L 146.18 15.87 L 145.23 15.88 L 144.29 15.89 L 143.34 15.89 L 142.40 15.89 L 141.49 15.89 L 140.58 15.89 L 139.64 16.08 L 138.70 16.27 L 137.72 16.31 L 136.74 16.35 L 135.79 16.35 L 134.84 16.36 L 134.08 16.36 L 133.32 16.37 L 132.60 16.37 L 131.88 16.37 L 131.13 16.36 L 130.37 16.36 L 129.62 16.16 L 128.87 15.97 L 128.00 15.75 L 127.14 15.53 L 126.22 15.48 L 125.30 15.44 L 124.14 15.24 L 122.98 15.04 L 121.83 14.81 L 120.68 14.58 L 119.32 14.54 L 117.96 14.50 L 116.50 14.29 L 115.05 14.08 L 113.77 13.66 L 112.49 13.23 L 111.50 12.77 L 110.50 12.31 L 109.58 12.04 L 108.65 11.76 L 107.74 11.53 L 106.84 11.29 L 105.56 11.25 L 104.28 11.20 L 102.88 11.19 L 101.49 11.18 L 99.93 11.18 L 98.36 11.17 L 96.75 11.54 L 95.14 11.92 L 93.67 12.18 L 92.21 12.45 L 91.14 12.69 L 90.07 12.94 L 89.06 12.99 L 88.06 13.04 L 87.07 13.05 L 86.08 13.06 L 84.94 12.87 L 83.80 12.68 L 82.28 12.65 L 80.75 12.61 L 79.10 12.60 L 77.45 12.60 L 75.96 12.40 L 74.46 12.21 L 73.21 11.98 L 71.95 11.75 L 70.94 11.51 L 69.92 11.27 L 69.00 11.04 L 68.07 10.81 L 67.16 10.77 L 66.26 10.73 L 64.96 10.72 L 63.67 10.71 L 62.30 10.89 L 60.93 11.07 L 59.52 11.30 L 58.11 11.53 L 56.48 11.76 L 54.85 12.00 L 53.56 12.05 L 52.27 12.10 L 51.25 12.11 L 50.24 12.12 L 49.32 12.12 L 48.40 12.11 L 47.65 12.30 L 46.89 12.49 L 45.76 12.53 L 44.62 12.57 L 43.64 12.58 L 42.65 12.59 L 41.54 12.59 L 40.42 12.59 L 39.06 12.78 L 37.70 12.97 L 36.49 13.01 L 35.28 13.04 L 34.32 13.23 L 33.35 13.42 L 32.42 13.65 L 31.48 13.86 L 30.69 14.10 L 29.91 14.34 L 29.38 14.39 L 28.85 14.44 L 28.23 14.62 L 27.61 14.81 L 27.14 15.01 L 26.67 15.22 L 26.03 15.63 L 25.38 16.04 L 24.71 16.49 L 24.03 16.93 L 23.33 17.59 L 22.63 18.24 L 21.87 18.79 L 21.11 19.33 L 20.39 19.63 L 19.67 19.93 L 18.97 20.36 L 18.27 20.79 L 17.38 21.25 L 16.48 21.71 L 15.77 22.16 L 15.06 22.61 L 14.56 23.06 L 14.06 23.51 L 13.42 24.13 L 12.78 24.76 L 12.50 25.21 L 12.22 25.65 L 11.99 26.24 L 11.77 26.83 L 11.72 27.47 L 11.68 28.11 L 11.67 29.03 L 11.66 29.95 L 11.47 30.89 L 11.27 31.83 L 11.24 32.78 L 11.20 33.72 L 11.00 34.67 L 10.80 35.61 L 10.77 36.34 L 10.73 37.06 L 10.72 37.77 L 10.71 38.48 L 10.71 39.00 L 10.71 39.52 L 10.71 40.19 L 10.71 40.86 L 10.71 41.56 L 10.71 42.27 L 10.71 43.11 L 10.70 43.95 L 10.89 44.49 L 11.08 45.04 L 11.12 45.78 L 11.16 46.51 L 11.17 47.41 L 11.18 48.31 L 11.18 49.25 L 11.18 50.19 L 11.18 51.49 L 11.18 52.78 L 11.37 54.15 L 11.55 55.52 L 11.77 56.70 L 11.98 57.87 L 12.58 59.21 L 13.18 60.54 L 13.67 61.57 L 14.17 62.60 L 14.46 63.18 L 14.75 63.76 L 15.20 64.66 L 15.64 65.56 L 15.94 66.56 L 16.23 67.56 L 16.29 68.32 L 16.35 69.09 L 16.54 69.96 L 16.73 70.83 L 16.96 71.57 L 17.19 72.31 L 17.43 73.23 L 17.67 74.16 L 17.90 75.29 L 18.14 76.42 L 18.38 77.43 L 18.62 78.44 L 18.67 79.58 L 18.72 80.73 L 18.92 81.72 L 19.12 82.70 L 19.16 83.66 L 19.20 84.61 L 19.39 85.55 L 19.59 86.50 L 19.63 87.48 L 19.67 88.46 L 19.68 89.61 L 19.69 90.75 L 19.69 91.73 L 19.69 92.72 L 19.69 93.89 L 19.69 95.06 L 19.50 96.26 L 19.30 97.47 L 19.08 98.66 L 18.85 99.84 L 18.61 101.03 L 18.38 102.21 L 18.14 103.39 L 17.91 104.58 L 17.66 105.78 L 17.42 106.99 L 16.99 108.18 L 16.56 109.38 L 15.92 111.68 L 15.27 113.97 L 14.76 116.13 L 14.26 118.29 L 13.97 119.45 L 13.69 120.61 L 13.63 121.79 L 13.57 122.96 L 13.37 123.96 L 13.17 124.95 L 13.13 125.90 L 13.09 126.85 L 12.89 128.01 L 12.69 129.16 L 12.46 130.50 L 12.24 131.84 L 12.19 133.24 L 12.15 134.65 L 11.95 136.08 L 11.75 137.52 L 11.52 138.92 L 11.29 140.32 L 11.25 141.55 L 11.20 142.78 L 11.00 143.97 L 10.81 145.16 L 10.77 146.70 L 10.73 148.23 L 10.72 149.67 L 10.71 151.12 L 10.71 152.92 L 10.71 154.72 L 10.71 156.78 L 10.71 158.84 L 10.71 160.77 L 10.71 162.70 L 10.71 164.59 L 10.71 166.49 L 10.71 167.99 L 10.71 169.48 L 10.90 171.10 L 11.09 172.73 L 11.12 174.37 L 11.16 176.02 L 11.36 177.68 L 11.56 179.33 L 11.60 181.00 L 11.64 182.68 L 11.64 183.96 L 11.65 185.24 L 11.65 186.44 L 11.66 187.64 L 11.66 188.45 L 11.66 189.26 L 11.66 190.18 L 11.66 191.10 L 11.66 192.04 L 11.66 192.98 L 11.66 194.11 L 11.66 195.24 L 11.66 196.42 L 11.66 197.59 L 11.66 198.77 L 11.66 199.95 L 11.65 201.10 L 11.65 202.26 L 11.84 203.43 L 12.03 204.61 L 12.07 205.82 L 12.11 207.03 L 12.12 208.02 L 12.13 209.02 L 12.13 209.98 L 12.13 210.93 L 12.13 211.88 L 12.13 212.83 L 12.13 213.97 L 12.13 215.10 L 12.13 216.46 L 12.13 217.82 L 12.13 219.04 L 12.13 220.26 L 12.13 221.45 L 12.13 222.64 L 12.13 223.86 L 12.13 225.07 L 11.94 226.07 L 11.75 227.07 L 11.71 228.00 L 11.67 228.92 L 11.67 229.89 L 11.66 230.87 L 11.46 231.82 L 11.27 232.78 L 11.23 233.54 L 11.20 234.30 L 11.00 235.20 L 10.80 236.11 L 10.77 237.01 L 10.73 237.91 L 10.72 238.85 L 10.71 239.79 L 10.71 240.73 L 10.71 241.67 L 10.71 242.81 L 10.71 243.94 L 10.71 244.93 L 10.71 245.91 L 10.71 246.86 L 10.71 247.82 L 10.71 248.76 L 10.71 249.71 L 10.71 250.42 L 10.70 251.13 L 10.89 251.84 L 11.08 252.55 L 11.12 253.31 L 11.16 254.06 L 11.17 254.94 L 11.18 255.81 L 11.37 256.74 L 11.56 257.67 L 11.59 258.60 L 11.63 259.54 L 11.81 260.23 L 11.99 260.93 L 12.21 261.42 L 12.42 261.92 L 12.65 262.38 L 12.87 262.84 L 13.29 263.50 L 13.71 264.16 L 13.97 264.64 L 14.23 265.13 L 14.63 265.57 L 15.03 266.01 L 15.44 266.44 L 15.85 266.86 L 16.49 267.14 L 17.14 267.41 L 17.70 267.89 L 18.26 268.36 L 18.75 268.84 L 19.24 269.31 L 19.72 269.78 L 20.20 270.26 L 20.62 270.69 L 21.04 271.12 L 21.69 271.39 L 22.34 271.67 L 22.88 272.13 L 23.42 272.58 L 24.04 273.01 L 24.67 273.45 L 25.38 273.74 L 26.10 274.03 L 26.57 274.44 L 27.05 274.86 L 27.61 274.92 L 28.17 274.97 L 28.97 275.00 L 29.77 275.02 L 30.63 274.67 L 31.48 274.32 L 32.40 273.88 L 33.32 273.44 L 34.10 272.95 L 34.89 272.47 L 36.04 272.17 L 37.19 271.87 L 38.16 271.62 L 39.14 271.38 L 40.10 271.14 L 41.06 270.90 L 42.23 270.66 L 43.40 270.41 L 44.41 270.36 L 45.43 270.31 L 46.20 270.30 L 46.98 270.29 L 47.89 270.29 L 48.80 270.29 L 49.55 270.29 L 50.30 270.29 L 51.02 270.29 L 51.73 270.29 L 52.25 270.29 L 52.78 270.29 L 53.45 270.29 L 54.12 270.29 L 54.63 270.29 L 55.14 270.29 L 55.81 270.29 L 56.48 270.29 L 57.19 270.29 L 57.89 270.29 L 58.59 270.29 L 59.30 270.29 L 60.20 270.29 L 61.10 270.29 L 61.80 270.29 L 62.50 270.29 L 63.21 270.11 L 63.92 269.92 L 64.86 269.88 L 65.81 269.83 L 66.56 269.83 L 67.32 269.82 L 68.03 269.82 L 68.75 269.82 L 69.46 269.82 L 70.18 269.82 L 70.70 269.82 L 71.22 269.82 L 71.95 269.82 L 72.68 269.83 L 73.25 270.03 L 73.82 270.23 L 74.50 270.47 L 75.18 270.70 L 75.72 270.94 L 76.25 271.18 L 77.11 271.61 L 77.98 272.04 L 78.88 272.49 L 79.78 272.94 L 80.65 273.20 L 81.53 273.47 L 82.64 273.52 L 83.75 273.57 L 84.92 273.77 L 86.09 273.97 L 87.09 274.02 L 88.09 274.06 L 89.08 274.26 L 90.07 274.46 L 90.99 274.69 L 91.91 274.91 L 92.81 274.95 L 93.72 274.99 L 94.66 275.00 L 95.59 275.01 L 96.54 275.01 L 97.48 275.02 L 98.59 275.02 L 99.70 275.02 L 101.06 274.83 L 102.42 274.64 L 103.85 274.60 L 105.28 274.56 L 106.29 274.56 L 107.31 274.55 L 108.45 274.36 L 109.60 274.17 L 110.55 274.14 L 111.50 274.11 L 112.45 273.72 L 113.39 273.34 L 114.37 273.25 L 115.36 273.17 L 116.50 272.96 L 117.65 272.76 L 119.02 272.72 L 120.39 272.67 L 121.97 272.48 L 123.54 272.28 L 125.18 272.06 L 126.82 271.83 L 128.30 271.59 L 129.78 271.36 L 130.85 271.31 L 131.93 271.26 L 132.90 271.25 L 133.87 271.24 L 134.83 271.24 L 135.78 271.23 L 136.72 271.23 L 137.67 271.23 L 139.02 271.23 L 140.37 271.24 L 141.79 271.43 L 143.22 271.62 L 144.67 271.85 L 146.12 272.09 L 147.35 272.51 L 148.59 272.94 L 149.92 273.20 L 151.25 273.47 L 152.25 273.52 L 153.25 273.57 L 154.40 273.58 L 155.54 273.59 L 156.69 273.60 L 157.83 273.60 L 158.98 273.41 L 160.14 273.23 L 161.51 273.00 L 162.88 272.77 L 164.48 272.54 L 166.08 272.31 L 167.53 272.07 L 168.98 271.83 L 170.40 271.60 L 171.81 271.37 L 172.84 271.13 L 173.87 270.90 L 174.86 270.66 L 175.86 270.41 L 176.85 270.36 L 177.84 270.31 L 178.98 270.30 L 180.13 270.29 L 181.30 270.29 L 182.47 270.29 L 183.68 270.29 L 184.89 270.29 L 186.11 270.48 L 187.32 270.68 L 188.48 270.90 L 189.64 271.12 L 191.01 271.17 L 192.38 271.22 L 193.45 271.42 L 194.51 271.62 L 195.49 271.85 L 196.46 272.08 L 197.37 272.31 L 198.29 272.54 L 199.37 272.59 L 200.47 272.63 L 201.82 272.64 L 203.18 272.65 L 204.58 272.65 L 205.99 272.65 L 207.59 272.65 L 209.20 272.65 L 210.49 272.65 L 211.79 272.65 L 212.99 272.84 L 214.20 273.03 L 215.36 273.07 L 216.52 273.11 L 217.50 273.11 L 218.49 273.12 L 219.64 273.12 L 220.78 273.12 L 222.14 273.12 L 223.51 273.13 L 224.72 273.13 L 225.94 273.13 L 227.35 273.13 L 228.75 273.13 L 229.98 273.32 L 231.21 273.51 L 232.40 273.54 L 233.59 273.58 L 234.78 273.78 L 235.96 273.98 L 236.93 274.01 L 237.89 274.05 L 239.03 274.06 L 240.17 274.07 L 241.34 274.07 L 242.51 274.07 L 243.69 274.07 L 244.87 274.07 L 246.24 274.07 L 247.62 274.07 L 249.19 274.07 L 250.77 274.07 L 252.22 273.88 L 253.67 273.69 L 255.09 273.66 L 256.51 273.62 L 257.74 273.42 L 258.97 273.23 L 260.16 273.19 L 261.35 273.15 L 262.53 272.95 L 263.72 272.75 L 265.31 272.71 L 266.89 272.67 L 268.55 272.66 L 270.21 272.66 L 272.07 272.85 L 273.94 273.04 L 275.64 273.26 L 277.34 273.49 L 278.62 273.73 L 279.88 273.96 L 281.43 274.00 L 282.98 274.05 L 284.60 274.06 L 286.21 274.07 L 287.84 273.88 L 289.46 273.70 L 290.94 273.47 L 292.42 273.24 L 293.64 273.20 L 294.87 273.15 L 295.64 272.97 L 296.41 272.78 L 297.16 272.54 L 297.92 272.31 L 298.49 272.26 L 299.06 272.20 L 299.75 272.19 L 300.44 272.18 L 301.14 272.18 L 301.84 272.18 L 302.75 272.18 L 303.63 272.18 L 304.57 272.18 L 305.51 272.18 L 306.64 272.18 L 307.77 272.18 L 308.76 272.18 L 309.75 272.18 L 310.88 272.18 L 312.02 272.18 L 313.01 272.18 L 314.00 272.18 L 314.95 272.18 L 315.90 272.18 L 316.85 272.18 L 317.79 272.18 L 318.67 272.19 L 319.55 272.19 L 320.45 271.83 L 321.35 271.46 L 322.33 271.19 L 323.30 270.91 L 324.44 270.67 L 325.58 270.43 L 326.60 270.18 L 327.61 269.94 L 328.79 269.89 L 329.97 269.84 L 331.15 269.83 L 332.33 269.82 L 333.33 269.82 L 334.32 269.82 L 335.46 269.82 L 336.61 269.82 L 337.59 269.82 L 338.58 269.82 L 339.58 269.82 L 340.57 269.82 L 341.34 270.01 L 342.11 270.20 L 342.78 270.24 L 343.46 270.27 L 344.23 270.28 L 344.99 270.30 L 345.52 270.49 L 346.04 270.68 L 346.84 270.71 L 347.64 270.74 L 348.31 270.76 L 348.98 270.77 L 349.77 270.43 L 350.58 270.09 L 351.47 269.48 L 352.35 268.87 L 353.08 268.20 L 353.81 267.52 L 354.51 266.84 L 355.21 266.15 L 355.71 265.47 L 356.21 264.79 L 356.70 264.07 L 357.19 263.34 L 357.69 262.80 L 358.19 262.26 L 358.67 261.77 L 359.15 261.28 L 359.62 260.81 L 360.10 260.33 L 360.52 259.91 L 360.95 259.48 L 361.21 258.86 L 361.48 258.23 L 361.91 257.53 L 362.34 256.84 L 362.62 256.13 L 362.89 255.43 L 363.36 254.67 L 363.83 253.90 L 364.28 253.41 L 364.73 252.91 L 364.99 252.26 L 365.26 251.62 L 365.70 250.90 L 366.14 250.19 L 366.59 249.33 L 367.03 248.48 L 367.30 247.58 L 367.57 246.68 L 367.81 245.78 L 368.05 244.88 L 368.09 243.97 L 368.14 243.07 L 368.15 242.32 L 368.15 241.57 L 368.16 240.67 L 368.16 239.76 L 368.16 238.82 L 368.16 237.89 L 368.16 236.94 L 368.16 236.00 L 368.16 235.05 L 368.16 234.11 L 368.16 233.35 L 368.16 232.60 L 368.16 231.73 L 368.17 230.87 L 367.98 230.12 L 367.79 229.38 L 367.75 228.30 L 367.72 227.21 L 367.52 226.62 L 367.32 226.02 L 367.28 225.13 L 367.24 224.23 L 367.05 223.33 L 366.86 222.44 L 366.63 221.49 L 366.40 220.55 L 366.16 219.40 L 365.93 218.26 L 365.69 216.89 L 365.45 215.53 L 365.21 214.29 L 364.97 213.05 L 364.92 211.66 L 364.88 210.28 L 364.68 209.06 L 364.48 207.84 L 364.44 206.81 L 364.40 205.78 L 364.39 204.63 L 364.38 203.48 L 364.38 202.30 L 364.38 201.13 L 364.38 199.76 L 364.38 198.39 L 364.38 196.79 L 364.38 195.19 L 364.38 193.74 L 364.38 192.28 L 364.38 190.67 L 364.38 189.05 L 364.38 187.38 L 364.38 185.71 L 364.57 184.25 L 364.76 182.78 L 364.80 181.35 L 364.83 179.92 L 365.03 178.31 L 365.23 176.70 L 365.27 175.25 L 365.31 173.79 L 365.51 172.34 L 365.70 170.89 L 365.93 169.46 L 366.16 168.03 L 366.41 166.77 L 366.65 165.51 L 367.08 164.31 L 367.50 163.11 L 367.77 161.97 L 368.03 160.84 L 368.08 160.07 L 368.13 159.31 L 368.14 158.21 L 368.15 157.12 L 368.16 156.11 L 368.16 155.11 L 368.35 153.94 L 368.55 152.77 L 368.78 151.40 L 369.00 150.03 L 369.23 148.84 L 369.47 147.64 L 369.51 146.45 L 369.56 145.26 L 369.76 144.26 L 369.96 143.27 L 369.99 142.35 L 370.03 141.42 L 370.04 140.48 L 370.05 139.54 L 370.05 138.38 L 370.05 137.22 L 370.24 136.04 L 370.43 134.86 L 370.47 133.71 L 370.50 132.56 L 370.51 131.38 L 370.52 130.20 L 370.52 129.02 L 370.52 127.84 L 370.52 126.85 L 370.52 125.86 L 370.52 124.90 L 370.52 123.95 L 370.53 123.03 L 370.53 122.12 L 370.34 121.21 L 370.16 120.30 L 369.93 119.17 L 369.71 118.04 L 369.47 117.06 L 369.24 116.07 L 369.00 114.93 L 368.77 113.79 L 368.54 112.83 L 368.31 111.87 L 367.88 110.72 L 367.45 109.57 L 367.18 108.20 L 366.90 106.82 L 366.66 105.99 L 366.41 105.15 L 366.17 104.02 L 365.93 102.89 L 365.69 101.73 L 365.46 100.56 L 365.22 99.57 L 364.98 98.57 L 364.75 97.24 L 364.51 95.91 L 364.27 94.86 L 364.03 93.81 L 363.98 92.65 L 363.93 91.49 L 363.73 90.32 L 363.53 89.14 L 363.49 88.12 L 363.45 87.10 L 363.44 86.14 L 363.44 85.18 L 363.43 84.23 L 363.43 83.28 L 363.43 82.52 L 363.43 81.77 L 363.43 80.86 L 363.43 79.95 L 363.43 79.01 L 363.43 78.07 L 363.43 77.32 L 363.43 76.56 L 363.43 75.66 L 363.43 74.75 L 363.43 74.00 L 363.43 73.25 L 363.43 72.50 L 363.44 71.75 L 363.63 70.80 L 363.83 69.86 L 364.05 68.95 L 364.27 68.04 L 364.32 67.29 L 364.36 66.54 L 364.56 65.63 L 364.76 64.73 L 364.80 63.97 L 364.84 63.21 L 365.04 62.49 L 365.23 61.78 L 365.27 61.11 L 365.30 60.44 L 365.31 59.55 L 365.32 58.67 L 365.32 57.92 L 365.32 57.17 L 365.32 56.27 L 365.32 55.36 L 365.33 54.38 L 365.33 53.40 L 365.52 52.64 L 365.71 51.88 L 365.74 50.79 L 365.78 49.70 L 365.98 48.73 L 366.18 47.75 L 366.21 46.80 L 366.25 45.84 L 366.46 44.87 L 366.66 43.90 L 366.88 42.79 L 367.11 41.68 L 367.15 40.73 L 367.19 39.78 L 367.20 38.83 L 367.21 37.89 L 367.21 36.94 L 367.21 36.00 L 367.21 35.24 L 367.21 34.48 L 367.22 33.80 L 367.22 33.12 L 367.04 32.27 L 366.86 31.42 L 366.62 30.65 L 366.39 29.87 L 366.34 28.92 L 366.29 27.96 L 366.28 27.05 L 366.28 26.14 L 366.09 25.24 L 365.91 24.35 L 365.70 23.63 L 365.48 22.91 L 365.28 22.44 L 365.08 21.98 L 364.65 21.49 L 364.22 21.01 L 363.93 20.32 L 363.65 19.63 L 363.21 18.92 L 362.78 18.22 L 362.48 17.48 L 362.19 16.73 L 361.99 16.10 L 361.78 15.47 L 361.27 15.05 L 360.76 14.63 L 360.18 14.38 L 359.59 14.13 L 358.76 14.08 L 357.93 14.03 L 356.96 14.02 L 356.00 14.00 L 355.20 13.80 L 354.41 13.61 L 353.49 13.38 L 352.57 13.15 L 351.79 12.91 L 351.01 12.66 L 350.12 12.24 L 349.22 11.82 L 348.13 11.56 L 347.05 11.30 L 345.91 11.06 L 344.77 10.82 L 343.63 10.77 L 342.48 10.73 L 341.31 10.72 L 340.13 10.71 L 338.95 10.71 L 337.77 10.70 L 336.63 10.70 L 335.49 10.70 L 333.98 11.07 L 332.46 11.44 L 330.84 11.89 L 329.21 12.34 L 326.99 13.00 L 324.77 13.66 L 323.55 13.97 L 322.34 14.30 L 321.15 14.55 L 319.96 14.80 L 318.94 15.05 L 317.92 15.29 L 316.73 15.35 L 315.55 15.40 L 314.37 15.41 L 313.18 15.42 L 311.83 15.42 L 310.48 15.42 L 308.89 15.61 L 307.30 15.80 L 305.63 15.84 L 303.97 15.87 L 302.50 15.88 L 301.03 15.89 L 299.63 15.89 L 298.22 15.89 L 296.83 16.08 L 295.44 16.26 L 294.02 16.49 L 292.61 16.72 L 291.00 16.95 L 289.38 17.19 L 287.72 17.43 L 286.05 17.66 L 284.59 17.71 L 283.13 17.76 L 281.70 17.96 L 280.27 18.16 L 279.21 18.20 L 278.14 18.24 L 277.17 18.25 L 276.20 18.25 L 275.40 18.25 L 274.61 18.25 L 273.66 18.06 L 272.71 17.86 L 271.74 17.63 L 270.78 17.39 L 269.62 16.96 L 268.46 16.53 L 267.32 16.08 L 266.17 15.62 L 264.84 15.35 L 263.50 15.08 L 262.12 14.84 L 260.74 14.59 L 259.54 14.55 L 258.34 14.50 L 257.35 14.49 L 256.35 14.48 L 255.40 14.48 L 254.44 14.48 L 253.49 14.48 L 252.55 14.48 L 251.60 14.48 L 250.66 14.48 L 249.54 14.47 L 248.43 14.47 L 247.10 14.66 L 245.77 14.85 L 244.37 15.07 L 242.97 15.30 L 241.72 15.53 L 240.47 15.77 L 239.25 15.82 L 238.03 15.87 L 237.03 15.88 L 236.03 15.89 L 235.26 15.89 L 234.49 15.89 L 233.39 15.89 L 232.29 15.89 L 231.32 15.89 L 230.34 15.89 L 229.01 15.89 L 227.68 15.89 L 226.28 15.89 L 224.88 15.89 L 223.27 15.89 L 221.67 15.89 L 220.21 15.89 L 218.76 15.89 L 217.33 15.89 L 215.91 15.89 L 214.68 15.89 L 213.44 15.89 L 212.10 15.89 L 210.76 15.89 L 208.99 16.26 L 207.22 16.64 L 205.16 16.91 L 203.09 17.17 L 200.79 17.60 L 198.50 18.03 L 196.50 18.31 L 194.50 18.59 L 192.90 18.64 L 191.31 18.70 L 189.77 18.31 L 188.24 17.92 L 186.72 17.03 L 185.21 16.15 L 184.61 15.28 L 184.01 14.42 L 184.69 13.85 L 185.36 13.30 L 186.33 13.02 L 187.29 12.74 L 187.36 12.74 L 187.43 12.74 L 187.50 12.75 L 187.56 12.77 L 187.63 12.80 L 187.69 12.82 L 187.75 12.86 L 187.80 12.90 L 187.85 12.95 L 187.90 13.00 L 187.94 13.06 L 187.98 13.11 L 188.00 13.18 L 188.03 13.24 L 188.04 13.31 L 188.05 13.38 L 188.05 13.44 L 188.05 13.51 L 188.04 13.58 L 188.02 13.65 L 188.00 13.71 L 187.97 13.77 L 187.93 13.82 L 187.89 13.88 L 187.84 13.92 L 187.79 13.97 L 187.74 14.01 L 187.68 14.05 L 187.61 14.07 L 187.55 14.10 L 187.48 14.11 L 197.95 9.50 L 197.95 9.50 L 197.95 9.50 L 198.02 13.96 L 198.08 14.14 L 198.34 14.10 L 198.61 14.06 L 198.65 13.95 L 198.68 13.83 L 198.28 13.71 L 197.88 13.58 L 197.62 13.57 L 197.36 13.56 L 197.12 13.56 L 196.88 13.56 L 196.65 13.56 L 196.41 13.56 L 195.98 13.56 L 195.56 13.56 L 195.28 13.56 L 195.01 13.56 L 194.77 13.56 L 194.52 13.56 L 193.91 13.56 L 193.29 13.56 L 192.74 13.56 L 192.19 13.56 L 191.51 13.76 L 190.84 13.94 L 190.18 13.97 L 189.53 14.00 L 188.64 14.01 L 187.75 14.02 L 186.82 14.02 L 185.88 14.02 L 184.94 14.02 L 184.00 14.02 L 183.24 14.02 L 182.48 14.02 L 181.77 14.02 L 181.05 14.02 L 180.34 14.02 L 179.62 14.02 L 178.87 14.02 L 178.11 14.03 L 177.39 14.22 L 176.67 14.41 L 176.15 14.45 L 175.62 14.49 L 174.95 14.68 L 174.28 14.88 L 173.81 14.91 L 173.34 14.95 L 173.06 14.95 L 172.79 14.96 L 172.35 14.96 L 171.92 14.97 L 171.46 14.97 L 170.99 14.97 L 170.33 14.97 L 169.67 14.97 L 169.16 14.97 L 168.65 14.97 L 167.98 14.97 L 167.31 14.97 L 166.66 14.97 L 166.00 14.97 L 165.30 14.78 L 164.60 14.60 L 163.90 14.56 L 163.19 14.52 L 162.48 14.32 L 161.77 14.13 L 161.02 14.08 L 160.26 14.04 L 159.35 14.03 L 158.45 14.02 L 157.70 14.02 L 156.95 14.02 L 156.23 14.02 L 155.51 14.02 L 154.99 14.02 L 154.47 14.02 L 153.80 14.02 L 153.13 14.02 L 152.43 14.02 L 151.72 14.02 L 151.21 14.02 L 150.69 14.02 L 149.97 14.02 L 149.25 14.03 L 148.54 14.22 L 147.83 14.41 L 146.98 14.44 L 146.13 14.47 L 145.20 14.48 L 144.27 14.49 L 143.33 14.49 L 142.39 14.49 L 141.41 14.49 L 140.43 14.50 L 139.48 14.69 L 138.52 14.88 L 137.61 14.91 L 136.70 14.95 L 135.76 14.96 L 134.82 14.96 L 134.07 14.96 L 133.31 14.97 L 132.59 14.97 L 131.87 14.97 L 131.21 14.97 L 130.54 14.97 L 129.88 14.79 L 129.21 14.61 L 128.27 14.38 L 127.34 14.14 L 126.39 14.09 L 125.44 14.05 L 124.33 13.85 L 123.23 13.67 L 122.03 13.44 L 120.83 13.20 L 119.45 13.16 L 118.08 13.11 L 116.72 12.92 L 115.36 12.73 L 114.18 12.33 L 113.00 11.93 L 111.99 11.46 L 110.98 11.00 L 110.00 10.71 L 109.01 10.41 L 108.02 10.16 L 107.03 9.91 L 105.66 9.85 L 104.30 9.80 L 102.89 9.79 L 101.48 9.78 L 99.84 9.78 L 98.20 9.78 L 96.52 10.16 L 94.84 10.55 L 93.38 10.81 L 91.92 11.08 L 90.89 11.31 L 89.86 11.55 L 88.93 11.60 L 88.00 11.64 L 87.09 11.65 L 86.18 11.66 L 85.05 11.48 L 83.92 11.29 L 82.34 11.25 L 80.76 11.21 L 79.15 11.21 L 77.53 11.20 L 76.10 11.01 L 74.67 10.82 L 73.45 10.60 L 72.23 10.38 L 71.23 10.14 L 70.24 9.91 L 69.25 9.67 L 68.26 9.43 L 67.28 9.38 L 66.29 9.33 L 64.93 9.32 L 63.57 9.31 L 62.15 9.50 L 60.72 9.69 L 59.30 9.92 L 57.88 10.14 L 56.30 10.37 L 54.71 10.61 L 53.47 10.65 L 52.23 10.70 L 51.22 10.71 L 50.22 10.72 L 49.22 10.72 L 48.22 10.73 L 47.45 10.92 L 46.69 11.11 L 45.63 11.14 L 44.58 11.17 L 43.61 11.18 L 42.64 11.19 L 41.47 11.19 L 40.31 11.19 L 38.94 11.38 L 37.57 11.57 L 36.35 11.61 L 35.12 11.65 L 34.08 11.85 L 33.05 12.06 L 32.07 12.29 L 31.10 12.52 L 30.36 12.75 L 29.63 12.98 L 29.10 13.03 L 28.57 13.07 L 27.85 13.29 L 27.12 13.50 L 26.56 13.75 L 26.00 13.99 L 25.31 14.43 L 24.61 14.87 L 23.88 15.35 L 23.16 15.83 L 22.44 16.49 L 21.73 17.16 L 21.07 17.63 L 20.42 18.11 L 19.72 18.39 L 19.02 18.68 L 18.30 19.12 L 17.58 19.57 L 16.68 20.03 L 15.78 20.50 L 14.99 21.00 L 14.21 21.49 L 13.65 21.99 L 13.09 22.48 L 12.39 23.18 L 11.68 23.88 L 11.32 24.45 L 10.95 25.03 L 10.67 25.78 L 10.39 26.53 L 10.33 27.29 L 10.27 28.05 L 10.26 28.93 L 10.26 29.80 L 10.06 30.73 L 9.87 31.66 L 9.84 32.61 L 9.80 33.55 L 9.60 34.49 L 9.40 35.44 L 9.36 36.23 L 9.32 37.02 L 9.31 37.74 L 9.30 38.47 L 9.30 38.99 L 9.30 39.52 L 9.30 40.19 L 9.30 40.86 L 9.30 41.56 L 9.30 42.27 L 9.31 43.22 L 9.31 44.17 L 9.50 44.74 L 9.69 45.31 L 9.72 45.93 L 9.75 46.56 L 9.76 47.44 L 9.77 48.32 L 9.77 49.25 L 9.77 50.19 L 9.77 51.53 L 9.77 52.88 L 9.97 54.31 L 10.16 55.74 L 10.40 57.01 L 10.64 58.29 L 11.27 59.71 L 11.90 61.13 L 12.40 62.17 L 12.90 63.21 L 13.19 63.80 L 13.48 64.39 L 13.91 65.23 L 14.33 66.08 L 14.59 66.94 L 14.85 67.81 L 14.90 68.55 L 14.95 69.29 L 15.16 70.24 L 15.37 71.18 L 15.60 71.94 L 15.83 72.69 L 16.06 73.58 L 16.29 74.48 L 16.53 75.60 L 16.76 76.72 L 17.00 77.68 L 17.23 78.63 L 17.27 79.77 L 17.32 80.90 L 17.52 81.89 L 17.72 82.87 L 17.76 83.83 L 17.80 84.78 L 17.99 85.73 L 18.19 86.67 L 18.23 87.59 L 18.26 88.50 L 18.27 89.63 L 18.28 90.75 L 18.28 91.74 L 18.28 92.72 L 18.28 93.83 L 18.29 94.95 L 18.10 96.09 L 17.92 97.23 L 17.69 98.40 L 17.46 99.58 L 17.23 100.76 L 17.00 101.94 L 16.76 103.12 L 16.52 104.30 L 16.29 105.46 L 16.06 106.61 L 15.64 107.78 L 15.22 108.95 L 14.56 111.29 L 13.90 113.62 L 13.39 115.80 L 12.88 117.97 L 12.59 119.19 L 12.29 120.41 L 12.23 121.60 L 12.17 122.79 L 11.97 123.78 L 11.77 124.78 L 11.73 125.74 L 11.69 126.70 L 11.49 127.81 L 11.30 128.93 L 11.07 130.32 L 10.84 131.70 L 10.79 133.11 L 10.74 134.53 L 10.55 135.92 L 10.35 137.31 L 10.12 138.75 L 9.89 140.19 L 9.85 141.41 L 9.80 142.64 L 9.60 143.84 L 9.40 145.03 L 9.36 146.62 L 9.32 148.21 L 9.31 149.66 L 9.30 151.11 L 9.30 152.92 L 9.30 154.72 L 9.30 156.78 L 9.30 158.84 L 9.30 160.77 L 9.30 162.70 L 9.30 164.59 L 9.30 166.49 L 9.30 168.03 L 9.30 169.56 L 9.49 171.19 L 9.68 172.82 L 9.72 174.47 L 9.76 176.12 L 9.95 177.78 L 10.15 179.43 L 10.19 181.07 L 10.23 182.70 L 10.23 183.97 L 10.24 185.25 L 10.24 186.45 L 10.25 187.65 L 10.25 188.45 L 10.25 189.26 L 10.25 190.18 L 10.25 191.10 L 10.25 192.04 L 10.25 192.98 L 10.25 194.11 L 10.25 195.24 L 10.25 196.42 L 10.25 197.59 L 10.25 198.77 L 10.25 199.95 L 10.25 201.16 L 10.25 202.37 L 10.44 203.55 L 10.63 204.74 L 10.66 205.90 L 10.70 207.05 L 10.71 208.04 L 10.72 209.03 L 10.72 209.98 L 10.72 210.94 L 10.72 211.88 L 10.72 212.83 L 10.72 213.97 L 10.72 215.10 L 10.72 216.46 L 10.72 217.82 L 10.72 219.04 L 10.72 220.26 L 10.72 221.45 L 10.72 222.64 L 10.72 223.79 L 10.72 224.94 L 10.53 225.93 L 10.35 226.91 L 10.31 227.90 L 10.27 228.89 L 10.26 229.81 L 10.25 230.73 L 10.06 231.66 L 9.87 232.60 L 9.84 233.36 L 9.80 234.11 L 9.60 235.02 L 9.40 235.93 L 9.36 236.90 L 9.32 237.88 L 9.31 238.83 L 9.30 239.78 L 9.30 240.73 L 9.30 241.67 L 9.30 242.81 L 9.30 243.94 L 9.30 244.93 L 9.30 245.91 L 9.30 246.86 L 9.30 247.82 L 9.30 248.76 L 9.30 249.71 L 9.30 250.51 L 9.31 251.31 L 9.50 252.04 L 9.69 252.77 L 9.72 253.44 L 9.75 254.11 L 9.76 255.03 L 9.77 255.95 L 9.96 256.90 L 10.16 257.84 L 10.20 258.79 L 10.23 259.74 L 10.45 260.56 L 10.66 261.38 L 10.90 261.94 L 11.14 262.50 L 11.39 263.01 L 11.64 263.52 L 12.07 264.19 L 12.49 264.86 L 12.78 265.40 L 13.07 265.93 L 13.54 266.45 L 14.00 266.97 L 14.52 267.50 L 15.05 268.02 L 15.72 268.31 L 16.39 268.60 L 16.85 269.00 L 17.31 269.40 L 17.78 269.85 L 18.25 270.31 L 18.73 270.78 L 19.20 271.25 L 19.72 271.76 L 20.25 272.28 L 20.92 272.57 L 21.59 272.86 L 22.08 273.27 L 22.56 273.69 L 23.27 274.19 L 23.99 274.68 L 24.68 274.96 L 25.37 275.23 L 25.92 275.69 L 26.48 276.14 L 27.27 276.26 L 28.05 276.37 L 29.03 276.38 L 30.01 276.40 L 31.02 276.00 L 32.04 275.60 L 33.01 275.13 L 33.98 274.67 L 34.70 274.21 L 35.43 273.76 L 36.48 273.49 L 37.52 273.23 L 38.50 272.98 L 39.47 272.74 L 40.42 272.50 L 41.36 272.26 L 42.46 272.03 L 43.56 271.80 L 44.51 271.76 L 45.46 271.71 L 46.22 271.70 L 46.98 271.69 L 47.88 271.69 L 48.79 271.69 L 49.54 271.69 L 50.29 271.69 L 51.01 271.69 L 51.72 271.69 L 52.24 271.69 L 52.77 271.69 L 53.44 271.69 L 54.11 271.69 L 54.62 271.69 L 55.13 271.69 L 55.80 271.69 L 56.47 271.69 L 57.18 271.69 L 57.88 271.69 L 58.58 271.69 L 59.29 271.69 L 60.19 271.69 L 61.09 271.69 L 61.88 271.69 L 62.67 271.68 L 63.40 271.49 L 64.12 271.30 L 64.98 271.27 L 65.83 271.23 L 66.57 271.23 L 67.31 271.22 L 68.03 271.22 L 68.75 271.22 L 69.46 271.22 L 70.17 271.22 L 70.69 271.22 L 71.21 271.22 L 71.82 271.21 L 72.43 271.20 L 72.88 271.38 L 73.34 271.55 L 74.00 271.78 L 74.66 272.00 L 75.15 272.22 L 75.64 272.45 L 76.49 272.87 L 77.35 273.29 L 78.30 273.77 L 79.26 274.24 L 80.27 274.55 L 81.28 274.85 L 82.43 274.91 L 83.59 274.97 L 84.76 275.17 L 85.94 275.37 L 86.92 275.41 L 87.91 275.45 L 88.83 275.64 L 89.75 275.83 L 90.72 276.06 L 91.70 276.30 L 92.68 276.34 L 93.67 276.39 L 94.62 276.40 L 95.58 276.41 L 96.52 276.41 L 97.47 276.42 L 98.63 276.42 L 99.79 276.41 L 101.16 276.23 L 102.52 276.04 L 103.91 276.00 L 105.29 275.96 L 106.35 275.95 L 107.41 275.94 L 108.57 275.75 L 109.73 275.56 L 110.76 275.52 L 111.78 275.47 L 112.74 275.09 L 113.71 274.70 L 114.62 274.63 L 115.53 274.56 L 116.65 274.35 L 117.78 274.15 L 119.13 274.11 L 120.49 274.07 L 122.10 273.87 L 123.72 273.67 L 125.36 273.44 L 127.01 273.21 L 128.46 272.98 L 129.91 272.75 L 130.93 272.70 L 131.95 272.66 L 132.91 272.65 L 133.87 272.64 L 134.82 272.64 L 135.77 272.63 L 136.72 272.63 L 137.66 272.63 L 138.96 272.63 L 140.26 272.63 L 141.63 272.82 L 143.01 273.00 L 144.39 273.22 L 145.77 273.45 L 146.99 273.87 L 148.21 274.29 L 149.64 274.57 L 151.07 274.86 L 152.13 274.91 L 153.20 274.97 L 154.36 274.98 L 155.52 274.99 L 156.73 274.99 L 157.93 274.99 L 159.14 274.80 L 160.35 274.61 L 161.72 274.38 L 163.09 274.16 L 164.69 273.92 L 166.28 273.69 L 167.74 273.45 L 169.20 273.22 L 170.64 272.98 L 172.07 272.74 L 173.13 272.50 L 174.18 272.26 L 175.12 272.03 L 176.05 271.80 L 176.96 271.76 L 177.87 271.71 L 179.00 271.70 L 180.12 271.69 L 181.29 271.69 L 182.47 271.69 L 183.62 271.69 L 184.77 271.69 L 185.92 271.87 L 187.07 272.06 L 188.27 272.29 L 189.48 272.52 L 190.85 272.56 L 192.22 272.61 L 193.21 272.80 L 194.21 272.99 L 195.16 273.22 L 196.12 273.45 L 197.10 273.69 L 198.08 273.93 L 199.25 273.98 L 200.42 274.03 L 201.79 274.04 L 203.16 274.05 L 204.57 274.05 L 205.98 274.05 L 207.58 274.05 L 209.19 274.05 L 210.43 274.05 L 211.67 274.05 L 212.86 274.24 L 214.06 274.43 L 215.27 274.47 L 216.48 274.51 L 217.48 274.51 L 218.48 274.52 L 219.62 274.52 L 220.77 274.52 L 222.13 274.52 L 223.50 274.53 L 224.71 274.53 L 225.93 274.53 L 227.28 274.52 L 228.64 274.52 L 229.85 274.71 L 231.07 274.90 L 232.25 274.94 L 233.44 274.98 L 234.63 275.17 L 235.81 275.37 L 236.83 275.41 L 237.85 275.45 L 239.00 275.46 L 240.15 275.47 L 241.33 275.47 L 242.50 275.47 L 243.68 275.47 L 244.86 275.47 L 246.23 275.47 L 247.61 275.47 L 249.23 275.47 L 250.85 275.47 L 252.31 275.28 L 253.76 275.09 L 255.20 275.05 L 256.63 275.01 L 257.86 274.82 L 259.09 274.62 L 260.28 274.58 L 261.48 274.54 L 262.66 274.34 L 263.84 274.15 L 265.37 274.11 L 266.91 274.07 L 268.52 274.06 L 270.13 274.06 L 271.95 274.24 L 273.77 274.43 L 275.44 274.65 L 277.12 274.88 L 278.43 275.11 L 279.73 275.35 L 281.34 275.40 L 282.95 275.45 L 284.61 275.46 L 286.28 275.47 L 287.96 275.28 L 289.64 275.09 L 291.09 274.86 L 292.54 274.64 L 293.80 274.59 L 295.05 274.54 L 295.91 274.33 L 296.77 274.13 L 297.48 273.90 L 298.18 273.68 L 298.65 273.64 L 299.13 273.60 L 299.79 273.59 L 300.44 273.58 L 301.14 273.58 L 301.84 273.58 L 302.74 273.58 L 303.64 273.58 L 304.57 273.58 L 305.51 273.58 L 306.64 273.58 L 307.77 273.58 L 308.76 273.58 L 309.74 273.58 L 310.88 273.58 L 312.02 273.58 L 313.01 273.58 L 313.99 273.58 L 314.95 273.58 L 315.90 273.58 L 316.85 273.58 L 317.79 273.58 L 318.81 273.57 L 319.82 273.57 L 320.81 273.18 L 321.80 272.79 L 322.72 272.53 L 323.64 272.27 L 324.77 272.03 L 325.89 271.79 L 326.85 271.56 L 327.80 271.33 L 328.91 271.28 L 330.01 271.24 L 331.17 271.23 L 332.34 271.22 L 333.33 271.22 L 334.32 271.22 L 335.47 271.22 L 336.61 271.22 L 337.59 271.22 L 338.58 271.22 L 339.49 271.21 L 340.40 271.21 L 341.15 271.40 L 341.90 271.59 L 342.66 271.63 L 343.42 271.67 L 344.08 271.67 L 344.74 271.67 L 345.25 271.86 L 345.77 272.05 L 346.69 272.10 L 347.61 272.14 L 348.42 272.14 L 349.24 272.14 L 350.24 271.73 L 351.25 271.32 L 352.24 270.64 L 353.22 269.97 L 354.00 269.25 L 354.78 268.53 L 355.52 267.80 L 356.26 267.07 L 356.81 266.34 L 357.35 265.60 L 357.82 264.91 L 358.29 264.21 L 358.75 263.72 L 359.20 263.22 L 359.67 262.74 L 360.14 262.27 L 360.61 261.79 L 361.08 261.32 L 361.60 260.79 L 362.11 260.27 L 362.41 259.57 L 362.72 258.88 L 363.16 258.17 L 363.59 257.47 L 363.87 256.76 L 364.15 256.05 L 364.55 255.39 L 364.95 254.74 L 365.43 254.20 L 365.91 253.66 L 366.21 252.96 L 366.50 252.26 L 366.93 251.57 L 367.36 250.88 L 367.84 249.94 L 368.33 249.00 L 368.62 248.03 L 368.92 247.06 L 369.17 246.07 L 369.43 245.09 L 369.48 244.10 L 369.53 243.11 L 369.54 242.35 L 369.55 241.58 L 369.56 240.67 L 369.56 239.76 L 369.56 238.83 L 369.56 237.89 L 369.56 236.94 L 369.56 236.00 L 369.56 235.05 L 369.56 234.11 L 369.56 233.35 L 369.56 232.60 L 369.56 231.64 L 369.55 230.69 L 369.36 229.94 L 369.17 229.18 L 369.13 228.08 L 369.09 226.97 L 368.90 226.37 L 368.70 225.77 L 368.66 224.91 L 368.63 224.06 L 368.43 223.09 L 368.22 222.13 L 367.99 221.18 L 367.77 220.24 L 367.53 219.12 L 367.30 218.00 L 367.07 216.64 L 366.83 215.28 L 366.60 214.08 L 366.36 212.89 L 366.32 211.52 L 366.27 210.14 L 366.07 208.92 L 365.87 207.70 L 365.83 206.72 L 365.80 205.75 L 365.79 204.61 L 365.78 203.47 L 365.78 202.30 L 365.78 201.13 L 365.78 199.76 L 365.78 198.39 L 365.78 196.79 L 365.78 195.19 L 365.78 193.74 L 365.78 192.28 L 365.78 190.67 L 365.78 189.05 L 365.78 187.43 L 365.78 185.80 L 365.96 184.34 L 366.15 182.88 L 366.19 181.46 L 366.23 180.03 L 366.43 178.42 L 366.62 176.81 L 366.66 175.35 L 366.70 173.90 L 366.90 172.50 L 367.09 171.09 L 367.32 169.68 L 367.54 168.27 L 367.77 167.07 L 368.00 165.88 L 368.42 164.69 L 368.85 163.51 L 369.13 162.27 L 369.41 161.04 L 369.47 160.20 L 369.53 159.36 L 369.54 158.24 L 369.55 157.12 L 369.56 156.17 L 369.56 155.22 L 369.74 154.11 L 369.93 153.00 L 370.15 151.64 L 370.38 150.28 L 370.62 149.04 L 370.86 147.80 L 370.90 146.61 L 370.95 145.42 L 371.15 144.43 L 371.35 143.43 L 371.39 142.45 L 371.43 141.46 L 371.44 140.50 L 371.45 139.55 L 371.45 138.44 L 371.45 137.33 L 371.64 136.16 L 371.83 135.00 L 371.87 133.79 L 371.90 132.58 L 371.91 131.40 L 371.92 130.21 L 371.92 129.03 L 371.92 127.84 L 371.92 126.85 L 371.92 125.86 L 371.92 124.90 L 371.92 123.95 L 371.92 122.96 L 371.92 121.98 L 371.73 121.00 L 371.53 120.02 L 371.30 118.88 L 371.08 117.74 L 370.84 116.76 L 370.61 115.77 L 370.37 114.63 L 370.13 113.49 L 369.89 112.47 L 369.65 111.46 L 369.22 110.33 L 368.80 109.19 L 368.53 107.84 L 368.26 106.49 L 368.01 105.65 L 367.77 104.81 L 367.53 103.71 L 367.30 102.61 L 367.06 101.43 L 366.82 100.26 L 366.59 99.28 L 366.35 98.29 L 366.12 96.96 L 365.88 95.63 L 365.65 94.63 L 365.42 93.63 L 365.37 92.49 L 365.32 91.35 L 365.13 90.17 L 364.93 89.00 L 364.89 88.03 L 364.85 87.07 L 364.84 86.12 L 364.84 85.17 L 364.83 84.23 L 364.83 83.28 L 364.83 82.52 L 364.83 81.77 L 364.83 80.86 L 364.83 79.95 L 364.83 79.01 L 364.83 78.07 L 364.83 77.32 L 364.83 76.56 L 364.83 75.66 L 364.83 74.75 L 364.83 74.00 L 364.83 73.25 L 364.83 72.57 L 364.83 71.89 L 365.01 71.03 L 365.19 70.17 L 365.42 69.21 L 365.66 68.25 L 365.70 67.49 L 365.75 66.73 L 365.95 65.82 L 366.14 64.91 L 366.18 64.17 L 366.22 63.43 L 366.42 62.72 L 366.62 62.00 L 366.66 61.25 L 366.70 60.49 L 366.71 59.58 L 366.72 58.67 L 366.72 57.92 L 366.72 57.18 L 366.72 56.27 L 366.72 55.36 L 366.72 54.47 L 366.72 53.57 L 366.91 52.82 L 367.09 52.08 L 367.13 50.97 L 367.17 49.87 L 367.37 48.89 L 367.57 47.92 L 367.60 46.97 L 367.64 46.02 L 367.84 45.10 L 368.03 44.18 L 368.26 43.01 L 368.49 41.85 L 368.54 40.84 L 368.59 39.82 L 368.60 38.86 L 368.61 37.90 L 368.61 36.95 L 368.61 36.00 L 368.61 35.24 L 368.61 34.48 L 368.61 33.73 L 368.61 32.97 L 368.41 32.02 L 368.21 31.07 L 367.99 30.35 L 367.77 29.63 L 367.73 28.78 L 367.69 27.92 L 367.68 26.96 L 367.67 25.99 L 367.47 25.00 L 367.27 24.01 L 367.03 23.21 L 366.79 22.42 L 366.52 21.82 L 366.26 21.23 L 365.83 20.75 L 365.41 20.27 L 365.15 19.63 L 364.89 18.99 L 364.46 18.29 L 364.03 17.60 L 363.77 16.92 L 363.51 16.25 L 363.22 15.47 L 362.94 14.68 L 362.22 14.06 L 361.50 13.45 L 360.70 13.11 L 359.91 12.78 L 358.95 12.71 L 357.99 12.64 L 357.08 12.63 L 356.18 12.62 L 355.47 12.44 L 354.75 12.26 L 353.85 12.03 L 352.95 11.81 L 352.24 11.58 L 351.52 11.36 L 350.60 10.93 L 349.69 10.50 L 348.52 10.21 L 347.35 9.93 L 346.15 9.68 L 344.94 9.43 L 343.73 9.38 L 342.52 9.33 L 341.33 9.32 L 340.14 9.31 L 338.96 9.31 L 337.77 9.30 L 336.55 9.31 L 335.32 9.31 L 333.72 9.69 L 332.11 10.08 L 330.47 10.54 L 328.82 10.99 L 326.61 11.65 L 324.39 12.31 L 323.20 12.63 L 322.01 12.94 L 320.83 13.20 L 319.65 13.45 L 318.69 13.68 L 317.72 13.91 L 316.62 13.95 L 315.51 14.00 L 314.35 14.01 L 313.18 14.02 L 311.79 14.02 L 310.40 14.02 L 308.80 14.21 L 307.20 14.40 L 305.57 14.44 L 303.95 14.47 L 302.49 14.48 L 301.03 14.49 L 299.58 14.49 L 298.13 14.49 L 296.68 14.69 L 295.24 14.88 L 293.81 15.11 L 292.39 15.33 L 290.79 15.57 L 289.18 15.80 L 287.56 16.04 L 285.93 16.27 L 284.47 16.32 L 283.01 16.36 L 281.58 16.56 L 280.15 16.76 L 279.13 16.80 L 278.11 16.84 L 277.15 16.85 L 276.19 16.85 L 275.47 16.86 L 274.75 16.86 L 273.88 16.68 L 273.01 16.50 L 272.10 16.28 L 271.19 16.06 L 270.08 15.64 L 268.97 15.22 L 267.77 14.75 L 266.57 14.28 L 265.17 13.99 L 263.76 13.71 L 262.33 13.46 L 260.89 13.21 L 259.63 13.16 L 258.38 13.11 L 257.37 13.10 L 256.36 13.09 L 255.40 13.09 L 254.44 13.09 L 253.50 13.09 L 252.55 13.09 L 251.60 13.09 L 250.66 13.09 L 249.50 13.09 L 248.34 13.09 L 246.95 13.28 L 245.56 13.47 L 244.14 13.70 L 242.73 13.92 L 241.52 14.15 L 240.31 14.38 L 239.15 14.43 L 237.99 14.47 L 237.01 14.48 L 236.02 14.49 L 235.25 14.49 L 234.49 14.49 L 233.39 14.49 L 232.29 14.49 L 231.32 14.49 L 230.34 14.49 L 229.01 14.49 L 227.68 14.49 L 226.28 14.49 L 224.88 14.49 L 223.27 14.49 L 221.67 14.49 L 220.21 14.49 L 218.76 14.49 L 217.33 14.49 L 215.91 14.49 L 214.68 14.49 L 213.44 14.49 L 212.03 14.50 L 210.61 14.50 L 208.80 14.88 L 206.99 15.26 L 204.93 15.52 L 202.88 15.79 L 200.57 16.22 L 198.28 16.65 L 196.33 16.92 L 194.38 17.20 L 192.92 17.25 L 191.46 17.31 L 190.11 16.96 L 188.77 16.62 L 187.43 15.84 L 186.10 15.07 L 185.75 14.85 L 185.40 14.62 L 185.67 14.59 L 185.94 14.56 L 186.75 14.33 L 187.55 14.10 L 187.61 14.07 L 187.68 14.05 L 187.74 14.01 L 187.79 13.97 L 187.84 13.92 L 187.89 13.88 L 187.93 13.82 L 187.97 13.77 L 188.00 13.71 L 188.02 13.65 L 188.04 13.58 L 188.05 13.51 L 188.05 13.44 L 188.05 13.38 L 188.04 13.31 L 188.03 13.24 L 188.00 13.18 L 187.98 13.11 L 187.94 13.06 L 187.90 13.00 L 187.85 12.95 L 187.80 12.90 L 187.75 12.86 L 187.69 12.82 L 187.63 12.80 L 187.56 12.77 L 187.50 12.75 L 187.43 12.74 L 187.36 12.74 L 187.29 12.74 L 187.23 12.75 L 187.16 12.76 L 187.09 12.79 L 187.03 12.82 L 186.97 12.85 L 186.92 12.89 L 186.87 12.94 L 186.82 12.99 L 186.78 13.04 L 186.74 13.10 L 186.71 13.16 L 186.69 13.23 L 186.67 13.29 L 186.66 13.36 L 186.66 13.43 L 186.66 13.50 L 186.67 13.57 L 186.68 13.63 L 186.71 13.70 L 186.73 13.76 L 186.77 13.81 L 186.81 13.87 L 186.86 13.91 L 186.91 13.96 L 186.96 14.00 L 187.02 14.04 L 187.08 14.07 L 187.14 14.09 L 187.21 14.11 L 187.28 14.12 L 187.35 14.12 L 187.42 14.12 Z"/></svg>
