<svg xmlns="http://www.w3.org/2000/svg" viewBox="8.31 8.33 368.75 273.81"><path fill="#000" d="M 205.95 12.06 L 205.95 12.06 L 201.73 12.07 L 201.80 12.08 L 201.87 12.10 L 201.93 12.12 L 201.99 12.15 L 202.05 12.18 L 202.11 12.23 L 202.16 12.27 L 202.20 12.32 L 202.25 12.38 L 202.28 12.44 L 202.31 12.50 L 202.33 12.56 L 202.35 12.63 L 202.36 12.70 L 202.37 21.33 L 202.36 12.82 L 202.35 12.89 L 202.33 12.96 L 202.31 13.02 L 202.28 13.08 L 202.25 13.14 L 202.20 13.20 L 202.16 13.25 L 202.11 13.29 L 202.05 13.34 L 201.99 13.37 L 201.93 13.40 L 201.87 13.42 L 201.80 13.44 L 201.73 13.45 L 197.39 13.46 L 201.27 13.38 L 200.86 13.30 L 200.80 13.09 L 200.74 12.88 L 200.76 12.95 L 200.78 13.01 L 200.40 13.00 L 200.03 13.00 L 199.58 13.00 L 199.13 12.99 L 198.55 12.99 L 197.97 12.98 L 197.53 13.15 L 197.09 13.32 L 196.39 13.56 L 195.69 13.79 L 194.95 13.84 L 194.21 13.89 L 193.55 13.90 L 192.88 13.91 L 192.06 14.08 L 191.23 14.26 L 190.48 14.49 L 189.72 14.72 L 188.98 14.76 L 188.23 14.81 L 187.53 14.82 L 186.82 14.83 L 186.31 14.83 L 185.80 14.84 L 185.29 14.83 L 184.77 14.83 L 184.11 14.64 L 183.45 14.46 L 182.82 14.43 L 182.18 14.39 L 181.46 14.38 L 180.73 14.37 L 180.03 14.19 L 179.33 14.00 L 178.69 13.97 L 178.04 13.93 L 177.17 13.93 L 176.31 13.92 L 175.40 13.92 L 174.49 13.92 L 173.57 13.92 L 172.65 13.92 L 171.91 13.92 L 171.17 13.92 L 170.29 13.92 L 169.40 13.92 L 168.86 13.92 L 168.31 13.92 L 167.59 13.91 L 166.87 13.90 L 166.36 13.72 L 165.85 13.53 L 165.25 13.50 L 164.66 13.47 L 164.17 13.47 L 163.68 13.46 L 162.84 13.46 L 162.01 13.46 L 161.29 13.46 L 160.57 13.46 L 159.69 13.46 L 158.81 13.46 L 158.08 13.46 L 157.35 13.46 L 156.46 13.46 L 155.58 13.46 L 154.90 13.45 L 154.21 13.45 L 153.56 13.63 L 152.90 13.80 L 152.03 14.02 L 151.16 14.24 L 150.45 14.46 L 149.73 14.69 L 149.05 14.91 L 148.37 15.14 L 147.82 15.38 L 147.27 15.62 L 146.61 15.67 L 145.94 15.72 L 145.45 15.91 L 144.95 16.10 L 144.42 16.15 L 143.89 16.20 L 143.23 16.21 L 142.57 16.22 L 141.88 16.22 L 141.20 16.22 L 140.36 16.22 L 139.52 16.22 L 138.62 16.40 L 137.71 16.58 L 136.76 16.62 L 135.81 16.66 L 135.03 16.67 L 134.25 16.67 L 133.31 16.48 L 132.37 16.29 L 131.62 16.06 L 130.88 15.84 L 130.22 15.62 L 129.56 15.40 L 128.87 15.36 L 128.19 15.31 L 127.50 15.12 L 126.81 14.92 L 126.11 14.89 L 125.42 14.85 L 124.65 14.63 L 123.88 14.42 L 123.19 14.01 L 122.49 13.60 L 121.70 13.36 L 120.90 13.12 L 119.86 13.07 L 118.81 13.02 L 117.68 13.01 L 116.54 13.00 L 115.21 13.00 L 113.88 13.00 L 112.69 12.99 L 111.50 12.99 L 110.34 12.99 L 109.19 12.99 L 108.22 12.99 L 107.25 12.99 L 106.32 12.99 L 105.39 12.99 L 104.49 12.99 L 103.60 12.99 L 102.50 13.18 L 101.40 13.36 L 100.44 13.40 L 99.47 13.43 L 98.17 13.63 L 96.88 13.82 L 95.49 13.86 L 94.10 13.90 L 92.90 13.90 L 91.70 13.91 L 90.54 13.91 L 89.37 13.91 L 88.22 13.92 L 87.07 13.92 L 86.07 13.91 L 85.06 13.91 L 84.13 13.73 L 83.19 13.54 L 82.27 13.51 L 81.35 13.47 L 80.24 13.28 L 79.14 13.09 L 77.84 13.05 L 76.54 13.01 L 75.18 13.01 L 73.81 13.00 L 72.43 13.00 L 71.05 13.00 L 69.86 12.99 L 68.66 12.99 L 67.68 12.99 L 66.71 12.99 L 65.74 12.99 L 64.77 12.99 L 63.84 12.81 L 62.91 12.63 L 62.02 12.60 L 61.13 12.56 L 60.19 12.55 L 59.25 12.54 L 58.11 12.35 L 56.97 12.16 L 55.85 11.95 L 54.73 11.73 L 53.43 11.69 L 52.13 11.64 L 50.94 11.64 L 49.76 11.63 L 48.60 11.62 L 47.45 11.62 L 46.48 11.62 L 45.51 11.62 L 44.76 11.62 L 44.01 11.62 L 43.13 11.62 L 42.24 11.62 L 41.36 11.62 L 40.47 11.62 L 39.40 11.80 L 38.33 11.98 L 37.19 12.20 L 36.05 12.42 L 34.91 12.65 L 33.76 12.87 L 32.58 13.10 L 31.40 13.33 L 30.44 13.38 L 29.47 13.43 L 28.62 13.60 L 27.76 13.78 L 27.05 14.17 L 26.34 14.57 L 25.69 14.80 L 25.05 15.04 L 24.60 15.59 L 24.14 16.14 L 23.70 16.61 L 23.25 17.07 L 22.82 17.85 L 22.39 18.63 L 21.93 19.70 L 21.48 20.77 L 21.03 21.88 L 20.58 23.00 L 20.31 24.14 L 20.03 25.28 L 19.60 26.44 L 19.18 27.60 L 18.92 28.54 L 18.65 29.49 L 18.42 30.56 L 18.19 31.64 L 18.15 32.57 L 18.10 33.49 L 18.09 34.26 L 18.08 35.04 L 17.89 35.93 L 17.71 36.82 L 17.67 37.88 L 17.64 38.94 L 17.63 40.08 L 17.62 41.21 L 17.62 42.36 L 17.62 43.51 L 17.62 44.63 L 17.62 45.75 L 17.80 46.71 L 17.98 47.67 L 18.02 48.41 L 18.05 49.15 L 18.25 50.04 L 18.44 50.92 L 18.48 51.83 L 18.51 52.74 L 18.71 53.47 L 18.90 54.21 L 18.94 55.11 L 18.98 56.01 L 19.17 57.08 L 19.35 58.15 L 19.57 59.28 L 19.80 60.41 L 20.02 61.38 L 20.25 62.34 L 20.49 63.49 L 20.72 64.63 L 20.77 65.44 L 20.82 66.25 L 20.83 66.97 L 20.84 67.68 L 20.84 68.57 L 20.84 69.45 L 20.84 70.18 L 20.84 70.90 L 20.84 72.01 L 20.84 73.11 L 20.66 74.06 L 20.47 75.02 L 20.43 75.94 L 20.40 76.87 L 20.21 77.97 L 20.01 79.08 L 19.98 80.23 L 19.94 81.37 L 19.74 82.34 L 19.55 83.31 L 19.51 84.44 L 19.47 85.58 L 19.09 86.75 L 18.70 87.93 L 18.44 89.09 L 18.18 90.24 L 17.76 91.39 L 17.34 92.55 L 17.07 93.70 L 16.80 94.85 L 16.38 96.01 L 15.95 97.18 L 15.51 98.67 L 15.06 100.16 L 14.79 101.75 L 14.51 103.34 L 14.09 104.77 L 13.66 106.20 L 13.40 107.57 L 13.13 108.94 L 12.90 110.32 L 12.66 111.71 L 12.43 112.91 L 12.19 114.10 L 11.96 115.44 L 11.74 116.78 L 11.51 118.31 L 11.28 119.85 L 11.24 121.63 L 11.19 123.41 L 11.00 125.06 L 10.80 126.70 L 10.76 128.30 L 10.73 129.90 L 10.72 131.15 L 10.71 132.39 L 10.71 133.56 L 10.71 134.73 L 10.71 136.07 L 10.71 137.41 L 10.71 138.94 L 10.71 140.48 L 10.89 142.06 L 11.07 143.64 L 11.29 145.26 L 11.52 146.89 L 11.56 148.34 L 11.61 149.79 L 11.62 151.00 L 11.62 152.21 L 11.63 153.56 L 11.63 154.91 L 11.63 156.29 L 11.63 157.66 L 11.63 159.04 L 11.63 160.42 L 11.63 161.99 L 11.63 163.56 L 11.63 164.79 L 11.63 166.02 L 11.63 167.19 L 11.63 168.36 L 11.63 169.52 L 11.63 170.67 L 11.63 171.64 L 11.63 172.61 L 11.63 173.70 L 11.63 174.78 L 11.81 175.90 L 11.99 177.01 L 12.21 178.37 L 12.44 179.73 L 12.48 180.91 L 12.52 182.10 L 12.71 183.23 L 12.90 184.36 L 13.13 185.35 L 13.35 186.33 L 13.40 187.27 L 13.45 188.21 L 13.63 189.29 L 13.82 190.37 L 14.04 191.32 L 14.27 192.27 L 14.50 193.39 L 14.73 194.51 L 14.96 195.66 L 15.19 196.80 L 15.42 197.98 L 15.66 199.16 L 15.70 200.31 L 15.75 201.47 L 15.94 202.62 L 16.14 203.77 L 16.17 204.74 L 16.21 205.71 L 16.39 206.76 L 16.57 207.81 L 16.97 208.76 L 17.38 209.70 L 17.66 210.69 L 17.94 211.67 L 17.99 212.61 L 18.05 213.54 L 18.24 214.47 L 18.44 215.39 L 18.48 216.54 L 18.52 217.68 L 18.53 218.83 L 18.54 219.97 L 18.54 220.91 L 18.54 221.84 L 18.72 222.76 L 18.90 223.69 L 18.94 224.83 L 18.98 225.97 L 18.99 226.93 L 19.00 227.90 L 19.00 228.64 L 19.00 229.39 L 19.00 230.46 L 19.00 231.53 L 19.00 232.48 L 19.00 233.43 L 19.00 234.36 L 19.00 235.29 L 19.00 235.99 L 19.00 236.69 L 19.18 237.57 L 19.36 238.45 L 19.40 239.40 L 19.44 240.35 L 19.45 241.27 L 19.46 242.20 L 19.46 243.12 L 19.46 244.05 L 19.46 244.97 L 19.46 245.89 L 19.46 246.81 L 19.46 247.73 L 19.46 248.47 L 19.46 249.21 L 19.46 249.91 L 19.46 250.61 L 19.46 251.48 L 19.46 252.36 L 19.46 253.09 L 19.46 253.82 L 19.46 254.52 L 19.46 255.22 L 19.46 256.09 L 19.46 256.97 L 19.46 257.88 L 19.46 258.79 L 19.46 259.53 L 19.46 260.26 L 19.46 261.15 L 19.46 262.03 L 19.46 262.76 L 19.46 263.49 L 19.46 264.15 L 19.46 264.80 L 19.64 265.48 L 19.82 266.16 L 19.85 266.65 L 19.89 267.13 L 20.06 267.54 L 20.23 267.95 L 20.42 268.36 L 20.62 268.78 L 20.88 269.11 L 21.14 269.44 L 21.20 269.91 L 21.26 270.38 L 21.43 270.78 L 21.60 271.17 L 22.02 272.01 L 22.43 272.84 L 22.69 273.55 L 22.95 274.25 L 23.31 274.87 L 23.68 275.49 L 24.26 275.94 L 24.83 276.39 L 25.23 276.63 L 25.63 276.87 L 26.38 276.91 L 27.13 276.95 L 27.81 276.96 L 28.48 276.98 L 29.51 276.80 L 30.53 276.62 L 31.48 276.40 L 32.42 276.19 L 33.51 275.96 L 34.60 275.74 L 35.73 275.33 L 36.85 274.92 L 38.20 274.46 L 39.56 274.01 L 40.76 273.73 L 41.96 273.45 L 43.00 273.20 L 44.04 272.95 L 45.08 273.10 L 46.12 273.25 L 46.74 273.48 L 47.36 273.72 L 48.01 274.13 L 48.67 274.53 L 49.52 274.79 L 50.37 275.05 L 51.28 275.47 L 52.19 275.89 L 53.07 276.15 L 53.95 276.41 L 55.04 276.64 L 56.13 276.88 L 57.27 277.11 L 58.41 277.34 L 59.54 277.56 L 60.66 277.79 L 61.59 277.83 L 62.53 277.88 L 63.64 277.89 L 64.74 277.90 L 65.52 277.90 L 66.29 277.90 L 67.00 277.90 L 67.71 277.90 L 68.62 277.90 L 69.53 277.90 L 70.51 278.10 L 71.48 278.30 L 72.56 278.70 L 73.64 279.10 L 74.93 279.17 L 76.22 279.25 L 77.59 279.45 L 78.95 279.65 L 80.31 279.69 L 81.67 279.72 L 83.01 279.73 L 84.36 279.74 L 85.31 279.57 L 86.26 279.40 L 87.37 279.00 L 88.48 278.60 L 89.47 278.33 L 90.45 278.05 L 91.58 277.81 L 92.71 277.57 L 94.07 277.34 L 95.43 277.10 L 97.02 277.05 L 98.60 277.00 L 99.84 276.99 L 101.08 276.98 L 102.61 276.98 L 104.15 276.98 L 104.98 276.98 L 105.81 276.98 L 106.86 276.81 L 107.90 276.63 L 109.20 276.23 L 110.51 275.83 L 112.07 275.38 L 113.62 274.93 L 115.24 274.46 L 116.86 274.00 L 118.52 273.72 L 120.17 273.44 L 121.62 273.38 L 123.08 273.32 L 124.29 273.31 L 125.51 273.30 L 126.86 273.30 L 128.20 273.30 L 129.40 273.29 L 130.59 273.29 L 131.93 273.29 L 133.27 273.29 L 134.85 273.29 L 136.43 273.29 L 138.22 273.48 L 140.01 273.66 L 141.82 273.70 L 143.64 273.74 L 145.29 273.74 L 146.94 273.75 L 148.56 273.75 L 150.18 273.75 L 151.97 273.75 L 153.75 273.76 L 155.76 273.57 L 157.78 273.39 L 160.04 273.35 L 162.30 273.31 L 164.07 273.31 L 165.83 273.30 L 167.31 273.48 L 168.79 273.67 L 170.35 273.89 L 171.92 274.11 L 173.50 274.15 L 175.08 274.19 L 176.86 274.20 L 178.63 274.21 L 180.44 274.03 L 182.25 273.85 L 183.89 273.63 L 185.53 273.41 L 186.78 273.19 L 188.03 272.96 L 189.41 272.72 L 190.79 272.49 L 192.01 272.44 L 193.23 272.40 L 194.95 272.39 L 196.67 272.38 L 198.47 272.38 L 200.27 272.37 L 201.91 272.19 L 203.55 272.01 L 204.98 271.97 L 206.41 271.93 L 207.62 271.74 L 208.83 271.55 L 210.02 271.51 L 211.21 271.47 L 212.57 271.46 L 213.94 271.46 L 215.32 271.64 L 216.70 271.82 L 218.08 271.86 L 219.46 271.90 L 221.04 272.09 L 222.63 272.28 L 224.07 272.51 L 225.51 272.73 L 226.56 272.97 L 227.61 273.21 L 228.77 273.63 L 229.92 274.05 L 231.04 274.50 L 232.16 274.94 L 233.48 275.21 L 234.79 275.48 L 236.34 275.90 L 237.89 276.32 L 239.66 276.59 L 241.43 276.85 L 242.87 277.09 L 244.31 277.32 L 245.68 277.37 L 247.05 277.42 L 248.25 277.43 L 249.45 277.44 L 250.61 277.44 L 251.77 277.44 L 252.92 277.44 L 254.07 277.44 L 255.59 277.44 L 257.11 277.44 L 258.52 277.44 L 259.93 277.44 L 261.51 277.44 L 263.08 277.44 L 264.50 277.44 L 265.92 277.44 L 267.12 277.44 L 268.33 277.44 L 269.31 277.44 L 270.29 277.44 L 271.40 277.44 L 272.52 277.44 L 273.67 277.44 L 274.81 277.44 L 276.33 277.44 L 277.85 277.44 L 278.89 277.44 L 279.93 277.44 L 281.22 277.44 L 282.50 277.44 L 283.68 277.26 L 284.86 277.08 L 285.86 277.04 L 286.86 277.00 L 287.80 276.99 L 288.74 276.98 L 289.66 276.98 L 290.59 276.98 L 291.47 276.98 L 292.36 276.98 L 293.25 276.80 L 294.14 276.62 L 295.24 276.40 L 296.35 276.18 L 297.52 275.95 L 298.69 275.72 L 299.85 275.67 L 301.01 275.62 L 302.34 275.43 L 303.68 275.24 L 304.89 275.20 L 306.10 275.16 L 306.86 275.15 L 307.63 275.14 L 308.51 274.96 L 309.40 274.77 L 310.17 274.74 L 310.93 274.70 L 311.83 274.69 L 312.72 274.68 L 313.63 274.68 L 314.55 274.68 L 315.65 274.68 L 316.76 274.68 L 317.90 274.68 L 319.04 274.68 L 320.19 274.68 L 321.34 274.68 L 322.49 274.68 L 323.65 274.68 L 324.80 274.68 L 325.95 274.68 L 326.96 274.68 L 327.97 274.68 L 328.72 274.87 L 329.48 275.05 L 330.36 275.09 L 331.24 275.12 L 332.17 275.32 L 333.11 275.51 L 334.37 275.73 L 335.63 275.95 L 337.15 275.99 L 338.66 276.04 L 340.07 276.05 L 341.49 276.05 L 342.87 276.06 L 344.26 276.06 L 345.28 276.06 L 346.29 276.06 L 347.23 276.06 L 348.17 276.06 L 348.91 276.06 L 349.65 276.06 L 350.32 276.06 L 350.98 276.06 L 351.79 275.89 L 352.59 275.72 L 353.47 275.33 L 354.34 274.94 L 355.62 274.31 L 356.90 273.68 L 357.89 273.19 L 358.89 272.69 L 359.77 272.26 L 360.65 271.83 L 361.33 271.05 L 362.02 270.27 L 362.88 269.22 L 363.73 268.17 L 364.25 267.08 L 364.78 265.98 L 365.24 264.86 L 365.71 263.74 L 365.98 262.80 L 366.25 261.87 L 366.48 260.79 L 366.72 259.72 L 366.76 258.43 L 366.81 257.13 L 366.82 255.95 L 366.83 254.77 L 366.83 253.61 L 366.83 252.46 L 366.83 251.30 L 366.83 250.15 L 366.83 248.97 L 366.83 247.78 L 367.02 246.81 L 367.20 245.83 L 367.24 244.75 L 367.27 243.67 L 367.28 242.53 L 367.29 241.39 L 367.29 240.45 L 367.29 239.52 L 367.11 238.41 L 366.93 237.30 L 366.89 236.13 L 366.85 234.96 L 366.84 233.99 L 366.83 233.01 L 366.83 232.08 L 366.83 231.15 L 366.83 230.23 L 366.83 229.30 L 366.83 228.35 L 366.83 227.39 L 367.02 226.43 L 367.21 225.48 L 367.43 224.37 L 367.66 223.27 L 367.88 222.15 L 368.10 221.03 L 368.15 220.07 L 368.19 219.11 L 368.39 217.97 L 368.59 216.82 L 368.81 215.88 L 369.03 214.95 L 369.08 213.82 L 369.12 212.69 L 369.51 211.52 L 369.89 210.35 L 370.15 209.03 L 370.40 207.72 L 370.64 206.50 L 370.89 205.29 L 371.30 204.13 L 371.72 202.96 L 371.98 201.84 L 372.24 200.71 L 372.48 199.38 L 372.71 198.05 L 372.94 196.89 L 373.17 195.72 L 373.22 194.57 L 373.26 193.41 L 373.46 192.26 L 373.65 191.10 L 373.69 190.13 L 373.73 189.16 L 373.93 188.19 L 374.12 187.23 L 374.34 186.33 L 374.56 185.44 L 374.60 184.37 L 374.64 183.30 L 374.65 182.35 L 374.66 181.40 L 374.66 180.10 L 374.66 178.81 L 374.66 177.47 L 374.67 176.13 L 374.49 174.97 L 374.31 173.81 L 374.08 172.63 L 373.86 171.45 L 373.81 170.08 L 373.76 168.71 L 373.76 167.70 L 373.75 166.69 L 373.74 165.56 L 373.74 164.44 L 373.74 163.29 L 373.74 162.15 L 373.74 161.00 L 373.74 159.85 L 373.74 158.51 L 373.74 157.17 L 373.74 155.96 L 373.74 154.74 L 373.93 153.58 L 374.11 152.41 L 374.15 151.47 L 374.18 150.52 L 374.19 149.78 L 374.20 149.04 L 374.20 148.16 L 374.20 147.27 L 374.20 146.54 L 374.20 145.81 L 374.20 144.93 L 374.20 144.05 L 374.20 143.32 L 374.20 142.59 L 374.20 141.52 L 374.20 140.45 L 374.20 139.54 L 374.21 138.62 L 374.03 137.73 L 373.85 136.85 L 373.63 135.93 L 373.41 135.02 L 373.18 134.09 L 372.95 133.16 L 372.72 132.07 L 372.50 130.97 L 372.26 130.17 L 372.02 129.37 L 371.97 128.43 L 371.92 127.49 L 371.91 126.75 L 371.90 126.01 L 371.90 125.31 L 371.90 124.60 L 371.90 123.91 L 371.90 123.22 L 371.90 122.53 L 371.90 121.84 L 371.90 120.96 L 371.90 120.08 L 371.90 119.17 L 371.90 118.26 L 371.90 117.34 L 371.90 116.42 L 371.90 115.50 L 371.90 114.58 L 371.90 113.66 L 371.90 112.74 L 371.90 112.00 L 371.90 111.26 L 371.90 110.38 L 371.90 109.49 L 371.90 108.76 L 371.90 108.03 L 371.90 107.33 L 371.90 106.63 L 371.90 105.94 L 371.90 105.25 L 371.90 104.50 L 371.91 103.74 L 372.11 103.18 L 372.31 102.62 L 372.51 102.02 L 372.72 101.41 L 372.76 100.56 L 372.81 99.70 L 373.00 98.97 L 373.19 98.25 L 373.23 97.35 L 373.27 96.46 L 373.47 95.91 L 373.66 95.36 L 373.69 94.76 L 373.72 94.15 L 373.73 93.48 L 373.74 92.80 L 373.74 92.30 L 373.74 91.79 L 373.74 91.14 L 373.74 90.49 L 373.74 89.99 L 373.74 89.49 L 373.74 88.83 L 373.74 88.18 L 373.74 87.68 L 373.74 87.18 L 373.75 86.58 L 373.75 85.97 L 373.57 85.30 L 373.38 84.62 L 373.34 83.92 L 373.31 83.23 L 373.12 82.38 L 372.93 81.54 L 372.71 80.63 L 372.49 79.73 L 372.26 78.81 L 372.03 77.89 L 371.82 77.01 L 371.60 76.13 L 371.19 75.41 L 370.78 74.68 L 370.50 73.76 L 370.22 72.84 L 369.99 72.12 L 369.75 71.39 L 369.52 70.69 L 369.29 70.00 L 369.05 69.29 L 368.82 68.59 L 368.59 67.71 L 368.36 66.83 L 368.13 66.10 L 367.90 65.38 L 367.66 64.45 L 367.42 63.52 L 367.37 62.60 L 367.32 61.67 L 367.13 60.56 L 366.93 59.45 L 366.89 58.28 L 366.85 57.11 L 366.84 56.14 L 366.83 55.17 L 366.83 54.24 L 366.83 53.31 L 366.83 52.42 L 366.84 51.54 L 366.65 50.81 L 366.47 50.08 L 366.43 49.16 L 366.39 48.23 L 366.38 47.49 L 366.37 46.76 L 366.37 45.87 L 366.37 44.99 L 366.37 44.07 L 366.37 43.16 L 366.37 42.42 L 366.37 41.69 L 366.37 40.80 L 366.37 39.92 L 366.37 39.01 L 366.37 38.09 L 366.37 36.99 L 366.37 35.88 L 366.37 34.97 L 366.38 34.05 L 366.19 33.32 L 366.01 32.58 L 365.97 31.88 L 365.94 31.19 L 365.76 30.55 L 365.59 29.92 L 365.37 29.43 L 365.15 28.93 L 364.93 28.30 L 364.71 27.66 L 364.31 27.00 L 363.90 26.34 L 363.64 25.84 L 363.37 25.34 L 362.94 24.67 L 362.51 24.00 L 362.24 23.31 L 361.97 22.62 L 361.57 21.97 L 361.17 21.32 L 360.55 20.47 L 359.94 19.63 L 359.28 18.92 L 358.61 18.21 L 357.96 17.55 L 357.31 16.88 L 356.52 16.42 L 355.72 15.96 L 354.66 15.69 L 353.60 15.41 L 352.82 15.17 L 352.04 14.92 L 351.37 14.70 L 350.70 14.48 L 350.06 14.44 L 349.42 14.40 L 348.69 14.39 L 347.97 14.37 L 347.27 14.19 L 346.58 14.00 L 345.71 13.96 L 344.84 13.93 L 343.91 13.73 L 342.97 13.54 L 341.86 13.31 L 340.76 13.09 L 339.62 12.86 L 338.48 12.64 L 337.33 12.41 L 336.18 12.18 L 335.05 11.96 L 333.93 11.73 L 332.81 11.69 L 331.69 11.64 L 330.55 11.64 L 329.40 11.63 L 328.46 11.62 L 327.53 11.62 L 326.42 11.80 L 325.31 11.99 L 324.32 12.03 L 323.33 12.06 L 322.03 12.07 L 320.73 12.08 L 319.36 12.08 L 317.99 12.08 L 316.61 12.08 L 315.24 12.08 L 313.67 12.08 L 312.10 12.08 L 310.71 12.08 L 309.32 12.08 L 308.12 12.26 L 306.92 12.45 L 305.92 12.49 L 304.91 12.52 L 303.79 12.53 L 302.67 12.54 L 301.34 12.54 L 300.01 12.54 L 298.63 12.54 L 297.26 12.54 L 295.70 12.54 L 294.13 12.54 L 292.72 12.54 L 291.30 12.54 L 289.91 12.54 L 288.52 12.54 L 287.35 12.54 L 286.17 12.54 L 285.02 12.73 L 283.86 12.90 L 282.52 12.94 L 281.17 12.97 L 279.61 13.17 L 278.06 13.36 L 276.45 13.40 L 274.85 13.43 L 273.24 13.63 L 271.63 13.82 L 270.37 13.86 L 269.11 13.90 L 268.12 13.90 L 267.13 13.91 L 266.19 13.91 L 265.25 13.91 L 263.96 13.92 L 262.67 13.92 L 261.30 13.92 L 259.94 13.92 L 258.38 13.92 L 256.81 13.92 L 255.03 13.92 L 253.24 13.92 L 251.78 13.92 L 250.31 13.92 L 249.10 13.92 L 247.89 13.92 L 246.72 13.92 L 245.56 13.92 L 244.40 13.92 L 243.25 13.92 L 241.73 13.92 L 240.21 13.92 L 238.80 13.92 L 237.39 13.92 L 235.84 13.92 L 234.29 13.91 L 232.90 14.10 L 231.51 14.28 L 230.32 14.49 L 229.13 14.71 L 228.13 14.94 L 227.14 15.18 L 226.35 15.23 L 225.56 15.27 L 224.66 15.28 L 223.77 15.29 L 223.04 15.30 L 222.30 15.30 L 221.24 15.30 L 220.17 15.30 L 219.00 15.30 L 217.83 15.29 L 216.83 15.11 L 215.84 14.92 L 214.71 14.69 L 213.59 14.47 L 212.62 14.24 L 211.66 14.01 L 210.71 13.78 L 209.77 13.54 L 209.02 13.31 L 208.27 13.08 L 207.57 12.84 L 206.86 12.62 L 206.13 12.38 L 205.41 12.13 L 204.71 11.72 L 204.01 11.30 L 203.39 11.06 L 202.78 10.82 L 201.97 10.77 L 201.17 10.73 L 200.36 10.70 L 199.55 10.68 L 198.78 11.15 L 198.00 11.62 L 197.33 12.57 L 196.66 13.51 L 196.34 14.24 L 196.03 14.97 L 195.72 15.57 L 195.42 16.18 L 194.99 16.48 L 194.56 16.78 L 194.32 17.17 L 194.08 17.57 L 193.77 17.91 L 193.46 18.25 L 193.41 18.28 L 193.35 18.32 L 193.28 18.34 L 193.22 18.37 L 193.15 18.38 L 193.08 18.39 L 193.01 18.38 L 192.95 18.38 L 192.88 18.37 L 192.81 18.35 L 192.75 18.32 L 192.69 18.29 L 192.63 18.25 L 192.58 18.21 L 192.53 18.16 L 192.48 18.11 L 192.45 18.05 L 192.41 18.00 L 192.39 17.93 L 192.36 17.87 L 192.35 17.80 L 192.34 17.73 L 192.34 17.66 L 192.35 17.59 L 192.36 17.53 L 192.38 17.46 L 192.41 17.40 L 192.43 17.34 L 192.47 17.28 L 192.52 17.23 L 192.57 17.18 L 205.95 12.06 L 205.95 12.06 L 205.95 12.06 L 201.70 12.14 L 201.74 12.22 L 201.73 12.06 L 201.72 11.90 L 201.32 11.76 L 200.92 11.63 L 200.48 11.62 L 200.04 11.61 L 199.59 11.61 L 199.14 11.60 L 198.43 11.61 L 197.73 11.62 L 197.17 11.81 L 196.62 12.01 L 196.02 12.22 L 195.41 12.43 L 194.79 12.47 L 194.16 12.50 L 193.44 12.51 L 192.73 12.53 L 191.80 12.72 L 190.88 12.91 L 190.18 13.12 L 189.47 13.34 L 188.82 13.38 L 188.18 13.42 L 187.49 13.42 L 186.81 13.43 L 186.31 13.43 L 185.80 13.44 L 185.38 13.44 L 184.96 13.44 L 184.32 13.26 L 183.68 13.08 L 182.96 13.04 L 182.23 13.00 L 181.57 12.99 L 180.92 12.99 L 180.24 12.80 L 179.55 12.63 L 178.82 12.59 L 178.08 12.54 L 177.20 12.54 L 176.31 12.53 L 175.40 12.53 L 174.49 12.53 L 173.57 12.53 L 172.65 12.53 L 171.91 12.53 L 171.17 12.53 L 170.29 12.53 L 169.40 12.53 L 168.86 12.53 L 168.31 12.53 L 167.71 12.53 L 167.11 12.54 L 166.62 12.35 L 166.13 12.17 L 165.42 12.13 L 164.71 12.08 L 164.20 12.08 L 163.69 12.07 L 162.85 12.07 L 162.01 12.07 L 161.29 12.07 L 160.57 12.07 L 159.69 12.07 L 158.81 12.07 L 158.08 12.07 L 157.35 12.07 L 156.46 12.07 L 155.58 12.07 L 154.81 12.07 L 154.03 12.07 L 153.29 12.26 L 152.55 12.46 L 151.67 12.68 L 150.78 12.89 L 150.04 13.12 L 149.30 13.36 L 148.58 13.59 L 147.86 13.83 L 147.40 14.05 L 146.93 14.26 L 146.28 14.31 L 145.64 14.35 L 145.14 14.55 L 144.64 14.74 L 144.23 14.77 L 143.82 14.80 L 143.19 14.81 L 142.56 14.82 L 141.88 14.82 L 141.20 14.82 L 140.29 14.82 L 139.38 14.82 L 138.46 15.01 L 137.54 15.19 L 136.66 15.23 L 135.77 15.26 L 135.08 15.27 L 134.38 15.28 L 133.55 15.11 L 132.72 14.93 L 132.01 14.72 L 131.30 14.50 L 130.56 14.26 L 129.82 14.02 L 129.12 13.98 L 128.42 13.93 L 127.73 13.74 L 127.03 13.54 L 126.34 13.50 L 125.65 13.47 L 125.04 13.30 L 124.43 13.13 L 123.74 12.73 L 123.05 12.33 L 122.10 12.04 L 121.14 11.75 L 120.00 11.69 L 118.85 11.63 L 117.70 11.62 L 116.55 11.61 L 115.22 11.61 L 113.88 11.61 L 112.69 11.60 L 111.50 11.60 L 110.34 11.60 L 109.19 11.60 L 108.22 11.60 L 107.25 11.60 L 106.32 11.60 L 105.39 11.60 L 104.43 11.61 L 103.48 11.61 L 102.37 11.79 L 101.26 11.98 L 100.30 12.01 L 99.34 12.05 L 98.05 12.24 L 96.75 12.43 L 95.41 12.47 L 94.07 12.51 L 92.88 12.51 L 91.69 12.52 L 90.53 12.52 L 89.37 12.52 L 88.22 12.53 L 87.07 12.53 L 86.13 12.53 L 85.20 12.53 L 84.28 12.35 L 83.35 12.16 L 82.42 12.12 L 81.50 12.09 L 80.39 11.90 L 79.28 11.70 L 77.92 11.66 L 76.57 11.62 L 75.19 11.62 L 73.82 11.61 L 72.44 11.61 L 71.05 11.61 L 69.86 11.60 L 68.66 11.60 L 67.68 11.60 L 66.71 11.60 L 65.81 11.61 L 64.91 11.61 L 63.99 11.42 L 63.08 11.24 L 62.12 11.20 L 61.17 11.16 L 60.27 11.16 L 59.37 11.15 L 58.29 10.97 L 57.22 10.79 L 56.05 10.56 L 54.89 10.34 L 53.52 10.29 L 52.16 10.24 L 50.96 10.24 L 49.77 10.23 L 48.61 10.22 L 47.45 10.22 L 46.48 10.22 L 45.51 10.22 L 44.76 10.22 L 44.01 10.22 L 43.13 10.22 L 42.24 10.22 L 41.30 10.22 L 40.36 10.22 L 39.22 10.41 L 38.08 10.60 L 36.93 10.82 L 35.78 11.05 L 34.63 11.27 L 33.48 11.50 L 32.36 11.73 L 31.23 11.96 L 30.26 12.00 L 29.29 12.05 L 28.29 12.26 L 27.28 12.47 L 26.51 12.88 L 25.75 13.30 L 24.99 13.60 L 24.24 13.89 L 23.67 14.55 L 23.10 15.21 L 22.61 15.73 L 22.12 16.24 L 21.62 17.13 L 21.13 18.02 L 20.66 19.13 L 20.19 20.24 L 19.72 21.40 L 19.25 22.57 L 18.97 23.72 L 18.69 24.88 L 18.27 26.02 L 17.85 27.17 L 17.57 28.16 L 17.29 29.15 L 17.05 30.30 L 16.80 31.46 L 16.75 32.45 L 16.70 33.45 L 16.70 34.16 L 16.69 34.88 L 16.50 35.76 L 16.32 36.65 L 16.28 37.78 L 16.24 38.91 L 16.23 40.06 L 16.22 41.21 L 16.22 42.36 L 16.22 43.51 L 16.22 44.69 L 16.22 45.88 L 16.41 46.86 L 16.59 47.83 L 16.63 48.58 L 16.67 49.33 L 16.86 50.22 L 17.05 51.10 L 17.09 52.02 L 17.13 52.95 L 17.32 53.68 L 17.51 54.42 L 17.55 55.29 L 17.59 56.16 L 17.78 57.28 L 17.98 58.41 L 18.20 59.56 L 18.43 60.71 L 18.66 61.68 L 18.89 62.64 L 19.11 63.73 L 19.33 64.81 L 19.38 65.56 L 19.42 66.30 L 19.43 67.00 L 19.44 67.69 L 19.44 68.57 L 19.44 69.45 L 19.44 70.18 L 19.44 70.90 L 19.45 71.94 L 19.45 72.97 L 19.26 73.92 L 19.08 74.86 L 19.04 75.79 L 19.01 76.72 L 18.81 77.83 L 18.62 78.94 L 18.58 80.08 L 18.55 81.21 L 18.35 82.18 L 18.16 83.15 L 18.13 84.24 L 18.09 85.33 L 17.72 86.45 L 17.35 87.56 L 17.10 88.70 L 16.84 89.85 L 16.42 91.00 L 16.00 92.15 L 15.73 93.30 L 15.46 94.45 L 15.04 95.59 L 14.62 96.73 L 14.16 98.29 L 13.70 99.84 L 13.42 101.43 L 13.15 103.02 L 12.73 104.45 L 12.30 105.87 L 12.03 107.28 L 11.76 108.69 L 11.52 110.07 L 11.28 111.46 L 11.05 112.66 L 10.82 113.85 L 10.59 115.21 L 10.35 116.56 L 10.12 118.14 L 9.89 119.73 L 9.84 121.52 L 9.79 123.31 L 9.60 124.96 L 9.41 126.61 L 9.37 128.25 L 9.33 129.88 L 9.32 131.13 L 9.31 132.38 L 9.31 133.55 L 9.31 134.73 L 9.31 136.07 L 9.31 137.41 L 9.31 138.98 L 9.31 140.56 L 9.50 142.19 L 9.68 143.81 L 9.90 145.41 L 10.12 147.00 L 10.16 148.41 L 10.21 149.82 L 10.22 151.02 L 10.22 152.22 L 10.23 153.57 L 10.23 154.91 L 10.23 156.29 L 10.23 157.66 L 10.23 159.04 L 10.23 160.42 L 10.23 161.99 L 10.23 163.56 L 10.23 164.79 L 10.23 166.02 L 10.23 167.19 L 10.23 168.36 L 10.23 169.52 L 10.23 170.67 L 10.23 171.64 L 10.23 172.61 L 10.23 173.75 L 10.23 174.89 L 10.42 176.07 L 10.61 177.24 L 10.83 178.55 L 11.04 179.87 L 11.09 181.06 L 11.13 182.24 L 11.33 183.44 L 11.53 184.63 L 11.75 185.58 L 11.97 186.53 L 12.01 187.45 L 12.05 188.37 L 12.25 189.51 L 12.45 190.65 L 12.67 191.61 L 12.90 192.57 L 13.13 193.68 L 13.35 194.79 L 13.58 195.93 L 13.81 197.08 L 14.04 198.20 L 14.27 199.32 L 14.31 200.47 L 14.36 201.62 L 14.55 202.77 L 14.74 203.92 L 14.78 204.89 L 14.82 205.86 L 15.03 207.03 L 15.23 208.21 L 15.64 209.19 L 16.06 210.17 L 16.31 211.04 L 16.56 211.91 L 16.61 212.82 L 16.66 213.73 L 16.85 214.65 L 17.05 215.57 L 17.08 216.64 L 17.12 217.71 L 17.13 218.84 L 17.14 219.98 L 17.14 220.98 L 17.14 221.98 L 17.33 222.91 L 17.51 223.85 L 17.55 224.92 L 17.58 226.00 L 17.59 226.95 L 17.60 227.90 L 17.60 228.65 L 17.60 229.39 L 17.60 230.46 L 17.60 231.53 L 17.60 232.48 L 17.60 233.43 L 17.60 234.36 L 17.60 235.29 L 17.60 236.06 L 17.60 236.84 L 17.79 237.73 L 17.97 238.62 L 18.01 239.50 L 18.04 240.38 L 18.05 241.29 L 18.06 242.21 L 18.06 243.13 L 18.06 244.05 L 18.06 244.97 L 18.06 245.89 L 18.06 246.81 L 18.06 247.73 L 18.06 248.47 L 18.06 249.21 L 18.06 249.91 L 18.06 250.61 L 18.06 251.48 L 18.06 252.36 L 18.06 253.09 L 18.06 253.82 L 18.06 254.52 L 18.06 255.22 L 18.06 256.09 L 18.06 256.97 L 18.06 257.88 L 18.06 258.79 L 18.06 259.53 L 18.06 260.26 L 18.06 261.15 L 18.06 262.03 L 18.06 262.76 L 18.06 263.49 L 18.06 264.24 L 18.07 264.98 L 18.25 265.69 L 18.44 266.39 L 18.48 266.92 L 18.52 267.45 L 18.73 267.98 L 18.95 268.51 L 19.20 269.02 L 19.44 269.53 L 19.64 269.76 L 19.85 269.98 L 19.87 270.36 L 19.90 270.73 L 20.12 271.24 L 20.33 271.76 L 20.74 272.58 L 21.14 273.40 L 21.41 274.13 L 21.68 274.86 L 22.16 275.64 L 22.63 276.41 L 23.34 276.98 L 24.04 277.54 L 24.63 277.88 L 25.22 278.21 L 26.14 278.28 L 27.07 278.35 L 27.83 278.36 L 28.59 278.37 L 29.70 278.18 L 30.81 278.00 L 31.76 277.77 L 32.72 277.55 L 33.85 277.32 L 34.98 277.09 L 36.15 276.66 L 37.31 276.24 L 38.63 275.80 L 39.94 275.35 L 41.11 275.08 L 42.29 274.81 L 43.20 274.58 L 44.11 274.35 L 44.94 274.48 L 45.76 274.60 L 46.25 274.79 L 46.74 274.98 L 47.41 275.39 L 48.09 275.81 L 48.98 276.08 L 49.87 276.36 L 50.78 276.78 L 51.69 277.20 L 52.65 277.48 L 53.61 277.76 L 54.73 278.00 L 55.85 278.25 L 56.99 278.48 L 58.14 278.71 L 59.31 278.95 L 60.49 279.18 L 61.49 279.23 L 62.49 279.28 L 63.61 279.29 L 64.74 279.30 L 65.51 279.30 L 66.29 279.30 L 67.00 279.30 L 67.71 279.30 L 68.55 279.30 L 69.39 279.30 L 70.25 279.47 L 71.10 279.64 L 72.23 280.05 L 73.35 280.47 L 74.72 280.55 L 76.08 280.64 L 77.46 280.84 L 78.83 281.04 L 80.24 281.08 L 81.64 281.12 L 83.06 281.13 L 84.48 281.14 L 85.55 280.94 L 86.63 280.75 L 87.77 280.34 L 88.90 279.93 L 89.84 279.67 L 90.78 279.41 L 91.88 279.18 L 92.98 278.95 L 94.27 278.72 L 95.57 278.49 L 97.10 278.45 L 98.63 278.40 L 99.85 278.39 L 101.08 278.38 L 102.62 278.38 L 104.15 278.38 L 105.04 278.38 L 105.93 278.38 L 107.08 278.19 L 108.22 277.99 L 109.56 277.58 L 110.91 277.17 L 112.46 276.72 L 114.01 276.27 L 115.59 275.82 L 117.18 275.37 L 118.74 275.10 L 120.31 274.83 L 121.71 274.77 L 123.11 274.72 L 124.31 274.71 L 125.51 274.70 L 126.86 274.70 L 128.21 274.70 L 129.40 274.69 L 130.59 274.69 L 131.93 274.69 L 133.27 274.69 L 134.82 274.69 L 136.36 274.69 L 138.14 274.88 L 139.92 275.06 L 141.77 275.10 L 143.62 275.14 L 145.28 275.14 L 146.94 275.15 L 148.56 275.15 L 150.18 275.15 L 152.00 275.15 L 153.81 275.15 L 155.83 274.97 L 157.85 274.79 L 160.09 274.75 L 162.32 274.71 L 164.03 274.70 L 165.75 274.70 L 167.18 274.88 L 168.60 275.06 L 170.20 275.28 L 171.80 275.50 L 173.43 275.55 L 175.06 275.59 L 176.88 275.60 L 178.69 275.61 L 180.55 275.43 L 182.41 275.24 L 184.08 275.02 L 185.75 274.80 L 187.01 274.57 L 188.27 274.34 L 189.60 274.11 L 190.93 273.88 L 192.10 273.84 L 193.26 273.80 L 194.97 273.79 L 196.67 273.78 L 198.51 273.77 L 200.35 273.77 L 201.99 273.59 L 203.65 273.40 L 205.10 273.36 L 206.54 273.33 L 207.75 273.14 L 208.96 272.94 L 210.10 272.91 L 211.23 272.87 L 212.54 272.86 L 213.85 272.85 L 215.22 273.04 L 216.59 273.22 L 217.97 273.25 L 219.35 273.29 L 220.90 273.48 L 222.44 273.67 L 223.84 273.89 L 225.24 274.11 L 226.23 274.33 L 227.22 274.55 L 228.32 274.96 L 229.42 275.36 L 230.59 275.82 L 231.76 276.28 L 233.12 276.56 L 234.47 276.84 L 236.04 277.27 L 237.60 277.69 L 239.41 277.96 L 241.21 278.24 L 242.69 278.48 L 244.17 278.72 L 245.60 278.77 L 247.03 278.82 L 248.23 278.83 L 249.44 278.84 L 250.60 278.84 L 251.76 278.84 L 252.92 278.84 L 254.07 278.84 L 255.59 278.84 L 257.11 278.84 L 258.52 278.84 L 259.93 278.84 L 261.51 278.84 L 263.08 278.84 L 264.50 278.84 L 265.92 278.84 L 267.12 278.84 L 268.33 278.84 L 269.31 278.84 L 270.29 278.84 L 271.40 278.84 L 272.52 278.84 L 273.67 278.84 L 274.81 278.84 L 276.33 278.84 L 277.85 278.84 L 278.89 278.84 L 279.93 278.84 L 281.27 278.84 L 282.61 278.84 L 283.80 278.65 L 284.99 278.47 L 285.94 278.43 L 286.89 278.40 L 287.82 278.39 L 288.74 278.38 L 289.67 278.38 L 290.59 278.38 L 291.54 278.38 L 292.50 278.38 L 293.46 278.19 L 294.41 278.00 L 295.52 277.78 L 296.62 277.56 L 297.74 277.33 L 298.85 277.11 L 299.99 277.06 L 301.13 277.02 L 302.47 276.82 L 303.80 276.63 L 304.97 276.59 L 306.13 276.56 L 306.95 276.55 L 307.78 276.54 L 308.68 276.35 L 309.58 276.16 L 310.28 276.13 L 310.98 276.09 L 311.85 276.09 L 312.73 276.08 L 313.64 276.08 L 314.55 276.08 L 315.65 276.08 L 316.76 276.08 L 317.90 276.08 L 319.04 276.08 L 320.19 276.08 L 321.34 276.08 L 322.49 276.08 L 323.65 276.08 L 324.80 276.08 L 325.95 276.08 L 326.87 276.07 L 327.80 276.07 L 328.54 276.25 L 329.28 276.44 L 330.17 276.48 L 331.06 276.51 L 331.96 276.70 L 332.85 276.89 L 334.17 277.12 L 335.49 277.34 L 337.06 277.39 L 338.64 277.44 L 340.06 277.45 L 341.48 277.45 L 342.87 277.46 L 344.26 277.46 L 345.28 277.46 L 346.29 277.46 L 347.23 277.46 L 348.17 277.46 L 348.91 277.46 L 349.65 277.46 L 350.39 277.46 L 351.13 277.45 L 352.08 277.26 L 353.02 277.06 L 353.98 276.63 L 354.93 276.21 L 356.23 275.58 L 357.52 274.94 L 358.52 274.44 L 359.51 273.95 L 360.51 273.44 L 361.50 272.94 L 362.29 272.06 L 363.09 271.18 L 364.00 270.05 L 364.92 268.92 L 365.48 267.74 L 366.05 266.56 L 366.54 265.38 L 367.03 264.20 L 367.32 263.21 L 367.61 262.21 L 367.86 261.05 L 368.11 259.89 L 368.16 258.53 L 368.21 257.17 L 368.22 255.97 L 368.23 254.78 L 368.23 253.62 L 368.23 252.46 L 368.23 251.31 L 368.23 250.15 L 368.23 249.03 L 368.23 247.91 L 368.41 246.95 L 368.60 245.99 L 368.63 244.84 L 368.67 243.70 L 368.68 242.55 L 368.69 241.40 L 368.69 240.40 L 368.69 239.40 L 368.50 238.28 L 368.32 237.16 L 368.28 236.05 L 368.25 234.93 L 368.24 233.97 L 368.23 233.01 L 368.23 232.08 L 368.23 231.15 L 368.23 230.23 L 368.23 229.30 L 368.23 228.42 L 368.23 227.53 L 368.41 226.64 L 368.59 225.75 L 368.81 224.65 L 369.03 223.54 L 369.26 222.37 L 369.49 221.21 L 369.54 220.23 L 369.59 219.26 L 369.77 218.18 L 369.96 217.10 L 370.19 216.12 L 370.42 215.13 L 370.46 214.03 L 370.50 212.94 L 370.87 211.82 L 371.24 210.70 L 371.51 209.34 L 371.77 207.99 L 372.00 206.83 L 372.23 205.66 L 372.65 204.51 L 373.06 203.36 L 373.34 202.17 L 373.61 200.99 L 373.85 199.65 L 374.09 198.31 L 374.33 197.10 L 374.56 195.88 L 374.61 194.72 L 374.65 193.56 L 374.85 192.40 L 375.04 191.25 L 375.08 190.29 L 375.12 189.33 L 375.30 188.43 L 375.49 187.53 L 375.72 186.58 L 375.95 185.63 L 375.99 184.48 L 376.04 183.34 L 376.05 182.37 L 376.06 181.41 L 376.06 180.11 L 376.06 178.81 L 376.06 177.42 L 376.06 176.03 L 375.87 174.80 L 375.68 173.57 L 375.47 172.43 L 375.25 171.29 L 375.21 169.98 L 375.16 168.68 L 375.16 167.68 L 375.15 166.68 L 375.14 165.56 L 375.14 164.44 L 375.14 163.29 L 375.14 162.15 L 375.14 161.00 L 375.14 159.85 L 375.14 158.51 L 375.14 157.17 L 375.14 156.01 L 375.14 154.85 L 375.32 153.70 L 375.51 152.55 L 375.55 151.55 L 375.58 150.56 L 375.59 149.80 L 375.60 149.05 L 375.60 148.16 L 375.60 147.27 L 375.60 146.54 L 375.60 145.81 L 375.60 144.93 L 375.60 144.05 L 375.60 143.32 L 375.60 142.59 L 375.60 141.52 L 375.60 140.45 L 375.60 139.47 L 375.60 138.48 L 375.41 137.51 L 375.22 136.55 L 375.00 135.62 L 374.77 134.69 L 374.54 133.77 L 374.32 132.85 L 374.09 131.74 L 373.85 130.63 L 373.63 129.88 L 373.40 129.13 L 373.36 128.29 L 373.32 127.44 L 373.31 126.72 L 373.30 126.00 L 373.30 125.30 L 373.30 124.60 L 373.30 123.91 L 373.30 123.22 L 373.30 122.53 L 373.30 121.84 L 373.30 120.96 L 373.30 120.08 L 373.30 119.17 L 373.30 118.26 L 373.30 117.34 L 373.30 116.42 L 373.30 115.50 L 373.30 114.58 L 373.30 113.66 L 373.30 112.74 L 373.30 112.00 L 373.30 111.26 L 373.30 110.38 L 373.30 109.49 L 373.30 108.76 L 373.30 108.03 L 373.30 107.33 L 373.30 106.63 L 373.30 105.94 L 373.30 105.25 L 373.29 104.62 L 373.29 103.99 L 373.46 103.54 L 373.63 103.08 L 373.86 102.38 L 374.10 101.68 L 374.14 100.80 L 374.19 99.92 L 374.38 99.19 L 374.58 98.46 L 374.61 97.59 L 374.65 96.72 L 374.84 96.18 L 375.03 95.64 L 375.08 94.92 L 375.12 94.20 L 375.13 93.51 L 375.14 92.81 L 375.14 92.30 L 375.14 91.80 L 375.14 91.14 L 375.14 90.49 L 375.14 89.99 L 375.14 89.49 L 375.14 88.83 L 375.14 88.18 L 375.14 87.68 L 375.14 87.18 L 375.14 86.48 L 375.14 85.79 L 374.95 85.09 L 374.76 84.40 L 374.73 83.72 L 374.69 83.04 L 374.50 82.13 L 374.30 81.22 L 374.07 80.31 L 373.85 79.39 L 373.62 78.47 L 373.39 77.55 L 373.15 76.58 L 372.90 75.62 L 372.49 74.87 L 372.07 74.13 L 371.81 73.28 L 371.56 72.42 L 371.32 71.69 L 371.08 70.95 L 370.85 70.25 L 370.61 69.55 L 370.39 68.87 L 370.16 68.19 L 369.93 67.32 L 369.70 66.44 L 369.47 65.72 L 369.24 64.99 L 369.02 64.15 L 368.80 63.31 L 368.75 62.41 L 368.71 61.51 L 368.52 60.41 L 368.32 59.31 L 368.29 58.20 L 368.25 57.08 L 368.24 56.12 L 368.23 55.16 L 368.23 54.23 L 368.23 53.30 L 368.23 52.34 L 368.23 51.37 L 368.04 50.63 L 367.86 49.88 L 367.82 49.04 L 367.79 48.20 L 367.78 47.47 L 367.77 46.75 L 367.77 45.87 L 367.77 44.99 L 367.77 44.07 L 367.77 43.16 L 367.77 42.42 L 367.77 41.69 L 367.77 40.80 L 367.77 39.92 L 367.77 39.01 L 367.77 38.09 L 367.77 36.99 L 367.77 35.88 L 367.77 34.88 L 367.77 33.88 L 367.58 33.13 L 367.39 32.38 L 367.36 31.67 L 367.32 30.96 L 367.11 30.21 L 366.90 29.45 L 366.68 28.94 L 366.45 28.42 L 366.21 27.74 L 365.97 27.07 L 365.55 26.36 L 365.12 25.65 L 364.85 25.14 L 364.58 24.63 L 364.17 24.00 L 363.76 23.36 L 363.49 22.68 L 363.22 22.00 L 362.78 21.27 L 362.33 20.54 L 361.68 19.64 L 361.02 18.74 L 360.32 17.99 L 359.62 17.24 L 358.90 16.51 L 358.17 15.78 L 357.21 15.22 L 356.26 14.67 L 355.12 14.37 L 353.99 14.07 L 353.23 13.83 L 352.47 13.59 L 351.72 13.35 L 350.97 13.11 L 350.22 13.05 L 349.48 13.00 L 348.82 12.99 L 348.16 12.99 L 347.48 12.80 L 346.79 12.63 L 345.90 12.59 L 345.02 12.55 L 344.13 12.36 L 343.25 12.18 L 342.14 11.95 L 341.04 11.73 L 339.89 11.50 L 338.75 11.27 L 337.60 11.04 L 336.45 10.81 L 335.27 10.58 L 334.09 10.34 L 332.91 10.29 L 331.73 10.25 L 330.57 10.24 L 329.41 10.23 L 328.41 10.23 L 327.41 10.23 L 326.29 10.41 L 325.17 10.59 L 324.24 10.63 L 323.30 10.66 L 322.01 10.67 L 320.72 10.68 L 319.36 10.68 L 317.99 10.68 L 316.61 10.68 L 315.24 10.68 L 313.67 10.68 L 312.10 10.68 L 310.66 10.68 L 309.21 10.68 L 308.00 10.87 L 306.79 11.05 L 305.84 11.09 L 304.88 11.13 L 303.77 11.13 L 302.66 11.14 L 301.33 11.14 L 300.01 11.14 L 298.63 11.14 L 297.26 11.14 L 295.70 11.14 L 294.13 11.14 L 292.72 11.14 L 291.30 11.14 L 289.91 11.14 L 288.52 11.14 L 287.29 11.14 L 286.06 11.15 L 284.90 11.33 L 283.73 11.52 L 282.40 11.55 L 281.07 11.59 L 279.51 11.78 L 277.95 11.97 L 276.35 12.01 L 274.75 12.05 L 273.14 12.24 L 271.53 12.43 L 270.30 12.47 L 269.08 12.51 L 268.10 12.51 L 267.12 12.52 L 266.19 12.52 L 265.25 12.52 L 263.96 12.53 L 262.67 12.53 L 261.30 12.53 L 259.94 12.53 L 258.38 12.53 L 256.81 12.53 L 255.03 12.53 L 253.24 12.53 L 251.78 12.53 L 250.31 12.53 L 249.10 12.53 L 247.89 12.53 L 246.72 12.53 L 245.56 12.53 L 244.40 12.53 L 243.25 12.53 L 241.73 12.53 L 240.21 12.53 L 238.80 12.53 L 237.39 12.53 L 235.79 12.53 L 234.20 12.53 L 232.75 12.71 L 231.29 12.89 L 230.07 13.12 L 228.85 13.34 L 227.89 13.57 L 226.93 13.79 L 226.22 13.83 L 225.51 13.88 L 224.64 13.88 L 223.76 13.89 L 223.03 13.90 L 222.30 13.90 L 221.23 13.90 L 220.17 13.90 L 219.07 13.90 L 217.96 13.90 L 217.03 13.72 L 216.10 13.54 L 215.00 13.32 L 213.89 13.10 L 212.94 12.88 L 211.99 12.66 L 211.07 12.43 L 210.15 12.21 L 209.42 11.98 L 208.70 11.75 L 208.00 11.52 L 207.30 11.29 L 206.65 11.08 L 205.99 10.86 L 205.31 10.45 L 204.62 10.04 L 203.85 9.75 L 203.08 9.45 L 202.14 9.39 L 201.22 9.33 L 200.20 9.33 L 199.18 9.33 L 198.12 9.96 L 197.05 10.59 L 196.25 11.71 L 195.44 12.82 L 195.10 13.60 L 194.75 14.39 L 194.56 14.83 L 194.36 15.26 L 193.95 15.54 L 193.55 15.81 L 193.25 16.27 L 192.96 16.73 L 192.74 16.98 L 192.52 17.23 L 192.47 17.28 L 192.43 17.34 L 192.41 17.40 L 192.38 17.46 L 192.36 17.53 L 192.35 17.59 L 192.34 17.66 L 192.34 17.73 L 192.35 17.80 L 192.36 17.87 L 192.39 17.93 L 192.41 18.00 L 192.45 18.05 L 192.48 18.11 L 192.53 18.16 L 192.58 18.21 L 192.63 18.25 L 192.69 18.29 L 192.75 18.32 L 192.81 18.35 L 192.88 18.37 L 192.95 18.38 L 193.01 18.38 L 193.08 18.39 L 193.15 18.38 L 193.22 18.37 L 193.28 18.34 L 193.35 18.32 L 193.41 18.28 L 193.46 18.25 L 193.51 18.20 L 193.56 18.15 L 193.60 18.10 L 193.65 18.04 L 193.67 17.98 L 193.70 17.92 L 193.72 17.85 L 193.73 17.78 L 193.74 17.71 L 193.74 17.64 L 193.73 17.58 L 193.72 17.51 L 193.69 17.45 L 193.67 17.38 L 193.63 17.32 L 193.60 17.26 L 193.55 17.21 L 193.50 17.16 L 193.45 17.12 L 193.39 17.08 L 193.33 17.05 L 193.27 17.03 L 193.20 17.01 L 193.13 16.99 L 193.06 16.99 L 193.00 16.99 L 192.93 17.00 L 192.86 17.01 L 192.80 17.04 L 192.73 17.06 L 192.67 17.10 L 192.62 17.13 Z"/></svg>
