<svg xmlns="http://www.w3.org/2000/svg" viewBox="8.31 8.33 368.75 273.81" width="368.75" height="273.81" xmlns:v="https://vecta.io/nano"><path fill="#1e1e1e" d="M205.947 12.064q0 0-4.22.01.07.01.14.03.06.02.12.05.06.03.12.08.05.04.09.09.05.06.08.12.03.06.05.12.02.07.03.14.01 8.63 0 .12-.01.07-.03.14-.02.06-.05.12-.03.06-.08.12-.04.05-.09.09-.06.05-.12.08-.06.03-.12.05-.07.02-.14.03-4.34.01-.46-.07-.41-.08-.47-.29-.06-.21-.04-.14.02.06-.36.05-.37 0-.82 0-.45-.01-1.03-.01-.58-.01-1.02.16-.44.17-1.14.41-.7.23-1.44.28-.74.05-1.4.06-.67.01-1.49.18-.83.18-1.58.41-.76.23-1.5.27-.75.05-1.45.06-.71.01-1.22.01-.51.01-1.02 0-.52 0-1.18-.19-.66-.18-1.29-.21-.64-.04-1.36-.05-.73-.01-1.43-.19-.7-.19-1.34-.22-.65-.04-1.52-.04-.86-.01-1.77-.01-.91 0-1.83 0-.92 0-1.66 0-.74 0-1.62 0-.89 0-1.43 0-.55 0-1.27-.01-.72-.01-1.23-.19-.51-.19-1.11-.22-.59-.03-1.08-.03-.49-.01-1.33-.01-.83 0-1.55 0-.72 0-1.6 0-.88 0-1.61 0-.73 0-1.62 0-.88 0-1.56-.01-.69 0-1.34.18-.66.17-1.53.39-.87.22-1.58.44-.72.23-1.4.45-.68.23-1.23.47-.55.24-1.21.29-.67.05-1.16.24-.5.19-1.03.24-.53.05-1.19.06-.66.01-1.35.01-.68 0-1.52 0-.84 0-1.74.18-.91.18-1.86.22-.95.04-1.73.05-.78 0-1.72-.19-.94-.19-1.69-.42-.74-.22-1.4-.44-.66-.22-1.35-.26-.68-.05-1.37-.24-.69-.2-1.39-.23-.69-.04-1.46-.26-.77-.21-1.46-.62-.7-.41-1.49-.65-.8-.24-1.84-.29-1.05-.05-2.18-.06-1.14-.01-2.47-.01-1.33 0-2.52-.01-1.19 0-2.35 0-1.15 0-2.12 0-.97 0-1.9 0-.93 0-1.83 0-.89 0-1.99.19-1.1.18-2.06.22-.97.03-2.27.23-1.29.19-2.68.23-1.39.04-2.59.04-1.2.01-2.36.01-1.17 0-2.32.01-1.15 0-2.15-.01-1.01 0-1.94-.18-.94-.19-1.86-.22-.92-.04-2.03-.23-1.1-.19-2.4-.23-1.3-.04-2.66-.04-1.37-.01-2.75-.01-1.38 0-2.57-.01-1.2 0-2.18 0-.97 0-1.94 0-.97 0-1.9-.18-.93-.18-1.82-.21-.89-.04-1.83-.05-.94-.01-2.08-.2-1.14-.19-2.26-.4-1.12-.22-2.42-.26-1.3-.05-2.49-.05-1.18-.01-2.34-.02-1.15 0-2.12 0-.97 0-1.72 0-.75 0-1.63 0-.89 0-1.77 0-.89 0-1.96.18-1.07.18-2.21.4-1.14.22-2.28.45-1.15.22-2.33.45-1.18.23-2.14.28-.97.05-1.82.22-.86.18-1.57.57-.71.4-1.36.63-.64.24-1.09.79-.46.55-.9 1.02-.45.46-.88 1.24-.43.78-.89 1.85-.45 1.07-.9 2.18-.45 1.12-.72 2.26-.28 1.14-.71 2.3-.42 1.16-.68 2.1-.27.95-.5 2.02-.23 1.08-.27 2.01-.05.92-.06 1.69-.01.78-.2 1.67-.18.89-.22 1.95-.03 1.06-.04 2.2-.01 1.13-.01 2.28 0 1.15 0 2.27 0 1.12.18 2.08.18.96.22 1.7.03.74.23 1.63.19.88.23 1.79.03.91.23 1.64.19.74.23 1.64.04.9.23 1.97.18 1.07.4 2.2.23 1.13.45 2.1.23.96.47 2.11.23 1.14.28 1.95.05.81.06 1.53.01.71.01 1.6 0 .88 0 1.61 0 .72 0 1.83 0 1.1-.18 2.05-.19.96-.23 1.88-.03.93-.22 2.03-.2 1.11-.23 2.26-.04 1.14-.24 2.11-.19.97-.23 2.1-.04 1.14-.42 2.31-.39 1.18-.65 2.34-.26 1.15-.68 2.3-.42 1.16-.69 2.31-.27 1.15-.69 2.31-.43 1.17-.87 2.66-.45 1.49-.72 3.08-.28 1.59-.7 3.02-.43 1.43-.69 2.8-.27 1.37-.5 2.75-.24 1.39-.47 2.59-.24 1.19-.47 2.53-.22 1.34-.45 2.87-.23 1.54-.27 3.32-.05 1.78-.24 3.43-.2 1.64-.24 3.24-.03 1.6-.04 2.85-.01 1.24-.01 2.41 0 1.17 0 2.51 0 1.34 0 2.87 0 1.54.18 3.12.18 1.58.4 3.2.23 1.63.27 3.08.05 1.45.06 2.66 0 1.21.01 2.56 0 1.35 0 2.73 0 1.37 0 2.75 0 1.38 0 2.95 0 1.57 0 2.8 0 1.23 0 2.4 0 1.17 0 2.33 0 1.15 0 2.12 0 .97 0 2.06 0 1.08.18 2.2.18 1.11.4 2.47.23 1.36.27 2.54.04 1.19.23 2.32.19 1.13.42 2.12.22.98.27 1.92.05.94.23 2.02.19 1.08.41 2.03.23.95.46 2.07.23 1.12.46 2.27.23 1.14.46 2.32.24 1.18.28 2.33.05 1.16.24 2.31.2 1.15.23 2.12.04.97.22 2.02.18 1.05.58 2 .41.94.69 1.93.28.98.33 1.92.06.93.25 1.86.2.92.24 2.07.04 1.14.05 2.29.01 1.14.01 2.08 0 .93.18 1.85.18.93.22 2.07.04 1.14.05 2.1.01.97.01 1.71 0 .75 0 1.82 0 1.07 0 2.02 0 .95 0 1.88 0 .93 0 1.63 0 .7.18 1.58.18.88.22 1.83.04.95.05 1.87.01.93.01 1.85 0 .93 0 1.85 0 .92 0 1.84 0 .92 0 1.66 0 .74 0 1.44 0 .7 0 1.57 0 .88 0 1.61 0 .73 0 1.43 0 .7 0 1.57 0 .88 0 1.79 0 .91 0 1.65 0 .73 0 1.62 0 .88 0 1.61 0 .73 0 1.39 0 .65.18 1.33.18.68.21 1.17.04.48.21.89.17.41.36.82.2.42.46.75.26.33.32.8.06.47.23.87.17.39.59 1.23.41.83.67 1.54.26.7.62 1.32.37.62.95 1.07.57.45.97.69.4.24 1.15.28.75.04 1.43.05.67.02 1.7-.16 1.02-.18 1.97-.4.94-.21 2.03-.44 1.09-.22 2.22-.63 1.12-.41 2.47-.87 1.36-.45 2.56-.73 1.2-.28 2.24-.53 1.04-.25 2.08-.1 1.04.15 1.66.38.62.24 1.27.65.66.4 1.51.66.85.26 1.76.68.91.42 1.79.68.88.26 1.97.49 1.09.24 2.23.47 1.14.23 2.27.45 1.12.23 2.05.27.94.05 2.05.06 1.1.01 1.88.01.77 0 1.48 0 .71 0 1.62 0 .91 0 1.89.2.97.2 2.05.6 1.08.4 2.37.47 1.29.08 2.66.28 1.36.2 2.72.24 1.36.03 2.7.04 1.35.01 2.3-.16.95-.17 2.06-.57 1.11-.4 2.1-.67.98-.28 2.11-.52 1.13-.24 2.49-.47 1.36-.24 2.95-.29 1.58-.05 2.82-.06 1.24-.01 2.77-.01 1.54 0 2.37 0 .83 0 1.88-.17 1.04-.18 2.34-.58 1.31-.4 2.87-.85 1.55-.45 3.17-.92 1.62-.46 3.28-.74 1.65-.28 3.1-.34 1.46-.06 2.67-.07 1.22-.01 2.57-.01 1.34 0 2.54-.01 1.19 0 2.53 0 1.34 0 2.92 0 1.58 0 3.37.19 1.79.18 3.6.22 1.82.04 3.47.04 1.65.01 3.27.01 1.62 0 3.41 0 1.78.01 3.79-.18 2.02-.18 4.28-.22 2.26-.04 4.03-.04 1.76-.01 3.24.17 1.48.19 3.04.41 1.57.22 3.15.26 1.58.04 3.36.05 1.77.01 3.58-.17 1.81-.18 3.45-.4 1.64-.22 2.89-.44 1.25-.23 2.63-.47 1.38-.23 2.6-.28 1.22-.04 2.94-.05 1.72-.01 3.52-.01 1.8-.01 3.44-.19 1.64-.18 3.07-.22 1.43-.04 2.64-.23 1.21-.19 2.4-.23 1.19-.04 2.55-.05 1.37 0 2.75.18 1.38.18 2.76.22 1.38.04 2.96.23 1.59.19 3.03.42 1.44.22 2.49.46 1.05.24 2.21.66 1.15.42 2.27.87 1.12.44 2.44.71 1.31.27 2.86.69 1.55.42 3.32.69 1.77.26 3.21.5 1.44.23 2.81.28 1.37.05 2.57.06 1.2.01 2.36.01 1.16 0 2.31 0 1.15 0 2.67 0 1.52 0 2.93 0 1.41 0 2.99 0 1.57 0 2.99 0 1.42 0 2.62 0 1.21 0 2.19 0 .98 0 2.09 0 1.12 0 2.27 0 1.14 0 2.66 0 1.52 0 2.56 0 1.04 0 2.33 0 1.28 0 2.46-.18 1.18-.18 2.18-.22 1-.04 1.94-.05.94-.01 1.86-.01.93 0 1.81 0 .89 0 1.78-.18.89-.18 1.99-.4 1.11-.22 2.28-.45 1.17-.23 2.33-.28 1.16-.05 2.49-.24 1.34-.19 2.55-.23 1.21-.04 1.97-.05.77-.01 1.65-.19.89-.19 1.66-.22.76-.04 1.66-.05.89-.01 1.8-.01.92 0 2.02 0 1.11 0 2.25 0 1.14 0 2.29 0 1.15 0 2.3 0 1.16 0 2.31 0 1.15 0 2.16 0 1.01 0 1.76.19.76.18 1.64.22.88.03 1.81.23.94.19 2.2.41 1.26.22 2.78.26 1.51.05 2.92.06 1.42 0 2.8.01 1.39 0 2.41 0 1.01 0 1.95 0 .94 0 1.68 0 .74 0 1.41 0 .66 0 1.47-.17.8-.17 1.68-.56.87-.39 2.15-1.02 1.28-.63 2.27-1.12 1-.5 1.88-.93.88-.43 1.56-1.21.69-.78 1.55-1.83.85-1.05 1.37-2.14.53-1.1.99-2.22.47-1.12.74-2.06.27-.93.5-2.01.24-1.07.28-2.36.05-1.3.06-2.48.01-1.18.01-2.34 0-1.15 0-2.31 0-1.15 0-2.33 0-1.19.19-2.16.18-.98.22-2.06.03-1.08.04-2.22.01-1.14.01-2.08 0-.93-.18-2.04-.18-1.11-.22-2.28-.04-1.17-.05-2.14-.01-.98-.01-1.91 0-.93 0-1.85 0-.93 0-1.88 0-.96.19-1.92.19-.95.41-2.06.23-1.1.45-2.22.22-1.12.27-2.08.04-.96.24-2.1.2-1.15.42-2.09.22-.93.27-2.06.04-1.13.43-2.3.38-1.17.64-2.49.25-1.31.49-2.53.25-1.21.66-2.37.42-1.17.68-2.29.26-1.13.5-2.46.23-1.33.46-2.49.23-1.17.28-2.32.04-1.16.24-2.31.19-1.16.23-2.13.04-.97.24-1.94.19-.96.41-1.86.22-.89.26-1.96.04-1.07.05-2.02.01-.95.01-2.25 0-1.29 0-2.63.01-1.34-.17-2.5-.18-1.16-.41-2.34-.22-1.18-.27-2.55-.05-1.37-.05-2.38-.01-1.01-.02-2.14 0-1.12 0-2.27 0-1.14 0-2.29 0-1.15 0-2.49 0-1.34 0-2.55 0-1.22.19-2.38.18-1.17.22-2.11.03-.95.04-1.69.01-.74.01-1.62 0-.89 0-1.62 0-.73 0-1.61 0-.88 0-1.61 0-.73 0-1.8 0-1.07 0-1.98.01-.92-.17-1.81-.18-.88-.4-1.8-.22-.91-.45-1.84-.23-.93-.46-2.02-.22-1.1-.46-1.9-.24-.8-.29-1.74-.05-.94-.06-1.68-.01-.74-.01-1.44 0-.71 0-1.4 0-.69 0-1.38 0-.69 0-1.57 0-.88 0-1.79 0-.91 0-1.83 0-.92 0-1.84 0-.92 0-1.84 0-.92 0-1.66 0-.74 0-1.62 0-.89 0-1.62 0-.73 0-1.43 0-.7 0-1.39 0-.69 0-1.44.01-.76.21-1.32.2-.56.4-1.16.21-.61.25-1.46.05-.86.24-1.59.19-.72.23-1.62.04-.89.24-1.44.19-.55.22-1.15.03-.61.04-1.28.01-.68.01-1.18 0-.51 0-1.16 0-.65 0-1.15 0-.5 0-1.16 0-.65 0-1.15 0-.5.01-1.1 0-.61-.18-1.28-.19-.68-.23-1.38-.03-.69-.22-1.54-.19-.84-.41-1.75-.22-.9-.45-1.82-.23-.92-.44-1.8-.22-.88-.63-1.6-.41-.73-.69-1.65-.28-.92-.51-1.64-.24-.73-.47-1.43-.23-.69-.47-1.4-.23-.7-.46-1.58-.23-.88-.46-1.61-.23-.72-.47-1.65-.24-.93-.29-1.85-.05-.93-.24-2.04-.2-1.11-.24-2.28-.04-1.17-.05-2.14-.01-.97-.01-1.9 0-.93 0-1.82.01-.88-.18-1.61-.18-.73-.22-1.65-.04-.93-.05-1.67-.01-.73-.01-1.62 0-.88 0-1.8 0-.91 0-1.65 0-.73 0-1.62 0-.88 0-1.79 0-.92 0-2.02 0-1.11 0-2.02.01-.92-.18-1.65-.18-.74-.22-1.44-.03-.69-.21-1.33-.17-.63-.39-1.12-.22-.5-.44-1.13-.22-.64-.62-1.3-.41-.66-.67-1.16-.27-.5-.7-1.17-.43-.67-.7-1.36-.27-.69-.67-1.34-.4-.65-1.02-1.5-.61-.84-1.27-1.55-.67-.71-1.32-1.37-.65-.67-1.44-1.13-.8-.46-1.86-.73-1.06-.28-1.84-.52-.78-.25-1.45-.47-.67-.22-1.31-.26-.64-.04-1.37-.05-.72-.02-1.42-.2-.69-.19-1.56-.23-.87-.03-1.8-.23-.94-.19-2.05-.42-1.1-.22-2.24-.45-1.14-.22-2.29-.45-1.15-.23-2.28-.45-1.12-.23-2.24-.27-1.12-.05-2.26-.05-1.15-.01-2.09-.02-.93 0-2.04.18-1.11.19-2.1.23-.99.03-2.29.04-1.3.01-2.67.01-1.37 0-2.75 0-1.37 0-2.94 0-1.57 0-2.96 0-1.39 0-2.59.18-1.2.19-2.2.23-1.01.03-2.13.04-1.12.01-2.45.01-1.33 0-2.71 0-1.37 0-2.93 0-1.57 0-2.98 0-1.42 0-2.81 0-1.39 0-2.56 0-1.18 0-2.33.19-1.16.17-2.5.21-1.35.03-2.91.23-1.55.19-3.16.23-1.6.03-3.21.23-1.61.19-2.87.23-1.26.04-2.25.04-.99.01-1.93.01-.94 0-2.23.01-1.29 0-2.66 0-1.36 0-2.92 0-1.57 0-3.35 0-1.79 0-3.25 0-1.47 0-2.68 0-1.21 0-2.38 0-1.16 0-2.32 0-1.15 0-2.67 0-1.52 0-2.93 0-1.41 0-2.96 0-1.55-.01-2.94.18-1.39.18-2.58.39-1.19.22-2.19.45-.99.24-1.78.29-.79.04-1.69.05-.89.01-1.62.02-.74 0-1.8 0-1.07 0-2.24 0-1.17-.01-2.17-.19-.99-.19-2.12-.42-1.12-.22-2.09-.45-.96-.23-1.91-.46-.94-.24-1.69-.47-.75-.23-1.45-.47-.71-.22-1.44-.46-.72-.25-1.42-.66-.7-.42-1.32-.66-.61-.24-1.42-.29-.8-.04-1.61-.07-.81-.02-1.58.45-.78.47-1.45 1.42-.67.94-.99 1.67-.31.73-.62 1.33-.3.61-.73.91-.43.3-.67.69-.24.4-.55.74-.31.34-.36.37-.06.04-.13.06-.06.03-.13.04-.07.01-.14 0-.06 0-.13-.01-.07-.02-.13-.05-.06-.03-.12-.07-.05-.04-.1-.09-.05-.05-.08-.11-.04-.05-.06-.12-.03-.06-.04-.13-.01-.07-.01-.14.01-.07.02-.13.02-.07.05-.13.02-.06.06-.12.05-.05.1-.1.05-.05.1-.08.06-.04.13-.06.06-.03.13-.04.07-.01.13-.01.07 0 .14.02.07.02.13.04.06.03.12.07.05.04.1.09.05.05.08.11.04.06.06.13.03.06.04.13.01.06.01.13-.01.07-.02.14-.02.07-.05.13-.02.06-.07.12-.04.05-.09.1-.05.05-.1.08-.06.04-.13.06-.06.03-.13.04-.07.01-.14 0-.06 0-.13-.01-.07-.02-.13-.05-.06-.03-.12-.07-.05-.04-.1-.09-.05-.05-.08-.11-.04-.05-.06-.12-.03-.06-.04-.13-.01-.07-.01-.14.01-.07.02-.13.02-.07.05-.13.02-.06.06-.12.05-.05.27-.3.22-.25.51-.71.3-.46.7-.73.41-.28.61-.71.19-.44.54-1.23.34-.78 1.15-1.89.8-1.12 1.87-1.75 1.06-.63 2.08-.63 1.02 0 1.94.06.94.06 1.71.36.77.29 1.46.7.68.41 1.34.63.65.21 1.35.44.7.23 1.42.46.73.23 1.65.45.92.23 1.87.45.95.22 2.06.44 1.1.22 2.03.4.93.18 2.04.18 1.1 0 2.16 0 1.07 0 1.8 0 .73-.01 1.61-.02.87 0 1.58-.05.71-.04 1.67-.26.96-.23 2.18-.45 1.22-.23 2.68-.41 1.45-.18 3.04-.18 1.6 0 3.01 0 1.41 0 2.93 0 1.52 0 2.67 0 1.16 0 2.32 0 1.17 0 2.38 0 1.21 0 2.68 0 1.46 0 3.25 0 1.78 0 3.35 0 1.56 0 2.92 0 1.37 0 2.66 0 1.29-.01 2.23-.01.93 0 1.91-.01.98 0 2.2-.04 1.23-.04 2.84-.23 1.61-.19 3.21-.23 1.6-.04 3.16-.23 1.56-.19 2.89-.23 1.33-.03 2.5-.22 1.16-.18 2.39-.19 1.23 0 2.62 0 1.39 0 2.81 0 1.41 0 2.98 0 1.56 0 2.93 0 1.38 0 2.7 0 1.33 0 2.44-.01 1.11 0 2.07-.04.95-.04 2.16-.22 1.21-.19 2.66-.19 1.44 0 3.01 0 1.57 0 2.94 0 1.38 0 2.75 0 1.36 0 2.65-.01 1.29-.01 2.23-.04.93-.04 2.05-.22 1.12-.18 2.12-.18 1 0 2.16.01 1.16.01 2.34.05 1.18.05 2.36.29 1.18.23 2.33.46 1.15.23 2.29.46 1.15.23 2.25.45 1.11.23 1.99.41.89.19 1.77.23.89.04 1.58.21.68.19 1.34.19.66.01 1.4.06.75.06 1.5.3.75.24 1.51.48.76.24 1.89.54 1.14.3 2.09.85.96.56 1.69 1.29.72.73 1.42 1.48.7.75 1.36 1.65.65.9 1.1 1.63.44.73.71 1.41.27.68.68 1.32.41.63.68 1.14.27.51.7 1.22.42.71.66 1.38.24.68.47 1.2.22.51.43 1.27.21.75.25 1.46.03.71.22 1.46.19.75.19 1.75 0 1 0 2.11 0 1.1 0 2.02 0 .91 0 1.79 0 .89 0 1.62 0 .74 0 1.65 0 .92 0 1.8 0 .88.01 1.6.01.73.04 1.57.04.84.22 1.59.19.74.19 1.71 0 .96 0 1.89 0 .93.01 1.89.01.96.05 2.08.03 1.11.23 2.21.19 1.1.23 2 .05.9.27 1.74.22.84.45 1.57.23.72.46 1.6.23.87.46 1.55.22.68.46 1.38.23.7.47 1.44.24.73.49 1.59.26.85.68 1.59.41.75.66 1.71.24.97.47 1.89.23.92.45 1.84.23.91.43 1.82.19.91.23 1.59.03.68.22 1.37.19.7.19 1.39 0 .7 0 1.2 0 .5 0 1.15 0 .66 0 1.16 0 .5 0 1.15 0 .66 0 1.16 0 .51-.01 1.21-.01.69-.05 1.41-.05.72-.24 1.26-.19.54-.23 1.41-.03.87-.23 1.6-.19.73-.24 1.61-.04.88-.28 1.58-.23.7-.4 1.16-.17.45-.17 1.08.01.63.01 1.32 0 .69 0 1.39 0 .7 0 1.43 0 .73 0 1.62 0 .88 0 1.62 0 .74 0 1.66 0 .92 0 1.84 0 .92 0 1.84 0 .92 0 1.83 0 .91 0 1.79 0 .88 0 1.57 0 .69 0 1.38 0 .69 0 1.39 0 .7.01 1.42.01.72.05 1.57.04.84.27 1.59.22.75.46 1.86.23 1.11.45 2.03.23.92.46 1.85.22.93.41 1.89.19.97.19 1.96 0 .98 0 2.05 0 1.07 0 1.8 0 .73 0 1.61 0 .88 0 1.61 0 .73 0 1.62 0 .89-.01 1.64-.01.76-.04 1.75-.04 1-.23 2.15-.18 1.15-.18 2.31 0 1.16 0 2.5 0 1.34 0 2.49 0 1.15 0 2.29 0 1.15 0 2.27.01 1.12.02 2.12 0 1 .05 2.3.04 1.31.26 2.45.21 1.14.4 2.37.19 1.23.19 2.62 0 1.39 0 2.69 0 1.3-.01 2.26-.01.97-.06 2.11-.04 1.15-.27 2.1-.23.95-.42 1.85-.18.9-.22 1.86-.04.96-.23 2.11-.2 1.16-.24 2.32-.05 1.16-.28 2.38-.24 1.21-.48 2.55-.24 1.34-.51 2.52-.28 1.19-.69 2.34-.42 1.15-.65 2.32-.23 1.16-.49 2.51-.27 1.36-.64 2.48-.37 1.12-.41 2.21-.04 1.1-.27 2.09-.23.98-.42 2.06-.18 1.08-.23 2.05-.05.98-.28 2.14-.23 1.17-.45 2.28-.22 1.1-.4 1.99-.18.89-.18 1.78 0 .88 0 1.81 0 .92 0 1.85 0 .93.01 1.89.01.96.04 2.08.04 1.11.22 2.23.19 1.12.19 2.12 0 1-.01 2.15-.01 1.15-.05 2.29-.03 1.15-.22 2.11-.18.96-.18 2.08 0 1.12 0 2.28 0 1.15 0 2.31 0 1.16-.01 2.35-.01 1.2-.06 2.56-.05 1.36-.3 2.52-.25 1.16-.54 2.16-.29.99-.78 2.17-.49 1.18-1.06 2.36-.56 1.18-1.48 2.31-.91 1.13-1.71 2.01-.79.88-1.78 1.38-1 .51-1.99 1-1 .5-2.29 1.14-1.3.63-2.25 1.05-.96.43-1.9.63-.95.19-1.69.2-.74 0-1.48 0-.74 0-1.68 0-.94 0-1.95 0-1.02 0-2.41 0-1.39-.01-2.81-.01-1.42-.01-3-.06-1.57-.05-2.89-.27-1.32-.23-2.21-.42-.9-.19-1.79-.22-.89-.04-1.63-.23-.74-.18-1.67-.18-.92.01-2.07.01-1.15 0-2.31 0-1.15 0-2.3 0-1.15 0-2.29 0-1.14 0-2.25 0-1.1 0-2.01 0-.91 0-1.79.01-.87 0-1.57.04-.7.03-1.6.22-.9.19-1.73.2-.82.01-1.98.04-1.17.04-2.5.23-1.34.2-2.48.24-1.14.05-2.25.27-1.12.23-2.22.45-1.11.22-2.06.41-.96.19-1.92.19-.95 0-1.87 0-.93 0-1.85.01-.93.01-1.88.04-.95.04-2.14.22-1.19.19-2.53.19-1.34 0-2.38 0-1.04 0-2.56 0-1.52 0-2.66 0-1.15 0-2.27 0-1.11 0-2.09 0-.98 0-2.19 0-1.2 0-2.62 0-1.42 0-2.99 0-1.58 0-2.99 0-1.41 0-2.93 0-1.52 0-2.67 0-1.16 0-2.32 0-1.16 0-2.37-.01-1.2-.01-2.63-.06-1.43-.05-2.91-.29-1.48-.24-3.28-.52-1.81-.27-3.37-.69-1.57-.43-2.92-.71-1.36-.28-2.53-.74-1.17-.46-2.27-.86-1.1-.41-2.09-.63-.99-.22-2.39-.44-1.4-.22-2.94-.41-1.55-.19-2.93-.23-1.38-.03-2.75-.21-1.37-.19-2.68-.18-1.31.01-2.44.05-1.14.03-2.35.23-1.21.19-2.65.22-1.45.04-3.11.23-1.64.18-3.48.18-1.84.01-3.54.02-1.71.01-2.87.05-1.17.04-2.5.27-1.33.23-2.59.46-1.26.23-2.93.45-1.67.22-3.53.41-1.86.18-3.67.17-1.82-.01-3.45-.05-1.63-.05-3.23-.27-1.6-.22-3.02-.4-1.43-.18-3.15-.18-1.71.01-3.94.05-2.24.04-4.26.22-2.02.18-3.83.18-1.82 0-3.44 0-1.62 0-3.28-.01-1.66 0-3.51-.04-1.85-.04-3.63-.22-1.78-.19-3.32-.19-1.55 0-2.89 0-1.34 0-2.53 0-1.19.01-2.54.01-1.35 0-2.55.01-1.2.01-2.6.06-1.4.06-2.97.33-1.56.27-3.15.72-1.58.45-3.13.9-1.55.45-2.9.86-1.34.41-2.48.61-1.15.19-2.04.19-.89 0-2.42 0-1.54 0-2.77.01-1.22.01-2.75.06-1.53.04-2.83.27-1.29.23-2.39.46-1.1.23-2.04.49-.94.26-2.07.67-1.14.41-2.22.6-1.07.2-2.49.19-1.42-.01-2.82-.05-1.41-.04-2.78-.24-1.38-.2-2.74-.29-1.37-.08-2.49-.5-1.13-.41-1.98-.58-.86-.17-1.7-.17-.84 0-1.55 0-.71 0-1.49 0-.77 0-1.9-.01-1.12-.01-2.12-.06-1-.05-2.18-.28-1.17-.24-2.32-.47-1.14-.23-2.26-.48-1.12-.24-2.08-.52-.96-.28-1.87-.7-.91-.42-1.8-.7-.89-.27-1.57-.69-.67-.41-1.16-.6-.49-.19-1.31-.31-.83-.13-1.74.1-.91.23-2.09.5-1.17.27-2.48.72-1.32.44-2.48.86-1.17.43-2.3.66-1.13.23-2.09.45-.95.23-2.06.41-1.11.19-1.87.18-.76-.01-1.69-.08-.92-.07-1.51-.4-.59-.34-1.29-.9-.71-.57-1.18-1.34-.48-.78-.75-1.51-.27-.73-.67-1.55-.41-.82-.62-1.34-.22-.51-.25-.88-.02-.38-.23-.6-.2-.23-.44-.74-.25-.51-.47-1.04-.21-.53-.25-1.06-.04-.53-.23-1.23-.18-.71-.19-1.45 0-.75 0-1.48 0-.73 0-1.61 0-.89 0-1.62 0-.74 0-1.65 0-.91 0-1.79 0-.87 0-1.57 0-.7 0-1.43 0-.73 0-1.61 0-.87 0-1.57 0-.7 0-1.44 0-.74 0-1.66 0-.92 0-1.84 0-.92 0-1.84 0-.92-.01-1.84-.01-.91-.04-1.79-.04-.88-.22-1.77-.19-.89-.19-1.67 0-.77 0-1.7 0-.93 0-1.88 0-.95 0-2.02 0-1.07 0-1.81 0-.75-.01-1.7-.01-.95-.04-2.03-.04-1.07-.22-2.01-.19-.93-.19-1.93 0-1-.01-2.14-.01-1.13-.05-2.2-.03-1.07-.23-1.99-.19-.92-.24-1.83-.05-.91-.3-1.78-.25-.87-.67-1.85-.41-.98-.61-2.16-.21-1.17-.25-2.14-.04-.97-.23-2.12-.19-1.15-.24-2.3-.04-1.15-.27-2.27-.23-1.12-.46-2.27-.23-1.14-.45-2.25-.23-1.11-.46-2.07-.22-.96-.42-2.1-.2-1.14-.24-2.06-.04-.92-.26-1.87-.22-.95-.42-2.14-.2-1.2-.24-2.38-.05-1.19-.26-2.51-.22-1.31-.41-2.48-.19-1.18-.19-2.32 0-1.14 0-2.11 0-.97 0-2.12 0-1.16 0-2.33 0-1.17 0-2.4 0-1.23 0-2.8 0-1.57 0-2.95 0-1.38 0-2.75 0-1.38 0-2.72-.01-1.35-.01-2.55-.01-1.2-.06-2.61-.04-1.41-.26-3-.22-1.6-.4-3.22-.19-1.63-.19-3.21 0-1.57 0-2.91 0-1.34 0-2.52 0-1.17.01-2.42.01-1.25.05-2.88.04-1.64.23-3.29.19-1.65.24-3.44.05-1.79.28-3.38.23-1.58.47-2.93.23-1.36.46-2.55.23-1.2.47-2.59.24-1.38.51-2.79.27-1.41.7-2.83.42-1.43.69-3.02.28-1.59.74-3.14.46-1.56.88-2.7.42-1.14.69-2.29.27-1.15.69-2.3.42-1.15.68-2.3.25-1.14.62-2.25.37-1.12.41-2.21.03-1.09.22-2.06.2-.97.23-2.1.04-1.14.23-2.25.2-1.11.23-2.04.04-.93.22-1.87.19-.95.19-1.98-.01-1.04-.01-1.76 0-.73 0-1.61 0-.88-.01-1.57-.01-.7-.05-1.44-.05-.75-.27-1.83-.22-1.09-.45-2.05-.23-.97-.46-2.12-.22-1.15-.42-2.28-.19-1.12-.23-1.99-.04-.87-.23-1.61-.19-.73-.23-1.66-.04-.92-.23-1.8-.19-.89-.23-1.64-.04-.75-.22-1.72-.19-.98-.19-2.17 0-1.18 0-2.33 0-1.15.01-2.3.01-1.15.05-2.28.04-1.13.22-2.02.19-.88.2-1.6 0-.71.05-1.71.05-.99.3-2.15.24-1.15.52-2.14.28-.99.7-2.14.42-1.14.7-2.3.28-1.15.75-2.32.47-1.16.94-2.27.47-1.11.96-2 .5-.89.99-1.4.49-.52 1.06-1.18.57-.66 1.32-.95.76-.3 1.52-.72.77-.41 1.78-.62 1-.21 1.97-.26.97-.04 2.1-.27 1.12-.23 2.27-.46 1.15-.22 2.3-.45 1.15-.22 2.29-.41 1.14-.19 2.08-.19.94 0 1.83 0 .88 0 1.63 0 .75 0 1.72 0 .97 0 2.13 0 1.16.01 2.35.02 1.2 0 2.56.05 1.37.05 2.53.27 1.17.23 2.24.41 1.08.18 1.98.19.9 0 1.85.04.96.04 1.87.22.92.19 1.82.19.9-.01 1.87-.01.98 0 2.18 0 1.19.01 2.58.01 1.38 0 2.75.01 1.38 0 2.73.04 1.36.04 2.47.24 1.11.19 2.03.22.93.04 1.86.23.92.18 1.85.18.94 0 2.09 0 1.15-.01 2.31-.01 1.16 0 2.35-.01 1.19 0 2.53-.04 1.34-.04 2.64-.23 1.29-.19 2.25-.23.96-.03 2.07-.22 1.11-.18 2.06-.18.96-.01 1.89-.01.93 0 1.9 0 .97 0 2.12 0 1.16 0 2.35 0 1.19.01 2.53.01 1.33 0 2.48.01 1.15.01 2.3.07 1.14.06 2.1.35.95.29 1.64.69.69.4 1.3.57.61.17 1.3.2.69.04 1.39.24.69.19 1.39.24.7.04 1.44.28.74.24 1.45.46.71.21 1.54.39.83.17 1.53.16.69-.01 1.58-.04.88-.04 1.8-.22.92-.19 1.83-.19.91 0 1.59 0 .68 0 1.31-.01.63-.01 1.04-.04.41-.03.91-.22.5-.2 1.14-.24.65-.05 1.12-.26.46-.22 1.18-.46.72-.23 1.46-.47.74-.23 1.63-.44.88-.22 1.62-.42.74-.19 1.52-.19.77 0 1.65 0 .89 0 1.62 0 .73 0 1.61 0 .88 0 1.6 0 .72 0 1.56 0 .84 0 1.35.01.51 0 1.22.05.71.04 1.2.22.49.19 1.09.18.6 0 1.15 0 .54 0 1.43 0 .88 0 1.62 0 .74 0 1.66 0 .92 0 1.83 0 .91 0 1.8.01.88 0 1.62.05.73.04 1.42.21.68.19 1.33.19.66.01 1.39.05.72.04 1.36.22.64.18 1.06.18.42 0 .93-.01.5 0 1.18-.01.69 0 1.33-.04.65-.04 1.36-.26.7-.21 1.62-.4.93-.19 1.64-.21.72-.01 1.35-.04.62-.04 1.23-.25.6-.21 1.15-.41.56-.19 1.26-.2.71-.01 1.16 0 .45 0 .89.01.44.01.84.14.4.14.41.3.01.16-.03.08 4.25-.08 4.25-.08h0z"/></svg>