<svg preserveAspectRatio="none" xmlns="http://www.w3.org/2000/svg" viewBox="8.31 8.31 169.96 50.91"><path fill="#000" d="M 92.41 9.84 L 92.41 9.84 L 92.43 9.77 L 92.45 9.71 L 92.49 9.65 L 92.52 9.59 L 92.57 9.54 L 92.61 9.49 L 92.67 9.45 L 92.72 9.40 L 92.79 9.38 L 92.85 9.35 L 92.92 9.33 L 92.98 9.31 L 93.05 9.31 L 93.11 9.31 L 93.18 9.32 L 93.24 9.33 L 93.31 9.35 L 93.37 9.37 L 93.43 9.41 L 93.49 9.44 L 93.54 9.49 L 93.59 9.53 L 93.63 9.59 L 93.68 9.64 L 93.70 9.71 L 93.73 9.77 L 93.75 9.84 L 93.77 9.90 L 93.77 9.97 L 93.77 10.03 L 93.76 10.10 L 93.75 10.16 L 93.59 10.83 L 93.42 11.49 L 93.33 11.65 L 93.25 11.81 L 93.09 11.90 L 92.94 11.99 L 92.76 11.99 L 92.58 11.99 L 92.42 11.90 L 92.26 11.81 L 92.33 11.85 L 92.41 11.89 L 92.25 11.89 L 92.09 11.89 L 91.87 11.72 L 91.65 11.54 L 91.56 11.54 L 91.47 11.54 L 91.18 11.53 L 90.88 11.52 L 90.37 11.67 L 89.86 11.82 L 89.24 12.02 L 88.63 12.22 L 87.80 12.44 L 86.97 12.65 L 85.94 12.70 L 84.91 12.74 L 83.88 12.75 L 82.85 12.76 L 81.68 12.76 L 80.51 12.76 L 79.48 12.92 L 78.44 13.08 L 77.39 13.28 L 76.33 13.48 L 75.43 13.53 L 74.53 13.57 L 73.72 13.57 L 72.91 13.58 L 72.09 13.75 L 71.26 13.91 L 70.44 13.95 L 69.61 13.98 L 68.78 14.15 L 67.96 14.32 L 66.93 14.36 L 65.90 14.40 L 65.04 14.40 L 64.17 14.41 L 63.30 14.41 L 62.43 14.41 L 61.56 14.24 L 60.70 14.07 L 59.89 13.87 L 59.09 13.68 L 58.31 13.64 L 57.52 13.61 L 56.70 13.60 L 55.88 13.59 L 55.01 13.59 L 54.15 13.58 L 53.48 13.42 L 52.81 13.25 L 52.06 13.22 L 51.31 13.19 L 50.33 13.18 L 49.35 13.18 L 48.49 13.18 L 47.63 13.18 L 46.44 13.17 L 45.25 13.17 L 44.16 13.00 L 43.07 12.83 L 42.05 12.64 L 41.03 12.44 L 40.19 12.41 L 39.35 12.37 L 38.69 12.36 L 38.03 12.35 L 37.45 12.35 L 36.86 12.34 L 36.29 12.50 L 35.73 12.65 L 35.13 12.84 L 34.54 13.03 L 34.09 13.23 L 33.64 13.44 L 33.06 13.64 L 32.47 13.85 L 31.70 14.22 L 30.92 14.59 L 30.27 14.83 L 29.61 15.07 L 29.11 15.30 L 28.61 15.52 L 28.11 15.58 L 27.62 15.63 L 27.02 15.64 L 26.42 15.65 L 25.97 15.65 L 25.52 15.65 L 24.94 15.65 L 24.35 15.65 L 23.90 15.65 L 23.46 15.65 L 22.87 15.65 L 22.29 15.65 L 21.90 15.65 L 21.52 15.64 L 21.11 15.81 L 20.71 15.97 L 20.33 15.99 L 19.95 16.01 L 19.81 16.13 L 19.66 16.24 L 19.37 16.49 L 19.08 16.73 L 18.69 16.78 L 18.30 16.83 L 18.07 17.00 L 17.83 17.17 L 17.59 17.21 L 17.34 17.26 L 17.10 17.36 L 16.85 17.47 L 16.66 17.78 L 16.46 18.10 L 16.09 18.50 L 15.72 18.89 L 15.50 19.26 L 15.29 19.63 L 15.09 20.02 L 14.89 20.40 L 14.68 20.97 L 14.48 21.54 L 14.27 21.99 L 14.06 22.44 L 13.86 23.00 L 13.66 23.57 L 13.46 24.17 L 13.26 24.77 L 13.06 25.51 L 12.87 26.25 L 12.83 26.90 L 12.78 27.56 L 12.60 28.23 L 12.42 28.90 L 12.21 29.53 L 12.01 30.15 L 11.81 30.77 L 11.61 31.38 L 11.41 32.12 L 11.21 32.86 L 11.17 33.67 L 11.13 34.48 L 10.96 35.30 L 10.79 36.13 L 10.75 36.75 L 10.72 37.38 L 10.72 37.84 L 10.71 38.29 L 10.70 38.64 L 10.69 39.00 L 10.84 39.34 L 10.98 39.68 L 11.17 40.08 L 11.36 40.48 L 11.58 40.91 L 11.79 41.34 L 12.00 41.92 L 12.20 42.51 L 12.42 42.98 L 12.64 43.46 L 12.64 43.62 L 12.64 43.79 L 12.93 43.95 L 13.23 44.11 L 13.52 44.56 L 13.80 45.01 L 14.02 45.43 L 14.24 45.85 L 14.40 46.18 L 14.56 46.52 L 14.88 46.73 L 15.21 46.93 L 15.47 47.17 L 15.74 47.40 L 15.99 47.65 L 16.24 47.90 L 16.46 48.28 L 16.67 48.66 L 17.05 49.09 L 17.44 49.51 L 17.66 50.06 L 17.88 50.61 L 18.24 50.87 L 18.60 51.13 L 18.86 51.54 L 19.12 51.95 L 19.47 52.33 L 19.83 52.71 L 20.23 53.11 L 20.63 53.52 L 20.99 53.89 L 21.35 54.26 L 21.82 54.46 L 22.28 54.66 L 22.83 54.70 L 23.37 54.74 L 24.11 54.75 L 24.85 54.76 L 25.81 54.60 L 26.76 54.44 L 27.95 54.24 L 29.14 54.04 L 30.36 53.84 L 31.59 53.63 L 32.68 53.43 L 33.78 53.22 L 34.82 53.17 L 35.86 53.13 L 36.73 52.96 L 37.60 52.79 L 38.63 52.75 L 39.66 52.71 L 40.53 52.71 L 41.40 52.70 L 42.23 52.70 L 43.07 52.70 L 44.06 52.70 L 45.06 52.69 L 46.11 52.70 L 47.16 52.70 L 48.20 52.86 L 49.24 53.03 L 50.28 53.06 L 51.32 53.10 L 52.23 53.28 L 53.14 53.46 L 53.82 53.66 L 54.50 53.86 L 55.30 54.07 L 56.09 54.27 L 56.75 54.48 L 57.40 54.69 L 58.15 54.88 L 58.90 55.08 L 59.84 55.12 L 60.78 55.15 L 61.97 55.16 L 63.15 55.17 L 64.38 55.17 L 65.60 55.17 L 66.84 55.17 L 68.08 55.17 L 69.32 55.17 L 70.56 55.17 L 71.47 55.17 L 72.38 55.17 L 73.39 55.17 L 74.39 55.17 L 75.22 55.18 L 76.05 55.18 L 76.86 55.02 L 77.66 54.86 L 78.82 54.66 L 79.98 54.46 L 81.04 54.25 L 82.10 54.05 L 83.33 53.84 L 84.56 53.63 L 85.63 53.59 L 86.69 53.55 L 87.73 53.37 L 88.77 53.20 L 89.67 53.16 L 90.57 53.13 L 91.24 53.12 L 91.92 53.11 L 92.55 53.11 L 93.17 53.11 L 93.63 53.11 L 94.09 53.11 L 94.67 53.11 L 95.26 53.11 L 95.87 53.11 L 96.49 53.11 L 97.11 53.11 L 97.73 53.11 L 98.35 53.11 L 98.97 53.11 L 99.59 53.11 L 100.20 53.11 L 100.82 53.11 L 101.44 53.11 L 102.06 53.11 L 102.68 53.11 L 103.47 53.11 L 104.26 53.11 L 105.07 53.11 L 105.89 53.11 L 106.55 53.11 L 107.21 53.11 L 107.84 53.11 L 108.47 53.11 L 109.09 53.11 L 109.71 53.11 L 110.33 53.11 L 110.95 53.11 L 111.57 53.11 L 112.19 53.11 L 112.81 53.11 L 113.43 53.11 L 114.22 53.11 L 115.00 53.11 L 115.85 53.11 L 116.70 53.11 L 117.72 53.28 L 118.74 53.45 L 119.77 53.65 L 120.80 53.85 L 121.84 54.05 L 122.87 54.26 L 123.91 54.47 L 124.95 54.67 L 125.82 54.88 L 126.70 55.09 L 127.54 55.30 L 128.37 55.51 L 129.17 55.71 L 129.96 55.91 L 130.78 55.95 L 131.60 55.99 L 132.43 56.16 L 133.25 56.33 L 134.05 56.37 L 134.84 56.40 L 135.86 56.41 L 136.87 56.41 L 137.74 56.58 L 138.60 56.75 L 139.57 56.78 L 140.54 56.81 L 141.39 56.82 L 142.25 56.82 L 143.04 56.83 L 143.83 56.83 L 144.42 56.68 L 145.01 56.53 L 145.46 56.34 L 145.91 56.15 L 146.49 55.94 L 147.08 55.74 L 147.53 55.54 L 147.97 55.33 L 148.56 55.12 L 149.14 54.92 L 149.92 54.55 L 150.69 54.18 L 151.36 53.93 L 152.03 53.68 L 152.71 53.45 L 153.38 53.23 L 154.06 53.18 L 154.73 53.13 L 155.20 53.12 L 155.67 53.11 L 156.21 53.11 L 156.75 53.11 L 157.29 52.97 L 157.83 52.82 L 158.57 52.48 L 159.31 52.13 L 159.97 51.73 L 160.63 51.32 L 161.33 51.04 L 162.03 50.77 L 162.49 50.72 L 162.94 50.67 L 163.37 50.50 L 163.79 50.32 L 164.21 50.29 L 164.62 50.25 L 164.93 50.12 L 165.24 49.99 L 165.64 49.64 L 166.03 49.29 L 166.48 49.03 L 166.93 48.77 L 167.37 48.54 L 167.81 48.31 L 168.40 48.10 L 168.99 47.89 L 169.41 47.69 L 169.84 47.49 L 170.28 47.28 L 170.71 47.07 L 171.30 46.86 L 171.88 46.65 L 172.29 46.46 L 172.70 46.27 L 173.24 45.93 L 173.78 45.58 L 174.18 45.22 L 174.58 44.86 L 174.96 44.35 L 175.33 43.84 L 175.55 43.32 L 175.76 42.80 L 175.80 42.08 L 175.84 41.36 L 175.85 40.55 L 175.86 39.75 L 175.86 38.92 L 175.87 38.10 L 175.87 37.11 L 175.87 36.12 L 175.87 35.30 L 175.87 34.48 L 175.71 33.82 L 175.54 33.16 L 175.51 32.50 L 175.47 31.83 L 175.46 31.36 L 175.46 30.90 L 175.46 30.31 L 175.45 29.72 L 175.45 29.10 L 175.45 28.49 L 175.45 27.87 L 175.45 27.25 L 175.45 26.63 L 175.45 26.01 L 175.46 25.45 L 175.46 24.89 L 175.32 24.51 L 175.18 24.13 L 174.99 23.73 L 174.80 23.32 L 174.59 22.91 L 174.39 22.50 L 174.01 21.74 L 173.63 20.98 L 173.39 20.33 L 173.15 19.68 L 172.96 19.28 L 172.78 18.87 L 172.44 18.50 L 172.11 18.12 L 171.71 17.71 L 171.31 17.31 L 170.90 16.89 L 170.49 16.48 L 170.08 16.07 L 169.67 15.66 L 169.25 15.24 L 168.84 14.83 L 168.43 14.42 L 168.01 14.00 L 167.63 13.62 L 167.25 13.23 L 166.88 13.01 L 166.51 12.80 L 166.09 12.58 L 165.68 12.36 L 165.10 11.99 L 164.51 11.61 L 164.08 11.38 L 163.65 11.15 L 163.30 10.96 L 162.95 10.78 L 162.45 10.75 L 161.95 10.72 L 161.38 10.71 L 160.82 10.70 L 160.05 10.86 L 159.28 11.02 L 158.81 11.05 L 158.33 11.08 L 157.74 11.25 L 157.14 11.43 L 156.35 11.46 L 155.57 11.50 L 154.92 11.67 L 154.27 11.84 L 153.64 11.88 L 153.00 11.91 L 152.22 12.08 L 151.43 12.26 L 150.91 12.29 L 150.39 12.33 L 149.78 12.34 L 149.18 12.34 L 148.56 12.35 L 147.94 12.35 L 147.26 12.34 L 146.58 12.34 L 146.12 12.17 L 145.65 12.00 L 145.13 11.98 L 144.60 11.95 L 143.83 11.94 L 143.06 11.94 L 142.41 11.94 L 141.76 11.94 L 140.80 11.94 L 139.85 11.94 L 138.83 11.94 L 137.81 11.94 L 136.78 11.94 L 135.75 11.93 L 134.72 11.93 L 133.68 11.93 L 132.82 11.93 L 131.95 11.93 L 131.28 11.93 L 130.61 11.93 L 129.98 11.93 L 129.35 11.93 L 128.56 11.93 L 127.77 11.93 L 127.12 11.93 L 126.47 11.93 L 125.52 11.93 L 124.58 11.93 L 122.26 12.10 L 119.94 12.26 L 118.31 12.46 L 116.67 12.66 L 115.00 12.70 L 113.34 12.74 L 112.03 12.75 L 110.73 12.76 L 109.52 12.92 L 108.31 13.08 L 107.11 13.43 L 105.90 13.78 L 104.83 14.19 L 103.75 14.59 L 102.82 14.85 L 101.90 15.11 L 101.01 15.16 L 100.13 15.22 L 99.40 15.22 L 98.67 15.23 L 98.19 15.06 L 97.71 14.89 L 97.29 14.86 L 96.88 14.83 L 96.30 14.66 L 95.72 14.49 L 95.25 14.45 L 94.79 14.41 L 94.37 14.24 L 93.96 14.07 L 93.38 14.04 L 92.81 14.00 L 92.36 13.83 L 91.91 13.66 L 91.55 13.63 L 91.19 13.60 L 90.79 13.60 L 90.39 13.59 L 89.98 13.59 L 89.57 13.59 L 89.32 13.59 L 89.08 13.59 L 88.86 13.59 L 88.65 13.59 L 88.44 13.59 L 88.23 13.59 L 87.81 13.51 L 87.38 13.44 L 87.24 12.85 L 87.10 12.26 L 89.47 11.04 L 91.84 9.84 L 91.91 9.83 L 91.98 9.82 L 92.05 9.82 L 92.11 9.82 L 92.18 9.84 L 92.25 9.86 L 92.31 9.89 L 92.37 9.92 L 92.43 9.96 L 92.48 10.00 L 92.53 10.04 L 92.57 10.09 L 92.61 10.15 L 92.65 10.21 L 92.67 10.27 L 92.69 10.33 L 92.70 10.40 L 92.71 10.47 L 92.71 10.54 L 92.71 10.61 L 92.69 10.67 L 92.67 10.74 L 92.65 10.80 L 92.62 10.86 L 92.58 10.92 L 92.54 10.98 L 92.48 11.02 L 92.43 11.07 L 92.38 11.10 L 92.32 11.14 L 92.25 11.16 L 92.19 11.19 L 92.12 11.20 L 92.05 11.21 L 92.41 9.84 L 92.41 9.84 L 92.41 9.84 L 92.24 10.49 L 92.08 11.15 L 92.32 10.90 L 92.57 10.64 L 92.41 11.23 L 92.26 11.81 L 92.42 11.90 L 92.58 11.99 L 92.76 11.99 L 92.94 11.99 L 93.09 11.90 L 93.25 11.81 L 92.91 11.22 L 92.57 10.64 L 92.91 10.73 L 93.24 10.82 L 93.10 10.72 L 92.97 10.61 L 92.78 10.60 L 92.60 10.58 L 92.42 10.43 L 92.24 10.27 L 91.92 10.20 L 91.60 10.14 L 91.15 10.14 L 90.70 10.13 L 90.07 10.31 L 89.45 10.48 L 88.84 10.68 L 88.23 10.88 L 87.50 11.07 L 86.76 11.27 L 85.82 11.30 L 84.88 11.34 L 83.86 11.35 L 82.85 11.36 L 81.62 11.36 L 80.40 11.36 L 79.30 11.53 L 78.21 11.70 L 77.18 11.90 L 76.16 12.09 L 75.33 12.13 L 74.49 12.17 L 73.63 12.18 L 72.76 12.19 L 71.93 12.36 L 71.10 12.52 L 70.27 12.56 L 69.44 12.59 L 68.61 12.76 L 67.79 12.93 L 66.83 12.97 L 65.87 13.00 L 65.02 13.00 L 64.17 13.01 L 63.37 13.01 L 62.57 13.02 L 61.78 12.86 L 61.00 12.70 L 60.14 12.50 L 59.29 12.29 L 58.42 12.25 L 57.56 12.21 L 56.72 12.20 L 55.89 12.19 L 55.10 12.19 L 54.32 12.19 L 53.66 12.03 L 53.01 11.87 L 52.17 11.83 L 51.34 11.79 L 50.35 11.79 L 49.35 11.78 L 48.49 11.78 L 47.64 11.78 L 46.50 11.78 L 45.36 11.78 L 44.33 11.62 L 43.31 11.45 L 42.25 11.25 L 41.19 11.05 L 40.29 11.01 L 39.39 10.97 L 38.72 10.96 L 38.04 10.95 L 37.36 10.95 L 36.68 10.95 L 36.01 11.13 L 35.33 11.31 L 34.69 11.51 L 34.04 11.72 L 33.58 11.93 L 33.12 12.14 L 32.53 12.34 L 31.94 12.55 L 31.16 12.92 L 30.38 13.30 L 29.73 13.54 L 29.08 13.78 L 28.66 13.97 L 28.24 14.17 L 27.89 14.20 L 27.54 14.23 L 26.97 14.24 L 26.41 14.25 L 25.97 14.25 L 25.52 14.25 L 24.94 14.25 L 24.35 14.25 L 23.90 14.25 L 23.46 14.25 L 22.87 14.25 L 22.29 14.25 L 21.77 14.26 L 21.26 14.27 L 20.83 14.44 L 20.39 14.60 L 19.94 14.65 L 19.48 14.69 L 19.13 14.92 L 18.78 15.15 L 18.64 15.30 L 18.50 15.46 L 18.15 15.49 L 17.80 15.52 L 17.55 15.70 L 17.30 15.88 L 17.12 15.90 L 16.93 15.92 L 16.44 16.16 L 15.94 16.40 L 15.65 16.82 L 15.36 17.23 L 14.98 17.64 L 14.59 18.05 L 14.33 18.51 L 14.06 18.96 L 13.83 19.40 L 13.60 19.84 L 13.39 20.43 L 13.18 21.01 L 12.97 21.46 L 12.77 21.91 L 12.55 22.51 L 12.34 23.11 L 12.13 23.74 L 11.92 24.37 L 11.70 25.20 L 11.48 26.02 L 11.44 26.67 L 11.40 27.33 L 11.24 27.91 L 11.08 28.49 L 10.88 29.11 L 10.68 29.72 L 10.47 30.35 L 10.26 30.98 L 10.05 31.81 L 9.83 32.64 L 9.79 33.47 L 9.75 34.30 L 9.57 35.12 L 9.40 35.94 L 9.36 36.64 L 9.32 37.33 L 9.32 37.81 L 9.31 38.28 L 9.31 38.77 L 9.32 39.26 L 9.51 39.75 L 9.70 40.24 L 9.90 40.67 L 10.10 41.09 L 10.30 41.49 L 10.50 41.89 L 10.70 42.46 L 10.91 43.04 L 11.10 43.45 L 11.30 43.87 L 11.38 44.21 L 11.47 44.56 L 11.85 44.83 L 12.23 45.10 L 12.41 45.40 L 12.59 45.70 L 12.79 46.09 L 13.00 46.49 L 13.25 46.97 L 13.51 47.45 L 13.93 47.75 L 14.35 48.04 L 14.57 48.23 L 14.78 48.43 L 14.96 48.59 L 15.13 48.76 L 15.33 49.12 L 15.53 49.49 L 15.90 49.87 L 16.26 50.26 L 16.52 50.87 L 16.77 51.47 L 17.17 51.77 L 17.57 52.08 L 17.79 52.44 L 18.01 52.80 L 18.41 53.24 L 18.82 53.67 L 19.23 54.09 L 19.64 54.51 L 20.10 54.96 L 20.57 55.42 L 21.26 55.72 L 21.95 56.02 L 22.63 56.08 L 23.31 56.14 L 24.13 56.14 L 24.96 56.15 L 25.97 55.99 L 26.99 55.82 L 28.18 55.62 L 29.37 55.42 L 30.60 55.22 L 31.83 55.01 L 32.89 54.81 L 33.94 54.61 L 34.98 54.57 L 36.02 54.52 L 36.89 54.35 L 37.76 54.18 L 38.73 54.14 L 39.69 54.11 L 40.55 54.10 L 41.40 54.10 L 42.24 54.10 L 43.07 54.10 L 44.06 54.10 L 45.06 54.09 L 46.05 54.09 L 47.05 54.09 L 48.08 54.26 L 49.10 54.42 L 50.13 54.45 L 51.16 54.49 L 51.98 54.65 L 52.80 54.81 L 53.46 55.01 L 54.12 55.21 L 54.92 55.41 L 55.71 55.62 L 56.36 55.82 L 57.02 56.03 L 57.85 56.25 L 58.69 56.46 L 59.72 56.51 L 60.75 56.55 L 61.95 56.56 L 63.14 56.57 L 64.37 56.57 L 65.60 56.57 L 66.84 56.57 L 68.08 56.57 L 69.32 56.57 L 70.56 56.57 L 71.47 56.57 L 72.38 56.57 L 73.39 56.57 L 74.39 56.57 L 75.29 56.57 L 76.19 56.57 L 77.05 56.40 L 77.92 56.23 L 79.07 56.03 L 80.23 55.84 L 81.29 55.63 L 82.35 55.43 L 83.53 55.22 L 84.70 55.02 L 85.77 54.98 L 86.84 54.94 L 87.88 54.76 L 88.92 54.59 L 89.76 54.56 L 90.60 54.53 L 91.26 54.52 L 91.93 54.51 L 92.56 54.51 L 93.17 54.51 L 93.63 54.51 L 94.09 54.51 L 94.67 54.51 L 95.26 54.51 L 95.87 54.51 L 96.49 54.51 L 97.11 54.51 L 97.73 54.51 L 98.35 54.51 L 98.97 54.51 L 99.59 54.51 L 100.20 54.51 L 100.82 54.51 L 101.44 54.51 L 102.06 54.51 L 102.68 54.51 L 103.47 54.51 L 104.26 54.51 L 105.07 54.51 L 105.89 54.51 L 106.55 54.51 L 107.21 54.51 L 107.84 54.51 L 108.47 54.51 L 109.09 54.51 L 109.71 54.51 L 110.33 54.51 L 110.95 54.51 L 111.57 54.51 L 112.19 54.51 L 112.81 54.51 L 113.43 54.51 L 114.22 54.51 L 115.00 54.51 L 115.79 54.51 L 116.58 54.51 L 117.54 54.67 L 118.50 54.83 L 119.51 55.02 L 120.53 55.22 L 121.56 55.43 L 122.60 55.63 L 123.62 55.84 L 124.65 56.04 L 125.51 56.25 L 126.37 56.45 L 127.20 56.66 L 128.04 56.86 L 128.90 57.08 L 129.76 57.29 L 130.59 57.33 L 131.42 57.37 L 132.25 57.55 L 133.08 57.72 L 133.94 57.76 L 134.80 57.80 L 135.77 57.80 L 136.74 57.81 L 137.59 57.97 L 138.45 58.14 L 139.48 58.18 L 140.51 58.21 L 141.37 58.22 L 142.24 58.22 L 143.12 58.22 L 144.00 58.22 L 144.73 58.04 L 145.46 57.86 L 145.94 57.66 L 146.42 57.45 L 147.01 57.25 L 147.60 57.04 L 148.05 56.83 L 148.50 56.63 L 149.09 56.42 L 149.68 56.21 L 150.46 55.84 L 151.24 55.47 L 151.87 55.23 L 152.50 55.00 L 153.08 54.80 L 153.66 54.60 L 154.23 54.56 L 154.79 54.53 L 155.24 54.52 L 155.68 54.51 L 156.31 54.51 L 156.94 54.50 L 157.63 54.32 L 158.31 54.14 L 159.14 53.75 L 159.97 53.37 L 160.62 52.97 L 161.26 52.57 L 161.81 52.35 L 162.37 52.13 L 162.83 52.08 L 163.29 52.03 L 163.70 51.86 L 164.12 51.68 L 164.54 51.65 L 164.95 51.61 L 165.47 51.40 L 165.99 51.18 L 166.42 50.80 L 166.85 50.43 L 167.23 50.21 L 167.60 49.99 L 167.99 49.80 L 168.37 49.60 L 168.95 49.39 L 169.52 49.19 L 169.98 48.97 L 170.45 48.76 L 170.85 48.56 L 171.26 48.36 L 171.83 48.15 L 172.41 47.95 L 172.89 47.72 L 173.37 47.50 L 174.00 47.10 L 174.63 46.70 L 175.13 46.25 L 175.62 45.80 L 176.09 45.16 L 176.56 44.52 L 176.84 43.81 L 177.13 43.11 L 177.18 42.26 L 177.24 41.41 L 177.25 40.58 L 177.26 39.76 L 177.26 38.93 L 177.27 38.10 L 177.27 37.11 L 177.27 36.12 L 177.26 35.22 L 177.26 34.31 L 177.10 33.64 L 176.93 32.96 L 176.90 32.37 L 176.87 31.78 L 176.86 31.33 L 176.86 30.88 L 176.86 30.30 L 176.85 29.71 L 176.85 29.10 L 176.85 28.49 L 176.85 27.87 L 176.85 27.25 L 176.85 26.63 L 176.85 26.01 L 176.85 25.33 L 176.84 24.65 L 176.66 24.12 L 176.47 23.59 L 176.26 23.15 L 176.06 22.71 L 175.85 22.30 L 175.64 21.88 L 175.28 21.15 L 174.92 20.42 L 174.68 19.78 L 174.44 19.14 L 174.20 18.62 L 173.95 18.11 L 173.54 17.64 L 173.13 17.17 L 172.72 16.75 L 172.31 16.32 L 171.90 15.91 L 171.48 15.49 L 171.07 15.08 L 170.66 14.67 L 170.24 14.25 L 169.83 13.84 L 169.42 13.43 L 169.00 13.01 L 168.56 12.57 L 168.11 12.13 L 167.65 11.85 L 167.20 11.57 L 166.79 11.36 L 166.38 11.15 L 165.80 10.78 L 165.23 10.41 L 164.76 10.16 L 164.30 9.92 L 163.81 9.68 L 163.33 9.44 L 162.67 9.38 L 162.01 9.33 L 161.35 9.32 L 160.69 9.31 L 159.89 9.48 L 159.09 9.64 L 158.59 9.68 L 158.09 9.71 L 157.50 9.88 L 156.91 10.04 L 156.13 10.08 L 155.36 10.11 L 154.71 10.28 L 154.05 10.46 L 153.43 10.49 L 152.81 10.52 L 152.02 10.70 L 151.23 10.87 L 150.78 10.90 L 150.33 10.93 L 149.75 10.94 L 149.17 10.94 L 148.55 10.95 L 147.94 10.95 L 147.38 10.95 L 146.83 10.96 L 146.38 10.80 L 145.94 10.63 L 145.29 10.59 L 144.64 10.55 L 143.86 10.55 L 143.07 10.54 L 142.41 10.54 L 141.76 10.54 L 140.80 10.54 L 139.85 10.54 L 138.83 10.54 L 137.81 10.54 L 136.78 10.54 L 135.75 10.53 L 134.72 10.53 L 133.68 10.53 L 132.82 10.53 L 131.95 10.53 L 131.28 10.53 L 130.61 10.53 L 129.98 10.53 L 129.35 10.53 L 128.56 10.53 L 127.77 10.53 L 127.12 10.53 L 126.47 10.53 L 125.50 10.54 L 124.53 10.54 L 122.17 10.70 L 119.80 10.87 L 118.19 11.07 L 116.57 11.26 L 114.94 11.30 L 113.31 11.34 L 111.97 11.35 L 110.63 11.36 L 109.33 11.53 L 108.02 11.71 L 106.74 12.08 L 105.46 12.46 L 104.39 12.86 L 103.31 13.26 L 102.49 13.49 L 101.66 13.73 L 100.87 13.77 L 100.08 13.82 L 99.49 13.83 L 98.89 13.85 L 98.45 13.69 L 98.00 13.53 L 97.57 13.49 L 97.13 13.46 L 96.55 13.28 L 95.97 13.11 L 95.54 13.08 L 95.11 13.05 L 94.69 12.88 L 94.27 12.71 L 93.68 12.67 L 93.10 12.63 L 92.67 12.46 L 92.22 12.29 L 91.74 12.25 L 91.26 12.21 L 90.83 12.20 L 90.41 12.19 L 89.99 12.19 L 89.57 12.19 L 89.32 12.19 L 89.08 12.19 L 88.86 12.19 L 88.65 12.19 L 88.44 12.19 L 88.23 12.19 L 88.24 12.26 L 88.25 12.34 L 88.31 12.60 L 88.37 12.86 L 90.34 12.00 L 92.32 11.14 L 92.38 11.10 L 92.43 11.07 L 92.48 11.02 L 92.54 10.98 L 92.58 10.92 L 92.62 10.86 L 92.65 10.80 L 92.67 10.74 L 92.69 10.67 L 92.71 10.61 L 92.71 10.54 L 92.71 10.47 L 92.70 10.40 L 92.69 10.33 L 92.67 10.27 L 92.65 10.21 L 92.61 10.15 L 92.57 10.09 L 92.53 10.04 L 92.48 10.00 L 92.43 9.96 L 92.37 9.92 L 92.31 9.89 L 92.25 9.86 L 92.18 9.84 L 92.11 9.82 L 92.05 9.82 L 91.98 9.82 L 91.91 9.83 L 91.84 9.84 L 91.78 9.86 L 91.71 9.89 L 91.65 9.92 L 91.59 9.96 L 91.54 10.00 L 91.49 10.04 L 91.45 10.10 L 91.41 10.15 L 91.38 10.21 L 91.35 10.27 L 91.34 10.34 L 91.32 10.41 L 91.32 10.48 L 91.32 10.55 L 91.33 10.61 L 91.34 10.68 L 91.36 10.75 L 91.38 10.81 L 91.42 10.87 L 91.45 10.93 L 91.50 10.98 L 91.55 11.03 L 91.60 11.07 L 91.66 11.11 L 91.72 11.14 L 91.78 11.17 L 91.85 11.18 L 91.92 11.20 L 91.98 11.20 Z"/></svg>
