<svg xmlns="http://www.w3.org/2000/svg" viewBox="8.31 8.32 196.20 72.00"><path fill="#000" d="M 116.93 20.10 L 116.93 20.10 L 116.92 15.88 L 116.91 15.95 L 116.89 16.02 L 116.87 16.08 L 116.84 16.14 L 116.81 16.20 L 116.76 16.26 L 116.72 16.31 L 116.67 16.35 L 116.61 16.40 L 116.55 16.43 L 116.49 16.46 L 116.43 16.48 L 116.36 16.50 L 116.29 16.51 L 107.66 16.52 L 116.17 16.51 L 116.10 16.50 L 116.03 16.48 L 115.97 16.46 L 115.91 16.43 L 115.85 16.40 L 115.79 16.35 L 115.74 16.31 L 115.70 16.26 L 115.65 16.20 L 115.62 16.14 L 115.59 16.08 L 115.57 16.02 L 115.55 15.95 L 115.54 15.88 L 115.53 11.54 L 115.56 15.12 L 115.58 14.42 L 115.68 14.29 L 115.78 14.16 L 115.79 14.16 L 115.79 14.17 L 115.81 14.21 L 115.84 14.25 L 115.62 14.18 L 115.40 14.11 L 114.91 13.91 L 114.42 13.71 L 113.67 13.67 L 112.93 13.63 L 112.10 13.53 L 111.26 13.42 L 110.44 13.40 L 109.61 13.38 L 108.77 13.38 L 107.93 13.37 L 106.98 13.37 L 106.04 13.37 L 104.97 13.37 L 103.91 13.37 L 102.83 13.37 L 101.74 13.37 L 100.82 13.37 L 99.91 13.37 L 99.05 13.27 L 98.18 13.18 L 97.43 13.16 L 96.68 13.14 L 95.64 13.04 L 94.60 12.93 L 93.61 12.82 L 92.62 12.70 L 91.74 12.58 L 90.86 12.45 L 90.10 12.33 L 89.34 12.21 L 88.60 12.09 L 87.87 11.97 L 87.16 11.85 L 86.46 11.73 L 85.64 11.71 L 84.83 11.68 L 83.78 11.58 L 82.73 11.48 L 81.64 11.36 L 80.56 11.24 L 79.56 11.12 L 78.56 11.00 L 77.70 10.88 L 76.84 10.76 L 75.93 10.74 L 75.02 10.72 L 73.97 10.81 L 72.93 10.90 L 71.75 11.01 L 70.57 11.13 L 69.37 11.25 L 68.17 11.37 L 67.24 11.49 L 66.30 11.61 L 65.32 11.64 L 64.34 11.66 L 63.20 11.67 L 62.06 11.67 L 60.89 11.86 L 59.72 12.05 L 58.53 12.28 L 57.34 12.51 L 56.26 12.83 L 55.18 13.16 L 54.08 13.62 L 52.98 14.08 L 51.57 14.47 L 50.15 14.86 L 48.91 15.13 L 47.66 15.40 L 46.72 15.65 L 45.78 15.89 L 44.92 16.04 L 44.06 16.18 L 43.29 16.41 L 42.51 16.64 L 41.65 16.68 L 40.79 16.73 L 39.85 16.84 L 38.90 16.95 L 38.01 16.97 L 37.13 16.99 L 36.34 16.99 L 35.55 17.00 L 34.96 16.89 L 34.37 16.79 L 33.96 16.67 L 33.54 16.55 L 33.12 16.44 L 32.69 16.33 L 32.16 16.30 L 31.62 16.28 L 30.83 16.28 L 30.04 16.27 L 29.28 16.27 L 28.52 16.27 L 27.78 16.17 L 27.05 16.08 L 26.32 16.06 L 25.58 16.04 L 24.95 15.94 L 24.32 15.83 L 23.73 15.82 L 23.15 15.81 L 22.45 15.80 L 21.75 15.80 L 20.95 15.80 L 20.15 15.80 L 19.13 15.88 L 18.12 15.98 L 17.28 16.08 L 16.45 16.19 L 15.78 16.46 L 15.12 16.74 L 14.56 17.22 L 14.01 17.69 L 13.63 18.33 L 13.25 18.97 L 12.88 19.67 L 12.51 20.38 L 12.14 21.12 L 11.77 21.85 L 11.43 22.44 L 11.08 23.04 L 10.93 23.66 L 10.78 24.29 L 10.75 24.97 L 10.72 25.66 L 10.71 26.56 L 10.71 27.45 L 10.80 28.47 L 10.89 29.49 L 11.10 30.49 L 11.32 31.48 L 11.36 32.37 L 11.41 33.26 L 11.51 34.00 L 11.61 34.74 L 11.72 35.42 L 11.83 36.11 L 12.14 36.82 L 12.45 37.53 L 12.71 38.48 L 12.98 39.43 L 13.23 40.52 L 13.48 41.60 L 13.63 42.72 L 13.78 43.84 L 13.81 44.85 L 13.84 45.87 L 13.85 46.75 L 13.85 47.63 L 13.85 48.45 L 13.85 49.26 L 14.04 50.09 L 14.23 50.92 L 14.37 51.98 L 14.51 53.04 L 14.64 54.14 L 14.76 55.24 L 14.79 56.27 L 14.81 57.31 L 14.72 58.21 L 14.63 59.12 L 14.51 59.98 L 14.39 60.84 L 14.27 61.58 L 14.16 62.31 L 14.13 63.10 L 14.11 63.88 L 14.20 64.80 L 14.29 65.71 L 14.40 66.57 L 14.52 67.43 L 14.64 68.18 L 14.76 68.93 L 14.85 69.58 L 14.95 70.23 L 15.29 70.65 L 15.62 71.07 L 16.23 71.52 L 16.84 71.97 L 17.71 72.44 L 18.59 72.91 L 19.65 73.40 L 20.70 73.88 L 21.59 74.37 L 22.48 74.85 L 23.32 75.23 L 24.15 75.61 L 24.87 75.87 L 25.60 76.13 L 26.49 76.37 L 27.38 76.61 L 28.51 76.75 L 29.63 76.89 L 30.94 77.02 L 32.25 77.15 L 33.48 77.37 L 34.71 77.59 L 35.90 77.73 L 37.09 77.86 L 38.57 77.89 L 40.04 77.92 L 41.67 77.83 L 43.31 77.74 L 44.88 77.53 L 46.46 77.32 L 48.14 77.08 L 49.82 76.84 L 51.81 76.60 L 53.79 76.36 L 55.64 76.12 L 57.48 75.88 L 59.49 75.54 L 61.51 75.20 L 63.56 74.84 L 65.62 74.48 L 67.50 74.21 L 69.39 73.95 L 71.42 73.79 L 73.46 73.64 L 75.42 73.52 L 77.37 73.39 L 79.22 73.27 L 81.07 73.14 L 83.18 73.02 L 85.28 72.90 L 87.06 72.68 L 88.84 72.47 L 91.06 72.32 L 93.28 72.18 L 94.80 72.15 L 96.31 72.13 L 97.70 72.12 L 99.08 72.11 L 100.44 72.21 L 101.79 72.31 L 103.32 72.42 L 104.85 72.54 L 106.52 72.66 L 108.18 72.78 L 109.48 72.90 L 110.77 73.02 L 112.01 73.05 L 113.25 73.07 L 114.67 73.27 L 116.10 73.47 L 117.53 73.61 L 118.96 73.74 L 120.21 73.87 L 121.46 73.99 L 122.95 74.01 L 124.45 74.04 L 126.11 74.04 L 127.77 74.05 L 129.08 74.05 L 130.40 74.05 L 131.46 74.15 L 132.53 74.25 L 133.90 74.46 L 135.27 74.68 L 136.69 74.82 L 138.10 74.95 L 139.54 74.98 L 140.97 75.01 L 142.42 75.01 L 143.88 75.02 L 145.43 75.02 L 146.98 75.02 L 148.45 75.02 L 149.93 75.02 L 151.29 75.02 L 152.65 75.02 L 153.99 75.02 L 155.33 75.02 L 157.12 75.02 L 158.91 75.02 L 160.50 74.74 L 162.10 74.45 L 163.50 74.20 L 164.91 73.94 L 166.28 73.79 L 167.65 73.64 L 168.93 73.61 L 170.20 73.58 L 171.25 73.67 L 172.30 73.77 L 173.26 73.88 L 174.23 74.00 L 175.46 74.02 L 176.70 74.04 L 178.07 73.95 L 179.45 73.86 L 180.74 73.57 L 182.04 73.27 L 183.16 72.83 L 184.28 72.39 L 185.49 71.90 L 186.71 71.42 L 188.13 71.03 L 189.55 70.63 L 191.09 70.17 L 192.63 69.70 L 193.70 69.42 L 194.78 69.14 L 195.62 68.81 L 196.47 68.48 L 197.28 67.95 L 198.09 67.43 L 198.81 66.86 L 199.53 66.29 L 200.13 65.63 L 200.73 64.97 L 201.12 64.38 L 201.52 63.79 L 201.76 63.36 L 202.00 62.93 L 202.04 62.23 L 202.08 61.53 L 202.09 60.61 L 202.11 59.69 L 202.11 58.63 L 202.11 57.58 L 202.11 56.49 L 202.11 55.41 L 202.11 54.32 L 202.11 53.23 L 202.11 52.25 L 202.11 51.27 L 202.02 50.11 L 201.92 48.96 L 201.80 47.75 L 201.69 46.53 L 201.66 45.40 L 201.64 44.27 L 201.63 42.98 L 201.63 41.69 L 201.63 40.47 L 201.63 39.26 L 201.54 38.29 L 201.45 37.32 L 201.15 36.39 L 200.85 35.46 L 200.41 34.40 L 199.96 33.34 L 199.57 32.24 L 199.19 31.14 L 198.83 30.08 L 198.47 29.01 L 197.95 28.08 L 197.43 27.14 L 196.85 26.49 L 196.27 25.83 L 195.65 25.09 L 195.03 24.35 L 194.49 23.48 L 193.96 22.62 L 193.55 21.75 L 193.15 20.88 L 192.80 19.97 L 192.45 19.07 L 191.89 18.41 L 191.33 17.74 L 190.33 17.34 L 189.34 16.95 L 187.90 16.68 L 186.47 16.41 L 185.10 16.25 L 183.74 16.10 L 182.60 15.87 L 181.45 15.66 L 180.00 15.52 L 178.54 15.38 L 176.70 15.35 L 174.87 15.33 L 173.05 15.32 L 171.24 15.32 L 169.03 15.41 L 166.83 15.51 L 164.63 15.53 L 162.43 15.55 L 160.65 15.55 L 158.86 15.55 L 156.76 15.65 L 154.67 15.75 L 152.79 15.85 L 150.92 15.97 L 149.18 16.09 L 147.44 16.21 L 145.71 16.24 L 143.98 16.26 L 142.43 16.16 L 140.89 16.07 L 139.99 15.85 L 139.10 15.65 L 137.98 15.51 L 136.86 15.38 L 135.47 15.25 L 134.08 15.13 L 132.81 15.00 L 131.54 14.88 L 130.48 14.65 L 129.42 14.43 L 128.35 14.10 L 127.29 13.77 L 125.96 13.61 L 124.63 13.45 L 122.85 13.42 L 121.07 13.39 L 119.28 13.67 L 117.49 13.95 L 115.58 14.30 L 113.66 14.65 L 112.04 14.82 L 110.43 14.99 L 109.40 14.72 L 108.37 14.46 L 108.21 13.84 L 108.05 13.22 L 108.20 12.90 L 108.35 12.59 L 108.64 12.28 L 108.93 11.97 L 108.99 11.94 L 109.05 11.91 L 109.11 11.88 L 109.18 11.86 L 109.25 11.85 L 109.31 11.84 L 109.38 11.85 L 109.45 11.85 L 109.52 11.87 L 109.58 11.89 L 109.65 11.92 L 109.71 11.95 L 109.76 11.99 L 109.82 12.03 L 109.86 12.08 L 109.91 12.13 L 109.94 12.19 L 109.98 12.25 L 110.00 12.32 L 110.02 12.38 L 110.03 12.45 L 110.04 12.52 L 110.03 12.59 L 110.03 12.65 L 110.01 12.72 L 109.99 12.79 L 109.96 12.85 L 109.93 12.91 L 109.89 12.97 L 109.85 13.02 L 109.80 13.07 L 116.93 20.10 L 116.93 20.10 L 116.93 20.10 L 116.90 15.36 L 116.88 14.90 L 116.97 14.80 L 117.07 14.70 L 117.10 14.26 L 117.14 13.82 L 116.93 13.50 L 116.71 13.17 L 116.31 12.99 L 115.92 12.81 L 115.32 12.58 L 114.72 12.34 L 113.89 12.29 L 113.05 12.24 L 112.21 12.13 L 111.37 12.03 L 110.50 12.00 L 109.64 11.98 L 108.78 11.98 L 107.93 11.97 L 106.98 11.97 L 106.04 11.97 L 104.97 11.97 L 103.91 11.97 L 102.83 11.97 L 101.74 11.97 L 100.86 11.97 L 99.99 11.97 L 99.13 11.88 L 98.28 11.78 L 97.52 11.76 L 96.77 11.74 L 95.76 11.64 L 94.75 11.54 L 93.78 11.43 L 92.80 11.31 L 91.94 11.19 L 91.07 11.07 L 90.31 10.95 L 89.56 10.83 L 88.83 10.71 L 88.10 10.59 L 87.34 10.46 L 86.59 10.34 L 85.76 10.31 L 84.92 10.29 L 83.90 10.19 L 82.87 10.09 L 81.79 9.97 L 80.72 9.85 L 79.73 9.73 L 78.74 9.61 L 77.85 9.49 L 76.95 9.37 L 75.96 9.34 L 74.97 9.32 L 73.89 9.41 L 72.80 9.50 L 71.62 9.62 L 70.43 9.73 L 69.22 9.86 L 68.01 9.98 L 67.10 10.10 L 66.19 10.22 L 65.25 10.24 L 64.32 10.26 L 63.13 10.27 L 61.94 10.27 L 60.71 10.47 L 59.48 10.67 L 58.24 10.91 L 57.01 11.15 L 55.86 11.50 L 54.71 11.84 L 53.62 12.30 L 52.53 12.75 L 51.17 13.13 L 49.82 13.50 L 48.57 13.77 L 47.33 14.04 L 46.41 14.29 L 45.49 14.53 L 44.62 14.68 L 43.75 14.83 L 43.01 15.05 L 42.28 15.27 L 41.48 15.31 L 40.68 15.35 L 39.74 15.45 L 38.80 15.56 L 37.95 15.58 L 37.11 15.60 L 36.39 15.61 L 35.66 15.61 L 35.18 15.52 L 34.69 15.43 L 34.30 15.32 L 33.91 15.21 L 33.40 15.08 L 32.90 14.95 L 32.27 14.92 L 31.65 14.89 L 30.85 14.89 L 30.05 14.88 L 29.33 14.88 L 28.61 14.88 L 27.89 14.79 L 27.16 14.69 L 26.44 14.67 L 25.71 14.65 L 25.08 14.55 L 24.45 14.45 L 23.82 14.43 L 23.18 14.41 L 22.47 14.40 L 21.76 14.40 L 20.92 14.40 L 20.08 14.40 L 19.02 14.50 L 17.96 14.60 L 17.02 14.72 L 16.09 14.85 L 15.23 15.20 L 14.38 15.56 L 13.66 16.17 L 12.94 16.79 L 12.48 17.53 L 12.03 18.28 L 11.65 19.01 L 11.27 19.74 L 10.90 20.46 L 10.54 21.18 L 10.16 21.85 L 9.78 22.52 L 9.59 23.31 L 9.40 24.09 L 9.36 24.86 L 9.32 25.62 L 9.31 26.57 L 9.31 27.51 L 9.41 28.61 L 9.51 29.70 L 9.72 30.68 L 9.93 31.66 L 9.97 32.53 L 10.01 33.39 L 10.12 34.17 L 10.23 34.94 L 10.36 35.72 L 10.49 36.50 L 10.81 37.25 L 11.13 38.00 L 11.37 38.89 L 11.62 39.78 L 11.86 40.81 L 12.10 41.85 L 12.24 42.90 L 12.39 43.95 L 12.41 44.92 L 12.44 45.89 L 12.45 46.76 L 12.45 47.64 L 12.46 48.53 L 12.46 49.42 L 12.66 50.29 L 12.86 51.17 L 12.99 52.19 L 13.12 53.21 L 13.24 54.28 L 13.37 55.34 L 13.39 56.30 L 13.41 57.25 L 13.32 58.10 L 13.24 58.95 L 13.12 59.79 L 13.01 60.64 L 12.88 61.41 L 12.76 62.18 L 12.74 63.06 L 12.71 63.93 L 12.81 64.90 L 12.90 65.87 L 13.02 66.75 L 13.13 67.63 L 13.25 68.39 L 13.38 69.15 L 13.52 69.97 L 13.67 70.78 L 14.15 71.43 L 14.64 72.07 L 15.36 72.61 L 16.09 73.15 L 17.03 73.66 L 17.97 74.16 L 19.02 74.65 L 20.08 75.13 L 20.97 75.62 L 21.86 76.11 L 22.74 76.50 L 23.62 76.90 L 24.40 77.19 L 25.18 77.47 L 26.15 77.72 L 27.11 77.98 L 28.29 78.13 L 29.48 78.28 L 30.77 78.41 L 32.06 78.53 L 33.28 78.75 L 34.51 78.97 L 35.75 79.12 L 37.00 79.26 L 38.53 79.29 L 40.07 79.32 L 41.75 79.23 L 43.44 79.13 L 45.05 78.92 L 46.65 78.70 L 48.33 78.47 L 50.00 78.23 L 51.99 77.99 L 53.97 77.75 L 55.83 77.51 L 57.69 77.26 L 59.72 76.92 L 61.74 76.58 L 63.79 76.22 L 65.84 75.87 L 67.69 75.60 L 69.54 75.34 L 71.55 75.19 L 73.56 75.04 L 75.51 74.91 L 77.47 74.79 L 79.31 74.66 L 81.16 74.54 L 83.28 74.42 L 85.41 74.30 L 87.19 74.08 L 88.97 73.86 L 91.15 73.72 L 93.34 73.58 L 94.83 73.55 L 96.33 73.53 L 97.68 73.52 L 99.03 73.51 L 100.36 73.61 L 101.69 73.70 L 103.22 73.82 L 104.75 73.94 L 106.41 74.06 L 108.07 74.18 L 109.38 74.30 L 110.69 74.42 L 111.92 74.44 L 113.14 74.47 L 114.54 74.66 L 115.93 74.86 L 117.38 75.00 L 118.83 75.14 L 120.10 75.26 L 121.38 75.39 L 122.91 75.41 L 124.44 75.44 L 126.10 75.44 L 127.76 75.45 L 129.05 75.45 L 130.34 75.45 L 131.35 75.55 L 132.36 75.64 L 133.73 75.85 L 135.10 76.07 L 136.56 76.21 L 138.02 76.35 L 139.49 76.38 L 140.96 76.41 L 142.42 76.41 L 143.87 76.42 L 145.43 76.42 L 146.98 76.42 L 148.45 76.42 L 149.93 76.42 L 151.29 76.42 L 152.65 76.42 L 153.99 76.42 L 155.33 76.42 L 157.18 76.42 L 159.03 76.42 L 160.69 76.12 L 162.35 75.83 L 163.73 75.58 L 165.11 75.33 L 166.43 75.18 L 167.74 75.04 L 168.95 75.01 L 170.15 74.98 L 171.15 75.07 L 172.15 75.16 L 173.15 75.28 L 174.14 75.39 L 175.43 75.42 L 176.73 75.44 L 178.19 75.34 L 179.65 75.25 L 181.05 74.93 L 182.45 74.60 L 183.62 74.15 L 184.79 73.69 L 185.97 73.22 L 187.15 72.74 L 188.54 72.36 L 189.93 71.98 L 191.47 71.51 L 193.01 71.05 L 194.11 70.76 L 195.21 70.47 L 196.16 70.10 L 197.10 69.73 L 198.01 69.15 L 198.91 68.56 L 199.70 67.94 L 200.49 67.31 L 201.16 66.57 L 201.83 65.83 L 202.27 65.17 L 202.72 64.51 L 203.03 63.92 L 203.34 63.32 L 203.41 62.45 L 203.48 61.59 L 203.49 60.64 L 203.51 59.70 L 203.51 58.64 L 203.51 57.58 L 203.51 56.49 L 203.51 55.41 L 203.51 54.32 L 203.51 53.23 L 203.51 52.22 L 203.51 51.21 L 203.41 50.02 L 203.31 48.84 L 203.20 47.64 L 203.08 46.45 L 203.06 45.35 L 203.04 44.26 L 203.03 42.97 L 203.03 41.68 L 203.03 40.44 L 203.03 39.19 L 202.92 38.12 L 202.82 37.04 L 202.49 36.01 L 202.17 34.98 L 201.72 33.91 L 201.26 32.83 L 200.89 31.76 L 200.51 30.68 L 200.13 29.56 L 199.75 28.45 L 199.16 27.39 L 198.57 26.34 L 197.95 25.63 L 197.33 24.92 L 196.75 24.22 L 196.16 23.53 L 195.68 22.74 L 195.19 21.96 L 194.81 21.14 L 194.43 20.33 L 194.04 19.34 L 193.65 18.35 L 192.90 17.48 L 192.15 16.60 L 190.94 16.11 L 189.73 15.62 L 188.21 15.33 L 186.68 15.03 L 185.32 14.88 L 183.95 14.72 L 182.80 14.50 L 181.66 14.27 L 180.13 14.13 L 178.61 13.98 L 176.75 13.96 L 174.88 13.93 L 173.04 13.92 L 171.21 13.92 L 169.00 14.01 L 166.79 14.11 L 164.61 14.13 L 162.43 14.15 L 160.62 14.15 L 158.82 14.15 L 156.71 14.25 L 154.59 14.35 L 152.71 14.47 L 150.83 14.58 L 149.10 14.70 L 147.38 14.82 L 145.70 14.85 L 144.02 14.87 L 142.55 14.78 L 141.09 14.69 L 140.22 14.48 L 139.35 14.27 L 138.17 14.13 L 137.00 13.99 L 135.60 13.86 L 134.21 13.74 L 132.98 13.62 L 131.75 13.50 L 130.76 13.29 L 129.77 13.07 L 128.68 12.74 L 127.58 12.40 L 126.15 12.23 L 124.72 12.06 L 122.85 12.02 L 120.97 11.99 L 119.12 12.28 L 117.26 12.57 L 115.36 12.91 L 113.46 13.26 L 111.97 13.42 L 110.49 13.59 L 109.93 13.53 L 109.37 13.47 L 109.40 13.45 L 109.44 13.42 L 109.46 13.41 L 109.49 13.40 L 109.67 13.21 L 109.85 13.02 L 109.89 12.97 L 109.93 12.91 L 109.96 12.85 L 109.99 12.79 L 110.01 12.72 L 110.03 12.65 L 110.03 12.59 L 110.04 12.52 L 110.03 12.45 L 110.02 12.38 L 110.00 12.32 L 109.98 12.25 L 109.94 12.19 L 109.91 12.13 L 109.86 12.08 L 109.82 12.03 L 109.76 11.99 L 109.71 11.95 L 109.65 11.92 L 109.58 11.89 L 109.52 11.87 L 109.45 11.85 L 109.38 11.85 L 109.31 11.84 L 109.25 11.85 L 109.18 11.86 L 109.11 11.88 L 109.05 11.91 L 108.99 11.94 L 108.93 11.97 L 108.88 12.02 L 108.83 12.07 L 108.78 12.12 L 108.74 12.17 L 108.71 12.24 L 108.68 12.30 L 108.67 12.36 L 108.65 12.43 L 108.64 12.50 L 108.64 12.57 L 108.65 12.64 L 108.66 12.70 L 108.68 12.77 L 108.70 12.83 L 108.74 12.89 L 108.77 12.95 L 108.82 13.00 L 108.86 13.05 L 108.92 13.10 L 108.97 13.14 L 109.03 13.17 L 109.09 13.20 L 109.16 13.22 L 109.23 13.23 L 109.29 13.24 L 109.36 13.24 L 109.43 13.23 L 109.50 13.22 L 109.56 13.20 L 109.63 13.18 L 109.69 13.15 L 109.75 13.11 Z"/></svg>
