<svg xmlns="http://www.w3.org/2000/svg" viewBox="8.31 8.32 196.20 72.00" width="196.20" height="72.00" xmlns:v="https://vecta.io/nano"><path fill="#1e1e1e" d="M116.931 20.101q0 0-.01-4.22-.01.07-.03.14-.02.06-.05.12-.03.06-.08.12-.04.05-.09.09-.06.05-.12.08-.06.03-.12.05-.07.02-.14.03-8.63.01-.12 0-.07-.01-.14-.03-.06-.02-.12-.05-.06-.03-.12-.08-.05-.04-.09-.09-.05-.06-.08-.12-.03-.06-.05-.12-.02-.07-.03-.14-.01-4.34.02-.76.02-.7.12-.83.1-.13.11-.13 0 .01.02.05.03.04-.19-.03-.22-.07-.71-.27-.49-.2-1.24-.24-.74-.04-1.57-.14-.84-.11-1.66-.13-.83-.02-1.67-.02-.84-.01-1.79-.01-.94 0-2.01 0-1.06 0-2.14 0-1.09 0-2.01 0-.91 0-1.77-.1-.87-.09-1.62-.11-.75-.02-1.79-.12-1.04-.11-2.03-.22-.99-.12-1.87-.24-.88-.13-1.64-.25-.76-.12-1.5-.24-.73-.12-1.44-.24-.7-.12-1.52-.14-.81-.03-1.86-.13-1.05-.1-2.14-.22-1.08-.12-2.08-.24-1-.12-1.86-.24-.86-.12-1.77-.14-.91-.02-1.96.07-1.04.09-2.22.2-1.18.12-2.38.24-1.2.12-2.13.24-.94.12-1.92.15-.98.02-2.12.03-1.14 0-2.31.19-1.17.19-2.36.42-1.19.23-2.27.55-1.08.33-2.18.79-1.1.46-2.51.85-1.42.39-2.66.66-1.25.27-2.19.52-.94.24-1.8.39-.86.14-1.63.37-.78.23-1.64.27-.86.05-1.8.16-.95.11-1.84.13-.88.02-1.67.02-.79.01-1.38-.1-.59-.1-1-.22-.42-.12-.84-.23-.43-.11-.96-.14-.54-.02-1.33-.02-.79-.01-1.55-.01-.76 0-1.5-.1-.73-.09-1.46-.11-.74-.02-1.37-.12-.63-.11-1.22-.12-.58-.01-1.28-.02-.7 0-1.5 0-.8 0-1.82.08-1.01.1-1.85.2-.83.11-1.5.38-.66.28-1.22.76-.55.47-.93 1.11-.38.64-.75 1.34-.37.71-.74 1.45-.37.73-.71 1.32-.35.6-.5 1.22-.15.63-.18 1.31-.03.69-.04 1.59 0 .89.09 1.91.09 1.02.3 2.02.22.99.26 1.88.05.89.15 1.63.1.74.21 1.42.11.69.42 1.4.31.71.57 1.66.27.95.52 2.04.25 1.08.4 2.2.15 1.12.18 2.13.03 1.02.04 1.9 0 .88 0 1.7 0 .81.19 1.64.19.83.33 1.89.14 1.06.27 2.16.12 1.1.15 2.13.02 1.04-.07 1.94-.09.91-.21 1.77-.12.86-.24 1.6-.11.73-.14 1.52-.02.78.07 1.7.09.91.2 1.77.12.86.24 1.61.12.75.21 1.4.1.65.44 1.07.33.42.94.87.61.45 1.48.92.88.47 1.94.96 1.05.48 1.94.97.89.48 1.73.86.83.38 1.55.64.73.26 1.62.5.89.24 2.02.38 1.12.14 2.43.27 1.31.13 2.54.35 1.23.22 2.42.36 1.19.13 2.67.16 1.47.03 3.1-.06 1.64-.09 3.21-.3 1.58-.21 3.26-.45 1.68-.24 3.67-.48 1.98-.24 3.83-.48 1.84-.24 3.85-.58 2.02-.34 4.07-.7 2.06-.36 3.94-.63 1.89-.26 3.92-.42 2.04-.15 4-.27 1.95-.13 3.8-.25 1.85-.13 3.96-.25 2.1-.12 3.88-.34 1.78-.21 4-.36 2.22-.14 3.74-.17 1.51-.02 2.9-.03 1.38-.01 2.74.09 1.35.1 2.88.21 1.53.12 3.2.24 1.66.12 2.96.24 1.29.12 2.53.15 1.24.02 2.66.22 1.43.2 2.86.34 1.43.13 2.68.26 1.25.12 2.74.14 1.5.03 3.16.03 1.66.01 2.97.01 1.32 0 2.38.1 1.07.1 2.44.31 1.37.22 2.79.36 1.41.13 2.85.16 1.43.03 2.88.03 1.46.01 3.01.01 1.55 0 3.02 0 1.48 0 2.84 0 1.36 0 2.7 0 1.34 0 3.13 0 1.79 0 3.38-.28 1.6-.29 3-.54 1.41-.26 2.78-.41 1.37-.15 2.65-.18 1.27-.03 2.32.06 1.05.1 2.01.21.97.12 2.2.14 1.24.02 2.61-.07 1.38-.09 2.67-.38 1.3-.3 2.42-.74 1.12-.44 2.33-.93 1.22-.48 2.64-.87 1.42-.4 2.96-.86 1.54-.47 2.61-.75 1.08-.28 1.92-.61.85-.33 1.66-.86.81-.52 1.53-1.09.72-.57 1.32-1.23.6-.66.99-1.25.4-.59.64-1.02.24-.43.28-1.13.04-.7.05-1.62.02-.92.02-1.98 0-1.05 0-2.14 0-1.08 0-2.17 0-1.09 0-2.07 0-.98-.09-2.14-.1-1.15-.22-2.36-.11-1.22-.14-2.35-.02-1.13-.03-2.42 0-1.29 0-2.51 0-1.21-.09-2.18-.09-.97-.39-1.9-.3-.93-.74-1.99-.45-1.06-.84-2.16-.38-1.1-.74-2.16-.36-1.07-.88-2-.52-.94-1.1-1.59-.58-.66-1.2-1.4-.62-.74-1.16-1.61-.53-.86-.94-1.73-.4-.87-.75-1.78-.35-.9-.91-1.56-.56-.67-1.56-1.07-.99-.39-2.43-.66-1.43-.27-2.8-.43-1.36-.15-2.5-.38-1.15-.21-2.6-.35-1.46-.14-3.3-.17-1.83-.02-3.65-.03-1.81 0-4.02.09-2.2.1-4.4.12-2.2.02-3.98.02-1.79 0-3.89.1-2.09.1-3.97.2-1.87.12-3.61.24-1.74.12-3.47.15-1.73.02-3.28-.08-1.54-.09-2.44-.31-.89-.2-2.01-.34-1.12-.13-2.51-.26-1.39-.12-2.66-.25-1.27-.12-2.33-.35-1.06-.22-2.13-.55-1.06-.33-2.39-.49-1.33-.16-3.11-.19-1.78-.03-3.57.25-1.79.28-3.7.63-1.92.35-3.54.52-1.61.17-2.64-.1-1.03-.26-1.19-.88-.16-.62-.01-.94.15-.31.44-.62.29-.31.35-.34.06-.03.12-.06.07-.02.14-.03.06-.01.13 0 .07 0 .14.02.06.02.13.05.06.03.11.07.06.04.1.09.05.05.08.11.04.06.06.13.02.06.03.13.01.07 0 .14 0 .06-.02.13-.02.07-.05.13-.03.06-.07.12-.04.05-.09.1-.05.04-.11.08-.06.03-.13.05-.06.02-.13.03-.07.01-.14.01-.06-.01-.13-.02-.07-.02-.13-.05-.06-.03-.11-.07-.06-.05-.1-.1-.05-.05-.08-.11-.04-.06-.06-.12-.02-.07-.03-.13-.01-.07-.01-.14.01-.07.03-.14.01-.06.04-.12.03-.07.07-.12.05-.05.1-.1.05-.05.11-.08.06-.03.12-.06.07-.02.14-.03.06-.01.13 0 .07 0 .14.02.06.02.13.05.06.03.11.07.06.04.1.09.05.05.08.11.04.06.06.13.02.06.03.13.01.07 0 .14 0 .06-.02.13-.02.07-.05.13-.03.06-.07.12-.04.05-.22.24-.18.19-.21.2-.02.01-.06.04-.03.02.53.08.56.06 2.04-.11 1.49-.16 3.39-.51 1.9-.34 3.76-.63 1.85-.29 3.73-.26 1.87.04 3.3.21 1.43.17 2.53.51 1.09.33 2.08.55.99.21 2.22.33 1.23.12 2.62.24 1.4.13 2.57.27 1.18.14 2.05.35.87.21 2.33.3 1.47.09 3.15.07 1.68-.03 3.4-.15 1.73-.12 3.61-.23 1.88-.12 4-.22 2.11-.1 3.91-.1 1.81 0 3.99-.02 2.18-.02 4.39-.12 2.21-.09 4.04-.09 1.84.01 3.71.04 1.86.02 3.38.17 1.53.14 2.67.37 1.15.22 2.52.38 1.36.15 2.89.45 1.52.29 2.73.78 1.21.49 1.96 1.37.75.87 1.14 1.86.39.99.77 1.8.38.82.87 1.6.48.79 1.07 1.48.58.7 1.2 1.41.62.71 1.21 1.76.59 1.06.97 2.17.38 1.12.76 2.2.37 1.07.83 2.15.45 1.07.77 2.1.33 1.03.43 2.11.11 1.07.11 2.32 0 1.24 0 2.53.01 1.29.03 2.38.02 1.1.14 2.29.11 1.2.21 2.38.1 1.19.1 2.2 0 1.01 0 2.1 0 1.09 0 2.17 0 1.09 0 2.15 0 1.06-.02 2-.01.95-.08 1.81-.07.87-.38 1.47-.31.59-.76 1.25-.44.66-1.11 1.4-.67.74-1.46 1.37-.79.62-1.69 1.21-.91.58-1.85.95-.95.37-2.05.66-1.1.29-2.64.75-1.54.47-2.93.85-1.39.38-2.57.86-1.18.47-2.35.93-1.17.45-2.57.78-1.4.32-2.86.41-1.46.1-2.76.08-1.29-.03-2.28-.14-1-.12-2-.21-1-.09-2.2-.06-1.21.03-2.52.17-1.32.15-2.7.4-1.38.25-3.04.54-1.66.3-3.51.3-1.85 0-3.19 0-1.34 0-2.7 0-1.36 0-2.84 0-1.47 0-3.02 0-1.56 0-3.01-.01-1.46 0-2.93-.03-1.47-.03-2.93-.17-1.46-.14-2.83-.36-1.37-.21-2.38-.3-1.01-.1-2.3-.1-1.29 0-2.95-.01-1.66 0-3.19-.03-1.53-.02-2.81-.15-1.27-.12-2.72-.26-1.45-.14-2.84-.34-1.4-.19-2.62-.22-1.23-.02-2.54-.14-1.31-.12-2.97-.24-1.66-.12-3.19-.24-1.53-.12-2.86-.21-1.33-.1-2.68-.09-1.35.01-2.85.03-1.49.03-3.68.17-2.18.14-3.96.36-1.78.22-3.91.34-2.12.12-3.97.24-1.84.13-3.8.25-1.95.13-3.96.28-2.01.15-3.86.41-1.85.27-3.9.62-2.05.36-4.07.7-2.03.34-3.89.59-1.86.24-3.84.48-1.99.24-3.66.48-1.68.23-3.28.45-1.61.21-3.3.31-1.68.09-3.22.06-1.53-.03-2.78-.17-1.24-.15-2.47-.37-1.22-.22-2.51-.34-1.29-.13-2.48-.28-1.18-.15-2.14-.41-.97-.25-1.75-.53-.78-.29-1.66-.69-.88-.39-1.77-.88-.89-.49-1.95-.97-1.05-.49-1.99-.99-.94-.51-1.67-1.05-.72-.54-1.21-1.18-.48-.65-.63-1.46-.14-.82-.27-1.58-.12-.76-.23-1.64-.12-.88-.21-1.85-.1-.97-.07-1.84.02-.88.14-1.65.13-.77.24-1.62.12-.84.2-1.69.09-.85.07-1.8-.02-.96-.15-2.02-.12-1.07-.25-2.09-.13-1.02-.33-1.9-.2-.87-.2-1.76-.01-.89-.01-1.77-.01-.87-.04-1.84-.02-.97-.17-2.02-.14-1.05-.38-2.09-.24-1.03-.49-1.92-.24-.89-.56-1.64-.32-.75-.45-1.53-.13-.78-.24-1.55-.11-.78-.15-1.64-.04-.87-.25-1.85-.21-.98-.31-2.07-.1-1.1-.1-2.04.01-.95.05-1.71.04-.77.23-1.55.19-.79.57-1.46.38-.67.74-1.39.37-.72.75-1.45.38-.73.83-1.48.46-.74 1.18-1.36.72-.61 1.57-.97.86-.35 1.79-.48.94-.12 2-.22 1.06-.1 1.9-.1.84 0 1.55 0 .71.01 1.35.03.63.02 1.26.12.63.1 1.36.12.72.02 1.45.12.72.09 1.44.09.72 0 1.52.01.8 0 1.42.03.63.03 1.13.16.51.13.9.24.39.11.88.2.48.09 1.21.09.72-.01 1.56-.03.85-.02 1.79-.13.94-.1 1.74-.14.8-.04 1.53-.26.74-.22 1.61-.37.87-.15 1.79-.39.92-.25 2.16-.52 1.25-.27 2.6-.64 1.36-.38 2.45-.83 1.09-.46 2.24-.8 1.15-.35 2.38-.59 1.24-.24 2.47-.44 1.23-.2 2.42-.2 1.19-.01 2.12-.03.94-.02 1.85-.14.91-.12 2.12-.24 1.21-.13 2.4-.24 1.18-.12 2.27-.21 1.08-.09 2.07-.07.99.03 1.89.15.89.12 1.88.24.99.12 2.06.24 1.08.12 2.11.22 1.02.1 1.86.12.83.03 1.58.15.76.13 1.49.25.73.12 1.48.24.76.12 1.63.24.86.12 1.84.24.97.11 1.98.21 1.01.1 1.76.12.76.02 1.61.12.86.09 1.73.09.88 0 1.97 0 1.08 0 2.14 0 1.07 0 2.01 0 .95 0 1.8.01.86 0 1.72.02.87.03 1.71.13.84.11 1.68.16.83.05 1.43.29.6.23.99.41.4.18.62.51.21.32.17.76-.03.44-.13.54-.09.1-.07.56.03 4.74.03 4.74h0z"/></svg>