<svg preserveAspectRatio="none" xmlns="http://www.w3.org/2000/svg" viewBox="8.31 8.31 169.96 50.91" width="169.96" height="50.91" xmlns:v="https://vecta.io/nano"><path fill="#1e1e1e" d="M92.409 9.84q0 0 .02-.07.02-.06.06-.12.03-.06.08-.11.04-.05.1-.09.05-.05.12-.07.06-.03.13-.05.06-.02.13-.02.06 0 .13.01.06.01.13.03.06.02.12.06.06.03.11.08.05.04.09.1.05.05.07.12.03.06.05.13.02.06.02.13 0 .06-.01.13-.01.06-.17.73-.17.66-.26.82-.08.16-.24.25-.15.09-.33.09-.18 0-.34-.09-.16-.09-.09-.05.08.04-.08.04-.16 0-.38-.17-.22-.18-.31-.18-.09 0-.38-.01-.3-.01-.81.14-.51.15-1.13.35-.61.2-1.44.42-.83.21-1.86.26-1.03.04-2.06.05-1.03.01-2.2.01-1.17 0-2.2.16-1.04.16-2.09.36-1.06.2-1.96.25-.9.04-1.71.04-.81.01-1.63.18-.83.16-1.65.2-.83.03-1.66.2-.82.17-1.85.21-1.03.04-1.89.04-.87.01-1.74.01-.87 0-1.74-.17-.86-.17-1.67-.37-.8-.19-1.58-.23-.79-.03-1.61-.04-.82-.01-1.69-.01-.86-.01-1.53-.17-.67-.17-1.42-.2-.75-.03-1.73-.04-.98 0-1.84 0-.86 0-2.05-.01-1.19 0-2.28-.17-1.09-.17-2.11-.36-1.02-.2-1.86-.23-.84-.04-1.5-.05-.66-.01-1.24-.01-.59-.01-1.16.15-.56.15-1.16.34-.59.19-1.04.39-.45.21-1.03.41-.59.21-1.36.58-.78.37-1.43.61-.66.24-1.16.47-.5.22-1 .28-.49.05-1.09.06-.6.01-1.05.01-.45 0-1.03 0-.59 0-1.04 0-.44 0-1.03 0-.58 0-.97 0-.38-.01-.79.16-.4.16-.78.18-.38.02-.52.14-.15.11-.44.36-.29.24-.68.29-.39.05-.62.22-.24.17-.48.21-.25.05-.49.15-.25.11-.44.42-.2.32-.57.72-.37.39-.59.76-.21.37-.41.76-.2.38-.41.95-.2.57-.41 1.02-.21.45-.41 1.01-.2.57-.4 1.17-.2.6-.4 1.34-.19.74-.23 1.39-.05.66-.23 1.33-.18.67-.39 1.3-.2.62-.4 1.24-.2.61-.4 1.35-.2.74-.24 1.55-.04.81-.21 1.63-.17.83-.21 1.45-.03.63-.03 1.09-.01.45-.02.8-.01.36.14.7.14.34.33.74.19.4.41.83.21.43.42 1.01.2.59.42 1.06.22.48.22.64 0 .17.29.33.3.16.59.61.28.45.5.87.22.42.38.75.16.34.48.55.33.2.59.44.27.23.52.48.25.25.47.63.21.38.59.81.39.42.61.97.22.55.58.81.36.26.62.67.26.41.61.79.36.38.76.78.4.41.76.78.36.37.83.57.46.2 1.01.24.54.04 1.28.05.74.01 1.7-.15.95-.16 2.14-.36 1.19-.2 2.41-.4 1.23-.21 2.32-.41 1.1-.21 2.14-.26 1.04-.04 1.91-.21.87-.17 1.9-.21 1.03-.04 1.9-.04.87-.01 1.7-.01.84 0 1.83 0 1-.01 2.05 0 1.05 0 2.09.16 1.04.17 2.08.2 1.04.04 1.95.22.91.18 1.59.38.68.2 1.48.41.79.2 1.45.41.65.21 1.4.4.75.2 1.69.24.94.03 2.13.04 1.18.01 2.41.01 1.22 0 2.46 0 1.24 0 2.48 0 1.24 0 2.15 0 .91 0 1.92 0 1 0 1.83.01.83 0 1.64-.16.8-.16 1.96-.36 1.16-.2 2.22-.41 1.06-.2 2.29-.41 1.23-.21 2.3-.25 1.06-.04 2.1-.22 1.04-.17 1.94-.21.9-.03 1.57-.04.68-.01 1.31-.01.62 0 1.08 0 .46 0 1.04 0 .59 0 1.2 0 .62 0 1.24 0 .62 0 1.24 0 .62 0 1.24 0 .61 0 1.23 0 .62 0 1.24 0 .62 0 1.41 0 .79 0 1.6 0 .82 0 1.48 0 .66 0 1.29 0 .63 0 1.25 0 .62 0 1.24 0 .62 0 1.24 0 .62 0 1.24 0 .62 0 1.41 0 .78 0 1.63 0 .85 0 1.87.17 1.02.17 2.05.37 1.03.2 2.07.4 1.03.21 2.07.42 1.04.2 1.91.41.88.21 1.72.42.83.21 1.63.41.79.2 1.61.24.82.04 1.65.21.82.17 1.62.21.79.03 1.81.04 1.01 0 1.88.17.86.17 1.83.2.97.03 1.82.04.86 0 1.65.01.79 0 1.38-.15.59-.15 1.04-.34.45-.19 1.03-.4.59-.2 1.04-.4.44-.21 1.03-.42.58-.2 1.36-.57.77-.37 1.44-.62.67-.25 1.35-.48.67-.22 1.35-.27.67-.05 1.14-.06.47-.01 1.01-.01.54 0 1.08-.14.54-.15 1.28-.49.74-.35 1.4-.75.66-.41 1.36-.69.7-.27 1.16-.32.45-.05.88-.22.42-.18.84-.21.41-.04.72-.17.31-.13.71-.48.39-.35.84-.61.45-.26.89-.49.44-.23 1.03-.44.59-.21 1.01-.41.43-.2.87-.41.43-.21 1.02-.42.58-.21.99-.4.41-.19.95-.53.54-.35.94-.71.4-.36.78-.87.37-.51.59-1.03.21-.52.25-1.24.04-.72.05-1.53.01-.8.01-1.63.01-.82.01-1.81 0-.99 0-1.81 0-.82-.16-1.48-.17-.66-.2-1.32-.04-.67-.05-1.14 0-.46 0-1.05-.01-.59-.01-1.21 0-.61 0-1.23 0-.62 0-1.24 0-.62.01-1.18 0-.56-.14-.94-.14-.38-.33-.78-.19-.41-.4-.82-.2-.41-.58-1.17-.38-.76-.62-1.41-.24-.65-.43-1.05-.18-.41-.52-.78-.33-.38-.73-.79-.4-.4-.81-.82-.41-.41-.82-.82-.41-.41-.83-.83-.41-.41-.82-.82-.42-.42-.8-.8-.38-.39-.75-.61-.37-.21-.79-.43-.41-.22-.99-.59-.59-.38-1.02-.61-.43-.23-.78-.42-.35-.18-.85-.21-.5-.03-1.07-.04-.56-.01-1.33.15-.77.16-1.24.19-.48.03-1.07.2-.6.18-1.39.21-.78.04-1.43.21-.65.17-1.28.21-.64.03-1.42.2-.79.18-1.31.21-.52.04-1.13.05-.6 0-1.22.01-.62 0-1.3-.01-.68 0-1.14-.17-.47-.17-.99-.19-.53-.03-1.3-.04-.77 0-1.42 0-.65 0-1.61 0-.95 0-1.97 0-1.02 0-2.05 0-1.03-.01-2.06-.01-1.04 0-1.9 0-.87 0-1.54 0-.67 0-1.3 0-.63 0-1.42 0-.79 0-1.44 0-.65 0-1.6 0-.94 0-3.26.17-2.32.16-3.95.36-1.64.2-3.31.24-1.66.04-2.97.05-1.3.01-2.51.17-1.21.16-2.41.51-1.21.35-2.28.76-1.08.4-2.01.66-.92.26-1.81.31-.88.06-1.61.06-.73.01-1.21-.16-.48-.17-.9-.2-.41-.03-.99-.2-.58-.17-1.05-.21-.46-.04-.88-.21-.41-.17-.99-.2-.57-.04-1.02-.21-.45-.17-.81-.2-.36-.03-.76-.03-.4-.01-.81-.01-.41 0-.66 0-.24 0-.46 0-.21 0-.42 0-.21 0-.63-.08-.43-.07-.57-.66-.14-.59 2.23-1.81 2.37-1.2 2.44-1.21.07-.01.14-.01.06 0 .13.02.07.02.13.05.06.03.12.07.05.04.1.08.04.05.08.11.04.06.06.12.02.06.03.13.01.07.01.14 0 .07-.02.13-.02.07-.04.13-.03.06-.07.12-.04.06-.1.1-.05.05-.1.08-.06.04-.13.06-.06.03-.13.04-.07.01-.14 0-.06 0-.13-.02-.07-.01-.13-.04-.06-.03-.12-.07-.05-.04-.1-.09-.05-.05-.08-.11-.04-.06-.06-.12-.02-.07-.03-.14-.01-.06-.01-.13 0-.07.02-.14.01-.07.04-.13.03-.06.07-.11.04-.06.09-.1.05-.04.11-.08.06-.03.13-.06.06-.02.13-.03.07-.01.14-.01.06 0 .13.02.07.02.13.05.06.03.12.07.05.04.1.08.04.05.08.11.04.06.06.12.02.06.03.13.01.07.01.14 0 .07-.02.13-.02.07-.04.13-.03.06-.07.12-.04.06-.1.1-.05.05-.1.08-.06.04-2.04.9-1.97.86-2.03.6-.06-.26-.07-.34-.01-.07.2-.07.21 0 .42 0 .22 0 .46 0 .25 0 .67 0 .42 0 .84.01.43.01.91.05.48.04.93.21.43.17 1.01.21.59.04 1.01.21.42.17.85.2.43.03 1.01.2.58.18 1.02.21.43.04.88.2.44.16 1.04.14.59-.01 1.38-.06.79-.04 1.62-.28.82-.23 1.9-.63 1.07-.4 2.35-.78 1.28-.37 2.59-.55 1.3-.17 2.64-.18 1.34-.01 2.97-.05 1.63-.04 3.25-.23 1.61-.2 3.98-.37 2.36-.16 3.33-.16.97-.01 1.62-.01.65 0 1.44 0 .79 0 1.42 0 .63 0 1.3 0 .67 0 1.54 0 .86 0 1.9 0 1.03 0 2.06.01 1.03 0 2.05 0 1.02 0 1.97 0 .96 0 1.61 0 .66 0 1.45.01.78 0 1.43.04.65.04 1.09.21.45.16 1 .15.56 0 1.17 0 .62-.01 1.2-.01.58-.01 1.03-.04.45-.03 1.24-.2.79-.18 1.41-.21.62-.03 1.28-.21.65-.17 1.42-.2.78-.04 1.37-.2.59-.17 1.09-.2.5-.04 1.3-.2.8-.17 1.46-.16.66.01 1.32.06.66.06 1.14.3.49.24.95.48.47.25 1.04.62.58.37.99.58.41.21.86.49.46.28.91.72.44.44.86.86.41.41.82.82.42.42.83.83.41.41.83.83.41.41.82.84.41.42.82.89.41.47.66.98.24.52.48 1.16.24.64.6 1.37.36.73.57 1.15.21.41.41.85.21.44.4.97.18.53.19 1.21 0 .68 0 1.3 0 .62 0 1.24 0 .62 0 1.23 0 .61.01 1.2 0 .58 0 1.03.01.45.04 1.04.03.59.2 1.27.16.67.16 1.58.01.9.01 1.89 0 .99-.01 1.82 0 .83-.01 1.65-.01.83-.07 1.68-.05.85-.34 1.55-.28.71-.75 1.35-.47.64-.96 1.09-.5.45-1.13.85-.63.4-1.11.62-.48.23-1.06.43-.57.21-.98.41-.4.2-.87.41-.46.22-1.03.42-.58.21-.96.41-.39.19-.76.41-.38.22-.81.59-.43.38-.95.6-.52.21-.93.25-.42.03-.84.21-.41.17-.87.22-.46.05-1.02.27-.55.22-1.19.62-.65.4-1.48.78-.83.39-1.51.57-.69.18-1.32.19-.63 0-1.07.01-.45.01-1.01.04-.57.04-1.15.24-.58.2-1.21.43-.63.24-1.41.61-.78.37-1.37.58-.59.21-1.04.41-.45.21-1.04.42-.59.2-1.07.41-.48.2-1.21.38-.73.18-1.61.18-.88 0-1.75 0-.86-.01-1.89-.04-1.03-.04-1.89-.21-.85-.16-1.82-.17-.97 0-1.83-.04-.86-.04-1.69-.21-.83-.18-1.66-.22-.83-.04-1.69-.25-.86-.22-1.7-.42-.83-.21-1.69-.41-.86-.21-1.89-.41-1.02-.21-2.06-.41-1.03-.21-2.05-.41-1.01-.19-1.97-.35-.96-.16-1.75-.16-.79 0-1.57 0-.79 0-1.41 0-.62 0-1.24 0-.62 0-1.24 0-.62 0-1.24 0-.62 0-1.25 0-.63 0-1.29 0-.66 0-1.48 0-.81 0-1.6 0-.79 0-1.41 0-.62 0-1.24 0-.62 0-1.23 0-.62 0-1.24 0-.62 0-1.24 0-.62 0-1.24 0-.61 0-1.2 0-.58 0-1.04 0-.46 0-1.07 0-.63 0-1.3.01-.66.01-1.5.04-.84.03-1.88.2-1.04.18-2.11.22-1.07.04-2.24.24-1.18.21-2.24.41-1.06.21-2.22.4-1.15.2-2.02.37-.86.17-1.76.17-.9 0-1.9 0-1.01 0-1.92 0-.91 0-2.15 0-1.24 0-2.48 0-1.24 0-2.47 0-1.23 0-2.42-.01-1.2-.01-2.23-.05-1.03-.05-1.87-.26-.83-.22-1.49-.43-.65-.2-1.44-.41-.8-.2-1.46-.4-.66-.2-1.48-.36-.82-.16-1.85-.2-1.03-.03-2.05-.19-1.03-.17-2.03-.17-.99 0-1.99.01-.99 0-1.82 0-.84 0-1.69 0-.86.01-1.82.04-.97.04-1.84.21-.87.17-1.91.22-1.04.04-2.09.24-1.06.2-2.29.41-1.23.2-2.42.4-1.19.2-2.21.37-1.01.16-1.84.15-.82 0-1.5-.06-.68-.06-1.37-.36-.69-.3-1.16-.76-.46-.45-.87-.87-.41-.42-.82-.85-.4-.44-.62-.8-.22-.36-.62-.67-.4-.3-.65-.9-.26-.61-.62-1-.37-.38-.57-.75-.2-.36-.37-.53-.18-.16-.39-.36-.22-.19-.64-.48-.42-.3-.68-.78-.25-.48-.46-.88-.2-.39-.38-.69-.18-.3-.56-.57-.38-.27-.47-.62-.08-.34-.28-.76-.19-.41-.4-.99-.2-.57-.4-.97-.2-.4-.4-.82-.2-.43-.39-.92-.19-.49-.2-.98 0-.49.01-.96 0-.48.04-1.17.04-.7.21-1.52.18-.82.22-1.65.04-.83.26-1.66.21-.83.42-1.46.21-.63.41-1.24.2-.62.36-1.2.16-.58.2-1.24.04-.65.26-1.47.22-.83.43-1.46.21-.63.42-1.23.22-.6.42-1.05.21-.45.42-1.03.21-.59.44-1.03.23-.44.5-.89.26-.46.65-.87.38-.41.67-.82.29-.42.79-.66.49-.24.68-.26.18-.02.43-.2.25-.18.6-.21.35-.03.49-.19.14-.15.49-.38.35-.23.81-.27.45-.05.89-.21.43-.17.94-.18.52-.01 1.1-.01.59 0 1.03 0 .45 0 1.04 0 .58 0 1.03 0 .44 0 1-.01.57-.01.92-.04.35-.03.77-.23.42-.19 1.07-.43.65-.24 1.43-.62.78-.37 1.37-.58.59-.2 1.05-.41.46-.21 1.11-.42.64-.2 1.32-.38.67-.18 1.35-.18.68 0 1.36.01.67.01 1.57.05.9.04 1.96.24 1.06.2 2.08.37 1.03.16 2.17.16 1.14 0 1.99 0 .86 0 1.86.01.99 0 1.82.04.84.04 1.49.2.66.16 1.44.16.79 0 1.62.01.84.01 1.7.05.87.04 1.72.25.86.2 1.64.36.79.16 1.59.15.8 0 1.65-.01.85 0 1.81-.03.96-.04 1.78-.21.83-.17 1.66-.2.83-.04 1.66-.2.83-.17 1.7-.18.86-.01 1.7-.05.83-.04 1.85-.23 1.03-.2 2.12-.37 1.1-.17 2.32-.17 1.23 0 2.24-.01 1.02-.01 1.96-.05.94-.03 1.68-.23.73-.19 1.34-.39.61-.2 1.23-.37.63-.18 1.08-.17.45 0 .77.06.32.07.5.23.18.15.36.17.19.01.32.12.14.1-.19.01-.34-.09 0 .49.34.59.18.68-.15.09-.33.09-.18 0-.34-.09-.16-.09-.01-.67.16-.59-.09-.33-.24.25-.08-.41.17-.65.17-.65h0z"/></svg>