<svg xmlns="http://www.w3.org/2000/svg" viewBox="2.62 2.65 474.66 474.93" width="474.66" height="474.93"><path fill="#000" fill-rule="nonzero" d="M 315.01 13.46 L 325.11 19.38 L 334.57 25.80 L 356.64 42.95 L 381.01 63.33 L 391.46 73.01 L 402.10 83.62 L 413.05 95.08 L 426.52 110.19 L 433.66 119.06 L 440.26 128.35 L 452.98 149.13 L 457.00 156.46 L 463.34 170.02 L 465.64 175.82 L 468.61 184.72 L 470.88 193.33 L 474.40 212.56 L 475.49 221.22 L 475.94 226.46 L 476.28 235.70 L 476.21 241.07 L 475.36 253.92 L 473.59 268.19 L 470.16 286.32 L 466.49 300.73 L 462.73 312.89 L 460.64 318.67 L 458.50 323.97 L 455.73 330.18 L 441.93 357.83 L 437.44 365.56 L 433.14 372.05 L 430.03 376.33 L 418.83 390.35 L 411.30 398.64 L 404.98 404.86 L 391.03 417.04 L 378.18 427.47 L 365.58 436.45 L 354.89 443.25 L 338.73 452.46 L 326.35 458.59 L 318.12 462.09 L 311.89 464.38 L 302.57 467.25 L 288.48 470.67 L 266.77 474.25 L 261.13 474.89 L 245.99 476.16 L 233.75 476.58 L 225.37 476.48 L 218.65 476.12 L 208.81 475.08 L 202.12 474.02 L 186.02 470.41 L 177.55 467.89 L 169.59 465.04 L 164.31 462.87 L 154.34 458.10 L 146.68 453.76 L 120.81 437.90 L 116.55 434.97 L 111.19 430.96 L 100.95 422.30 L 92.07 413.64 L 82.13 402.29 L 65.21 380.14 L 50.47 358.71 L 42.63 347.75 L 34.23 334.01 L 26.32 318.95 L 22.59 310.27 L 19.28 300.95 L 16.72 291.89 L 11.08 266.22 L 5.51 238.65 L 3.93 226.50 L 3.62 218.71 L 3.80 211.70 L 4.56 203.50 L 6.28 191.72 L 7.34 186.01 L 14.57 153.97 L 15.57 150.48 L 19.44 139.48 L 23.19 131.13 L 24.92 127.75 L 30.22 118.62 L 36.68 108.74 L 41.25 102.52 L 46.79 95.98 L 56.63 85.91 L 71.95 71.12 L 79.01 65.18 L 88.97 57.47 L 95.66 52.69 L 117.81 38.69 L 123.29 35.68 L 136.08 29.93 L 163.67 19.29 L 179.09 13.91 L 189.01 11.20 L 196.18 9.92 L 211.02 8.29 L 224.88 7.58 L 253.82 6.46 L 256.89 6.45 L 267.89 4.19 L 272.66 3.73 L 275.29 3.65 L 280.04 3.74 L 283.69 3.99 L 284.88 3.90 L 287.92 4.09 L 289.56 4.47 L 291.64 5.23 L 295.45 6.08 L 299.86 7.28 L 305.81 9.31 L 314.14 13.02 Z M 283.80 18.06 L 275.78 19.72 L 271.07 20.21 L 258.87 20.40 L 257.91 20.60 L 256.79 20.64 L 255.19 20.41 L 231.32 21.42 L 217.58 21.83 L 204.22 22.99 L 196.38 24.01 L 192.37 24.77 L 188.24 25.77 L 177.66 29.08 L 144.83 41.50 L 134.43 45.80 L 127.00 49.53 L 119.45 54.06 L 100.77 66.14 L 85.57 77.83 L 79.54 83.13 L 64.39 97.82 L 53.45 109.65 L 47.62 117.48 L 39.98 129.46 L 37.12 134.57 L 32.98 143.28 L 29.97 151.29 L 26.99 161.81 L 22.99 180.02 L 21.52 186.42 L 19.18 199.57 L 17.96 209.62 L 17.58 217.54 L 17.85 225.44 L 19.01 234.76 L 27.65 277.13 L 31.46 292.97 L 34.21 301.48 L 38.93 312.94 L 43.83 322.49 L 52.16 336.83 L 83.37 381.21 L 95.98 397.11 L 101.14 402.89 L 108.27 410.04 L 114.70 415.79 L 120.25 420.32 L 122.46 422.00 L 131.22 428.01 L 154.98 442.46 L 162.87 446.79 L 170.72 450.43 L 176.39 452.69 L 189.83 456.96 L 198.76 459.13 L 212.98 461.54 L 220.08 462.23 L 226.90 462.55 L 238.39 462.53 L 255.40 461.43 L 273.50 459.21 L 286.43 456.83 L 300.22 453.40 L 317.45 447.26 L 334.17 439.06 L 344.52 433.19 L 355.77 426.18 L 362.13 421.90 L 367.35 418.14 L 374.96 412.22 L 394.11 395.88 L 398.71 391.52 L 404.99 384.94 L 414.84 373.20 L 420.20 366.14 L 424.36 360.08 L 429.22 351.95 L 443.34 323.69 L 446.85 315.58 L 450.48 305.41 L 455.08 289.38 L 457.53 278.58 L 459.25 269.36 L 461.23 254.91 L 462.19 242.21 L 462.31 234.61 L 461.95 226.50 L 460.15 211.62 L 457.66 198.20 L 455.69 190.31 L 453.24 182.61 L 449.40 172.94 L 446.76 167.22 L 441.37 156.95 L 431.21 140.07 L 425.32 131.29 L 419.20 123.24 L 405.58 107.59 L 389.07 90.30 L 371.10 73.22 L 353.60 58.53 L 336.31 44.60 L 321.88 33.97 L 314.56 29.27 L 309.32 26.25 L 304.55 23.90 L 296.67 20.90 L 293.38 19.96 L 291.74 19.54 L 290.74 19.78 L 289.33 19.83 L 287.76 19.50 L 286.64 19.07 L 285.72 18.53 L 285.41 18.29 Z M 243.46 179.09 L 244.19 187.07 L 254.74 187.45 L 266.61 188.56 L 269.30 188.90 L 274.55 189.07 L 278.22 189.46 L 282.10 189.79 L 283.88 190.02 L 287.74 190.16 L 289.71 190.58 L 301.65 190.70 L 304.66 190.33 L 330.07 190.52 L 331.71 190.16 L 339.24 190.09 L 341.08 189.76 L 342.70 189.68 L 350.60 189.74 L 352.02 189.41 L 353.56 189.30 L 355.30 189.30 L 356.86 188.96 L 357.92 188.86 L 359.30 188.90 L 360.35 189.09 L 361.54 189.54 L 363.00 190.51 L 364.00 191.51 L 364.67 192.51 L 365.10 193.48 L 365.45 195.16 L 365.49 196.22 L 365.45 196.65 L 366.13 200.44 L 366.29 203.19 L 366.03 208.64 L 365.02 214.82 L 363.58 222.20 L 362.80 232.55 L 362.10 259.69 L 362.17 265.12 L 362.48 266.79 L 363.03 268.87 L 363.15 270.65 L 362.87 272.44 L 362.37 273.77 L 361.65 274.97 L 359.60 277.22 L 358.38 278.12 L 357.44 278.62 L 356.43 278.96 L 354.95 279.19 L 352.82 279.21 L 351.64 279.54 L 351.02 279.62 L 349.66 280.01 L 348.13 280.14 L 341.51 280.10 L 340.21 280.42 L 336.78 280.97 L 331.16 280.90 L 329.85 280.72 L 328.70 280.44 L 323.06 280.49 L 320.58 281.10 L 318.80 281.28 L 314.04 281.06 L 309.48 280.26 L 307.51 280.29 L 305.66 280.61 L 298.55 280.49 L 294.72 280.16 L 290.03 280.18 L 286.35 280.79 L 284.36 280.92 L 270.45 280.36 L 260.61 280.47 L 253.28 281.09 L 243.07 281.07 L 242.91 290.60 L 242.58 292.83 L 242.30 310.88 L 241.97 313.12 L 240.92 317.55 L 240.43 319.01 L 240.36 325.05 L 241.84 325.40 L 243.10 326.05 L 243.93 326.71 L 244.85 327.78 L 245.50 329.04 L 245.85 330.41 L 245.89 331.82 L 245.71 332.87 L 245.36 333.87 L 244.64 335.09 L 243.66 336.11 L 242.48 336.89 L 241.69 337.25 L 240.46 338.44 L 239.58 339.04 L 238.28 339.59 L 237.24 339.80 L 234.55 339.91 L 233.20 339.73 L 231.87 339.26 L 230.82 338.65 L 230.34 338.29 L 229.38 337.85 L 228.25 337.04 L 226.96 336.36 L 225.05 334.98 L 222.06 332.64 L 220.78 331.29 L 219.76 329.90 L 219.39 329.30 L 217.84 327.90 L 215.87 327.06 L 211.32 324.27 L 209.87 323.65 L 206.46 321.48 L 204.89 320.18 L 203.21 318.57 L 202.20 317.69 L 200.52 315.78 L 196.60 312.42 L 190.88 308.52 L 187.59 305.59 L 182.93 300.64 L 181.17 299.26 L 177.32 296.66 L 172.28 292.29 L 168.41 288.65 L 158.13 280.71 L 155.17 277.91 L 144.90 271.23 L 142.30 268.95 L 139.91 266.28 L 138.09 264.13 L 135.07 261.70 L 128.20 257.89 L 125.92 256.25 L 124.28 254.76 L 122.50 252.70 L 121.71 251.62 L 118.54 246.99 L 117.01 245.61 L 110.34 240.90 L 108.30 239.05 L 107.04 238.70 L 105.79 238.04 L 104.96 237.37 L 104.06 236.28 L 103.56 235.34 L 103.22 234.34 L 103.06 233.29 L 103.17 230.45 L 103.58 228.91 L 104.18 227.72 L 104.81 226.86 L 105.57 226.12 L 106.47 225.51 L 106.63 224.57 L 106.98 223.57 L 107.70 222.35 L 108.41 221.56 L 109.55 220.71 L 110.84 220.14 L 112.23 219.87 L 113.65 219.92 L 114.89 220.25 L 122.40 214.06 L 133.50 206.19 L 140.37 200.17 L 142.79 198.33 L 151.64 192.56 L 154.01 190.22 L 157.51 186.41 L 160.83 183.69 L 165.43 180.70 L 170.86 177.45 L 171.61 176.73 L 174.27 173.62 L 178.29 170.16 L 185.78 165.10 L 187.65 163.42 L 192.16 158.31 L 194.69 156.14 L 197.18 154.58 L 200.13 153.13 L 204.19 149.81 L 206.87 146.89 L 209.06 144.77 L 210.94 143.47 L 215.27 141.30 L 217.15 139.35 L 220.16 135.41 L 221.57 133.92 L 222.51 132.73 L 223.55 131.73 L 225.66 130.34 L 227.80 129.45 L 228.96 129.14 L 229.59 129.05 L 232.48 126.45 L 233.20 125.98 L 234.20 125.12 L 235.59 124.33 L 236.60 123.99 L 237.94 123.80 L 239.58 123.93 L 240.94 124.31 L 242.31 125.06 L 243.12 125.75 L 244.24 127.14 L 244.85 128.41 L 245.14 129.43 L 245.23 131.26 L 245.09 132.31 L 244.84 133.16 L 244.78 134.66 L 244.43 136.03 L 243.71 137.43 L 243.54 140.16 L 243.29 141.22 L 243.59 142.91 L 243.54 145.25 L 243.19 147.25 L 242.88 148.26 L 243.52 150.63 L 243.87 153.55 L 243.67 167.78 L 243.38 171.94 L 243.40 177.65 Z M 222.46 153.29 L 217.95 155.55 L 213.28 160.43 L 209.22 163.79 L 207.20 165.17 L 205.67 165.99 L 203.46 167.07 L 202.86 167.47 L 201.64 168.58 L 197.88 172.93 L 194.78 175.80 L 186.25 181.67 L 183.45 184.25 L 181.75 186.34 L 179.83 188.15 L 178.46 189.20 L 176.05 190.69 L 170.75 193.85 L 167.51 196.19 L 162.57 201.49 L 159.59 204.06 L 149.90 210.42 L 140.79 218.21 L 131.14 224.96 L 123.14 231.54 L 122.72 232.55 L 126.81 235.57 L 128.95 237.67 L 133.56 244.17 L 134.58 245.27 L 135.44 245.94 L 142.38 249.78 L 147.33 253.63 L 152.21 259.12 L 154.91 261.22 L 163.36 266.60 L 164.74 267.70 L 167.24 270.12 L 178.22 278.66 L 185.77 285.54 L 190.60 288.86 L 194.15 292.04 L 197.65 295.88 L 199.87 297.80 L 206.06 302.08 L 210.03 305.56 L 212.07 307.76 L 214.55 310.08 L 216.18 311.18 L 217.42 311.69 L 222.29 314.65 L 224.94 315.70 L 226.07 316.39 L 226.63 316.82 L 227.08 314.88 L 228.34 310.07 L 228.63 291.84 L 228.88 289.96 L 228.99 289.45 L 229.13 279.03 L 228.25 277.87 L 227.79 276.91 L 227.44 275.54 L 227.41 274.13 L 227.59 273.08 L 227.95 272.08 L 228.47 271.16 L 229.14 270.33 L 230.00 269.59 L 230.90 268.65 L 232.08 267.86 L 234.03 267.19 L 235.08 267.04 L 252.94 267.14 L 262.56 266.39 L 277.18 266.51 L 284.12 266.96 L 289.52 266.21 L 295.76 266.23 L 303.82 266.72 L 304.28 266.70 L 306.22 266.37 L 307.58 266.30 L 310.79 266.36 L 315.92 267.23 L 318.21 267.34 L 320.41 266.76 L 322.95 266.49 L 330.81 266.55 L 332.39 266.86 L 332.82 267.00 L 335.53 267.04 L 337.70 266.66 L 338.91 266.35 L 341.17 266.13 L 346.89 266.17 L 347.60 265.99 L 348.20 265.10 L 348.29 247.15 L 349.18 226.40 L 350.12 217.80 L 352.04 208.00 L 352.32 203.68 L 342.64 203.65 L 340.83 204.02 L 339.96 204.08 L 333.88 204.04 L 332.52 204.36 L 331.18 204.48 L 305.01 204.31 L 302.53 204.65 L 288.64 204.50 L 286.93 204.30 L 285.93 204.05 L 281.49 203.82 L 272.62 202.95 L 266.42 202.67 L 261.18 201.93 L 251.70 201.29 L 244.31 201.10 L 236.69 200.16 L 233.11 200.09 L 231.74 199.74 L 230.78 199.28 L 229.65 198.43 L 228.94 197.63 L 228.38 196.73 L 227.88 195.41 L 227.69 194.01 L 227.75 192.95 L 228.11 191.58 L 228.58 190.62 L 229.20 189.76 L 230.32 188.74 L 229.49 179.34 L 229.41 176.21 L 229.59 168.38 L 229.85 163.96 L 229.94 154.16 L 229.76 153.17 L 229.21 151.30 L 228.93 148.92 L 228.94 146.89 L 227.28 148.98 L 224.06 152.17 L 222.86 153.05 Z"/></svg>