<svg preserveAspectRatio="none" xmlns="http://www.w3.org/2000/svg" viewBox="2.62 2.65 474.66 474.93" width="474.66" height="474.93"><path fill="#000" d="M 271.00 10.15 L 278.06 9.95 L 283.78 10.31 L 285.23 10.18 L 286.74 10.26 L 287.67 10.46 L 288.73 10.84 L 289.24 11.15 L 293.90 12.17 L 298.03 13.29 L 303.52 15.16 L 311.28 18.62 L 320.04 23.62 L 330.86 30.87 L 352.65 47.81 L 376.83 68.02 L 387.08 77.52 L 397.59 88.00 L 408.42 99.33 L 421.72 114.25 L 428.69 122.91 L 435.01 131.81 L 446.77 150.92 L 451.40 159.32 L 457.53 172.42 L 459.73 177.96 L 462.58 186.48 L 464.75 194.71 L 468.18 213.45 L 469.24 221.85 L 469.67 226.84 L 470.00 235.83 L 469.93 240.82 L 469.11 253.29 L 467.38 267.20 L 464.03 284.92 L 460.46 298.97 L 456.79 310.83 L 454.79 316.38 L 452.74 321.46 L 450.06 327.47 L 436.41 354.82 L 432.15 362.16 L 428.01 368.42 L 425.02 372.54 L 415.03 385.13 L 406.79 394.26 L 400.73 400.23 L 387.04 412.18 L 374.33 422.50 L 362.12 431.20 L 351.64 437.87 L 335.82 446.89 L 323.79 452.85 L 315.87 456.22 L 306.12 459.65 L 295.64 462.58 L 282.82 465.39 L 266.02 468.01 L 260.50 468.64 L 245.61 469.89 L 233.62 470.30 L 225.62 470.20 L 219.15 469.86 L 206.23 468.34 L 191.55 465.35 L 179.42 461.89 L 171.88 459.19 L 166.86 457.13 L 157.35 452.58 L 149.99 448.42 L 122.69 431.59 L 117.44 427.84 L 110.46 422.27 L 105.20 417.67 L 96.64 409.32 L 87.04 398.36 L 70.34 376.51 L 55.56 355.02 L 47.86 344.26 L 39.72 330.95 L 32.02 316.29 L 28.46 308.02 L 25.28 299.08 L 22.82 290.40 L 17.24 264.96 L 11.70 237.54 L 10.20 226.12 L 9.90 218.58 L 10.25 209.63 L 11.38 199.83 L 12.47 192.81 L 13.50 187.27 L 20.60 155.73 L 22.97 148.00 L 25.25 141.88 L 28.86 133.84 L 30.44 130.76 L 34.74 123.25 L 41.83 112.34 L 46.17 106.43 L 50.38 101.39 L 59.90 91.49 L 76.13 75.81 L 88.07 66.06 L 96.68 59.62 L 120.97 44.12 L 126.10 41.30 L 138.35 35.79 L 165.92 25.16 L 180.96 19.91 L 190.27 17.36 L 197.02 16.15 L 211.51 14.56 L 225.01 13.86 L 253.95 12.74 L 257.78 12.73 L 268.28 10.48 Z"/></svg>