<svg preserveAspectRatio="none" xmlns="http://www.w3.org/2000/svg" version="1.1" viewBox="8.90 8.93 462.09 462.37" width="462.09" height="462.37"><path d="m355.414 272.288-.06.04q-.06.04-.13.059-.06.019-.131.028-.07.01-.13.009-.06 0-.13-.021-.07-.01-.13-.042-.06-.03-.119-.07-.05-.041-.099-.092-.04-.05-.079-.11-.04-.06-.059-.131-.019-.06-.028-.13-.01-.07-.01-.13.002-.06.022-.13.01-.07.041-.13t.072-.12q.04-.049.09-.098.051-.04.655-.404.613-.364.221-1.198-.392-.844-.648-2.206-.267-1.373-.302-2.953-.044-1.58-.034-3.73.011-2.16.037-4.79l.058-5.93q.032-3.29.243-6.518.211-3.228.277-5.888.066-2.65.089-5.04.033-2.379.247-4.877.195-2.508.451-5.236.247-2.728.874-5.482.626-2.754 1.133-5.479.506-2.715.624-4.524.107-1.81.141-3.239.034-1.44-.124-2.611-.17-1.172-.37-2.114-.2-.932-.347-1.363-.146-.432-.325-.514-.19-.071-.239-.112-.05-.05-.089-.11-.04-.051-.068-.121-.03-.06-.04-.12-.019-.071-.018-.141 0-.07.011-.14.011-.06.032-.13l.06-.119q.041-.06.092-.11.04-.049.1-.088.061-.04.121-.069.06-.03.13-.039.061-.02.131-.018.07 0 .14.01.07.012.13.032.07.03.12.061.059.04.108.091.05.04.09.101.039.05.068.12.03.061.039.131.02.06.019.13.009.07-.012.14-.01.07-.031.13l-.061.12q-.04.06-.081.109-.05.05-.111.089-.05.04-.11.069-.071.029-.131.038-.07.02-.14.019-.07 0-.14-.011-.06-.011-.13-.032l-.12-.06q-.06-.041-.109-.082-.05-.05-.089-.11-.04-.051-.068-.121-.03-.06-.04-.12-.019-.071-.018-.141 0-.07.011-.14.011-.06.032-.13l.06-.119q.041-.06.092-.11.04-.049.1-.088.061-.04.121-.069.06-.03.13-.039.061-.02.131-.018.07 0 .14.01.07.012.13.032.07.03.397.224.329.183.622.886.303.703.523 1.725.22 1.012.388 2.274.178 1.252.143 2.752-.034 1.51-.152 3.368-.118 1.87-.635 4.644-.517 2.776-1.134 5.5-.626 2.724-.862 5.402-.246 2.677-.46 5.155-.205 2.478-.237 4.838-.023 2.36-.09 5.03-.065 2.68-.277 5.897-.22 3.228-.243 6.498l-.057 5.91q-.026 2.63-.036 4.77-.011 2.14.024 3.65.035 1.52.283 2.773.238 1.252.626 2.476.398 1.224-.469 1.956l-.867.711Z" fill="#1e1e1e"/><path d="m240.25 192.524-4.22-.031q.07.01.139.031.06.02.12.051.06.03.119.082.05.04.089.09.05.06.079.121.029.06.048.12.02.07.03.14-.075 8.63-.002.12-.01.07-.031.14-.021.06-.052.12-.03.06-.08.12-.041.049-.092.088-.06.05-.12.08-.06.029-.12.048-.071.02-.141.029-4.34-.032-.25.007-.19-.002.163-.348.343-.347 0 0-.353.346-.602.234-.25-.102-.347-.353-.097-.241.005-.48.102-.25.353-.347.251-.107.598.246.336.353 0 0-.347-.353.003-.35.34.003 1.21.022.88.008 2.238.211 1.358.214 2.966.46 1.608.235 3.277.301 1.67.066 3.17.08l3.18.052q1.69.016 3.387.223 1.698.216 3.588.275 1.9.058 3.857.277 1.968.23 3.316.472 1.347.253 2.557.305 1.22.062 2.24.082 1.02.01 2.029.03 1.01.01 2.378.223 1.368.203 3.008.259 1.64.056 2.937.268 1.308.223 2.128.261.82.048 1.56.065l1.539.035q.79.008 1.338.213t1.178.242q.63.036 1.54.055.909.018 1.869.028l2.32.022 2.41.024 2.24.021 1.97.02q.78.007 1.721-.174.932-.18 1.742-.223.81-.032 1.75-.023.94 0 1.71.007.78-.003 1.51.004l1.28.013 1.23.012 1.41.013 1.46.015 1.65.016 1.89.018 1.74.017 1.52.015 1.66.016 1.9.018 1.74.017 1.32.013 1.24.012q.69.007 1.12.03.43.015.701-.162.282-.188.633-.244.35-.057.81-.062.47-.006.95-.001l1.16.011 1.4.014 1.45.014 1.4.013q.67.017 1.192-.168.522-.195 1.082-.23.55-.044 1.05-.05.51-.004 1 0l.97.01.98.01.97.009.78.007.55.006.5.005.49.004.48.005.49.005.49.004.48.005q.25.003.58.026.34.013.592-.164.262-.188.612-.245.35-.056.62-.064.27-.007.71-.003.45-.005.73-.003l.73.008q.44.004.66.016.21.012.632-.174.432-.186.783-.232.35-.047.68-.054.34.004.41.024.06.02.13.052.06.03.109.07.06.041.099.092.05.05.079.11.04.06.059.13.02.061.028.131.01.07-.001.14 0 .06-.021.13-.02.07-.051.13-.031.06-.072.109-.04.06-.09.099-.061.05-.121.079-.06.04-.12.059-.071.019-.131.028-.07.01-.14-.001-.07 0-.13-.021-.07-.021-.13-.052-.06-.03-.119-.07-.05-.041-.099-.092-.04-.05-.079-.11-.03-.06-.049-.131-.029-.06-.028-.13-.01-.07-.009-.14.01-.07.021-.13.021-.07.052-.13.03-.06.08-.119.041-.05.092-.089.05-.05.11-.079.06-.04.121-.059.07-.02.14-.028.07-.01.13-.01.07.012.14.032.06.02.13.052.06.03.109.07.06.041.099.092.05.05.079.11.04.06.059.13.02.061.028.131.01.07-.001.14 0 .06-.021.13-.02.07-.051.13-.031.06-.072.109-.04.06-.09.099-.061.05-.121.079-.06.04-.12.059-.071.019-.131.028-.07.01-.3.017-.24-.002-.46.026-.21.028-.683.223-.472.196-.832.202l-.8-.008-.73-.007q-.28-.002-.71.003l-.66-.006q-.21.008-.37.016-.15.019-.462.216-.312.207-.852.212-.54.015-.79.012l-.48-.005-.49-.004-.49-.005-.48-.005-.49-.005-.5-.004-.55-.006-.78-.007-.97-.01q-.49-.004-.97-.01l-.98-.009q-.48-.004-.96.001-.47.005-.91.031-.44.026-.993.22-.551.195-1.341.188-.79.002-1.52-.005l-1.45-.014-1.4-.014-1.15-.011q-.47-.005-.89.001-.41-.004-.57.015-.16.018-.493.215-.322.197-.952.21-.63.005-1.32-.002l-1.24-.012-1.32-.013-1.74-.017-1.9-.018q-.92-.01-1.66-.016l-1.52-.015-1.74-.017-1.89-.018-1.649-.016-1.46-.015-1.41-.013-1.23-.012-1.27-.013q-.74-.007-1.51-.004-.77-.008-1.7-.007-.92-.009-1.66.024-.74.033-1.692.214-.952.19-1.812.182l-2.04-.02-2.24-.021-2.41-.024-2.33-.022q-.96-.01-1.89-.029-.92-.019-1.669-.076-.76-.047-1.278-.242-.528-.206-1.208-.202-.67-.007-1.43-.024-.76-.017-1.629-.066-.87-.048-2.168-.261-1.297-.223-2.927-.268-1.64-.056-2.998-.27-1.358-.203-2.318-.212-.96-.02-2-.03-1.03-.02-2.309-.082-1.27-.062-2.637-.316-1.377-.253-3.285-.471-1.908-.219-3.808-.267-1.9-.059-3.587-.275-1.689-.207-3.338-.223l-3.16-.05q-1.51-.015-3.22-.082-1.719-.066-3.367-.322-1.647-.246-2.955-.45-1.318-.212-2.138-.22-.82.002-1.16-.001-.35-.004-.6-.116-.248-.102-.346-.353-.097-.241.005-.48.102-.25.353-.347.251-.107.441-.106l4.47.044Zm-.299 80.832-4.22-.031q.07.01.14.031.06.021.12.052.06.03.119.08.05.041.089.092.05.06.079.12.029.06.048.12.02.071.03.141-.075 8.63-.002.12-.01.07-.031.14-.021.06-.052.12-.03.059-.08.119-.041.05-.092.089-.06.05-.12.079-.06.029-.12.048-.071.02-.141.029-4.34-.032-.25.008-.19-.002.163-.349.343-.347 0 0-.353.347-.602.234-.25-.102-.347-.353-.097-.241.005-.48.102-.25.353-.347.251-.107.598.246.336.353 0 0-.347-.353.003-.35l.99.01 1.76.017 2.49.024 3.04.03 3.33.032q1.69.016 3.57.045 1.88.018 3.991-.162 2.122-.17 4.114-.39 2.002-.21 3.783-.243 1.78-.033 3.69-.014 1.92.008 4.05.02l4.33.041q2.2.022 4.588.245 2.378.213 3.787.267 1.42.053 2.642-.115 1.221-.168 2.274-.398 1.052-.22 2.272-.258 1.21-.038 3.03-.03 1.82.007 3.739.216 1.918.219 3.657.266 1.73.056 2.99.079 1.27.022 1.911-.162.642-.184 1.212-.218.57-.045 1.27-.038.7-.003 1.46.004.75.008 1.899.219 1.158.211 2.326.452 1.167.242 2.357.293 1.18.052 1.95.08.779.017 1.48-.156.693-.184 1.465-.416.772-.233 1.753-.273.97-.04 1.95-.041.97 0 1.75.007t1.32.003l1.05.01q.49.005 1.08.03.6.016.898.22.308.202.658.225.35.024.81.038.47.015.95.02l1.17.01q.679.008 1.339.024.66.006 1.182-.179.522-.185 1.212-.218t1.212-.228q.532-.195 1.083-.24.56-.044 1.06-.05.5-.004.8-.002l.74.008.73.007.54.005.69.007.73.007.72.007.73.007.54.005q.25.003.38.024t.351-.167q.222-.178.573-.244.35-.067.62-.074.27-.008.4.014.14.021.352-.157.222-.188.582-.254.35-.057.621-.064.27-.008.52-.005.25-.008.49-.005l.49.004.49.005.48.005q.25.002.27.082.029.07-.052.1-.08.03-.078-.16.012-.19.052-.26.051-.06-.307-.263-.358-.194-.455-.485-.108-.29-.315-.533-.208-.242-.237-.302-.03-.07-.039-.13-.02-.07-.019-.14.001-.07.012-.14.01-.06.041-.13.02-.06.061-.12.04-.06.081-.109.05-.05.111-.089.05-.04.12-.059.06-.03.131-.048.06-.01.13-.01.07.001.14.012.06.01.13.031l.12.062q.059.04.108.09.05.051.09.102.039.06.068.12.02.06.039.13.01.07.009.14.009.06-.002.13-.02.07-.041.13-.03.07-.061.13-.04.05-.091.099-.04.05-.101.089-.06.04-.12.069-.061.03-.131.038-.07.02-.13.02-.07-.002-.14-.012t-.13-.041q-.07-.021-.12-.062-.059-.03-.108-.08-.05-.051-.09-.102-.039-.06-.068-.12-.03-.07-.039-.13-.02-.07-.019-.14.001-.07.012-.14.01-.06.041-.13.02-.06.061-.12.04-.06.081-.109.05-.05.111-.089.05-.04.12-.059.06-.03.131-.048.06-.01.13-.01.07.001.14.012.06.01.13.031l.12.062q.059.04.108.09.05.051.297.354.247.302.295.502.048.2.465.495.417.294.453.714.036.41.024.69-.023.27-.207.689-.184.428-.645.493-.45.066-.7.064l-.48-.005-.49-.005-.49-.005q-.24-.002-.48.006l-.45-.005q-.22.008-.35.017-.14.009-.413.216-.272.197-.622.214-.35.017-.57.024-.22.008-.35.017-.14.009-.412.206-.272.207-.633.224-.36.016-.61.014l-.54-.005-.73-.007-.72-.007-.73-.007-.69-.007-.53-.005-.74-.007-.73-.007q-.29-.003-.77.002-.47.005-.91.031-.43.026-.962.22-.542.206-1.232.239t-1.243.218q-.542.195-1.322.197l-1.47-.014-1.17-.012q-.48-.004-.98-.02-.49-.014-1.039-.08-.539-.064-.817-.257-.278-.193-.668-.177-.39.007-.88.002l-1.05-.01q-.54.004-1.32-.003-.77-.008-1.73-.007-.95 0-1.83.032-.871.032-1.573.255-.703.213-1.514.405-.802.192-1.682.174-.88-.019-2.12-.07-1.25-.063-2.467-.305-1.217-.251-2.296-.452-1.088-.2-1.778-.197-.69-.007-1.36-.003-.68-.007-1.15.028-.47.026-1.142.21-.672.193-2.052.18-1.37-.024-3.14-.081-1.759-.057-3.667-.266-1.918-.208-3.688-.216-1.77-.007-2.91.022-1.14.03-2.153.25-1.022.22-2.324.397-1.312.177-2.801.123-1.49-.055-3.868-.258-2.378-.223-4.548-.244l-4.3-.042-4.04-.02q-1.9-.018-3.64.015-1.74.034-3.722.234-1.972.211-4.124.39-2.152.17-4.072.15-1.91-.008-3.6-.024l-3.33-.032-3.04-.03-2.49-.024-1.76-.017-.99-.01q-.35-.003-.598-.116-.25-.102-.347-.353-.097-.241.005-.48.102-.25.353-.347.251-.107.441-.105l4.47.043Z" fill="#1e1e1e"/><path d="m237.152 193.501-.07.01q-.07.019-.14.018-.05 0-.12-.011-.07-.01-.13-.031-.07-.031-.13-.072-.049-.03-.098-.08-.05-.051-.09-.102-.039-.06-.068-.12-.03-.06-.039-.13-.02-.07-.019-.14.001-.05.012-.12.01-.07.03-.13.032-.07.072-.13.03-.05.081-.099.05-.05.101-.089.06-.04.12-.069.061-.03.392-.106.34-.087.31-.017-.03.07-.149-.161-.117-.232-.287-1.253-.18-1.022-.355-2.604-.175-1.572-.347-3.403-.172-1.842-.342-3.884-.17-2.052-.19-4.142-.01-2.09 0-4.19.011-2.11.177-3.739.166-1.638.208-2.858.041-1.22.064-2.52l.026-2.63q.022-1.319.037-2.799l.027-2.81q.013-1.33-.118-2.29-.13-.962-.462-1.786-.322-.833-.394-1.663-.072-.831-.074-1.671.008-.85.316-1.617.317-.777.373-1.327.055-.55.078-.859.033-.31-.115-.521-.138-.221-.183-.672-.046-.44-.041-.98-.005-.54.001-1.16.016-.62.18-1.059.155-.438.177-.618.021-.17.034-.5.004-.33.017-.7l.009-.9.01-.94.005-.64.005-.51q.013-.27.197-.678.184-.418.388-.836.214-.408.426-.666.213-.258.384-.366.151-.109.351-.107.2-.008.37.104.168.112.246.292.079.181.116.452.037.28.044.57-.002.29-.023.36-.01.06-.041.13-.03.06-.081.109-.041.06-.091.099-.05.05-.111.079-.06.04-.12.059-.07.019-.141.028-.06.01-.13-.001-.07 0-.14-.021-.06-.011-.13-.042-.06-.03-.099-.08-.06-.041-.099-.092-.05-.05-.079-.11-.04-.06-.059-.121-.019-.07-.028-.14-.01-.06-.009-.13.01-.07.031-.14.011-.06.042-.13.03-.06.08-.109.041-.06.092-.099.05-.05.1-.08.06-.038.121-.058.07-.02.14-.029.06-.009.13-.008.07.01.14.031.06.01.13.041.06.03.109.081.06.041.1.091.049.05.078.111.04.06.059.12.02.07.029.141.009.06.008.13-.01.07-.031.14-.01.06-.041.13-.03.06-.081.109-.041.06-.091.099-.05.05-.111.079-.06.04-.12.059-.07.019-.141.028-.06.01-.13-.001-.07 0-.14-.021-.06-.011-.13-.042-.06-.03-.099-.08-.06-.041-.099-.092-.05-.05-.079-.11-.04-.06-.059-.121-.019-.07-.028-.14-.01-.06-.018-.25.002-.18-.036-.42-.027-.241.22.041.237.293.083-.269-.175-.562-.004-.67.151-.109.351-.107.2-.008.37.104.168.112.246.292.079.181-.365.557-.444.386-.083.28.371-.117.2.081-.162.188-.326.517-.163.328-.285.597-.123.259-.114.39.008.13.006.36l-.006.64-.01.94-.008.909q-.014.37-.017.75-.014.37-.057.66-.042.289-.196.678-.144.398-.149.888l.01 1.01q-.005.51.003.77.017.25.165.512.157.261.152.791-.005.54-.082 1.21-.076.669-.383 1.406-.307.727-.294 1.407.014.68.067 1.391.053.7.375 1.514.322.803.462 1.894.149 1.102.135 2.482-.003 1.39-.017 2.86-.015 1.48-.038 2.81l-.025 2.63q-.023 1.31-.065 2.569-.042 1.25-.208 2.868-.156 1.628-.166 3.688-.01 2.06 0 4.12t.18 4.083q.171 2.021.343 3.843.163 1.832.338 3.374.175 1.551.325 2.483.161.941.307 1.393.146.451-.079.88-.214.417-.786.632l-.572.214Z" fill="#1e1e1e"/><path d="m112.715 226.019-.031 4.22q.01-.07.031-.14.021-.06.052-.12.03-.06.08-.119.041-.05.092-.089.06-.05.12-.079.06-.03.12-.049.071-.019.141-.028 8.63.073.12 0 .07.012.14.032.06.02.12.051.059.03.119.082.05.04.089.09.05.06.079.121.029.06.048.12.02.07.029.14-.032 4.34-.074.43-.084.37-.264.428-.17.048-.202.208-.032.16-.182.188-.16.028-.192.188t-.192.188q-.16.029-.12.1.029.06-.174.317-.212.258-.238-.232-.015-.48-.02.02.005.51-.236.608-.24.097-.49-.005-.239-.092-.347-.333-.107-.232.485-.506.593-.264.103-.269-.48.006-.046-.42.444-.426 1.29-1.098.837-.682 2.079-1.87 1.242-1.188 2.874-2.482 1.633-1.294 3.176-2.6 1.542-1.294 2.934-2.47 1.391-1.167 2.75-2.154 1.35-.987 2.7-1.934 1.339-.947 2.678-1.884 1.34-.937 2.96-2.012 1.62-1.074 3.154-2.469 1.544-1.405 3.077-2.74 1.543-1.345 2.944-2.532 1.402-1.176 3.062-2.17 1.66-.984 3.21-2.08 1.55-1.094 2.909-1.89 1.367-.808 2.517-1.837 1.15-1.028 2.141-2.129.991-1.1 1.972-2.24.981-1.141 2.131-2.14 1.14-1.01 2.76-2.114 1.621-1.114 3.482-2.236 1.861-1.122 3.58-2.075 1.71-.954 2.769-1.843 1.059-.9 1.728-1.824.679-.933 1.447-1.746.778-.822 2.028-1.9 1.24-1.078 2.57-2.045 1.34-.977 2.829-1.923 1.49-.945 2.677-1.714 1.187-.768 2.024-1.5.828-.742 1.595-1.475.757-.733 1.364-1.467.597-.734 1.346-1.647.75-.923 1.537-1.725.778-.802 1.736-1.593.957-.79 2.103-1.41 1.136-.619 2.1-1.03.964-.4 1.87-1.051.917-.651 1.563-1.235.646-.584 1.381-1.147.746-.563 1.472-1.246.737-.693 1.344-1.427.607-.744 1.355-1.507.747-.762 1.545-1.545.808-.792 1.772-1.272l1.749-.854q.794-.392 1.818-.882 1.015-.49 1.652-1.164.626-.664 1.363-1.397.737-.723 1.173-1.298.436-.576.831-1.152.406-.567.963-1.301.557-.745 1.133-1.35.586-.614.98-1.01.404-.386.627-.764.234-.377.537-.695.303-.327.514-.375.21-.057.543-.364.343-.297.614-.384.26-.078.643-.254.381-.166.832-.212.44-.036.73-.023.3.013.451-.106.151-.118.523-.315.372-.186.714-.353.341-.166.523-.315.191-.158.373-.336.192-.178.384-.366.191-.178.535-.525.343-.337.605-.584.253-.248.544-.385.291-.137.404-.366.102-.229.343-.317.24-.077.442-.245.192-.159.291-.128.1.031.132-.128.041-.15.191-.178.15-.029.111-.07-.04-.05-.009-.11.03-.06.081-.109.04-.05.091-.099.06-.04.12-.069.061-.03.121-.049.07-.019.14-.028.06-.01.13.001.07.01.14.031.06.021.12.052.06.03.119.08.05.041.09.092.049.06.078.12.03.06.049.12.02.071.028.141v.13q-.011.07-.032.14-.02.06-.051.12l-.081.119q-.041.05-.101.089-.05.05-.111.079-.06.029-.13.048-.06.02-.13.03l-.14-.002q-.07-.011-.13-.032-.07-.02-.13-.05-.06-.041-.11-.082-.049-.04-.098-.1-.04-.051-.07-.112-.029-.06-.048-.13-.02-.06-.029-.13-.009-.07.002-.14.01-.07.03-.13.022-.07.052-.13t.081-.109q.04-.05.091-.099.06-.04.12-.069.061-.03.121-.049.07-.019.14-.028.06-.01.13.001.07.01.14.031.06.021.12.052.06.03.119.08.05.041.09.092.049.06.078.12.03.06.049.12.02.071.028.141v.13q-.011.07-.145.409-.133.329-.293.367-.16.038-.212.198-.042.16-.323.247-.27.097-.452.245-.172.149-.271.138-.09-.011-.122.149-.041.15-.444.395-.402.246-.594.435-.182.178-.525.525-.343.336-.545.524-.192.188-.404.386-.212.198-.474.416-.272.217-.684.423-.402.206-.734.373-.332.167-.633.354-.302.177-.772.192l-.76.043q-.3.017-.622.164-.312.157-.492.195-.17.039-.524.345-.343.317-.523.355-.17.028-.272.167-.101.13-.345.527-.244.398-.688.844-.444.445-.99 1.02-.556.575-1.082 1.27-.517.695-.923 1.27-.395.567-.871 1.192-.476.626-1.244 1.388-.757.753-1.475 1.496-.717.743-1.842 1.302-1.126.55-1.92.942-.793.382-1.657.803-.864.412-1.571 1.125-.717.713-1.444 1.446-.718.743-1.335 1.487-.617.754-1.415 1.497-.787.742-1.532 1.305-.736.573-1.402 1.166-.655.584-1.662 1.304-1.007.71-2.002 1.14-1.004.421-2.06.99-1.045.58-1.922 1.302-.877.722-1.614 1.475-.738.763-1.457 1.656l-1.366 1.656q-.627.764-1.435 1.537-.797.772-1.675 1.553-.888.782-2.115 1.58-1.238.798-2.717 1.734-1.47.935-2.769 1.873-1.289.947-2.479 1.986-1.2 1.038-1.928 1.791-.717.763-1.416 1.717-.7.963-1.87 1.952-1.17.998-2.929 1.981-1.77.983-3.6 2.085-1.83 1.103-3.401 2.177-1.57 1.075-2.64 2.015-1.08.95-2.03 2.06-.961 1.11-1.982 2.241-1.021 1.13-2.252 2.228-1.24 1.098-2.629 1.925-1.398.826-2.948 1.921-1.551 1.095-3.18 2.06-1.64.974-2.991 2.12-1.351 1.148-2.884 2.473-1.523 1.325-3.097 2.76-1.574 1.435-3.225 2.529-1.66 1.103-2.99 2.03-1.34.938-2.668 1.875-1.34.947-2.669 1.914-1.33.977-2.7 2.124-1.372 1.157-2.925 2.462-1.553 1.315-3.165 2.589-1.623 1.284-2.854 2.472-1.242 1.168-2.098 1.85-.837.682-1.25 1.088-.415.406-.656.504-.24.097-.49-.005-.239-.092-.347-.333-.107-.232-.025-.48.093-.25.204-.359.1-.099.203-.358.102-.249.263-.277.16-.029.192-.188.031-.16.191-.189.15-.028.182-.188.032-.14.162-.148.13-.009.05.06l-.04-4.21Z" fill="#1e1e1e"/><path d="m115.746 231.524-4.22-.031q.07.01.14.031.06.02.12.051.06.03.119.081.05.04.089.091.05.06.079.121.03.06.049.12.019.07.028.14-.073 8.63 0 .12-.012.07-.032.14-.02.06-.051.12-.03.06-.082.12-.04.049-.09.088-.06.05-.121.08-.06.029-.12.048-.07.02-.14.029-4.34-.033-.33-.024-.27-.022-.558-.245-.298-.223-.417-.354-.109-.121-.199-.122-.1-.011.272-.177.372-.167-.189-.112-.57.054-.659-.137-.078-.2-.036-.41.042-.21.204-.348.161-.148.606.346.446.494.41.084-.047-.4.19-.128.238.272.705.617.477.334 1.201.881.725.547 1.607 1.416.881.869 2.242 1.792 1.362.923 3 2.049 1.65 1.116 2.92 2.148 1.27 1.023 2.149 2.171.879 1.159 1.648 2.307.779 1.147 1.508 2.274.739 1.118 1.6 2.066.86.948 1.893 1.728 1.033.77 2.287 1.393 1.254.612 2.268 1.202 1.014.6 2.139 1.19 1.124.592 2.275 1.493 1.161.901 2.164 1.72 1.002.81 1.813 1.759.82.948 1.581 1.895.751.937 1.622 1.866.871.928 2.072 1.86t2.94 2.039q1.75 1.107 3.3 2.102 1.55.985 2.953 1.829 1.402.833 2.302 1.782.891.949 1.942 1.879t2.62 2.045q1.56 1.106 3.386 2.563 1.826 1.448 3.404 2.674 1.578 1.215 2.658 2.246 1.08 1.02 1.893 1.828.802.808 1.863 1.728l2.3 2.013q1.24 1.082 2.84 2.077 1.601.986 2.862 1.968 1.25.992 2.27 1.972 1.02.99 1.98 2.1.95 1.119 1.722 1.926.772.818 1.803 1.728t1.985 1.55q.954.639 1.738 1.226.785.578 1.55 1.005.766.438 1.7 1.157.932.71 2.024 1.63 1.1.92 2.101 1.9.99.97 1.465 1.605.474.624.851.888.388.264.932.809.555.535 1.09 1.07.535.546 1.37 1.094.834.558 1.42.954.586.405 1.314.643.738.247 1.513.764.775.528 1.53.945.757.408 1.482.935.734.537 1.452.784.728.257 1.156.451.428.194.717.257.29.063.756.477.466.405.672.757.207.362.673.706.467.355.903.78.446.434.702.846.256.413.58.916.326.513.652.876.327.373.813.728.497.365 1.073.77.566.396.973.77.406.374.784.608.378.223.546.385.158.162.498.205.33.033.648.256.317.213.526.415.217.212.326.343.109.132.179.132l.23.002.45.035q.3.023.508.185.218.162.298.173.08 0 .46.084.369.084.427.254.058.18.019.11-.05-.06.32.024.369.083.417.264.058.17-.221.158-.27-.013-.37-.004-.09-.001-.06-.06.03-.06.081-.11.04-.05.101-.089.05-.05.11-.079.061-.03.131-.049.06-.019.13-.018.07-.01.14.001.07.01.13.031.07.021.13.052.06.04.109.08.05.051.089.102.05.05.079.12.03.06.049.12.019.07.018.14.01.071-.001.13-.01.07-.031.14-.02.06-.052.12-.04.06-.08.11-.051.059-.102.098-.05.04-.12.07-.06.029-.12.048-.07.02-.141.029-.07-.001-.13-.012-.07 0-.14-.03-.06-.022-.12-.052-.059-.03-.108-.081-.06-.04-.1-.101-.039-.05-.068-.11-.03-.061-.049-.131-.02-.06-.029-.13.001-.07.012-.14 0-.07.03-.13.022-.07.052-.13t.081-.109q.04-.05.101-.089.05-.05.11-.079.061-.03.131-.049.06-.019.13-.018.07-.01.14.001.07.01.13.031.07.021.13.052.06.04.109.08.05.051.089.102.05.05.079.12.03.06.049.12.019.07.018.14.01.071-.001.13-.01.07-.194.43-.184.367-.773.292-.6-.076-.608-.216-.019-.13-.02-.06 0 .07-.359-.054-.359-.134-.377-.264-.019-.14-.02-.07 0 .07-.3.007t-.458-.204q-.168-.142-.249-.123-.08.02-.3.007-.23-.012-.539-.095-.31-.073-.577-.325-.267-.243-.446-.415-.168-.171-.297-.273-.119-.1-.479-.154-.37-.044-.657-.287-.288-.233-.675-.466-.388-.234-.814-.628-.417-.384-.963-.76-.536-.375-1.092-.79-.566-.416-.972-.88-.415-.454-.78-1.017-.364-.564-.561-.906-.207-.352-.564-.685-.356-.334-.882-.749t-.753-.797q-.236-.373-.464-.595-.228-.222-.427-.244-.19-.032-.668-.247-.478-.214-1.265-.492-.788-.288-1.562-.845-.785-.558-1.531-.965-.746-.407-1.471-.894-.716-.497-1.443-.744-.738-.238-1.404-.684-.665-.446-1.55-1.045-.894-.589-1.478-1.175-.575-.585-1.09-1.08-.505-.495-.922-.8-.427-.303-.93-.968-.514-.665-1.455-1.584-.941-.92-2.003-1.81-1.071-.9-1.955-1.579-.873-.679-1.629-1.106-.766-.427-1.57-1.025-.804-.598-1.788-1.248-.974-.66-2.064-1.62-1.091-.96-1.903-1.808-.802-.858-1.741-1.957-.95-1.1-1.92-2.039-.971-.94-2.162-1.881-1.201-.942-2.812-1.937-1.62-.996-2.91-2.119-1.288-1.122-2.36-2.063-1.07-.94-1.892-1.758-.822-.818-1.863-1.808-1.05-.99-2.608-2.196-1.559-1.205-3.365-2.653-1.816-1.437-3.395-2.563-1.58-1.115-2.68-2.096-1.1-.97-1.952-1.879-.851-.908-2.183-1.691-1.333-.793-2.893-1.788-1.56-.996-3.32-2.123-1.769-1.127-3.04-2.11-1.27-.992-2.2-1.97-.93-.99-1.692-1.937-.76-.958-1.532-1.855-.771-.888-1.724-1.657-.952-.77-2.044-1.63-1.102-.87-2.186-1.441-1.085-.56-2.089-1.15-1.004-.59-2.298-1.223-1.284-.643-2.426-1.494-1.132-.85-2.082-1.89-.94-1.04-1.698-2.207-.77-1.157-1.528-2.285-.76-1.137-1.569-2.205-.81-1.078-2-2.03-1.181-.95-2.81-2.047-1.62-1.106-3.02-2.07-1.411-.963-2.313-1.842-.901-.879-1.576-1.395-.675-.517-1.211-.912-.527-.385-.824-.708-.286-.323-.375-.514-.078-.2-.036-.41.042-.21.204-.348.161-.148.371-.176.22-.018.5.054.28.073.547.306.258.232.317.313.07.09.1.07l4.31.013Z" fill="#1e1e1e"/><path d="m240.632 331.297-4.22-.03q.07.01.14.03.06.021.12.052.06.03.119.081.05.04.089.091.05.06.079.12.03.061.049.121.019.07.028.14-.074 8.63 0 .12-.012.07-.032.14-.02.06-.051.12-.031.06-.082.119-.04.05-.09.09-.06.049-.121.078-.06.03-.12.049-.07.02-.141.028-4.34-.032-.36.007-.3-.003-.4-.024-.1-.021-.11-.021-.01.01 0 .05t.008.2q-.012.16-.094.36-.082.208-.263.327-.19.118-.41.096-.22-.023-.389-.174-.159-.142-.286-.373-.138-.241-.474-.615-.347-.383-.6-1.005-.265-.633-.308-1.264-.044-.63-.046-1.51-.001-.88.01-1.97 0-1.09.012-2.36l.027-2.75q.014-1.47.036-2.73.013-1.27.341-2.156.319-.887.536-1.635.208-.758.406-1.656.21-.898.398-1.807.199-.908.238-1.827.049-.91.068-1.85.009-.94.028-1.89l.017-1.74.015-1.56.015-1.53.016-1.67.018-1.85.017-1.73.017-1.71.017-1.75q.008-.829.174-1.447.156-.619.192-1.309.027-.69.043-1.29.006-.59.021-1.16l.011-1.15.01-.979.01-.96.01-1.1.01-1.13.01-.98.008-.81.008-.76.008-.91.009-.88q.013-.34-.133-.711-.137-.361-.174-.652-.037-.29.027-.72.064-.439.376-.586.311-.157.573-.284.27-.118.513-.315.242-.198.302-.217.05-.03.12-.04.07-.019.14-.018.07 0 .13.011.07.021.13.042.07.03.13.06.049.041.098.092.05.05.09.1.039.061.068.121l.039.13q.01.07.009.14-.001.07-.012.14-.01.06-.041.13-.02.06-.061.12-.04.06-.091.099-.04.05-.101.089-.06.04-.12.069-.06.03-.131.038-.07.01-.14.01-.07.008-.13-.012-.07-.01-.13-.041-.06-.021-.119-.062l-.1-.08q-.049-.051-.088-.111-.04-.05-.069-.121-.02-.06-.039-.13-.01-.06-.008-.13 0-.07.01-.14.012-.07.042-.13.02-.06.061-.12.04-.06.091-.109.04-.05.101-.089.06-.039.12-.058.051-.03.121-.04.07-.019.14-.018.07 0 .13.011.07.021.13.042.07.03.13.06.049.041.098.092.05.05.09.1.039.061.068.121l.039.13q.01.07.009.14-.001.07-.012.14-.01.06-.041.13-.02.06-.061.12-.04.06-.091.099-.04.05-.303.257-.252.208-.644.404-.411.186-.4.106.01-.08.09-.12.07-.039.09.132.018.17.174.581.146.412.151.882.006.47 0 1.01l-.009.91-.007.76-.008.81-.01.98-.01 1.13-.011 1.1-.01.96-.009.99-.011 1.14q-.016.58-.022 1.19-.015.6-.053 1.369-.047.77-.203 1.378-.156.598-.153 1.349l-.017 1.67-.016 1.71-.017 1.73-.018 1.85-.016 1.67-.015 1.529-.015 1.56-.017 1.75q-.02.94-.029 1.9-.019.95-.068 1.93-.05.979-.26 1.947-.199.968-.408 1.896-.209.918-.426 1.716-.228.798-.536 1.595-.298.797-.299 1.947l-.025 2.61-.027 2.75q-.012 1.27-.013 2.36-.01 1.08-.009 1.93-.008.86.027 1.35.026.5.191.922.176.412.493.755.317.333.484.634.177.302-.211.128-.379-.163.048.19.426.365.344.564-.082.21-.263.328-.19.118-.41.096-.22-.023-.389-.174-.159-.142.066-.66.225-.507-.048-.19-.273.327-.26.107.011-.22.104-.539.093-.309.476-.605t.703-.313q.33-.017.63-.014l4.58.044Z" fill="#1e1e1e"/><path d="m290.39 12.47.03.06q.03.06.06.13.02.06.02.13.01.07.01.14-.01.06-.03.12-.02.07-.05.13-.03.06-.07.11-.04.06-.1.1-.05.05-.11.08l-.12.06q-.07.02-.14.02-.07.01-.13.01-.07-.01-.14-.03-.06-.02-.12-.05-.07-.03-.12-.07-.05-.04-.1-.1-.04-.05-.44-.64-.38-.6-1.5-.91-1.11-.3-2.72-.15-1.6.16-3.83.64-2.22.49-4.85 1.04-2.63.56-6.05.68-3.42.11-7.21.13-3.78.02-7.63.03-3.85 0-8.19.23t-9.28.51q-4.93.27-9.5.33t-9.52.29q-4.96.24-10.23.75-5.28.51-11.08 1.29t-11.94 2.54q-6.14 1.75-12.13 3.94-6 2.18-12.21 4.45-6.21 2.27-11.26 4.33-5.06 2.06-10.83 4.3-5.78 2.25-11.2 4.97-5.42 2.73-11.27 6.48-5.85 3.76-11.78 7.48-5.94 3.73-11.17 7.68-5.23 3.95-10.79 8.39-5.56 4.45-9.77 8.77-4.21 4.33-9.35 9.09t-10.44 10.51q-5.29 5.74-9.44 11.68-4.15 5.95-8.07 12.39-3.92 6.45-6.84 12.75-2.91 6.31-5.16 13.27-2.24 6.97-3.65 14.09-1.4 7.12-3.11 14.05-1.71 6.93-3.01 14.49-1.29 7.56-2.02 14.77-.74 7.22-.41 14.81.33 7.59 1.82 15.29 1.49 7.7 3.23 16.12 1.73 8.43 3.5 16.99 1.78 8.56 3.8 17.13 2.02 8.58 5.04 16.68 3.01 8.1 6.94 15.67 3.94 7.56 8.05 14.56 4.12 7.01 9.71 14.6 5.6 7.59 11.01 15.76 5.42 8.17 11.26 15.99 5.85 7.82 12.26 15.79 6.4 7.97 13.38 14.81 6.99 6.85 14.56 12.79 7.57 5.93 16.24 11.02 8.67 5.08 16.83 10.22 8.16 5.14 17.15 9.13 8.99 3.99 18.87 6.85 9.88 2.85 19.93 4.56 10.06 1.72 20.15 2.06 10.1.34 20.21-.28 10.11-.61 20.47-1.88t20.52-3.35q10.15-2.09 19.54-5.01 9.4-2.93 18.89-7.41 9.49-4.47 19.01-9.94 9.51-5.48 18.32-11.37 8.81-5.9 17-12.58 8.19-6.67 16.49-13.96 8.31-7.28 15.43-15.37 7.13-8.08 14.03-17.47 6.89-9.39 12.08-19.73 5.18-10.35 10.27-20.66t8.48-20.6q3.4-10.29 5.98-21.04 2.58-10.76 4.29-22.06 1.71-11.3 2.28-22.7.58-11.4-.73-22.82t-3.71-22.84q-2.4-11.43-6.68-22.16-4.28-10.73-10.14-21.12-5.85-10.39-12.26-20.24-6.4-9.86-14.35-19.15-7.95-9.29-16.45-18.26-8.51-8.96-16.88-17.17-8.37-8.2-17.43-15.8-9.06-7.6-18.51-15.31-9.44-7.71-18.23-14.29-8.79-6.57-17.66-11.76-8.87-5.19-17.73-7.82-8.87-2.61-16.53-3.14-7.68-.52-13.46.51-5.79 1.02-8.21 1.7-2.41.67-2.48.67-.07 0-.13-.01-.07-.02-.13-.05-.07-.02-.12-.06-.06-.04-.11-.09-.04-.05-.08-.11t-.06-.12q-.03-.06-.04-.13-.01-.07-.01-.14t.02-.13q.01-.07.04-.13.03-.07.06-.12.04-.06.09-.11.05-.04.11-.08t.12-.06q.07-.03.13-.04.07-.01.14-.01t.14.02q.06.01.13.04.06.03.11.06.06.04.11.09.05.05.08.11.04.06.06.12.03.07.04.13.01.07.01.14t-.01.14q-.02.06-.05.12-.02.07-.06.12-.04.06-.09.11-.05.05-.11.08-.06.04-.12.06-.06.03-.13.04-.07.01-.14.01t-.13-.01q-.07-.02-.13-.05-.07-.02-.12-.06-.06-.04-.11-.09-.04-.05-.08-.11t-.06-.12q-.03-.06-.04-.13-.01-.07-.01-.14t.02-.13q.01-.07.04-.13.03-.07.06-.12.04-.06.09-.11.05-.04.11-.08t.12-.06q.07-.03 2.45-.69 2.37-.67 8.28-1.72 5.91-1.05 13.74-.51 7.83.53 16.85 3.19 9.02 2.68 18 7.92 8.97 5.25 17.81 11.86 8.83 6.61 18.29 14.33 9.46 7.72 18.55 15.34 9.08 7.62 17.48 15.85t16.93 17.22q8.52 8.99 16.51 18.33 7.99 9.34 14.43 19.26 6.44 9.91 12.33 20.35 5.89 10.45 10.21 21.28 4.32 10.84 6.74 22.35 2.42 11.52 3.74 23.03 1.32 11.51.74 23-.58 11.49-2.3 22.85-1.71 11.37-4.31 22.18-2.6 10.81-6.02 21.18-3.42 10.36-8.52 20.72-5.11 10.35-10.33 20.76-5.22 10.4-12.16 19.86-6.95 9.46-14.13 17.6-7.18 8.14-15.52 15.46-8.35 7.32-16.57 14.03-8.23 6.7-17.08 12.63-8.86 5.93-18.42 11.43-9.57 5.5-19.12 10.01-9.56 4.5-19.04 7.46-9.48 2.95-19.69 5.05-10.22 2.09-20.62 3.37-10.41 1.27-20.58 1.89-10.16.62-20.34.28-10.17-.35-20.31-2.08-10.14-1.72-20.11-4.6-9.96-2.88-19.04-6.92-9.08-4.03-17.27-9.19-8.2-5.15-16.9-10.26-8.69-5.1-16.34-11.09-7.64-5.99-14.68-12.89t-13.48-14.92q-6.44-8.01-12.3-15.85-5.87-7.84-11.28-16.01-5.42-8.18-11.02-15.79-5.61-7.6-9.75-14.65-4.15-7.05-8.11-14.67-3.96-7.62-7-15.81-3.05-8.18-5.08-16.8-2.04-8.62-3.81-17.2-1.78-8.57-3.52-17-1.73-8.43-3.23-16.18t-1.83-15.45q-.34-7.69.4-14.98t2.04-14.9q1.31-7.6 3.02-14.54 1.71-6.94 3.12-14.09 1.41-7.14 3.68-14.19 2.27-7.04 5.22-13.42 2.96-6.38 6.91-12.88 3.95-6.5 8.14-12.5t9.53-11.8q5.35-5.79 10.5-10.57 5.14-4.77 9.37-9.11 4.23-4.34 9.83-8.82t10.87-8.45q5.26-3.97 11.21-7.71 5.96-3.75 11.84-7.52 5.88-3.76 11.36-6.52 5.48-2.76 11.28-5.02 5.8-2.25 10.87-4.31 5.06-2.06 11.28-4.34 6.22-2.27 12.24-4.47 6.02-2.19 12.23-3.96 6.22-1.78 12.08-2.57 5.86-.8 11.17-1.3 5.3-.51 10.29-.75 4.98-.24 9.55-.3 4.56-.05 9.48-.33 4.92-.27 9.28-.5 4.36-.23 8.23-.23 3.87-.01 7.64-.03 3.77-.02 7.12-.13t5.91-.66q2.57-.55 4.84-1.04 2.26-.5 4.04-.66 1.78-.16 3.24.28 1.45.43 2.01 1.2l.56.77Z" fill="#1e1e1e"/></svg>