<svg xmlns="http://www.w3.org/2000/svg" viewBox="8.30 8.31 211.92 69.43" width="211.92" height="69.43" xmlns:v="https://vecta.io/nano"><path fill="#1e1e1e" d="M121.834 13.146q0 0-.03.06-.03.06-.07.12-.04.05-.09.1-.05.05-.1.08-.06.04-.13.07-.06.02-.13.03-.07.01-.12.01-.07 0-.14-.02-.07-.01-.13-.04-.06-.03-.12-.07-.05-.04-.1-.09-.05-.05-.08-.1-.04-.06-.07-.13-.02-.06-.03-.13-.01-.07-.01-.12 0-.07.02-.14.01-.07.16-.43.15-.37.14-.39 0-.02-.03 0-.02.02-.35.02-.33-.01-.49-.02-.17-.01-.53.15-.37.17-.85.21-.48.04-1.03.05-.55 0-1.13.16-.58.16-1.37.36-.8.2-1.66.41-.87.21-1.91.26-1.04.04-2.25.05-1.21.01-2.43.01-1.23 0-2.47.17-1.25.17-2.33.2-1.07.03-1.95.2-.88.18-1.42.22-.55.03-1.16.04-.62.01-1.07.01-.46 0-1.05 0-.6 0-1.38 0-.79 0-1.58 0-.78 0-1.44.16-.66.17-1.5.2-.84.04-1.34.05-.51.01-1.11.01-.6 0-1.1 0-.51-.01-1.11-.18-.61-.17-1.02-.19-.4-.03-.82-.04-.41-.01-.89-.01-.48-.01-.92-.18-.43-.17-.78-.2-.36-.02-.6-.03-.24 0-.45-.01-.21 0-.69-.01-.48-.02-.8-.22-.32-.2-.72-.41-.4-.21-.64-.42-.25-.2-.6-.39-.35-.19-.75-.39-.41-.21-.82-.42-.42-.2-.77-.39-.36-.18-.9-.22-.54-.03-1.32-.2-.79-.18-1.41-.21-.62-.03-1.08-.04-.46-.01-.88-.01-.43 0-.78-.01-.35 0-.76.16-.41.17-1.06.21-.65.04-1.28.05-.63 0-1.09.01-.46 0-1.05 0-.59 0-1.05 0-.45 0-1.04 0-.59 0-1.21 0-.62 0-1.2-.01-.58 0-1.17.16-.58.16-1.38.36-.79.2-1.61.41-.82.2-1.52.42-.7.21-1.35.26-.65.04-1.4.2-.76.17-1.4.36-.65.2-1.26.4-.61.2-1.07.41-.46.21-1.05.41-.59.21-1.07.43-.49.22-.74.26-.26.05-.66.23-.4.17-.88.22-.49.05-.92.05-.43.01-1.02.01-.58 0-1.2 0-.62 0-1.2 0-.58 0-1.15.15-.58.16-1.23.37-.66.21-1.17.25-.51.05-.95.06-.44.01-1.03.01-.59 0-1.05 0-.45 0-1.04 0-.59 0-1.04 0-.46 0-.71 0-.26 0-.65 0-.38 0-.63 0-.24 0-.63 0-.38 0-.62 0-.25 0-.46 0-.22 0-.43 0-.21 0-.42 0-.21 0-.58 0-.38 0-.62 0-.25 0-.46 0-.22 0-.59 0-.38 0-.62 0-.25 0-.56-.01-.32 0-.65.14-.34.14-.76.35-.43.2-.98.39-.54.19-.97.55-.42.36-.81.58-.4.21-.78.73-.38.51-.79.93-.4.43-.8 1.16-.4.73-.8 1.35-.4.62-.63 1.37-.24.75-.44 1.54-.21.79-.26 1.47-.05.69-.22 1.16-.18.47-.21.84-.02.36-.03.77-.01.41-.01.99 0 .58 0 1.2 0 .62 0 1.2-.01.58.16 1.19.17.61.19 1.05.03.44.21.87.17.43.22 1.08.04.65.05 1.11 0 .46 0 .89.01.43.01 1.02 0 .58-.01.99 0 .4.17.98.16.58.2 1.25.04.67.04 1.13.01.47.01 1.23 0 .77 0 1.42 0 .65 0 1.23-.01.57.16 1.02.16.45.2 1.1.05.65.05 1.12.01.46.01 1.05 0 .6 0 1.22 0 .62 0 1.08 0 .45 0 1.05 0 .59 0 1.21 0 .62 0 1.12 0 .49-.17 1.26-.17.77-.2 1.39-.03.62-.04 1.24 0 .63 0 1.25 0 .63-.01 1.19-.01.57.15.97.15.41.34.97.19.56.52 1.12.34.56.7.97.37.41.87.78.51.37 1.24.6.72.23 1.54.44.81.22 1.64.43.84.21 1.64.41.8.2 1.59.24.8.04 1.93.05 1.13.01 2.02-.15.9-.17 1.78-.2.87-.04 1.55-.05.68 0 1.45 0 .77 0 1.59-.17.83-.17 1.86-.2 1.04-.04 1.91-.04.88-.01 1.72-.01.85 0 1.68 0 .84 0 1.68 0 .83 0 1.5 0 .67 0 1.31 0 .63 0 1.26 0 .63 0 1.3 0 .67 0 1.35.18.68.18 1.31.38.63.2 1.41.4.78.21 1.61.42.82.2 1.66.41.83.21 1.67.42.83.21 1.64.41.8.2 1.64.25.83.04 1.5.21.67.18 1.31.22.64.03 1.26.2.63.18 1.41.21.78.03 1.77.21.99.17 2 .2 1 .04 2.21.04 1.2.01 2.45.01 1.24 0 2.33 0 1.08.01 2.13.01 1.06 0 2.1 0 1.05 0 1.89 0 .85 0 1.68-.17.84-.16 1.71-.2.87-.04 1.85-.04.99-.01 2.02-.17 1.03-.17 2.1-.21 1.07-.03 2.09-.04 1.02 0 1.85-.17.84-.16 1.71-.36.87-.21 1.53-.25.66-.04 1.27-.21.6-.16 1.39-.36.79-.2 1.44-.41.65-.2 1.29-.41.64-.22 1.48-.43.84-.22 1.51-.27.67-.04 1.44-.21.78-.17 1.77-.37 1-.2 1.85-.41.85-.2 1.55-.42.7-.21 1.22-.26.51-.05.96-.06.44 0 .86-.01.43 0 .84 0 .42 0 .67 0 .26 0 .55.01.29.01.77.22.49.21.69.39.19.17.53.2.33.02.8.22.46.19.82.37.36.19.91.22.54.03 1.32.21.79.17 1.57.2.79.03 1.45.04.66.01 1.46.01.8 0 1.69.01.88 0 1.39.17.51.17 1.11.2.59.03 1.21.21.63.17 1.05.2.41.03.73.05.32.01.72.18.41.18.58.2.18.02.7.03.53 0 .97 0 .45 0 1.04.01.59 0 1.37 0 .79 0 1.45 0 .66 0 1.46 0 .8 0 1.63 0 .83 0 1.66 0 .83 0 1.67 0 .84 0 1.5 0 .67 0 1.48 0 .8 0 1.63 0 .83 0 1.55 0 .73.01 1.21.17.48.17 1.06.2.58.04 1.2.21.62.17 1.2.2.58.03 1.41.04.83.01 1.49.18.67.17 1.43.2.76.03 1.58.04.82.01 1.62.01.8 0 1.59-.16.8-.16 1.62-.36.81-.19 1.47-.39.65-.21 1.27-.41.61-.2 1.07-.41.46-.21 1.05-.41.59-.21 1.09-.44.5-.22 1.16-.27.67-.05 1.3-.06.63-.01 1.09-.01.46-.01.89-.01.43 0 1.01 0 .59 0 1.04 0 .45 0 .88 0 .42 0 .91.01.48.01.92.18.43.17.78.19.36.03.83.04.47.01.91.19.43.17.69.2.26.04.65.21.38.18.63.21.24.04.62.21.39.18.63.21.24.04.62.21.37.17.71.19.34.03.74.03.41.01.99.01.58 0 1.2 0 .62 0 1.2.01.58 0 1.19-.17.62-.16 1.25-.2.62-.03 1.25-.2.63-.18 1.41-.21.78-.03 1.27-.21.49-.17 1.15-.21.66-.04 1.06-.04.39 0 .81-.17.41-.17.83-.2.42-.03.82-.2.41-.17.62-.19.2-.02.33-.14.12-.11.32-.3.2-.19.53-.51.33-.32.54-.85.21-.52.43-.98.22-.46.43-.87.2-.41.43-1.03.23-.62.62-1.1.39-.47.8-1.23.41-.77 1-1.42.58-.66 1.01-1.42.43-.76.68-1.25.26-.49.46-.9.21-.41.42-1 .21-.58.44-1.06.22-.49.58-1.04.36-.55.41-.91.05-.37.08-.66.03-.3-.1-.47-.13-.17-.34-.57-.21-.4-.44-.87-.24-.48-.28-.92-.05-.45-.21-.98-.16-.53-.35-.94-.18-.41-.56-1.01-.38-.6-.62-1.22-.24-.62-.61-1.21-.36-.6-.79-1.25-.42-.65-.69-1.32-.27-.67-.5-1.34-.23-.67-.28-1.24-.05-.56.15-1.28.19-.73.59-1.23.4-.5.81-1.11.41-.6.83-1.05.42-.45.84-1.05.41-.59.82-1.03.41-.44.63-.81.21-.37.42-.94.21-.57.41-.98.2-.41.23-.76.03-.35.04-.83.02-.49-.28-1.03-.3-.54-.56-1.06-.26-.53-.32-1.2-.06-.67-.07-1.3-.01-.64-.01-1.27-.01-.62-.01-1.08 0-.46 0-1.06 0-.59 0-1.04 0-.46 0-1.05 0-.59 0-1.04 0-.46 0-.88 0-.43.02-.57.02-.14-.08-.24-.1-.1-.19-.23-.09-.12-.34-.13-.24 0-.73-.03-.49-.02-.75-.19-.26-.18-.55-.19-.28-.02-.84-.02-.57-.01-1.02-.01-.44 0-.93-.01-.49 0-.93-.17-.43-.17-.79-.2-.35-.02-.59-.03-.24-.01-.62-.01-.38 0-.86-.01-.47 0-.9-.17-.43-.17-.79-.2-.35-.02-.82-.03-.47-.02-.9-.19-.42-.17-.94-.19-.52-.03-1.18-.04-.65-.01-1.29-.18-.63-.17-1.21-.2-.58-.03-1.37-.03-.78-.01-1.8-.01-1.03 0-2.07-.17-1.04-.17-1.89-.2-.85-.03-1.68-.04-.84-.01-1.71-.01-.86 0-1.87-.17-1.01-.17-2.21-.2-1.19-.03-2.46-.21-1.26-.18-2.66-.38-1.4-.2-2.69-.24-1.29-.04-2.39-.21-1.09-.18-1.95-.21-.86-.04-1.54-.04-.67-.01-1.47-.01-.81 0-1.63 0-.83 0-1.67 0-.83 0-1.84 0-1 0-1.87 0-.87 0-1.88 0-1.01 0-2.02 0-1.01-.01-2.02.16-1.01.16-2.07.36-1.07.21-2.11.25-1.05.04-1.9.21-.86.17-2.06.38-1.21.2-2.46.25-1.24.04-2.66.21-1.42.18-2.73.21-1.31.04-2.57.05-1.27 0-2.02 0-.76.01-1.41.01-.65 0-1.45 0-.8 0-1.79 0-1 0-2.2 0-1.2 0-2.45 0-1.24 0-2.53-.01-1.29 0-2.05-.17-.76-.16-1.58-.2-.82-.03-1.52-.21-.7-.18-1.47-.38-.77-.19-1.39-.23-.62-.04-1.12-.05-.49-.01-1.3-.19-.81-.17-1.47-.38-.66-.2-1.42-.4-.76-.19-1.6-.23-.84-.04-1.39-.23-.54-.19-1.1-.38-.56-.19-1.06-.23-.51-.03-.88.1-.38.14-.85.35-.48.22-.54.23-.07.01-.14.01-.07-.01-.14-.03-.06-.01-.12-.04-.07-.03-.12-.07-.06-.04-.1-.1-.05-.05-.08-.11-.04-.05-.06-.12-.02-.06-.03-.13-.01-.07-.01-.14 0-.07.02-.13.02-.07.05-.13.03-.06.07-.12.04-.05.09-.1.05-.04.11-.08.06-.03.12-.06.07-.02.14-.03.07-.01.13-.01.07.01.14.02.07.02.13.05.06.03.11.07.06.04.1.09.05.06.09.11.03.06.05.13.03.06.04.13.01.07 0 .14 0 .07-.02.13-.02.07-.05.13-.03.06-.07.12-.04.05-.09.1-.05.04-.11.08-.06.03-.12.06-.07.02-.13.03-.07.01-.14.01-.07-.01-.14-.03-.06-.01-.12-.04-.07-.03-.12-.07-.06-.04-.1-.1-.05-.05-.08-.11-.04-.05-.06-.12-.02-.06-.03-.13-.01-.07-.01-.14 0-.07.02-.13.02-.07.05-.13.03-.06.07-.12.04-.05.09-.1.05-.04.11-.08.06-.03.5-.24.45-.21.99-.39.54-.18 1.28-.14.74.05 1.38.26.65.22 1.1.38.46.16 1.27.2.82.04 1.66.26.84.21 1.49.41.65.2 1.36.36.71.16 1.15.17.44 0 1.14.05.71.04 1.54.24.84.21 1.47.38.63.16 1.44.2.8.03 1.55.19.74.17 1.95.17 1.22 0 2.46 0 1.25 0 2.45 0 1.2 0 2.2 0 .99 0 1.79 0 .8 0 1.45 0 .65 0 1.41-.01.75 0 2 0 1.26-.01 2.53-.04 1.26-.04 2.68-.21 1.42-.18 2.65-.22 1.23-.04 2.38-.24 1.15-.19 2.05-.36.9-.18 1.95-.22 1.04-.04 2.07-.24 1.02-.2 2.1-.37 1.07-.17 2.14-.17 1.06 0 2.07 0 1.01 0 1.88 0 .87 0 1.87 0 1.01 0 1.84 0 .84 0 1.67 0 .83 0 1.63 0 .81 0 1.49.01.69 0 1.6.04.92.04 2.01.21 1.09.18 2.37.22 1.29.04 2.73.24 1.43.21 2.66.38 1.22.16 2.43.19 1.21.04 2.21.2 1 .17 1.81.17.81 0 1.66.01.85.01 1.75.04.9.04 1.93.2 1.03.17 2 .17.96 0 1.77.01.8 0 1.47.04.67.04 1.29.21.62.16 1.2.17.58 0 1.23.04.65.05 1.06.21.41.17.78.17.37 0 .85.04.48.04.88.21.4.16.75.16.34-.01.73-.01.39 0 .66.01.26.01.74.05.48.04.88.21.41.16.77.16.36-.01.81-.01.45 0 1.05.01.59.01 1.07.06.49.05.72.22.24.16.57.16.33-.01.83.07.51.07.82.37.31.3.54.63.24.33.25.7.02.36.02.79 0 .42 0 .88 0 .45 0 1.04 0 .59 0 1.05 0 .45 0 1.04 0 .6 0 1.05 0 .46.01 1.09 0 .62.01 1.23.01.6.04 1.12.03.51.24.9.21.39.57 1.09.36.7.36 1.39 0 .69-.05 1.19-.05.49-.28.99-.22.49-.45 1.09-.22.61-.51 1.09-.28.48-.71.95-.43.46-.84 1.05-.42.59-.84 1.05-.41.45-.81 1.03-.4.58-.74.99-.33.4-.45.86-.12.47-.09.82.04.36.24.94.2.58.44 1.16.23.59.62 1.19.4.6.8 1.26.4.66.64 1.28.24.61.61 1.2.38.58.6 1.08.22.49.41 1.13.19.64.22 1.03.04.38.22.73.18.35.38.72.19.37.38.7.2.34.2.89 0 .55-.1 1.1-.1.54-.49 1.17-.4.64-.59 1.06-.19.41-.41 1.01-.21.59-.44 1.04-.23.46-.49.96-.26.5-.73 1.34-.48.84-1.06 1.49-.58.65-.99 1.4-.4.75-.77 1.18-.36.43-.55.98-.19.55-.41.99-.22.44-.43.88-.21.44-.48 1.07-.27.63-.69 1.06-.43.43-.65.64-.22.22-.53.45-.31.23-.61.29-.3.05-.73.22-.42.18-.85.21-.42.04-.86.21-.43.17-.94.18-.51.02-1.06.04-.54.03-1.04.21-.49.17-1.3.21-.8.04-1.43.21-.62.17-1.25.21-.63.03-1.27.2-.63.17-1.3.17-.67 0-1.29 0-.62 0-1.21 0-.59 0-1.02-.01-.43 0-.91-.05-.48-.05-.88-.22-.39-.18-.63-.21-.25-.04-.63-.21-.38-.18-.63-.21-.24-.04-.62-.21-.39-.17-.63-.21-.24-.03-.64-.19-.4-.17-.76-.17-.37 0-.85-.04-.48-.04-.89-.2-.4-.17-.75-.16-.36 0-.78 0-.43 0-.88 0-.45 0-1.04 0-.58 0-1.01 0-.42 0-.88.01-.46 0-1.06.01-.61 0-1.13.04-.52.03-.93.22-.41.19-1 .4-.6.21-1.06.42-.47.21-1.13.43-.65.22-1.33.43-.69.21-1.54.41-.85.21-1.73.38-.88.18-1.75.18-.87 0-1.7-.01-.84-.01-1.68-.05-.84-.03-1.5-.2-.65-.17-1.41-.17-.76-.01-1.43-.05-.68-.03-1.3-.21-.62-.17-1.22-.21-.61-.03-1.07-.2-.46-.16-1.07-.16-.6.01-1.43.01-.83 0-1.63 0-.81 0-1.48 0-.66 0-1.5 0-.84 0-1.67 0-.83 0-1.66 0-.83 0-1.63 0-.8 0-1.46 0-.66 0-1.45 0-.78 0-1.38 0-.59-.01-1.03-.01-.45 0-1.02-.01-.58 0-.89-.05-.31-.04-.68-.21-.37-.16-.57-.16-.2 0-.7-.04-.5-.04-1.12-.21-.62-.18-1.23-.21-.61-.04-1.1-.2-.49-.17-1.26-.16-.78 0-1.58 0-.81 0-1.48-.01-.67-.01-1.54-.04-.86-.04-1.65-.22-.79-.17-1.41-.22-.63-.05-1.09-.27-.47-.22-.82-.38-.36-.15-.79-.21-.43-.06-.72-.28-.29-.23-.56-.35-.26-.12-.41-.12-.14.01-.39.01-.26 0-.67 0-.42 0-.84 0-.41.01-.83.01-.41.01-.83.05-.42.03-1.07.24-.65.2-1.54.41-.88.21-1.88.42-1 .2-1.83.38-.82.18-1.47.22-.66.04-1.41.24-.75.2-1.38.4-.62.21-1.3.42-.67.21-1.47.42-.8.2-1.47.38-.67.18-1.34.23-.68.04-1.5.23-.82.2-1.74.37-.92.18-1.99.19-1.07.01-2.09.04-1.01.03-2.05.2-1.05.17-2.07.18-1.03 0-1.83.03-.8.04-1.66.2-.85.17-1.76.17-.91.01-1.96.01-1.04 0-2.1 0-1.05 0-2.14-.01-1.08 0-2.33 0-1.24 0-2.46-.01-1.21 0-2.28-.04-1.06-.04-2.06-.21-1-.17-1.81-.21-.81-.04-1.44-.21-.63-.18-1.26-.21-.63-.04-1.3-.21-.67-.18-1.5-.22-.84-.04-1.71-.26-.87-.21-1.7-.42-.84-.21-1.67-.42-.84-.21-1.67-.42-.83-.21-1.63-.42-.8-.21-1.43-.41-.63-.2-1.2-.35-.58-.16-1.16-.16-.58.01-1.21.01-.63 0-1.26 0-.64 0-1.31 0-.67 0-1.5 0-.84 0-1.68 0-.83 0-1.67 0-.85 0-1.71.01-.86 0-1.83.03-.97.03-1.8.2-.84.17-1.68.17-.83.01-1.5.01-.66.01-1.48.04-.82.03-1.73.2-.91.16-2.12.16-1.21-.01-2.09-.06-.88-.04-1.75-.26-.87-.21-1.7-.42-.84-.22-1.67-.44-.84-.22-1.69-.49-.84-.28-1.5-.76-.66-.48-1.12-.99-.45-.51-.86-1.19-.41-.68-.63-1.3-.21-.63-.39-1.14-.18-.52-.19-1.21 0-.68 0-1.31 0-.63 0-1.27.01-.65.05-1.33.03-.69.2-1.45.17-.75.16-1.17 0-.42 0-1.04 0-.62 0-1.21 0-.6 0-1.05 0-.46 0-1.08 0-.62 0-1.21 0-.59-.01-1.03 0-.45-.03-.98-.03-.54-.2-1.01-.16-.47-.17-1.16-.01-.7-.01-1.35 0-.65 0-1.41 0-.76-.01-1.21 0-.45-.03-1.02-.03-.58-.2-1.18-.17-.6-.17-1.1 0-.5 0-1.08 0-.59-.01-1.01 0-.42 0-.87-.01-.44-.04-.96-.02-.52-.2-.95-.17-.42-.21-.9-.04-.48-.2-1.12-.17-.64-.18-1.31 0-.67 0-1.29 0-.62 0-1.21 0-.59.01-1.02.01-.44.05-.92.05-.49.22-.96.18-.46.22-1.11.04-.65.26-1.52.23-.87.5-1.72.27-.85.7-1.53.44-.69.87-1.47.44-.79.87-1.25.44-.47.89-1.05.46-.59.91-.86.46-.26.94-.66.48-.39 1.1-.61.62-.23 1.03-.43.41-.19.9-.39.48-.19.93-.19.45-.01.7-.01.24 0 .62 0 .37 0 .59 0 .21 0 .46 0 .24 0 .62 0 .37 0 .58 0 .21 0 .42 0 .21 0 .43 0 .21 0 .46 0 .24 0 .62 0 .39 0 .63 0 .25 0 .63 0 .39 0 .65 0 .25 0 .71 0 .45 0 1.04 0 .59 0 1.04 0 .45 0 1.04 0 .58 0 .99-.01.41-.01.82-.04.41-.04 1.01-.23.6-.19 1.28-.37.68-.18 1.35-.18.67-.01 1.29-.01.61 0 1.2 0 .58 0 .98-.01.4 0 .74-.03.34-.02.72-.19.37-.17.63-.22.25-.04.68-.24.42-.19 1.02-.4.59-.21 1.06-.41.46-.21 1.12-.43.65-.21 1.33-.42.68-.21 1.51-.39.84-.18 1.46-.22.62-.04 1.25-.24.64-.21 1.48-.42.83-.21 1.63-.41.79-.2 1.46-.37.66-.18 1.34-.18.67 0 1.29 0 .62 0 1.21 0 .59 0 1.04 0 .46 0 1.05 0 .59 0 1.05 0 .45-.01 1.06-.01.61-.01 1.13-.03.53-.03.95-.2.43-.17.92-.17.48-.01.91-.01.43 0 .91.01.47.01 1.17.05.69.03 1.48.21.79.18 1.42.23.62.05 1.11.28.48.23.9.44.41.21.83.42.42.22.83.45.42.23.66.43.25.21.61.4.37.19.54.32.16.13.44.12.27-.02.5-.01.22 0 .48 0 .26.01.74.05.48.05.89.21.4.15.76.15.35-.01.79 0 .44.01.94.05.5.04 1.07.2.58.17.99.16.41 0 1 0 .6 0 1.09-.01.49-.01 1.25-.04.76-.03 1.44-.2.67-.16 1.54-.17.87 0 1.66 0 .78 0 1.37 0 .6 0 1.05 0 .45 0 1.05-.01.59-.01 1.07-.04.48-.03 1.37-.19.89-.18 1.99-.21 1.1-.04 2.35-.21 1.26-.16 2.53-.17 1.26 0 2.46-.01 1.19-.01 2.15-.04.96-.04 1.76-.24.79-.2 1.58-.4.78-.2 1.44-.38.66-.18 1.28-.19.61 0 .96-.03.34-.02.74-.19.39-.17.71-.18.32 0 .74.01.42.02.77.15.37.13.63.64.26.51.07 1.15-.18.63-.18.63h0z"/></svg>