<svg preserveAspectRatio="none" xmlns="http://www.w3.org/2000/svg" viewBox="8.30 8.31 211.92 69.43"><path fill="#000" d="M 121.83 13.15 L 121.83 13.15 L 121.80 13.21 L 121.77 13.27 L 121.73 13.33 L 121.69 13.38 L 121.64 13.43 L 121.59 13.48 L 121.54 13.51 L 121.48 13.55 L 121.41 13.58 L 121.35 13.60 L 121.28 13.61 L 121.21 13.62 L 121.16 13.62 L 121.09 13.62 L 121.02 13.60 L 120.95 13.59 L 120.89 13.56 L 120.83 13.53 L 120.77 13.49 L 120.72 13.45 L 120.67 13.40 L 120.62 13.35 L 120.59 13.30 L 120.55 13.24 L 120.52 13.17 L 120.50 13.11 L 120.49 13.04 L 120.48 12.97 L 120.48 12.92 L 120.48 12.85 L 120.50 12.78 L 120.51 12.71 L 120.66 12.35 L 120.81 11.98 L 120.80 11.96 L 120.80 11.94 L 120.77 11.96 L 120.75 11.98 L 120.42 11.98 L 120.09 11.97 L 119.93 11.96 L 119.76 11.95 L 119.40 12.11 L 119.03 12.28 L 118.55 12.32 L 118.07 12.36 L 117.52 12.37 L 116.97 12.37 L 116.39 12.53 L 115.81 12.69 L 115.02 12.89 L 114.22 13.09 L 113.36 13.30 L 112.49 13.51 L 111.45 13.56 L 110.41 13.60 L 109.20 13.61 L 107.99 13.62 L 106.77 13.62 L 105.54 13.62 L 104.30 13.79 L 103.05 13.96 L 101.97 13.99 L 100.90 14.02 L 100.02 14.19 L 99.14 14.37 L 98.60 14.41 L 98.05 14.44 L 97.44 14.45 L 96.82 14.46 L 96.37 14.46 L 95.91 14.46 L 95.32 14.46 L 94.72 14.46 L 93.94 14.46 L 93.15 14.46 L 92.36 14.46 L 91.58 14.46 L 90.92 14.62 L 90.26 14.79 L 89.42 14.82 L 88.58 14.86 L 88.08 14.87 L 87.57 14.88 L 86.97 14.88 L 86.37 14.88 L 85.87 14.88 L 85.36 14.87 L 84.76 14.70 L 84.15 14.53 L 83.74 14.51 L 83.34 14.48 L 82.92 14.47 L 82.51 14.46 L 82.03 14.46 L 81.55 14.45 L 81.11 14.28 L 80.68 14.11 L 80.33 14.08 L 79.97 14.06 L 79.73 14.05 L 79.49 14.05 L 79.28 14.04 L 79.07 14.04 L 78.59 14.03 L 78.11 14.01 L 77.79 13.81 L 77.47 13.61 L 77.07 13.40 L 76.67 13.19 L 76.43 12.98 L 76.18 12.78 L 75.83 12.59 L 75.48 12.40 L 75.08 12.20 L 74.67 11.99 L 74.26 11.78 L 73.84 11.58 L 73.49 11.39 L 73.13 11.21 L 72.59 11.17 L 72.05 11.14 L 71.27 10.97 L 70.48 10.79 L 69.86 10.76 L 69.24 10.73 L 68.78 10.72 L 68.32 10.71 L 67.90 10.71 L 67.47 10.71 L 67.12 10.70 L 66.77 10.70 L 66.36 10.86 L 65.95 11.03 L 65.30 11.07 L 64.65 11.11 L 64.02 11.12 L 63.39 11.12 L 62.93 11.13 L 62.47 11.13 L 61.88 11.13 L 61.29 11.13 L 60.83 11.13 L 60.38 11.13 L 59.79 11.13 L 59.20 11.13 L 58.58 11.13 L 57.96 11.13 L 57.38 11.12 L 56.80 11.12 L 56.21 11.28 L 55.63 11.44 L 54.83 11.64 L 54.04 11.84 L 53.22 12.05 L 52.40 12.25 L 51.70 12.47 L 51.00 12.68 L 50.35 12.73 L 49.70 12.77 L 48.95 12.93 L 48.19 13.10 L 47.55 13.29 L 46.90 13.49 L 46.29 13.69 L 45.68 13.89 L 45.22 14.10 L 44.76 14.31 L 44.17 14.51 L 43.58 14.72 L 43.10 14.94 L 42.61 15.16 L 42.36 15.20 L 42.10 15.25 L 41.70 15.43 L 41.30 15.60 L 40.82 15.65 L 40.33 15.70 L 39.90 15.70 L 39.47 15.71 L 38.88 15.71 L 38.30 15.71 L 37.68 15.71 L 37.06 15.71 L 36.48 15.71 L 35.90 15.71 L 35.33 15.86 L 34.75 16.02 L 34.10 16.23 L 33.44 16.44 L 32.93 16.48 L 32.42 16.53 L 31.98 16.54 L 31.54 16.55 L 30.95 16.55 L 30.36 16.55 L 29.90 16.55 L 29.45 16.55 L 28.86 16.55 L 28.27 16.55 L 27.82 16.55 L 27.36 16.55 L 27.11 16.55 L 26.85 16.55 L 26.46 16.55 L 26.08 16.55 L 25.83 16.55 L 25.59 16.55 L 25.20 16.55 L 24.82 16.55 L 24.58 16.55 L 24.33 16.55 L 24.12 16.55 L 23.90 16.55 L 23.69 16.55 L 23.48 16.55 L 23.27 16.55 L 23.06 16.55 L 22.69 16.55 L 22.31 16.55 L 22.07 16.55 L 21.82 16.55 L 21.61 16.55 L 21.39 16.55 L 21.02 16.55 L 20.64 16.55 L 20.40 16.55 L 20.15 16.55 L 19.84 16.54 L 19.52 16.54 L 19.19 16.68 L 18.85 16.82 L 18.43 17.03 L 18.00 17.23 L 17.45 17.42 L 16.91 17.61 L 16.48 17.97 L 16.06 18.33 L 15.67 18.55 L 15.27 18.76 L 14.89 19.28 L 14.51 19.79 L 14.10 20.21 L 13.70 20.64 L 13.30 21.37 L 12.90 22.10 L 12.50 22.72 L 12.10 23.34 L 11.87 24.09 L 11.63 24.84 L 11.43 25.63 L 11.22 26.42 L 11.17 27.10 L 11.12 27.79 L 10.95 28.26 L 10.77 28.73 L 10.74 29.10 L 10.72 29.46 L 10.71 29.87 L 10.70 30.28 L 10.70 30.86 L 10.70 31.44 L 10.70 32.06 L 10.70 32.68 L 10.70 33.26 L 10.69 33.84 L 10.86 34.45 L 11.03 35.06 L 11.05 35.50 L 11.08 35.94 L 11.26 36.37 L 11.43 36.80 L 11.48 37.45 L 11.52 38.10 L 11.53 38.56 L 11.53 39.02 L 11.53 39.45 L 11.54 39.88 L 11.54 40.47 L 11.54 41.05 L 11.53 41.46 L 11.53 41.86 L 11.70 42.44 L 11.86 43.02 L 11.90 43.69 L 11.94 44.36 L 11.94 44.82 L 11.95 45.29 L 11.95 46.05 L 11.95 46.82 L 11.95 47.47 L 11.95 48.12 L 11.95 48.70 L 11.94 49.27 L 12.11 49.72 L 12.27 50.17 L 12.31 50.82 L 12.36 51.47 L 12.36 51.94 L 12.37 52.40 L 12.37 52.99 L 12.37 53.59 L 12.37 54.21 L 12.37 54.83 L 12.37 55.29 L 12.37 55.74 L 12.37 56.34 L 12.37 56.93 L 12.37 57.55 L 12.37 58.17 L 12.37 58.67 L 12.37 59.16 L 12.20 59.93 L 12.03 60.70 L 12.00 61.32 L 11.97 61.94 L 11.96 62.56 L 11.96 63.19 L 11.96 63.81 L 11.96 64.44 L 11.95 65.00 L 11.94 65.57 L 12.10 65.97 L 12.25 66.38 L 12.44 66.94 L 12.63 67.50 L 12.96 68.06 L 13.30 68.62 L 13.66 69.03 L 14.03 69.44 L 14.53 69.81 L 15.04 70.18 L 15.77 70.41 L 16.49 70.64 L 17.31 70.85 L 18.12 71.07 L 18.95 71.28 L 19.79 71.49 L 20.59 71.69 L 21.39 71.89 L 22.18 71.93 L 22.98 71.97 L 24.11 71.98 L 25.24 71.99 L 26.13 71.83 L 27.03 71.66 L 27.91 71.63 L 28.78 71.59 L 29.46 71.58 L 30.14 71.58 L 30.91 71.58 L 31.68 71.58 L 32.50 71.41 L 33.33 71.24 L 34.36 71.21 L 35.40 71.17 L 36.27 71.17 L 37.15 71.16 L 37.99 71.16 L 38.84 71.16 L 39.67 71.16 L 40.51 71.16 L 41.35 71.16 L 42.18 71.16 L 42.85 71.16 L 43.52 71.16 L 44.16 71.16 L 44.79 71.16 L 45.42 71.16 L 46.05 71.16 L 46.72 71.16 L 47.39 71.16 L 48.07 71.34 L 48.75 71.52 L 49.38 71.72 L 50.01 71.92 L 50.79 72.12 L 51.57 72.33 L 52.40 72.54 L 53.22 72.74 L 54.06 72.95 L 54.89 73.16 L 55.73 73.37 L 56.56 73.58 L 57.37 73.78 L 58.17 73.98 L 59.01 74.03 L 59.84 74.07 L 60.51 74.24 L 61.18 74.42 L 61.82 74.46 L 62.46 74.49 L 63.08 74.66 L 63.71 74.84 L 64.49 74.87 L 65.27 74.90 L 66.26 75.08 L 67.25 75.25 L 68.26 75.28 L 69.26 75.32 L 70.47 75.32 L 71.67 75.33 L 72.92 75.33 L 74.16 75.33 L 75.25 75.33 L 76.33 75.34 L 77.38 75.34 L 78.44 75.34 L 79.48 75.34 L 80.53 75.34 L 81.37 75.34 L 82.22 75.34 L 83.05 75.17 L 83.89 75.01 L 84.76 74.97 L 85.63 74.93 L 86.61 74.93 L 87.60 74.92 L 88.63 74.76 L 89.66 74.59 L 90.73 74.55 L 91.80 74.52 L 92.82 74.51 L 93.84 74.51 L 94.67 74.34 L 95.51 74.18 L 96.38 73.98 L 97.25 73.77 L 97.91 73.73 L 98.57 73.69 L 99.18 73.52 L 99.78 73.36 L 100.57 73.16 L 101.36 72.96 L 102.01 72.75 L 102.66 72.55 L 103.30 72.34 L 103.94 72.12 L 104.78 71.91 L 105.62 71.69 L 106.29 71.64 L 106.96 71.60 L 107.73 71.43 L 108.51 71.26 L 109.50 71.06 L 110.50 70.86 L 111.35 70.65 L 112.20 70.45 L 112.90 70.23 L 113.60 70.02 L 114.12 69.97 L 114.63 69.92 L 115.08 69.91 L 115.52 69.91 L 115.94 69.90 L 116.37 69.90 L 116.78 69.90 L 117.20 69.90 L 117.45 69.90 L 117.71 69.90 L 118.00 69.91 L 118.29 69.92 L 118.77 70.13 L 119.26 70.34 L 119.46 70.52 L 119.65 70.69 L 119.99 70.72 L 120.32 70.74 L 120.79 70.94 L 121.25 71.13 L 121.61 71.31 L 121.97 71.50 L 122.52 71.53 L 123.06 71.56 L 123.84 71.74 L 124.63 71.91 L 125.41 71.94 L 126.20 71.97 L 126.86 71.98 L 127.52 71.99 L 128.32 71.99 L 129.12 71.99 L 130.01 72.00 L 130.89 72.00 L 131.40 72.17 L 131.91 72.34 L 132.51 72.37 L 133.10 72.40 L 133.72 72.58 L 134.35 72.75 L 134.77 72.78 L 135.18 72.81 L 135.50 72.83 L 135.82 72.84 L 136.22 73.01 L 136.63 73.19 L 136.80 73.21 L 136.98 73.23 L 137.50 73.24 L 138.03 73.24 L 138.47 73.24 L 138.92 73.24 L 139.51 73.25 L 140.10 73.25 L 140.88 73.25 L 141.67 73.25 L 142.33 73.25 L 142.99 73.25 L 143.79 73.25 L 144.59 73.25 L 145.42 73.25 L 146.25 73.25 L 147.08 73.25 L 147.91 73.25 L 148.75 73.25 L 149.59 73.25 L 150.25 73.25 L 150.92 73.25 L 151.73 73.25 L 152.53 73.25 L 153.36 73.25 L 154.19 73.25 L 154.91 73.25 L 155.64 73.26 L 156.12 73.42 L 156.60 73.59 L 157.18 73.62 L 157.76 73.66 L 158.38 73.83 L 159.00 74.00 L 159.58 74.03 L 160.16 74.06 L 160.99 74.07 L 161.82 74.08 L 162.48 74.25 L 163.15 74.42 L 163.91 74.45 L 164.67 74.48 L 165.49 74.49 L 166.31 74.50 L 167.11 74.50 L 167.91 74.50 L 168.70 74.34 L 169.50 74.18 L 170.32 73.98 L 171.13 73.79 L 171.79 73.59 L 172.44 73.38 L 173.06 73.18 L 173.67 72.98 L 174.13 72.77 L 174.59 72.56 L 175.18 72.36 L 175.77 72.15 L 176.27 71.92 L 176.77 71.70 L 177.43 71.65 L 178.10 71.60 L 178.73 71.59 L 179.36 71.58 L 179.82 71.58 L 180.28 71.57 L 180.71 71.57 L 181.14 71.57 L 181.72 71.57 L 182.31 71.57 L 182.76 71.57 L 183.21 71.57 L 183.64 71.57 L 184.06 71.57 L 184.55 71.58 L 185.03 71.59 L 185.47 71.76 L 185.90 71.93 L 186.25 71.95 L 186.61 71.98 L 187.08 71.99 L 187.55 72.00 L 187.99 72.18 L 188.42 72.35 L 188.68 72.38 L 188.94 72.42 L 189.33 72.59 L 189.71 72.77 L 189.96 72.80 L 190.20 72.84 L 190.58 73.01 L 190.97 73.19 L 191.21 73.22 L 191.45 73.26 L 191.83 73.43 L 192.20 73.60 L 192.54 73.62 L 192.88 73.65 L 193.28 73.65 L 193.69 73.66 L 194.27 73.66 L 194.85 73.66 L 195.47 73.66 L 196.09 73.66 L 196.67 73.67 L 197.25 73.67 L 197.86 73.50 L 198.48 73.34 L 199.11 73.30 L 199.73 73.27 L 200.36 73.10 L 200.99 72.92 L 201.77 72.89 L 202.55 72.86 L 203.04 72.68 L 203.53 72.51 L 204.19 72.47 L 204.85 72.43 L 205.25 72.43 L 205.64 72.43 L 206.06 72.26 L 206.47 72.09 L 206.89 72.06 L 207.31 72.03 L 207.71 71.86 L 208.12 71.69 L 208.33 71.67 L 208.53 71.65 L 208.66 71.53 L 208.78 71.42 L 208.98 71.23 L 209.18 71.04 L 209.51 70.72 L 209.84 70.40 L 210.05 69.87 L 210.26 69.35 L 210.48 68.89 L 210.70 68.43 L 210.91 68.02 L 211.11 67.61 L 211.34 66.99 L 211.57 66.37 L 211.96 65.89 L 212.35 65.42 L 212.76 64.66 L 213.17 63.89 L 213.76 63.24 L 214.34 62.58 L 214.77 61.82 L 215.20 61.06 L 215.45 60.57 L 215.71 60.08 L 215.91 59.67 L 216.12 59.26 L 216.33 58.67 L 216.54 58.09 L 216.77 57.61 L 216.99 57.12 L 217.35 56.57 L 217.71 56.02 L 217.76 55.66 L 217.81 55.29 L 217.84 55.00 L 217.87 54.70 L 217.74 54.53 L 217.61 54.36 L 217.40 53.96 L 217.19 53.56 L 216.96 53.09 L 216.72 52.61 L 216.68 52.17 L 216.63 51.72 L 216.47 51.19 L 216.31 50.66 L 216.12 50.25 L 215.94 49.84 L 215.56 49.24 L 215.18 48.64 L 214.94 48.02 L 214.70 47.40 L 214.33 46.81 L 213.97 46.21 L 213.54 45.56 L 213.12 44.91 L 212.85 44.24 L 212.58 43.57 L 212.35 42.90 L 212.12 42.23 L 212.07 41.66 L 212.02 41.10 L 212.22 40.38 L 212.41 39.65 L 212.81 39.15 L 213.21 38.65 L 213.62 38.04 L 214.03 37.44 L 214.45 36.99 L 214.87 36.54 L 215.29 35.94 L 215.70 35.35 L 216.11 34.91 L 216.52 34.47 L 216.74 34.10 L 216.95 33.73 L 217.16 33.16 L 217.37 32.59 L 217.57 32.18 L 217.77 31.77 L 217.80 31.42 L 217.83 31.07 L 217.84 30.59 L 217.86 30.10 L 217.56 29.56 L 217.26 29.02 L 217.00 28.50 L 216.74 27.97 L 216.68 27.30 L 216.62 26.63 L 216.61 26.00 L 216.60 25.36 L 216.60 24.73 L 216.59 24.11 L 216.59 23.65 L 216.59 23.19 L 216.59 22.59 L 216.59 22.00 L 216.59 21.55 L 216.59 21.09 L 216.59 20.50 L 216.59 19.91 L 216.59 19.46 L 216.59 19.00 L 216.59 18.58 L 216.59 18.15 L 216.61 18.01 L 216.63 17.87 L 216.53 17.77 L 216.43 17.67 L 216.34 17.54 L 216.25 17.42 L 216.00 17.41 L 215.76 17.41 L 215.27 17.38 L 214.78 17.36 L 214.52 17.19 L 214.26 17.01 L 213.97 17.00 L 213.69 16.98 L 213.13 16.98 L 212.56 16.97 L 212.11 16.97 L 211.67 16.97 L 211.18 16.96 L 210.69 16.96 L 210.25 16.79 L 209.82 16.62 L 209.46 16.59 L 209.11 16.57 L 208.87 16.56 L 208.63 16.55 L 208.25 16.55 L 207.87 16.55 L 207.39 16.54 L 206.92 16.54 L 206.49 16.37 L 206.06 16.20 L 205.70 16.17 L 205.35 16.15 L 204.88 16.14 L 204.41 16.12 L 203.98 15.95 L 203.56 15.78 L 203.04 15.76 L 202.52 15.73 L 201.86 15.72 L 201.21 15.71 L 200.57 15.54 L 199.94 15.37 L 199.36 15.34 L 198.78 15.31 L 197.99 15.31 L 197.21 15.30 L 196.19 15.30 L 195.16 15.30 L 194.12 15.13 L 193.08 14.96 L 192.23 14.93 L 191.38 14.90 L 190.55 14.89 L 189.71 14.88 L 188.84 14.88 L 187.98 14.88 L 186.97 14.71 L 185.96 14.54 L 184.76 14.51 L 183.57 14.48 L 182.30 14.30 L 181.04 14.12 L 179.64 13.92 L 178.24 13.72 L 176.95 13.68 L 175.66 13.64 L 174.56 13.47 L 173.47 13.29 L 172.61 13.26 L 171.75 13.22 L 171.07 13.22 L 170.40 13.21 L 169.60 13.21 L 168.79 13.21 L 167.97 13.21 L 167.14 13.21 L 166.30 13.21 L 165.47 13.21 L 164.46 13.21 L 163.46 13.21 L 162.59 13.21 L 161.72 13.21 L 160.71 13.21 L 159.70 13.21 L 158.69 13.21 L 157.68 13.20 L 156.67 13.37 L 155.66 13.53 L 154.60 13.73 L 153.53 13.94 L 152.49 13.98 L 151.44 14.02 L 150.59 14.19 L 149.73 14.36 L 148.53 14.57 L 147.32 14.77 L 146.07 14.82 L 144.83 14.86 L 143.41 15.03 L 141.99 15.21 L 140.68 15.24 L 139.37 15.28 L 138.11 15.29 L 136.84 15.29 L 136.09 15.29 L 135.33 15.30 L 134.68 15.30 L 134.03 15.30 L 133.23 15.30 L 132.43 15.30 L 131.44 15.30 L 130.44 15.30 L 129.24 15.30 L 128.04 15.30 L 126.79 15.30 L 125.55 15.30 L 124.26 15.29 L 122.97 15.29 L 122.21 15.12 L 121.45 14.96 L 120.63 14.92 L 119.81 14.89 L 119.11 14.71 L 118.41 14.53 L 117.64 14.33 L 116.87 14.14 L 116.25 14.10 L 115.63 14.06 L 115.13 14.05 L 114.64 14.04 L 113.83 13.86 L 113.02 13.69 L 112.36 13.48 L 111.70 13.28 L 110.94 13.08 L 110.18 12.89 L 109.34 12.85 L 108.50 12.81 L 107.95 12.62 L 107.41 12.43 L 106.85 12.24 L 106.29 12.05 L 105.79 12.01 L 105.28 11.98 L 104.91 12.11 L 104.53 12.25 L 104.06 12.46 L 103.58 12.68 L 103.52 12.69 L 103.45 12.70 L 103.38 12.70 L 103.31 12.69 L 103.24 12.67 L 103.18 12.66 L 103.12 12.63 L 103.05 12.60 L 103.00 12.56 L 102.94 12.52 L 102.90 12.46 L 102.85 12.41 L 102.82 12.35 L 102.78 12.30 L 102.76 12.23 L 102.74 12.17 L 102.73 12.10 L 102.72 12.03 L 102.72 11.96 L 102.72 11.89 L 102.74 11.83 L 102.76 11.76 L 102.79 11.70 L 102.82 11.64 L 102.86 11.58 L 102.90 11.53 L 102.95 11.48 L 103.00 11.44 L 103.06 11.40 L 103.12 11.37 L 103.18 11.34 L 121.83 13.15 L 121.83 13.15 L 121.83 13.15 L 122.01 12.52 L 122.20 11.88 L 121.94 11.37 L 121.68 10.86 L 121.31 10.73 L 120.96 10.60 L 120.54 10.58 L 120.12 10.57 L 119.80 10.57 L 119.48 10.58 L 119.09 10.75 L 118.69 10.92 L 118.35 10.94 L 118.00 10.97 L 117.39 10.97 L 116.77 10.98 L 116.11 11.16 L 115.45 11.34 L 114.67 11.54 L 113.88 11.74 L 113.09 11.94 L 112.29 12.14 L 111.33 12.18 L 110.37 12.21 L 109.18 12.22 L 107.98 12.23 L 106.72 12.23 L 105.45 12.24 L 104.19 12.40 L 102.94 12.57 L 101.84 12.61 L 100.74 12.64 L 99.85 12.82 L 98.96 12.98 L 98.48 13.01 L 98.00 13.04 L 97.41 13.05 L 96.81 13.06 L 96.36 13.06 L 95.91 13.06 L 95.31 13.06 L 94.72 13.06 L 93.94 13.06 L 93.15 13.06 L 92.28 13.06 L 91.41 13.07 L 90.74 13.23 L 90.06 13.40 L 89.30 13.43 L 88.54 13.46 L 88.05 13.47 L 87.56 13.48 L 86.96 13.48 L 86.37 13.48 L 85.96 13.48 L 85.55 13.49 L 84.97 13.32 L 84.40 13.16 L 83.90 13.12 L 83.40 13.08 L 82.96 13.07 L 82.52 13.06 L 82.17 13.07 L 81.81 13.07 L 81.41 12.92 L 81.00 12.76 L 80.52 12.71 L 80.04 12.67 L 79.78 12.66 L 79.52 12.66 L 79.30 12.66 L 79.07 12.65 L 78.80 12.67 L 78.52 12.68 L 78.36 12.55 L 78.19 12.42 L 77.82 12.23 L 77.46 12.04 L 77.21 11.83 L 76.97 11.63 L 76.55 11.40 L 76.14 11.17 L 75.72 10.95 L 75.30 10.74 L 74.89 10.53 L 74.47 10.32 L 73.99 10.09 L 73.50 9.86 L 72.88 9.81 L 72.25 9.76 L 71.46 9.58 L 70.67 9.40 L 69.98 9.37 L 69.28 9.33 L 68.81 9.32 L 68.33 9.31 L 67.90 9.31 L 67.47 9.31 L 66.99 9.32 L 66.50 9.32 L 66.07 9.49 L 65.65 9.66 L 65.12 9.69 L 64.60 9.71 L 63.99 9.72 L 63.38 9.72 L 62.93 9.73 L 62.47 9.73 L 61.88 9.73 L 61.29 9.73 L 60.83 9.73 L 60.38 9.73 L 59.79 9.73 L 59.20 9.73 L 58.58 9.73 L 57.96 9.73 L 57.29 9.73 L 56.61 9.73 L 55.95 9.91 L 55.28 10.08 L 54.49 10.28 L 53.69 10.48 L 52.86 10.69 L 52.02 10.90 L 51.38 11.11 L 50.75 11.31 L 50.13 11.35 L 49.51 11.39 L 48.67 11.57 L 47.84 11.75 L 47.16 11.96 L 46.48 12.17 L 45.83 12.38 L 45.17 12.60 L 44.71 12.81 L 44.24 13.01 L 43.65 13.22 L 43.05 13.43 L 42.63 13.62 L 42.20 13.82 L 41.95 13.86 L 41.69 13.91 L 41.32 14.08 L 40.94 14.25 L 40.60 14.27 L 40.26 14.30 L 39.86 14.30 L 39.46 14.31 L 38.88 14.31 L 38.29 14.31 L 37.68 14.31 L 37.06 14.31 L 36.39 14.32 L 35.72 14.32 L 35.04 14.50 L 34.36 14.68 L 33.76 14.87 L 33.16 15.06 L 32.75 15.10 L 32.34 15.13 L 31.93 15.14 L 31.52 15.15 L 30.94 15.15 L 30.35 15.15 L 29.90 15.15 L 29.45 15.15 L 28.86 15.15 L 28.27 15.15 L 27.82 15.15 L 27.36 15.15 L 27.11 15.15 L 26.85 15.15 L 26.46 15.15 L 26.08 15.15 L 25.83 15.15 L 25.59 15.15 L 25.20 15.15 L 24.82 15.15 L 24.58 15.15 L 24.33 15.15 L 24.12 15.15 L 23.90 15.15 L 23.69 15.15 L 23.48 15.15 L 23.27 15.15 L 23.06 15.15 L 22.69 15.15 L 22.31 15.15 L 22.07 15.15 L 21.82 15.15 L 21.61 15.15 L 21.39 15.15 L 21.02 15.15 L 20.64 15.15 L 20.40 15.15 L 20.15 15.15 L 19.70 15.16 L 19.25 15.16 L 18.77 15.35 L 18.28 15.55 L 17.87 15.74 L 17.46 15.94 L 16.84 16.17 L 16.22 16.39 L 15.74 16.78 L 15.26 17.18 L 14.80 17.44 L 14.35 17.71 L 13.89 18.30 L 13.44 18.88 L 13.00 19.35 L 12.57 19.81 L 12.13 20.60 L 11.70 21.38 L 11.26 22.07 L 10.83 22.75 L 10.56 23.60 L 10.29 24.45 L 10.06 25.32 L 9.84 26.19 L 9.80 26.84 L 9.76 27.49 L 9.58 27.95 L 9.41 28.42 L 9.36 28.91 L 9.32 29.39 L 9.31 29.83 L 9.30 30.26 L 9.30 30.85 L 9.30 31.44 L 9.30 32.06 L 9.30 32.68 L 9.30 33.35 L 9.31 34.02 L 9.48 34.66 L 9.64 35.30 L 9.68 35.78 L 9.72 36.26 L 9.89 36.68 L 10.07 37.11 L 10.09 37.63 L 10.12 38.15 L 10.13 38.59 L 10.13 39.04 L 10.13 39.46 L 10.14 39.88 L 10.14 40.47 L 10.14 41.05 L 10.14 41.55 L 10.14 42.05 L 10.31 42.65 L 10.48 43.25 L 10.51 43.83 L 10.54 44.40 L 10.54 44.85 L 10.55 45.30 L 10.55 46.06 L 10.55 46.82 L 10.55 47.47 L 10.55 48.12 L 10.56 48.82 L 10.57 49.51 L 10.73 49.98 L 10.90 50.45 L 10.93 50.99 L 10.96 51.52 L 10.96 51.97 L 10.97 52.41 L 10.97 53.00 L 10.97 53.59 L 10.97 54.21 L 10.97 54.83 L 10.97 55.29 L 10.97 55.74 L 10.97 56.34 L 10.97 56.93 L 10.97 57.55 L 10.97 58.17 L 10.97 58.59 L 10.98 59.01 L 10.81 59.76 L 10.64 60.52 L 10.61 61.21 L 10.57 61.89 L 10.56 62.54 L 10.56 63.18 L 10.56 63.81 L 10.56 64.44 L 10.56 65.12 L 10.57 65.81 L 10.75 66.33 L 10.93 66.84 L 11.14 67.47 L 11.36 68.09 L 11.77 68.77 L 12.18 69.45 L 12.63 69.96 L 13.09 70.47 L 13.75 70.95 L 14.41 71.43 L 15.25 71.71 L 16.10 71.98 L 16.94 72.20 L 17.77 72.42 L 18.61 72.64 L 19.44 72.85 L 20.31 73.06 L 21.18 73.28 L 22.06 73.32 L 22.94 73.37 L 24.15 73.38 L 25.36 73.38 L 26.27 73.22 L 27.18 73.05 L 28.00 73.02 L 28.82 72.99 L 29.48 72.98 L 30.15 72.98 L 30.98 72.97 L 31.82 72.97 L 32.66 72.80 L 33.49 72.63 L 34.46 72.60 L 35.43 72.57 L 36.29 72.57 L 37.15 72.56 L 38.00 72.56 L 38.84 72.56 L 39.67 72.56 L 40.51 72.56 L 41.35 72.56 L 42.18 72.56 L 42.85 72.56 L 43.52 72.56 L 44.16 72.56 L 44.79 72.56 L 45.42 72.56 L 46.05 72.56 L 46.63 72.55 L 47.21 72.55 L 47.79 72.71 L 48.36 72.86 L 48.99 73.06 L 49.62 73.26 L 50.42 73.47 L 51.22 73.68 L 52.05 73.89 L 52.88 74.10 L 53.72 74.31 L 54.55 74.52 L 55.39 74.73 L 56.22 74.94 L 57.09 75.15 L 57.96 75.37 L 58.80 75.41 L 59.63 75.45 L 60.30 75.63 L 60.97 75.80 L 61.60 75.84 L 62.23 75.87 L 62.86 76.05 L 63.49 76.22 L 64.30 76.26 L 65.11 76.30 L 66.11 76.47 L 67.11 76.64 L 68.17 76.68 L 69.24 76.72 L 70.45 76.72 L 71.67 76.73 L 72.91 76.73 L 74.16 76.73 L 75.24 76.73 L 76.33 76.74 L 77.38 76.74 L 78.44 76.74 L 79.48 76.74 L 80.53 76.74 L 81.44 76.73 L 82.35 76.73 L 83.20 76.56 L 84.06 76.40 L 84.86 76.36 L 85.66 76.33 L 86.69 76.33 L 87.71 76.32 L 88.76 76.15 L 89.80 75.98 L 90.81 75.95 L 91.83 75.92 L 92.90 75.91 L 93.97 75.90 L 94.89 75.72 L 95.81 75.55 L 96.63 75.35 L 97.45 75.16 L 98.13 75.12 L 98.80 75.07 L 99.47 74.89 L 100.14 74.71 L 100.94 74.51 L 101.74 74.30 L 102.41 74.09 L 103.09 73.88 L 103.71 73.67 L 104.34 73.47 L 105.09 73.27 L 105.84 73.07 L 106.50 73.03 L 107.15 72.99 L 107.97 72.81 L 108.80 72.63 L 109.80 72.43 L 110.80 72.22 L 111.68 72.01 L 112.57 71.80 L 113.22 71.60 L 113.87 71.39 L 114.29 71.36 L 114.71 71.32 L 115.12 71.31 L 115.54 71.31 L 115.95 71.30 L 116.37 71.30 L 116.79 71.30 L 117.20 71.30 L 117.46 71.30 L 117.71 71.30 L 117.85 71.29 L 118.00 71.29 L 118.26 71.41 L 118.53 71.53 L 118.82 71.76 L 119.11 71.98 L 119.54 72.04 L 119.97 72.10 L 120.33 72.25 L 120.68 72.41 L 121.15 72.63 L 121.61 72.85 L 122.24 72.90 L 122.86 72.95 L 123.65 73.12 L 124.44 73.30 L 125.30 73.34 L 126.17 73.37 L 126.84 73.38 L 127.51 73.39 L 128.32 73.39 L 129.12 73.39 L 129.90 73.39 L 130.67 73.38 L 131.16 73.55 L 131.65 73.71 L 132.26 73.75 L 132.87 73.78 L 133.49 73.96 L 134.11 74.13 L 134.61 74.17 L 135.11 74.21 L 135.31 74.21 L 135.51 74.21 L 135.88 74.37 L 136.25 74.54 L 136.56 74.58 L 136.87 74.63 L 137.45 74.63 L 138.02 74.64 L 138.47 74.64 L 138.91 74.64 L 139.50 74.65 L 140.10 74.65 L 140.88 74.65 L 141.67 74.65 L 142.33 74.65 L 142.99 74.65 L 143.79 74.65 L 144.59 74.65 L 145.42 74.65 L 146.25 74.65 L 147.08 74.65 L 147.91 74.65 L 148.75 74.65 L 149.59 74.65 L 150.25 74.65 L 150.92 74.65 L 151.73 74.65 L 152.53 74.65 L 153.36 74.65 L 154.19 74.65 L 154.79 74.64 L 155.40 74.64 L 155.86 74.80 L 156.32 74.97 L 156.93 75.00 L 157.53 75.04 L 158.15 75.21 L 158.77 75.39 L 159.45 75.42 L 160.12 75.46 L 160.88 75.47 L 161.64 75.47 L 162.29 75.64 L 162.95 75.81 L 163.79 75.84 L 164.63 75.88 L 165.47 75.89 L 166.30 75.90 L 167.17 75.90 L 168.04 75.90 L 168.92 75.72 L 169.80 75.55 L 170.65 75.34 L 171.50 75.14 L 172.19 74.93 L 172.87 74.72 L 173.52 74.50 L 174.18 74.28 L 174.65 74.07 L 175.11 73.86 L 175.71 73.65 L 176.30 73.44 L 176.71 73.25 L 177.12 73.06 L 177.64 73.03 L 178.16 72.99 L 178.77 72.99 L 179.37 72.98 L 179.83 72.98 L 180.29 72.97 L 180.71 72.97 L 181.14 72.97 L 181.72 72.97 L 182.31 72.97 L 182.76 72.97 L 183.21 72.97 L 183.64 72.97 L 184.06 72.97 L 184.42 72.97 L 184.77 72.96 L 185.17 73.13 L 185.58 73.29 L 186.06 73.33 L 186.54 73.37 L 186.91 73.37 L 187.27 73.37 L 187.67 73.54 L 188.07 73.70 L 188.31 73.73 L 188.55 73.77 L 188.94 73.94 L 189.32 74.11 L 189.56 74.15 L 189.81 74.18 L 190.19 74.36 L 190.57 74.53 L 190.82 74.57 L 191.06 74.60 L 191.45 74.78 L 191.85 74.95 L 192.33 75.00 L 192.81 75.05 L 193.24 75.05 L 193.67 75.06 L 194.26 75.06 L 194.85 75.06 L 195.47 75.06 L 196.09 75.06 L 196.76 75.06 L 197.43 75.06 L 198.06 74.89 L 198.70 74.72 L 199.33 74.69 L 199.96 74.65 L 200.58 74.48 L 201.21 74.31 L 202.01 74.27 L 202.82 74.23 L 203.31 74.06 L 203.81 73.88 L 204.35 73.85 L 204.90 73.83 L 205.41 73.81 L 205.92 73.80 L 206.35 73.63 L 206.79 73.46 L 207.21 73.42 L 207.64 73.39 L 208.06 73.21 L 208.49 73.04 L 208.79 72.99 L 209.09 72.93 L 209.40 72.70 L 209.71 72.47 L 209.93 72.25 L 210.15 72.04 L 210.58 71.61 L 211.00 71.18 L 211.27 70.55 L 211.54 69.92 L 211.75 69.48 L 211.96 69.04 L 212.18 68.60 L 212.40 68.16 L 212.59 67.61 L 212.78 67.06 L 213.14 66.63 L 213.51 66.20 L 213.91 65.45 L 214.32 64.70 L 214.90 64.05 L 215.48 63.40 L 215.96 62.56 L 216.43 61.72 L 216.69 61.22 L 216.95 60.72 L 217.18 60.26 L 217.41 59.81 L 217.62 59.22 L 217.84 58.62 L 218.03 58.21 L 218.22 57.79 L 218.62 57.15 L 219.01 56.52 L 219.11 55.98 L 219.21 55.43 L 219.21 54.88 L 219.21 54.33 L 219.01 53.99 L 218.82 53.66 L 218.63 53.29 L 218.43 52.92 L 218.25 52.57 L 218.07 52.22 L 218.03 51.84 L 218.00 51.45 L 217.81 50.81 L 217.62 50.17 L 217.40 49.68 L 217.18 49.18 L 216.80 48.60 L 216.43 48.01 L 216.19 47.40 L 215.95 46.78 L 215.55 46.12 L 215.15 45.46 L 214.75 44.86 L 214.36 44.26 L 214.13 43.67 L 213.89 43.09 L 213.69 42.51 L 213.49 41.93 L 213.45 41.57 L 213.42 41.22 L 213.54 40.75 L 213.66 40.29 L 213.99 39.89 L 214.33 39.48 L 214.73 38.90 L 215.13 38.32 L 215.54 37.87 L 215.96 37.41 L 216.38 36.82 L 216.79 36.23 L 217.22 35.77 L 217.65 35.30 L 217.93 34.82 L 218.22 34.34 L 218.44 33.73 L 218.67 33.13 L 218.89 32.64 L 219.12 32.14 L 219.17 31.65 L 219.22 31.15 L 219.22 30.46 L 219.22 29.77 L 218.86 29.07 L 218.50 28.37 L 218.29 27.98 L 218.08 27.59 L 218.05 27.08 L 218.02 26.56 L 218.01 25.96 L 218.00 25.35 L 218.00 24.73 L 217.99 24.10 L 217.99 23.64 L 217.99 23.19 L 217.99 22.59 L 217.99 22.00 L 217.99 21.55 L 217.99 21.09 L 217.99 20.50 L 217.99 19.91 L 217.99 19.46 L 217.99 19.00 L 217.99 18.58 L 217.99 18.15 L 217.97 17.79 L 217.96 17.42 L 217.72 17.09 L 217.49 16.76 L 217.18 16.46 L 216.87 16.16 L 216.36 16.09 L 215.86 16.01 L 215.53 16.02 L 215.20 16.02 L 214.96 15.86 L 214.73 15.69 L 214.24 15.64 L 213.76 15.59 L 213.17 15.58 L 212.57 15.57 L 212.12 15.57 L 211.67 15.57 L 211.31 15.58 L 210.95 15.58 L 210.54 15.42 L 210.14 15.25 L 209.66 15.21 L 209.18 15.17 L 208.92 15.16 L 208.65 15.15 L 208.26 15.15 L 207.87 15.15 L 207.53 15.16 L 207.18 15.16 L 206.78 15.00 L 206.38 14.83 L 205.90 14.79 L 205.42 14.75 L 205.05 14.75 L 204.68 14.75 L 204.27 14.58 L 203.86 14.42 L 203.21 14.37 L 202.56 14.33 L 201.98 14.33 L 201.40 14.32 L 200.78 14.16 L 200.16 13.99 L 199.49 13.95 L 198.82 13.91 L 198.02 13.91 L 197.21 13.90 L 196.25 13.90 L 195.28 13.90 L 194.25 13.73 L 193.22 13.57 L 192.32 13.53 L 191.42 13.50 L 190.57 13.49 L 189.72 13.48 L 188.91 13.48 L 188.10 13.48 L 187.10 13.31 L 186.10 13.15 L 184.89 13.11 L 183.68 13.08 L 182.46 12.92 L 181.23 12.75 L 179.80 12.54 L 178.36 12.34 L 177.07 12.30 L 175.79 12.26 L 174.70 12.08 L 173.61 11.91 L 172.69 11.87 L 171.78 11.83 L 171.09 11.83 L 170.41 11.82 L 169.60 11.82 L 168.80 11.82 L 167.97 11.82 L 167.14 11.82 L 166.30 11.82 L 165.47 11.82 L 164.46 11.82 L 163.46 11.82 L 162.59 11.82 L 161.72 11.82 L 160.71 11.82 L 159.70 11.82 L 158.64 11.82 L 157.57 11.82 L 156.50 11.99 L 155.42 12.16 L 154.40 12.36 L 153.37 12.56 L 152.33 12.60 L 151.28 12.64 L 150.38 12.82 L 149.48 12.99 L 148.33 13.18 L 147.18 13.38 L 145.95 13.42 L 144.72 13.46 L 143.30 13.64 L 141.88 13.81 L 140.62 13.85 L 139.35 13.88 L 138.09 13.89 L 136.84 13.89 L 136.09 13.89 L 135.33 13.90 L 134.68 13.90 L 134.03 13.90 L 133.23 13.90 L 132.43 13.90 L 131.44 13.90 L 130.44 13.90 L 129.24 13.90 L 128.04 13.90 L 126.79 13.90 L 125.55 13.90 L 124.33 13.90 L 123.12 13.90 L 122.38 13.73 L 121.63 13.57 L 120.83 13.54 L 120.02 13.50 L 119.39 13.34 L 118.76 13.17 L 117.92 12.96 L 117.09 12.76 L 116.38 12.72 L 115.68 12.67 L 115.24 12.67 L 114.80 12.66 L 114.09 12.50 L 113.38 12.34 L 112.73 12.14 L 112.08 11.94 L 111.24 11.73 L 110.40 11.51 L 109.58 11.47 L 108.77 11.43 L 108.31 11.27 L 107.86 11.11 L 107.21 10.89 L 106.57 10.68 L 105.83 10.63 L 105.09 10.59 L 104.55 10.77 L 104.01 10.95 L 103.56 11.16 L 103.12 11.37 L 103.06 11.40 L 103.00 11.44 L 102.95 11.48 L 102.90 11.53 L 102.86 11.58 L 102.82 11.64 L 102.79 11.70 L 102.76 11.76 L 102.74 11.83 L 102.72 11.89 L 102.72 11.96 L 102.72 12.03 L 102.73 12.10 L 102.74 12.17 L 102.76 12.23 L 102.78 12.30 L 102.82 12.35 L 102.85 12.41 L 102.90 12.46 L 102.94 12.52 L 103.00 12.56 L 103.05 12.60 L 103.12 12.63 L 103.18 12.66 L 103.24 12.67 L 103.31 12.69 L 103.38 12.70 L 103.45 12.70 L 103.52 12.69 L 103.58 12.68 L 103.65 12.66 L 103.71 12.63 L 103.77 12.60 L 103.83 12.56 L 103.88 12.52 L 103.93 12.47 L 103.97 12.42 L 104.01 12.36 L 104.04 12.30 L 104.07 12.24 L 104.09 12.17 L 104.11 12.11 L 104.11 12.04 L 104.12 11.97 L 104.11 11.90 L 104.10 11.83 L 104.07 11.77 L 104.05 11.70 L 104.02 11.64 L 103.98 11.59 L 103.93 11.53 L 103.89 11.48 L 103.83 11.44 L 103.78 11.40 L 103.72 11.37 L 103.66 11.34 L 103.59 11.32 L 103.52 11.31 L 103.45 11.30 L 103.39 11.30 L 103.32 11.31 L 103.25 11.32 Z"/></svg>
