<svg preserveAspectRatio="none" xmlns="http://www.w3.org/2000/svg" viewBox="8.31 8.31 170.55 52.52" width="170.55" height="52.52" xmlns:v="https://vecta.io/nano"><path fill="#1e1e1e" d="M91.981 11.326q0 0 .05-.06.04-.05.09-.09.06-.05.12-.08.06-.03.12-.05.07-.02.14-.03.06 0 .12 0 .07.01.14.03.06.02.12.05.06.03.12.08.05.04.09.09.05.06.08.12.03.06.05.12.02.07.03.14 0 .06 0 .12-.01.07-.03.14-.02.06-.05.12-.03.06-.37.55-.33.48-.6.61-.27.13-.63.31-.37.17-.78.21-.41.04-.76.05-.36.01-.51 0-.16 0-.6.14-.44.13-.85.16-.41.04-.7.04-.29-.01-.63.13-.33.14-.87.17-.55.04-.92.04-.38.01-.73.01-.35 0-.63 0-.27-.01-.61.12-.33.14-.87.17-.54.04-.92.04-.38.01-.86.01-.49 0-1.13 0-.64 0-1.32 0-.67 0-1.22 0-.54 0-1.19 0-.66 0-1.2 0-.54 0-1.17-.01-.62-.02-1.02-.3-.4-.29-.7-.32-.29-.04-.82-.2-.52-.16-.85-.32-.33-.15-.74-.17-.42-.03-.77-.03-.36-.01-.89-.01-.52-.01-1.04-.15-.51-.13-.98-.16-.47-.02-1.14-.03-.67 0-1.35-.14-.69-.14-1.33-.17-.65-.02-1.46-.03-.81 0-1.52 0-.71 0-1.53 0-.83 0-1.54 0-.71 0-1.26 0-.55 0-1.07 0-.52 0-1.04 0-.51 0-1.16 0-.65 0-1.32 0-.68 0-1.4-.01-.72 0-1.28-.14-.55-.13-1.19-.16-.64-.03-1.46-.17-.81-.14-1.49-.17-.68-.02-1.36-.03-.68 0-1.32-.01-.64 0-1.13.12-.5.13-1.01.29-.52.17-1.14.32-.61.16-1.12.45-.5.29-1.16.63-.66.34-1.37.69-.7.35-1.42.57-.72.22-1.44.4-.72.19-1.35.23-.63.04-1.28-.13-.64-.16-1.09-.51-.45-.35-.79-.68-.34-.32-.79-.64-.44-.31-.73-.48-.29-.16-.55-.19-.26-.02-.72-.03-.46-.01-.78-.01-.32-.01-.73.11-.41.12-.77.28-.36.16-.86.33-.5.18-1 .35-.51.17-.99.33-.47.15-.98.46-.5.3-.99.49-.49.18-.83.47-.34.29-.82.62-.48.33-.78.6-.3.27-.48.69-.18.42-.48 1.02-.29.59-.35 1.09-.05.5-.2 1.17-.16.67-.32 1.32-.16.65-.19 1.32-.03.67-.18 1.52-.15.85-.31 1.53-.16.69-.19 1.34-.03.65-.04 1.33 0 .67-.01 1.32 0 .64.13 1.28.13.63.29 1.16.16.54.33 1.21.17.67.35 1.49.17.81.34 1.51.16.71.32 1.35.16.64.44 1.13.28.5.62 1.02.33.52.56.95.22.42.41 1.08.2.66.35 1.29.16.63.45 1.13.28.49.6 1 .33.5.67 1.02.34.51.69 1.03.35.53.69 1.18.35.65.66 1.15.32.51.77 1 .46.48.77.81.31.33.68.49.37.16.81.2.44.03.93.04.5 0 .94.01.44.01.86.17.42.16.81.35.39.19.54.33.15.14.53.15.38.02.92.17.54.15 1.01.31.47.15 1.07.18.59.03 1.43.04.83 0 1.55.14.71.14 1.5.17.79.02 1.67.03.87.01 1.59.14.73.14 1.28.17.56.03 1.22.17.65.14 1.19.17.54.03 1.2.17.65.14 1.29.17.64.03 1.31.03.68.01 1.33.01.65 0 1.41-.13.76-.12 1.59-.42.83-.29 1.55-.49.72-.2 1.31-.38.58-.19 1.15-.23.57-.04.96-.05.39 0 .97 0 .58 0 1.08-.13.5-.13 1.32-.3.83-.17 1.7-.21.88-.03 1.6-.04.72-.01 1.47 0 .76 0 1.46.28.7.28 1.35.32.65.05 1.37.21.72.15 1.24.31.52.16.99.19.47.03 1.15.04.69.01 1.23.15.55.14 1.19.16.64.03 1.48.17.83.15 1.68.31.85.17 1.73.35.88.17 1.73.48.85.3 1.82.5.97.19 1.69.36.72.17 1.42.21.7.04 1.25.18.54.14 1.02.17.48.02 1.12.03.64 0 1.31 0 .68.01 1.22.01.54 0 1.3 0 .76 0 1.43-.13.66-.13 1.48-.3.82-.16 1.67-.33.84-.17 1.57-.34.74-.18 1.33-.21.59-.04 1.12-.05.54-.01 1.01 0 .48 0 1.08-.13.6-.13 1.1-.28.5-.15 1.15-.45.64-.31 1.21-.51.57-.21 1.27-.4.7-.19 1.24-.22.54-.04 1.03-.17.48-.14 1.13-.3.64-.17 1.15-.33.51-.16.89-.33.37-.17.86-.33.48-.17.89-.36.41-.18.76-.22.36-.03.7-.18.35-.14.9-.18.54-.04.92-.04.38-.01.86-.01.49 0 1 0 .5 0 1.15 0 .65 0 1.36 0 .71 0 1.39.14.69.13 1.52.16.82.03 1.4.17.58.15 1.1.17.53.03 1.09.19.56.15 1.08.32.52.16 1.05.34.53.18.9.34.37.17.94.33.58.16 1.49.32.9.16 2.28.2 1.39.03 2.35.04.96 0 1.84 0 .87.01 1.73.01.86 0 1.57 0 .72 0 1.38 0 .66 0 1.45-.13.79-.14 1.65-.3.87-.17 1.76-.21.88-.03 1.83-.03.95-.01 1.93-.27.98-.27 1.9-.47.93-.2 1.79-.24.86-.04 1.58-.18.71-.14 1.27-.17.55-.03 1.2-.17.66-.15 1.34-.17.68-.03 1.33-.17.64-.14 1.33-.3.68-.17 1.53-.34.85-.18 1.41-.21.56-.03 1.01-.15.44-.12.92-.41.48-.28.85-.47.37-.2.82-.48.45-.29.79-.6.34-.32.66-.63.32-.31.64-.75.31-.44.49-.76.18-.33.38-.84.19-.52.5-.89.31-.38.48-.8.17-.43.35-.92.17-.5.34-1 .16-.5.32-1.1.16-.6.2-1.13.03-.54.17-1.19.15-.65.17-1.29.03-.64.03-1.17.01-.54.01-1.2 0-.65 0-1.46 0-.81.01-1.48 0-.67-.13-1.18-.13-.5-.3-1.19-.17-.69-.21-1.41-.03-.72-.04-1.41-.01-.69-.01-1.24 0-.54 0-1.06 0-.52 0-1.03 0-.52.01-.97 0-.45-.12-.77-.12-.32-.24-.72-.12-.39-.33-.54-.21-.14-.52-.31-.31-.16-.68-.36-.38-.19-.76-.53-.38-.34-.59-.55-.21-.2-.49-.49-.29-.28-.62-.48-.33-.19-.67-.5-.34-.32-.65-.5-.32-.18-.77-.48-.46-.3-.94-.49-.48-.19-.87-.37-.39-.18-.74-.36-.35-.17-.67-.33-.33-.16-.8-.33-.48-.17-.8-.33-.33-.16-.65-.18-.33-.03-.8-.17-.47-.15-.93-.17-.45-.02-.87-.03-.41-.01-.9-.15-.49-.14-.95-.16-.46-.02-.87-.03-.42-.01-.91-.15-.49-.14-.99-.17-.51-.02-1.05-.17-.55-.15-1.19-.32-.64-.16-1.31-.33-.66-.16-1.58-.33-.92-.16-1.92-.2-1.01-.03-1.92-.18-.91-.14-1.81-.32-.9-.17-1.64-.48-.73-.31-1.38-.49-.66-.19-1.44-.36-.78-.17-1.73-.2-.94-.03-2.07-.04-1.12-.01-2.29.12-1.16.14-2.34.3-1.18.16-2.23.33-1.04.17-1.76.32-.73.16-1.54.46-.81.3-1.66.63-.85.34-1.85.68-.99.34-2.05.7-1.06.35-2 .42-.94.08-1.68.09-.73.02-1.43.02-.69 0-1.24 0-.55 0-1.2 0-.66 0-1.3 0-.64 0-1.32.14-.67.13-1.35.16-.68.03-1.36.17-.69.14-1.54.17-.85.03-1.57.04-.72 0-1.4 0-.69 0-1.51.01-.82 0-1.4 0-.57 0-1.23 0-.66 0-1.26-.01-.6 0-1.04-.16-.44-.15-.94-.32-.5-.17-1.11-.46-.61-.29-1.11-.35-.5-.05-1.14-.2-.64-.14-1.18-.17-.53-.03-1.18-.17-.66-.15-1.21-.18-.55-.03-1.22-.23-.67-.21-.86-.47-.19-.26-.24-.43-.06-.16-.02-.34.03-.17.15-.29.11-.13.28-.2.16-.06 1.85-.23 1.68-.17 1.75-.15.07.01.13.03.06.03.12.07.06.04.11.08.04.05.08.11.04.06.07.12.03.06.04.13.01.06.01.13 0 .06-.01.13-.01.07-.04.13-.02.07-.06.12-.04.06-.09.11-.05.05-.1.09-.06.03-.12.06-.07.03-.13.04-.07.02-.14.02-.07 0-.14-.02-.06-.01-.13-.04-.06-.02-.12-.06-.05-.04-.1-.08-.05-.05-.09-.11-.04-.06-.07-.12-.02-.06-.04-.13-.01-.07-.01-.14 0-.06.01-.12.02-.07.04-.13.03-.07.06-.12.04-.06.09-.11.05-.05.11-.09.05-.04.12-.06.06-.03.13-.04.06-.02.13-.02.07 0 .14.02.07.01.13.03.06.03.12.07.06.04.11.08.04.05.08.11.04.06.07.12.03.06.04.13.01.06.01.13 0 .06-.01.13-.01.07-.04.13-.02.07-.06.12-.04.06-.09.11-.05.05-.1.09-.06.03-.12.06-.07.03-.13.04-.07.02-1.69.19-1.61.16-1.34-.03.28-.2-.38-.33-.67-.13-.63-.31.03-.17.15-.29.11-.13.28-.2.16-.06.51.43.35.5.33.17-.01-.34 0-.27.02.07.38.14.37.08.9.11.53.03 1.18.17.66.14 1.19.17.54.03 1.2.18.67.15 1.24.22.58.07 1.26.39.67.32 1.14.47.47.16.8.28.33.13.81.12.48 0 1.14 0 .66 0 1.23 0 .58 0 1.4 0 .82-.01 1.5-.01.69 0 1.39 0 .71-.01 1.49-.03.78-.03 1.47-.17.68-.14 1.36-.17.68-.03 1.37-.17.69-.13 1.4-.14.71 0 1.37 0 .65 0 1.2 0 .55 0 1.23 0 .69 0 1.4-.02.71-.01 1.55-.07.83-.06 1.8-.39.98-.33 1.96-.67.98-.34 1.82-.66.85-.33 1.71-.65.85-.31 1.65-.49.79-.18 1.86-.35 1.07-.17 2.27-.34 1.2-.16 2.41-.3 1.21-.14 2.39-.13 1.18.01 2.2.04 1.01.04 1.88.23.86.18 1.58.39.72.2 1.42.51.71.3 1.52.45.82.16 1.68.3.86.14 1.87.17 1.01.04 2 .21.99.17 1.68.34.69.17 1.34.34.65.16 1.13.3.48.13.98.16.51.03.99.17.48.13.81.13.34.01.89.04.55.03 1.03.17.48.13.81.14.34 0 .89.03.55.04 1.04.18.48.14.86.18.37.04.78.23.4.18.89.36.48.17.84.35.36.18.71.35.34.17.7.34.36.17.89.38.53.21 1.03.53.5.33.86.54.37.22.71.53.34.31.68.52.34.2.69.54.34.34.54.53.2.19.5.47.3.27.6.43.31.15.67.35.36.2.76.52.4.32.61.89.21.58.36 1.01.15.43.15 1 .01.57.01 1.09 0 .51 0 1.03 0 .52 0 1.06 0 .54.01 1.22.01.67.04 1.31.02.63.18 1.26.16.62.3 1.21.15.59.15 1.35 0 .75 0 1.56 0 .81 0 1.47 0 .66-.01 1.21 0 .55-.03 1.26-.03.71-.18 1.37-.14.66-.18 1.21-.03.54-.21 1.23-.19.7-.36 1.22-.18.52-.36 1.04-.18.52-.4 1.06-.23.54-.53.9-.31.36-.47.82-.16.45-.39.86-.23.41-.6.93-.37.52-.74.88-.38.37-.77.73-.4.36-.92.7-.52.33-.91.53-.38.2-.93.52-.54.32-1.15.49-.6.16-1.18.2-.59.03-1.38.2-.78.16-1.47.33-.68.16-1.39.31-.72.15-1.39.17-.68.03-1.33.18-.66.14-1.21.17-.56.03-1.28.17-.72.14-1.58.18-.85.04-1.7.22-.85.19-1.9.47-1.05.28-2.08.29-1.03.01-1.85.04-.82.03-1.64.19-.83.16-1.68.3-.85.14-1.57.14-.72.01-1.44.01-.71 0-1.57 0-.86 0-1.74-.01-.87 0-1.84 0-.97-.01-2.42-.05-1.45-.03-2.43-.21-.99-.18-1.65-.36-.66-.18-1.04-.36-.39-.17-.88-.33-.49-.17-1-.33-.5-.16-.97-.29-.47-.13-.99-.16-.52-.03-1.09-.17-.57-.14-1.38-.17-.81-.03-1.49-.16-.67-.14-1.31-.14-.64.01-1.29.01-.65 0-1.15 0-.51 0-.99 0-.48 0-.84 0-.36.01-.77.03-.41.02-.75.16-.33.14-.67.18-.34.03-.67.19-.33.15-.82.32-.49.18-.88.35-.38.17-.95.35-.57.18-1.22.34-.66.17-1.21.32-.54.15-1.09.19-.54.03-1.14.2-.61.16-1.12.35-.51.19-1.17.5-.67.3-1.24.48-.58.18-1.28.32-.7.15-1.25.15-.54 0-1.05.01-.51.01-1.03.04-.51.03-1.2.2-.69.16-1.55.33-.85.17-1.68.34-.82.16-1.55.3-.74.14-1.56.14-.83.01-1.37.01-.55 0-1.22-.01-.68 0-1.34 0-.66-.01-1.22-.04-.56-.03-1.11-.18-.55-.14-1.24-.18-.69-.03-1.46-.21-.77-.18-1.77-.38-1.01-.21-1.87-.51-.85-.31-1.67-.47-.83-.17-1.67-.33-.84-.16-1.63-.3-.78-.14-1.45-.17-.67-.03-1.2-.17-.54-.13-1.15-.14-.62 0-1.19-.04-.57-.04-1.14-.21-.57-.17-1.21-.31-.65-.14-1.36-.2-.71-.06-1.38-.33-.67-.27-1.29-.26-.62 0-1.33.01-.71.01-1.51.04-.81.03-1.56.19-.76.15-1.32.3-.57.14-1.23.14-.67.01-1.03.01-.37.01-.84.04-.47.03-.98.2-.52.16-1.23.36-.71.19-1.58.5-.86.3-1.74.45-.87.15-1.59.15-.71 0-1.4-.01-.69-.01-1.4-.04-.71-.03-1.37-.17-.65-.14-1.19-.17-.54-.03-1.2-.17-.65-.14-1.2-.17-.55-.03-1.26-.16-.71-.14-1.53-.14-.82-.01-1.67-.04-.86-.03-1.56-.16-.71-.14-1.49-.15-.79 0-1.49-.04-.7-.04-1.25-.21-.55-.18-1.01-.31-.46-.14-.98-.19-.52-.05-.78-.25-.26-.2-.56-.34-.29-.14-.56-.25-.28-.11-.59-.11-.31 0-.84 0-.52-.01-1.1-.07-.57-.05-1.17-.31-.59-.26-1.02-.69-.42-.42-.92-.97-.5-.54-.87-1.12-.37-.58-.7-1.22-.34-.64-.68-1.14-.33-.5-.67-1.01-.34-.52-.68-1.05-.34-.53-.67-1.12-.34-.59-.52-1.3-.19-.71-.35-1.29-.16-.58-.34-.91-.18-.34-.52-.85-.33-.52-.66-1.12-.33-.59-.52-1.33-.19-.73-.36-1.45-.17-.71-.34-1.52-.17-.81-.33-1.45-.17-.64-.34-1.2-.16-.55-.31-1.29-.14-.73-.14-1.45 0-.72 0-1.41.01-.69.05-1.42.03-.72.2-1.45.17-.73.31-1.52.14-.79.17-1.48.04-.69.21-1.4.17-.71.32-1.34.14-.63.21-1.21.08-.58.41-1.27.33-.69.58-1.22.24-.53.67-.94.44-.41.93-.75.49-.34.9-.68.41-.34.95-.55.53-.21 1.05-.52.52-.31 1.07-.49.54-.19 1.05-.36.5-.17.97-.33.47-.16.84-.33.38-.17.94-.32.55-.15.97-.15.42 0 .92.01.5 0 .93.06.43.05.88.29.45.25.96.61.52.37.87.71.36.33.66.58.3.25.7.35.39.09.85.06.46-.03 1.1-.2.65-.17 1.29-.36.65-.2 1.3-.52.64-.33 1.29-.66.65-.33 1.22-.65.57-.32 1.26-.5.68-.18 1.2-.34.52-.17 1.12-.31.6-.15 1.33-.15.72 0 1.42 0 .69.01 1.43.04.74.03 1.55.17.82.14 1.48.17.67.03 1.21.17.54.13 1.18.13.63 0 1.31 0 .67 0 1.32 0 .65 0 1.16 0 .52 0 1.04 0 .52 0 1.07 0 .55 0 1.26 0 .71 0 1.54 0 .82 0 1.53 0 .71 0 1.54 0 .82.01 1.54.04.71.03 1.38.17.67.13 1.29.14.63 0 1.18.02.56.03 1.05.17.5.14.94.13.44 0 .82.01.38.01.94.05.55.04.96.22.41.18.84.31.43.14.84.21.4.07.75.33.35.27.76.25.41-.02.95-.02.54 0 1.2 0 .65 0 1.19 0 .55 0 1.22 0 .68 0 1.32 0 .64 0 1.12 0 .48 0 .84 0 .36-.01.77-.03.42-.02.77-.16.35-.14.76-.14.41-.01.75-.01.35 0 .7-.01.36 0 .78-.02.41-.02.76-.16.35-.14.75-.15.4-.01.71-.03.32-.03.78-.16.46-.14.71-.15.26 0 .58-.01.33 0 .59-.02.26-.02.52-.15.25-.14.37-.17.11-.03.32-.36.2-.33.2-.33h0z"/></svg>