<svg preserveAspectRatio="none" xmlns="http://www.w3.org/2000/svg" viewBox="8.31 8.31 170.55 52.52"><path fill="#000" d="M 91.98 11.33 L 91.98 11.33 L 92.03 11.27 L 92.07 11.22 L 92.12 11.18 L 92.18 11.13 L 92.24 11.10 L 92.30 11.07 L 92.36 11.05 L 92.43 11.03 L 92.50 11.02 L 92.56 11.02 L 92.62 11.02 L 92.69 11.03 L 92.76 11.05 L 92.82 11.07 L 92.88 11.10 L 92.94 11.13 L 93.00 11.18 L 93.05 11.22 L 93.09 11.27 L 93.14 11.33 L 93.17 11.39 L 93.20 11.45 L 93.22 11.51 L 93.24 11.58 L 93.25 11.65 L 93.25 11.71 L 93.25 11.77 L 93.24 11.84 L 93.22 11.91 L 93.20 11.97 L 93.17 12.03 L 93.14 12.09 L 92.80 12.58 L 92.47 13.06 L 92.20 13.19 L 91.93 13.32 L 91.57 13.50 L 91.20 13.67 L 90.79 13.71 L 90.38 13.75 L 90.03 13.76 L 89.67 13.77 L 89.52 13.76 L 89.36 13.76 L 88.92 13.90 L 88.48 14.03 L 88.07 14.06 L 87.66 14.10 L 87.37 14.10 L 87.08 14.09 L 86.74 14.23 L 86.41 14.37 L 85.87 14.40 L 85.32 14.44 L 84.95 14.44 L 84.57 14.45 L 84.22 14.45 L 83.87 14.45 L 83.59 14.45 L 83.32 14.44 L 82.98 14.57 L 82.65 14.71 L 82.11 14.74 L 81.57 14.78 L 81.19 14.78 L 80.81 14.79 L 80.33 14.79 L 79.84 14.79 L 79.20 14.79 L 78.56 14.79 L 77.88 14.79 L 77.21 14.79 L 76.66 14.79 L 76.12 14.79 L 75.47 14.79 L 74.81 14.79 L 74.27 14.79 L 73.73 14.79 L 73.10 14.78 L 72.48 14.76 L 72.08 14.48 L 71.68 14.19 L 71.38 14.16 L 71.09 14.12 L 70.56 13.96 L 70.04 13.80 L 69.71 13.64 L 69.38 13.49 L 68.97 13.47 L 68.55 13.44 L 68.20 13.44 L 67.84 13.43 L 67.31 13.43 L 66.79 13.42 L 66.27 13.28 L 65.76 13.15 L 65.29 13.12 L 64.82 13.10 L 64.15 13.09 L 63.48 13.09 L 62.80 12.95 L 62.11 12.81 L 61.47 12.78 L 60.82 12.76 L 60.01 12.75 L 59.20 12.75 L 58.49 12.75 L 57.78 12.75 L 56.96 12.75 L 56.13 12.75 L 55.42 12.75 L 54.71 12.75 L 54.16 12.75 L 53.61 12.75 L 53.09 12.75 L 52.57 12.75 L 52.05 12.75 L 51.54 12.75 L 50.89 12.75 L 50.24 12.75 L 49.57 12.75 L 48.89 12.75 L 48.17 12.74 L 47.45 12.74 L 46.89 12.60 L 46.34 12.47 L 45.70 12.44 L 45.06 12.41 L 44.24 12.27 L 43.43 12.13 L 42.75 12.10 L 42.07 12.08 L 41.39 12.07 L 40.71 12.07 L 40.07 12.06 L 39.43 12.06 L 38.94 12.18 L 38.44 12.31 L 37.93 12.47 L 37.41 12.64 L 36.79 12.79 L 36.18 12.95 L 35.67 13.24 L 35.17 13.53 L 34.51 13.87 L 33.85 14.21 L 33.14 14.56 L 32.44 14.91 L 31.72 15.13 L 31.00 15.35 L 30.28 15.53 L 29.56 15.72 L 28.93 15.76 L 28.30 15.80 L 27.65 15.63 L 27.01 15.47 L 26.56 15.12 L 26.11 14.77 L 25.77 14.44 L 25.43 14.12 L 24.98 13.80 L 24.54 13.49 L 24.25 13.32 L 23.96 13.16 L 23.70 13.13 L 23.44 13.11 L 22.98 13.10 L 22.52 13.09 L 22.20 13.09 L 21.88 13.08 L 21.47 13.20 L 21.06 13.32 L 20.70 13.48 L 20.34 13.64 L 19.84 13.81 L 19.34 13.99 L 18.84 14.16 L 18.33 14.33 L 17.85 14.49 L 17.38 14.64 L 16.87 14.95 L 16.37 15.25 L 15.88 15.44 L 15.39 15.62 L 15.05 15.91 L 14.71 16.20 L 14.23 16.53 L 13.75 16.86 L 13.45 17.13 L 13.15 17.40 L 12.97 17.82 L 12.79 18.24 L 12.49 18.84 L 12.20 19.43 L 12.14 19.93 L 12.09 20.43 L 11.94 21.10 L 11.78 21.77 L 11.62 22.42 L 11.46 23.07 L 11.43 23.74 L 11.40 24.41 L 11.25 25.26 L 11.10 26.11 L 10.94 26.79 L 10.78 27.48 L 10.75 28.13 L 10.72 28.78 L 10.71 29.46 L 10.71 30.13 L 10.70 30.78 L 10.70 31.42 L 10.83 32.06 L 10.96 32.69 L 11.12 33.22 L 11.28 33.76 L 11.45 34.43 L 11.62 35.10 L 11.80 35.92 L 11.97 36.73 L 12.14 37.43 L 12.30 38.14 L 12.46 38.78 L 12.62 39.42 L 12.90 39.91 L 13.18 40.41 L 13.52 40.93 L 13.85 41.45 L 14.08 41.88 L 14.30 42.30 L 14.49 42.96 L 14.69 43.62 L 14.84 44.25 L 15.00 44.88 L 15.29 45.38 L 15.57 45.87 L 15.89 46.38 L 16.22 46.88 L 16.56 47.40 L 16.90 47.91 L 17.25 48.43 L 17.60 48.96 L 17.94 49.61 L 18.29 50.26 L 18.60 50.76 L 18.92 51.27 L 19.37 51.76 L 19.83 52.24 L 20.14 52.57 L 20.45 52.90 L 20.82 53.06 L 21.19 53.22 L 21.63 53.26 L 22.07 53.29 L 22.56 53.30 L 23.06 53.30 L 23.50 53.31 L 23.94 53.32 L 24.36 53.48 L 24.78 53.64 L 25.17 53.83 L 25.56 54.02 L 25.71 54.16 L 25.86 54.30 L 26.24 54.31 L 26.62 54.33 L 27.16 54.48 L 27.70 54.63 L 28.17 54.79 L 28.64 54.94 L 29.24 54.97 L 29.83 55.00 L 30.67 55.01 L 31.50 55.01 L 32.22 55.15 L 32.93 55.29 L 33.72 55.32 L 34.51 55.34 L 35.39 55.35 L 36.26 55.36 L 36.98 55.49 L 37.71 55.63 L 38.26 55.66 L 38.82 55.69 L 39.48 55.83 L 40.13 55.97 L 40.67 56.00 L 41.21 56.03 L 41.87 56.17 L 42.52 56.31 L 43.16 56.34 L 43.80 56.37 L 44.47 56.37 L 45.15 56.38 L 45.80 56.38 L 46.45 56.38 L 47.21 56.25 L 47.97 56.13 L 48.80 55.83 L 49.63 55.54 L 50.35 55.34 L 51.07 55.14 L 51.66 54.96 L 52.24 54.77 L 52.81 54.73 L 53.38 54.69 L 53.77 54.68 L 54.16 54.68 L 54.74 54.68 L 55.32 54.68 L 55.82 54.55 L 56.32 54.42 L 57.14 54.25 L 57.97 54.08 L 58.84 54.04 L 59.72 54.01 L 60.44 54.00 L 61.16 53.99 L 61.91 54.00 L 62.67 54.00 L 63.37 54.28 L 64.07 54.56 L 64.72 54.60 L 65.37 54.65 L 66.09 54.81 L 66.81 54.96 L 67.33 55.12 L 67.85 55.28 L 68.32 55.31 L 68.79 55.34 L 69.47 55.35 L 70.16 55.36 L 70.70 55.50 L 71.25 55.64 L 71.89 55.66 L 72.53 55.69 L 73.37 55.83 L 74.20 55.98 L 75.05 56.14 L 75.90 56.31 L 76.78 56.49 L 77.66 56.66 L 78.51 56.97 L 79.36 57.27 L 80.33 57.47 L 81.30 57.66 L 82.02 57.83 L 82.74 58.00 L 83.44 58.04 L 84.14 58.08 L 84.69 58.22 L 85.23 58.36 L 85.71 58.39 L 86.19 58.41 L 86.83 58.42 L 87.47 58.42 L 88.14 58.42 L 88.82 58.43 L 89.36 58.43 L 89.90 58.43 L 90.66 58.43 L 91.42 58.43 L 92.09 58.30 L 92.75 58.17 L 93.57 58.00 L 94.39 57.84 L 95.24 57.67 L 96.08 57.50 L 96.81 57.33 L 97.55 57.15 L 98.14 57.12 L 98.73 57.08 L 99.26 57.07 L 99.80 57.06 L 100.27 57.07 L 100.75 57.07 L 101.35 56.94 L 101.95 56.81 L 102.45 56.66 L 102.95 56.51 L 103.60 56.21 L 104.24 55.90 L 104.81 55.70 L 105.38 55.49 L 106.08 55.30 L 106.78 55.11 L 107.32 55.08 L 107.86 55.04 L 108.35 54.91 L 108.83 54.77 L 109.48 54.61 L 110.12 54.44 L 110.63 54.28 L 111.14 54.12 L 111.52 53.95 L 111.89 53.78 L 112.38 53.62 L 112.86 53.45 L 113.27 53.26 L 113.68 53.08 L 114.03 53.04 L 114.39 53.01 L 114.73 52.86 L 115.08 52.72 L 115.63 52.68 L 116.17 52.64 L 116.55 52.64 L 116.93 52.63 L 117.41 52.63 L 117.90 52.63 L 118.41 52.63 L 118.91 52.63 L 119.56 52.63 L 120.21 52.63 L 120.92 52.63 L 121.63 52.63 L 122.31 52.77 L 123.00 52.90 L 123.83 52.93 L 124.65 52.96 L 125.23 53.10 L 125.81 53.25 L 126.33 53.27 L 126.86 53.30 L 127.42 53.46 L 127.98 53.61 L 128.50 53.78 L 129.02 53.94 L 129.55 54.12 L 130.08 54.30 L 130.45 54.46 L 130.82 54.63 L 131.39 54.79 L 131.97 54.95 L 132.88 55.11 L 133.78 55.27 L 135.16 55.31 L 136.55 55.34 L 137.51 55.35 L 138.47 55.35 L 139.35 55.35 L 140.22 55.36 L 141.08 55.36 L 141.94 55.36 L 142.65 55.36 L 143.37 55.36 L 144.03 55.36 L 144.69 55.36 L 145.48 55.23 L 146.27 55.09 L 147.13 54.93 L 148.00 54.76 L 148.89 54.72 L 149.77 54.69 L 150.72 54.69 L 151.67 54.68 L 152.65 54.42 L 153.63 54.15 L 154.55 53.95 L 155.48 53.75 L 156.34 53.71 L 157.20 53.67 L 157.92 53.53 L 158.63 53.39 L 159.19 53.36 L 159.74 53.33 L 160.39 53.19 L 161.05 53.04 L 161.73 53.02 L 162.41 52.99 L 163.06 52.85 L 163.70 52.71 L 164.39 52.55 L 165.07 52.38 L 165.92 52.21 L 166.77 52.03 L 167.33 52.00 L 167.89 51.97 L 168.34 51.85 L 168.78 51.73 L 169.26 51.44 L 169.74 51.16 L 170.11 50.97 L 170.48 50.77 L 170.93 50.49 L 171.38 50.20 L 171.72 49.89 L 172.06 49.57 L 172.38 49.26 L 172.70 48.95 L 173.02 48.51 L 173.33 48.07 L 173.51 47.75 L 173.69 47.42 L 173.89 46.91 L 174.08 46.39 L 174.39 46.02 L 174.70 45.64 L 174.87 45.22 L 175.04 44.79 L 175.22 44.30 L 175.39 43.80 L 175.56 43.30 L 175.72 42.80 L 175.88 42.20 L 176.04 41.60 L 176.08 41.07 L 176.11 40.53 L 176.25 39.88 L 176.40 39.23 L 176.42 38.59 L 176.45 37.95 L 176.45 37.42 L 176.46 36.88 L 176.46 36.22 L 176.46 35.57 L 176.46 34.76 L 176.46 33.95 L 176.47 33.28 L 176.47 32.61 L 176.34 32.10 L 176.21 31.60 L 176.04 30.91 L 175.87 30.22 L 175.83 29.50 L 175.80 28.78 L 175.79 28.09 L 175.78 27.40 L 175.78 26.85 L 175.78 26.31 L 175.78 25.79 L 175.78 25.27 L 175.78 24.76 L 175.78 24.24 L 175.79 23.79 L 175.79 23.34 L 175.67 23.02 L 175.55 22.70 L 175.43 22.30 L 175.31 21.91 L 175.10 21.76 L 174.89 21.62 L 174.58 21.45 L 174.27 21.29 L 173.90 21.09 L 173.52 20.90 L 173.14 20.56 L 172.76 20.22 L 172.55 20.01 L 172.34 19.81 L 172.06 19.52 L 171.77 19.24 L 171.44 19.04 L 171.11 18.85 L 170.77 18.54 L 170.43 18.22 L 170.12 18.04 L 169.80 17.86 L 169.35 17.56 L 168.89 17.26 L 168.41 17.07 L 167.93 16.88 L 167.54 16.70 L 167.15 16.52 L 166.80 16.34 L 166.45 16.17 L 166.13 16.01 L 165.80 15.85 L 165.33 15.68 L 164.85 15.51 L 164.53 15.35 L 164.20 15.19 L 163.88 15.17 L 163.55 15.14 L 163.08 15.00 L 162.61 14.85 L 162.15 14.83 L 161.70 14.81 L 161.28 14.80 L 160.87 14.79 L 160.38 14.65 L 159.89 14.51 L 159.43 14.49 L 158.97 14.47 L 158.56 14.46 L 158.14 14.45 L 157.65 14.31 L 157.16 14.17 L 156.66 14.14 L 156.15 14.12 L 155.61 13.97 L 155.06 13.82 L 154.42 13.65 L 153.78 13.49 L 153.11 13.32 L 152.45 13.16 L 151.53 12.99 L 150.61 12.83 L 149.61 12.79 L 148.60 12.76 L 147.69 12.61 L 146.78 12.47 L 145.88 12.29 L 144.98 12.12 L 144.24 11.81 L 143.51 11.50 L 142.86 11.32 L 142.20 11.13 L 141.42 10.96 L 140.64 10.79 L 139.69 10.76 L 138.75 10.73 L 137.62 10.72 L 136.50 10.71 L 135.33 10.84 L 134.17 10.98 L 132.99 11.14 L 131.81 11.30 L 130.76 11.47 L 129.72 11.64 L 129.00 11.79 L 128.27 11.95 L 127.46 12.25 L 126.65 12.55 L 125.80 12.88 L 124.95 13.22 L 123.95 13.56 L 122.96 13.90 L 121.90 14.26 L 120.84 14.61 L 119.90 14.68 L 118.96 14.76 L 118.22 14.77 L 117.49 14.79 L 116.79 14.79 L 116.10 14.79 L 115.55 14.79 L 115.00 14.79 L 114.35 14.79 L 113.69 14.79 L 113.05 14.79 L 112.41 14.79 L 111.73 14.93 L 111.06 15.06 L 110.38 15.09 L 109.70 15.12 L 109.02 15.26 L 108.33 15.40 L 107.48 15.43 L 106.63 15.46 L 105.91 15.47 L 105.19 15.47 L 104.51 15.47 L 103.82 15.47 L 103.00 15.48 L 102.18 15.48 L 101.60 15.48 L 101.03 15.48 L 100.37 15.48 L 99.71 15.48 L 99.11 15.47 L 98.51 15.47 L 98.07 15.31 L 97.63 15.16 L 97.13 14.99 L 96.63 14.82 L 96.02 14.53 L 95.41 14.24 L 94.91 14.18 L 94.41 14.13 L 93.77 13.98 L 93.13 13.84 L 92.59 13.81 L 92.06 13.78 L 91.41 13.64 L 90.75 13.49 L 90.20 13.46 L 89.65 13.43 L 88.98 13.23 L 88.31 13.02 L 88.12 12.76 L 87.93 12.50 L 87.88 12.33 L 87.82 12.17 L 87.86 11.99 L 87.89 11.82 L 88.01 11.70 L 88.12 11.57 L 88.29 11.50 L 88.45 11.44 L 90.14 11.27 L 91.82 11.10 L 91.89 11.12 L 91.96 11.13 L 92.02 11.15 L 92.08 11.18 L 92.14 11.22 L 92.20 11.26 L 92.25 11.30 L 92.29 11.35 L 92.33 11.41 L 92.37 11.47 L 92.40 11.53 L 92.43 11.59 L 92.44 11.66 L 92.45 11.72 L 92.45 11.79 L 92.45 11.85 L 92.44 11.92 L 92.43 11.99 L 92.40 12.05 L 92.38 12.12 L 92.34 12.17 L 92.30 12.23 L 92.25 12.28 L 92.20 12.33 L 92.15 12.37 L 92.09 12.40 L 92.03 12.43 L 91.96 12.46 L 91.90 12.47 L 91.83 12.49 L 91.76 12.49 L 91.69 12.49 L 91.62 12.47 L 91.56 12.46 L 91.98 11.33 L 91.98 11.33 L 91.98 11.33 L 91.78 11.66 L 91.57 11.99 L 91.46 12.02 L 91.34 12.05 L 91.09 12.19 L 90.83 12.32 L 90.57 12.34 L 90.31 12.36 L 89.98 12.36 L 89.66 12.37 L 89.40 12.37 L 89.15 12.38 L 88.69 12.52 L 88.23 12.65 L 87.91 12.68 L 87.60 12.70 L 87.20 12.71 L 86.80 12.72 L 86.45 12.86 L 86.10 13.00 L 85.69 13.02 L 85.27 13.04 L 84.91 13.04 L 84.56 13.05 L 84.21 13.05 L 83.87 13.05 L 83.46 13.06 L 83.05 13.06 L 82.70 13.20 L 82.35 13.34 L 81.93 13.36 L 81.52 13.38 L 81.16 13.39 L 80.80 13.39 L 80.32 13.39 L 79.84 13.39 L 79.20 13.39 L 78.56 13.39 L 77.88 13.39 L 77.21 13.39 L 76.66 13.39 L 76.12 13.39 L 75.47 13.39 L 74.81 13.39 L 74.27 13.39 L 73.73 13.39 L 73.32 13.41 L 72.91 13.43 L 72.56 13.16 L 72.21 12.90 L 71.81 12.83 L 71.40 12.76 L 70.97 12.62 L 70.54 12.49 L 70.13 12.31 L 69.72 12.13 L 69.17 12.09 L 68.61 12.05 L 68.23 12.04 L 67.85 12.03 L 67.41 12.03 L 66.97 12.04 L 66.47 11.90 L 65.98 11.76 L 65.42 11.73 L 64.87 11.71 L 64.24 11.71 L 63.62 11.70 L 62.95 11.57 L 62.28 11.43 L 61.57 11.40 L 60.85 11.37 L 60.03 11.36 L 59.20 11.36 L 58.49 11.36 L 57.78 11.36 L 56.96 11.36 L 56.13 11.36 L 55.42 11.36 L 54.71 11.36 L 54.16 11.36 L 53.61 11.36 L 53.09 11.36 L 52.57 11.36 L 52.05 11.36 L 51.54 11.36 L 50.89 11.36 L 50.24 11.36 L 49.57 11.36 L 48.89 11.36 L 48.26 11.36 L 47.62 11.36 L 47.08 11.23 L 46.54 11.09 L 45.87 11.06 L 45.21 11.03 L 44.39 10.89 L 43.58 10.75 L 42.84 10.72 L 42.10 10.69 L 41.41 10.68 L 40.71 10.68 L 39.99 10.68 L 39.26 10.68 L 38.66 10.83 L 38.06 10.97 L 37.54 11.14 L 37.02 11.30 L 36.34 11.48 L 35.65 11.66 L 35.08 11.98 L 34.51 12.30 L 33.86 12.63 L 33.21 12.96 L 32.57 13.29 L 31.92 13.61 L 31.27 13.81 L 30.63 14.00 L 29.98 14.17 L 29.34 14.34 L 28.88 14.37 L 28.42 14.40 L 28.03 14.31 L 27.63 14.21 L 27.33 13.96 L 27.03 13.71 L 26.67 13.38 L 26.32 13.04 L 25.80 12.67 L 25.29 12.31 L 24.84 12.06 L 24.39 11.82 L 23.96 11.77 L 23.53 11.71 L 23.03 11.71 L 22.53 11.70 L 22.11 11.70 L 21.69 11.70 L 21.14 11.85 L 20.58 12.00 L 20.20 12.17 L 19.83 12.34 L 19.36 12.50 L 18.89 12.66 L 18.39 12.83 L 17.88 13.00 L 17.34 13.19 L 16.79 13.37 L 16.27 13.68 L 15.75 13.99 L 15.22 14.20 L 14.68 14.41 L 14.27 14.75 L 13.86 15.09 L 13.37 15.43 L 12.88 15.77 L 12.44 16.18 L 12.01 16.59 L 11.77 17.12 L 11.52 17.65 L 11.19 18.34 L 10.86 19.03 L 10.78 19.61 L 10.71 20.19 L 10.57 20.82 L 10.42 21.45 L 10.25 22.16 L 10.08 22.87 L 10.04 23.56 L 10.01 24.25 L 9.87 25.04 L 9.73 25.83 L 9.56 26.56 L 9.39 27.29 L 9.36 28.01 L 9.32 28.74 L 9.31 29.43 L 9.31 30.12 L 9.31 30.84 L 9.31 31.56 L 9.45 32.29 L 9.60 33.03 L 9.76 33.58 L 9.93 34.14 L 10.10 34.78 L 10.26 35.42 L 10.43 36.23 L 10.60 37.04 L 10.77 37.75 L 10.94 38.47 L 11.13 39.20 L 11.32 39.94 L 11.65 40.53 L 11.98 41.13 L 12.31 41.65 L 12.65 42.16 L 12.83 42.50 L 13.01 42.83 L 13.17 43.41 L 13.33 43.99 L 13.52 44.70 L 13.70 45.41 L 14.04 46.00 L 14.37 46.59 L 14.71 47.12 L 15.05 47.65 L 15.39 48.17 L 15.73 48.68 L 16.06 49.18 L 16.40 49.68 L 16.74 50.32 L 17.07 50.96 L 17.44 51.54 L 17.81 52.12 L 18.31 52.66 L 18.81 53.21 L 19.23 53.63 L 19.66 54.06 L 20.25 54.32 L 20.85 54.58 L 21.42 54.63 L 22.00 54.69 L 22.52 54.70 L 23.05 54.70 L 23.36 54.70 L 23.67 54.70 L 23.95 54.81 L 24.22 54.92 L 24.51 55.06 L 24.81 55.20 L 25.07 55.40 L 25.33 55.60 L 25.85 55.65 L 26.37 55.70 L 26.83 55.84 L 27.29 55.97 L 27.84 56.15 L 28.39 56.32 L 29.09 56.36 L 29.79 56.40 L 30.58 56.40 L 31.36 56.41 L 32.07 56.55 L 32.77 56.68 L 33.63 56.71 L 34.48 56.74 L 35.30 56.75 L 36.12 56.75 L 36.83 56.89 L 37.54 57.02 L 38.09 57.05 L 38.64 57.08 L 39.29 57.22 L 39.95 57.36 L 40.49 57.39 L 41.03 57.42 L 41.68 57.56 L 42.34 57.70 L 43.05 57.73 L 43.76 57.76 L 44.45 57.77 L 45.14 57.78 L 45.85 57.78 L 46.57 57.78 L 47.44 57.63 L 48.32 57.48 L 49.18 57.18 L 50.05 56.87 L 50.76 56.68 L 51.47 56.48 L 51.99 56.32 L 52.50 56.15 L 52.97 56.12 L 53.44 56.09 L 53.81 56.08 L 54.17 56.08 L 54.84 56.07 L 55.50 56.07 L 56.07 55.93 L 56.63 55.78 L 57.39 55.63 L 58.14 55.47 L 58.95 55.44 L 59.75 55.41 L 60.46 55.40 L 61.17 55.39 L 61.79 55.39 L 62.41 55.38 L 63.08 55.65 L 63.75 55.92 L 64.46 55.98 L 65.17 56.04 L 65.82 56.18 L 66.46 56.32 L 67.03 56.49 L 67.60 56.66 L 68.17 56.70 L 68.74 56.74 L 69.36 56.74 L 69.97 56.75 L 70.51 56.88 L 71.04 57.02 L 71.71 57.05 L 72.38 57.08 L 73.16 57.22 L 73.95 57.36 L 74.79 57.52 L 75.63 57.68 L 76.46 57.85 L 77.28 58.01 L 78.13 58.32 L 78.99 58.62 L 80.00 58.83 L 81.00 59.03 L 81.77 59.21 L 82.54 59.39 L 83.23 59.42 L 83.92 59.46 L 84.47 59.60 L 85.02 59.75 L 85.58 59.78 L 86.14 59.81 L 86.80 59.82 L 87.46 59.82 L 88.14 59.82 L 88.81 59.83 L 89.36 59.83 L 89.90 59.83 L 90.73 59.82 L 91.55 59.82 L 92.29 59.68 L 93.02 59.54 L 93.84 59.38 L 94.67 59.21 L 95.52 59.04 L 96.38 58.87 L 97.07 58.71 L 97.76 58.54 L 98.27 58.51 L 98.79 58.48 L 99.30 58.47 L 99.81 58.46 L 100.35 58.46 L 100.90 58.46 L 101.60 58.31 L 102.30 58.17 L 102.88 57.99 L 103.45 57.81 L 104.12 57.51 L 104.78 57.20 L 105.29 57.01 L 105.80 56.82 L 106.41 56.66 L 107.01 56.49 L 107.55 56.46 L 108.10 56.42 L 108.64 56.27 L 109.19 56.12 L 109.85 55.95 L 110.50 55.79 L 111.07 55.61 L 111.64 55.43 L 112.02 55.26 L 112.41 55.09 L 112.90 54.91 L 113.39 54.74 L 113.72 54.59 L 114.05 54.43 L 114.39 54.40 L 114.73 54.36 L 115.06 54.22 L 115.40 54.08 L 115.81 54.06 L 116.22 54.04 L 116.58 54.03 L 116.94 54.03 L 117.42 54.03 L 117.90 54.03 L 118.41 54.03 L 118.91 54.03 L 119.56 54.03 L 120.21 54.03 L 120.85 54.02 L 121.49 54.02 L 122.16 54.16 L 122.84 54.29 L 123.65 54.32 L 124.46 54.35 L 125.03 54.49 L 125.60 54.63 L 126.12 54.66 L 126.64 54.69 L 127.11 54.82 L 127.58 54.95 L 128.08 55.11 L 128.59 55.27 L 129.08 55.44 L 129.57 55.60 L 129.96 55.77 L 130.34 55.95 L 131.00 56.13 L 131.66 56.31 L 132.65 56.49 L 133.63 56.67 L 135.08 56.70 L 136.53 56.74 L 137.50 56.75 L 138.47 56.75 L 139.34 56.75 L 140.22 56.76 L 141.08 56.76 L 141.94 56.76 L 142.65 56.76 L 143.37 56.76 L 144.09 56.75 L 144.81 56.75 L 145.66 56.61 L 146.51 56.47 L 147.34 56.31 L 148.16 56.15 L 148.98 56.12 L 149.80 56.09 L 150.83 56.08 L 151.86 56.07 L 152.91 55.79 L 153.96 55.51 L 154.81 55.32 L 155.66 55.14 L 156.51 55.10 L 157.37 55.06 L 158.09 54.92 L 158.81 54.78 L 159.37 54.75 L 159.92 54.72 L 160.58 54.58 L 161.23 54.43 L 161.91 54.40 L 162.58 54.38 L 163.30 54.23 L 164.01 54.08 L 164.69 53.92 L 165.38 53.75 L 166.16 53.59 L 166.95 53.42 L 167.54 53.39 L 168.12 53.35 L 168.72 53.19 L 169.33 53.02 L 169.87 52.70 L 170.42 52.38 L 170.80 52.18 L 171.19 51.98 L 171.71 51.65 L 172.23 51.31 L 172.63 50.95 L 173.02 50.59 L 173.40 50.22 L 173.77 49.86 L 174.14 49.34 L 174.51 48.82 L 174.74 48.41 L 174.97 48.00 L 175.13 47.55 L 175.29 47.09 L 175.60 46.73 L 175.90 46.37 L 176.13 45.83 L 176.35 45.29 L 176.53 44.77 L 176.71 44.25 L 176.89 43.73 L 177.06 43.21 L 177.25 42.51 L 177.43 41.82 L 177.46 41.28 L 177.50 40.73 L 177.64 40.07 L 177.79 39.41 L 177.82 38.70 L 177.85 37.99 L 177.85 37.44 L 177.86 36.89 L 177.86 36.23 L 177.86 35.57 L 177.86 34.76 L 177.86 33.95 L 177.86 33.20 L 177.86 32.44 L 177.71 31.85 L 177.57 31.26 L 177.41 30.64 L 177.25 30.01 L 177.23 29.38 L 177.20 28.74 L 177.19 28.07 L 177.18 27.39 L 177.18 26.85 L 177.18 26.31 L 177.18 25.79 L 177.18 25.27 L 177.18 24.76 L 177.18 24.24 L 177.17 23.67 L 177.17 23.10 L 177.02 22.67 L 176.87 22.24 L 176.66 21.66 L 176.45 21.09 L 176.05 20.77 L 175.65 20.45 L 175.29 20.25 L 174.93 20.05 L 174.62 19.90 L 174.32 19.74 L 174.02 19.47 L 173.72 19.19 L 173.52 19.00 L 173.32 18.81 L 172.98 18.47 L 172.63 18.13 L 172.29 17.93 L 171.95 17.72 L 171.61 17.41 L 171.27 17.10 L 170.90 16.88 L 170.54 16.67 L 170.04 16.34 L 169.54 16.02 L 169.01 15.81 L 168.48 15.60 L 168.12 15.43 L 167.76 15.26 L 167.42 15.09 L 167.07 14.92 L 166.71 14.74 L 166.35 14.56 L 165.87 14.39 L 165.38 14.21 L 164.98 14.03 L 164.57 13.84 L 164.20 13.80 L 163.82 13.76 L 163.34 13.62 L 162.85 13.48 L 162.30 13.44 L 161.75 13.41 L 161.41 13.41 L 161.08 13.40 L 160.60 13.27 L 160.12 13.13 L 159.57 13.10 L 159.02 13.07 L 158.68 13.06 L 158.35 13.06 L 157.87 12.93 L 157.39 12.79 L 156.88 12.76 L 156.38 12.73 L 155.90 12.60 L 155.42 12.46 L 154.77 12.30 L 154.12 12.13 L 153.43 11.96 L 152.74 11.79 L 151.75 11.62 L 150.76 11.45 L 149.75 11.41 L 148.74 11.38 L 147.88 11.24 L 147.02 11.10 L 146.20 10.94 L 145.39 10.79 L 144.68 10.49 L 143.98 10.18 L 143.26 9.98 L 142.54 9.77 L 141.68 9.59 L 140.81 9.40 L 139.80 9.36 L 138.78 9.33 L 137.60 9.32 L 136.42 9.31 L 135.21 9.45 L 134.00 9.59 L 132.80 9.75 L 131.60 9.92 L 130.53 10.09 L 129.46 10.26 L 128.67 10.44 L 127.87 10.62 L 127.02 10.93 L 126.16 11.25 L 125.31 11.58 L 124.47 11.90 L 123.49 12.24 L 122.51 12.58 L 121.53 12.91 L 120.56 13.24 L 119.73 13.30 L 118.89 13.36 L 118.18 13.37 L 117.47 13.39 L 116.78 13.39 L 116.10 13.39 L 115.55 13.39 L 115.00 13.39 L 114.35 13.39 L 113.69 13.39 L 112.98 13.39 L 112.27 13.40 L 111.58 13.53 L 110.89 13.67 L 110.21 13.70 L 109.53 13.73 L 108.85 13.87 L 108.16 14.01 L 107.38 14.04 L 106.60 14.06 L 105.89 14.07 L 105.19 14.07 L 104.50 14.07 L 103.82 14.07 L 103.00 14.08 L 102.18 14.08 L 101.60 14.08 L 101.03 14.08 L 100.37 14.08 L 99.71 14.08 L 99.23 14.08 L 98.75 14.09 L 98.42 13.96 L 98.09 13.84 L 97.62 13.68 L 97.15 13.53 L 96.48 13.21 L 95.80 12.89 L 95.22 12.82 L 94.65 12.75 L 93.98 12.60 L 93.32 12.45 L 92.78 12.42 L 92.25 12.39 L 91.59 12.25 L 90.94 12.11 L 90.41 12.08 L 89.88 12.05 L 89.51 11.97 L 89.15 11.90 L 89.13 11.83 L 89.12 11.76 L 89.13 12.10 L 89.15 12.43 L 88.80 11.93 L 88.45 11.44 L 88.29 11.50 L 88.12 11.57 L 88.01 11.70 L 87.89 11.82 L 87.86 11.99 L 87.82 12.17 L 88.49 12.30 L 89.15 12.43 L 88.87 12.63 L 88.60 12.82 L 90.21 12.66 L 91.83 12.49 L 91.90 12.47 L 91.96 12.46 L 92.03 12.43 L 92.09 12.40 L 92.15 12.37 L 92.20 12.33 L 92.25 12.28 L 92.30 12.23 L 92.34 12.17 L 92.38 12.12 L 92.40 12.05 L 92.43 11.99 L 92.44 11.92 L 92.45 11.85 L 92.45 11.79 L 92.45 11.72 L 92.44 11.66 L 92.43 11.59 L 92.40 11.53 L 92.37 11.47 L 92.33 11.41 L 92.29 11.35 L 92.25 11.30 L 92.20 11.26 L 92.14 11.22 L 92.08 11.18 L 92.02 11.15 L 91.96 11.13 L 91.89 11.12 L 91.82 11.10 L 91.75 11.10 L 91.68 11.10 L 91.62 11.12 L 91.55 11.13 L 91.49 11.16 L 91.42 11.18 L 91.37 11.22 L 91.31 11.26 L 91.26 11.31 L 91.21 11.36 L 91.17 11.42 L 91.14 11.47 L 91.11 11.54 L 91.09 11.60 L 91.07 11.67 L 91.06 11.73 L 91.06 11.79 L 91.06 11.86 L 91.07 11.93 L 91.09 12.00 L 91.11 12.06 L 91.14 12.12 L 91.18 12.18 L 91.22 12.24 L 91.27 12.29 L 91.32 12.33 L 91.37 12.37 L 91.43 12.41 L 91.49 12.43 Z"/></svg>
