<svg xmlns="http://www.w3.org/2000/svg" viewBox="8.30 8.31 383.39 383.38" width="383.39" height="383.38"><path fill="#000" d="M 221.77 9.31 L 222.75 9.37 L 224.25 9.65 L 225.24 9.69 L 225.74 9.76 L 226.70 10.03 L 227.18 10.10 L 228.15 10.38 L 228.62 10.46 L 230.46 11.29 L 231.31 11.73 L 231.83 11.80 L 232.80 12.09 L 233.31 12.19 L 233.74 12.38 L 240.77 12.44 L 242.23 12.69 L 250.69 12.66 L 253.65 12.24 L 257.61 11.38 L 259.11 11.23 L 261.07 10.78 L 262.02 10.68 L 264.01 10.73 L 265.50 11.02 L 266.46 11.10 L 269.42 11.55 L 275.26 13.04 L 276.28 13.16 L 277.20 13.41 L 278.20 13.53 L 280.08 14.06 L 282.61 14.19 L 287.07 14.76 L 289.60 14.83 L 291.59 15.10 L 306.59 15.07 L 307.11 15.01 L 307.97 14.81 L 308.51 14.77 L 313.05 14.73 L 316.47 14.14 L 320.01 14.00 L 321.47 13.78 L 322.47 13.74 L 330.96 13.69 L 338.91 12.41 L 343.86 12.44 L 344.85 12.55 L 348.28 13.27 L 349.31 13.39 L 355.77 13.44 L 356.80 13.55 L 357.75 13.73 L 366.75 13.80 L 369.70 14.21 L 370.71 14.52 L 372.04 15.16 L 372.85 15.69 L 373.78 16.09 L 374.73 16.29 L 377.53 17.47 L 377.95 17.71 L 379.53 18.88 L 379.92 19.24 L 380.27 19.65 L 381.02 20.92 L 381.59 21.64 L 383.09 24.31 L 383.50 25.26 L 383.72 26.21 L 384.14 27.12 L 384.28 27.61 L 384.95 31.01 L 384.99 31.51 L 384.96 35.52 L 384.84 36.55 L 384.63 37.49 L 384.52 38.47 L 384.30 39.46 L 384.18 41.46 L 383.95 42.43 L 383.82 43.44 L 383.58 44.37 L 383.53 49.84 L 383.41 50.86 L 382.26 54.18 L 381.48 55.42 L 379.67 57.87 L 379.18 58.73 L 378.81 59.67 L 378.69 60.15 L 378.63 61.12 L 379.05 63.08 L 379.23 63.53 L 380.49 65.11 L 381.53 66.84 L 381.92 67.71 L 382.75 70.07 L 382.84 70.55 L 382.92 72.08 L 383.18 73.02 L 383.32 74.05 L 383.57 74.96 L 383.69 75.98 L 383.90 76.95 L 383.89 84.46 L 383.57 85.93 L 383.43 86.93 L 382.94 88.32 L 382.84 88.80 L 382.73 89.80 L 382.45 91.26 L 382.34 92.25 L 381.90 93.72 L 381.32 95.11 L 380.83 97.04 L 380.72 98.02 L 380.76 101.05 L 381.19 103.48 L 382.39 107.82 L 382.84 111.28 L 382.95 113.79 L 383.15 114.73 L 383.21 115.75 L 383.17 127.76 L 382.85 130.24 L 382.78 133.26 L 382.52 134.68 L 382.40 137.21 L 382.10 139.18 L 382.00 140.19 L 381.79 141.12 L 381.60 142.65 L 381.17 144.07 L 381.10 144.57 L 381.17 146.06 L 381.30 146.54 L 382.19 148.32 L 382.60 149.72 L 383.05 152.75 L 383.86 155.63 L 384.06 157.10 L 384.26 158.08 L 384.22 161.11 L 383.88 163.05 L 383.53 165.52 L 383.43 166.54 L 383.24 167.48 L 383.21 174.49 L 383.13 176.02 L 382.86 177.44 L 382.72 178.95 L 382.47 180.44 L 382.15 183.45 L 382.22 187.93 L 382.30 188.43 L 383.24 190.73 L 384.71 196.06 L 385.05 196.93 L 385.74 198.28 L 386.99 202.61 L 387.13 203.59 L 387.05 216.63 L 386.43 220.07 L 386.23 222.01 L 385.73 224.48 L 385.35 227.98 L 385.26 230.53 L 385.00 232.44 L 385.09 235.93 L 385.36 237.44 L 385.53 238.88 L 385.71 239.89 L 385.85 241.37 L 386.09 242.86 L 386.18 243.86 L 386.74 246.27 L 386.84 248.27 L 387.38 250.21 L 387.82 253.19 L 387.89 256.17 L 388.02 257.16 L 388.81 260.08 L 388.91 261.06 L 388.86 269.54 L 388.73 270.56 L 384.89 282.42 L 384.34 284.83 L 383.89 289.33 L 383.78 290.88 L 383.58 292.30 L 383.63 301.33 L 383.81 302.81 L 384.55 306.24 L 385.19 312.20 L 385.89 314.57 L 386.40 316.54 L 386.85 317.94 L 387.69 321.35 L 388.24 322.72 L 389.21 324.46 L 390.37 327.78 L 390.62 328.76 L 390.69 329.75 L 390.62 333.28 L 390.28 334.69 L 390.12 335.67 L 388.96 339.51 L 388.81 340.52 L 388.69 341.00 L 388.01 342.87 L 387.80 343.84 L 387.75 344.36 L 387.48 345.28 L 387.36 346.27 L 386.34 349.64 L 385.42 351.97 L 384.94 352.84 L 384.41 354.29 L 383.44 356.02 L 382.91 357.37 L 382.65 358.85 L 381.94 360.73 L 381.83 361.23 L 381.80 361.74 L 381.83 362.25 L 381.92 362.70 L 382.73 364.54 L 384.39 369.78 L 384.79 370.68 L 384.92 371.15 L 384.97 373.64 L 384.88 374.73 L 384.77 375.19 L 384.42 376.08 L 384.08 377.55 L 383.88 378.00 L 383.32 378.83 L 382.68 380.15 L 382.07 381.04 L 380.71 382.42 L 379.92 383.08 L 378.64 383.80 L 376.73 385.48 L 375.52 386.26 L 374.63 386.75 L 374.16 386.92 L 373.66 387.03 L 373.26 387.23 L 372.24 387.43 L 371.76 387.57 L 369.75 387.69 L 368.81 387.95 L 366.83 388.28 L 357.35 388.27 L 356.81 388.22 L 355.91 387.91 L 355.45 387.86 L 354.39 387.61 L 352.44 387.27 L 339.47 387.31 L 338.48 387.44 L 337.99 387.55 L 333.45 387.69 L 332.55 387.90 L 331.47 387.96 L 318.53 388.02 L 315.07 388.65 L 313.59 388.76 L 312.60 388.91 L 311.59 388.93 L 310.58 388.78 L 306.33 387.32 L 305.46 386.89 L 300.61 385.66 L 300.12 385.58 L 294.12 385.60 L 292.17 385.89 L 289.68 385.98 L 287.63 386.23 L 281.17 386.28 L 279.69 386.56 L 275.68 386.62 L 274.71 386.81 L 272.30 387.47 L 270.33 387.74 L 269.34 387.93 L 265.82 387.90 L 265.30 387.82 L 264.85 387.68 L 264.38 387.61 L 262.90 387.67 L 261.96 387.91 L 260.93 387.96 L 256.91 387.95 L 255.39 387.88 L 254.42 387.70 L 248.17 385.97 L 245.24 385.57 L 227.69 385.63 L 222.74 386.27 L 220.72 386.45 L 218.79 386.85 L 215.28 387.02 L 213.35 387.28 L 204.86 388.05 L 203.37 388.28 L 200.93 388.41 L 197.94 388.91 L 196.42 388.98 L 191.89 388.91 L 189.93 388.66 L 180.44 388.58 L 178.95 388.41 L 175.02 387.65 L 173.02 387.43 L 172.08 387.25 L 171.02 387.17 L 170.07 386.98 L 167.09 386.80 L 165.12 386.54 L 163.62 386.41 L 157.72 385.10 L 155.86 384.47 L 154.49 383.81 L 154.03 383.65 L 153.08 383.52 L 143.12 383.58 L 141.06 384.02 L 138.76 384.90 L 131.42 386.43 L 129.93 386.61 L 127.94 386.76 L 126.43 386.93 L 124.45 386.97 L 123.53 387.10 L 117.88 389.23 L 115.42 389.85 L 113.92 390.01 L 111.93 390.08 L 110.50 390.34 L 108.96 390.48 L 108.03 390.65 L 107.51 390.69 L 97.49 390.61 L 94.53 390.03 L 93.06 389.86 L 92.07 389.67 L 88.59 389.58 L 85.62 389.09 L 78.80 387.58 L 77.81 387.48 L 76.37 387.24 L 74.34 387.05 L 71.41 386.38 L 68.13 385.12 L 57.98 382.57 L 56.97 382.48 L 48.45 382.44 L 47.88 382.38 L 46.98 382.16 L 46.03 382.20 L 43.05 382.77 L 39.54 382.92 L 34.65 383.94 L 32.80 384.59 L 28.85 385.52 L 28.39 385.56 L 23.91 385.50 L 19.88 384.89 L 17.90 384.79 L 17.40 384.70 L 15.62 383.90 L 15.23 383.60 L 14.57 382.86 L 14.01 381.98 L 13.36 380.67 L 12.30 378.97 L 11.55 377.11 L 11.13 376.25 L 10.84 375.24 L 10.59 373.25 L 10.31 372.27 L 9.78 370.92 L 9.40 369.49 L 9.30 367.50 L 9.35 357.47 L 9.69 355.00 L 9.84 353.51 L 9.99 352.54 L 10.07 344.49 L 10.72 338.55 L 10.80 332.58 L 13.00 320.25 L 13.24 318.28 L 13.47 315.79 L 13.91 313.83 L 14.85 310.97 L 14.99 310.00 L 14.94 306.53 L 14.41 302.03 L 13.61 298.60 L 10.61 289.59 L 10.37 288.14 L 10.23 286.62 L 9.67 283.65 L 9.55 282.21 L 9.32 280.72 L 9.36 270.72 L 9.65 268.73 L 9.77 266.28 L 10.09 264.75 L 10.92 262.44 L 11.75 258.52 L 12.02 256.02 L 13.11 251.67 L 13.40 249.19 L 13.57 248.23 L 13.93 244.21 L 13.84 241.70 L 13.55 239.76 L 13.48 238.71 L 12.96 236.30 L 12.76 234.32 L 12.53 232.84 L 12.47 226.83 L 12.19 224.86 L 12.08 222.37 L 11.77 220.38 L 11.66 219.37 L 11.15 216.91 L 11.00 213.97 L 10.77 212.49 L 10.78 207.96 L 10.82 207.46 L 11.05 206.45 L 11.15 202.50 L 11.44 200.51 L 11.53 197.96 L 11.78 196.57 L 11.88 194.54 L 12.15 193.07 L 12.22 190.58 L 12.48 189.12 L 12.58 183.10 L 12.88 181.13 L 13.01 179.64 L 13.20 178.65 L 13.35 177.13 L 13.54 176.20 L 13.58 175.70 L 13.54 162.68 L 13.25 160.75 L 13.18 155.71 L 12.16 146.26 L 12.27 143.80 L 12.51 141.78 L 12.57 135.29 L 13.15 132.35 L 13.32 127.92 L 13.87 124.42 L 13.93 123.42 L 13.89 110.41 L 13.59 108.41 L 13.54 102.92 L 13.43 101.94 L 12.76 99.56 L 12.09 97.70 L 11.49 94.19 L 11.44 93.20 L 11.55 88.20 L 11.78 86.72 L 11.89 79.72 L 12.15 78.30 L 12.72 76.31 L 12.86 75.34 L 12.98 72.88 L 13.63 69.91 L 13.96 68.96 L 15.14 66.15 L 15.35 65.29 L 15.51 63.76 L 15.96 61.79 L 16.03 61.27 L 15.98 60.37 L 15.71 58.82 L 15.62 57.82 L 15.09 55.44 L 15.00 53.90 L 14.93 49.36 L 14.65 47.45 L 14.30 43.96 L 14.22 40.43 L 13.97 39.01 L 14.00 32.47 L 14.05 31.95 L 14.88 29.07 L 16.06 25.80 L 16.49 24.91 L 17.84 22.81 L 18.95 20.59 L 19.56 19.78 L 20.67 18.70 L 22.66 17.25 L 24.04 16.65 L 26.53 15.06 L 27.37 14.46 L 28.29 14.02 L 29.08 13.46 L 29.54 13.22 L 30.47 12.90 L 31.46 12.72 L 32.97 12.56 L 33.91 12.40 L 37.45 12.30 L 38.88 12.05 L 40.92 11.97 L 41.84 11.74 L 42.37 11.69 L 53.40 11.77 L 55.43 12.03 L 57.40 12.10 L 58.84 12.35 L 61.34 12.48 L 65.80 13.07 L 67.27 13.21 L 72.14 14.38 L 73.59 14.57 L 74.67 14.84 L 77.89 16.02 L 79.82 16.30 L 82.80 16.89 L 83.78 17.03 L 84.27 17.17 L 85.70 17.71 L 90.00 19.06 L 92.75 20.17 L 93.24 20.25 L 95.25 20.34 L 96.73 20.56 L 101.74 20.52 L 103.20 20.27 L 105.70 20.19 L 106.21 20.10 L 107.48 19.35 L 108.64 18.51 L 117.35 14.53 L 123.60 12.77 L 125.07 12.59 L 126.03 12.40 L 129.01 12.06 L 133.05 12.09 L 134.99 12.39 L 136.04 12.48 L 137.92 12.85 L 139.88 13.53 L 141.14 14.28 L 143.11 14.75 L 145.04 14.98 L 148.00 15.69 L 148.98 15.79 L 162.46 15.89 L 166.96 16.46 L 182.96 16.56 L 185.00 16.81 L 187.86 16.76 L 189.91 16.51 L 194.94 16.38 L 196.86 15.97 L 198.80 15.44 L 200.20 14.82 L 201.12 14.66 L 203.05 14.14 L 205.03 13.95 L 211.91 12.49 L 212.84 12.17 L 214.16 11.50 L 215.52 10.73 L 216.90 10.29 L 218.30 9.72 L 219.32 9.58 L 220.24 9.36 L 220.76 9.31 Z"/></svg>