<svg preserveAspectRatio="none" xmlns="http://www.w3.org/2000/svg" version="1.1" viewBox="8.30 8.31 383.39 383.38" width="383.39" height="383.38"><path d="M220.812 11.031v.06q-.01.07-.03.13-.02.07-.05.13-.02.06-.07.11-.04.05-.09.1-.06.04-.12.07-.06.04-.12.06-.07.02-.14.02-.07.01-.13 0-.07 0-.14-.02-.06-.02-.12-.06-.06-.03-.12-.07-.05-.05-.09-.1-.05-.05-.08-.11t-.05-.13q-.02-.06-.03-.13-.01-.06.08.02.08.08.16.18.09.1-.05.09h-.89q-.42-.01-.9.12-.48.13-1.1.28-.63.14-1.29.57-.67.42-1.43.81-.75.38-1.5.6-.75.22-1.47.41-.72.18-1.44.35-.73.18-1.74.35-1 .17-1.94.35-.93.17-1.67.2-.74.04-1.28.17-.53.14-1.1.31-.57.17-.93.2-.36.02-.83.29-.48.27-1.19.47-.72.21-1.43.39-.71.18-1.45.35-.75.18-1.64.22-.9.04-1.79.05h-1.75q-.86 0-1.75.14-.88.14-1.51.17-.63.02-1.19.03-.55.01-1.12.01-.57 0-1.39-.14-.83-.14-1.68-.16-.85-.03-1.73-.04h-12.93q-.85-.01-1.75-.15-.91-.13-2.06-.3-1.15-.16-2.21-.19-1.07-.03-2.14-.04-1.07 0-1.85-.01h-8.64q-.54 0-1.26-.15-.72-.14-1.28-.31-.57-.16-1.35-.32-.79-.17-1.38-.2-.59-.03-1.32-.18-.73-.16-1.37-.35-.64-.19-1.05-.51-.41-.31-.86-.48-.46-.18-.94-.34-.48-.16-.86-.2-.38-.03-.88-.17-.5-.15-1.16-.17-.67-.03-1.23-.17-.56-.15-1.2-.17-.64-.03-1.34-.03-.7-.01-1.52-.01-.82 0-1.56.13-.73.14-1.44.17-.7.02-1.27.16-.57.15-1.11.17-.54.03-1.03.16-.5.14-1.02.3-.53.16-1.07.34-.55.17-1.23.34-.69.18-1.37.34-.68.16-1.36.46-.67.29-1.38.62-.71.34-1.43.68-.72.35-1.58.69-.85.34-1.58.68l-1.42.66q-.68.32-1.08.65-.41.33-.95.69-.54.36-1.01.6t-1.06.29q-.58.06-1.12.07h-1.04q-.49 0-1.02.14-.52.13-1.24.17-.72.03-1.29.03-.57.01-1.4.01h-1.59q-.77 0-1.49-.14-.73-.14-1.41-.16-.68-.03-1.16-.04-.49-.01-.93-.17-.44-.16-.79-.32-.36-.16-.85-.33-.5-.17-.89-.34-.38-.17-.87-.34-.48-.16-1.01-.33t-1.05-.34q-.52-.17-1.21-.34-.7-.18-1.37-.48-.68-.3-1.36-.35-.67-.06-1.41-.21-.74-.16-1.42-.32-.69-.16-1.27-.19-.57-.04-1.17-.2-.6-.15-1-.32-.41-.17-.91-.34-.51-.17-.89-.34-.37-.17-.96-.32-.59-.16-1.15-.19-.55-.04-1.12-.19-.57-.15-1.24-.31-.68-.17-1.38-.34-.71-.17-1.39-.33-.67-.17-1.38-.2-.71-.03-1.42-.18-.71-.14-1.42-.17t-1.42-.17q-.72-.14-1.4-.17-.68-.02-1.28-.03-.61-.01-1.15-.15-.55-.14-1.19-.16-.63-.03-1.22-.03-.58-.01-1.41-.15-.83-.14-1.68-.16-.85-.03-1.59-.03-.74-.01-1.32-.01h-6.1q-.54 0-1.02-.01-.48 0-.86.13-.38.14-.94.17-.57.04-1.21.04-.63 0-1.19.14-.56.14-1.28.17t-1.29.03q-.57.01-1.21.01-.65 0-1.2.13-.56.14-1.24.17-.68.02-1.19.15-.5.13-.83.26-.32.13-.69.44-.37.31-.87.51t-.87.5q-.36.3-.74.51-.38.21-.86.51-.47.3-.72.5-.26.21-.64.42-.39.2-.86.36-.46.16-.81.44-.34.29-.84.61-.49.33-.98.77t-.83.89q-.35.44-.55.93-.21.48-.55 1.15-.34.68-.71 1.24-.36.56-.7 1.05-.34.49-.53.97-.2.47-.38.97l-.36 1.02q-.18.51-.35 1.01-.18.5-.35 1.15-.18.65-.35 1.15-.17.51-.2 1.11-.03.6-.04 1.27 0 .67-.01 1.49v2.88q0 .65.14 1.19.14.54.17 1.24t.04 1.38q.01.69.01 1.47-.01.79.14 1.5.14.7.17 1.53.03.82.17 1.54.15.71.18 1.71.04 1 .04 2.01.01 1.02.01 2.01 0 1 .13 1.7.14.7.31 1.28.18.59.21 1.26.04.67.19 1.35t.18 1.3q.03.62-.11 1.33-.15.71-.31 1.36-.17.65-.2 1.34-.03.68-.2 1.29-.16.6-.49 1.42-.32.83-.66 1.51-.34.69-.54 1.47-.2.79-.38 1.6-.18.82-.21 1.5-.04.68-.05 1.4-.01.72-.16 1.45-.15.74-.46 1.68-.31.94-.37 1.62-.05.69-.07 1.51-.01.82-.01 1.66v1.7q0 .86-.01 1.61 0 .76-.14 1.45-.14.7-.17 1.35-.03.66-.03 1.2-.01.54-.01 1.33v1.6q0 .82.14 1.64.13.82.3 1.77.16.95.47 1.68.31.73.53 1.45.21.72.4 1.44.2.73.24 1.46.04.73.05 1.42v1.38q.01.68.01 1.37 0 .68-.01 1.19 0 .51.14 1.16.15.65.18 1.23.03.57.03 1.24.01.66.01 1.34v10.21q0 .99-.15 1.9-.14.9-.31 1.88-.17.97-.2 1.69t-.04 1.41q-.01.69-.01 1.41t-.15 1.45q-.15.72-.32 1.38-.16.66-.19 1.3t-.04 1.46q-.01.81-.01 1.52v3.1q0 .75-.15 1.58-.14.83-.17 1.52-.02.68-.03 1.33-.01.66.13 1.47.14.82.17 1.67.03.84.18 1.7.15.85.18 1.57.03.71.17 1.54.15.83.18 1.71.04.88.04 1.6.01.72.01 1.42v1.33q-.01.64.14 1.18.14.54.17 1.24t.04 1.39v1.37q.01.68.01 1.5v7.59q0 .55-.01 1.25 0 .71-.14 1.25-.15.55-.17 1.2-.03.65-.18 1.33t-.18 1.36q-.03.68-.17 1.37-.15.68-.18 1.33t-.03 1.32q-.01.68-.01 1.23v2.58q-.01.72-.15 1.28-.15.55-.17 1.03-.02.48-.03.98-.01.51-.01 1.07 0 .55-.15 1.08-.14.52-.17.99-.02.46-.03 1.15-.01.69-.15 1.23-.15.55-.17 1.29-.03.75-.03 1.49-.01.73-.16 1.43-.14.69-.17 1.34-.02.65-.03 1.19v1.06q-.01.52-.01.95 0 .42-.15.92-.14.5-.16.95-.03.46-.03 1.1-.01.64-.01 1.18v1.3q-.01.75.14 1.45.14.7.17 1.42t.03 1.39q.01.66.14 1.43.14.77.31 1.37.18.59.22 1.27.03.67.18 1.36.15.68.18 1.4.04.71.04 1.37.01.66.15 1.33.14.68.17 1.4.03.72.04 1.41.01.69.01 1.38v2.7q-.01.65.14 1.32.14.68.17 1.36.02.69.17 1.34.14.64.32 1.36.17.71.21 1.54.03.83.18 1.54.15.71.19 1.57.03.86.03 1.75.01.88-.13 1.74-.15.87-.18 1.73-.02.86-.17 1.58-.15.72-.18 1.41t-.19 1.41q-.15.72-.32 1.42-.18.69-.35 1.37l-.35 1.34q-.17.64-.21 1.45-.03.81-.19 1.69-.15.88-.32 1.6-.18.73-.36 1.59-.19.86-.51 1.57-.32.72-.51 1.49-.2.76-.23 1.43-.04.68-.05 1.39-.01.72-.16 1.41-.14.69-.17 1.34-.02.65-.03 1.19 0 .54-.01 1.19v6.8q0 .63.14 1.3t.17 1.36q.03.68.17 1.47.15.79.32 1.52.18.74.21 1.57.04.83.18 1.49.13.66.45 1.47.31.81.51 1.53.21.71.53 1.53.33.83.54 1.55.21.72.39 1.27.18.54.36 1.07.19.53.37 1.2.18.67.36 1.5.18.82.37 1.7.18.88.22 1.74.03.86.18 1.71t.18 1.6q.04.75.04 1.45.01.69.01 1.42 0 .72-.16 1.47-.15.74-.47 1.58-.32.83-.51 1.51-.2.68-.38 1.61-.17.92-.21 1.92-.03 1.01-.19 2.06-.15 1.04-.32 2.08-.18 1.03-.36 1.93-.17.89-.35 1.75-.18.86-.36 1.85-.17.99-.35 1.88-.18.88-.35 1.85-.18.97-.21 1.82-.03.86-.04 1.71-.01.86-.01 1.71v1.74q0 .88-.15 1.74-.14.86-.17 1.73-.03.86-.18 1.58-.15.71-.17 1.64-.03.93-.04 1.81v3.44q0 .86-.01 1.75 0 .88-.14 1.61-.14.73-.17 1.42t-.18 1.38q-.15.68-.18 1.33-.02.65-.03 1.33 0 .68-.01 1.36v8.11q0 .67.13 1.17.13.5.29.99.16.5.34.88.18.38.37 1.07.2.69.24 1.37.03.68.16 1.29.13.6.44 1.13.31.53.51 1.19.21.65.51 1.15.3.5.67 1.04.36.54.57 1.06.22.51.51.98.29.46.57.76.27.3.71.48.44.18.77.34.33.16.9.19.57.02 1.15.03.58.01 1.43.15.85.14 1.71.3.85.17 1.57.2.71.03 1.42.03.72.01 1.14.01h.8q.37 0 .68.01.32 0 .77-.13.46-.13 1.14-.3.68-.16 1.5-.33.82-.16 1.56-.46.73-.31 1.63-.52.89-.2 1.77-.38.89-.18 1.66-.35.78-.18 1.68-.22.9-.04 1.76-.04.87-.01 1.71-.14t1.46-.3q.62-.16 1.07-.2.45-.04.89-.04t.81.13q.37.14.95.16.58.02 1.41.03h5.26q.89 0 1.68.01.79 0 1.42.15.62.14 1.17.31.54.16 1.21.33.67.17 1.38.34.72.17 1.28.34t1.38.34q.81.17 1.55.34t1.49.35q.75.18 1.48.5.74.31 1.57.64.82.32 1.67.52.86.19 1.71.37.86.17 1.76.21.89.03 1.5.18.61.14 1.16.17.55.03 1.12.18.57.15 1.25.31.67.17 1.37.33.7.17 1.54.34.85.17 1.73.34t1.74.34q.87.17 1.72.2.86.03 1.46.04.6 0 1.19.01.59 0 1.14.14.54.14 1.07.17.53.02 1.23.17.71.15 1.39.31.68.16 1.35.19t1.52.03q.84.01 1.58.01h4.67q.71 0 1.39.01.67 0 1.23-.14.56-.13 1.25-.16.68-.03 1.24-.17.57-.14 1.29-.17.72-.04 1.41-.04.69-.01 1.49-.14.81-.13 1.8-.42t1.9-.62q.9-.33 1.79-.67.88-.33 1.67-.69.79-.35 1.43-.43.65-.08 1.21-.1.57-.01 1.22-.01.66-.01 1.5-.14.84-.14 1.72-.17.89-.02 1.75-.16t1.74-.3q.88-.17 1.62-.34.75-.17 1.61-.34.86-.17 1.57-.33.71-.16 1.41-.46.7-.3 1.3-.51.6-.21 1.47-.4.88-.18 1.36-.22.49-.04 1.3-.05.82-.01 1.55-.01h6.82q.76.01 1.42.16.66.16 1.22.47.56.31 1.07.49.5.19 1.02.36.52.17 1.18.34.66.17 1.36.34.69.17 1.54.34.85.16 1.7.33.86.17 1.74.2.89.04 1.64.18.75.14 1.44.17.68.03 1.29.04.61 0 1.16.14.54.14 1.22.17.68.03 1.24.17.57.14 1.24.17t1.41.17q.73.15 1.58.31l1.71.34q.86.16 1.71.19.86.03 1.74.04.89.01 1.78.01h5.29q.74 0 1.46.14.71.14 1.53.16.83.03 1.85.04h2.05q1.03 0 1.92-.13.89-.13 1.66-.3.77-.16 1.38-.2.62-.03 1.28-.04.66 0 1.36-.14.7-.14 1.42-.17.71-.03 1.57-.17.86-.14 1.74-.17.89-.03 1.92-.17 1.04-.14 1.95-.17.91-.03 1.66-.17.75-.14 1.65-.17.89-.03 1.61-.04.71 0 1.39-.13.68-.14 1.42-.31.73-.16 1.74-.2 1.01-.03 1.9-.17.89-.14 1.95-.31 1.06-.17 2.15-.21 1.09-.03 2.02-.04h1.68q.76-.01 1.34-.01h10.08q.74 0 1.64.01.9 0 1.51.14.61.13 1.16.16.55.03 1.13.18.58.15 1.12.32.53.16 1.2.33.68.17 1.24.34.57.17 1.25.34.68.18 1.21.34.53.16 1.16.19.64.03 1.33.04.7 0 1.41.01h2.65q.51.01.9-.13.38-.13.8-.17.42-.03.79-.04h.79q.43.01.79.15.37.13.81.15.43.02.81.03.37 0 .88.01h.98q.49 0 1.01-.13.52-.14 1.07-.17.54-.03 1.17-.16.64-.13 1.19-.3l1.12-.33q.57-.18 1.01-.22.45-.04.82-.05.38-.01.88-.01h2.05q.49 0 1.01-.13.53-.14.96-.17.43-.03.95-.03.52-.01 1.05-.01h3.97q.69 0 1.53-.14.85-.13 1.62-.16.77-.03 1.45-.03.68-.01 1.25-.14.56-.14 1.14-.17.58-.03 1.13-.04.54 0 1.08-.01h2.28q.68 0 1.28.01.61 0 1.19.14.58.15 1.25.31.68.16 1.39.33.7.17 1.45.36.76.18 1.34.49.57.31 1.24.51.67.19 1.1.37.43.18.92.34.5.17.98.33.49.16 1.08.19.59.03 1.28-.1.69-.13 1.39-.16.71-.02 1.39-.16.68-.13 1.42-.3.74-.17 1.49-.21.75-.04 1.47-.04.72-.01 1.43-.01h10.23q.44.01.82-.13.38-.13 1.08-.17.71-.03 1.13-.04h2.25q.51 0 1.04-.13.53-.14 1.11-.17.57-.03.97-.04.4 0 .77-.01h10.43q.54 0 .97.01.44 0 .96.14t.9.16q.39.03.9.17.5.15.94.19.44.04.66.18.22.15.45.16.24.01.57.01.34.01.55.01h8.06q.46 0 .98-.13.51-.14.88-.16.37-.02.74-.16.36-.15.92-.18.56-.04.82-.05h.52q.27.01.61-.13.34-.13.66-.15.32-.01.53-.16.21-.14.54-.17.32-.02.47-.14.15-.11.46-.27.32-.16.52-.33.21-.16.53-.33.32-.17.63-.45.32-.28.52-.47.21-.19.57-.53t.75-.57q.4-.23.72-.39.33-.16.64-.43.32-.28.67-.61l.54-.51q.19-.18.49-.59t.48-.74q.19-.32.39-.83.2-.52.5-.85.3-.33.34-.75.05-.41.22-.97.17-.56.33-.9.16-.33.18-.88.03-.55.03-1.07l.02-1.1q.01-.57-.25-1.06-.27-.49-.48-1.17-.21-.68-.39-1.23-.19-.55-.37-1.2-.18-.66-.35-1.19l-.35-1.03q-.17-.5-.34-.85-.16-.36-.36-.76-.2-.41-.25-.83-.05-.42-.06-.96 0-.55.16-1.13.16-.58.33-.97.18-.39.34-.81.15-.43.19-.94.04-.51.2-.93.16-.42.35-.94.18-.51.52-1.05.33-.53.51-.86.19-.33.38-.96.18-.63.51-1.18.33-.55.52-1.04.2-.48.38-.99.18-.5.35-1.01.18-.5.35-1.14.18-.65.35-1.16.17-.5.21-1.03.04-.53.19-.91.15-.37.17-.84.03-.47.19-1.02.16-.56.34-1.09.18-.54.34-.88.17-.33.2-.79t.19-1.01q.16-.55.33-1.06t.35-1.16q.17-.64.34-1.15.17-.51.21-1.04.04-.53.19-.9.15-.38.17-.8.02-.42.02-.92.01-.5.01-1.14 0-.65.01-1.14 0-.5-.13-.96-.13-.46-.3-.97-.17-.5-.34-1.01-.18-.51-.35-1.01-.17-.49-.33-.83-.16-.34-.48-.83-.33-.5-.55-1.04-.23-.55-.42-1.08-.19-.53-.37-1.21-.19-.67-.37-1.61-.17-.94-.49-1.81-.32-.87-.53-1.86-.2-1-.53-1.91-.34-.9-.41-1.94-.07-1.03-.22-2.05-.16-1.03-.19-1.77-.03-.75-.17-1.55-.15-.8-.32-1.51t-.35-1.57q-.19-.86-.22-1.88-.04-1.03-.05-1.91-.01-.89-.01-1.75v-4.88q0-.86.15-1.58.14-.71.17-1.67t.17-1.84q.15-.87.18-1.74t.19-1.62q.15-.76.33-1.46.17-.7.35-1.4.19-.71.51-1.55.33-.83.53-1.4.21-.57.39-1.09.18-.53.36-1.04.18-.52.36-1.03t.35-1.02q.18-.5.35-1.14.17-.63.36-1.32.18-.68.35-1.19.17-.52.2-1.12.02-.6.03-1.14.01-.53.01-1.05v-6.1q.01-.49-.13-1.09-.13-.6-.3-1.13-.17-.53-.35-1.23-.19-.7-.23-1.42-.04-.73-.05-1.42v-1.2q0-.51-.14-1.16-.14-.65-.17-1.18-.03-.53-.17-1-.13-.48-.31-1.03-.19-.55-.23-1.11-.04-.57-.04-1.19 0-.61-.14-1.11-.14-.5-.31-1.19-.18-.69-.22-1.38-.03-.68-.18-1.37-.15-.68-.18-1.37-.03-.68-.18-1.36t-.18-1.23q-.03-.55-.18-1.2-.14-.66-.18-1.38-.03-.71-.04-1.4v-1.42q0-.72.14-1.41t.17-1.61q.03-.92.03-1.55.01-.63.16-1.44.14-.81.17-1.52.03-.72.18-1.43.15-.72.32-1.52.17-.79.2-1.5.04-.7.19-1.56.16-.86.32-1.55.17-.69.2-1.48.03-.78.04-1.49.01-.7.01-1.53v-9.1q.01-.61-.13-1.11-.13-.5-.3-1.14-.17-.65-.34-1.19-.18-.54-.34-1.16-.17-.62-.48-1.14-.31-.52-.54-1.08-.22-.57-.41-1.24-.19-.67-.37-1.35l-.36-1.36-.35-1.34q-.17-.65-.48-1.32-.31-.67-.54-1.28-.23-.61-.27-1.32-.05-.72-.06-1.41-.01-.69-.01-1.37v-1.4q0-.72.14-1.55.14-.82.17-1.54.03-.72.18-1.41t.18-1.38q.03-.7.18-1.25.15-.54.17-1.16.03-.61.04-1.28v-4.81q0-.66.01-1.38 0-.72.14-1.28.15-.55.17-1.2.03-.65.18-1.33t.18-1.24q.03-.55.18-1.07t.17-1.12q.03-.61.03-1.14.01-.54.01-1.01.01-.47-.13-.97t-.17-1.01q-.03-.52-.17-.99-.14-.48-.31-1.13-.17-.64-.36-1.22-.18-.57-.22-1.25-.04-.68-.18-1.45-.14-.78-.3-1.29-.15-.51-.46-1.02-.31-.52-.55-1.11-.23-.59-.28-1.17-.05-.57-.06-1.15 0-.57.15-1.14t.31-1.05q.17-.47.2-1.12.03-.64.18-1.18.15-.54.18-1.18.03-.65.18-1.33.14-.67.17-1.32t.04-1.37q.01-.72.15-1.27.14-.56.17-1.17.02-.61.03-1.15.01-.53.01-1.22t.14-1.38q.15-.68.17-1.33.03-.65.04-1.19v-9.61q0-.52.01-1.12 0-.61-.14-1.14-.14-.53-.18-1.23-.03-.7-.03-1.35-.01-.65-.15-1.33-.14-.68-.17-1.36t-.17-1.33q-.14-.65-.31-1.32-.17-.66-.34-1.2-.17-.53-.36-1.09-.19-.56-.23-1.08-.03-.53-.18-1.04t-.19-.93q-.03-.43-.04-1.06-.01-.64-.01-1.18v-1.09q.01-.55.16-1.25.14-.69.33-1.41.18-.71.5-1.4t.51-1.31q.19-.62.23-1.3.04-.68.19-1.23.15-.54.18-1.07.03-.52.2-1.1.16-.57.32-.91.17-.35.2-.81.02-.46.17-.97.15-.51.18-.83.02-.33.03-.8v-.98q.01-.51.01-1.02v-4.06q0-.46-.14-.96-.14-.51-.16-1-.03-.5-.18-.87-.15-.38-.17-.86-.03-.49-.18-.86t-.19-.92q-.04-.54-.04-1 0-.45-.12-.77-.13-.32-.31-.81-.17-.49-.34-.99-.17-.49-.33-.82-.16-.34-.47-.81-.32-.48-.51-.82-.19-.35-.5-.68-.31-.33-.72-.9-.4-.58-.49-1.14-.09-.56-.25-1.09-.16-.52-.19-1.12-.04-.6.11-1.34.16-.73.5-1.47.34-.75.85-1.46.51-.72 1.04-1.4.52-.68.88-1.18.36-.5.56-1.11.21-.61.39-1.15.19-.55.36-1.02.16-.48.19-.94.03-.46.04-.82.01-.37.01-.85v-2.89q0-.38.01-.93 0-.55.15-.93.14-.38.17-.85.02-.47.17-.98.15-.51.17-.97.03-.47.04-1.02.01-.55.15-1.07.15-.52.18-1.03.02-.52.17-1.03.15-.51.18-1.11.02-.6.03-1.27v-1.35q0-.69.01-1.19 0-.5-.14-1-.14-.51-.17-.88t-.17-.86q-.15-.48-.18-.84-.02-.35-.15-.63-.12-.29-.32-.68-.19-.39-.22-.75-.04-.35-.17-.63-.12-.28-.29-.61-.17-.33-.35-.67-.17-.34-.34-.67-.17-.32-.46-.77-.3-.44-.51-.68-.22-.24-.42-.6-.21-.35-.37-.66-.15-.3-.41-.57-.25-.27-.59-.47-.34-.19-.69-.51-.35-.31-.65-.48-.3-.16-.78-.33-.48-.17-.88-.35-.41-.18-.71-.33-.31-.16-.66-.19-.35-.03-.76-.19-.41-.16-.81-.35-.4-.19-.62-.37-.22-.17-.52-.32-.29-.15-.62-.31t-.76-.31q-.43-.16-.94-.19-.5-.03-1.17-.17-.68-.14-1.35-.17t-1.23-.03q-.56-.01-1.38-.01h-5.77q-.61-.01-1.16-.14-.55-.14-1.19-.16-.63-.03-1.33-.03-.7-.01-1.55-.01h-3.08q-.75 0-1.64-.15-.89-.14-1.65-.3-.75-.17-1.44-.34-.69-.16-1.36-.19-.68-.03-1.24-.04-.56 0-1.24-.01h-1.36q-.68 0-1.51.13-.82.14-1.85.3-1.02.16-1.93.33-.91.17-1.83.35-.92.17-1.7.21-.78.03-1.51.04-.73.01-1.44.01h-5.67q-.68 0-1.39.13-.7.14-1.59.17-.89.03-1.74.03-.86.01-1.57.14-.71.13-1.45.3-.74.17-1.35.2-.61.04-1.16.05h-1.09q-.53.01-1.07.01-.53 0-1.15-.01-.63 0-1.04.13-.41.14-1.12.17-.71.03-1.27.04-.57.01-1.39.01h-12.05q-.69-.01-1.39-.14-.71-.14-1.39-.17-.67-.02-1.55-.03-.88 0-1.63-.14-.75-.14-1.47-.17t-1.43-.17q-.72-.14-1.25-.17-.54-.02-1.27-.03-.73-.01-1.2-.16-.48-.16-.95-.31-.46-.15-1-.19-.54-.03-.93-.17-.39-.15-.88-.17-.49-.03-1.06-.18-.57-.15-1.1-.32-.53-.16-1.19-.33-.67-.17-1.37-.34-.71-.17-1.39-.33-.68-.17-1.24-.2-.57-.03-1.25-.18-.68-.14-1.25-.17-.58-.03-1.12-.17-.55-.15-.9-.17-.35-.02-.84-.03-.49-.01-.84-.01t-.95.13q-.59.12-1.18.29-.58.17-1.28.21-.69.03-1.37.17-.67.14-1.38.3-.7.17-1.44.34-.75.18-1.32.21-.57.04-1.26.18-.69.15-1.28.18-.6.03-1.15.04h-6.84q-.57 0-1.11-.14-.54-.14-1.18-.16-.63-.02-1.33-.03-.7-.01-1.27-.01h-3.14q-.37 0-.83-.01-.45-.02-.68-.16-.23-.14-.53-.16-.3-.02-.65-.16-.34-.14-.73-.18-.39-.04-.67-.21-.27-.17-.58-.32-.31-.16-.65-.32-.35-.17-.65-.32-.29-.15-.64-.18-.34-.03-.7-.18-.35-.14-.71-.17-.35-.03-.71-.17-.35-.14-.65-.16-.29-.01-.82-.02t-1.07-.15q-.53-.14-.88-.16-.35-.02-.7-.03-.35 0-.79-.01-.43-.01-.8.13-.38.13-.88.16t-.83.14q-.32.12-.63.26t-.48.28q-.17.14-.52.46-.35.33-.71.53t-.54.36q-.18.15-.39.34-.21.2-.63.41-.41.22-.67.27-.26.05.03-.31.29-.37-.08 0-.38.37-.6.26-.23-.1-.33-.33t-.02-.47q.08-.23.29-.36.22-.12.62.2.41.33.08 0-.32-.33-.23-.33.09.01.31.02t.29.03q.06.02.12.05.06.03.12.08.05.04.09.1.04.05.08.11.03.06.05.13.02.06.02.13.01.07 0 .14t-.03.13q-.02.07-.05.13-.03.06-.08.11-.04.05-.09.1-.06.04-.12.07-.06.03-.12.05-.07.02-.14.03h-.13q-.07-.01-.14-.03-.06-.02-.12-.06-.06-.03-.12-.07-.05-.05-.09-.1-.05-.05-.08-.11t-.05-.13q-.02-.07-.02-.13-.01-.07 0-.14 0-.07.02-.13.02-.07.06-.13.03-.06.07-.11.05-.06.1-.1.06-.04.12-.07.06-.04.12-.06l.14-.02q.07-.01.13 0 .07.01.14.03.06.02.12.05.06.03.12.08.05.04.09.1.04.05.08.11.03.06.05.13.02.06.02.13.01.07 0 .14t-.03.13q-.02.07-.05.13-.03.06-.08.11-.04.05-.09.1-.06.04-.12.07-.06.03-.12.05-.07.02-.14.03h-.24q-.17 0-.28-.01-.12 0-.34-.11-.23-.1-.33-.33t-.02-.47q.08-.23.29-.36.22-.12.37-.14.15-.02.38-.15.23-.12.39-.27.16-.15.4-.36.25-.2.59-.39.34-.19.65-.47.3-.29.56-.5.27-.2.68-.39.41-.19.86-.35.44-.16.95-.19t.9-.17q.4-.14.95-.14h.94q.37.01.8.04.44.03.95.17.52.13.99.14.46 0 .88.04t.78.18q.36.14.71.17.36.03.72.17.36.15.72.18.37.04.78.23.42.2.77.37.35.16.7.34.35.17.5.29.16.11.48.13.32.02.67.16.35.14.71.18.36.04.56.17.2.13.46.12.26-.02.63-.02h3.15q.57 0 1.28.01.71.01 1.43.04t1.25.16q.52.14 1.01.14.48-.01.99-.01h5.73q.53-.01 1.06-.04.53-.02 1.22-.17.68-.14 1.24-.17.57-.04 1.25-.2.69-.16 1.4-.33.72-.17 1.46-.32.73-.15 1.4-.18.67-.03 1.2-.18.52-.15 1.22-.3.7-.14 1.12-.14.43-.01.95 0 .51.01.95.04.44.03.97.17.54.15 1.09.17.56.02 1.24.17.69.14 1.26.17.58.04 1.32.22.74.17 1.45.34.7.18 1.39.35.69.17 1.22.34.54.16 1.03.3.48.13 1.01.16.52.03.91.18.39.14.91.17t1.08.21q.55.17.92.3.38.12 1.01.13.64 0 1.24.03.61.03 1.32.17.71.14 1.42.17.72.03 1.46.16.73.14 1.56.15.83 0 1.57.03.74.03 1.44.17.69.13 1.3.13h11.98q.82 0 1.38-.01.55-.01 1.15-.03.6-.02 1.03-.16.42-.14 1.16-.14h1.26q.53 0 1.07-.01h1.06q.54-.01 1.07-.04t1.23-.19q.7-.16 1.48-.3.79-.15 1.7-.15.91-.01 1.73-.04.82-.02 1.54-.16.72-.14 1.46-.14h5.73q.72 0 1.43-.01t1.43-.04q.72-.03 1.59-.2.87-.16 1.79-.34.93-.17 1.95-.33 1.03-.17 1.92-.31.88-.14 1.61-.14h1.42q.69.01 1.27.01.57.01 1.33.05.75.03 1.5.21.74.17 1.47.34.73.16 1.55.29.82.13 1.51.13h3.02q.86 0 1.57.01.71 0 1.43.03t1.26.17q.53.14 1.06.13h5.68q.83 0 1.4.01.58 0 1.32.04.74.03 1.42.17.68.15 1.23.18.54.04 1.11.23.56.19.93.37.38.19.74.38t.57.35q.2.17.51.31l.62.27q.3.12.66.16.37.03.79.23.41.19.78.35.37.17.88.35.51.18.93.42.41.23.77.55.36.31.72.53.36.21.75.62.38.41.58.79l.37.65q.16.29.36.51.2.22.54.74.35.51.53.87.19.36.37.71.18.34.35.69.18.35.35.76.17.4.21.73.03.34.18.63.16.29.33.7.17.42.2.8.03.39.18.88t.18.87q.03.38.17.92.15.53.15 1.12v2.65q-.01.68-.04 1.38-.04.7-.19 1.21-.15.52-.17 1.03-.03.51-.18 1.02-.14.5-.14.98 0 .47-.04 1.03-.03.56-.18 1.07t-.18 1.01q-.03.49-.17.85-.14.37-.14.79.01.42.01.8v2.9q0 .49-.01.88t-.05.95q-.04.57-.24 1.14-.19.56-.37 1.1-.19.54-.43 1.24-.24.71-.66 1.3-.42.6-.95 1.28-.52.69-.99 1.34-.47.65-.75 1.26t-.4 1.17q-.12.57-.1.99.03.43.19.93.15.5.2.95.05.45.35.84.29.38.63.75.34.36.57.76.22.39.55.89.32.5.52.91.2.41.38.94.18.52.35 1 .17.48.33.91.16.43.17.99.01.56.03.99.03.42.17.79.15.37.18.85.03.49.18.87.15.37.18.91.03.53.18 1.05.14.52.14 1.08.01.55.01 1.04v3.11q0 .52-.01 1.03v1q-.01.5-.04.93-.04.42-.19.92-.15.51-.19 1.02-.04.51-.22.92-.18.41-.32.87-.13.45-.16.97-.03.51-.18 1.06t-.19 1.24q-.04.68-.27 1.43-.22.75-.54 1.42-.31.68-.47 1.32-.16.64-.3 1.25-.13.61-.13 1.09v1.01q0 .53.01 1.14.01.61.03.94.02.33.17.84.15.52.19 1.02.03.51.2.99t.35 1.04q.18.56.35 1.26.18.7.34 1.42.15.72.18 1.41.03.68.17 1.37.15.69.15 1.39.01.71.04 1.32.02.62.16 1.16.15.55.15 1.25v10.84q-.01.56-.04 1.27-.03.72-.17 1.39-.15.67-.15 1.3.01.62 0 1.17-.01.55-.04 1.24-.03.7-.17 1.25-.15.54-.15 1.18 0 .65-.04 1.37-.03.72-.18 1.4-.15.68-.18 1.34t-.18 1.21q-.15.54-.18 1.2-.04.66-.22 1.2-.18.55-.31 1.01-.12.46-.11.91.01.45.04.9t.21.89q.18.44.51.98.32.54.51 1.17.2.63.35 1.49.16.86.19 1.49t.2 1.14q.17.5.35 1.16.17.65.32 1.2.16.55.19 1.06.03.52.17 1.04.15.53.15 1.1 0 .56-.01 1.11 0 .55-.04 1.25-.03.7-.18 1.22t-.18 1.05q-.02.54-.17 1.21-.15.68-.18 1.34-.03.67-.17 1.21-.14.54-.14 1.17v6.12q-.01.69-.04 1.39-.04.7-.19 1.25t-.17 1.22q-.03.68-.18 1.37-.15.69-.18 1.39-.02.71-.16 1.52-.15.81-.15 1.47.01.65.01 1.33t.01 1.35q.01.67.04 1.26.03.6.22 1.08.19.49.51 1.19.33.7.52 1.42.19.71.36 1.39l.36 1.36q.18.67.36 1.3.17.63.36 1.11.19.48.52 1.04t.52 1.25q.19.69.37 1.23.18.55.35 1.21.17.67.32 1.25.16.59.16 1.29v9.2q0 .82-.01 1.54-.01.72-.04 1.59-.04.87-.22 1.6-.17.74-.32 1.53-.14.8-.18 1.51-.03.72-.21 1.57l-.32 1.51q-.14.66-.17 1.36-.03.7-.17 1.5t-.15 1.38q0 .57-.03 1.57-.03.99-.18 1.67-.14.67-.14 1.32.01.65.01 1.32.01.68.04 1.32.02.64.17 1.3.15.65.18 1.2.03.55.18 1.23.15.69.18 1.37.03.69.18 1.37.14.68.18 1.35.03.67.19 1.29.17.62.32 1.21.15.58.16 1.26.01.68.04 1.14.03.46.19.94.16.48.32 1.04.16.57.19 1.12.03.55.18 1.22.14.67.14 1.25.01.58.01 1.26.01.67.04 1.3.03.64.2 1.25t.34 1.16q.17.55.33 1.26.15.7.15 1.26v6.19q0 .52-.01 1.07t-.05 1.26q-.04.71-.22 1.29-.19.58-.37 1.25-.17.67-.35 1.33-.19.67-.37 1.19l-.36 1.04q-.18.51-.36 1.03-.18.51-.36 1.04t-.39 1.11q-.21.58-.53 1.38-.31.81-.48 1.47-.17.67-.34 1.35t-.32 1.37q-.14.68-.17 1.53-.03.86-.17 1.73-.15.88-.18 1.85-.03.97-.17 1.67-.14.71-.14 1.5v4.8q0 .86.01 1.74.01.87.04 1.83.03.95.2 1.74.18.79.35 1.51.17.72.33 1.59.15.87.18 1.62.03.76.19 1.77.15 1.02.21 1.98.06.97.38 1.83.32.85.53 1.85.21 1 .53 1.87.32.88.5 1.85.18.96.36 1.58.17.63.34 1.12.18.49.37.96t.51.95q.31.48.51.89.2.42.38.95t.36 1.04q.18.52.35 1.04.18.53.33 1.1.16.58.16 1.16v1.24q0 .65-.01 1.17 0 .52-.04 1.07t-.19.93q-.15.37-.18.88-.04.51-.22 1.08-.19.58-.36 1.23-.18.65-.36 1.17-.17.51-.31.98-.14.46-.18.97-.04.51-.23.93-.19.42-.35.91-.17.48-.3.95-.14.46-.17.96-.04.5-.19.88t-.18.89q-.03.51-.22 1.08-.19.57-.37 1.23-.18.65-.36 1.18-.18.52-.37 1.04t-.41 1.07q-.22.55-.53 1.07-.32.52-.5 1.14-.18.61-.41 1.03-.22.42-.53.9-.31.49-.47.94-.16.46-.29.79-.14.33-.17.83-.04.5-.23 1.05-.2.54-.36.91-.17.36-.29.79-.12.43-.11.84.01.42.03.68.02.27.18.56.15.3.34.7.19.39.38.93.18.54.36 1.1.18.55.36 1.2.18.66.36 1.19.18.54.37 1.17.19.63.49 1.22t.31 1.33q.01.74 0 1.28 0 .55-.05 1.24-.04.7-.23 1.11-.19.42-.33.88-.14.45-.22 1.01-.09.55-.43.96-.34.4-.51.86-.17.45-.4.85-.23.41-.59.9-.35.49-.59.72-.24.23-.6.57-.36.34-.76.68-.39.34-.78.53-.38.2-.69.37-.3.17-.6.46-.3.28-.52.49-.21.2-.6.54t-.72.51q-.33.17-.54.35-.21.17-.55.34-.34.17-.61.34-.26.17-.59.2-.33.03-.55.18-.21.14-.61.18-.39.03-.75.17-.37.14-.76.15-.39.01-.63.01l-.67.03q-.44.02-.8.16-.36.14-.77.18-.41.03-.95.17-.54.13-1.09.14h-8.16q-.22 0-.58-.01-.37-.01-.79-.05-.43-.05-.64-.19-.22-.14-.56-.16-.33-.01-.83-.16-.51-.14-.89-.17-.39-.02-.88-.16-.49-.13-.84-.13h-11.3q-.36.01-.75.01-.38.01-.88.03-.49.02-1.04.16t-1.15.14q-.6.01-1.25.01h-1.06q-.4.01-.99.03-.59.02-.99.16-.39.14-.95.14-.57.01-.95.01h-9.39q-.71 0-1.42.01-.7 0-1.38.03-.67.03-1.36.19-.68.16-1.43.31-.74.15-1.46.18-.71.02-1.43.15t-1.48.1q-.76-.04-1.34-.23-.58-.18-1.1-.36-.53-.17-.94-.35-.42-.17-1.12-.38-.7-.2-1.26-.51-.56-.3-1.23-.46-.67-.16-1.37-.32-.71-.17-1.39-.34-.68-.16-1.18-.29-.5-.13-1.02-.13h-3.47q-.53.01-1.06.01-.53.01-1.03.03-.5.02-1.08.16-.58.14-1.33.15-.75.01-1.47.03-.71.03-1.57.17-.86.13-1.6.14h-4.03q-.52 0-1.02.01-.49 0-.84.02-.35.03-.9.17-.54.13-1.12.14h-2.13q-.49 0-.84.01t-.69.03q-.35.03-.85.19-.51.16-1.09.33-.58.17-1.29.32-.72.15-1.25.18-.52.03-1.07.16-.54.14-1.11.14-.57.01-1.08.01-.51-.01-.9-.01-.39-.01-.95-.04-.56-.04-.91-.17-.35-.14-.64-.13-.29.01-.63.01-.35.01-.66.03-.31.02-.72.16t-1.04.14q-.63.01-1.34.01h-1.42q-.72-.01-1.43-.01-.72-.01-1.45-.05t-1.33-.22q-.59-.18-1.28-.35-.68-.17-1.24-.34-.56-.17-1.24-.34-.68-.17-1.22-.34-.53-.16-1.03-.29-.49-.14-1.03-.16-.54-.03-1.13-.17-.6-.13-1.42-.13h-11.64q-.58 0-1.33.01h-1.68q-.92.01-1.95.04-1.04.03-2.05.2-1.02.16-1.95.3-.94.15-1.92.18-.99.03-1.66.19-.69.16-1.45.31-.75.14-1.52.15-.77.01-1.6.03-.83.03-1.59.17-.75.14-1.68.17-.93.03-1.96.17-1.03.15-1.91.17-.88.03-1.73.18-.85.14-1.56.16-.71.03-1.42.17t-1.42.15q-.71.01-1.25.04-.54.02-1.28.19-.74.16-1.7.3-.96.14-2.05.14h-2.12q-1.03-.01-1.92-.04-.88-.03-1.59-.17-.7-.13-1.38-.13h-5.23q-.89 0-1.79-.01-.89-.01-1.81-.04-.92-.04-1.83-.21-.91-.18-1.77-.34-.85-.17-1.53-.31-.68-.13-1.37-.16-.7-.03-1.26-.18-.56-.14-1.24-.17-.68-.02-1.21-.16-.54-.14-1.08-.14-.53 0-1.28-.03-.75-.04-1.5-.18-.75-.14-1.64-.18-.88-.03-1.79-.21-.92-.17-1.78-.34-.86-.18-1.57-.35-.72-.17-1.41-.35-.69-.18-1.24-.36t-1.12-.39q-.56-.21-1.09-.5-.52-.29-1-.41-.49-.11-1.17-.11h-6.74q-.73 0-1.51.01-.79.01-1.21.04-.41.03-1.2.2-.78.17-1.32.35-.54.19-1.27.51-.74.31-1.52.49-.77.18-1.64.35-.86.17-1.61.34-.75.17-1.65.34-.9.17-1.82.31-.91.15-1.79.18-.88.02-1.74.16-.85.14-1.55.14-.7.01-1.23.02-.52.01-1.03.07-.5.06-1.21.38-.71.33-1.62.68-.91.34-1.84.68t-1.99.65q-1.05.31-1.95.45-.91.15-1.63.16-.73 0-1.37.03-.64.02-1.21.17-.56.14-1.25.17-.68.02-1.26.16t-1.33.14h-6.14q-.74 0-1.6-.01-.87 0-1.62-.04-.75-.04-1.48-.21-.73-.17-1.38-.3-.64-.14-1.19-.17-.54-.03-1.07-.16-.53-.14-1.03-.14h-1.12q-.61-.01-1.53-.05-.92-.03-1.84-.21-.92-.17-1.8-.34-.88-.18-1.74-.35-.87-.17-1.58-.34-.71-.17-1.39-.34-.68-.17-1.19-.3-.5-.14-1.05-.17-.54-.02-1.14-.17-.61-.14-1.49-.18-.88-.03-1.81-.21-.92-.19-1.83-.4-.91-.21-1.8-.56-.88-.34-1.57-.64-.69-.3-1.38-.46-.69-.17-1.42-.34l-1.56-.34q-.84-.17-1.41-.34-.58-.18-1.28-.35-.69-.16-1.38-.34-.69-.17-1.23-.33-.54-.17-1.07-.29-.52-.13-1.23-.13h-6.88q-.84-.01-1.55-.04-.7-.04-1.05-.17-.35-.13-.63-.12-.29.01-.66.04-.36.02-.95.19-.59.16-1.53.3-.93.15-1.84.16-.9 0-1.72.04-.83.03-1.55.19-.72.17-1.6.35-.89.17-1.71.36-.83.19-1.57.5-.75.31-1.62.49-.87.17-1.53.34-.66.16-1.2.3-.54.15-.94.15h-1.58q-.43 0-1.16-.01-.72 0-1.5-.04-.78-.03-1.67-.2-.9-.17-1.7-.3-.79-.14-1.33-.14-.53-.01-1.25-.06-.72-.04-1.17-.24l-.99-.45q-.56-.24-.99-.69-.42-.45-.78-1.01-.36-.57-.57-1.08-.22-.51-.55-1.01-.34-.49-.69-1.08-.35-.58-.56-1.24-.2-.66-.52-1.23-.32-.56-.49-1.32-.17-.76-.21-1.42-.03-.66-.19-1.22-.16-.56-.34-.93-.17-.37-.35-.92-.18-.55-.34-1.16-.15-.61-.15-1.37-.01-.76-.01-1.62v-6.59q.01-.68.01-1.37.01-.69.04-1.41t.18-1.41q.15-.68.18-1.37.03-.69.17-1.4t.14-1.53v-5.14q.01-.88.04-1.88.03-1 .18-1.72t.18-1.57q.03-.84.17-1.69t.14-1.68v-1.68q0-.86.01-1.73t.04-1.78q.04-.91.22-1.94.19-1.02.36-1.91.18-.88.36-1.87.18-1 .36-1.86.17-.87.35-1.75.18-.88.35-1.9.17-1.02.31-2.02.15-1 .19-2.02.04-1.02.23-2.03.19-1 .4-1.74.22-.74.53-1.55.3-.81.43-1.43.13-.62.13-1.27t-.01-1.33q0-.69-.03-1.38t-.18-1.54q-.15-.85-.18-1.7-.04-.85-.21-1.67-.17-.81-.35-1.62-.18-.8-.35-1.43-.17-.64-.35-1.15-.17-.51-.36-1.07-.19-.56-.39-1.27-.21-.7-.53-1.53-.33-.82-.54-1.54-.2-.71-.52-1.55-.32-.84-.48-1.61-.16-.77-.19-1.59-.04-.82-.21-1.5-.16-.69-.32-1.55-.15-.85-.18-1.53t-.17-1.36q-.14-.69-.15-1.38v-6.88q.01-.66.01-1.21.01-.56.04-1.28t.17-1.4q.15-.68.15-1.34.01-.66.06-1.42.04-.75.26-1.64.22-.89.54-1.59.32-.71.49-1.51.17-.79.34-1.5t.31-1.53q.15-.81.19-1.65.03-.83.22-1.55.18-.72.36-1.41.18-.68.35-1.36.17-.67.31-1.32.14-.66.17-1.34.03-.69.18-1.41t.17-1.56q.03-.85.17-1.7t.14-1.66q-.01-.82-.04-1.61-.03-.79-.18-1.5t-.18-1.52q-.03-.82-.2-1.47-.17-.66-.32-1.38-.15-.71-.18-1.4t-.17-1.38q-.15-.69-.15-1.41v-2.77q0-.68-.01-1.36t-.03-1.32q-.03-.65-.17-1.34-.15-.69-.15-1.41-.01-.71-.04-1.36-.03-.64-.18-1.32-.14-.68-.18-1.33-.03-.65-.2-1.2-.16-.56-.31-1.43-.16-.86-.16-1.57-.01-.71-.04-1.37-.02-.65-.17-1.36-.14-.72-.14-1.54v-1.37q0-.54.01-1.2 0-.66.04-1.22.03-.55.17-1.03t.14-.8q-.01-.33 0-.85v-1.08q.01-.55.04-1.27t.17-1.4q.15-.69.15-1.36 0-.68.04-1.52.03-.83.17-1.37.15-.53.15-1.15 0-.61.03-1.17.04-.56.18-1.06.14-.51.14-.97v-1q.01-.52.04-1.08t.17-1.1q.14-.54.14-1.17v-2.5q0-.55.01-1.24 0-.69.04-1.41.03-.72.18-1.4.15-.69.17-1.37.03-.68.18-1.36t.18-1.34q.03-.67.17-1.2.14-.53.14-1.15v-8.75q0-.82-.01-1.5v-1.35q-.01-.67-.03-1.29-.03-.61-.17-1.17-.14-.55-.15-1.28v-1.42q0-.69-.01-1.4 0-.71-.03-1.53-.03-.82-.18-1.65-.15-.82-.18-1.54-.03-.72-.17-1.58-.15-.85-.18-1.7t-.17-1.68q-.14-.83-.14-1.56.01-.72.04-1.46t.17-1.56q.14-.82.14-1.51v-3.04q0-.72.01-1.55.01-.83.04-1.55.04-.73.22-1.44.17-.71.31-1.35.14-.64.13-1.3 0-.65.01-1.35.01-.71.04-1.48.04-.78.21-1.79.18-1.02.32-1.87.14-.84.13-1.78v-10.14q0-.68-.01-1.33 0-.64-.03-1.15-.02-.51-.17-1.17-.14-.67-.14-1.25v-1.27q0-.68-.01-1.37v-1.35q-.01-.68-.04-1.32-.04-.64-.21-1.29l-.37-1.32q-.2-.67-.53-1.43-.32-.77-.5-1.8-.19-1.03-.33-1.92-.15-.88-.15-1.75v-1.67q0-.79.01-1.35 0-.55.04-1.27.03-.72.17-1.4.14-.69.14-1.37v-3.24q0-.86.02-1.7.01-.85.08-1.64.07-.79.39-1.77.31-.98.45-1.61.13-.64.14-1.3 0-.66.04-1.41.04-.76.23-1.64.2-.88.42-1.75.22-.87.58-1.59.36-.73.66-1.49.3-.76.44-1.26.13-.49.17-1.17.03-.68.2-1.38.18-.71.31-1.31.13-.61.1-1.08-.03-.47-.18-1.15-.15-.68-.18-1.33-.03-.64-.2-1.18-.16-.54-.31-1.34-.16-.8-.16-1.86 0-1.05-.01-2.06 0-1.01-.03-1.94-.03-.93-.18-1.64-.14-.71-.17-1.54-.03-.83-.17-1.54-.15-.72-.15-1.57 0-.86-.01-1.53t-.03-1.28q-.02-.62-.17-1.17-.14-.56-.14-1.29-.01-.74-.01-1.45v-1.53q.01-.82.01-1.51.01-.69.05-1.4.04-.7.23-1.28.19-.58.37-1.23t.36-1.18l.36-1.04q.18-.51.37-1.03.19-.53.42-1.08.23-.56.6-1.1.37-.55.71-1.07.34-.52.66-1.14.31-.63.55-1.17.23-.54.67-1.1.44-.57 1.01-1.09.57-.51 1.08-.85.51-.34.93-.68.42-.33.95-.51.52-.19.8-.34.28-.15.51-.34.23-.19.76-.52t.87-.52q.34-.19.75-.51.4-.33.9-.53.5-.19.86-.5.36-.3.83-.5t1.09-.36q.63-.15 1.31-.18t1.26-.17q.57-.13 1.29-.14.72 0 1.28-.01.55 0 1.2-.03.64-.02 1.21-.16.56-.14 1.27-.15.7 0 1.15-.02.45-.03.85-.16.4-.14.99-.15h7.25q.58 0 1.33.01.75 0 1.65.03.91.03 1.73.17t1.36.14q.54 0 1.26.03.72.04 1.26.17.53.14 1.07.14.53.01 1.27.04.75.03 1.46.17t1.43.17q.71.03 1.42.17.72.15 1.44.18.71.04 1.46.22.74.17 1.45.34.7.17 1.38.34.69.17 1.19.3.51.14 1.07.17.55.04 1.26.22.71.19 1.11.37.39.17.9.34.5.17.88.33t.87.29q.48.13 1.05.16.56.03 1.3.21.74.17 1.42.31.69.15 1.44.22.74.06 1.47.38.74.32 1.4.48.66.17 1.2.34.54.18 1.07.35.54.17 1.06.35.52.17.9.34.39.18.89.35.5.17.86.33.37.17.67.29.3.11.67.11.37 0 1.12.03.74.03 1.45.17.71.13 1.41.13h1.53q.82 0 1.38-.01.55 0 1.19-.03.63-.02 1.17-.16.54-.14 1.12-.14.57-.01 1.09-.01.51-.01.93-.04.43-.03.73-.2.31-.17.8-.49.48-.32.93-.68.45-.36 1.21-.72.75-.36 1.5-.71.75-.34 1.61-.68.85-.35 1.55-.68.7-.34 1.42-.68.72-.33 1.46-.65.75-.33 1.48-.5.73-.18 1.4-.35.66-.17 1.19-.34.52-.16 1.06-.33.55-.17 1.13-.32.57-.15 1.12-.18.54-.03 1.12-.17.57-.14 1.3-.17.73-.03 1.47-.17.75-.14 1.64-.14.88 0 1.6.01.71 0 1.44.04.72.03 1.28.17t1.24.17q.67.03 1.19.18.51.14.91.18.4.04.97.23.58.19 1.14.41.56.22.95.52.38.3.87.44t1.14.27q.65.14 1.24.17.59.04 1.46.21.86.18 1.42.34.56.17 1.19.3.62.13 1.09.12h8.57q.79.01 1.87.01 1.07.01 2.19.04 1.11.04 2.3.2 1.2.17 2.05.3.86.14 1.66.14h12.89q.89.01 1.79.04.91.03 1.72.16.82.14 1.32.14.51 0 1.05-.01t1.12-.03q.58-.03 1.48-.16.9-.14 1.81-.14.92-.01 1.79-.01.88-.01 1.69-.04.82-.03 1.49-.2.68-.16 1.38-.34.69-.17 1.32-.35.63-.18 1.17-.47.53-.29.96-.33.43-.04.95-.2.51-.16 1.13-.32.63-.15 1.39-.18.76-.04 1.65-.21.89-.16 1.88-.33.99-.17 1.69-.34t1.4-.35q.7-.18 1.38-.37.67-.2 1.34-.54t1.41-.8q.74-.46 1.46-.64.73-.18 1.29-.32.56-.15 1.07-.15h.69q.18 0 .38.01.21.01.58.16t.44.51l.08.36Z" fill="#1e1e1e"/></svg>