<svg preserveAspectRatio="none" xmlns="http://www.w3.org/2000/svg" viewBox="8.30 8.30 571.61 166.88" width="571.61" height="166.88"><path fill="#000" d="M 283.57 9.33 L 283.94 9.76 L 283.98 10.48 L 285.29 10.81 L 285.72 11.00 L 288.60 11.79 L 289.11 11.89 L 289.52 12.06 L 290.07 12.12 L 292.02 12.58 L 293.49 12.85 L 299.51 12.84 L 299.95 12.79 L 301.32 12.20 L 303.76 11.55 L 304.25 11.49 L 309.26 11.54 L 309.76 11.63 L 310.22 11.78 L 310.69 11.87 L 311.62 12.26 L 312.58 12.50 L 313.49 12.86 L 314.51 13.02 L 314.97 13.15 L 315.50 13.21 L 316.44 13.43 L 318.44 13.68 L 320.45 13.74 L 321.44 13.95 L 322.91 13.99 L 323.89 14.22 L 324.88 14.28 L 325.86 14.50 L 327.28 14.95 L 329.78 15.31 L 339.24 15.29 L 343.71 14.72 L 346.11 14.03 L 347.45 13.36 L 350.82 12.41 L 353.79 12.05 L 367.31 12.10 L 368.79 12.31 L 370.29 12.38 L 371.26 12.59 L 372.25 12.74 L 372.70 12.86 L 373.68 12.99 L 376.13 13.62 L 380.10 14.11 L 380.60 14.22 L 382.08 14.31 L 383.53 14.70 L 386.04 14.91 L 388.98 15.30 L 392.99 15.35 L 393.98 15.47 L 396.38 16.11 L 400.36 16.08 L 401.91 15.88 L 403.37 15.83 L 406.85 15.28 L 408.27 14.85 L 411.73 14.39 L 414.67 13.73 L 416.16 13.54 L 417.66 13.16 L 418.56 13.01 L 420.03 12.60 L 422.00 12.31 L 423.46 12.23 L 424.50 12.06 L 429.99 12.08 L 430.96 12.30 L 433.46 12.37 L 434.43 12.57 L 435.41 12.69 L 437.90 13.16 L 439.82 13.66 L 440.79 13.78 L 442.25 14.20 L 443.20 14.35 L 443.71 14.48 L 444.70 14.59 L 445.67 14.77 L 451.18 14.74 L 452.64 14.51 L 458.15 14.46 L 459.65 14.25 L 467.15 14.20 L 467.65 14.14 L 468.11 14.00 L 469.60 13.88 L 470.57 13.69 L 472.08 13.50 L 475.03 12.85 L 476.03 12.75 L 477.46 12.44 L 481.60 10.67 L 482.03 10.45 L 483.50 10.05 L 484.97 9.83 L 486.00 9.76 L 486.96 9.61 L 488.99 9.64 L 492.90 10.23 L 494.36 10.59 L 496.37 10.80 L 500.22 11.65 L 503.11 12.58 L 504.05 12.96 L 508.44 13.92 L 509.90 14.32 L 513.81 15.06 L 518.26 15.58 L 520.76 15.69 L 522.28 15.87 L 527.26 15.84 L 528.73 15.60 L 531.21 15.53 L 533.21 15.22 L 539.48 13.54 L 540.89 13.00 L 541.37 12.86 L 542.84 12.56 L 543.79 12.26 L 545.15 11.66 L 549.52 10.40 L 550.95 10.15 L 558.97 10.17 L 561.41 10.69 L 562.38 10.84 L 566.07 12.40 L 566.51 12.65 L 568.48 14.16 L 569.74 14.93 L 570.55 15.57 L 571.28 16.25 L 573.45 17.48 L 575.29 19.16 L 575.71 19.46 L 576.01 19.84 L 576.71 20.53 L 577.60 22.33 L 577.78 22.83 L 578.32 25.25 L 578.34 29.73 L 578.08 31.21 L 577.96 32.20 L 577.83 32.72 L 577.77 34.69 L 577.52 36.14 L 577.41 37.14 L 577.01 39.10 L 576.84 40.60 L 576.45 42.53 L 576.32 44.07 L 576.15 45.04 L 576.06 46.03 L 575.55 47.96 L 574.44 50.78 L 573.49 54.65 L 573.00 58.09 L 572.18 61.47 L 571.59 63.40 L 571.22 64.88 L 570.89 65.86 L 570.72 66.80 L 570.74 69.28 L 571.10 70.76 L 571.62 72.13 L 572.13 73.01 L 573.05 74.20 L 573.60 75.04 L 575.53 77.33 L 576.08 78.16 L 576.66 79.54 L 578.28 84.26 L 578.64 87.24 L 578.71 89.73 L 578.90 90.72 L 578.86 96.73 L 578.67 97.70 L 578.16 99.62 L 578.09 100.11 L 578.05 101.65 L 577.55 104.60 L 577.47 106.08 L 577.28 107.04 L 577.10 108.54 L 576.19 112.46 L 576.03 112.95 L 575.93 113.45 L 575.93 116.41 L 576.03 116.90 L 576.83 118.74 L 576.97 119.22 L 577.06 120.69 L 577.28 121.69 L 577.33 122.18 L 578.02 124.59 L 578.09 125.08 L 578.04 134.06 L 577.24 140.06 L 577.05 141.00 L 577.00 141.49 L 576.97 147.00 L 576.73 148.49 L 576.70 150.98 L 576.64 151.46 L 576.47 151.94 L 575.99 152.77 L 574.69 155.50 L 574.44 155.94 L 574.14 156.32 L 573.74 156.72 L 573.37 157.00 L 573.13 157.37 L 573.04 157.86 L 572.83 158.35 L 571.65 159.93 L 569.49 162.04 L 567.55 163.61 L 566.51 164.68 L 565.31 165.62 L 564.02 166.35 L 561.18 167.24 L 559.20 167.49 L 557.74 167.85 L 556.29 168.37 L 554.38 168.68 L 551.88 168.76 L 550.90 168.94 L 549.87 168.98 L 540.89 168.92 L 536.42 168.43 L 522.41 168.49 L 518.98 169.32 L 516.64 170.07 L 515.64 170.20 L 514.19 170.56 L 512.69 170.73 L 510.74 171.13 L 507.71 171.44 L 505.24 171.47 L 504.76 171.52 L 498.86 172.68 L 497.36 172.77 L 496.34 172.69 L 494.41 172.38 L 491.51 171.58 L 490.56 171.43 L 481.05 170.55 L 480.10 170.37 L 475.09 170.27 L 472.10 169.81 L 470.12 169.73 L 466.17 169.25 L 460.65 169.17 L 458.67 168.97 L 456.67 168.88 L 455.68 168.72 L 435.19 168.74 L 430.77 169.24 L 427.72 169.33 L 425.72 169.52 L 421.26 169.57 L 419.24 169.80 L 416.25 169.94 L 409.29 170.59 L 407.78 170.47 L 405.33 170.16 L 402.84 169.57 L 401.88 169.52 L 372.38 169.57 L 370.40 169.79 L 367.37 169.87 L 362.41 170.33 L 353.89 170.29 L 351.91 170.08 L 349.44 170.11 L 344.98 170.60 L 342.44 170.55 L 340.00 170.10 L 339.03 169.79 L 336.33 168.52 L 335.39 168.21 L 333.92 167.94 L 332.91 167.88 L 326.40 167.93 L 324.41 168.14 L 317.93 168.22 L 315.91 168.42 L 313.95 168.48 L 312.48 168.70 L 310.95 168.82 L 303.52 169.69 L 301.57 170.21 L 295.65 170.88 L 292.13 170.92 L 287.67 171.43 L 268.15 171.38 L 266.66 171.17 L 264.65 171.09 L 263.73 170.92 L 259.67 170.81 L 257.72 170.59 L 256.19 170.49 L 255.19 170.35 L 253.22 170.27 L 251.74 170.05 L 250.75 169.97 L 247.77 169.60 L 243.38 168.70 L 242.32 168.63 L 241.40 168.46 L 238.88 168.32 L 237.91 168.17 L 234.90 168.04 L 233.40 167.88 L 227.44 167.93 L 225.43 168.14 L 221.45 168.25 L 219.89 168.42 L 216.48 168.47 L 213.45 168.97 L 211.50 169.13 L 208.49 169.54 L 207.03 169.66 L 204.58 170.22 L 201.65 171.00 L 196.72 171.96 L 194.79 172.17 L 188.41 173.38 L 182.43 173.91 L 178.97 174.00 L 176.95 174.18 L 165.97 174.12 L 161.95 173.64 L 158.93 173.56 L 151.59 172.29 L 146.11 171.84 L 144.16 171.42 L 140.85 170.26 L 136.37 169.55 L 134.42 169.40 L 131.95 169.09 L 130.49 168.78 L 129.51 168.70 L 122.97 168.73 L 115.05 169.79 L 112.53 169.86 L 110.13 170.35 L 108.19 170.97 L 107.24 171.15 L 105.74 171.26 L 103.75 171.64 L 99.40 172.81 L 97.51 173.42 L 96.01 173.65 L 93.56 173.89 L 86.54 173.85 L 85.04 173.61 L 84.11 173.33 L 81.36 172.12 L 77.08 170.77 L 75.22 169.98 L 72.82 169.33 L 68.37 168.77 L 65.42 168.14 L 64.46 167.83 L 63.53 167.46 L 62.11 167.10 L 60.59 166.91 L 60.12 166.80 L 57.64 166.51 L 55.17 166.56 L 53.17 166.80 L 51.63 166.92 L 49.68 167.29 L 47.72 167.39 L 46.74 167.58 L 44.73 167.67 L 40.30 168.60 L 39.33 168.88 L 38.84 168.96 L 36.43 169.04 L 31.45 170.01 L 26.99 170.14 L 25.46 170.32 L 24.48 170.30 L 23.48 170.15 L 23.03 169.97 L 22.22 169.38 L 21.49 168.65 L 20.89 167.89 L 20.15 167.18 L 19.76 166.91 L 19.34 166.70 L 17.90 166.23 L 17.43 166.03 L 17.01 165.77 L 16.63 165.43 L 15.99 164.64 L 15.49 163.81 L 14.44 161.52 L 14.11 160.58 L 12.71 157.95 L 11.99 156.04 L 10.91 151.71 L 10.69 150.24 L 10.61 146.19 L 10.40 144.23 L 10.44 140.23 L 11.58 129.81 L 11.92 127.34 L 13.04 122.45 L 13.25 119.46 L 13.40 118.47 L 13.38 107.48 L 13.14 105.50 L 13.07 103.02 L 11.66 95.62 L 11.08 93.72 L 10.62 91.76 L 10.09 90.37 L 9.35 87.46 L 9.32 84.47 L 9.40 83.45 L 10.32 80.10 L 10.83 78.70 L 12.03 72.79 L 12.17 71.33 L 13.62 63.95 L 13.68 62.96 L 13.62 54.97 L 13.21 51.49 L 11.53 42.66 L 11.41 37.63 L 11.24 36.67 L 10.96 33.67 L 11.02 30.15 L 11.15 29.18 L 11.76 26.23 L 11.88 25.27 L 12.67 22.90 L 13.61 21.11 L 15.59 18.25 L 17.20 16.36 L 18.35 15.35 L 19.57 14.49 L 21.42 13.76 L 21.92 13.68 L 26.45 13.73 L 27.89 13.95 L 32.40 14.00 L 33.39 14.18 L 34.84 14.65 L 36.65 15.33 L 37.62 15.52 L 39.08 16.03 L 41.01 16.54 L 42.41 17.05 L 44.41 17.45 L 45.38 17.51 L 51.88 17.47 L 52.87 17.36 L 55.36 16.94 L 56.32 16.85 L 57.31 16.60 L 59.12 15.82 L 61.32 14.57 L 64.11 13.51 L 71.42 11.80 L 74.89 11.69 L 76.88 11.49 L 82.36 11.44 L 83.39 11.26 L 84.38 11.21 L 91.91 11.28 L 95.33 11.80 L 96.32 11.89 L 99.78 12.49 L 116.21 13.92 L 129.22 14.50 L 137.73 14.41 L 141.68 13.92 L 146.53 12.84 L 152.02 12.11 L 159.80 10.55 L 164.34 10.12 L 181.29 10.19 L 183.81 10.40 L 186.31 10.45 L 191.29 10.89 L 199.70 12.26 L 202.07 12.99 L 203.92 13.66 L 208.37 14.37 L 212.86 14.77 L 224.95 14.85 L 226.36 15.04 L 245.34 14.98 L 247.34 14.77 L 252.28 14.71 L 253.82 14.52 L 258.34 14.46 L 258.81 14.39 L 263.93 12.37 L 265.86 11.85 L 268.82 11.47 L 272.82 11.20 L 275.35 11.12 L 277.88 10.57 L 277.86 10.49 L 278.08 10.06 L 278.53 9.72 L 278.97 9.60 L 279.48 9.61 L 279.96 9.68 L 280.69 9.99 L 282.14 9.58 L 282.58 9.54 L 283.07 9.33 Z"/></svg>