<svg preserveAspectRatio="none" xmlns="http://www.w3.org/2000/svg" version="1.1" viewBox="8.30 8.30 571.61 166.88" width="571.61" height="166.88"><path d="m287.574 9.3-4.22.01q.07.01.14.03.06.02.12.05.06.03.12.08.05.04.09.09.05.06.08.12t.05.12q.02.07.03.14.01 8.63 0 .12-.01.07-.03.14-.02.06-.05.12-.03.06-.08.12-.04.05-.09.09-.06.05-.12.08t-.12.05q-.07.02-.14.03-4.34.01-.06-.02.01-.02-.08.08-.11.1-.36.15-.25.06-.45.05-.21 0-.44.1-.22.1-.73.24-.5.13-.96.28-.47.14-.89.17-.43.03-.93.14-.49.11-1.03.24-.55.13-1.24.28-.69.14-1.51.17-.82.03-1.73.03-.91.01-1.75.12t-1.77.13q-.94.02-1.75.13-.82.11-1.51.24-.69.13-1.45.36-.76.23-1.56.6t-1.52.68q-.73.3-1.21.47-.48.17-.95.33-.47.15-.94.19-.47.03-1.11.04-.64.01-1.43.01h-1.46q-.68 0-1.36.1-.68.11-1.17.14-.49.02-.92.03h-3.43q-.66 0-1.33.11-.68.11-1.39.13-.71.02-1.4.03h-1.27q-.57.01-1.13.01h-13.41q-.56 0-1.14-.01-.59 0-1.14-.11-.55-.11-1.39-.13-.85-.02-1.89-.02-1.05-.01-2.14-.01h-7.29q-.82 0-1.88-.11-1.05-.11-2.14-.24-1.09-.14-2.08-.27-.99-.14-1.88-.28-.89-.15-1.64-.4-.75-.26-1.44-.53-.68-.26-1.55-.53-.87-.26-1.9-.42-1.03-.16-2.01-.3l-1.95-.28q-.97-.14-1.71-.28-.74-.13-1.52-.27-.78-.13-1.7-.16-.92-.02-1.87-.14-.95-.11-1.89-.14-.94-.02-1.81-.02-.86-.01-1.69-.12-.84-.11-1.53-.13-.69-.02-1.37-.03h-14.42q-.9 0-1.94.1-1.04.11-2.22.24-1.17.13-2.17.37-.99.24-1.86.4-.87.17-1.69.31-.82.13-1.87.38-1.05.25-2.26.41-1.22.17-2.54.31-1.33.14-2.55.38-1.22.24-2.14.51-.91.27-2 .44-1.08.17-2.3.31-1.23.15-2.58.17-1.35.03-2.61.04-1.26.01-2.28.01h-2.11q-1.1 0-2.3-.11-1.2-.11-2.65-.13-1.44-.03-2.72-.14-1.28-.11-2.39-.14-1.12-.02-2.24-.02-1.11-.01-2.23-.12l-2.43-.24q-1.31-.14-2.44-.27-1.13-.14-2.02-.16-.89-.03-1.62-.15-.72-.11-1.52-.13-.79-.03-1.72-.14-.93-.11-1.88-.14-.95-.02-1.93-.14-.99-.11-1.74-.25-.76-.13-1.33-.27-.56-.13-1.11-.16-.55-.02-1.12-.14-.57-.12-1.31-.25-.74-.13-1.63-.15-.89-.02-1.73-.03-.83-.01-1.55-.01h-3.9q-.43 0-.95.11t-.99.13q-.47.02-1 .03h-1.19q-.65.01-1.33.01t-1.45-.01q-.76 0-1.46.11t-1.42.14q-.71.02-1.18.02-.48.01-.97.01-.5 0-1.01.1-.5.1-1.05.23-.54.13-1.21.27-.66.14-1.33.27-.67.14-1.55.38t-1.71.5q-.82.27-1.5.53t-1.34.62q-.66.37-1.15.68-.49.3-.93.48-.44.18-.98.44-.55.26-1.27.44-.71.17-1.29.21-.58.03-1.22.14l-1.34.25q-.71.14-1.42.17-.72.03-1.41.03-.69.01-1.27.01h-4.07q-.47 0-1.14-.12-.66-.11-1.38-.25-.71-.14-1.3-.39-.59-.25-1.11-.4-.52-.15-1.2-.3-.68-.15-1.23-.39-.55-.24-.99-.29-.44-.05-.78-.18t-.74-.26q-.4-.14-.7-.28-.3-.13-.66-.26-.36-.13-.83-.25-.47-.13-.86-.15-.39-.03-.9-.03-.51-.01-1.05-.01h-2.23q-.59 0-1.03-.12-.45-.11-.93-.12-.49-.02-1.13-.03h-2.2q-.28 0-.6-.01-.32 0-.54.08-.23.09-.51.22-.28.14-.62.25-.35.12-.6.34-.26.22-.64.48t-.74.61q-.37.34-.66.74-.3.39-.68.8-.39.41-.67.8-.28.39-.56.79l-.54.82q-.28.41-.54.8-.27.4-.52.88-.26.49-.41.89-.16.41-.3.82-.14.41-.26.78-.13.36-.15.76-.03.39-.15.93-.12.55-.25 1.19l-.26 1.3q-.13.65-.16 1.41-.02.76-.03 1.46 0 .7-.01 1.25 0 .55.11 1.21.11.65.13 1.22.02.56.14 1.11.11.56.13 1.25.03.69.03 1.27.01.57.01 1.13v1.18q0 .62.1 1.16.11.53.24 1.19.13.66.27 1.35.13.68.27 1.48.14.79.27 1.49l.28 1.39q.13.69.27 1.4t.17 1.41q.03.69.15 1.37.11.69.14 1.4.02.71.03 1.29v6.18q0 .71-.11 1.42-.12.71-.25 1.52-.13.8-.27 1.41-.14.6-.27 1.26-.14.66-.28 1.35-.13.69-.27 1.24-.13.55-.16 1.09-.02.54-.14 1.23-.12.69-.25 1.26-.14.58-.27 1.23-.14.66-.28 1.34-.13.68-.28 1.4-.14.72-.39 1.31-.26.58-.41 1.11-.15.53-.29 1.08-.14.55-.27.96-.13.4-.15.88-.03.47-.03 1.01-.01.53-.01.97v.8q-.01.37.1.74.1.37.23.9.13.52.26 1.03t.37 1.06q.25.55.42 1.24.17.7.3 1.36.14.66.39 1.34.25.69.41 1.51.17.83.31 1.64.14.82.28 1.53.13.7.27 1.39t.28 1.4q.14.71.17 1.32.03.61.04 1.06v.95q0 .49.11 1.03.11.53.13 1.11.03.58.03 1.14.01.55.01 1.21v8.42q-.01.58-.12 1.13-.11.56-.13 1.07l-.02 1.09q-.01.58-.12 1.17-.12.58-.25 1.14-.14.55-.27 1.1-.14.54-.27 1.19-.14.66-.27 1.2-.13.55-.16 1.09-.03.55-.14 1.1-.12.54-.14 1.09-.02.54-.14 1.19-.11.66-.13 1.23-.02.57-.14 1.23-.11.66-.14 1.35-.02.68-.13 1.25-.12.58-.14 1.24-.02.66-.14 1.24-.11.57-.13 1.09-.02.52-.03.95v2.02q0 .55-.01.95 0 .41.11 1.04.11.63.14 1.44.02.82.02 1.53.01.71.01 1.36 0 .66.1 1.2.1.53.23 1.07.13.53.26.97.14.45.28 1.09.14.65.27 1.19.13.54.36 1.17.24.62.49 1.16.26.54.53.98.26.44.56 1 .29.57.46 1.12.17.55.41 1.07.24.52.5 1.05t.5.93q.25.39.55.73.3.34.72.49.43.15 1 .31.57.15 1.07.44.51.29.98.72.47.42.78.84.31.41.67.79.35.37.65.61.31.23.72.27.42.04.91.05.49.01 1.14-.1.64-.1 1.24-.12.6-.03 1.49-.03.88-.01 1.47-.01t1.23-.1q.64-.11 1.42-.24.78-.13 1.37-.26.58-.13 1.16-.28.58-.14.95-.17t.89-.04h1q.49.01 1.11-.21.62-.21 1.43-.37.81-.16 1.51-.29.7-.14 1.31-.29.6-.14 1.19-.17.6-.03 1.11-.03.52 0 .95-.11.43-.11.88-.14.46-.03.96-.03.49 0 1-.11.51-.1 1.2-.24.68-.13 1.48-.16.79-.03 1.5-.14.7-.12 1.31-.14.6-.03 1.16-.03.56-.01 1.15-.01.58 0 1.14.12.56.11 1.01.13.45.02.86.14.42.11.94.13.52.03.99.15.46.12 1.02.26.55.14 1.09.38.54.25 1.16.4.62.15 1.29.29.68.14 1.33.27.66.13 1.23.16t1.23.14q.67.12 1.13.14.47.02 1.04.15.58.12 1.02.25.44.14.99.28.54.14 1.11.4.56.25 1.19.51.62.26 1.3.42.67.16 1.36.41.69.26 1.28.42.58.16 1.17.43.58.26 1.12.53.53.26.93.41.4.15.98.28.59.13 1.22.16.64.02 1.32.03h3.31q.84 0 1.53.01.69 0 1.37-.11.69-.11 1.26-.13.57-.02 1.18-.13.62-.1 1.27-.34.65-.23 1.47-.5.81-.28 1.97-.55 1.15-.28 1.83-.45.68-.16 1.5-.31.83-.15 1.53-.18.7-.02 1.23-.13.53-.1 1.18-.34.65-.24 1.24-.41.6-.16 1.3-.31.7-.15 1.53-.18.82-.03 1.62-.03.8-.01 1.59-.12.79-.1 1.61-.23.81-.13 1.54-.27t1.31-.17q.58-.03 1.13-.14.56-.12 1.25-.14.7-.03 1.49-.03.8-.01 1.61-.01h3.31q.85 0 1.5.12.64.12 1.17.24.54.13 1.08.16.54.02 1.19.14.66.11 1.33.13.67.02 1.6.14.92.12 1.77.25.85.14 1.59.28.75.14 1.47.4.72.25 1.4.52.67.26 1.22.42.54.15 1.27.29.73.13 1.54.16.8.03 1.62.14.82.12 1.64.14.82.02 1.67.14.85.12 1.57.25.72.14 1.41.27l1.38.28q.69.13 1.34.26.66.14 1.53.16.87.03 1.72.03.86.01 1.82.12.96.12 1.79.25.83.13 1.52.15.69.03 1.26.03.58.01 1.13.01h7.76q.82 0 1.64-.11t1.55-.13q.74-.02 1.32-.03h1.23q.64 0 1.43-.11.78-.11 1.6-.13.82-.03 1.73-.14.91-.11 1.86-.24.94-.13 1.77-.26.82-.14 1.31-.27.49-.14 1.15-.28.66-.14 1.37-.28.7-.14 1.38-.16.67-.03 1.55-.25t1.73-.38q.85-.16 1.67-.29.81-.14 1.72-.38.91-.24 1.42-.4.52-.16 1.08-.31t1.36-.29q.81-.14 1.51-.17.71-.03 1.49-.14.77-.11 1.61-.25.83-.13 1.55-.16.71-.03 1.48-.14.77-.11 1.38-.24.61-.14.98-.17t.78-.03q.41-.01 1.04-.01h1.17q.54 0 1.3-.11.77-.11 1.49-.13.73-.02 1.42-.03h1.35q.66 0 1.34-.11t1.28-.13q.6-.03 1.16-.03.56-.01 1.22-.01h3.35q.67 0 1.35.11t1.33.13q.66.02 1.37.03.71.01 1.29.12.58.11 1.1.13.53.02 1.11.02.59.01 1.03.12.44.11 1.07.13.63.03 1.22.14.59.12 1.26.26.67.13 1.24.27.57.13 1.2.26t1.3.16q.68.03 1.26.14.57.12 1.13.14.55.02 1.1.14.55.11 1.06.13.52.02 1.08.03.57.01 1.23.12.67.11 1.45.13.79.02 1.5.13.7.12 1.47.14.77.02 1.37.03h1.3q.7.01 1.17.12t.96.13q.49.02 1.07.02.57.01 1.12.12.55.11 1.07.13.51.02 1.27.02.76.01 1.46.01h16.02q.55 0 1.09-.11.55-.1 1.1-.13.56-.02 1.22-.13.65-.12 1.36-.14.71-.03 1.51-.03.8-.01 1.59 0 .79 0 1.49-.11.71-.11 1.28-.13.57-.03 1.12-.14.56-.11 1.11-.14.54-.02 1.05-.12.5-.11 1.29-.36.79-.24 1.63-.3.84-.05 1.64-.17.8-.11 1.64-.25.84-.13 1.66-.16t1.42-.14q.6-.12 1.27-.14.67-.02 1.24-.14.57-.11 1.15-.14.59-.02 1.23-.02.64-.01 1.43-.12.78-.11 1.62-.13.84-.02 1.66-.03h1.54q.71-.01 1.29-.01.58 0 1.11.01.52 0 1.18-.11.65-.11 1.47-.14.81-.02 1.53-.02.71-.01 1.5-.01h3.18q.74 0 1.46.12.73.11 1.35.26.62.14 1.21.4t1.15.53q.56.27 1.07.53t1.13.41q.61.15 1.26.29.64.13 1.4.16.76.02 1.54.03.78.01 1.49-.1.7-.11 1.27-.13.57-.02 1.13-.13.55-.12 1.13-.14.58-.03 1.03-.03.44-.01 1.11-.01.67 0 1.34.11.68.11 1.45.13.77.02 1.47.03h5.04q.44 0 1.05.01.61 0 1.28-.11t1.46-.13q.8-.03 1.62-.14.81-.11 1.77-.14.95-.02 1.66-.02.71-.01 1.4-.12t1.4-.13q.72-.03 1.41-.03t1.48-.01h25.36q.69 0 1.42.01.73 0 1.56.23.83.22 1.5.37.67.14 1.24.17t1.23.15q.67.11 1.29.14.62.02 1.29-.09.68-.1 1.36-.12.68-.02 1.37-.13.68-.12 1.37-.14.69-.02 1.48-.14.8-.11 1.64-.14.84-.02 1.41-.02.58-.01 1.24-.12.67-.11 1.27-.13.6-.03 1.26-.03.67 0 1.35-.01h1.34q.66.01 1.45-.1.79-.11 1.63-.14.84-.02 1.63-.02.8-.01 1.39-.12.6-.1 1.16-.13.56-.02 1.22-.13.66-.12 1.37-.14.71-.03 1.4-.03.69-.01 1.48-.01h17.1q.59.01 1.15.12.55.11 1.07.13.51.01 1.19.02.68.01 1.36.12.69.11 1.34.13.66.02 1.45.02.79.01 1.6.01h1.56q.74 0 1.33.11.59.11 1.14.14.56.02 1.11.13.55.12 1.06.14.52.02 1.09.02.57.01 1.26.12.69.12 1.34.25.66.12 1.31.15.65.02 1.33.03h1.36q.68 0 1.3.01.62 0 1.07.11.45.11.96.13.52.02 1.17.14.65.11 1.33.13.68.02 1.36.14.68.11 1.47.14.79.02 1.61.13.81.12 1.53.14.72.02 1.34.14.62.12 1.19.26t1.02.28q.46.14.83.26.38.13.77.15.4.03.91.14.52.12 1.11.14.59.02 1.34-.08.76-.1 1.56-.23t1.39-.26q.59-.14 1.25-.27.66-.14 1.14-.28.49-.14.96-.17.47-.04.89-.04.42-.01.84-.01h.79q.38 0 1.01-.11.62-.11 1.29-.13.67-.02 1.21-.13.54-.1 1.12-.24.57-.14 1.12-.16.54-.03.95-.14.4-.11.96-.25.56-.13.97-.16.42-.02.68-.12.26-.1.66-.24l.81-.27q.42-.14.95-.28t1.08-.28q.54-.14 1.12-.28.58-.15 1.17-.18t1.04-.03q.44-.01.97-.01h11.6q.87 0 1.6.11.72.11 1.31.13.59.03 1.15.14.55.11.96.13.4.02 1.03.03h1.41q.78.01 1.49.01h5.11q.51 0 .94-.11.43-.11.89-.13.46-.03.88-.03.42-.01.9 0 .47 0 .9-.11.42-.11.81-.13.39-.01.87-.23.49-.21 1.06-.37.58-.17 1.27-.31.7-.15 1.26-.18t.94-.13q.38-.1.72-.24.33-.14.58-.15.25-.02.41-.13.17-.12.42-.14.25-.02.35-.11.1-.08.37-.23.27-.14.51-.26.23-.11.48-.34.25-.23.61-.48.36-.25.65-.63.29-.37.7-.69.41-.31.71-.59.3-.29.69-.56.39-.28.67-.53l.55-.53.54-.54q.28-.27.52-.51.25-.25.41-.51.16-.27.41-.54.25-.28.36-.45.11-.18.13-.43.03-.25.21-.66.19-.41.48-.62.29-.22.51-.42.21-.2.34-.42.13-.22.27-.48t.27-.53l.28-.54q.13-.28.26-.53.13-.26.28-.67.15-.41.3-.62.15-.2.25-.38.09-.17.11-.36.01-.19.01-.55.01-.37.01-.66v-.57q0-.28.01-.71 0-.43.11-.84.11-.42.13-.78.02-.37.02-.88v-1.05q.01-.54.01-.98v-2.31q0-.59.11-1.18l.25-1.22q.12-.63.15-1.3.02-.67.14-1.38l.25-1.48q.13-.77.15-1.45.03-.68.03-1.36.01-.68.01-1.26v-5.71q.01-.34-.09-.69-.1-.36-.23-.76t-.27-.85q-.15-.45-.18-.87t-.14-.83q-.12-.41-.14-.87-.03-.46-.03-.79.01-.34-.19-.69-.2-.35-.36-.77-.15-.42-.31-.77-.16-.35-.2-.81-.03-.46-.04-.88-.01-.42-.01-.94t.01-1.12q0-.6.23-1.3.22-.69.37-1.35.15-.66.29-1.34.14-.69.28-1.24.13-.55.16-1.1.02-.56.14-1 .11-.44.13-.81.02-.38.03-.82.01-.45.12-.87t.13-.83q.03-.41.14-.82.11-.41.13-.89.02-.47.03-1.05 0-.58.12-1.05.12-.48.26-1.02.13-.53.26-.93t.15-.88q.02-.47.02-.9.01-.42.01-.84v-2.91q0-.3.01-.64 0-.34-.11-.74-.11-.39-.13-.85-.03-.45-.03-.98-.01-.53-.01-1.04t-.11-1.05q-.11-.54-.12-1.17-.02-.62-.23-1.15-.21-.53-.37-1.08-.15-.54-.4-1.09-.25-.54-.41-1.11-.17-.57-.3-.98-.13-.41-.35-.87-.21-.47-.57-.87-.35-.4-.75-.92t-.83-.97q-.42-.46-.72-.98-.31-.53-.7-.97-.39-.43-.72-1.01-.32-.58-.51-1.04-.18-.47-.33-.9-.15-.43-.3-1-.14-.57-.18-1.04-.03-.48-.03-1.02-.01-.53-.01-1.11 0-.58.12-1.19t.36-1.26q.24-.66.4-1.45.16-.78.41-1.5.26-.72.41-1.28.15-.55.29-1.21.15-.66.28-1.2.13-.54.16-1.1t.14-1q.12-.44.14-.85.02-.4.14-.96.12-.55.25-1.1.14-.55.27-1.09.14-.55.28-1.12.14-.56.4-1.25t.52-1.25q.27-.56.42-1.08.15-.52.29-1.03.13-.51.16-1.05t.14-1.08q.12-.55.14-1.2.02-.66.14-1.26.12-.61.25-1.13.13-.53.15-1.07.03-.55.15-1.13.12-.58.25-1.1.12-.52.15-1.07t.14-.99q.12-.44.14-.81.02-.38.02-.78.01-.4.01-.75t.11-.74q.12-.4.14-.81.02-.4.13-.81.12-.41.14-.78l.02-.77v-1.63q.01-.41.01-.82v-.66q0-.25-.11-.63-.1-.38-.12-.65-.02-.28-.13-.56-.12-.27-.14-.55-.02-.27-.11-.48-.1-.22-.23-.48-.12-.26-.26-.54-.13-.27-.22-.47-.08-.2-.32-.35-.23-.15-.39-.4t-.37-.38q-.22-.13-.52-.4l-.57-.55q-.28-.27-.5-.51-.23-.23-.57-.37-.35-.14-.77-.4-.42-.26-.75-.44-.32-.18-.64-.46t-.58-.54q-.26-.25-.6-.5-.35-.24-.64-.4-.29-.16-.71-.44-.42-.27-.71-.54-.29-.26-.57-.43-.28-.16-.53-.4-.26-.24-.6-.37-.34-.14-.64-.28-.31-.15-.57-.28-.26-.13-.64-.27-.38-.13-.68-.27-.29-.14-.62-.25-.33-.12-.71-.15-.39-.02-.94-.14-.56-.13-.97-.25-.4-.13-.88-.15-.47-.02-1.11-.03h-5.28q-.41 0-.78-.01-.36 0-.76.11t-.7.13q-.3.02-.64.12-.35.11-.75.24t-.82.27q-.42.13-.95.28-.54.14-1.04.26-.49.12-.92.36-.43.25-1 .42-.57.18-1.15.32-.58.15-.88.18-.31.02-.55.12-.25.11-.62.24-.38.13-.72.28-.33.14-.63.18-.31.03-.65.14-.35.1-.76.24-.41.13-.94.27t-1.08.28q-.54.13-1.08.27-.54.13-1.01.28-.46.14-.89.17-.44.03-.96.14-.52.12-.99.15-.47.02-1.01.03h-.92q-.39 0-.8.11-.4.1-.86.13-.45.03-.76.03t-.7.01h-3.64q-.57-.01-1.23-.12t-1.21-.13q-.54-.02-1.23-.02-.68-.01-1.26-.12t-1.13-.13q-.56-.02-1.11-.14-.54-.11-1.09-.14-.55-.02-1.12-.14-.58-.12-1.23-.25t-1.46-.27q-.8-.14-1.62-.38-.82-.25-1.62-.41-.81-.15-1.52-.29-.72-.15-1.34-.29-.62-.15-1.18-.4-.56-.25-1.1-.41-.53-.15-1.29-.4-.77-.25-1.33-.4-.57-.16-1.34-.3-.77-.14-1.34-.27-.57-.13-1.23-.16t-1.28-.15q-.61-.12-1.03-.25-.42-.13-.83-.15-.4-.03-.92-.14-.52-.12-.96-.14-.44-.02-.86-.14-.41-.11-.89-.13-.47-.02-.97-.03-.5 0-1.04.11-.54.1-1.2.13-.66.02-1.19.13-.54.1-1.04.22-.49.12-.91.35-.42.24-.85.4-.42.17-.95.42-.52.25-.96.41-.43.16-.74.3-.31.14-.75.3-.45.16-.76.19-.3.02-.7.14-.39.12-.92.14-.53.03-1.04.14-.51.1-1.05.24l-1.12.27q-.58.14-1.12.17-.55.02-.99.14-.43.11-.89.14-.46.03-.71.03-.24-.01-.52.1-.27.11-.72.14-.44.03-.75.04h-6.45q-.51 0-1.05.11t-1.01.13q-.47.03-.9.03-.42.01-.83.01h-3.36q-.48-.01-.9.1-.42.11-.88.13-.46.03-1.1.04h-4.32q-.57 0-1.01-.11-.44-.12-.86-.14-.42-.02-.84-.13-.41-.12-.72-.14-.3-.03-.73-.15t-.8-.25q-.37-.12-.76-.14-.39-.03-.95-.15-.56-.12-1-.26-.44-.13-.93-.26-.48-.13-.92-.15-.43-.03-.85-.15-.41-.11-.82-.13-.42-.03-.83-.14-.41-.11-.77-.13-.37-.02-.66-.03h-.68q-.39 0-.75-.01-.36 0-.65-.12-.29-.11-.61-.12-.32-.02-.61-.02-.28 0-.67-.01h-3.46q-.39 0-.9.11-.52.11-.99.13-.47.03-.84.03-.38 0-.79.11-.4.11-.81.13-.41.02-.78.12-.36.11-.8.25-.45.14-.76.17-.32.03-.78.13-.46.11-.92.25t-1 .17q-.54.03-1.05.14-.51.11-1.05.24l-1.12.27q-.58.14-1.13.17-.56.03-1.11.14-.54.12-.97.14-.43.02-.78.12-.36.1-.69.24-.34.14-.75.17-.42.04-.82.15-.41.12-.83.14-.42.03-.94.14-.52.11-.99.14-.47.03-.98.03-.5 0-1.15.11-.65.11-1.24.14-.6.02-1.16.02-.56.01-1 .01h-1.01q-.57 0-1.05-.12-.49-.12-.9-.26-.42-.13-.9-.25-.48-.13-.98-.15-.5-.03-1.03-.03-.54-.01-1.2-.01h-1.36q-.72 0-1.3-.11-.58-.11-1.14-.14-.57-.02-1.01-.13-.44-.12-.92-.14-.48-.02-.95-.02-.48-.01-.94-.13-.47-.12-.85-.25-.38-.12-.74-.14-.35-.02-.8-.03-.45-.01-.86-.12-.42-.11-.93-.13-.51-.02-1.05-.14-.54-.11-1.09-.13-.55-.03-1.14-.15-.59-.12-1.03-.26-.45-.13-.94-.26-.48-.13-.93-.16-.46-.03-.76-.14-.31-.12-.68-.14-.38-.02-.78-.13-.41-.12-.77-.13-.37-.02-.91-.03-.55 0-1.09-.12-.55-.11-1.07-.13-.51-.02-1.16-.02-.65 0-1.22-.01h-10.13q-.51 0-1.05.11t-1.09.13q-.54.02-1.05.13-.5.1-.93.23-.43.13-.95.27-.53.13-.92.25-.38.12-.79.37-.4.24-.86.41-.46.18-.99.32-.53.15-.99.29-.47.15-.9.18-.43.03-.96.15-.52.11-1.07.14-.55.02-1.21.13-.66.12-1.25.14-.6.03-1.05.03-.45.01-.87.01h-7.44q-.45 0-.98-.11-.52-.12-.97-.14-.44-.02-.9-.15-.46-.12-.88-.26-.42-.13-.79-.26-.37-.12-.73-.14-.36-.02-.71-.03-.36-.02-.65-.13-.29-.11-.5-.13-.21-.01-.58-.01-.37-.01-.71-.01-.34-.01-.74-.12-.4-.11-.76-.13l-.76-.02h-.84q-.45-.01-.98-.12t-.98-.13q-.46-.03-.77-.15-.31-.11-.7-.13-.39-.03-.69-.14-.29-.11-.68-.14-.39-.02-.75-.15-.36-.14-.6-.26-.23-.11-.5-.14-.26-.02-.6-.16-.33-.13-.55-.25-.23-.11-.49-.13-.27-.03-.53-.14-.27-.12-.59-.13-.31-.01-.71-.02h-3q-.4 0-.77-.01-.36 0-.73.1t-.88.23q-.51.13-.92.26-.4.12-.68.25t-.62.28q-.33.16-.68.2-.35.04-.75.05h-5.71q-.32 0-.72-.11-.4-.11-.7-.14-.29-.02-.68-.13-.39-.12-.7-.14-.32-.03-.59-.14-.28-.12-.69-.15-.41-.03-.6-.14-.19-.12-.43-.13-.23-.02-.5-.13-.27-.12-.54-.14-.27-.02-.54-.14-.28-.11-.59-.14-.31-.04-.47-.15-.17-.12-.42-.14-.26-.02-.42-.14-.16-.11-.37-.12-.21-.02-.48-.13-.26-.11-.58-.12-.3-.02-.7-.02-.39-.01-.76-.01-.36-.01-.65-.12-.29-.12-.61-.15-.31-.03-.54-.18-.23-.14-.4-.24-.17-.09-.36-.11-.19-.01-.34-.03-.16-.02-.08-.16.08-.15.15-.22.06-.06.08.01l.02.13q0 .07-.01.14t-.04.13q-.02.07-.06.13-.03.05-.08.1-.04.05-.1.09-.06.05-.12.07-.06.03-.13.05l-.13.02q-.07 0-.14-.01t-.13-.04q-.06-.02-.12-.06-.06-.03-.11-.08-.05-.04-.09-.1-.04-.06-.07-.12-.03-.06-.05-.13-.01-.06-.01-.13-.01-.07 0-.14t.04-.13q.02-.07.06-.12.03-.06.08-.11t.1-.09q.06-.04.12-.07.06-.03.13-.05l.13-.02q.07 0 .14.01t.13.04q.07.02.13.06.05.03.1.08.06.05.1.1.04.06.06.12.03.06.05.13l.02.13q0 .07-.01.14t-.04.13q-.02.07-.06.13-.03.05-.08.1-.04.05-.1.09-.06.05-.12.07-.06.03-.13.05l-.13.02q-.07 0-.14-.01t-.13-.04q-.06-.02-.12-.06-.06-.03-.11-.08-.05-.04-.09-.1-.04-.06-.16-.44-.11-.39.29-.75.41-.36.8-.37.39-.01.74.03t.68.21q.34.16.44.24.1.09.34.1.23.01.5.12.26.1.5.1.24-.01.65 0 .42 0 .86.03.45.04.72.15.28.12.56.15.29.03.45.15.16.11.41.14.25.02.41.13.17.11.41.13.23.01.51.12.27.12.55.14.27.02.54.14.27.11.55.14.28.03.47.14.18.12.53.13.36.02.64.13.28.12.56.14.28.02.67.13t.68.13q.3.03.67.13.37.11.6.11.23-.01.53-.01h5.03q.37-.01.57-.02.2-.02.43-.13.22-.12.55-.27.33-.15.79-.29.47-.15.99-.28.53-.13.98-.25.46-.12.91-.12h3.89q.42.01.87.04t.73.15q.28.11.56.14.28.03.6.18.33.15.54.25.22.09.5.12t.61.18l.55.24q.24.09.62.11.39.03.69.14.3.12.68.14.39.02.7.13.3.12.71.14.4.01.92.12.51.11.88.11h.8q.42.01.87.03.45.03.83.14.38.11.63.11.25-.01.65 0 .39 0 .73.03.34.03.61.14.27.11.52.11.24 0 .71.03.46.04.91.18.45.15.86.28.4.13.77.23.37.11.79.13.43.02.94.12.51.11.88.11h7.37q.41 0 .85-.01.43 0 .98-.02.54-.02 1.19-.14.66-.11 1.19-.13.54-.03 1.05-.14.52-.11.92-.14.4-.02.8-.15t.91-.27q.51-.14.88-.28.36-.14.79-.39.43-.25.91-.41.48-.15 1-.29.53-.14.98-.27.44-.13 1.03-.26.6-.12 1.14-.14.55-.02 1.11-.13.55-.11 1.13-.11.58-.01 1.1-.01h9.11q.57.01 1.23.01.67 0 1.25.03.58.02 1.11.13.54.11 1.03.12.5 0 .95.03.46.02.87.14.41.11.81.14.4.02.71.14.31.11.72.14.42.02.98.17.57.14 1 .27.43.13.93.24.51.1 1.05.13.55.02 1.09.13.55.12 1.08.14.53.02.93.13.41.11.78.12.38 0 .84.03.46.03.91.17.44.14.81.24.36.1.76.1.39 0 .96.03t1.01.14q.44.11.98.13.54.03 1.11.13.57.11 1.21.11h1.31q.66 0 1.21.01.56 0 1.14.03.59.04 1.15.18.57.15.98.28.41.13.8.23.38.1.86.09h.92q.44 0 .98-.01.55 0 1.09-.02t1.2-.13q.66-.11 1.2-.12.54 0 .94-.02.4-.02.92-.14.52-.11.92-.13.4-.02.8-.14.41-.11.77-.13.37-.03.64-.15.26-.12.74-.25t.93-.16q.45-.02.99-.13.55-.12 1.09-.15.54-.02 1.06-.15.51-.13 1.07-.27.55-.13 1.13-.25.57-.12 1.08-.14.51-.03.9-.15.4-.13.94-.25.53-.13.82-.15.29-.02.67-.15.38-.12.83-.25.45-.12.87-.14.41-.03.83-.14.42-.11.87-.12.45 0 .85-.02.4-.02.93-.13.54-.11 1-.11.47-.01.97-.01h2.57q.39.01.69.01.31 0 .76.03.44.03.71.14.27.11.5.1h1.33q.31.01.76.04.46.02.87.14.41.11.82.13.41.03.83.14.42.12.85.14.43.03.99.18.57.14 1 .27.42.13.9.24.48.11.91.14.43.03.87.17t.79.24q.35.11.65.13.3.02.7.13.41.12.82.14.42.02.84.13t.91.1h4.21q.62-.01.99-.03.38-.02.82-.13.44-.11 1-.11h3.44q.41 0 .82-.01.41 0 .81-.02.41-.02.96-.13.56-.11 1.14-.11.58-.01 1.13-.01h5.36l.61-.02q.32-.01.61-.13.28-.11.64-.12.36-.01.73-.03.38-.02.82-.13.44-.12.99-.15.55-.02 1.06-.15.52-.13 1.07-.27.55-.13 1.13-.25.57-.12 1.07-.14.5-.02.88-.14.38-.11.67-.14.29-.02.62-.14.34-.12.64-.26t.73-.3q.43-.16.95-.41.52-.25.93-.4.41-.16.87-.41.46-.26 1.06-.41.6-.14 1.21-.25.6-.12 1.26-.15.66-.02 1.21-.13.56-.11 1.14-.1.58 0 1.15.03.57.02.98.14.42.11.84.13.43.03.95.13.53.12.96.15.43.02.89.16.47.14 1 .25.52.1 1.2.13.67.03 1.28.17.62.14 1.4.29.78.14 1.4.3.61.17 1.38.42.77.25 1.34.42.57.16 1.11.41.55.24 1.09.37t1.25.27q.7.14 1.54.3.84.16 1.65.41.81.24 1.58.37.77.14 1.44.27.66.13 1.18.24.52.11 1.07.14.55.02 1.1.13.54.12 1.09.14.55.02 1.12.13.56.11 1.2.11.63 0 1.23.03.6.02 1.25.13t1.16.11h3.57q.39 0 .68-.01.29 0 .66-.02.37-.02.8-.13.42-.11.9-.12h.99q.52-.01.91-.03.4-.02.92-.13.52-.12.92-.14.4-.03.81-.16.4-.13.96-.27.56-.14 1.1-.27l1.04-.27q.51-.13.91-.26.4-.14.82-.26.42-.12.68-.15.25-.02.51-.14.26-.12.65-.26.39-.13.72-.26.32-.13.67-.16.35-.04.86-.17t.99-.28q.49-.14.93-.39.45-.25 1.03-.4l1.09-.28q.51-.14.91-.27t.81-.27q.42-.13.85-.26.43-.12.73-.14.31-.02.73-.14.42-.11.88-.11h6.17q.66.01 1.24.04.57.03 1.03.17.46.14.94.25.48.11.91.14.43.03.88.18.45.16.74.3.3.13.69.27.39.14.68.29.3.14.58.28.29.13.72.32.42.18.72.45.29.26.57.43.28.16.58.43.3.28.66.51.35.23.66.39.3.17.72.47.42.3.71.59.29.28.53.5.24.22.51.36.28.14.67.39.39.24.81.43.42.18.74.5.33.31.6.58.26.26.51.49.24.23.52.42.29.19.45.44.16.25.42.43t.44.53q.19.35.33.62.13.28.27.56.14.29.27.62.14.34.16.61.03.28.14.56.11.28.14.6.03.31.14.71.11.4.11.75.01.35.01.76 0 .41-.01.83v1.65q-.01.42-.03.88-.03.45-.14.86-.12.41-.14.82-.02.41-.13.79-.11.38-.11.63.01.26 0 .68 0 .42-.03.88t-.14.9q-.12.43-.14.98-.03.54-.17 1.12-.13.57-.24 1.09-.11.51-.14 1.07-.03.55-.16 1.13-.14.57-.25 1.11-.11.53-.13 1.19-.02.66-.14 1.21-.12.55-.15 1.11-.02.56-.18 1.14-.15.59-.32 1.18-.17.58-.45 1.16-.27.58-.5 1.21-.24.62-.37 1.15-.13.53-.27 1.07-.13.55-.26 1.09-.14.53-.24 1.02-.11.49-.14.92-.02.42-.13.86-.12.44-.15.99-.02.55-.17 1.14-.14.6-.28 1.27-.15.67-.31 1.27-.17.6-.41 1.3-.25.69-.41 1.48-.16.79-.4 1.45-.24.65-.34 1.14-.1.49-.09.99 0 .51.01 1.02 0 .52.02.91.03.39.16.86.12.48.26.87.14.4.29.81.16.4.42.87.27.47.66.9.39.44.68.96.3.52.7.93.39.42.8.95.41.53.81.99.4.47.68 1.06.28.59.43 1.05.15.46.3.99.16.53.41 1.08.25.55.41 1.11.15.56.39 1.17.23.61.26 1.3.03.69.14 1.24.11.55.11 1.13 0 .57.01 1.08 0 .51.02.88t.13.78q.11.42.11.85v3.65q0 .42-.01.86 0 .44-.03 1.02-.04.57-.18 1.04-.14.47-.27.98l-.23.92q-.11.39-.11.9t-.03 1.07q-.02.57-.14.98-.11.41-.13.82-.03.41-.14.81-.11.41-.11.78 0 .38-.03.84-.02.46-.14.9-.11.43-.14.98-.03.55-.17 1.15-.14.61-.28 1.29t-.3 1.38q-.16.7-.37 1.31-.21.62-.2 1.11v1q0 .52.01.91 0 .4.02.71.02.32.14.57.13.26.28.66.15.4.39.87.24.47.25.95.02.49.04.85.01.37.13.78.11.41.14.81.02.4.15.77.12.37.26.79.13.42.25.88.13.46.13.89v5.81q0 .57-.01 1.27 0 .7-.03 1.43t-.16 1.55q-.14.82-.25 1.48-.11.66-.14 1.34-.03.69-.16 1.37-.14.69-.24 1.21-.11.51-.11 1.04.01.53.01 1.17v1.07q0 .44-.01.98v1.08q-.01.52-.03.98-.03.45-.14.85-.1.4-.1.73v1.2q0 .3-.01.7 0 .4-.04.75-.05.35-.22.69-.18.34-.3.51-.13.16-.25.52-.12.35-.27.65-.15.29-.28.56-.14.28-.28.55-.14.28-.29.56-.15.29-.34.61-.2.31-.52.62t-.51.42q-.19.11-.24.25-.05.14-.09.44-.03.29-.24.67-.21.37-.47.64-.25.28-.42.56-.17.28-.47.58-.3.31-.58.58l-.56.56q-.28.28-.6.57-.32.29-.7.56-.39.28-.68.55-.29.28-.66.55-.37.28-.67.67-.3.38-.71.67-.4.29-.7.55-.29.26-.6.42-.3.16-.53.28-.23.12-.45.26-.22.15-.48.17-.25.03-.42.14-.16.12-.48.15-.31.04-.59.16-.28.13-.78.26-.51.13-1.08.16-.58.03-1.2.16t-1.13.28q-.51.14-1.06.38-.56.23-1.01.26-.44.02-.88.14-.44.11-1 .11t-.97.01q-.4 0-.78.02-.37.02-.82.13-.45.11-1.04.11-.6.01-1.18.01h-4.02q-.71 0-1.49-.01h-1.43q-.65-.01-1.12-.03-.48-.03-1.03-.14-.55-.11-1.12-.14-.57-.02-1.28-.13-.71-.1-1.53-.1h-11.54q-.53 0-.96.01-.43 0-.93.03-.51.02-1.02.15-.52.13-1.06.27-.54.13-1.04.27-.51.13-.9.26-.4.13-.78.26-.39.13-.74.26t-.8.16q-.45.03-.95.15-.49.13-.96.25t-1.03.15q-.55.03-1.08.16-.52.12-1.13.24-.61.12-1.29.15-.67.02-1.31.13t-1.08.11h-.85q-.4 0-.81.01-.4 0-.77.03-.38.02-.81.15-.44.13-1.12.27-.68.14-1.29.28-.61.13-1.44.27-.83.13-1.65.24-.82.11-1.53.08-.72-.02-1.24-.14-.53-.12-.96-.15-.43-.03-.88-.17-.46-.15-.88-.28-.43-.13-.97-.26-.53-.13-1.08-.24-.54-.11-1.24-.13-.71-.02-1.52-.13-.82-.12-1.62-.14-.79-.02-1.48-.14-.68-.11-1.36-.14-.68-.02-1.34-.13-.65-.12-1.19-.14-.54-.02-.97-.13-.44-.11-.97-.11h-2.6q-.69-.01-1.41-.04-.71-.03-1.41-.16-.7-.14-1.33-.24-.63-.11-1.15-.11-.53 0-1.11-.03-.58-.03-1.13-.14-.55-.11-1.1-.13-.55-.03-1.12-.13-.58-.11-1.26-.11h-1.49q-.82 0-1.62-.01-.8 0-1.51-.03-.71-.02-1.38-.13-.68-.11-1.31-.11-.64-.01-1.22-.03-.58-.02-1.12-.13-.55-.11-1.07-.11h-17.02q-.8 0-1.48.01-.67 0-1.32.02-.65.03-1.31.14-.66.11-1.22.13-.56.03-1.16.14-.61.11-1.46.11-.85.01-1.64.03-.79.02-1.59.13t-1.51.11h-1.38q-.68.01-1.34.01-.65 0-1.2.02-.54.03-1.22.14-.67.11-1.29.11-.63.01-1.42.03-.79.02-1.59.14-.79.11-1.47.13-.68.02-1.37.14-.68.11-1.37.13-.68.02-1.38.13-.69.11-1.43.08-.74-.02-1.41-.14-.66-.11-1.25-.15-.59-.03-1.33-.19-.74-.16-1.5-.37t-1.4-.21h-26.67q-.8.01-1.48.01-.68 0-1.34.02-.66.03-1.36.14-.7.11-1.45.11-.76.01-1.67.03-.9.02-1.72.14-.81.11-1.6.13-.79.02-1.47.13-.68.11-1.34.11h-6.17q-.71-.01-1.53-.03-.82-.02-1.49-.13t-1.27-.11q-.61 0-1.04.01-.43 0-.95.02-.51.02-1.07.14-.55.11-1.14.13-.59.03-1.31.14-.72.1-1.57.1-.84-.01-1.67-.04t-1.54-.18q-.72-.14-1.42-.32t-1.28-.47q-.58-.28-1.12-.55-.55-.26-1.06-.49-.52-.23-1.05-.35-.53-.12-1.18-.23-.65-.1-1.34-.1h-3.11q-.8 0-1.5.01-.7 0-1.46.02t-1.43.13q-.66.11-1.24.11h-1.17q-.58 0-1.29.01h-1.52q-.82.01-1.61.03-.79.02-1.59.13-.79.11-1.46.11-.68.01-1.2.03-.52.02-1.09.13-.57.12-1.24.14-.67.02-1.28.14-.6.11-1.42.14-.83.03-1.63.16-.8.13-1.64.25-.84.12-1.62.17-.78.04-1.53.28-.74.24-1.33.36-.59.12-1.14.14-.55.03-1.11.14-.55.11-1.14.14-.59.02-1.31.13-.71.11-1.56.11-.84 0-1.63.01-.78 0-1.43.02-.65.03-1.31.14-.66.11-1.2.13-.55.03-1.11.14-.56.11-1.17.11h-16.09q-.7 0-1.48-.01-.77 0-1.35-.03-.58-.02-1.12-.13-.55-.11-1.06-.11-.52 0-1.09-.03-.57-.02-1.02-.13-.46-.11-1.09-.11h-1.23q-.6-.01-1.43-.03-.82-.03-1.53-.14-.7-.12-1.49-.14-.79-.02-1.44-.13-.66-.11-1.18-.11-.53-.01-1.11-.03-.58-.03-1.13-.14-.55-.12-1.1-.14-.56-.02-1.13-.14-.57-.11-1.25-.14-.69-.03-1.38-.17-.7-.14-1.26-.28-.57-.13-1.23-.26-.65-.13-1.19-.24-.54-.11-1.18-.14-.64-.02-1.08-.13-.43-.11-.95-.11-.51 0-1.09-.03-.59-.02-1.16-.13t-1.22-.11q-.66-.01-1.37-.03-.71-.02-1.38-.13-.67-.11-1.28-.11h-3.28q-.66 0-1.21.01-.54 0-1.09.02t-1.24.13q-.69.11-1.41.11-.71.01-1.39.01-.68.01-1.36.03-.68.02-1.46.13-.77.11-1.36.11h-1.21q-.63 0-1.01.01-.38 0-.69.02-.3.03-.89.16-.58.13-1.41.25t-1.54.14q-.71.03-1.51.16t-1.61.25q-.82.11-1.52.14-.69.03-1.42.16t-1.25.27q-.52.13-1.03.29-.52.16-1.47.41-.96.26-1.79.4-.84.14-1.67.29-.82.16-1.75.39-.93.22-1.62.25-.69.03-1.34.16-.65.14-1.28.27-.64.13-1.14.27-.51.14-1.38.28-.87.14-1.83.28-.96.13-1.91.24-.95.12-1.76.14-.81.02-1.61.13-.79.11-1.48.12h-1.26q-.57.01-1.27.03-.69.02-1.52.13-.83.11-1.7.11h-7.8q-.56 0-1.15-.01-.58 0-1.33-.03-.74-.03-1.6-.16-.85-.14-1.76-.25-.91-.1-1.73-.11-.83 0-1.76-.03-.94-.03-1.65-.17-.72-.14-1.4-.28-.69-.14-1.38-.27-.68-.14-1.39-.27-.7-.13-1.49-.24-.8-.11-1.62-.14-.82-.02-1.64-.13-.82-.12-1.64-.15t-1.63-.18q-.82-.15-1.43-.32-.6-.17-1.3-.44-.7-.27-1.36-.51-.66-.24-1.34-.37t-1.51-.26q-.83-.13-1.71-.24-.88-.11-1.57-.13-.68-.03-1.34-.14-.66-.12-1.22-.15-.56-.02-1.15-.16-.58-.13-1.14-.24-.56-.1-1.35-.1h-3.25q-.81 0-1.59.01-.79 0-1.41.02-.62.02-1.18.14-.55.11-1.13.14-.58.03-1.28.16-.69.13-1.52.27-.83.13-1.68.24-.84.12-1.68.12-.83.01-1.58.04-.76.02-1.38.16-.62.13-1.17.28-.55.15-1.22.4-.68.24-1.31.37t-1.34.15q-.71.03-1.47.17-.75.14-1.41.3-.66.16-1.79.43t-1.9.53q-.78.26-1.48.51-.71.25-1.43.37-.71.13-1.29.15-.58.02-1.28.13-.69.11-1.44.11h-4.91q-.69-.01-1.4-.04-.72-.03-1.41-.19-.68-.15-1.16-.33-.48-.17-1.04-.45-.56-.27-1.08-.51-.53-.24-1.09-.4-.56-.15-1.24-.4-.68-.25-1.36-.42-.69-.16-1.37-.44-.69-.28-1.21-.52t-1.03-.37q-.5-.13-.93-.26-.43-.13-.91-.23-.49-.11-.95-.13-.45-.02-1.11-.14-.66-.11-1.24-.14-.58-.03-1.29-.17-.71-.14-1.4-.29-.69-.14-1.38-.31-.69-.17-1.24-.41-.54-.25-1.04-.37l-.89-.23q-.4-.11-.92-.13-.53-.03-.94-.14-.42-.11-.85-.13-.42-.03-.96-.13-.54-.11-1.06-.11-.51 0-1.06.01-.54 0-1.1.02-.55.03-1.25.14-.71.11-1.49.14-.78.03-1.41.15-.63.13-1.2.25-.58.11-1.13.12-.54 0-.92.02-.37.02-.82.13-.45.11-1.03.12-.58.01-1.1.03-.51.03-1.07.16-.55.13-1.26.28-.72.14-1.48.29-.77.14-1.46.37-.68.23-1.28.23-.59.01-1.08.01-.49.01-.78.03-.29.02-.83.16-.53.13-1.14.27-.61.14-1.41.27-.8.13-1.5.25-.7.11-1.34.11-.64 0-1.52.01-.87 0-1.41.02-.55.02-1.21.13-.67.11-1.26.1-.59-.02-1.21-.1-.63-.08-1.14-.45-.51-.36-.93-.81-.43-.44-.72-.84-.29-.39-.66-.72-.36-.34-.72-.54-.37-.21-.88-.35-.52-.14-1.12-.37-.6-.24-1.07-.73-.47-.5-.77-.98-.3-.48-.58-1.05-.28-.56-.54-1.14-.26-.57-.42-1.11-.17-.53-.42-1.02-.25-.48-.53-.93-.28-.45-.56-1.05-.28-.6-.54-1.3-.26-.69-.4-1.28-.15-.59-.28-1.22-.13-.62-.27-1.06-.13-.43-.27-1-.14-.58-.25-1.19-.12-.62-.12-1.34 0-.72-.01-1.42 0-.7-.02-1.45-.02-.76-.13-1.4-.11-.64-.11-1.11v-3.05q.01-.45.03-1.03.03-.59.14-1.16.12-.57.14-1.23.02-.66.14-1.24.11-.57.13-1.25.02-.67.14-1.33.11-.67.14-1.24.02-.57.13-1.22.12-.66.14-1.22.02-.55.14-1.1.11-.55.14-1.11.03-.55.17-1.15.14-.6.28-1.25.14-.66.28-1.22.13-.55.26-1.09t.24-1.05q.1-.51.1-1.03.01-.52.03-1.1.02-.58.13-1.12.11-.54.11-1.05v-8.34q0-.66-.01-1.2 0-.54-.02-1.06-.02-.51-.13-1.06t-.12-1.11v-.99q-.01-.44-.03-.98-.03-.55-.16-1.21-.13-.66-.27-1.35-.14-.69-.28-1.4-.14-.72-.28-1.53-.14-.82-.29-1.58-.15-.77-.4-1.45-.25-.68-.39-1.38-.15-.7-.3-1.32-.15-.62-.39-1.16-.25-.55-.39-1.12-.15-.57-.28-1.09-.13-.52-.25-.97-.11-.46-.12-.92v-.9q0-.44.01-.99 0-.55.04-1.13.03-.57.18-1.05.14-.47.28-1.01.14-.55.31-1.13.17-.58.41-1.14.24-.56.37-1.21.13-.65.26-1.33.14-.68.28-1.34.13-.67.27-1.24.13-.56.24-1.19.11-.63.14-1.19.02-.56.17-1.16.14-.6.27-1.28.14-.67.28-1.35.13-.67.27-1.26.13-.59.26-1.37l.24-1.44q.1-.65.1-1.3v-6.11q-.01-.57-.03-1.23-.02-.65-.14-1.34-.11-.68-.14-1.36-.03-.68-.16-1.34t-.27-1.35q-.13-.69-.27-1.4t-.28-1.5q-.13-.79-.27-1.47l-.26-1.34q-.14-.66-.25-1.26-.12-.61-.12-1.3v-1.24q0-.55-.01-1.11 0-.57-.02-1.19-.02-.63-.13-1.18-.12-.55-.14-1.13-.02-.58-.13-1.25t-.11-1.28V32.2q.01-.71.04-1.53.03-.83.17-1.54.14-.7.27-1.36.13-.65.25-1.15.11-.5.14-.93.03-.43.18-.88.15-.46.29-.88.15-.42.32-.88.18-.46.47-1.01.29-.56.57-.99.29-.42.56-.83.28-.42.56-.83.28-.42.6-.85.31-.43.7-.85.39-.41.7-.82.3-.41.75-.83.45-.43.85-.7.39-.27.73-.55.33-.27.76-.42.42-.16.7-.29.27-.13.64-.26t.82-.14h2.94q.66.01 1.22.03.57.03 1 .14.43.11.94.1h2.14q.55 0 1.08.01.54 0 1.01.04.48.03 1.04.18.56.14.98.29.41.15.71.28.29.14.68.27.38.13.65.24.27.1.72.16.45.05 1.03.3.59.25 1.23.39.63.13 1.22.3.58.17 1.14.41.56.24 1.19.36.64.12 1.24.23.6.1 1.01.1h4.01q.57 0 1.25-.01.68 0 1.33-.03.65-.02 1.31-.15.65-.13 1.34-.25.68-.12 1.24-.15.56-.03 1.14-.17.59-.15 1.09-.39.5-.24.9-.4.41-.16.85-.45.45-.28 1.17-.68.73-.4 1.47-.69.75-.28 1.6-.56.86-.27 1.78-.52t1.61-.39q.69-.14 1.34-.28.65-.13 1.2-.26.55-.13 1.13-.25.59-.12 1.15-.12.57 0 1.03-.01.46 0 1.12-.02.67-.02 1.38-.13.71-.11 1.53-.11h1.5q.67 0 1.33-.01h1.16q.52 0 .92-.02t.94-.13q.54-.11 1.04-.12h3.98q.71 0 1.56.01.84.01 1.79.03.95.03 1.75.17t1.33.25q.52.11 1.08.14.56.02 1.17.16.61.14 1.33.27.72.13 1.65.24.93.11 1.88.14.96.02 1.88.13.93.12 1.74.14.81.03 1.53.14.73.12 1.61.14.88.03 2.03.17 1.15.13 2.46.26 1.31.14 2.39.24 1.08.11 2.17.12 1.09 0 2.23.03 1.15.02 2.42.13 1.28.12 2.72.14 1.45.02 2.65.13t2.26.11h2.08q1.02 0 2.27-.01t2.56-.03q1.32-.03 2.49-.17 1.18-.14 2.2-.3 1.03-.16 1.93-.42.9-.27 2.19-.52 1.28-.26 2.63-.4 1.34-.14 2.51-.3 1.18-.15 2.21-.4 1.04-.25 1.88-.39.83-.14 1.68-.3.85-.16 1.87-.4 1.01-.25 2.24-.39 1.22-.13 2.3-.24 1.08-.11 2.02-.11h14.46q.7.01 1.43.03.74.02 1.56.13.82.11 1.65.12.83 0 1.81.03.98.02 1.93.13.95.12 1.89.15t1.77.17q.83.14 1.57.27.73.14 1.69.28.95.13 1.93.28.98.14 2.07.31 1.08.17 2.02.45t1.64.55q.7.27 1.38.51.68.24 1.5.37t1.8.26q.98.14 2.06.27 1.07.13 2.09.24 1.02.1 1.8.1h7.26q1.08 0 2.14.01 1.05 0 1.96.03.91.02 1.46.13.54.11 1.06.11h14.48q.55 0 1.13-.01h1.25q.68-.01 1.34-.03.66-.02 1.34-.13.69-.11 1.4-.11h3.46q.42-.01.86-.03.44-.02 1.14-.13.69-.11 1.42-.11h1.52q.78 0 1.4-.01.62-.01.97-.03.36-.02.74-.15t.84-.3q.46-.16 1.15-.45.7-.29 1.53-.67.83-.39 1.68-.64.84-.26 1.58-.4.75-.14 1.62-.26.87-.11 1.81-.14.93-.02 1.78-.13.84-.11 1.79-.12.94 0 1.69-.03.75-.02 1.38-.15.62-.13 1.16-.26.54-.14 1.09-.26t.95-.14q.39-.03.79-.15.39-.13.87-.25.48-.13.79-.25.31-.12.59-.13.29-.01.31 0 .02.01.18-.11t.39-.14l4.5-.03Z" fill="#1e1e1e"/></svg>