<svg preserveAspectRatio="none" xmlns="http://www.w3.org/2000/svg" viewBox="8.13 8.14 762.63 80.47" width="762.63" height="80.47" xmlns:v="https://vecta.io/nano"><path fill="#1e1e1e" d="M397.539 15.666q0 0-1.33-.17-1.33-.16-2.07-.19-.74-.03-1.53-.03-.8 0-1.6 0-.79 0-1.77-.01-.98 0-1.55-.19-.57-.19-1.22-.2-.66 0-1.3-.01-.65 0-1.18-.19-.54-.2-1.2-.39-.65-.2-1.18-.4-.52-.2-1.44-.38-.92-.19-2-.2-1.07-.02-1.83-.02-.76 0-1.39 0-.63 0-1.4 0-.77 0-1.92-.18-1.16-.19-2.24-.2-1.09-.02-1.79-.2-.71-.18-1.38-.2-.66-.01-1.44-.02-.78 0-1.98-.17-1.19-.17-2.16-.2-.97-.02-2.12-.02-1.16-.01-2.19-.01-1.02 0-1.78.16-.75.15-1.63.19-.87.04-1.78.2-.9.16-2.13.2-1.22.04-2.54.2-1.31.17-2.91.2-1.61.04-3.04.04-1.43.01-2.84.01-1.4 0-2.47 0-1.07 0-2.24 0-1.18 0-2.49.16-1.31.16-2.69.36-1.39.19-2.67.23-1.28.03-2.49.04-1.22 0-2.25.01-1.04 0-1.88 0-.84 0-1.64 0-.81 0-1.61 0-.8 0-1.51.15-.71.16-1.75.2-1.04.03-2.21.04-1.17 0-2.2.01-1.03 0-2.03 0-1.01 0-2.01 0-1 0-1.83 0-.83 0-1.47 0-.64 0-1.25 0-.6 0-1.37 0-.77 0-1.8-.18-1.03-.17-1.97-.19-.93-.02-2.14-.2-1.22-.17-2.19-.2-.98-.02-1.97-.03-.99 0-1.99 0-1 0-1.83 0-.84 0-1.64 0-.81 0-1.61 0-.8 0-1.6 0-.8 0-1.76 0-.97 0-1.96 0-.99 0-2.16 0-1.16 0-2.19 0-1.03 0-2.26-.17-1.23-.17-2.04-.2-.82-.02-1.56-.21-.74-.18-1.42-.2-.68-.01-1.55-.19-.87-.18-1.68-.38-.8-.2-1.85-.22-1.04-.02-2.05-.02-1.01-.01-2.18-.01-1.16 0-2.19 0-1.03 0-2.03 0-1 0-1.84 0-.83 0-1.36.15-.53.15-1.4.19-.86.05-1.58.21-.72.16-1.69.35-.97.2-2.14.4-1.17.2-2.19.4-1.02.2-2.2.4-1.18.2-2.09.24-.92.04-1.75.05-.82 0-1.62.01-.81 0-1.61 0-.8 0-1.6 0-.8 0-1.6 0-.8 0-1.76 0-.97 0-2.13 0-1.15 0-2.18 0-1.03 0-2.03 0-1 0-2 0-1 0-1.84 0-.83 0-1.47 0-.64 0-1.32.15-.68.16-1.55.19-.87.03-1.85.04-.97 0-1.9.16-.92.17-2.09.36-1.16.19-2.18.39-1.01.2-2.09.24-1.07.04-1.75.05-.68 0-1.29 0-.61 0-1.22 0-.6.01-1.19 0-.6 0-1.78.2-1.18.19-1.88.35-.69.16-1.56.2-.87.04-1.68.05-.81 0-1.78 0-.97 0-1.8 0-.83 0-1.58-.18-.74-.17-1.42-.19-.68-.01-1.3-.02-.62 0-1.33-.19-.72-.18-1.33-.38-.62-.2-1.22-.4-.6-.2-1.25-.21-.65-.01-1.52-.19-.86-.18-1.67-.37-.81-.2-1.76-.39-.95-.2-1.79-.4-.84-.2-1.73-.23-.88-.02-1.7-.02-.82-.01-1.7-.19-.89-.17-1.46-.19-.58-.02-1.14-.22-.57-.2-1.59-.2-1.02-.01-1.73-.19-.7-.18-1.37-.2-.67-.01-1.45-.01-.78-.01-1.41-.01-.63 0-1.49-.18-.86-.17-1.42-.19-.56-.02-1.4-.2-.84-.18-1.4-.2-.55-.02-1.14-.02-.59-.01-1.19-.01-.59 0-1.19 0-.6 0-1.61 0-1 0-1.6 0-.59 0-1.19 0-.6 0-1.19 0-.6 0-1.28.16-.67.15-1.54.19-.87.04-1.85.04-.98.01-1.9.17-.92.16-1.81.19-.89.04-1.71.04-.82.01-1.62.01-.81 0-1.55-.18-.74-.18-1.42-.2-.67-.01-1.62-.01-.95-.01-2.1-.01-1.16 0-2.35 0-1.19 0-2.33.16-1.14.16-2.22.19-1.08.04-2.2.2-1.12.17-2.2.2-1.08.04-2.02.2-.94.17-2.28.36-1.35.2-2.45.24-1.11.03-2.46.04-1.35.01-2.74.01-1.39 0-2.74.16-1.34.16-2.38.35-1.04.19-1.95.23-.9.04-2 .21-1.09.16-2.33.19-1.24.03-2.78.04-1.54 0-2.91.17-1.37.16-2.59.35-1.22.2-2.15.23-.92.04-1.91.05-.99 0-1.83 0-.83.01-1.63.01-.81 0-1.94 0-1.13 0-2.32 0-1.19 0-2.22 0-1.03 0-2.04 0-1-.01-1.77-.18-.78-.18-1.55-.38-.78-.19-1.33-.21-.54-.02-1.13-.03-.59 0-1.44-.17-.85-.17-1.41-.19-.55-.02-1.47-.03-.92 0-1.74 0-.82 0-1.79 0-.97 0-1.8 0-.83 0-1.63 0-.8 0-1.44 0-.63 0-1.23-.01-.59 0-1.41.2-.82.18-1.66.51-.85.33-1.8.6-.95.27-1.78.28-.84 0-1.4 0-.57.01-1.57.01-1 0-1.58-.01-.59 0-1.58.2-.99.19-1.67.33-.68.13-1.65.72-.98.59-1.58.98-.61.39-1.36.47-.74.07-1.42.41-.67.34-1.27.54-.6.2-1.2.4-.59.2-1.03.6-.44.4-.86.85-.42.46-.82.87-.4.4-.55.94-.15.53-.34 1.18-.19.65-.21 1.52-.01.88-.01 1.47-.01.6-.19 1.31-.18.71-.39 1.59-.22.89-.46 1.59-.24.69-.4 1.4-.16.71-.35 1.63-.18.92-.2 1.83-.01.91-.01 1.47 0 .57 0 1.73 0 1.17 0 1.79 0 .62 0 1.23 0 .6 0 1.2 0 .6 0 1.2 0 .6 0 1.2 0 .6 0 1.2 0 .6 0 1.19 0 .6.19 1.78.19 1.18.2 1.97 0 .78 0 1.41.01.62.2 1.98.19 1.36.2 2.16 0 .81.16 1.33.15.53.19 1.57.04 1.03.05 1.86 0 .84 0 1.47 0 .64.2 1.82.19 1.18.53 2.07.35.89.74 1.89.4.99.86 1.47.47.48 1.24 1.06.78.59 1.58 1.19.8.6 1.49 1.27.7.68 1.23 1.03.54.36.96.77.42.41 1.18.71.76.3 2.14.32 1.39.01 2.37.01.99 0 1.82 0 .83 0 1.47 0 .64 0 1.24 0 .61 0 1.21.01.61 0 1.32.18.71.18 1.44.19.73.02 1.52.02.8 0 1.43 0 .63 0 1.25.01.62 0 1.15.2.54.21 1.65.58 1.1.38 2.09.58 1 .2 2.19.4 1.19.2 1.8.39.61.2 1.68.22 1.08.02 1.79.2.7.18 1.78.4 1.08.21 1.63.4.55.19 1.41.4.87.22 1.4.4.54.19 1.71.38 1.17.2 2.51.4 1.34.19 2.15.39.8.19 1.67.22.88.02 1.78.2.9.18 1.63.2.73.02 1.61.2.87.18 1.68.38.81.19 1.53.21.71.02 1.5.03.78.01 1.41.01.63 0 1.41 0 .77 0 1.8.17 1.03.17 1.97.19.93.03 1.91.03.99.01 1.99.01 1 0 1.83 0 .83 0 1.55-.16.72-.16 1.42-.19.7-.04 1.49-.04.78-.01 1.3-.16.53-.15 1.39-.2.87-.04 1.67-.04.81-.01 1.52-.17.72-.15 1.76-.19 1.04-.04 1.97-.2.93-.17 1.92-.36.99-.19 1.72-.24.73-.04 1.43-.2.71-.16 1.41-.2.7-.04 1.9-.04 1.2-.01 1.99-.01.79 0 1.58 0 .8 0 1.6 0 .8 0 1.77 0 .96 0 2.03.17 1.06.17 2 .2.94.02 1.76.02.82.01 1.46.01.64 0 1.24 0 .61 0 1.21 0 .6 0 1.2 0 .6 0 1.27-.16.68-.15 1.71-.19 1.04-.04 2.05-.04 1-.01 2-.01 1 0 2 0 1 0 1.92-.16.93-.16 1.82-.19.89-.04 1.43-.19.55-.16 1.24-.2.7-.05 1.32-.05.62-.01 1.22-.01.6 0 1.37 0 .76 0 1.72 0 .96 0 1.95 0 1 0 1.83 0 .83 0 1.64 0 .8 0 1.69.18.89.17 1.56.37.67.21 1.33.22.67.02 1.28.02.62.01 1.22.01.6 0 1.2 0 .6 0 1.36 0 .77 0 1.56 0 .79 0 1.76 0 .96 0 1.79 0 .83 0 1.8 0 .97 0 1.63 0 .66 0 1.44 0 .77 0 1.98 0 1.21 0 2.24 0 1.03 0 1.63 0 .59 0 1.19 0 .6 0 1.27-.16.68-.15 1.71-.19 1.04-.04 1.79-.2.76-.16 1.8-.2 1.05-.04 1.88-.04.84-.01 1.56-.16.72-.16 1.32-.35.59-.18 1.47-.23.88-.05 1.41-.21.54-.16 1.73-.36 1.19-.21 1.89-.25.7-.03 1.4-.2.69-.16 1.74-.2 1.04-.04 1.87-.04.84-.01 1.81-.01.97 0 1.8 0 .83 0 1.8 0 .97 0 1.53-.15.56-.15 1.25-.19.7-.04 1.31-.05.62-.01 1.8-.01 1.17 0 1.96 0 .79 0 1.59 0 .79 0 1.68-.16.9-.16 1.95-.19 1.05-.04 1.9-.04.84 0 1.74.17.89.17 1.62.19.73.02 1.46.21.73.18 1.94.38 1.21.21 1.83.41.61.19 1.35.39.74.19 1.77.21 1.03.02 2.11.2 1.08.17 2.19.2 1.1.02 2.12.02 1.02.01 1.86.01.83 0 1.64 0 .81 0 1.61 0 .8 0 1.43 0 .63 0 1.4 0 .78 0 1.74 0 .96 0 1.78 0 .83 0 1.96 0 1.14 0 2.16 0 1.02 0 2.03 0 1 0 2 0 1 0 1.83 0 .84 0 1.81 0 .97 0 2.38 0 1.41 0 2.23 0 .82 0 1.79 0 .96 0 2.12 0 1.16 0 2.12-.16.96-.16 2.19-.19 1.22-.04 2.26-.04 1.04-.01 1.97-.17.94-.16 1.99-.19 1.06-.04 2.18-.2 1.11-.17 2.36-.2 1.24-.04 2.74-.2 1.49-.17 2.95-.2 1.46-.04 2.47-.2 1.01-.17 2.08-.2 1.06-.03 1.82-.2.77-.16 1.64-.2.88-.03 1.86-.04.98 0 2.08-.17 1.1-.16 2.17-.19 1.08-.03 2.26-.04 1.18 0 2.21-.01 1.03 0 1.87 0 .84 0 1.48 0 .64 0 1.41 0 .77 0 1.57 0 .79 0 2.25 0 1.46 0 2.38 0 .91 0 1.89 0 .99 0 1.98 0 1 0 1.83 0 .84 0 1.81 0 .97 0 1.8 0 .82 0 1.46 0 .64 0 1.25 0 .61 0 1.32.19.71.18 2.21.37 1.49.19 2.25.21.76.02 1.72.03.95 0 2.02.17 1.06.18 1.83.2.78.02 1.57.03.79 0 1.59 0 .8 0 1.6 0 .8 0 1.43 0 .64 0 1.24 0 .61 0 1.21 0 .6 0 1.36 0 .77 0 1.56 0 .79 0 1.76 0 .97 0 1.88.18.91.17 1.81.19.89.02 1.71.03.83 0 1.57.18.74.18 1.84.2 1.1.02 1.86.02.77 0 1.8 0 1.04 0 1.97 0 .92 0 1.66-.16.73-.15 1.78-.19 1.04-.04 1.97-.2.93-.17 1.99-.2 1.06-.04 1.82-.2.76-.16 1.64-.2.87-.03 1.52-.04.65-.01 1.25-.01.61 0 1.29-.15.67-.16 1.54-.2.87-.03 1.68-.04.81-.01 1.62-.01.8 0 1.69-.16.88-.16 1.77-.19.88-.03 1.79-.2.91-.16 1.63-.2.72-.03 1.34-.04.62 0 1.64-.2 1.01-.19 1.61-.2.59 0 1.6 0 1-.01 1.6-.01.6.01 1.31.19.71.18 1.37.19.67.01 1.4.2.72.18 1.39.2.68.01 1.55.19.86.18 1.43.2.56.02 1.26.21.7.18 1.79.2 1.08.02 1.68.02.6 0 1.6 0 1 0 2.26.18 1.27.18 1.81.19.55.02 1.14.03.59 0 1.3.18.71.18 1.37.2.67.01 1.54.19.87.18 1.75.2.89.02 1.54.02.66.01 1.52.19.86.17 1.42.19.56.02 1.26.21.7.18 1.95.2 1.25.02 2.04.02.79 0 1.76 0 .96 0 1.79 0 .83 0 1.63 0 .8 0 1.77 0 .97 0 1.79 0 .83 0 1.64 0 .8 0 1.6 0 .8 0 1.51-.16.71-.15 1.41-.19.71-.04 1.66-.04.95-.01 1.95-.01.99 0 1.98 0 1 0 2 0 1 0 2 0 1 0 1.83 0 .83 0 1.64 0 .8 0 1.6 0 .8 0 1.44 0 .63 0 1.4 0 .77 0 1.73 0 .96 0 1.96 0 .99 0 2.15 0 1.17 0 2.36 0 1.19 0 2.39 0 1.2 0 2.34-.16 1.13-.16 2.22-.19 1.08-.04 2.02-.2.94-.17 2.17-.2 1.23-.04 2.43-.04 1.21-.01 2.24-.01 1.03 0 2.2 0 1.17 0 2.2 0 1.03 0 2.03 0 1.01 0 1.84 0 .84 0 1.64 0 .81 0 1.61 0 .8 0 1.6 0 .8 0 1.76 0 .97 0 1.79 0 .83 0 1.8 0 .97 0 1.71-.16.75-.15 1.62-.19.88-.04 1.52-.04.65-.01 1.25-.01.61 0 1.79-.19 1.18-.19 1.8-.2.62-.01 1.22-.01.6 0 1.37 0 .76 0 1.56 0 .79 0 1.42 0 .64 0 1.41 0 .77 0 1.4 0 .62 0 1.47 0 .84 0 1.65 0 .8 0 1.43 0 .63 0 1.23 0 .6 0 1.38.01.78 0 1.33.19.54.2 1.38.2.85 0 1.53.18.68.19 1.56.2.88.02 1.48.02.59 0 1.59 0 1 0 1.6 0 .59 0 1.6 0 1 0 1.83 0 .84 0 1.4 0 .57 0 1.56.2.99.2 1.8.2.81 0 1.4 0 .6 0 1.2 0 .6 0 1.31.18.71.18 1.38.2.66.01 1.44.01.78.01 1.58.01.79 0 1.59 0 .8 0 1.51-.16.71-.15 1.42-.19.7-.04 1.32-.04.62-.01 1.63-.01 1 0 2.18-.19 1.17-.2 1.79-.2.62-.01 1.22-.01.6 0 1.37 0 .76 0 1.56 0 .79 0 1.59 0 .8 0 1.6 0 .8 0 1.59 0 .8 0 1.44 0 .63 0 1.24 0 .6 0 1.2 0 .6 0 1.2 0 .6 0 1.2 0 .6 0 1.61 0 1.01 0 1.71.18.71.19 1.96.2 1.25.02 2.04.02.79 0 1.59 0 .8 0 1.6 0 .8 0 1.43 0 .64 0 1.41 0 .77 0 1.4 0 .62 0 1.23 0 .6 0 1.44 0 .84 0 1.8.2.96.2 2.08.38 1.12.18 1.78.2.67.01 1.53.19.87.18 1.43.2.57.02 1.41.2.84.18 1.4.2.55.02 1.14.02.59.01 1.18.01.6 0 1.2 0 .6 0 1.44 0 .84 0 1.4 0 .57 0 1.57 0 1.01 0 1.71.18.71.18 1.79.2 1.09.02 1.85.02.76 0 1.56 0 .79 0 1.59 0 .8 0 1.43 0 .63 0 1.64 0 1.02 0 1.61 0 .6 0 1.2 0 .61 0 1.19.2.57.19 1.43.19.85.01 1.42.01.56 0 1.32 0 .76 0 1.39 0 .63 0 1.39 0 .77 0 1.57 0 .79 0 1.59 0 .8 0 1.43 0 .63 0 1.31-.16.69-.15 1.81-.2 1.13-.04 1.95-.04.83 0 1.42-.19.6-.19 1.22-.2.63-.01 1.21-.01.59.01 1.53-.19.95-.19 1.78-.39.83-.21 1.42-.21.59-.01 1.43-.01.84 0 1.4 0 .57 0 1.4 0 .83 0 1.63 0 .8 0 1.6 0 .8 0 1.6 0 .8 0 1.41 0 .6 0 1.4 0 .79 0 1.35 0 .57 0 1.57 0 1 0 1.59 0 .59 0 1.19 0 .6 0 1.37 0 .76 0 1.56 0 .79 0 1.59 0 .8 0 1.76 0 .97 0 1.79 0 .83 0 1.8 0 .97 0 1.96 0 1 0 2.33 0 1.33 0 3.21 0 1.89 0 3.37 0 1.48 0 2.89 0 1.42 0 2.82 0 1.4 0 2.63 0 1.23 0 2.27 0 1.04 0 2.12.17 1.08.17 1.75.2.67.04 1.26-.28.6-.32 1.2-.53.61-.21 1.21-.42.61-.21 1.41-.4.8-.2 1.9-.46 1.11-.26 1.79-.59.69-.32 1.23-.4.53-.07 1.52-.27.99-.2 1.6-.21.61 0 1.62-.01 1.01 0 1.61.01.61 0 1.18.19.58.19 1.52.38.94.19 1.85.21.91.01 1.47.01.57 0 1.24 0 .66 0 1.43 0 .77 0 1.37 0 .61 0 1.57-.19.97-.19 1.81-.51.84-.32 1.38-.4.55-.08 1.09-.5.55-.42 1.11-.93.55-.5.93-1.07.38-.57.76-1.47.39-.89.4-1.95.02-1.05.02-1.65 0-.59 0-1.19 0-.6 0-1.44 0-.84-.13-1.48-.14-.64-.2-1.17-.06-.53-.06-1.12-.01-.59-.01-1.19 0-.6.19-1.33.19-.73.61-1.27.42-.54.61-1.47.18-.92.37-1.47.19-.54.39-1.53.2-.98.41-1.88.21-.9.21-1.69.01-.8-.18-1.58-.2-.78-.4-1.95-.2-1.16-.54-2.25-.35-1.09-.4-1.97-.06-.88-.06-1.69-.01-.81-.01-1.78 0-.96 0-1.96 0-.99 0-1.99 0-1 0-1.83 0-.83-.16-1.55-.15-.71-.34-1.31-.18-.6-.23-1.3-.05-.7-.38-1.38-.32-.68-.66-1.22-.34-.54-.65-1.13-.32-.59-.66-1.05-.33-.46-.61-1.02-.28-.57-.61-1.22-.33-.64-.63-1.14-.3-.5-.77-1.16-.46-.66-.99-1-.52-.34-.9-.72-.38-.38-1.17-.97-.78-.59-1.48-1.26-.69-.68-1.3-.97-.61-.29-1.39-.68-.78-.4-1.88-.58-1.1-.18-1.85-.37-.75-.19-1.4-.4-.65-.2-1.4-.4-.74-.19-1.45-.21-.7-.02-1.48-.03-.79 0-1.42 0-.63 0-1.23 0-.61 0-1.45 0-.84 0-1.4 0-.57 0-1.57 0-1 0-1.76 0-.76 0-1.55 0-.79 0-1.92 0-1.13 0-2.38-.16-1.25-.17-2.39-.2-1.15-.02-2.56-.2-1.41-.17-2.56-.55-1.14-.38-2.26-.59-1.12-.21-2.24-.25-1.13-.03-2.7-.2-1.56-.18-2.94-.2-1.38-.03-2.83-.2-1.44-.18-2.64-.2-1.19-.03-2.13-.21-.95-.18-1.93-.37-.98-.2-1.9-.22-.93-.03-2.24-.03-1.32-.01-2.54-.01-1.22 0-2.59 0-1.37 0-2.43 0-1.06 0-1.91 0-.84 0-1.65 0-.8 0-1.6 0-.8 0-1.44 0-.63 0-1.4 0-.77 0-1.29.15-.52.15-1.21.19-.69.05-2.07.25-1.37.2-2.17.2-.81.01-1.33.16-.53.15-1.4.19-.86.05-1.39.2-.53.16-1.49.21-.95.05-1.92.05-.97 0-1.57 0-.59 0-1.36 0-.76 0-1.55 0-.8 0-1.76 0-.97 0-1.96 0-.99 0-2.09.16-1.11.16-2.35.19-1.24.04-2.45.04-1.21.01-2.35.17-1.14.16-2.22.19-1.08.04-2.26.04-1.18.01-2.71.01-1.53 0-2.95 0-1.42 0-3.03-.17-1.62-.17-3.01-.2-1.39-.02-2.68-.2-1.28-.17-2.66-.37-1.37-.19-2.92-.39-1.56-.2-3.1-.23-1.55-.03-3.31-.03-1.75-.01-3.04-.01-1.3 0-2.35 0-1.05 0-1.89 0-.84 0-1.89-.17-1.04-.18-1.81-.2-.77-.02-1.8-.2-1.03-.17-1.8-.2-.77-.02-1.4-.02-.62-.01-1.23-.01-.6 0-1.2 0-.6 0-1.21 0-.61 0-1.18-.2-.58-.19-1.42-.19-.85-.01-2 .18-1.14.2-1.83.36-.69.16-1.57.2-.87.04-1.84.04-.98.01-1.73.17-.74.15-1.95.19-1.21.04-2.17.2-.97.17-2.03.2-1.06.04-1.82.2-.76.16-1.63.2-.88.04-1.61.2-.72.16-1.76.2-1.05.04-2.16.2-1.1.17-2.35.2-1.24.04-2.39.2-1.15.17-2.23.2-1.08.03-2.03.2-.94.16-1.66.2-.73.03-1.52.04-.79 0-1.59.01-.8 0-1.6 0-.8 0-1.76 0-.96 0-1.71.15-.74.16-1.61.19-.88.03-1.69.04-.81 0-1.62.01-.8 0-1.43 0-.63 0-1.24 0-.61 0-1.21 0-.6 0-1.48.15-.89.14-2 .19-1.12.05-1.72.05-.59.01-1.19.01-.6 0-1.37 0-.76 0-1.72 0-.96 0-1.88.16-.92.16-1.98.19-1.05.03-1.81.2-.76.16-1.47.19-.71.04-1.32.05-.62 0-1.64.2-1.01.19-1.6.2-.6 0-1.27.16-.67.16-1.54.19-.87.04-1.68.05-.82 0-1.78 0-.97 0-1.8 0-.83 0-1.63 0-.8 0-1.44 0-.63 0-1.24 0-.61 0-1.32-.18-.71-.18-1.61-.2-.89-.01-1.48-.01-.59 0-1.2-.01-.61 0-1.19-.19-.57-.19-1.71-.38-1.13-.19-1.74-.39-.61-.2-1.94-.39-1.33-.19-1.99-.39-.65-.2-1.32-.22-.67-.01-1.26-.21-.58-.2-1.6-.4-1.01-.2-1.83-.21-.82 0-1.81 0-1 0-1.59 0-.6 0-1.19 0-.6 0-1.2 0-.6 0-1.37 0-.76 0-1.39 0-.62 0-1.3.15-.68.16-1.38.2-.7.03-1.21.19-.51.15-1.2.2-.7.04-1.31.05-.61 0-1.43.2-.82.18-1.65.19-.83.01-1.4.01-.56 0-1.16 0-.59 0-1.19 0-.6 0-1.53 0-.93 0-1.75 0-.82 0-1.63 0-.8 0-1.6 0-.8 0-1.76 0-.97 0-1.63 0-.66 0-1.27 0-.61 0-1.21 0-.6 0-1.95.19-1.35.19-1.99.2-.64 0-1.25 0-.61.01-1.37.01-.77 0-1.73 0-.96 0-1.79 0-.82 0-1.79 0-.97 0-1.8 0-.83 0-1.63 0-.81 0-1.7-.18-.88-.17-1.84-.2-.96-.02-1.56-.02-.59 0-1.35 0-.77 0-1.56 0-.79 0-1.59 0-.8 0-1.6 0-.8 0-1.6 0-.8 0-1.6 0-.8 0-1.59 0-.8 0-1.44 0-.63 0-1.24 0-.6 0-1.2 0-.6 0-1.6 0-1.01 0-1.68.15-.67.16-1.45.35-.78.19-1.39.38-.61.19-1.31.25-.71.05-1.22.21-.51.15-1.51.35-1 .2-1.69.24-.69.05-1.9.25-1.2.2-1.81.21-.62 0-1.46 0-.85 0-1.65 0-.8 0-1.6 0-.8 0-1.59 0-.8 0-1.6 0-.8 0-1.76 0-.96 0-1.56 0-.59 0-1.43 0-.84 0-1.47 0-.63 0-1.3-.02-.66-.02-1.33-.53-.68-.51-1.11-2.35-.44-1.86-.44-1.96 0-.11.04-.21.03-.1.1-.19.06-.08.15-.14.09-.06.19-.09.1-.03.21-.02.11.01.2.05.1.04.18.1.08.07.14.17.05.09.08.19.02.1.01.21-.02.11-.06.2-.05.1-.12.17-.07.08-.17.13-.09.05-.19.07-.11.01-.21 0-.11-.02-.2-.07-.1-.05-.17-.13-.07-.08-.12-.17-.04-.1-.05-.2-.01-.11.01-.21.02-.11.08-.2.05-.09.13-.16.09-.07.18-.11.1-.03.21-.04.11-.01.21.02.1.03.19.09.09.06.15.15.06.08.1.18.03.1.03.1 0 0 .58 1.63.59 1.63 1.13 1.6.54-.02 1.17-.02.63 0 1.47 0 .84 0 1.43 0 .6 0 1.56 0 .96 0 1.76 0 .8 0 1.6 0 .79 0 1.59 0 .8 0 1.6 0 .8 0 1.64 0 .84 0 1.92-.02 1.08-.01 2.27-.21 1.19-.2 2.2-.4 1.01-.19 2.2-.4 1.2-.2 1.86-.4.65-.21 1.46-.41.8-.19 1.65-.37.85-.17 1.86-.17 1.01 0 1.61 0 .6 0 1.2 0 .61 0 1.24 0 .64 0 1.44 0 .79 0 1.59 0 .8 0 1.6 0 .8 0 1.6 0 .8 0 1.6 0 .8 0 1.59 0 .79 0 1.56 0 .76 0 1.36 0 .6 0 1.73.04 1.13.04 1.84.2.72.16 1.52.16.8-.01 1.63-.01.83 0 1.8 0 .97 0 1.79 0 .83 0 1.79 0 .96 0 1.73 0 .76 0 1.36 0 .6 0 1.22 0 .61-.01 1.28-.02.67-.01 1.38-.19.71-.18 1.31-.18.61 0 1.22 0 .61 0 1.27 0 .66 0 1.63 0 .96 0 1.76 0 .8 0 1.6 0 .81 0 1.63 0 .82 0 1.75 0 .93 0 1.53 0 .6 0 1.19 0 .6 0 1.56-.01.96 0 1.62 0 .66-.01 1.23-.2.57-.19 1.67-.21 1.09-.02 1.79-.21.7-.18 1.26-.2.56-.02 1.42-.2.86-.17 1.49-.17.63 0 1.39 0 .77 0 1.37 0 .6 0 1.2 0 .59 0 1.19 0 .59 0 1.6 0 1 0 1.59 0 .6.01 1.43.21.83.2 1.87.4 1.03.2 1.9.25.87.05 1.47.24.6.19 1.29.35.7.16 1.4.21.71.06 1.79.4 1.09.35 2.08.54.99.2 1.58.2.59-.01 1.19-.01.59.01 1.19.01.6.01 1.61.19 1.01.19 1.61.19.6 0 1.23 0 .64 0 1.44 0 .8 0 1.63 0 .83 0 1.79 0 .96 0 1.75 0 .78-.01 1.5-.03.71-.01 1.56-.19.85-.17 1.74-.19.9-.01 1.61-.19.71-.19 1.3-.19.6-.01 1.17-.03.57-.02 1.48-.2.9-.18 1.84-.2.94-.02 2-.19 1.07-.18 2.03-.18.96 0 1.72 0 .77 0 1.37 0 .59 0 1.19 0 .59 0 1.47-.01.88-.02 2.01-.2 1.12-.18 1.72-.18.6 0 1.21 0 .6 0 1.24 0 .63-.01 1.43-.01.8 0 1.58 0 .79-.01 1.52-.03.74-.02 1.65-.19.91-.17 1.88-.17.96 0 1.76 0 .8 0 1.59-.01.8 0 1.56 0 .76-.01 1.37-.03.62-.02 1.68-.2 1.07-.18 2.05-.2.98-.03 2.23-.2 1.25-.18 2.39-.2 1.14-.02 2.35-.2 1.21-.17 2.1-.19.89-.02 1.76-.2.87-.18 1.61-.2.73-.03 1.64-.2.91-.18 1.85-.21.95-.02 2.03-.2 1.08-.17 2.14-.19 1.07-.02 1.97-.2.91-.17 1.87-.18.95 0 1.66-.02.72-.02 2.05-.21 1.34-.2 2.48-.37 1.14-.18 2.13.02.99.19 1.58.19.59 0 1.19 0 .6 0 1.21 0 .61 0 1.26.01.65 0 1.54.04.89.03 1.8.2.91.16 1.8.19.88.04 1.78.2.9.16 1.74.16.84 0 1.89 0 1.05 0 2.35 0 1.3 0 3.07.01 1.77 0 3.41.04 1.63.04 3.2.24 1.57.2 2.94.39 1.37.2 2.55.36 1.19.17 2.65.2 1.47.03 2.99.19 1.52.17 2.94.17 1.42 0 2.95 0 1.52-.01 2.68-.01 1.16 0 2.15-.03.98-.02 2.24-.19 1.25-.18 2.44-.18 1.19 0 2.34-.03 1.14-.02 2.36-.19 1.23-.17 2.22-.17.99 0 1.96 0 .96 0 1.76 0 .79 0 1.55 0 .77 0 1.36 0 .6 0 1.56 0 .96 0 1.69-.02.74-.02 1.46-.21.73-.18 1.41-.2.68-.01 1.41-.19.74-.18 1.52-.19.79 0 1.45-.02.66-.01 1.88-.21 1.21-.2 1.94-.38.74-.18 1.51-.18.78 0 1.41 0 .64 0 1.44 0 .8 0 1.6 0 .81 0 1.65 0 .85 0 1.91 0 1.06 0 2.43 0 1.37 0 2.59 0 1.23 0 2.57.01 1.34 0 2.41.04 1.06.05 2.04.24.98.19 1.78.36.8.16 2.07.19 1.28.03 2.64.2 1.35.17 2.82.2 1.46.03 2.95.2 1.5.17 2.76.22 1.26.05 2.5.29 1.23.24 2.21.58.97.34 2.29.51 1.32.17 2.57.2 1.24.03 2.37.19 1.13.17 2.26.17 1.13 0 1.92 0 .79 0 1.55 0 .76 0 1.76 0 1 0 1.57 0 .56 0 1.4 0 .84 0 1.45 0 .61 0 1.24 0 .64 0 1.45 0 .81.01 1.7.06.88.04 1.68.25.79.21 1.4.4.6.19 1.88.55 1.27.35 2.41.62 1.13.28 1.96.7.83.43 1.44 1.04.61.61 1.39 1.19.79.58 1.26.88.48.29 1.01.8.53.52 1.02.89.5.37.89.9.39.54.81 1.1.43.57.64 1.11.21.54.61 1.32.39.78.74 1.49.35.71.8 1.21.46.51.87 1.35.41.85.63 1.92.21 1.08.42 1.75.2.67.38 1.56.17.89.17 1.73 0 .83 0 1.83 0 1 0 1.99 0 1 0 1.96 0 .96.01 1.74 0 .77.02 1.43.01.65.21 1.26.2.61.4 1.8.19 1.19.38 2.11.18.93.38 1.48.19.55.19 1.42-.01.87-.07 1.59-.07.72-.41 1.58-.33.86-.38 1.4-.06.53-.41 1.44-.35.91-.49 1.67-.15.76-.59 1.56-.44.79-.44 1.38 0 .58.01 1.39 0 .81.19 1.77.2.96.2 1.8 0 .84 0 1.44 0 .6 0 1.2 0 .61-.01 1.23 0 .62-.06 1.33-.06.71-.54 1.81-.49 1.09-.85 1.65-.37.55-1.08 1.24-.71.69-1.23 1.12-.51.44-1.29.63-.78.2-1.53.59-.74.4-1.34.37-.59-.02-1.44.22-.85.23-1.46.23-.6 0-1.37 0-.77 0-1.43 0-.67 0-1.7 0-1.02-.01-2.19-.21-1.17-.2-1.99-.39-.82-.2-1.4-.2-.58 0-1.58.01-1 0-2 0-1 0-1.52.2-.52.2-1.21.4-.68.2-1.24.4-.56.2-1.39.4-.82.19-1.68.41-.87.22-1.87.6-1.01.38-1.53.58-.51.19-1.34.39-.83.2-1.38.17-.55-.04-1.48-.2-.94-.16-1.98-.16-1.04 0-2.27 0-1.23 0-2.63 0-1.4 0-2.82 0-1.41 0-2.89 0-1.48 0-3.37 0-1.88 0-3.21 0-1.33 0-2.33 0-.99 0-1.96 0-.97 0-1.8 0-.82 0-1.79 0-.96 0-1.76 0-.8 0-1.59 0-.8 0-1.56 0-.77 0-1.37 0-.6 0-1.19 0-.59 0-1.59 0-1 0-1.57 0-.56 0-1.35 0-.8 0-1.4 0-.61 0-1.41 0-.8 0-1.6 0-.8 0-1.6 0-.8 0-1.63 0-.83 0-1.4 0-.56 0-1.39 0-.83 0-1.65.01-.82 0-1.8.2-.99.19-1.53.39-.55.2-1.16.2-.61 0-1.25 0-.65 0-1.2.2-.55.2-1.39.2-.85 0-1.8.03-.95.02-1.81.19-.86.18-1.49.18-.64 0-1.44 0-.8 0-1.59 0-.8 0-1.57 0-.77 0-1.39 0-.63 0-1.39 0-.76 0-1.78-.01-1.02 0-2.01-.2-1-.19-1.59-.19-.58 0-1.18 0-.59 0-1.61 0-1.01 0-1.64 0-.63 0-1.43 0-.8 0-1.59 0-.8 0-1.57 0-.76 0-1.38-.01-.62 0-1.79-.2-1.18-.19-2.18-.19-.99 0-1.56 0-.56 0-1.4 0-.84 0-1.44 0-.6 0-1.2 0-.61 0-1.23-.01-.62 0-1.32-.04-.7-.04-1.4-.2-.7-.16-1.4-.2-.71-.04-1.43-.2-.71-.16-2.08-.36-1.36-.2-2.07-.26-.7-.06-1.34-.19-.64-.14-1.48-.14-.84 0-1.44 0-.61 0-1.23 0-.63 0-1.4 0-.77 0-1.41 0-.63 0-1.43 0-.8 0-1.6 0-.8 0-1.59 0-.8 0-1.58 0-.78-.01-1.96-.2-1.18-.2-2.18-.2-1 0-1.6 0-.6 0-1.2 0-.6 0-1.2 0-.6 0-1.2 0-.61 0-1.24 0-.64 0-1.44 0-.79 0-1.59 0-.8 0-1.6 0-.8 0-1.59 0-.8 0-1.56 0-.77 0-1.36 0-.6 0-1.68.02-1.09.02-1.8.2-.7.18-1.71.18-1.01 0-1.59.01-.59 0-1.16.02-.56.02-1.45.2-.88.17-1.69.17-.8 0-1.6 0-.8 0-1.61 0-.8-.01-2.16-.2-1.35-.2-1.94-.2-.6 0-1.19 0-.6 0-1.19-.01-.6 0-1.13-.06-.53-.06-1.2-.19-.67-.14-1.24-.14-.56 0-1.4 0-.83 0-1.83 0-1.01 0-1.6 0-.6 0-1.6 0-1.01 0-1.6 0-.6 0-1.72-.05-1.11-.05-2.01-.2-.9-.16-1.86-.36-.95-.19-1.7-.19-.76 0-1.36 0-.6 0-1.23 0-.63 0-1.43 0-.81 0-1.65 0-.85 0-1.47 0-.63 0-1.4 0-.77 0-1.41 0-.63 0-1.42 0-.8 0-1.56 0-.77 0-1.36 0-.6.01-1.69.02-1.08.02-1.79.2-.71.18-1.32.18-.61.01-1.23.01-.62 0-1.36.02-.73.02-1.64.2-.92.17-1.89.17-.97 0-1.8 0-.82 0-1.79 0-.96 0-1.76 0-.8 0-1.6 0-.8 0-1.61 0-.8 0-1.64 0-.83 0-1.84 0-1 0-2.03 0-1.03 0-2.2 0-1.17 0-2.2 0-1.03 0-2.21.01-1.19 0-2.29.03-1.1.02-2.17.2-1.06.17-2.05.2-.98.02-2.24.19-1.26.17-2.46.17-1.2 0-2.39 0-1.19 0-2.36 0-1.16 0-2.15 0-1 0-1.96 0-.96 0-1.73 0-.77 0-1.4 0-.64 0-1.44 0-.8 0-1.6 0-.81 0-1.64 0-.83 0-1.83 0-1 0-2 0-1 0-2 0-.99 0-1.98 0-.99 0-1.91.01-.92 0-1.48.02-.56.02-1.45.2-.89.17-1.69.17-.8 0-1.6 0-.81 0-1.64 0-.82 0-1.79 0-.97 0-1.77 0-.8 0-1.63 0-.83 0-1.79 0-.97 0-1.76 0-.8 0-1.58-.01-.79 0-1.48-.05-.7-.04-1.21-.2-.51-.15-1.21-.19-.7-.04-1.39-.19-.68-.16-1.35-.16-.67-.01-1.72-.05-1.04-.04-1.76-.2-.72-.16-2.07-.35-1.36-.2-1.97-.2-.62-.01-1.32-.05-.7-.04-1.77-.19-1.07-.16-2.07-.16-1.01 0-1.61 0-.6 0-1.22 0-.62-.01-1.31-.05-.7-.05-1.21-.2-.51-.16-1.21-.2-.7-.04-1.42-.2-.72-.16-1.59-.2-.86-.05-1.4-.2-.53-.16-1.88-.35-1.35-.2-1.94-.2-.59.01-1.59.01-.99 0-1.88.01-.9.02-1.61.2-.71.19-1.31.19-.59.01-1.2.03-.61.02-1.64.2-1.03.18-1.79.2-.77.02-1.8.19-1.04.17-1.84.18-.79 0-1.58 0-.79.01-1.5.02-.72.02-1.58.2-.85.17-1.46.17-.6.01-1.22.01-.62.01-1.36.03-.73.02-1.64.2-.9.17-1.84.2-.94.02-1.99.2-1.06.17-1.96.19-.89.02-1.8.2-.9.17-1.83.17-.93 0-1.97 0-1.04 0-1.81 0-.76 0-1.38 0-.62-.01-1.31-.05-.7-.04-1.23-.2-.54-.15-1.37-.15-.84-.01-1.88-.05-1.04-.03-1.79-.19-.74-.16-1.7-.16-.97 0-1.76 0-.79 0-1.56 0-.76 0-1.36 0-.6 0-1.21 0-.61 0-1.24 0-.63 0-1.43 0-.8 0-1.6 0-.81 0-1.62 0-.82-.01-1.71-.04-.89-.04-1.82-.2-.92-.16-1.9-.16-.98-.01-1.87-.04-.88-.04-1.76-.2-.87-.17-2.05-.36-1.19-.2-1.79-.2-.6 0-1.24 0-.64 0-1.46 0-.83 0-1.8 0-.97 0-1.81 0-.83 0-1.83 0-.99 0-1.98 0-.98 0-1.89 0-.92 0-2.38 0-1.46 0-2.25 0-.8 0-1.57 0-.77 0-1.41 0-.64 0-1.48 0-.84 0-1.87.01-1.02 0-2.18 0-1.16.01-2.14.03-.97.02-2.19.19-1.22.18-2.17.18-.96.01-1.69.03-.73.02-1.64.2-.91.17-1.87.2-.95.02-2.08.2-1.13.17-2.52.2-1.38.03-2.95.2-1.56.17-2.7.2-1.14.02-2.36.2-1.22.17-2.16.2-.94.02-2.01.19-1.07.17-2.09.18-1.02 0-2.13.03-1.11.02-2.21.19-1.1.17-2.26.17-1.16 0-2.12 0-.97 0-1.79 0-.82 0-2.23 0-1.41 0-2.38 0-.97 0-1.81 0-.83 0-1.83 0-1 0-2 0-1.01 0-2.03 0-1.02 0-2.16 0-1.13 0-1.96 0-.82 0-1.78 0-.96 0-1.74 0-.77 0-1.4 0-.63 0-1.43 0-.81 0-1.61 0-.81 0-1.65 0-.84 0-1.87-.01-1.04 0-2.27-.04-1.23-.03-2.19-.2-.96-.16-2.18-.21-1.22-.05-2.02-.25-.79-.21-1.88-.56-1.09-.34-1.78-.38-.69-.05-1.23-.2-.54-.16-1.41-.2-.87-.03-1.59-.19-.71-.15-1.53-.15-.83.01-1.76.03-.93.02-1.97.19-1.03.17-1.83.17-.8 0-1.59 0-.79 0-1.96 0-1.16.01-2.27.03-1.11.02-1.88.19-.76.18-1.74.18-.97 0-1.8 0-.82 0-1.79 0-.97.01-1.79.01-.81 0-1.69.02-.88.02-1.72.2-.84.18-1.39.2-.55.02-1.71.22-1.16.19-1.88.38-.72.18-1.39.2-.66.01-1.33.22-.67.2-1.56.38-.89.17-1.71.18-.82 0-1.72.02-.89.02-1.79.2-.9.18-1.78.2-.89.02-1.74.19-.86.18-1.46.18-.6 0-1.19 0-.6 0-1.63 0-1.03 0-2.24 0-1.21 0-1.98 0-.78 0-1.44 0-.66 0-1.63 0-.97 0-1.8 0-.83 0-1.79 0-.97 0-1.76 0-.79 0-1.56 0-.76 0-1.36 0-.6 0-1.21 0-.61 0-1.25-.01-.65 0-1.52-.05-.88-.06-1.48-.24-.6-.19-1.31-.34-.71-.16-1.52-.16-.8 0-1.63 0-.83 0-1.83 0-.99 0-1.95 0-.96 0-1.72 0-.77 0-1.36 0-.6 0-1.7.02-1.1.02-1.83.21-.73.18-1.51.2-.78.03-1.85.2-1.07.17-2.07.17-1 0-2 0-.99 0-1.97.01-.99 0-1.87.02-.88.02-1.73.19-.86.18-1.46.18-.6 0-1.2 0-.6 0-1.21 0-.6 0-1.25 0-.64 0-1.48-.01-.84 0-1.9-.04-1.06-.03-1.98-.19-.92-.16-1.89-.16-.96 0-1.76 0-.8 0-1.6 0-.79 0-1.58 0-.79 0-1.95.01-1.15 0-1.71.02-.56.02-1.4.2-.85.18-1.46.21-.6.02-1.61.22-1.01.2-2.06.37-1.06.18-1.95.2-.89.02-1.77.2-.88.17-1.66.18-.79 0-1.46.01-.68.02-1.41.2-.74.18-1.49.18-.76.01-1.33.03-.56.02-1.45.19-.9.18-1.73.18-.84 0-1.84 0-1 0-2.01-.01-1 0-2.06-.04-1.05-.03-1.94-.19-.89-.16-1.66-.16-.77 0-1.4 0-.64 0-1.45-.01-.82-.01-1.7-.05-.89-.05-1.67-.24-.79-.19-1.52-.35-.72-.16-1.6-.2-.87-.04-1.63-.2-.75-.16-1.81-.21-1.05-.04-1.83-.24-.79-.19-1.48-.35-.69-.16-1.89-.36-1.21-.2-1.91-.26-.71-.05-1.31-.26-.6-.21-1.4-.4-.8-.19-1.69-.54-.9-.34-2.08-.54-1.17-.19-1.79-.2-.62 0-1.32-.06-.71-.05-1.8-.39-1.09-.35-2.26-.55-1.18-.2-2.17-.4-1-.2-1.57-.32-.57-.12-1.15-.39-.59-.27-1.2-.27-.6 0-1.4 0-.8-.01-1.64-.01-.83-.01-1.84-.2-1.01-.2-1.61-.19-.59 0-1.2 0-.6 0-1.24 0-.64 0-1.47 0-.84 0-1.83-.01-.99 0-1.94 0-.95-.01-1.66-.07-.71-.06-1.34-.28-.62-.23-1.09-.5-.46-.28-1.02-.82-.56-.55-1.17-1.16-.61-.61-1.39-1.19-.79-.58-1.59-1.18-.8-.61-1.28-.91-.48-.29-1.15-1.09-.66-.8-1.07-1.81-.4-1.01-.59-1.56-.18-.55-.4-1.63-.21-1.08-.39-1.8-.18-.71-.19-1.35 0-.64 0-1.45-.01-.82-.02-1.66-.02-.84-.2-1.57-.18-.74-.18-1.52-.01-.79-.02-1.46-.01-.66-.19-1.38-.18-.71-.19-1.34 0-.63-.01-1.88-.02-1.25-.2-1.96-.18-.71-.18-1.32 0-.6 0-1.2 0-.6 0-1.2 0-.6 0-1.2 0-.6 0-1.2 0-.6 0-1.2 0-.61 0-1.23 0-.62 0-1.79 0-1.16 0-2.19.01-1.02.21-2.19.2-1.18.4-1.98.2-.8.41-1.43.21-.63.4-1.4.19-.78.38-1.78.2-1 .2-1.59 0-.6 0-1.19.01-.6.21-1.61.2-1.01.3-1.57.09-.56.39-1.06.31-.5 1.02-1.22.71-.73 1.52-1.45.81-.72 1.42-.92.61-.2 1.2-.4.6-.2 1.53-.59.92-.39 1.68-.55.76-.17 1.57-.58.82-.42 1.33-.85.51-.43 1.07-.63.57-.19 1.43-.2.87-.01 1.44-.2.57-.19 1.18-.19.6-.01 1.6-.01 1 0 1.96 0 .96 0 1.58 0 .62.01 1.51-.41.89-.42 1.84-.61.95-.19 1.52-.38.58-.19 1.19-.19.62 0 1.25 0 .64 0 1.44 0 .8 0 1.63 0 .83 0 1.8 0 .97 0 1.79 0 .83 0 1.78 0 .96.01 1.66.05.7.03 1.38.19.68.16 1.3.16.62.01 1.33.06.71.04 1.49.23.78.2 1.34.35.57.16 1.57.15 1 0 2.03 0 1.03 0 2.22 0 1.19 0 2.32 0 1.13 0 1.94 0 .8 0 1.63 0 .83 0 1.79 0 .96-.01 1.79-.04.82-.02 2.07-.22 1.25-.2 2.72-.37 1.47-.17 2.99-.17 1.52-.01 2.66-.03 1.13-.03 2.32-.2 1.19-.18 1.97-.2.78-.03 1.88-.23 1.09-.2 2.54-.36 1.45-.17 2.83-.18 1.39 0 2.72 0 1.33-.01 2.33-.04 1.01-.02 2.33-.22 1.32-.19 2.39-.37 1.06-.17 2.04-.2.98-.02 2.2-.2 1.22-.17 2.21-.2.98-.02 2.24-.19 1.26-.17 2.45-.17 1.19 0 2.35 0 1.16 0 2.14 0 .97.01 1.83.05.87.04 1.4.2.52.15 1.32.15.79 0 1.59-.01.79 0 1.56-.03.78-.02 1.84-.19 1.06-.17 2.01-.18.96 0 1.67-.02.72-.02 1.58-.2.85-.17 1.45-.17.6 0 1.2 0 .6 0 1.19 0 .6 0 1.6 0 1.01 0 1.61 0 .6 0 1.2 0 .61 0 1.23.01.62 0 1.32.04.7.04 1.4.2.7.16 1.4.2.7.04 1.38.19.68.16 1.31.16.63 0 1.44 0 .81.01 2.16.2 1.36.2 1.97.21.61 0 1.62.2 1.02.2 1.72.24.69.03 1.41.19.72.16 1.56.16.84.01 1.9.06 1.05.04 1.87.24.81.2 1.79.4.98.2 1.77.39.79.2 1.51.36.72.16 1.6.21.88.06 1.48.26.6.2 1.68.54 1.07.34 1.71.34.64.01 1.5.05.87.03 1.4.18.53.15 1.36.15.82 0 1.78 0 .96 0 1.75 0 .78-.01 1.5-.03.71-.02 2.06-.21 1.34-.18 2.05-.36.71-.18 1.32-.19.6 0 1.2 0 .6 0 1.21 0 .61 0 1.27 0 .65-.01 1.59-.04.93-.02 1.97-.22 1.04-.2 2.2-.4 1.17-.19 2.23-.36 1.06-.18 2.01-.18.96-.01 1.68-.02.71-.02 1.58-.2.86-.17 1.5-.17.64 0 1.47 0 .84 0 1.84 0 1 0 2 0 1 0 2.03 0 1.03 0 2.18 0 1.16 0 2.13 0 .96 0 1.76 0 .8 0 1.6 0 .8 0 1.6 0 .8 0 1.6-.01.8 0 1.59 0 .8-.01 1.6-.04.81-.02 1.97-.22 1.16-.2 2.19-.4 1.04-.2 2.19-.4 1.14-.2 2.1-.39.96-.19 1.83-.37.87-.18 1.55-.2.68-.01 1.43-.19.74-.18 1.58-.18.84 0 1.84 0 1 0 2.03 0 1.03 0 2.2 0 1.17 0 2.2.01 1.04 0 2.26.05 1.22.04 2 .23.79.2 1.51.36.72.16 1.59.2.86.05 1.41.2.56.16 1.46.19.91.03 2.02.19 1.11.17 2.13.17 1.03 0 2.19 0 1.17 0 2.16 0 .99 0 1.96 0 .96 0 1.76 0 .8 0 1.6 0 .8 0 1.61 0 .8 0 1.64 0 .83 0 1.83 0 1 0 2.02 0 1.01.01 2.09.04 1.08.04 2.19.2 1.12.17 2.17.2 1.05.04 1.94.2.89.16 1.65.16.77 0 1.37 0 .61 0 1.25 0 .64 0 1.47 0 .83 0 1.83 0 1 0 2.01 0 1 0 2.02-.01 1.03 0 2.18 0 1.15-.01 2.04-.02.89-.02 1.77-.2.89-.17 1.69-.17.8 0 1.61 0 .8 0 1.64 0 .84 0 1.87-.01 1.04 0 2.23 0 1.2-.01 2.38-.04 1.18-.03 2.58-.22 1.4-.2 2.81-.36 1.42-.17 2.59-.17 1.18 0 2.25 0 1.07 0 2.47 0 1.4-.01 2.82-.01 1.42-.01 2.93-.03 1.51-.03 2.91-.2 1.4-.17 2.5-.2 1.09-.02 2.12-.2 1.03-.17 1.76-.19.74-.02 1.66-.2.92-.17 1.95-.17 1.04 0 2.21 0 1.18.01 2.26.04 1.07.04 2.14.2 1.07.16 1.87.16.81.01 2.17.2 1.35.2 1.96.2.62.01 1.31.05.69.05 1.61.2.92.15 1.69.15.77 0 1.4 0 .63 0 1.4 0 .77 0 1.38 0 .62.01 1.79.21 1.17.2 1.98.4.81.21 1.35.28.54.07 1.35.39.82.32 1.65.32.83.01 1.64.2.82.2 1.77.2.96-.01 1.76-.01.79 0 1.6.01.8 0 1.64.03.84.04 2.17.21 1.31.16 1.42.19.1.02.19.07.1.05.18.12.08.07.14.16.06.09.09.19.04.1.05.2.02.1 0 .2-.01.11-.05.21-.04.1-.1.18-.06.09-.14.16-.08.07-.17.12-.1.05-.2.07-.1.03-.2.03-.1 0-.1 0h0z"/></svg>