<svg xmlns="http://www.w3.org/2000/svg" viewBox="8.13 8.14 762.63 80.47" xmlns:v="https://vecta.io/nano"><path d="M397.54 15.67h0l-1.33-.17-1.33-.16-.74-.03-.74-.03h-.79-.8-.8-.79l-.98-.01h-.98l-.57-.19-.57-.19-.65-.01h-.66l-.64-.01h-.65l-.53-.19-.54-.2-.66-.19-.65-.2-.53-.2-.52-.2-.92-.18-.92-.19-1.08-.01-1.07-.02h-.76-.76-.63-.63-.77-.77l-1.15-.18-1.16-.19-1.08-.01-1.09-.02-.7-.18-.71-.18-.67-.02-.66-.01-.78-.01H364l-1.2-.17-1.19-.17-.97-.03-.97-.02h-1.15l-1.16-.01h-1.03-1.02l-.76.16-.75.15-.88.04-.87.04-.91.16-.9.16-1.23.04-1.22.04-1.32.16-1.31.17-1.6.03-1.61.04h-1.43l-1.43.01h-1.41-1.4-1.07-1.07-1.17-1.18l-1.31.16-1.31.16-1.38.2-1.39.19-1.28.04-1.28.03-1.21.01h-1.22l-1.03.01h-1.04-.84-.84-.8-.81-.8-.8l-.71.15-.71.16-1.04.04-1.04.03-1.17.01h-1.17l-1.03.01h-1.03-1-1.01-1-1-.83-.83-.64-.64-.61-.6-.77-.77l-1.03-.18-1.03-.17-.94-.02-.93-.02-1.21-.18-1.22-.17-.97-.03-.98-.02-.99-.01h-.99-1-1-.83-.84-.8-.81-.8-.8-.8-.8-.96-.97-.99-.99H273h-1.16-1.03-1.03l-1.23-.17-1.23-.17-.81-.03-.82-.02-.74-.19-.74-.18-.68-.02-.68-.01-.87-.18-.87-.18-.81-.2-.8-.2-1.05-.02-1.04-.02h-1.01l-1.01-.01h-1.17-1.16-1.03H251h-1-1-.84-.83l-.53.15-.53.15-.87.04-.86.05-.72.16-.72.16-.97.19-.97.2-1.17.2-1.17.2-1.02.2-1.02.2-1.18.2-1.18.2-.91.04-.92.04-.83.01h-.82l-.8.01h-.81-.8-.8-.8-.8-.8-.8-.96-.97-1.16-1.15-1.03-1.03-1-1-1-1-.84-.83-.64-.64l-.68.15-.68.16-.87.03-.87.03-.98.01h-.97l-.93.16-.92.17-1.17.19-1.16.19-1.02.2-1.01.2-1.08.04-1.07.04-.68.01h-.68-.61-.61-.61l-.6.01-.59-.01h-.6l-1.18.2-1.18.19-.7.16-.69.16-.87.04-.87.04-.81.01h-.81-.97-.97-.83-.83l-.75-.18-.74-.17-.68-.02-.68-.01-.62-.01h-.62l-.71-.19-.72-.18-.61-.2-.62-.2-.6-.2-.6-.2-.65-.01-.65-.01-.87-.18-.86-.18-.81-.19-.81-.2-.95-.19-.95-.2-.84-.2-.84-.2-.89-.03-.88-.02h-.82l-.82-.01-.88-.18-.89-.17-.57-.02-.58-.02-.56-.2-.57-.2h-1.02l-1.02-.01-.71-.18-.7-.18-.67-.02-.67-.01h-.78l-.78-.01h-.63-.63l-.86-.18-.86-.17-.56-.02-.56-.02-.84-.18-.84-.18-.56-.02-.55-.02h-.59l-.59-.01h-.6-.59-.6-.6-1.01-1-.6-.59-.6-.6-.59-.6l-.68.16-.67.15-.87.04-.87.04h-.98l-.98.01-.92.16-.92.16-.89.03-.89.04h-.82l-.82.01h-.8-.81l-.74-.18-.74-.18-.68-.02-.67-.01h-.95l-.95-.01h-1.15-1.16-1.19-1.19l-1.14.16-1.14.16-1.08.03-1.08.04-1.12.16-1.12.17-1.08.03-1.08.04-.94.16-.94.17-1.34.19-1.35.2-1.1.04-1.11.03-1.35.01-1.35.01h-1.39-1.39l-1.35.16-1.34.16-1.04.19-1.04.19-.91.04-.9.04-1.1.17-1.09.16-1.24.03-1.24.03-1.54.01h-1.54l-1.37.17-1.37.16-1.22.19-1.22.2-.93.03-.92.04-.99.01h-.99-.84l-.83.01h-.8-.81-1.13-1.13-1.19-1.19-1.03-1.03-1.01l-1-.01-.77-.17-.78-.18-.77-.2-.78-.19-.55-.02-.54-.02-.59-.01H53l-.85-.17-.85-.17-.56-.02-.55-.02-.92-.01h-.92-.82-.82-.97-.97-.83-.83-.8-.8-.64-.63l-.6-.01h-.59l-.82.2-.82.18-.84.33-.85.33-.95.27-.95.27-.83.01h-.84-.56l-.57.01h-1-1l-.58-.01h-.59l-.99.2-.99.19-.68.14-.68.13-.97.59-.98.59-.6.39-.61.39-.75.08-.74.07-.68.34-.67.34-.6.2-.6.2-.6.2-.59.2-.44.4-.44.4-.42.45-.42.46-.4.41-.4.4-.15.54-.15.53-.19.65-.19.65-.02.87-.01.88v.59l-.01.6-.18.71-.18.71-.21.88-.22.89-.24.7-.24.69-.16.71-.16.71-.19.92-.18.92-.02.91-.01.91v.56.57 1.16 1.17.62.62.61.6.6.6.6.6.6.6.6.6.59.6l.19 1.18.19 1.18.01.79v.78.63l.01.62.19 1.36.19 1.36.01.8v.81l.16.52.15.53.04 1.04.04 1.03.01.83v.84.63.64l.2 1.18.19 1.18.34.89.35.89.39 1 .4.99.46.48.47.48.77.58.78.59.8.6.8.6.69.67.7.68.53.35.54.36.42.41.42.41.76.3.76.3 1.38.02 1.39.01h.98.99.83.83.64.64.6.61l.6.01h.61l.71.18.71.18.73.01.73.02h.79.8.63.63l.62.01h.62l.53.2.54.21 1.11.37 1.1.38.99.2 1 .2 1.19.2 1.19.2.61.19.61.2 1.07.02 1.08.02.71.18.7.18 1.08.22 1.08.21.55.19.55.19.86.21.87.22.53.18.54.19 1.17.19 1.17.2 1.34.2 1.34.19.81.2.8.19.87.03.88.02.9.18.9.18.73.02.73.02.88.18.87.18.81.2.81.19.72.02.71.02.79.01.78.01h.63.63.78.77l1.03.17 1.03.17.94.02.93.03h.98l.99.01h1 1 .83.83l.72-.16.72-.16.7-.03.7-.04h.79l.78-.01.52-.15.53-.15.86-.05.87-.04h.8l.81-.01.71-.16.72-.15 1.04-.04 1.04-.04.93-.16.93-.17.99-.19.99-.19.73-.05.73-.04.7-.16.71-.16.7-.04.7-.04h1.2l1.2-.01h.79.79.79.8.8.8.97.96l1.07.17 1.06.17.94.03.94.02h.82l.82.01h.64.64.6.61.6.6.6.6l.67-.16.68-.15 1.03-.04 1.04-.04h1.01l1-.01h1 1 1 1l.92-.16.93-.16.89-.03.89-.04.54-.15.55-.16.69-.04.7-.05h.62l.62-.01h.6.6.77.76.96.96.99 1 .83.83.81.8l.89.18.89.17.67.2.67.21.66.01.67.02h.61l.62.01h.6.6.6.6.76.77.79.79.97.96.83.83.97.97.66.66.78.77 1.21 1.21 1.03 1.03.6.59.6.6l.67-.16.68-.15 1.03-.04 1.04-.04.75-.16.76-.16 1.04-.04 1.05-.04h.83l.84-.01.72-.15.72-.16.6-.19.59-.18.88-.05.88-.05.53-.16.54-.16 1.19-.2 1.19-.21.7-.04.7-.03.7-.17.69-.16 1.05-.04 1.04-.04h.83l.84-.01h.97.97.83.83.97.97l.56-.15.56-.15.69-.04.7-.04.61-.01.62-.01h1.18 1.17.79.79.8.79l.89-.16.9-.16 1.05-.03 1.05-.04h.85.84l.9.17.89.17.73.02.73.02.73.19.73.18 1.21.2 1.21.21.62.2.61.19.74.2.74.19 1.03.02 1.03.02 1.08.18 1.08.17 1.11.03 1.1.02h1.02l1.02.01h.84.83.81.81.8.8.63.63.77.78.96.96.82.83 1.13 1.14 1.02 1.02 1.01 1 1 1 .83.84.97.97 1.41 1.41.82.82.97.96 1.16 1.16l.96-.16.96-.16 1.23-.03 1.22-.04h1.04l1.04-.01.93-.16.94-.16 1.05-.03 1.06-.04 1.12-.16 1.11-.17 1.25-.03 1.24-.04 1.5-.16 1.49-.17 1.46-.03 1.46-.04 1.01-.16 1.01-.17 1.07-.03 1.06-.03.76-.17.77-.16.87-.04.88-.03.98-.01h.98l1.1-.17 1.1-.16 1.07-.03 1.08-.03 1.18-.01h1.18l1.03-.01h1.03.84.84.64.64.77.77.8.79 1.46 1.46.92.91.98.99.99 1 .83.84.97.97.83.82.64.64.61.61l.71.19.71.18 1.5.19 1.49.19.76.02.76.02.96.01h.95l1.07.17 1.06.18.77.02.78.02.79.01h.79.8.8.8.8.63.64.6.61.6.6.76.77.79.79.97.97l.91.18.91.17.9.02.89.02.82.01h.83l.74.18.74.18 1.1.02 1.1.02h.76.77 1.03 1.04.93.92l.74-.16.73-.15 1.05-.04 1.04-.04.93-.16.93-.17 1.06-.03 1.06-.04.76-.16.76-.16.88-.04.87-.03.65-.01.65-.01h.6.61l.68-.15.67-.16.87-.04.87-.03.81-.01.81-.01h.81.8l.89-.16.88-.16.89-.03.88-.03.91-.17.91-.16.72-.04.72-.03.62-.01h.62l1.02-.2 1.01-.19.6-.01h.59 1.01l1-.01h.6l.6.01.71.18.71.18.66.01.67.01.73.19.72.18.67.02.68.01.87.18.86.18.57.02.56.02.7.19.7.18 1.09.02 1.08.02h.6.6 1 1l1.26.18 1.27.18.54.01.55.02.59.01h.59l.71.18.71.18.66.02.67.01.87.18.87.18.88.02.89.02h.65l.66.01.86.18.86.17.56.02.56.02.7.19.7.18 1.25.02 1.25.02h.79.79.97.96.83.83.8.8.97.97.82.83.81.8.8.8l.71-.16.71-.15.7-.04.71-.04h.95l.95-.01h1 .99.99 1 1 1 1 1 .83.83.81.8.8.8.64.63.77.77.96.96 1 .99 1.16 1.17 1.19 1.19 1.2 1.2l1.14-.16 1.13-.16 1.09-.03 1.08-.04.94-.16.94-.17 1.23-.03 1.23-.04h1.2l1.21-.01h1.03 1.03 1.17 1.17 1.03 1.03 1 1.01.83.84.8.81.8.8.8.8.96.97.82.83.97.97l.74-.16.75-.15.87-.04.88-.04h.64l.65-.01h.6.61l1.18-.19 1.18-.19.62-.01.62-.01h.6.6.77.76.8.79.63.64.77.77.63.62.85.84.81.8.63.63.6.6l.78.01h.78l.55.19.54.2h.84.85l.68.18.68.19.88.01.88.02h.6.59 1 1 .6.59 1.01 1 .83.84.56.57l.99.2.99.2h.81.81.59.6.6.6l.71.18.71.18.67.02.66.01h.78l.78.01h.8.79.8.8l.71-.16.71-.15.71-.04.7-.04h.62l.62-.01h1.01 1l1.18-.19 1.17-.2h.62l.62-.01h.6.6.77.76.8.79.8.8.8.8.79.8.64.63.61.6.6.6.6.6.6.6 1.01 1.01l.7.18.71.19 1.25.01 1.25.02h.79.79.8.8.8.8.63.64.77.77.63.62.61.6.84.84l.96.2.96.2 1.12.18 1.12.18.66.02.67.01.86.18.87.18.56.02.57.02.84.18.84.18.56.02.55.02h.59l.59.01h.59.6.6.6.84.84.56.57 1 1.01l.7.18.71.18 1.08.02 1.09.02h.76.76.8.79.8.8.63.63 1.01 1.02.59.6.6.61l.58.2.57.19h.86l.85.01h.57.56.76.76.63.63.76.77.8.79.8.8.63.63l.68-.16.69-.15 1.12-.05 1.13-.04h.82.83l.59-.19.6-.19.62-.01.63-.01h.58l.59.01.94-.2.95-.19.83-.2.83-.21h.59l.59-.01h.84.84.56.57.83.83.8.8.8.8.8.8.61.6.8.79.56.57 1 1 .59.59.6.6.77.76.8.79.8.8.96.97.82.83.97.97.99 1 1.33 1.33 1.88 1.89 1.48 1.48 1.41 1.42 1.4 1.4 1.23 1.23 1.04 1.04l1.08.17 1.08.17.67.03.67.04.59-.32.6-.32.6-.21.61-.21.6-.21.61-.21.8-.19.8-.2 1.1-.26 1.11-.26.68-.33.69-.32.54-.08.53-.07.99-.2.99-.2.61-.01h.61l1.01-.01h1.01l.6.01h.61l.57.19.58.19.94.19.94.19.91.02.91.01h.56.57.67.66.77.77.6.61l.96-.19.97-.19.84-.32.84-.32.54-.08.55-.08.54-.42.55-.42.56-.51.55-.5.38-.57.38-.57.38-.9.39-.89.01-1.06.02-1.05v-.6-.59-.6-.6-.84-.84l-.13-.64-.14-.64-.06-.53-.06-.53v-.59l-.01-.59v-.6-.6l.19-.73.19-.73.42-.54.42-.54.19-.93.18-.92.19-.55.19-.54.2-.99.2-.98.21-.9.21-.9v-.79l.01-.8-.19-.78-.2-.78-.2-1.17-.2-1.16-.34-1.09-.35-1.09-.05-.88-.06-.88v-.81l-.01-.81v-.97-.96-1-.99-1-1-.83-.83l-.16-.72-.15-.71-.19-.6-.18-.6-.05-.7-.05-.7-.33-.68-.32-.68-.34-.54-.34-.54-.31-.59-.32-.59-.34-.46-.33-.46-.28-.56-.28-.57-.33-.65-.33-.64-.3-.5-.3-.5-.47-.66-.46-.66-.53-.34-.52-.34-.38-.38-.38-.38-.79-.59-.78-.59-.7-.67-.69-.68-.61-.29-.61-.29-.78-.39-.78-.4-1.1-.18-1.1-.18-.75-.19-.75-.19-.65-.21-.65-.2-.75-.2-.74-.19-.71-.02-.7-.02-.78-.01h-.79-.63-.63-.6-.61-.84-.84-.56-.57-1-1-.76-.76-.79-.79-1.13-1.13l-1.25-.16-1.25-.17-1.14-.03-1.15-.02-1.41-.18-1.41-.17-1.15-.38-1.14-.38-1.12-.21-1.12-.21-1.12-.04-1.13-.03-1.57-.17-1.56-.18-1.38-.02-1.38-.03-1.45-.17-1.44-.18-1.2-.02-1.19-.03-.94-.18-.95-.18-.98-.19-.98-.2-.92-.02-.93-.03h-1.31l-1.32-.01h-1.22-1.22-1.37-1.37-1.06-1.06-.85-.84-.81-.8-.8-.8-.64-.63-.77-.77l-.52.15-.52.15-.69.04-.69.05-1.38.2-1.37.2h-.8l-.81.01-.52.15-.53.15-.87.04-.86.05-.53.15-.53.16-.96.05-.95.05h-.97-.97-.6-.59-.77-.76-.79-.8-.96-.97-.99-.99l-1.1.16-1.11.16-1.24.03-1.24.04h-1.21l-1.21.01-1.14.16-1.14.16-1.08.03-1.08.04h-1.18l-1.18.01h-1.53-1.53-1.42-1.42l-1.61-.17-1.62-.17-1.39-.03-1.39-.02-1.29-.18-1.28-.17-1.38-.2-1.37-.19-1.55-.2-1.56-.2-1.54-.03-1.55-.03h-1.76l-1.75-.01h-1.29-1.3-1.05-1.05-.84-.84l-1.05-.17-1.04-.18-.77-.02-.77-.02-1.03-.18-1.03-.17-.77-.03-.77-.02h-.63l-.62-.01h-.61-.6-.6-.6-.61-.61l-.57-.2-.58-.19h-.84l-.85-.01-1.15.19-1.14.2-.69.16-.69.16-.88.04-.87.04h-.97l-.98.01-.75.16-.74.15-1.21.04-1.21.04-.96.16-.97.17-1.06.03-1.06.04-.76.16-.76.16-.87.04-.88.04-.73.16-.72.16-1.04.04-1.05.04-1.11.16-1.1.17-1.25.03-1.24.04-1.15.16-1.15.17-1.08.03-1.08.03-.95.17-.94.16-.72.04-.73.03-.79.01h-.79l-.8.01h-.8-.8-.8-.96-.96l-.75.15-.74.16-.87.03-.88.03-.81.01h-.81l-.81.01h-.8-.63-.63-.61-.61-.6-.6l-.88.15-.89.14-1.11.05-1.12.05h-.6l-.59.01h-.6-.6-.77-.76-.96-.96l-.92.16-.92.16-1.06.03-1.05.03-.76.17-.76.16-.71.03-.71.04-.61.01h-.62l-1.02.2-1.01.19-.59.01h-.6l-.67.16-.67.16-.87.03-.87.04-.81.01h-.82-.96-.97-.83-.83-.8-.8-.64-.63-.61-.61l-.71-.18-.71-.18-.9-.02-.89-.01h-.59-.59l-.61-.01h-.61l-.58-.19-.57-.19-1.14-.19-1.13-.19-.61-.2-.61-.2-1.33-.19-1.33-.19-.66-.2-.65-.2-.67-.02-.67-.01-.59-.2-.58-.2-1.02-.2-1.01-.2-.82-.01h-.82-.99-1-.59-.6-.59-.6-.6-.6-.77-.76-.63-.62l-.68.15-.68.16-.7.04-.7.03-.51.16-.51.15-.69.05-.7.04-.61.01h-.61l-.82.2-.82.18-.83.01-.83.01h-.57-.56-.6-.59-.6-.6-.93-.93-.82-.82-.81-.8-.8-.8-.96-.97-.66-.66-.61-.61-.6-.6l-1.35.19-1.35.19-.64.01h-.64-.61l-.61.01h-.76-.77-.96-.96-.83-.82-.97-.97-.83-.83-.8-.81l-.89-.18-.88-.17-.96-.03-.96-.02h-.6-.59-.76-.77-.79-.79-.8-.8-.8-.8-.8-.8-.8-.8-.79-.8-.64-.63-.61-.6-.6-.6-1-1.01l-.67.15-.67.16-.78.19-.78.19-.61.19-.61.19-.7.06-.71.05-.51.16-.51.15-1 .2-1 .2-.69.04-.69.05-1.21.2-1.2.2-.61.01h-.62-.84-.85-.8-.8-.8-.8-.79-.8-.8-.8-.96-.96-.6-.59-.84-.84-.63-.63l-.67-.02-.66-.02-.67-.51-.68-.51-.43-1.84-.44-1.86v-.1-.11l.04-.1.03-.1.07-.09.06-.08.09-.06.09-.06.1-.03.1-.03.11.01.11.01.09.04.1.04.08.06.08.07.06.1.05.09.03.1.02.1-.01.11-.02.11-.04.09-.05.1-.07.07-.07.08-.1.05-.09.05-.1.02-.11.01-.1-.01-.11-.02-.09-.05-.1-.05-.07-.08-.07-.08-.05-.09 8.48 2.99h0 0 .1.1l.1-.03.1-.02.1-.05.09-.05.08-.07.08-.07.06-.09.06-.08.04-.1.04-.1.01-.11.02-.1-.02-.1-.01-.1-.04-.1-.03-.1-.06-.09-.06-.09-.08-.07-.08-.07-.1-.05-.09-.05-.1-.02-.11-.03-1.31-.16-1.33-.17-.84-.04-.84-.03h-.8l-.81-.01h-.79-.8l-.96.01h-.95l-.82-.2-.81-.19-.83-.01h-.83l-.82-.32-.81-.32-.54-.07-.54-.07-.81-.21-.81-.2-1.17-.2-1.17-.2-.62-.01h-.61-.77-.77-.63-.63-.77-.77l-.92-.15-.92-.15-.69-.05-.69-.04-.62-.01h-.61l-1.35-.2-1.36-.19-.81-.01h-.8l-1.07-.16-1.07-.16-1.07-.04-1.08-.03-1.18-.01h-1.17-1.04-1.03l-.92.17-.92.18-.74.02-.73.02-1.03.17-1.03.18-1.09.02-1.1.03-1.4.17-1.4.17-1.51.03-1.51.02-1.42.01h-1.42l-1.4.01h-1.4-1.07-1.07-1.18-1.17l-1.42.17-1.41.16-1.4.2-1.4.19-1.18.03-1.18.03-1.2.01h-1.19-1.04l-1.03.01h-.84-.84-.8-.81-.8-.8l-.89.17-.88.18-.89.02-.89.01-1.15.01h-1.15-1.03l-1.02.01h-1-1.01-1-1-.83-.83-.64-.64-.61-.6-.77-.76l-.89-.16-.89-.16-1.05-.04-1.05-.03-1.12-.17-1.11-.16-1.08-.04-1.08-.03-1.01-.01h-1.02-1-1-.83-.84-.8-.81-.8-.8-.8-.8-.96-.97-.99-.99H273h-1.16-1.03-1.02l-1.11-.17-1.11-.16-.91-.03-.9-.03-.56-.16-.55-.15-.86-.05-.87-.04-.72-.16-.72-.16-.79-.2-.78-.19-1.22-.04-1.22-.05h-1.04l-1.03-.01h-1.17-1.17-1.03H251h-1-1-.84-.84l-.74.18-.75.18-.68.01-.68.02-.87.18-.87.18-.96.19-.96.19-1.14.2-1.15.2-1.04.2-1.03.2-1.16.2-1.16.2-.81.02-.8.03-.8.01h-.79-.8l-.8.01h-.8-.8-.8-.8-.8-.8-.96-.97-1.16-1.15-1.03-1.03-1-1-1-1-.84-.83-.64-.64l-.86.17-.87.18-.71.02-.72.01-.96.01h-.95l-1.06.18-1.06.17-1.17.19-1.16.2-1.04.2-1.04.2-.93.02-.94.03-.65.01h-.66-.61-.61-.6-.6-.6l-.61.01-.71.18-.71.18-1.34.18-1.35.19-.71.02-.72.02-.78.01h-.79-.96-.96-.82-.83l-.53-.15-.53-.15-.87-.03-.86-.04-.64-.01h-.64l-1.07-.34-1.08-.34-.6-.2-.6-.2-.88-.06-.88-.05-.72-.16-.72-.16-.79-.2-.79-.19-.98-.2-.98-.2-.81-.2-.82-.2-1.05-.04-1.06-.05-.84-.01h-.84l-.72-.16-.72-.16-.69-.03-.7-.04-1.02-.2-1.01-.2h-.61l-.61-.01-1.36-.2-1.35-.19-.81-.01h-.81-.63-.63l-.68-.16-.68-.15-.7-.04-.7-.04-.7-.16-.7-.16-.7-.04-.7-.04h-.62l-.62-.01h-.61-.6-.6-.6-1.01-1-.6-.59-.6-.6-.6-.6l-.85.17-.86.18-.72.02-.71.02h-.96l-.95.01-1.06.17-1.06.17-.78.02-.77.03h-.79l-.8.01h-.79-.8l-.52-.15-.53-.16-.87-.04-.86-.04-.97-.01h-.98-1.16-1.16-1.19-1.19l-1.26.17-1.26.17-.98.02-.99.03-1.22.17-1.22.18-.98.02-.98.03-1.06.17-1.07.18-1.32.19-1.32.2-1.01.02-1 .03-1.33.01h-1.33-1.39l-1.38.01-1.45.17-1.45.16-1.09.2-1.1.2-.78.03-.78.02-1.19.18-1.19.17-1.13.03-1.14.02-1.52.01h-1.52l-1.47.17-1.47.17-1.25.2-1.25.2-.82.02-.83.03-.96.01h-.96-.83-.83-.8-.81-1.13-1.13-1.19-1.19-1.03-1.03-1l-1 .01-.57-.16-.56-.15-.78-.2-.78-.19-.71-.04-.71-.05-.62-.01h-.62l-.68-.16-.68-.16-.7-.03-.7-.04-.96-.01h-.95-.83-.82-.97-.97-.83-.83-.8-.8-.64-.63-.62-.61l-.58.19-.57.19-.95.19-.95.19-.89.42-.89.42-.62-.01h-.62-.96-.96-1-1l-.6.01h-.61l-.57.19-.57.19-.87.01-.86.01-.57.19-.56.2-.51.43-.51.43-.82.42-.81.41-.76.17-.76.16-.92.39-.93.39-.6.2-.59.2-.61.2-.61.2-.81.72-.81.72-.71.73-.71.72-.31.5-.3.5-.09.56-.1.56-.2 1.01-.2 1.01-.01.6v.59.6.59l-.2 1-.19 1-.19.78-.19.77-.21.63-.21.63-.2.8-.2.8-.2 1.18-.2 1.17-.01 1.02v1.03 1.16 1.17.62.62.61.6.6.6.6.6.6.6.6.6.6.61l.18.71.18.71.02 1.25.01 1.25v.63l.01.63.18.71.18.72.01.66.01.67.01.79v.78l.18.74.18.73.02.84.01.84.01.82v.81.64l.01.64.18.71.18.72.21 1.08.22 1.08.18.55.19.55.4 1.01.41 1.01.66.8.67.8.48.29.48.3.8.61.8.6.79.58.78.58.61.61.61.61.56.55.56.54.46.28.47.27.62.23.63.22.71.06.71.06.95.01h.95.99l.99.01h.84.83.64.64.6.61.59l.6-.01 1.01.2 1.01.19.83.01h.84l.8.01h.8.6.61l.59.27.58.27.57.12.57.12 1 .2.99.2 1.18.2 1.17.2 1.09.35 1.09.34.71.05.7.06h.62l.62.01 1.17.19 1.18.2.9.34.89.35.8.19.8.19.6.21.6.21.71.05.7.06 1.21.2 1.2.2.69.16.69.16.79.19.78.2 1.05.04 1.06.05.75.16.76.16.87.04.88.04.72.16.73.16.79.19.78.19.89.05.88.04.82.01.81.01h.64.63.77.77l.89.16.89.16 1.05.03 1.06.04h1l1.01.01h1 1 .84.83l.9-.18.89-.17.56-.02.57-.02.76-.01h.75l.74-.18.73-.18.68-.02.67-.01h.79l.78-.01.88-.17.88-.18.89-.02.89-.02 1.06-.18 1.05-.17 1.01-.2 1.01-.2.6-.02.61-.03.85-.18.84-.18.56-.02.56-.02h1.15l1.16-.01h.79.79.79.8.8.8.96.97l.92.16.92.16 1.06.03 1.06.04h.84l.84.01h.64.65.6.61.6.6.6.6l.86-.18.85-.17.88-.02.88-.02h.99l.98-.01h.99 1 1 1l1.07-.17 1.07-.17.78-.03.78-.02.73-.18.73-.19 1.1-.02 1.1-.02h.6.59.77.76.96.96.99 1 .83.83.8.81l.71.16.71.15.6.19.6.18.88.06.87.05h.65l.64.01h.61.61.6.6.76.77.79.79.97.96.83.83.97.97.66.66.78.77 1.21 1.21 1.03 1.03.6.59.6.6l.86-.18.85-.17.89-.02.88-.02.9-.18.9-.18.89-.02.9-.02h.82l.82-.01.89-.17.89-.18.67-.2.67-.21.66-.01.67-.02.72-.18.72-.19 1.16-.19 1.16-.2.55-.02.55-.02.84-.18.84-.18.88-.02.88-.02h.81.82l.97-.01h.97.82.83.97.98l.76-.18.77-.17 1.11-.02 1.11-.02 1.16-.01h1.17.79.79.8.8l1.03-.17 1.04-.17.93-.02.93-.02.83-.01h.82l.71.15.72.16.87.03.87.04.54.16.54.15.69.05.69.04 1.09.34 1.09.35.79.21.8.2 1.22.05 1.22.05.96.16.96.17 1.23.03 1.23.04h1.04l1.03.01h.84.84.81.8.81.8.63.63.77.78.96.96.82.83 1.13 1.14 1.02 1.02 1.01 1 1 1 .83.84.97.97 1.41 1.41.82.82.97.96 1.16 1.16l1.1-.17 1.1-.17 1.11-.02 1.11-.03h1.02l1.02-.01 1.07-.17 1.07-.17.94-.02.94-.03 1.22-.17 1.22-.18 1.14-.02 1.14-.03 1.56-.17 1.57-.17 1.38-.03 1.39-.03 1.13-.17 1.13-.18.95-.02.96-.03.91-.17.91-.18.73-.02.73-.02.96-.01h.95l1.22-.18 1.22-.17.97-.02.98-.02 1.16-.01h1.16 1.02l1.03-.01h.84.84.64.64.77.77.8.79 1.46 1.46.92.91.98.99.99 1 .83.84.97.97.83.82.64.64.6.6l1.19.2 1.18.19.87.17.88.16.88.04.89.03.98.01h.98l.92.16.93.16.89.04.89.03.82.01h.81.81.8.8.8.63.63.61.61.6.6.76.77.79.79.97.96l.74.16.75.16 1.04.03 1.04.04.84.01h.83l.54.15.53.16.7.04.69.04.62.01h.62.76.77 1.04 1.04.93.93l.9-.17.91-.18.89-.02.9-.02 1.06-.17 1.05-.18.94-.02.94-.03.9-.17.91-.18.73-.02.74-.02.62-.01h.62l.6-.01h.61l.85-.17.86-.18.72-.02.71-.01.79-.01h.79.79l.8-.01 1.04-.17 1.03-.17.77-.02.76-.02 1.03-.18 1.03-.18.61-.02.61-.02.59-.01h.6l.71-.19.71-.18.9-.02.89-.01h.99 1l.59-.01h.59l1.35.2 1.35.19.53.16.54.15.86.05.87.04.72.16.72.16.7.04.7.04.51.16.51.15.7.05.69.04.62.01h.62.6.6 1.01 1l1.07.16 1.07.15.7.04.7.04.62.01h.61l1.36.2 1.35.19.72.16.72.16 1.04.04 1.05.04.67.01h.67l.68.16.69.15.7.04.7.04.51.15.51.16.7.04.69.05h.79l.78.01h.8.79.97.96.83.83.8.8.97.97.82.83.81.8.8.8l.89-.17.89-.18.56-.02.56-.02h.92l.92-.01h.99.99.99 1 1 1 1 1 .83.83.81.8.8.8.64.63.77.77.96.96 1 .99 1.16 1.17 1.19 1.19 1.2 1.2l1.26-.17 1.26-.17.98-.02.99-.03 1.06-.17 1.07-.18 1.1-.02 1.1-.03h1.19l1.18-.01h1.03 1.03 1.17 1.17 1.03 1.03 1 1.01.83.84.8.81.8.8.8.8.96.97.82.83.97.97l.92-.17.91-.18.73-.02.74-.02h.62.62l.61-.01h.61l.71-.18.71-.18 1.08-.02 1.09-.01.6-.01h.59.77.76.8.79.63.64.77.77.63.62.85.84.81.8.63.63.6.6.76.75l.95.19.96.2.9.16.9.15 1.11.05 1.12.05h.6.59 1.01 1 .6.59 1.01 1 .83.84.56.57l.67.14.67.13.53.06.53.06h.6l.59.01h.6.59.6.59l1.35.2 1.36.19.8.01h.81.8.8.8.81l.88-.17.89-.18.56-.02.57-.02h.59l.58-.01h1.01 1.01l.7-.18.71-.18 1.09-.02 1.08-.02h.6.59.77.76.8.79.8.8.8.8.79.8.64.63.61.6.6.6.6.6.6.6 1 1l1.18.2 1.18.19.78.01h.78.8.79.8.8.8.8.63.64.77.77.63.62.61.6.84.84l.64.14.64.13.7.06.71.06 1.36.2 1.37.2.71.16.72.16.71.04.7.04.7.16.7.16.7.04.7.04h.62l.62.01h.61.6.6.6.84.84.56.57.99 1l1.18.19 1.17.2h.62l.62.01h.76.77.8.79.8.8.63.63 1.01 1.02.59.6.58.59l1 .19.99.2h1.02l1.02.01h.76.76.63.62.77.77.8.79.8.8.64.63l.86-.18.86-.17.95-.02.95-.03h.85.84l.55-.2.55-.2h.65.64.61.61l.55-.2.54-.2.99-.19.98-.2h.82l.82-.01h.83.83.56.57.83.83.8.8.8.8.8.8.61.6.8.79.56.57 1 1 .59.59.6.6.77.76.8.79.8.8.96.97.82.83.97.97.99 1 1.33 1.33 1.88 1.89 1.48 1.48 1.41 1.42 1.4 1.4 1.23 1.23 1.04 1.04l.94.16.93.16.55.04.55.03.83-.2.83-.2.51-.19.52-.2 1.01-.38 1-.38.87-.22.86-.22.82-.19.83-.2.56-.2.56-.2.68-.2.69-.2.52-.2.52-.2h1 1 1l1-.01h.58.58l.82.2.82.19 1.17.2 1.17.2 1.02.01h1.03.67.66.77.77.6.61l.85-.23.85-.24.59.02.6.03.74-.4.75-.39.78-.2.78-.19.51-.44.52-.43.71-.69.71-.69.37-.55.36-.56.49-1.09.48-1.1.06-.71.06-.71v-.62l.01-.62v-.61-.6-.6-.6-.84-.84l-.2-.96-.19-.96v-.81l-.01-.81v-.58V63l.44-.79.44-.8.15-.76.14-.76.35-.91.35-.91.06-.53.05-.54.33-.86.34-.86.07-.72.06-.72.01-.87v-.87l-.19-.55-.2-.55-.18-.93-.19-.92-.19-1.19-.2-1.19-.2-.61-.2-.61-.01-.65-.02-.66v-.77l-.01-.78v-.96-.96-1-.99-1-1-.83-.84l-.17-.89-.18-.89-.2-.67-.21-.67-.21-1.08-.22-1.07-.41-.85-.41-.84-.46-.51-.45-.5-.35-.71-.35-.71-.39-.78-.4-.78-.21-.54-.21-.54-.43-.57-.42-.56-.39-.54-.39-.53-.5-.37-.49-.37-.53-.52-.53-.51-.48-.29-.47-.3-.79-.58-.78-.58-.61-.61-.61-.61-.83-.43-.83-.42-1.13-.28-1.14-.27-1.27-.35-1.28-.36-.6-.19-.61-.19-.79-.21-.8-.21-.88-.04-.89-.05-.81-.01h-.81-.64-.63-.61-.61-.84-.84-.56-.57-1-1-.76-.76-.79-.79-1.13-1.13l-1.13-.17-1.13-.16-1.24-.03-1.25-.03-1.32-.17-1.32-.17-.97-.34-.98-.34-1.23-.24-1.24-.24-1.26-.05-1.26-.05-1.5-.17-1.49-.17-1.46-.03-1.47-.03-1.35-.17-1.36-.17-1.28-.03-1.27-.03-.8-.16-.8-.17-.98-.19-.98-.19-1.06-.05-1.07-.04h-1.34l-1.34-.01h-1.23-1.22-1.37-1.37-1.06-1.06-.85-.84-.81-.8-.8-.8-.64-.63-.78-.77l-.74.18-.73.18-1.21.2-1.22.2-.66.01-.66.02h-.79l-.78.01-.74.18-.73.18-.68.01-.68.02-.73.18-.72.19-.74.02-.73.02h-.96-.96-.6-.59-.77-.76-.79-.8-.96-.97-.99-.99l-1.23.17-1.22.17-1.14.02-1.15.03h-1.19-1.19l-1.25.18-1.26.17-.98.02-.99.03h-1.16-1.16l-1.52.01h-1.53-1.42-1.42l-1.52-.17-1.52-.16-1.47-.03-1.46-.03-1.19-.17-1.18-.16-1.37-.2-1.37-.19-1.57-.2-1.57-.2-1.63-.04-1.64-.04h-1.77l-1.77-.01h-1.3-1.3-1.05-1.05-.84-.84l-.9-.16-.9-.16-.88-.04-.89-.03-.91-.16-.91-.17-.89-.03-.89-.04h-.65l-.65-.01h-.61-.61-.6-.6-.59-.59l-.99-.19-.99-.2-1.14.18-1.14.17-1.34.2-1.33.19-.72.02-.71.02h-.95l-.96.01-.91.17-.9.18-1.07.02-1.06.02-1.08.17-1.08.18-.95.02-.94.03-.91.18-.91.17-.73.03-.74.02-.87.18-.87.18-.89.02-.89.02-1.21.17-1.21.18-1.14.02-1.14.02-1.25.18-1.25.17-.98.03-.98.02-1.07.18-1.06.18-.62.02-.61.02-.76.01h-.76-.8l-.79.01h-.8-.8-.96-.97l-.91.17-.91.17-.74.02-.73.02-.79.01h-.78-.8-.8l-.63.01h-.64-.6-.61-.6-.6l-1.12.18-1.13.18-.88.02-.88.01h-.59-.6-.59-.6-.77-.76-.96-.96l-1.07.18-1.06.17-.94.02-.94.02-.9.18-.91.18-.57.02-.57.02-.6.01h-.59l-.71.19-.71.18-.9.01-.89.02-.85.17-.85.18-.71.01-.72.02-.78.01h-.79-.96-.96-.83-.83-.8-.8-.64-.63-.6-.6l-1.01-.19-1.01-.18-.6-.01h-.6l-.59-.01h-.6l-.59.01h-.59l-.99-.2-.99-.19-1.09-.35-1.08-.34-.71-.06-.7-.05-.7-.16-.69-.16-.6-.19-.6-.19-.87-.05-.87-.05-1.03-.2-1.04-.2-.83-.2-.83-.2-.6-.01h-.59-1-1.01-.59-.6-.59-.6-.6-.6-.77-.76-.63-.63l-.86.17-.86.18-.56.02-.56.02-.7.18-.7.19-1.09.02-1.1.02-.57.19-.57.19-.66.01h-.66-.96l-.96.01h-.6-.59-.6-.6-.93-.93-.82-.82-.81-.8-.8-.8-.96-.97-.66-.66-.61-.61-.61-.6l-.71.18-.71.18-.67.01-.67.01-.61.01h-.62-.6-.6-.76-.77-.96-.96-.83-.82-.97-.97-.83-.83l-.8.01h-.8l-.72-.16-.71-.16-1.13-.04-1.13-.04h-.6-.6-.76-.77-.79-.79-.8-.8-.8-.8-.8-.8-.8-.8-.79-.8-.64-.63-.61-.6-.6-.6-1.01-1.01l-.85.17-.85.18-.8.19-.81.2-.65.21-.66.2-1.2.2-1.19.21-1.01.19-1.01.2-1.19.2-1.19.2-1.08.01-1.08.02h-.84-.84-.8-.8-.8-.8-.79-.8-.8-.8-.96-.96-.6-.59-.84-.84-.63-.63l-.54.02-.54.03-.59-1.63-.58-1.63h0 0l-.03-.1-.04-.1-.06-.08-.06-.09-.09-.06-.09-.06-.1-.03-.1-.03-.11.01-.11.01-.1.03-.09.04-.09.07-.08.07-.05.09-.06.09-.02.11-.02.1.01.11.01.1z"/></svg>