<svg preserveAspectRatio="none" xmlns="http://www.w3.org/2000/svg" version="1.1" viewBox="8.49 8.51 462.51 462.79" width="462.51" height="462.79"><path d="m130.136 191.204.06-.04q.06-.04.13-.06.06-.02.13-.03.07-.01.13-.01t.13.02q.07.01.13.04t.12.07q.05.04.1.09.04.05.08.11t.06.13q.02.06.03.13.01.07.01.13t-.02.13q-.01.07-.04.13t-.07.12q-.04.05-.09.1-.05.04-.65.41-.61.37-.21 1.2.4.84.67 2.2.28 1.37.33 2.95.06 1.58.07 3.73.01 2.16.01 4.79v5.93q0 3.29-.18 6.52-.18 3.23-.22 5.89-.04 2.65-.04 5.04-.01 2.38-.2 4.88-.17 2.51-.4 5.24-.22 2.73-.82 5.49-.6 2.76-1.08 5.49-.48 2.72-.58 4.53-.09 1.81-.11 3.24-.02 1.44.15 2.61.18 1.17.39 2.11.21.93.36 1.36.15.43.33.51.19.07.24.11.05.05.09.11.04.05.07.12.03.06.04.12.02.07.02.14t-.01.14q-.01.06-.03.13l-.06.12q-.04.06-.09.11-.04.05-.1.09-.06.04-.12.07-.06.03-.13.04-.06.02-.13.02t-.14-.01q-.07-.01-.13-.03-.07-.03-.12-.06-.06-.04-.11-.09-.05-.04-.09-.1-.04-.05-.07-.12-.03-.06-.04-.13-.02-.06-.02-.13-.01-.07.01-.14.01-.07.03-.13l.06-.12q.04-.06.08-.11.05-.05.11-.09.05-.04.11-.07.07-.03.13-.04.07-.02.14-.02t.14.01q.06.01.13.03l.12.06q.06.04.11.08.05.05.09.11.04.05.07.12.03.06.04.12.02.07.02.14t-.01.14q-.01.06-.03.13l-.06.12q-.04.06-.09.11-.04.05-.1.09-.06.04-.12.07-.06.03-.13.04-.06.02-.13.02t-.14-.01q-.07-.01-.13-.03-.07-.03-.4-.22-.33-.18-.63-.88-.31-.7-.54-1.72-.23-1.01-.41-2.27-.19-1.25-.17-2.75.02-1.51.12-3.37.1-1.87.59-4.65.49-2.78 1.08-5.51.6-2.73.81-5.41.22-2.68.41-5.16.18-2.48.19-4.84 0-2.36.04-5.03.04-2.68.22-5.9.19-3.23.18-6.5v-5.91q0-2.63-.01-4.77-.01-2.14-.06-3.65-.05-1.52-.31-2.77-.25-1.25-.65-2.47-.41-1.22.45-1.96l.86-.72Z" fill="#1e1e1e"/><path d="m246.07 269.846 4.22-.01q-.07-.01-.14-.03-.06-.02-.12-.05-.06-.03-.12-.08-.05-.04-.09-.09-.05-.06-.08-.12t-.05-.12q-.02-.07-.03-.14-.01-8.63 0-.12.01-.07.03-.14.02-.06.05-.12.03-.06.08-.12.04-.05.09-.09.06-.05.12-.08t.12-.05q.07-.02.14-.03 4.34-.01.25-.01.19 0-.16.35-.34.35 0 0 .35-.35.6-.24.25.1.35.35.1.24 0 .48-.1.25-.35.35-.25.11-.6-.24-.34-.35 0 0 .35.35 0 .35-.34 0-1.21-.01-.88 0-2.24-.19-1.36-.2-2.97-.43-1.61-.22-3.28-.27-1.67-.05-3.17-.05l-3.18-.02q-1.69 0-3.39-.19-1.7-.2-3.59-.24-1.9-.04-3.86-.24-1.97-.21-3.32-.44-1.35-.24-2.56-.28-1.22-.05-2.24-.06-1.02 0-2.03-.01-1.01 0-2.38-.2-1.37-.19-3.01-.23-1.64-.04-2.94-.24-1.31-.21-2.13-.24-.82-.04-1.56-.05l-1.54-.02q-.79 0-1.34-.2t-1.18-.23q-.63-.03-1.54-.04-.91-.01-1.87-.01h-8.94q-.78 0-1.72.19-.93.19-1.74.24-.81.04-1.75.04-.94.01-1.71.01-.78.01-1.51.01h-20.04q-.69 0-1.12-.02-.43-.01-.7.17-.28.19-.63.25t-.81.07q-.47.01-.95.01h-5.41q-.67-.01-1.19.18-.52.2-1.08.24-.55.05-1.05.06-.51.01-1 .01h-7.18q-.25 0-.58-.02-.34-.01-.59.17-.26.19-.61.25t-.62.07q-.27.01-.71.01-.45.01-.73.01h-.73q-.44 0-.66-.01-.21-.01-.63.18-.43.19-.78.24-.35.05-.68.06-.34 0-.41-.02-.06-.02-.13-.05-.06-.03-.11-.07-.06-.04-.1-.09-.05-.05-.08-.11-.04-.06-.06-.13-.02-.06-.03-.13-.01-.07 0-.14 0-.06.02-.13t.05-.13q.03-.06.07-.11.04-.06.09-.1.06-.05.12-.08.06-.04.12-.06.07-.02.13-.03.07-.01.14 0 .07 0 .13.02.07.02.13.05.06.03.12.07.05.04.1.09.04.05.08.11.03.06.05.13.03.06.03.13.01.07.01.14l-.02.13q-.02.07-.05.13-.03.06-.08.12-.04.05-.09.09-.05.05-.11.08-.06.04-.12.06-.07.02-.14.03-.07.01-.13.01-.07-.01-.14-.03-.06-.02-.13-.05-.06-.03-.11-.07-.06-.04-.1-.09-.05-.05-.08-.11-.04-.06-.06-.13-.02-.06-.03-.13-.01-.07 0-.14 0-.06.02-.13t.05-.13q.03-.06.07-.11.04-.06.09-.1.06-.05.12-.08.06-.04.12-.06.07-.02.13-.03.07-.01.3-.02.24 0 .46-.03.21-.03.68-.23.47-.2.83-.21h1.53q.28 0 .71-.01h.66q.21-.01.37-.02.15-.02.46-.22.31-.21.85-.22.54-.02.79-.02h7.18q.48 0 .96-.01.47-.01.91-.04.44-.03.99-.23t1.34-.2q.79-.01 1.52-.01h4q.47 0 .89-.01.41 0 .57-.02.16-.02.49-.22.32-.2.95-.22.63-.01 1.32-.01h20.03q.74 0 1.51-.01.77 0 1.7-.01.92 0 1.66-.04.74-.04 1.69-.23.95-.2 1.81-.2h9.02q.96 0 1.89.01.92.01 1.67.06.76.04 1.28.23.53.2 1.21.19.67 0 1.43.01.76.01 1.63.05.87.04 2.17.24 1.3.21 2.93.24 1.64.04 3 .24 1.36.19 2.32.19.96.01 2 .01 1.03.01 2.31.06 1.27.05 2.64.29 1.38.24 3.29.44 1.91.2 3.81.23 1.9.04 3.59.24 1.69.19 3.34.19l3.16.02q1.51 0 3.22.05 1.72.05 3.37.29 1.65.23 2.96.42 1.32.2 2.14.2.82-.01 1.16-.01.35 0 .6.11.25.1.35.35.1.24 0 .48-.1.25-.35.35-.25.11-.44.11h-4.47Zm-.486-80.831 4.22-.01q-.07-.01-.14-.03-.06-.02-.12-.05-.06-.03-.12-.08-.05-.04-.09-.09-.05-.06-.08-.12t-.05-.12q-.02-.07-.03-.14-.01-8.63 0-.12.01-.07.03-.14.02-.06.05-.12.03-.06.08-.12.04-.05.09-.09.06-.05.12-.08t.12-.05q.07-.02.14-.03 4.34-.01.25-.01.19 0-.16.35-.34.35 0 0 .35-.35.6-.24.25.1.35.35.1.24 0 .48-.1.25-.35.35-.25.11-.6-.24-.34-.35 0 0 .35.35 0 .35h-11.61q-1.69 0-3.57-.01-1.88 0-3.99.2-2.12.19-4.11.43-2 .23-3.78.28-1.78.05-3.69.05l-4.05.02h-4.33q-2.2 0-4.59-.2-2.38-.19-3.79-.23-1.42-.04-2.64.14-1.22.18-2.27.42-1.05.23-2.27.28-1.21.05-3.03.06-1.82.01-3.74-.18-1.92-.2-3.66-.23-1.73-.04-2.99-.05-1.27-.01-1.91.18-.64.19-1.21.23-.57.05-1.27.05-.7.01-1.46.01-.75 0-1.9-.2-1.16-.2-2.33-.43-1.17-.23-2.36-.27-1.18-.04-1.95-.06-.78-.01-1.48.17-.69.19-1.46.43t-1.75.29q-.97.05-1.95.06-.97.01-1.75.01t-1.32.01h-1.05q-.49 0-1.08-.02-.6-.01-.9-.21-.31-.2-.66-.22-.35-.02-.81-.03-.47-.01-.95-.01h-1.17q-.68 0-1.34-.01-.66 0-1.18.19-.52.19-1.21.23-.69.04-1.21.24-.53.2-1.08.25-.56.05-1.06.06-.5.01-.8.01h-5.42q-.25 0-.38-.02t-.35.17q-.22.18-.57.25t-.62.08q-.27.01-.4-.01-.14-.02-.35.16-.22.19-.58.26-.35.06-.62.07-.27.01-.52.01-.25.01-.49.01h-1.46q-.25 0-.27-.08-.03-.07.05-.1t.08.16q-.01.19-.05.26-.05.06.31.26.36.19.46.48.11.29.32.53.21.24.24.3.03.07.04.13.02.07.02.14t-.01.14q-.01.06-.04.13-.02.06-.06.12-.04.06-.08.11-.05.05-.11.09-.05.04-.12.06-.06.03-.13.05-.06.01-.13.01t-.14-.01q-.06-.01-.13-.03l-.12-.06q-.06-.04-.11-.09-.05-.05-.09-.1-.04-.06-.07-.12-.02-.06-.04-.13-.01-.07-.01-.14-.01-.06 0-.13.02-.07.04-.13.03-.07.06-.13.04-.05.09-.1.04-.05.1-.09.06-.04.12-.07.06-.03.13-.04.07-.02.13-.02.07 0 .14.01t.13.04q.07.02.12.06.06.03.11.08t.09.1q.04.06.07.12.03.07.04.13.02.07.02.14t-.01.14q-.01.06-.04.13-.02.06-.06.12-.04.06-.08.11-.05.05-.11.09-.05.04-.12.06-.06.03-.13.05-.06.01-.13.01t-.14-.01q-.06-.01-.13-.03l-.12-.06q-.06-.04-.11-.09-.05-.05-.3-.35t-.3-.5q-.05-.2-.47-.49t-.46-.71q-.04-.41-.03-.69.02-.27.2-.69.18-.43.64-.5.45-.07.7-.07h1.46q.24 0 .48-.01h.45q.22-.01.35-.02.14-.01.41-.22.27-.2.62-.22.35-.02.57-.03.22-.01.35-.02.14-.01.41-.21.27-.21.63-.23.36-.02.61-.02h5.41q.29 0 .77-.01.47-.01.91-.04.43-.03.96-.23.54-.21 1.23-.25.69-.04 1.24-.23.54-.2 1.32-.21h2.64q.48 0 .98.01.49.01 1.04.07.54.06.82.25.28.19.67.17.39-.01.88-.01h1.05q.54-.01 1.32-.01.77 0 1.73-.01.95-.01 1.83-.05.87-.04 1.57-.27.7-.22 1.51-.42.8-.2 1.68-.19.88.01 2.12.05 1.25.05 2.47.28 1.22.24 2.3.43 1.09.19 1.78.18.69 0 1.36-.01.68 0 1.15-.04.47-.03 1.14-.22.67-.2 2.05-.2 1.37.01 3.14.05 1.76.04 3.67.23 1.92.19 3.69.18 1.77-.01 2.91-.05 1.14-.04 2.15-.27 1.02-.23 2.32-.42 1.31-.19 2.8-.15 1.49.04 3.87.22 2.38.2 4.55.2h4.3l4.04-.02q1.9 0 3.64-.05 1.74-.05 3.72-.27 1.97-.23 4.12-.43 2.15-.19 4.07-.19 1.91-.01 3.6-.01h11.61q.35 0 .6.11.25.1.35.35.1.24 0 .48-.1.25-.35.35-.25.11-.44.11h-4.47Z" fill="#1e1e1e"/><path d="m249.158 268.839.07-.01q.07-.02.14-.02.05 0 .12.01.07.01.13.03.07.03.13.07.05.03.1.08t.09.1q.04.06.07.12.03.06.04.13.02.07.02.14 0 .05-.01.12-.01.07-.03.13-.03.07-.07.13-.03.05-.08.1t-.1.09q-.06.04-.12.07-.06.03-.39.11-.34.09-.31.02.03-.07.15.16t.3 1.25q.19 1.02.38 2.6.19 1.57.38 3.4.19 1.84.38 3.88.19 2.05.23 4.14.03 2.09.04 4.19.01 2.11-.14 3.74-.15 1.64-.18 2.86t-.04 2.52v2.63q-.01 1.32-.01 2.8v2.81q0 1.33.14 2.29t.48 1.78q.33.83.41 1.66.08.83.09 1.67 0 .85-.3 1.62-.31.78-.36 1.33-.05.55-.07.86-.03.31.12.52.14.22.19.67.05.44.05.98.01.54.01 1.16-.01.62-.17 1.06-.15.44-.17.62-.02.17-.03.5 0 .33-.01.7v2.99q-.01.27-.19.68-.18.42-.38.84-.21.41-.42.67-.21.26-.38.37-.15.11-.35.11-.2.01-.37-.1-.17-.11-.25-.29-.08-.18-.12-.45-.04-.28-.05-.57 0-.29.02-.36.01-.06.04-.13.03-.06.08-.11.04-.06.09-.1.05-.05.11-.08.06-.04.12-.06.07-.02.14-.03.06-.01.13 0 .07 0 .14.02.06.01.13.04.06.03.1.08.06.04.1.09.05.05.08.11.04.06.06.12.02.07.03.14.01.06.01.13-.01.07-.03.14-.01.06-.04.13-.03.06-.08.11-.04.06-.09.1-.05.05-.1.08-.06.04-.12.06-.07.02-.14.03-.06.01-.13.01-.07-.01-.14-.03-.06-.01-.13-.04-.06-.03-.11-.08-.06-.04-.1-.09-.05-.05-.08-.11-.04-.06-.06-.12-.02-.07-.03-.14-.01-.06-.01-.13.01-.07.03-.14.01-.06.04-.13.03-.06.08-.11.04-.06.09-.1.05-.05.11-.08.06-.04.12-.06.07-.02.14-.03.06-.01.13 0 .07 0 .14.02.06.01.13.04.06.03.1.08.06.04.1.09.05.05.08.11.04.06.06.12.02.07.03.14.01.06.02.25 0 .18.04.42.03.24-.22-.04-.24-.29-.08.27.18.56.01.67-.15.11-.35.11-.2.01-.37-.1-.17-.11-.25-.29-.08-.18.36-.56.44-.39.08-.28-.37.12-.2-.08.16-.19.32-.52t.28-.6q.12-.26.11-.39-.01-.13-.01-.36v-2.49q.01-.37.01-.75.01-.37.05-.66.04-.29.19-.68.14-.4.14-.89l-.02-1.01q0-.51-.01-.77-.02-.25-.17-.51-.16-.26-.16-.79 0-.54.07-1.21.07-.67.37-1.41.3-.73.28-1.41-.02-.68-.08-1.39-.06-.7-.39-1.51-.33-.8-.48-1.89-.16-1.1-.16-2.48-.01-1.39-.01-2.86 0-1.48.01-2.81v-2.63q.01-1.31.04-2.57.03-1.25.18-2.87.14-1.63.13-3.69-.01-2.06-.04-4.12t-.22-4.08q-.19-2.02-.38-3.84-.18-1.83-.37-3.37-.19-1.55-.35-2.48-.17-.94-.32-1.39-.15-.45.07-.88.21-.42.78-.64l.57-.22Z" fill="#1e1e1e"/><path d="m373.273 235.114-.01-4.22q-.01.07-.03.14-.02.06-.05.12-.03.06-.08.12-.04.05-.09.09-.06.05-.12.08t-.12.05q-.07.02-.14.03-8.63.01-.12 0-.07-.01-.14-.03-.06-.02-.12-.05-.06-.03-.12-.08-.05-.04-.09-.09-.05-.06-.08-.12t-.05-.12q-.02-.07-.03-.14-.01-4.34.07-.43.08-.37.26-.43.17-.05.2-.21.03-.16.18-.19.16-.03.19-.19t.19-.19q.16-.03.12-.1-.03-.06.17-.32.21-.26.24.23.02.48.02-.02-.01-.51.23-.61.24-.1.49 0 .24.09.35.33.11.23-.48.51-.59.27-.1.27.48-.01.05.42-.44.43-1.28 1.11-.83.69-2.06 1.89t-2.85 2.51q-1.62 1.31-3.15 2.63-1.53 1.31-2.91 2.5-1.38 1.18-2.73 2.18-1.34 1-2.68 1.96-1.33.96-2.66 1.91t-2.94 2.04q-1.61 1.09-3.13 2.5-1.53 1.42-3.05 2.77-1.53 1.36-2.92 2.56-1.39 1.19-3.04 2.2-1.65 1-3.19 2.11-1.54 1.11-2.89 1.92-1.36.82-2.5 1.86t-2.12 2.15q-.98 1.11-1.95 2.26-.97 1.15-2.11 2.16-1.13 1.02-2.74 2.14-1.61 1.13-3.46 2.27-1.85 1.14-3.56 2.11-1.7.97-2.75 1.87-1.05.91-1.71 1.84-.67.94-1.43 1.76-.77.83-2.01 1.92-1.23 1.09-2.55 2.07-1.33.99-2.81 1.95t-2.66 1.74q-1.18.78-2.01 1.52-.82.75-1.58 1.49-.75.74-1.35 1.48-.59.74-1.33 1.66-.74.93-1.52 1.74-.77.81-1.72 1.61t-2.09 1.43q-1.13.63-2.09 1.05-.96.41-1.86 1.07-.91.66-1.55 1.25t-1.37 1.16q-.74.57-1.46 1.26-.73.7-1.33 1.44-.6.75-1.34 1.52-.74.77-1.53 1.56-.8.8-1.76 1.29l-1.74.87q-.79.4-1.81.9-1.01.5-1.64 1.18-.62.67-1.35 1.41-.73.73-1.16 1.31-.43.58-.82 1.16-.4.57-.95 1.31-.55.75-1.12 1.36-.58.62-.97 1.02-.4.39-.62.77-.23.38-.53.7-.3.33-.51.38-.21.06-.54.37-.34.3-.61.39-.26.08-.64.26-.38.17-.83.22-.44.04-.73.03-.3-.01-.45.11-.15.12-.52.32-.37.19-.71.36-.34.17-.52.32-.19.16-.37.34-.19.18-.38.37-.19.18-.53.53-.34.34-.6.59-.25.25-.54.39-.29.14-.4.37-.1.23-.34.32-.24.08-.44.25-.19.16-.29.13-.1-.03-.13.13-.04.15-.19.18t-.11.07q.04.05.01.11t-.08.11q-.04.05-.09.1-.06.04-.12.07-.06.03-.12.05-.07.02-.14.03-.06.01-.13 0t-.14-.03q-.06-.02-.12-.05-.06-.03-.12-.08-.05-.04-.09-.09-.05-.06-.08-.12t-.05-.12q-.02-.07-.03-.14v-.13q.01-.07.03-.14.02-.06.05-.12l.08-.12q.04-.05.1-.09.05-.05.11-.08t.13-.05q.06-.02.13-.03h.14q.07.01.13.03.07.02.13.05.06.04.11.08t.1.1q.04.05.07.11.03.06.05.13.02.06.03.13.01.07 0 .14t-.03.13q-.02.07-.05.13-.03.06-.08.11-.04.05-.09.1-.06.04-.12.07-.06.03-.12.05-.07.02-.14.03-.06.01-.13 0t-.14-.03q-.06-.02-.12-.05-.06-.03-.12-.08-.05-.04-.09-.09-.05-.06-.08-.12t-.05-.12q-.02-.07-.03-.14v-.13q.01-.07.14-.41.13-.33.29-.37.16-.04.21-.2.04-.16.32-.25.27-.1.45-.25.17-.15.27-.14.09.01.12-.15.04-.15.44-.4t.59-.44q.18-.18.52-.53.34-.34.54-.53.19-.19.4-.39.21-.2.47-.42.27-.22.68-.43.4-.21.73-.38.33-.17.63-.36.3-.18.77-.2l.76-.05q.3-.02.62-.17.31-.16.49-.2.17-.04.52-.35.34-.32.52-.36.17-.03.27-.17.1-.13.34-.53.24-.4.68-.85.44-.45.98-1.03.55-.58 1.07-1.28.51-.7.91-1.28.39-.57.86-1.2t1.23-1.4q.75-.76 1.46-1.51t1.83-1.32q1.12-.56 1.91-.96.79-.39 1.65-.82.86-.42 1.56-1.14.71-.72 1.43-1.46.71-.75 1.32-1.5.61-.76 1.4-1.51.78-.75 1.52-1.32.73-.58 1.39-1.18.65-.59 1.65-1.32 1-.72 1.99-1.16 1-.43 2.05-1.01 1.04-.59 1.91-1.32.87-.73 1.6-1.49.73-.77 1.44-1.67l1.35-1.67q.62-.77 1.42-1.55.79-.78 1.66-1.57.88-.79 2.1-1.6 1.23-.81 2.7-1.76 1.46-.95 2.75-1.9 1.28-.96 2.46-2.01 1.19-1.05 1.91-1.81.71-.77 1.4-1.73.69-.97 1.85-1.97 1.16-1.01 2.91-2.01 1.76-1 3.58-2.12t3.38-2.21q1.56-1.09 2.62-2.04 1.07-.96 2.01-2.08.95-1.12 1.96-2.26 1.01-1.14 2.23-2.25 1.23-1.11 2.61-1.95 1.39-.84 2.93-1.95 1.54-1.11 3.16-2.09 1.63-.99 2.97-2.15 1.34-1.16 2.86-2.5 1.51-1.34 3.07-2.79 1.56-1.45 3.2-2.56 1.65-1.12 2.97-2.06 1.33-.95 2.65-1.9 1.33-.96 2.65-1.94 1.32-.99 2.68-2.15 1.36-1.17 2.9-2.49 1.54-1.33 3.14-2.62 1.61-1.3 2.83-2.5 1.23-1.18 2.08-1.87.83-.69 1.24-1.1.41-.41.65-.51.24-.1.49 0 .24.09.35.33.11.23.03.48-.09.25-.2.36-.1.1-.2.36-.1.25-.26.28-.16.03-.19.19t-.19.19q-.15.03-.18.19-.03.14-.16.15-.13.01-.05-.06l.08 4.21Z" fill="#1e1e1e"/><path d="m370.189 229.64 4.22-.01q-.07-.01-.14-.03-.06-.02-.12-.05-.06-.03-.12-.08-.05-.04-.09-.09-.05-.06-.08-.12t-.05-.12q-.02-.07-.03-.14-.01-8.63 0-.12.01-.07.03-.14.02-.06.05-.12.03-.06.08-.12.04-.05.09-.09.06-.05.12-.08t.12-.05q.07-.02.14-.03 4.34-.01.33.02.27.02.56.24.3.22.42.35.11.12.2.12.1.01-.27.18-.37.17.19.11.57-.06.66.13.08.2.04.41-.04.21-.2.35-.16.15-.61-.34-.45-.49-.41-.08.05.4-.19.13t-.71-.61q-.48-.33-1.21-.87t-1.62-1.4q-.89-.86-2.26-1.77-1.37-.91-3.02-2.02-1.66-1.1-2.94-2.12-1.28-1.01-2.17-2.15-.89-1.15-1.67-2.29-.79-1.14-1.53-2.26-.75-1.11-1.62-2.05-.87-.94-1.91-1.71-1.04-.76-2.3-1.37-1.26-.6-2.28-1.18-1.02-.59-2.15-1.17t-2.29-1.47q-1.17-.89-2.18-1.7-1.01-.8-1.83-1.74-.83-.94-1.6-1.88-.76-.93-1.64-1.85-.88-.92-2.09-1.84t-2.96-2.01q-1.76-1.09-3.32-2.07-1.56-.97-2.97-1.8-1.41-.82-2.32-1.76-.9-.94-1.96-1.86-1.06-.92-2.64-2.02-1.57-1.09-3.41-2.53-1.84-1.43-3.43-2.64-1.59-1.2-2.68-2.22-1.09-1.01-1.91-1.81-.81-.8-1.88-1.71l-2.32-1.99q-1.25-1.07-2.86-2.05-1.61-.97-2.88-1.94-1.26-.98-2.29-1.95-1.03-.98-2-2.08-.96-1.11-1.74-1.91-.78-.81-1.82-1.71-1.04-.9-2-1.53t-1.75-1.21q-.79-.57-1.56-.99-.77-.43-1.71-1.14-.94-.7-2.04-1.61-1.11-.91-2.12-1.88-1-.96-1.48-1.59-.48-.62-.86-.88-.39-.26-.94-.8-.56-.53-1.1-1.06-.54-.54-1.38-1.08-.84-.55-1.43-.94-.59-.4-1.32-.63-.74-.24-1.52-.75-.78-.52-1.54-.93-.76-.4-1.49-.92-.74-.53-1.46-.77-.73-.25-1.16-.44-.43-.19-.72-.25t-.76-.47q-.47-.4-.68-.75-.21-.36-.68-.7-.47-.35-.91-.77-.45-.43-.71-.84-.26-.41-.59-.91-.33-.51-.66-.87-.33-.37-.82-.72-.5-.36-1.08-.76-.57-.39-.98-.76-.41-.37-.79-.6-.38-.22-.55-.38-.16-.16-.5-.2-.33-.03-.65-.25-.32-.21-.53-.41-.22-.21-.33-.34-.11-.13-.18-.13h-.23l-.45-.03q-.3-.02-.51-.18-.22-.16-.3-.17-.08 0-.46-.08-.37-.08-.43-.25-.06-.18-.02-.11.05.06-.32-.02t-.42-.26q-.06-.17.22-.16.27.01.37 0 .09 0 .06.06t-.08.11q-.04.05-.1.09-.05.05-.11.08t-.13.05q-.06.02-.13.02-.07.01-.14 0t-.13-.03q-.07-.02-.13-.05-.06-.04-.11-.08-.05-.05-.09-.1-.05-.05-.08-.12-.03-.06-.05-.12-.02-.07-.02-.14-.01-.07 0-.13.01-.07.03-.14.02-.06.05-.12.04-.06.08-.11.05-.06.1-.1.05-.04.12-.07.06-.03.12-.05.07-.02.14-.03.07 0 .13.01.07 0 .14.03.06.02.12.05.06.03.11.08.06.04.1.1.04.05.07.11.03.06.05.13.02.06.03.13 0 .07-.01.14 0 .07-.03.13-.02.07-.05.13-.03.06-.08.11-.04.05-.1.09-.05.05-.11.08t-.13.05q-.06.02-.13.02-.07.01-.14 0t-.13-.03q-.07-.02-.13-.05-.06-.04-.11-.08-.05-.05-.09-.1-.05-.05-.08-.12-.03-.06-.05-.12-.02-.07-.02-.14-.01-.07 0-.13.01-.07.19-.43.18-.37.77-.3.6.07.61.21.02.13.02.06t.36.05q.36.13.38.26.02.14.02.07t.3-.01q.3.06.46.2.17.14.25.12.08-.02.3-.01.23.01.54.09.31.07.58.32.27.24.45.41.17.17.3.27.12.1.48.15.37.04.66.28.29.23.68.46.39.23.82.62.42.38.97.75.54.37 1.1.78.57.41.98.87.42.45.79 1.01.37.56.57.9.21.35.57.68.36.33.89.74t.76.79q.24.37.47.59.23.22.43.24.19.03.67.24.48.21 1.27.48.79.28 1.57.83.79.55 1.54.95.75.4 1.48.88.72.49 1.45.73.74.23 1.41.67.67.44 1.56 1.03.9.58 1.49 1.16.58.58 1.1 1.07.51.49.93.79.43.3.94.96.52.66 1.47 1.57t2.02 1.79q1.08.89 1.97 1.56.88.67 1.64 1.09.77.42 1.58 1.01.81.59 1.8 1.23.98.65 2.08 1.6 1.1.95 1.92 1.79.81.85 1.76 1.94.96 1.09 1.94 2.02.98.93 2.18 1.86 1.21.93 2.83 1.91 1.63.98 2.93 2.09 1.3 1.11 2.38 2.04 1.08.93 1.91 1.74.83.81 1.88 1.79 1.06.98 2.63 2.17 1.57 1.19 3.39 2.62 1.83 1.42 3.42 2.53 1.59 1.1 2.7 2.07 1.11.96 1.97 1.86.86.9 2.2 1.67 1.34.78 2.91 1.76t3.34 2.09q1.78 1.11 3.06 2.08 1.28.98 2.22 1.95.94.98 1.71 1.92.77.95 1.55 1.84.78.88 1.74 1.64.96.76 2.06 1.61 1.11.86 2.2 1.42 1.09.55 2.1 1.13 1.01.58 2.31 1.2 1.29.63 2.44 1.47 1.14.84 2.1 1.87.95 1.03 1.72 2.19.78 1.15 1.55 2.27.77 1.13 1.59 2.19.82 1.07 2.02 2.01 1.19.94 2.83 2.02 1.63 1.09 3.04 2.04 1.42.95 2.33 1.82.91.87 1.59 1.38.68.51 1.22.9.53.38.83.7.29.32.38.51.08.2.04.41-.04.21-.2.35-.16.15-.37.18-.22.02-.5-.05t-.55-.3q-.26-.23-.32-.31-.07-.09-.1-.07l-4.31.03Z" fill="#1e1e1e"/><path d="m244.34 131.083 4.22-.01q-.07-.01-.14-.03-.06-.02-.12-.05-.06-.03-.12-.08-.05-.04-.09-.09-.05-.06-.08-.12t-.05-.12q-.02-.07-.03-.14-.01-8.63 0-.12.01-.07.03-.14.02-.06.05-.12.03-.06.08-.12.04-.05.09-.09.06-.05.12-.08t.12-.05q.07-.02.14-.03 4.34-.01.36-.01.3 0 .4.02.1.02.11.02.01-.01 0-.05t-.01-.2q.01-.16.09-.36.08-.21.26-.33.19-.12.41-.1.22.02.39.17.16.14.29.37.14.24.48.61.35.38.61 1 .27.63.32 1.26.05.63.06 1.51.01.88.01 1.97.01 1.09.01 2.36v2.75q0 1.47-.01 2.73 0 1.27-.32 2.16-.31.89-.52 1.64-.2.76-.39 1.66-.2.9-.38 1.81-.19.91-.22 1.83-.04.91-.05 1.85 0 .94-.01 1.89v13.54q0 .83-.16 1.45-.15.62-.18 1.31-.02.69-.03 1.29 0 .59-.01 1.16v9.66q-.01.34.14.71.14.36.18.65.04.29-.02.72-.06.44-.37.59-.31.16-.57.29-.27.12-.51.32t-.3.22q-.05.03-.12.04-.07.02-.14.02t-.13-.01q-.07-.02-.13-.04-.07-.03-.13-.06-.05-.04-.1-.09-.05-.05-.09-.1-.04-.06-.07-.12-.02-.07-.04-.13-.01-.07-.01-.14t.01-.14q.01-.06.04-.13.02-.06.06-.12.04-.06.09-.1.04-.05.1-.09.06-.04.12-.07.06-.03.13-.04.07-.01.14-.01.07-.01.13.01.07.01.13.04.06.02.12.06l.1.08q.05.05.09.11.04.05.07.12.02.06.04.13.01.06.01.13t-.01.14q-.01.07-.04.13-.02.06-.06.12-.04.06-.09.11-.04.05-.1.09-.06.04-.12.06-.05.03-.12.04-.07.02-.14.02t-.13-.01q-.07-.02-.13-.04-.07-.03-.13-.06-.05-.04-.1-.09-.05-.05-.09-.1-.04-.06-.07-.12-.02-.07-.04-.13-.01-.07-.01-.14t.01-.14q.01-.06.04-.13.02-.06.06-.12.04-.06.09-.1.04-.05.3-.26.25-.21.64-.41.41-.19.4-.11-.01.08-.09.12-.07.04-.09-.13-.02-.17-.18-.58-.15-.41-.16-.88-.01-.47-.01-1.01v-8.78q.01-.58.01-1.19.01-.6.04-1.37.04-.77.19-1.38.15-.6.14-1.35v-13.47q.01-.94.01-1.9.01-.95.05-1.93t.24-1.95q.19-.97.39-1.9.2-.92.41-1.72.22-.8.52-1.6.29-.8.28-1.95v-5.36q0-1.27-.01-2.36 0-1.08-.01-1.93 0-.86-.04-1.35-.03-.5-.2-.92-.18-.41-.5-.75-.32-.33-.49-.63-.18-.3.21-.13.38.16-.05-.19-.43-.36-.35-.56.08-.21.26-.33.19-.12.41-.1.22.02.39.17.16.14-.06.66-.22.51.05.19.27-.33.26-.11-.01.22-.1.54-.09.31-.47.61t-.7.32q-.33.02-.63.02h-4.58Z" fill="#1e1e1e"/><path d="m278 20.268.05.04q.05.05.09.1.04.06.07.12.03.06.04.13.02.07.02.14.01.06 0 .13-.02.07-.04.13-.02.07-.06.13-.03.06-.08.11t-.1.09q-.06.04-.12.07-.06.03-.13.04-.06.02-.13.02t-.14-.01q-.07-.01-.13-.03-.07-.02-.12-.06-.06-.03-3.07-2.29-3.01-2.25-4.59-3.45-1.59-1.19-3.25-2.15t-4.92-1.7q-3.27-.75-7.89-.9-4.62-.15-10.93.57-6.3.72-13.16 2.18-6.85 1.45-13.82 3.44-6.96 1.97-14.16 4.43-7.19 2.47-15.24 5.41-8.04 2.93-17.05 6.72-9.02 3.78-18.21 8.29-9.2 4.51-17.82 9.92-8.63 5.4-16.15 11.55-7.51 6.15-14.63 12.84-7.11 6.69-14.94 13.86-7.84 7.17-15.2 14.8-7.36 7.63-14.23 15.92t-13.04 17.07q-6.16 8.78-10.38 18.03-4.22 9.25-7.27 18.8-3.04 9.55-5.65 19.74-2.61 10.18-4.73 20.49-2.12 10.3-3.35 20.63-1.22 10.33-1.87 20.85-.64 10.53-.77 20.89-.13 10.37 1.24 20.87 1.37 10.51 4.24 20.86 2.87 10.36 6.64 20.32 3.77 9.96 8.32 19.07 4.54 9.11 10.83 17.68 6.29 8.56 13.94 16.28 7.65 7.72 16.18 14.9 8.53 7.18 18.23 14.07 9.7 6.88 20.44 12.95 10.74 6.08 22.09 11.61 11.34 5.54 23.2 9.65t24.22 7q12.37 2.88 25.23 4.4 12.86 1.52 25.42 1.82 12.57.31 24.66-.95 12.1-1.25 23.51-4.13 11.42-2.88 23.1-6.46 11.67-3.58 23-8.81 11.33-5.22 22.39-11.52 11.06-6.31 21.88-13.96 10.81-7.64 20.76-16.12 9.96-8.48 19.15-18.07 9.19-9.58 17.21-20.13 8.03-10.54 14.03-21.85 6-11.31 11-23.15 5-11.84 8.59-24.71 3.6-12.88 5.52-25.97 1.92-13.1 2.5-25.85.58-12.75-.7-25.43-1.28-12.68-4.53-25.34-3.25-12.67-8.3-24.79-5.06-12.12-10.27-24.14-5.21-12.01-11.65-23.43-6.44-11.41-14.12-21.96-7.68-10.54-16.61-20.34-8.92-9.81-19.3-18.34-10.37-8.53-21.64-15.68-11.27-7.15-23.32-13.09-12.04-5.94-24.05-10.32-12-4.38-22.99-7.31-10.99-2.94-19.77-4.09-8.77-1.15-14.69-1.19-5.91-.04-7.63.31-1.72.35-2.71.81-.99.46-1.05.47-.07.01-.14 0-.07 0-.14-.02l-.12-.04q-.07-.03-.12-.08-.06-.04-.1-.09-.05-.05-.08-.11-.04-.06-.06-.12-.02-.07-.03-.13-.01-.07-.01-.14t.02-.14q.02-.06.05-.12.03-.07.07-.12.04-.06.09-.1.05-.05.11-.08.06-.04.12-.06.07-.02.14-.03.06-.01.13-.01t.14.02q.06.02.13.05.06.03.11.07.06.04.1.09.05.05.08.11.04.06.06.12.03.07.03.14.01.06.01.13t-.02.14q-.02.06-.05.13-.03.06-.07.11-.04.06-.09.1-.05.05-.11.09-.06.03-.12.05-.07.03-.13.04-.07.01-.14 0-.07 0-.14-.02l-.12-.04q-.07-.03-.12-.08-.06-.04-.1-.09-.05-.05-.08-.11-.04-.06-.06-.12-.02-.07-.03-.13-.01-.07-.01-.14t.02-.14q.02-.06.05-.12.03-.07.07-.12.04-.06.09-.1.05-.05.11-.08.06-.04 1.06-.5 1-.47 2.87-.85 1.87-.39 7.9-.35 6.03.05 14.9 1.21 8.86 1.16 19.92 4.12 11.07 2.96 23.14 7.35 12.07 4.41 24.18 10.38 12.12 5.97 23.45 13.16 11.34 7.2 21.78 15.79 10.45 8.59 19.44 18.46 8.99 9.87 16.71 20.47 7.73 10.61 14.21 22.09 6.47 11.48 11.7 23.54 5.23 12.05 10.3 24.22 5.08 12.18 8.35 24.94 3.28 12.77 4.57 25.55 1.29 12.78.71 25.62-.59 12.84-2.52 26.01-1.93 13.17-5.55 26.13-3.62 12.97-8.65 24.87-5.03 11.91-11.07 23.3-6.04 11.38-14.12 22.01-8.09 10.62-17.33 20.26-9.24 9.63-19.25 18.16-10.01 8.52-20.87 16.21-10.86 7.68-21.98 14.02-11.12 6.34-22.52 11.59-11.4 5.26-23.14 8.86-11.74 3.6-23.22 6.49-11.48 2.9-23.67 4.16-12.19 1.26-24.83.96-12.64-.31-25.57-1.83-12.94-1.53-25.37-4.43-12.44-2.91-24.37-7.04-11.94-4.14-23.34-9.7t-22.19-11.67q-10.79-6.1-20.54-13.02-9.76-6.92-18.33-14.14-8.57-7.22-16.28-15-7.71-7.78-14.07-16.43-6.35-8.66-10.94-17.85-4.59-9.2-8.38-19.22-3.8-10.02-6.69-20.46-2.89-10.44-4.28-21.04-1.38-10.6-1.25-21.03.13-10.43.78-20.99.64-10.57 1.87-20.94 1.23-10.38 3.37-20.73 2.13-10.35 4.75-20.57t5.68-19.83q3.06-9.61 7.33-18.96 4.27-9.34 10.48-18.2 6.21-8.86 13.12-17.19 6.9-8.33 14.3-16 7.4-7.66 15.24-14.85 7.85-7.18 14.97-13.88 7.13-6.71 14.7-12.9 7.58-6.19 16.27-11.63 8.69-5.45 17.94-9.99 9.25-4.54 18.29-8.33 9.04-3.8 17.11-6.75 8.07-2.94 15.29-5.42 7.22-2.46 14.22-4.45 7.01-2 13.92-3.46 6.91-1.47 13.3-2.2 6.39-.73 11.13-.57 4.74.15 8.17.94 3.44.78 5.22 1.81 1.79 1.03 3.41 2.25t4.63 3.48l3.01 2.25Z" fill="#1e1e1e"/></svg>