<svg xmlns="http://www.w3.org/2000/svg" viewBox="2.24 2.27 475.03 475.30" width="475.03" height="475.30"><path fill="#000" fill-rule="nonzero" d="M 262.75 4.27 L 274.36 5.59 L 285.32 7.68 L 294.77 10.07 L 307.13 13.81 L 320.53 18.57 L 328.55 21.82 L 337.02 25.63 L 349.49 31.90 L 364.56 40.67 L 374.34 47.19 L 386.67 56.52 L 394.95 63.61 L 400.96 69.29 L 407.02 75.57 L 417.80 88.07 L 426.43 99.45 L 435.24 112.74 L 440.20 121.19 L 445.71 131.61 L 450.94 142.71 L 463.88 173.38 L 467.36 183.17 L 468.59 187.11 L 471.65 198.65 L 474.29 212.42 L 475.58 223.16 L 476.22 234.01 L 476.27 242.27 L 475.12 261.12 L 473.17 276.49 L 470.67 289.62 L 467.92 300.66 L 462.88 316.48 L 458.59 327.40 L 452.90 339.95 L 445.85 353.64 L 441.13 361.55 L 431.15 375.62 L 421.65 387.05 L 415.04 394.23 L 409.61 399.72 L 397.24 411.16 L 389.02 418.02 L 378.49 426.12 L 369.21 432.67 L 354.54 441.94 L 336.55 451.67 L 328.78 455.39 L 317.78 460.08 L 308.53 463.41 L 290.46 468.77 L 278.25 471.92 L 271.69 473.31 L 264.52 474.54 L 252.68 475.90 L 245.99 476.34 L 233.06 476.57 L 216.75 475.81 L 201.84 474.29 L 191.64 472.73 L 178.61 470.08 L 167.18 467.12 L 154.46 463.13 L 143.40 459.00 L 129.33 452.71 L 108.55 441.82 L 101.47 437.72 L 96.62 434.74 L 85.17 427.02 L 74.06 418.69 L 60.06 406.85 L 52.62 399.82 L 44.05 390.76 L 39.72 385.58 L 34.64 378.85 L 29.13 370.43 L 25.15 363.27 L 22.64 358.17 L 17.70 346.89 L 11.58 329.90 L 8.24 318.43 L 6.59 311.36 L 5.33 304.73 L 3.76 292.28 L 3.24 282.94 L 3.44 267.64 L 4.42 249.85 L 5.85 235.18 L 8.10 219.99 L 10.85 206.50 L 14.93 189.69 L 20.69 170.16 L 25.84 156.61 L 28.88 149.96 L 32.30 143.49 L 38.85 133.21 L 46.49 122.87 L 55.54 111.80 L 66.53 99.73 L 73.35 92.85 L 104.38 64.02 L 114.99 55.18 L 124.15 48.54 L 133.93 42.39 L 146.64 35.51 L 164.71 27.20 L 183.58 19.71 L 203.73 12.68 L 223.92 7.02 L 236.65 4.54 L 248.14 3.32 L 254.36 3.27 L 260.77 3.89 Z M 258.94 18.06 L 251.20 18.08 L 250.11 18.18 L 248.80 18.53 L 247.38 19.16 L 245.80 19.53 L 244.38 19.56 L 243.06 19.31 L 242.07 18.93 L 240.65 18.07 L 228.87 20.22 L 214.80 23.89 L 200.47 28.54 L 186.40 33.58 L 168.64 40.72 L 151.22 48.85 L 139.37 55.42 L 133.62 59.02 L 126.81 63.75 L 119.33 69.63 L 108.69 78.95 L 84.96 101.05 L 72.36 113.92 L 60.48 127.71 L 56.02 133.39 L 47.19 145.83 L 43.14 152.74 L 39.33 160.65 L 35.67 169.67 L 30.80 184.76 L 25.00 207.24 L 21.25 226.01 L 18.65 247.40 L 17.52 265.07 L 17.18 278.39 L 17.24 283.59 L 17.55 289.27 L 18.08 295.08 L 19.39 304.00 L 20.50 309.60 L 22.74 318.48 L 27.17 332.45 L 30.25 340.66 L 34.06 349.59 L 36.57 354.88 L 38.88 359.34 L 42.46 365.43 L 49.32 375.21 L 56.54 383.78 L 60.05 387.48 L 72.42 399.16 L 78.41 404.25 L 89.96 413.25 L 101.49 421.26 L 112.35 427.91 L 132.28 438.58 L 142.46 443.42 L 154.12 448.18 L 167.93 452.78 L 178.78 455.74 L 190.23 458.27 L 200.69 460.02 L 214.91 461.64 L 231.38 462.55 L 239.22 462.58 L 250.30 462.07 L 267.92 459.81 L 275.86 458.13 L 298.26 451.99 L 307.92 448.84 L 318.20 444.80 L 322.66 442.82 L 337.99 435.20 L 351.47 427.48 L 358.96 422.71 L 371.41 413.98 L 378.09 408.87 L 383.76 404.28 L 392.58 396.62 L 407.51 381.84 L 414.58 373.86 L 422.79 363.55 L 428.35 355.59 L 435.17 344.07 L 438.88 336.82 L 444.29 325.25 L 447.67 317.22 L 451.91 305.39 L 453.62 299.81 L 456.63 288.36 L 458.23 280.79 L 460.42 266.81 L 461.92 250.89 L 462.24 244.21 L 462.24 233.97 L 461.43 222.00 L 459.76 210.18 L 457.79 200.74 L 455.82 193.23 L 452.58 183.10 L 440.16 152.99 L 434.89 141.29 L 426.24 124.93 L 422.02 117.94 L 414.10 106.23 L 404.55 93.94 L 395.54 83.75 L 392.55 80.65 L 383.42 72.04 L 372.49 63.13 L 359.69 54.14 L 350.67 48.59 L 345.51 45.64 L 333.32 39.33 L 325.81 35.87 L 318.11 32.62 L 308.08 28.88 L 296.83 25.20 L 284.45 21.83 L 284.13 23.21 L 283.70 24.19 L 283.11 25.07 L 282.22 25.99 L 280.98 26.91 L 280.02 27.37 L 278.65 27.71 L 276.84 27.74 L 275.79 27.57 L 274.46 27.07 L 263.92 19.43 L 262.88 18.83 L 260.85 18.16 Z M 308.36 165.39 L 317.65 173.53 L 327.62 181.12 L 330.27 183.60 L 340.44 190.06 L 343.33 192.51 L 347.27 196.98 L 349.76 199.05 L 351.25 200.07 L 357.53 203.43 L 359.76 205.00 L 361.88 206.96 L 364.03 209.60 L 366.42 213.09 L 367.41 214.39 L 368.18 215.11 L 375.55 220.25 L 377.58 222.06 L 378.57 222.32 L 379.54 222.76 L 380.42 223.35 L 381.19 224.08 L 382.00 225.24 L 382.43 226.21 L 382.69 227.24 L 382.83 229.89 L 382.71 230.94 L 382.34 232.26 L 381.43 233.87 L 380.73 234.66 L 379.90 235.33 L 379.52 235.58 L 379.31 236.62 L 378.93 237.61 L 378.39 238.53 L 377.44 239.58 L 376.28 240.39 L 375.31 240.82 L 374.28 241.08 L 373.22 241.16 L 371.81 240.99 L 371.26 240.82 L 363.27 247.51 L 352.99 254.90 L 344.95 261.99 L 334.80 268.85 L 333.65 269.89 L 328.82 275.20 L 327.04 276.77 L 321.89 280.40 L 315.87 284.05 L 315.42 284.40 L 314.93 284.89 L 313.00 287.29 L 310.39 289.82 L 305.42 293.65 L 300.89 296.66 L 298.42 299.01 L 294.91 303.17 L 292.54 305.34 L 290.15 307.01 L 286.62 308.82 L 282.76 312.00 L 279.11 315.98 L 276.56 318.18 L 271.57 320.81 L 269.77 322.69 L 266.73 326.73 L 265.15 328.50 L 264.28 329.59 L 263.37 330.47 L 261.04 332.01 L 259.20 332.78 L 258.05 333.11 L 257.32 333.24 L 254.65 335.71 L 253.66 336.43 L 252.86 337.13 L 251.26 338.05 L 249.86 338.45 L 248.80 338.56 L 246.96 338.35 L 245.95 338.03 L 244.91 337.49 L 244.06 336.85 L 243.09 335.79 L 242.34 334.59 L 241.84 333.15 L 241.68 331.40 L 241.84 330.00 L 242.05 329.26 L 242.16 327.34 L 242.46 326.32 L 243.14 324.98 L 243.26 322.32 L 243.52 321.20 L 243.21 319.43 L 243.18 317.92 L 243.49 315.41 L 243.86 314.15 L 243.84 313.91 L 243.37 312.51 L 242.94 310.18 L 242.78 307.62 L 242.94 293.95 L 243.13 290.40 L 243.04 284.32 L 242.18 275.34 L 238.55 275.19 L 232.83 275.14 L 223.05 274.48 L 217.52 273.77 L 211.72 273.64 L 208.06 273.28 L 201.78 272.75 L 198.24 272.62 L 196.70 272.28 L 184.63 272.27 L 182.24 272.63 L 176.98 272.74 L 156.19 272.75 L 155.04 273.05 L 153.56 273.20 L 147.15 273.22 L 145.71 273.53 L 142.59 273.71 L 135.73 273.71 L 134.89 273.95 L 133.18 274.17 L 131.01 274.20 L 129.11 274.60 L 127.12 274.63 L 126.07 274.46 L 124.76 273.98 L 123.84 273.44 L 122.83 272.60 L 121.93 271.51 L 121.27 270.25 L 120.85 268.43 L 120.83 266.90 L 120.06 262.61 L 119.92 259.80 L 120.10 255.43 L 120.90 249.81 L 122.49 241.06 L 123.12 231.44 L 123.57 213.93 L 123.44 198.36 L 123.09 196.65 L 122.56 194.75 L 122.41 193.20 L 122.51 191.99 L 122.86 190.50 L 123.71 188.82 L 124.35 187.98 L 125.07 187.27 L 125.90 186.31 L 127.31 185.27 L 128.26 184.79 L 129.27 184.48 L 130.87 184.27 L 132.70 184.24 L 133.85 183.91 L 134.42 183.83 L 135.43 183.50 L 137.28 183.27 L 143.98 183.26 L 146.05 182.80 L 146.65 182.72 L 147.87 182.44 L 149.78 182.29 L 154.37 182.36 L 155.57 182.51 L 156.68 182.78 L 162.44 182.68 L 164.83 182.06 L 166.35 181.87 L 170.12 181.91 L 175.89 182.77 L 178.02 182.72 L 179.34 182.45 L 181.46 182.31 L 188.10 182.52 L 191.17 182.75 L 195.50 182.67 L 199.91 181.95 L 205.20 182.01 L 210.11 182.29 L 224.27 182.14 L 233.35 181.35 L 242.38 181.32 L 242.44 172.16 L 242.76 169.50 L 242.86 151.57 L 243.86 146.06 L 244.66 143.35 L 244.66 136.76 L 243.69 136.20 L 242.64 135.25 L 241.83 134.09 L 241.40 133.12 L 241.14 132.09 L 241.06 131.03 L 241.23 129.62 L 241.57 128.61 L 241.83 128.07 L 242.33 126.60 L 243.04 125.38 L 244.41 123.96 L 245.59 123.18 L 246.92 122.68 L 247.96 122.51 L 250.20 122.39 L 251.66 122.57 L 253.01 123.02 L 254.14 123.67 L 254.55 123.98 L 255.79 124.57 L 256.74 125.25 L 258.25 126.08 L 262.95 129.60 L 264.80 131.67 L 265.60 132.87 L 266.48 133.59 L 267.12 134.24 L 269.59 135.31 L 273.78 137.85 L 275.35 138.50 L 279.53 141.27 L 283.59 145.05 L 284.42 146.02 L 286.37 147.80 L 289.07 149.87 L 294.28 153.36 L 298.07 156.73 L 301.33 160.27 L 303.82 162.34 L 307.97 165.09 Z M 258.38 146.05 L 257.14 150.73 L 256.81 152.45 L 256.74 156.07 L 256.72 170.47 L 256.40 172.77 L 256.36 175.09 L 256.36 183.97 L 256.64 185.39 L 256.66 185.71 L 256.96 186.67 L 257.16 188.43 L 257.08 189.49 L 256.70 190.86 L 256.02 192.10 L 255.03 193.30 L 254.23 193.99 L 253.31 194.53 L 252.30 194.92 L 250.76 195.26 L 250.08 195.30 L 233.49 195.32 L 222.84 196.21 L 216.83 196.27 L 208.99 196.24 L 201.41 195.85 L 196.15 196.64 L 192.98 196.74 L 181.33 196.29 L 179.33 196.65 L 177.43 196.75 L 174.75 196.69 L 169.85 195.90 L 167.34 195.80 L 165.15 196.41 L 163.35 196.66 L 159.09 196.76 L 154.85 196.71 L 153.28 196.44 L 152.77 196.28 L 150.06 196.27 L 147.94 196.65 L 146.77 196.97 L 144.88 197.20 L 143.71 197.24 L 138.72 197.24 L 138.02 197.43 L 137.43 198.31 L 137.53 202.89 L 137.46 217.83 L 137.10 228.78 L 137.06 232.82 L 136.35 242.84 L 135.96 245.66 L 134.10 255.82 L 133.91 259.79 L 135.12 259.73 L 143.57 259.71 L 145.44 259.32 L 147.06 259.24 L 152.35 259.23 L 153.35 258.95 L 154.96 258.77 L 181.25 258.68 L 183.73 258.31 L 184.60 258.27 L 198.01 258.36 L 199.64 258.60 L 200.26 258.76 L 204.66 258.94 L 208.15 259.30 L 213.66 259.73 L 218.52 259.83 L 225.36 260.66 L 234.60 261.19 L 242.50 261.34 L 249.08 262.16 L 251.98 262.20 L 253.02 262.41 L 254.01 262.79 L 254.93 263.33 L 255.98 264.28 L 256.79 265.44 L 257.22 266.41 L 257.48 267.44 L 257.64 269.39 L 257.54 270.45 L 257.13 271.80 L 256.63 272.74 L 256.03 273.53 L 256.93 282.36 L 257.04 292.77 L 256.75 298.87 L 256.85 308.80 L 257.53 311.02 L 257.85 314.02 L 257.84 315.35 L 259.50 313.21 L 262.63 310.05 L 264.20 308.93 L 268.71 306.61 L 272.83 302.18 L 277.35 298.30 L 279.39 296.87 L 283.46 294.71 L 285.01 293.31 L 288.60 289.04 L 291.68 286.14 L 293.90 284.49 L 299.89 280.40 L 302.63 277.94 L 304.86 275.21 L 306.97 273.27 L 310.28 271.05 L 317.32 266.63 L 318.82 265.43 L 320.30 263.87 L 323.23 260.55 L 326.05 257.96 L 328.25 256.40 L 335.85 251.37 L 344.24 244.01 L 356.29 235.20 L 363.65 228.99 L 359.11 225.72 L 357.41 224.14 L 354.38 220.26 L 352.00 216.87 L 351.19 216.04 L 350.18 215.32 L 343.38 211.65 L 338.42 207.86 L 336.13 205.47 L 333.82 202.78 L 332.34 201.46 L 329.46 199.52 L 322.12 194.95 L 320.31 193.45 L 317.99 191.28 L 306.45 182.41 L 300.15 176.71 L 294.26 172.62 L 291.09 169.78 L 288.15 166.58 L 285.53 164.26 L 279.55 160.24 L 277.33 158.46 L 273.87 155.19 L 273.08 154.31 L 270.43 151.91 L 268.95 150.95 L 267.24 150.22 L 262.82 147.54 L 260.13 146.50 L 259.00 145.81 L 258.49 145.42 Z"/></svg>