<svg xmlns="http://www.w3.org/2000/svg" viewBox="2.24 2.27 475.03 475.30" width="475.03" height="475.30"><path fill="#000" d="M 249.87 9.54 L 256.75 9.72 L 260.60 10.24 L 262.00 10.54 L 273.39 11.80 L 282.37 13.47 L 293.06 16.12 L 305.29 19.82 L 318.24 24.42 L 326.04 27.59 L 334.31 31.30 L 346.48 37.42 L 361.16 45.96 L 370.71 52.32 L 379.55 58.88 L 387.69 65.58 L 396.51 73.74 L 402.39 79.82 L 412.88 91.98 L 421.30 103.08 L 429.86 115.99 L 434.68 124.20 L 440.06 134.37 L 445.17 145.22 L 458.01 175.63 L 461.36 185.05 L 462.55 188.87 L 465.52 200.03 L 467.07 207.41 L 468.07 213.31 L 469.31 223.66 L 469.93 234.14 L 469.98 242.14 L 468.86 260.49 L 466.96 275.48 L 464.54 288.22 L 461.87 298.93 L 456.98 314.30 L 452.82 324.89 L 447.25 337.19 L 440.41 350.48 L 435.84 358.15 L 431.65 364.41 L 425.30 372.89 L 414.63 385.46 L 407.36 393.09 L 396.86 403.10 L 391.25 408.02 L 385.11 413.10 L 372.77 422.51 L 365.72 427.44 L 351.38 436.50 L 333.79 446.02 L 326.17 449.67 L 315.53 454.21 L 306.62 457.42 L 288.82 462.70 L 276.85 465.79 L 270.55 467.13 L 263.65 468.31 L 245.74 470.06 L 233.18 470.28 L 217.26 469.54 L 205.21 468.37 L 192.78 466.55 L 180.11 463.97 L 168.94 461.08 L 156.56 457.20 L 145.80 453.19 L 132.09 447.06 L 111.71 436.38 L 104.72 432.34 L 100.02 429.45 L 86.80 420.45 L 77.97 413.77 L 64.31 402.22 L 57.07 395.37 L 48.80 386.64 L 44.64 381.67 L 39.81 375.28 L 34.57 367.27 L 30.72 360.36 L 28.34 355.51 L 24.10 345.93 L 21.15 338.40 L 17.58 328.02 L 14.35 316.93 L 13.51 313.52 L 11.54 303.72 L 10.03 291.78 L 9.53 282.81 L 9.72 267.89 L 10.69 250.35 L 12.72 231.00 L 15.22 216.20 L 20.62 192.78 L 26.64 172.19 L 31.61 159.12 L 34.50 152.77 L 37.74 146.65 L 43.98 136.84 L 51.41 126.78 L 60.29 115.92 L 68.99 106.27 L 77.73 97.36 L 108.50 68.77 L 118.82 60.16 L 127.70 53.73 L 137.09 47.83 L 149.40 41.16 L 165.80 33.57 L 185.71 25.63 L 205.61 18.68 L 216.57 15.38 L 228.22 12.50 L 237.68 10.74 L 248.40 9.60 Z"/></svg>