<svg xmlns="http://www.w3.org/2000/svg" viewBox="8.31 8.31 145.11 527.39" width="145.11" height="527.39" xmlns:v="https://vecta.io/nano"><path fill="#1e1e1e" d="M84.53 12.159q0 0-4.22.01.07.01.14.03.06.02.12.05.06.03.12.08.05.04.09.09.05.06.08.12.03.06.05.12.02.07.03.14.01 8.63 0 .12-.01.07-.03.14-.02.06-.05.12-.03.06-.08.12-.04.05-.09.09-.06.05-.12.08-.06.03-.12.05-.07.02-.14.03-4.34.01-.34-.02-.28-.02-.5-.19-.22-.17-.32-.18-.09 0-.26-.01-.18 0-.54 0-.36 0-.67-.01-.31-.01-.69-.17-.39-.16-.88-.18-.5-.03-.93-.03-.43-.01-1-.01-.58 0-1.39 0-.81-.01-1.47-.17-.65-.17-1.39-.2-.74-.02-1.38-.03-.64-.01-1.45-.01-.82 0-1.63-.17-.82-.16-1.77-.19-.94-.03-2.11-.04-1.17-.01-2.22-.01-1.05 0-2.08 0-1.03 0-1.72 0-.7 0-1.49 0-.79 0-1.56 0-.77 0-1.37.15-.6.15-1.19.34-.59.18-1.08.4-.49.2-.91.24-.42.05-.79.2-.37.16-1 .38-.63.21-1.28.26-.66.04-1.12.05-.46.01-.88.01-.42 0-.83 0-.41 0-.82 0-.41 0-.82 0-.41 0-.98 0-.57 0-1.08 0-.5-.01-.94-.18-.44-.17-.69-.2-.26-.04-.62-.2-.37-.17-.8-.21-.44-.05-.68-.22-.25-.16-.59-.18-.34-.03-.74-.2-.4-.17-.74-.19-.34-.02-.65-.04-.3-.01-.68-.18-.39-.17-.79-.2-.4-.03-.8-.2-.41-.17-.75-.2-.35-.02-.74-.03-.4 0-.8-.01-.41 0-.98 0-.57 0-1.01 0-.44 0-.96 0-.51-.01-.94.15-.43.16-.79.18-.36.01-.72.32-.37.31-.94.54-.57.22-.99.58-.42.36-.83.59-.41.24-.85.63-.44.4-.65.45-.2.05-.35.32-.14.27-.33.48-.19.2-.38.71-.19.51-.55 1.11-.37.6-.59 1.17-.23.58-.44 1.2-.22.62-.43 1.09-.21.47-.42.89-.21.42-.41.83-.21.41-.41.82-.21.41-.41.82-.2.41-.39.76-.18.35-.21.74-.04.4-.21.81-.17.4-.21.81-.03.41-.22.86-.18.45-.36.97-.18.52-.22.91-.03.38-.03.94-.01.57-.01 1.01-.01.44-.01.85 0 .42 0 .99 0 .57 0 1.18 0 .6 0 1 0 .4.16.97.16.57.19 1.01.03.44.2 1.02.17.57.21 1.02.03.44.19.98.16.54.37 1.17.2.64.25 1.1.04.45.21 1.03.17.59.2 1.2.04.61.21 1.22.17.61.21 1.44.04.82.04 1.41 0 .59.16 1.04.17.45.21 1.09.04.64.04 1.25.01.62.01 1.4 0 .77 0 1.42 0 .64 0 1.43 0 .78 0 1.56 0 .78.16 1.73.16.94.35 1.94.2 1 .4 1.88.21.88.25 1.71.04.83.21 1.61.16.78.36 1.45.2.68.25 1.35.04.67.05.96.01.3.01.86 0 .55 0 .98 0 .44 0 1.08-.01.64-.17 1.09-.17.45-.19.97-.03.52-.04 1-.01.48-.17 1.07-.17.59-.2 1.19-.03.6-.21 1.26-.18.65-.37 1.23-.19.58-.23 1.19-.04.6-.22 1.26-.18.65-.38 1.27-.2.62-.39 1.2-.2.57-.24 1.02-.04.44-.22 1.06-.18.62-.38 1.23-.2.61-.4 1.22-.2.61-.4 1.18-.19.57-.22 1.13-.04.56-.05 1.21-.01.64-.18 1.26-.16.62-.19 1.35-.03.73-.04 1.37 0 .64-.01 1.46 0 .81-.16 1.63-.17.81-.2 1.6-.03.78-.03 1.43-.01.64-.02 1.38 0 .74.16 1.38.16.64.2 1.46.04.83.04 1.81.01.98.01 1.83 0 .85 0 1.67 0 .83 0 1.77 0 .95.16 1.76.15.81.36 1.66.2.85.24 1.67.04.82.21 1.64.17.82.2 1.8.04.99.21 1.83.17.85.2 1.71.04.86.05 1.84 0 .99.01 1.84 0 .85 0 1.81 0 .96.16 1.97.16 1.01.2 2.06.03 1.04.03 1.87.01.83.17 1.65.17.82.2 1.64.03.81.2 1.63.17.82.21 1.8.03.98.2 1.83.17.85.21 1.87.03 1.02.04 1.88.01.85.01 1.68 0 .82 0 1.64 0 .82 0 1.44 0 .63.16 1.57.16.94.2 1.61.03.67.19 1.44.17.76.37 1.76.2 1.01.24 1.89.05.88.05 1.85.01.97.18 2.14.16 1.17.19 2.09.04.91.04 1.91.01 1 .01 1.85 0 .86 0 1.68 0 .83 0 1.68 0 .85-.16 1.68-.17.82-.2 1.44-.03.62-.03 1.4-.01.78-.01 1.46-.01.68-.17 1.47-.17.79-.2 1.56-.03.78-.03 1.62-.01.85-.18 1.67-.16.82-.2 1.65-.03.82-.2 1.48-.17.66-.21 1.27-.03.61-.21 1.43-.17.82-.38 1.48-.2.67-.42 1.33-.22.65-.6 1.29-.38.64-.6 1.06-.22.42-.41.94-.19.51-.23 1.1-.04.59-.21 1.2-.17.61-.2 1.34-.03.73-.04 1.36 0 .64-.01 1.3 0 .65-.16 1.44-.17.78-.2 1.39-.03.61-.04 1.39 0 .77 0 1.42 0 .64-.01 1.38 0 .74.16 1.34.15.61.35 1.43.21.81.25 1.63.04.82.21 1.63.17.82.2 1.6.03.79.35 1.57.32.78.56 1.62.24.83.45 1.66.21.82.41 1.64.21.81.41 1.63.21.82.42 1.67.21.85.25 1.68.04.83.22 1.81.17.98.2 1.86.04.88.05 2.04 0 1.15.01 2.2 0 1.05 0 1.91 0 .86 0 1.49-.01.63.16 1.41.16.78.19 1.62.04.85.05 1.67 0 .82 0 1.6 0 .77.16 1.42.17.64.2 1.44.03.8.2 1.77.17.98.21 1.85.04.88.04 1.71.01.83.01 1.81 0 .99 0 1.67 0 .69 0 1.48 0 .79 0 1.6 0 .81 0 1.5 0 .69-.16 1.48-.17.79-.2 1.6-.03.81-.2 1.63-.17.81-.21 1.6-.03.78-.04 1.62 0 .85-.17 1.67-.16.82-.2 1.65-.03.83-.2 1.48-.17.65-.21 1.44-.03.78-.21 1.46-.18.69-.38 1.48-.19.79-.4 1.44-.2.64-.4 1.38-.19.74-.23 1.54-.04.81-.22 1.65-.17.85-.37 1.64-.19.79-.23 1.45-.04.66-.21 1.28-.17.62-.21 1.24-.03.61-.2 1.22-.17.62-.2 1.18-.03.57-.04 1.34 0 .76-.01 1.41 0 .64 0 1.22 0 .57.16 1.17.16.61.2 1.27.03.65.04 1.4 0 .75.17 1.55.16.81.19 1.46.04.64.21 1.43.17.78.2 1.43.03.65.2 1.43.18.78.21 1.63.04.85.04 1.63.01.78.16 1.38.16.6.35 1.21.19.61.4 1.23.2.62.41 1.4.2.78.4 1.43.21.64.42 1.43.2.8.41 1.61.2.81.41 1.63.2.81.4 1.63.21.81.42 1.66.21.85.25 1.5.04.65.21 1.27.17.62.21 1.25.04.62.21 1.4.17.77.2 1.41.03.64.2 1.26.17.62.21 1.44.04.82.04 1.67.01.86-.15 1.68-.17.82-.2 1.64-.03.82-.21 1.67-.17.85-.38 1.7-.21.86-.58 1.69-.37.84-.61 1.49-.24.66-.61 1.44-.37.77-.6 1.55-.23.78-.44 1.59-.21.8-.42 1.65-.21.84-.58 1.67-.37.82-.59 1.58-.22.75-.27 1.56-.05.82-.23 1.51-.18.7-.37 1.28-.19.59-.23 1.36-.04.77-.21 1.41-.17.65-.2 1.23-.03.57-.04 1.22-.01.65-.18 1.27-.16.62-.19 1.19-.03.57-.04 1.17 0 .61 0 1.22-.01.61-.01 1.39 0 .77 0 1.42 0 .64 0 1.46 0 .82-.16 1.63-.17.82-.2 1.6-.03.78-.03 1.59-.01.81-.01 1.63 0 .82 0 1.63 0 .82 0 1.64 0 .81-.01 1.43 0 .62.16 1.39.17.78.2 1.6.03.81.2 1.76.16.95.36 1.78.19.84.39 1.66.21.82.4 1.61.2.79.55 1.57.35.78.76 1.61.4.83.66 1.51.25.69.47 1.49.22.8.43 1.62.2.81.41 1.63.2.81.41 1.63.2.82.41 1.67.21.85.25 1.84.05.99.21 1.8.17.82.37 1.67.2.85.25 1.7.04.86.05 1.52 0 .66.01 1.61 0 .95 0 1.83 0 .88-.17 1.74-.17.85-.37 1.83-.19.98-.39 1.97-.2.99-.24 2-.04 1.01-.21 2.19-.17 1.18-.21 2.24-.03 1.06-.21 2.12-.17 1.06-.37 1.93-.2.87-.41 1.7-.2.83-.4 1.62-.19.78-.23 1.59-.04.81-.22 1.66-.18.85-.38 1.67-.2.83-.4 1.65-.2.81-.41 1.63-.2.82-.41 1.63-.2.82-.4 1.63-.2.8-.4 1.91-.2 1.11-.24 1.8-.04.69-.05 1.52-.01.82-.18 1.67-.17.85-.36 1.64-.19.79-.23 1.57-.04.78-.04 1.75-.01.97-.01 1.82 0 .85 0 1.67 0 .82 0 1.64 0 .82 0 1.64 0 .81-.01 1.6 0 .78.16 1.54.15.77.34 1.4.19.64.39 1.25.2.62.39 1.2.19.58.52 1.13.34.55.71.97.37.42.82.88.44.46.69 1.04.25.58.63 1.03.37.44.63 1.04.25.6.63 1.22.38.62.64 1.48.27.85.32 1.51.05.66.22 1.45.17.79.21 1.63.04.85.05 1.67 0 .83 0 1.68 0 .85-.16 1.68-.17.82-.2 1.48-.03.65-.2 1.44-.17.78-.21 1.44-.03.66-.2 1.28-.17.62-.21 1.23-.03.62-.22 1.29-.18.67-.37 1.09-.19.41-.22.99-.04.57-.21 1.01-.17.44-.21 1.02-.03.58-.2 1.02-.17.44-.2.96-.03.52-.03.95-.01.43-.01 1.01 0 .57 0 1.02 0 .44 0 1.02 0 .58 0 1.18 0 .61 0 1.06 0 .44-.02.74-.02.3.24.6.26.3.48.53.21.23.42.44.2.21.57.58.37.37.57.57.2.21.53.39.33.18.72.38.4.2.78.4.39.19.93.38.54.2 1.25.39.72.19 1.48.23.77.04 1.57.04.81.01 1.43.01.61.01 1.39-.15.78-.17 1.58-.2.8-.03 1.42-.19.61-.16 1.43-.37.81-.2 1.33-.25.53-.04.96-.05.44-.01 1.02-.01.58 0 1.02 0 .44 0 1.02 0 .58 0 1.32 0 .74 0 1.68-.16.93-.16 1.94-.35 1-.2 2.02-.4 1.02-.2 2.07-.41 1.05-.21 2.07-.25 1.02-.04 1.88-.21.85-.17 1.71-.21.86-.03 1.72-.04.86-.01 1.71.16.85.17 1.83.36.98.2 2.12.4 1.15.2 2.37.24 1.22.04 2.15.21.93.18 1.87.42.93.24 1.5.83.57.59.97 1 .4.4.97.81.57.41.98.8.41.38.93.6.51.21 1.09.41.59.21 1.36.41.77.21 1.37.4.61.2 1.51.23.89.04 1.69.05.8.01 1.58-.15.77-.15 1.57-.34.8-.19 1.44-.39.64-.2 1.22-.39.59-.19 1.19-.55.61-.37 1.3-.63.69-.26 1.31-.31.63-.05 1.25-.23.62-.17 1.27-.21.66-.04 1.28-.05.63 0 1.37 0 .74 0 1.54-.17.8-.16 1.49-.19.68-.04 1.43-.04.75-.01 1.36-.16.6-.16 1.36-.35.75-.19 1.51-.53.76-.35 1.42-.75.66-.4 1.32-.66.66-.26 1.32-.49.66-.22 1.16-.27.5-.05.94-.06.43-.01 1.01-.01.57 0 1.18 0 .6 0 1.22 0 .61 0 1.1 0 .5 0 1.13.18.64.17 1.25.37.61.2 1.23.4.61.21 1.18.4.57.19 1.17.23.61.04 1.22.21.61.17 1.18.2.56.03 1.17.04.6 0 1.21.01.61 0 1.16 0 .55.01.99-.15.44-.16 1.08-.2.64-.04 1.22-.05.58 0 1.32-.16.73-.16 1.54-.36.81-.19 1.78-.39.97-.2 1.68-.41.71-.21 1.34-.25.63-.04 1.24-.21.62-.18 1.05-.21.43-.03.74-.15.31-.13.7-.48.39-.35.8-.58.41-.24.66-.45.25-.21.62-.42.37-.2.71-.5.33-.31.6-.73.26-.42.6-.62.33-.2.36-.48.04-.29.22-.71.19-.43.38-.98.19-.56.39-1.11.19-.56.22-1.28.04-.72.04-1.52.01-.8.01-1.61 0-.81.01-1.6 0-.8-.17-1.93-.16-1.14-.19-2.18-.03-1.05-.2-2.04-.16-.99-.36-1.86-.2-.88-.25-1.41-.04-.54-.05-.98-.01-.44-.01-.85 0-.42 0-.66 0-.25 0-.46 0-.21 0-.42 0-.21 0-.41 0-.2 0-.41 0-.2 0-.41 0-.2 0-.57 0-.37 0-.77 0-.4.01-.87 0-.47.17-.9.17-.42.21-.86.04-.45.24-.76.2-.31.37-.61.16-.31.2-.54.04-.23.25-.69.21-.45.47-.77.27-.32.62-.52.35-.2.53-.49.17-.29.4-.72.23-.42.6-.83.37-.42.61-.82.23-.4.44-.65.21-.24.39-.58.19-.34.37-.69.18-.34.2-.51.03-.17.04-.51 0-.35 0-.75.01-.4.01-.74.01-.34-.15-.73-.16-.4-.19-.8-.04-.41-.21-.82-.17-.4-.19-.78-.02-.37-.14-.51-.11-.15-.35-.42-.23-.28-.29-.53-.06-.26-.24-.63-.17-.38-.21-.62-.03-.24-.2-.61-.17-.38-.19-.57-.02-.2-.16-.36-.14-.15-.38-.6-.24-.45-.26-.66-.03-.2-.14-.33-.12-.12-.3-.31-.19-.2-.45-.48-.26-.29-.31-.5-.05-.22-.22-.43-.17-.21-.23-.46-.05-.24-.18-.53-.13-.28-.32-.51-.19-.23-.44-.69-.25-.47-.29-.89-.05-.42-.18-.73-.13-.31-.32-.55-.19-.23-.44-.69-.24-.47-.29-.89-.04-.42-.19-.77-.16-.34-.37-.81-.22-.46-.27-1.11-.05-.64-.06-1.26-.01-.62-.01-1.23 0-.61 0-1.19 0-.58-.16-1.34-.16-.77-.2-1.45-.03-.68-.04-1.47-.01-.79-.01-1.6 0-.82 0-1.84 0-1.02.17-1.71.16-.7.2-1.34.04-.65.23-1.17.19-.52.37-.89.18-.37.21-.87.03-.5.03-.93.01-.43.02-.9.01-.48.19-.95.17-.46.37-1.02.19-.57.38-1.13.19-.56.23-1.11.03-.56.04-1.16.01-.6.01-1.21 0-.61 0-1.42 0-.82.17-1.66.17-.85.36-1.64.2-.79.23-1.57.04-.78.05-1.42 0-.65 0-1.27.01-.62.01-1.39 0-.78 0-1.43 0-.64 0-1.38 0-.74-.15-1.33-.15-.6-.36-1.25-.2-.65-.25-1.48-.04-.83-.05-1.49-.01-.65-.01-1.63 0-.97.17-1.98.16-1.02.19-1.85.03-.82.04-1.8 0-.99.01-1.84 0-.85 0-1.7 0-.86.17-1.72.17-.86.36-1.65.19-.8.23-1.41.04-.62.04-1.39.01-.77.01-1.42 0-.64 0-1.43 0-.78.01-1.75 0-.98 0-1.82 0-.85 0-1.84 0-.98 0-1.84 0-.85 0-1.67 0-.82 0-1.64 0-.82 0-1.83 0-1.02.16-1.87.17-.86.2-1.65.03-.79.03-1.77.01-.97.01-1.99 0-1.01 0-1.86 0-.86 0-1.68 0-.83 0-1.65 0-.82.02-1.35.02-.54-.4-1.05-.43-.51-.86-.96-.43-.46-.86-1.07-.43-.6-.86-1.24-.43-.64-.67-1.26-.25-.62-.61-1.2-.36-.58-.77-1.2-.4-.62-.67-1.11-.26-.48-.49-1.14-.24-.65-.29-1.52-.05-.87.12-1.58.17-.7.35-1.29.19-.59.22-1.16.04-.56.05-1.05.01-.48.18-1.07.16-.59.2-1.21.03-.62.22-1.11.18-.5.36-1.03.19-.53.22-1.12.04-.6.21-1.21.17-.61.22-1.26.04-.65.39-1.31.35-.67.58-1.27.23-.6.59-1.37.37-.76.6-1.55.23-.79.44-1.44.22-.66.42-1.28.21-.62.41-1.24.21-.61.42-1.24.21-.63.42-1.09.2-.45.39-1 .2-.55.39-1.28.2-.73.24-1.21.04-.49.22-1.1.18-.61.38-1.39.19-.77.39-1.39.19-.61.23-1.18.03-.56.04-1.17.01-.6.01-1.21 0-.61.01-1.43 0-.82.16-1.47.17-.66.2-1.24.03-.57.03-1.18.01-.6.01-1.05 0-.45 0-1.03 0-.58 0-1.19 0-.6 0-1.21 0-.61 0-1.35.01-.75-.14-1.48-.15-.74-.51-1.54-.35-.8-.59-1.62-.23-.81-.6-1.62-.37-.8-.63-1.52-.25-.71-.3-1.52-.06-.81-.21-1.55-.15-.73-.49-1.33-.33-.59-.72-1.2-.4-.61-.82-1.25-.42-.64-.69-1.31-.27-.66-.48-1.46-.22-.8-.43-1.62-.21-.82-.41-1.8-.21-.98-.41-1.82-.21-.84-.41-1.67-.2-.82-.41-1.67-.21-.85-.26-1.74-.04-.89.12-1.91.16-1.03.35-1.86.19-.83.23-1.65.04-.82.22-1.68.18-.86.38-1.53.2-.66.4-1.45.21-.8.58-1.78.37-.97.61-1.85.25-.87.64-1.56.39-.69.79-1.48.41-.8.84-1.48.43-.69 1-1.3.57-.62.99-1.37.43-.75.83-1.38.4-.62.63-1.2.23-.58.44-1.19.21-.6.42-1.21.2-.61.4-1.22.2-.6.41-1.39.21-.79.57-1.58.36-.78.42-1.37.07-.58.08-1.18.01-.6.02-1.11.01-.52.18-.94.16-.43.19-.94.02-.51.03-.94.01-.43.01-.85 0-.41 0-.82 0-.41 0-.82 0-.4 0-.98 0-.57 0-1.13.01-.56-.16-1.16-.16-.6-.19-1.39-.04-.78-.21-1.59-.17-.81-.2-1.63-.04-.82-.21-1.8-.17-.99-.2-2.03-.04-1.04-.04-2.03-.01-.99-.16-1.78-.15-.79-.5-1.59-.35-.8-.6-1.48-.24-.68-.45-1.47-.21-.79-.42-1.44-.21-.65-.41-1.44-.21-.79-.41-1.57-.19-.79-.55-1.57-.35-.78-.74-1.58-.39-.8-.97-1.8-.59-1-.88-1.9-.3-.91-.52-1.91-.22-1.01-.43-2.02-.21-1.01-.41-1.86-.2-.85-.4-1.65-.2-.81-.58-1.82-.37-1.01-.45-2.05-.08-1.05-.26-2.07-.18-1.03-.21-2.08-.04-1.05-.05-2.04 0-1-.16-1.82-.16-.83-.36-1.81-.19-.98-.4-1.86-.21-.87-.25-1.74-.04-.86-.05-1.85-.01-.99-.01-2 0-1.02 0-2.04 0-1.02 0-1.87 0-.86 0-1.69 0-.82 0-1.64 0-.82 0-1.67 0-.85.17-1.71.17-.86.37-1.68.19-.83.39-1.61.2-.79.24-1.45.04-.66.21-1.27.17-.62.2-1.39.04-.77.21-1.6.18-.84.38-1.82.19-.98.4-1.83.2-.85.4-1.81.2-.95.24-1.8.04-.86.22-1.72.18-.87.37-1.5.19-.62.23-1.36.03-.73.04-1.4.01-.67.18-1.65.17-.98.37-1.99.19-1.02.4-1.88.2-.87.4-1.66.2-.79.24-1.57.03-.78.04-1.46.01-.68.19-1.51.17-.84.36-1.46.19-.62.23-1.24.04-.61.21-1.23.17-.61.21-1.22.03-.61.21-1.26.18-.64.37-1.38.19-.75.22-1.38.04-.64.21-1.42.17-.78.21-1.56.03-.77.03-1.42.01-.64.01-1.26 0-.62 0-1.23 0-.62 0-1.23 0-.61 0-1.06 0-.45 0-1.03 0-.58 0-1.19 0-.6.01-.99.01-.38-.14-.74-.15-.36-.36-.98-.21-.62-.26-1.12-.04-.5-.05-1.09-.01-.59 0-.97 0-.38-.15-.74-.15-.36-.36-.98-.21-.62-.24-1.06-.04-.43-.21-.84-.17-.42-.22-.89-.04-.48-.05-.9 0-.42-.01-.83 0-.41 0-.82 0-.41 0-.82 0-.41 0-.82 0-.41 0-.82 0-.4 0-.81 0-.41.01-.89 0-.47.17-.89.17-.42.19-.77.02-.34.03-.74.01-.39.01-.87.01-.47.2-.95.19-.48.36-.84.18-.36.22-.92.03-.55.21-1 .17-.44.19-.79.03-.36.04-.98.01-.62.18-1.07.17-.45.19-.81.03-.36.03-.91.01-.56.01-1 0-.44.01-.96 0-.52-.16-.95-.16-.42-.2-.9-.04-.47-.04-1 0-.52-.16-.96-.17-.43-.2-1.01-.03-.57-.2-1.01-.17-.44-.21-.92-.04-.47-.05-1.06-.01-.59-.01-1.19 0-.61 0-1.22 0-.61 0-1.23 0-.61 0-1.22 0-.61 0-1.23 0-.61 0-1.18 0-.56-.16-1.16-.16-.6-.2-1.1-.03-.49-.03-1.02 0-.53-.17-.96-.16-.44-.19-1.02-.04-.57-.19-.97-.16-.4-.36-.98-.2-.59-.41-1.23-.22-.65-.26-1.1-.04-.46-.2-1-.16-.54-.36-1.14-.2-.6-.39-1.2-.2-.59-.42-1.08-.21-.49-.26-1.14-.06-.65-.06-1.11-.01-.45-.01-1.08 0-.63.16-1.24.17-.62.2-1.08.04-.45.22-1.09.19-.63.4-1.1.21-.47.39-.83.18-.36.21-.86.03-.49.04-1.15.01-.65.18-1.11.17-.45.19-.97.03-.52.04-1 .01-.49.18-1.07.16-.59.19-1.15.03-.56.03-1.16.01-.6.01-1.26.01-.65.17-1.27.17-.62.2-1.24.03-.61.21-1.27.18-.66.37-1.23.19-.58.23-1.14.03-.56.04-1 0-.44.01-1.08.01-.64.18-1.09.16-.46.19-.82.02-.35.03-.75 0-.4.01-.8 0-.41 0-.98 0-.57 0-1.01 0-.44 0-1.02 0-.58 0-1.02 0-.45 0-1.02 0-.58 0-1.19 0-.6 0-1 0-.4-.14-.91-.15-.51-.34-.94-.19-.44-.41-1.06-.22-.63-.25-.89-.04-.26-.21-.66-.18-.39-.2-.76-.03-.37-.14-.51-.11-.15-.45-.5-.34-.35-.58-.59-.23-.23-.47-.48-.24-.25-.46-.63-.21-.38-.41-.62-.21-.23-.38-.57-.18-.33-.5-.53-.32-.2-.58-.43-.27-.24-.52-.49-.25-.24-.46-.62-.22-.38-.36-.55-.14-.17-.49-.37-.34-.19-.58-.39-.23-.21-.6-.41-.38-.21-.65-.44-.28-.22-.5-.44-.22-.21-.33-.35-.11-.14-.42-.15-.3-.02-.76-.21-.46-.19-.81-.37-.36-.18-.76-.22-.4-.04-.8-.21-.4-.17-.91-.19-.5-.03-1.09-.03-.6-.01-1.21-.01-.61 0-1.38 0-.78 0-1.38-.01-.6 0-1.21.16-.6.16-1.03.19-.43.03-.84.2-.42.17-.89.21-.48.05-1.06.05-.59.01-1.03.01-.45 0-.86 0-.42 0-.78 0-.36 0-.92.16-.56.16-1.05.2-.48.03-1.03.04-.54 0-1.14.16-.6.17-1.26.21-.65.03-1.44.04-.78.01-1.43.01-.65 0-1.27 0-.62 0-1.23 0-.61 0-1.23 0-.61 0-1.22 0-.61 0-1.23 0-.61 0-1.39 0-.77 0-1.42 0-.64 0-1.23 0-.58 0-1.35.16-.77.16-1.58.19-.82.04-1.8.2-.98.17-1.83.2-.85.04-1.83.21-.98.17-1.53.2-.55.04-1.16.04-.61.01-1.22.01-.61 0-1.22 0-.61 0-1.06 0-.45 0-.7 0-.26 0-.63 0-.38 0-.85 0-.47-.01-.89-.17-.42-.17-.77-.19-.34-.03-.74-.03-.39-.01-.96-.01-.56 0-1 0-.44 0-.85 0-.42 0-.99 0-.58 0-1.18 0-.61 0-1.22 0-.61 0-1.06 0-.45 0-.86 0-.42 0-.83 0-.41 0-.98 0-.57 0-1.01 0-.45 0-.77-.01-.31-.01-.38-.03-.07-.02-.13-.05-.06-.03-.11-.07-.05-.05-.1-.1-.04-.04-.07-.11-.04-.06-.05-.12-.02-.07-.03-.14-.01-.06 0-.13.01-.07.03-.14.01-.06.05-.12.03-.06.07-.12.05-.05.1-.09.05-.05.11-.08.06-.03.13-.05.07-.02.13-.03.07 0 .14 0 .07.01.13.03.07.02.13.05.06.03.11.08.06.04.1.09.04.06.08.12.03.06.05.12.02.07.02.14.01.07 0 .13 0 .07-.02.14-.02.06-.05.12-.04.07-.08.11-.04.05-.1.1-.05.04-.11.07-.06.03-.13.05-.06.02-.13.03-.07.01-.14 0-.06-.01-.13-.03-.07-.02-.13-.05-.06-.03-.11-.07-.05-.05-.1-.1-.04-.04-.07-.11-.04-.06-.05-.12-.02-.07-.03-.14-.01-.06 0-.13.01-.07.03-.14.01-.06.05-.12.03-.06.07-.12.05-.05.1-.09.05-.05.11-.08.06-.03.13-.05.07-.02.13-.03.07 0 .32 0 .25 0 .7 0 .44 0 1.01 0 .57 0 .98 0 .41 0 .83 0 .41 0 .86 0 .45 0 1.06 0 .61 0 1.22 0 .6 0 1.18 0 .57 0 .99 0 .41 0 .85 0 .44 0 1.01 0 .57 0 .99.01.43 0 .9.05.47.04.86.2.4.16.73.15.34-.01.72-.01.37 0 .63 0 .25 0 .7 0 .45 0 1.06 0 .61 0 1.22 0 .6 0 1.19 0 .58-.01 1.08-.04.5-.04 1.49-.21.99-.17 1.84-.2.85-.03 1.82-.2.98-.17 1.79-.21.8-.03 1.58-.19.79-.17 1.44-.17.66 0 1.3 0 .65 0 1.42 0 .78 0 1.39 0 .62 0 1.23 0 .61 0 1.22 0 .62 0 1.23 0 .61 0 1.23 0 .62 0 1.27 0 .64 0 1.41-.01.76-.01 1.33-.04.57-.02 1.18-.19.61-.17 1.22-.17.62-.01 1.01-.04.4-.03.98-.19.59-.17 1.04-.17.46-.01.88-.01.41 0 .85 0 .44 0 1-.01.56 0 .9-.03.35-.02.76-.19.42-.17.9-.21.47-.04 1.1-.2.63-.17 1.32-.17.69 0 1.47 0 .77 0 1.39 0 .61 0 1.22.01.62 0 1.26.05.64.04 1.05.21.42.18.83.22.42.04.88.26.46.21.8.36.34.15.77.22.43.06.73.33.3.27.5.47.21.19.41.37.2.17.57.38.38.2.62.41.24.21.63.42.38.23.65.54.27.3.47.66.19.35.37.52.17.16.38.35.21.19.62.46.41.28.65.7.23.41.44.65.2.23.4.59.2.36.37.53.18.18.42.42.24.24.62.64.38.4.61.74.23.35.27.78.05.44.22.81.16.37.21.67.04.29.23.82.19.54.39.99.2.45.38 1.1.18.65.18 1.15.01.5.01 1.1 0 .61 0 1.19 0 .57 0 1.02 0 .44 0 1.02 0 .58 0 1.02 0 .44 0 1.01 0 .57 0 .99-.01.41-.01.83-.01.42-.05.9-.04.47-.2.9-.16.43-.16.95 0 .52 0 .98-.01.46-.06 1.13-.04.66-.25 1.31-.2.65-.36 1.21-.16.57-.2 1.18-.03.61-.19 1.22-.16.6-.16 1.17 0 .57-.01 1.19 0 .62-.04 1.27-.04.65-.2 1.23-.17.57-.17.97 0 .41-.04 1.05-.04.63-.21 1.07-.16.44-.16 1 0 .56-.06 1.2-.05.65-.27 1.13-.23.47-.41.88-.19.42-.34.94-.16.52-.19.97-.03.44-.19 1.03-.16.6-.16 1.13.01.53.01.96.01.43.04.94.03.51.22.91.19.41.4 1.04.21.63.41 1.24.2.61.38 1.23.18.62.22 1.06.04.44.24 1.01.19.56.38 1.13.2.58.38 1.06.18.49.22 1.07.03.58.2 1.03.16.45.17 1.08.02.63.04 1.04.03.4.2 1.03.16.63.17 1.28 0 .66 0 1.27 0 .62 0 1.23 0 .61 0 1.22 0 .62 0 1.23 0 .61 0 1.21 0 .6.01 1.16.01.56.03.92.03.35.2.8.17.44.2 1.02.03.58.2 1.03.17.45.18 1.07.01.62.04.98.02.36.19.81.16.46.17 1.1 0 .64 0 1.08 0 .45-.01 1.03 0 .59-.04 1.06-.04.48-.21.91-.16.43-.16.95 0 .53-.05 1.01-.04.47-.21.91-.17.44-.21 1.02-.04.59-.26 1.05-.21.46-.35.79-.14.34-.14.68.01.35 0 .77-.01.42-.05.89-.04.48-.2.87-.16.39-.15.74 0 .34 0 .75 0 .41 0 .81 0 .41 0 .82 0 .41 0 .82 0 .41 0 .81 0 .41 0 .82.01.4.01.8.01.39.03.74.03.34.2.76.17.41.21.86.04.45.23.98.18.52.36.99.18.48.18.98.01.51.02 1.07.01.56.04.95.03.39.21.91.18.53.36 1 .18.47.19.98 0 .52 0 1.12 0 .61 0 1.19 0 .58 0 1.03 0 .45 0 1.06 0 .61 0 1.23 0 .61 0 1.24 0 .62-.01 1.28 0 .66-.04 1.5-.04.85-.21 1.63-.17.79-.21 1.44-.04.65-.25 1.46-.2.82-.36 1.39-.17.58-.2 1.2-.04.61-.21 1.23-.17.61-.21 1.23-.04.63-.24 1.3-.2.67-.36 1.41-.15.73-.16 1.36-.01.63-.05 1.48-.05.86-.26 1.72-.21.85-.41 1.7-.2.85-.39 1.84-.2 1-.36 1.91-.16.92-.16 1.54-.01.63-.05 1.46-.05.84-.25 1.52-.21.68-.37 1.46-.16.78-.2 1.63-.04.85-.25 1.87-.21 1.02-.42 1.87-.2.85-.4 1.82-.19.98-.36 1.76-.16.78-.2 1.57-.04.79-.21 1.41-.17.62-.21 1.27-.04.65-.25 1.5-.21.85-.4 1.65-.19.81-.35 1.59-.16.78-.16 1.56.01.78.01 1.6 0 .82 0 1.64 0 .83 0 1.69 0 .85 0 1.87 0 1.02 0 2.03 0 1.01.01 1.99.01.97.04 1.76.04.78.24 1.61.2.82.39 1.82.2.99.37 1.88.17.89.18 1.94.01 1.05.04 2.04.04.99.21 2.01.18 1.01.25 1.99.07.98.43 1.94.36.95.57 1.79.21.85.41 1.71.21.87.42 1.88.21 1.02.42 1.99.21.97.47 1.76.26.8.82 1.76.56.96.97 1.79.41.83.79 1.68.38.85.59 1.69.22.84.42 1.61.2.78.4 1.42.21.65.42 1.43.21.77.43 1.4.23.63.6 1.49.37.85.55 1.77.17.93.18 1.98.01 1.04.04 2.03.04.98.21 1.96.17.98.2 1.79.03.81.2 1.61.17.81.2 1.58.04.77.2 1.38.16.62.17 1.27 0 .65 0 1.22 0 .58 0 .98 0 .41 0 .82 0 .41 0 .83 0 .42-.01.87-.01.45-.05 1.09-.04.63-.2 1.04-.16.41-.16.8 0 .39-.01 1.03-.02.64-.1 1.36-.09.72-.46 1.55-.38.83-.58 1.59-.2.76-.4 1.39-.21.62-.42 1.23-.2.62-.42 1.24-.22.63-.48 1.28-.26.66-.69 1.33-.43.66-.88 1.47-.46.8-1.04 1.42-.57.63-.95 1.24-.39.61-.78 1.38-.4.78-.76 1.41-.36.63-.59 1.45-.22.82-.59 1.79-.37.97-.57 1.75-.2.77-.39 1.42-.2.64-.36 1.42-.16.77-.2 1.6-.04.83-.24 1.7-.2.86-.35 1.8-.15.93-.11 1.68.04.74.24 1.53.2.78.4 1.61.2.82.41 1.68.21.85.41 1.83.2.98.41 1.78.2.79.41 1.55.2.75.43 1.31.22.57.61 1.15.39.59.79 1.22.41.63.8 1.34.39.71.58 1.59.19.89.23 1.65.05.76.27 1.35.22.59.59 1.42.38.83.62 1.65.24.82.6 1.65.36.83.54 1.71.18.87.18 1.69 0 .81 0 1.42 0 .61 0 1.21 0 .61 0 1.19 0 .58 0 1.03 0 .45-.01 1.08 0 .62-.04 1.28-.04.66-.2 1.3-.16.63-.16 1.37 0 .73 0 1.35 0 .61-.01 1.24-.01.62-.05 1.29-.05.67-.26 1.35-.21.67-.41 1.44-.19.77-.36 1.32-.16.56-.2 1.04-.04.47-.26 1.29-.21.81-.43 1.42-.21.6-.41 1.05-.21.45-.41 1.04-.19.6-.4 1.21-.2.62-.41 1.24-.2.62-.41 1.26-.21.65-.46 1.48-.24.83-.62 1.62-.38.79-.61 1.41-.23.62-.55 1.18-.31.56-.34 1.14-.03.57-.2 1.18-.17.62-.21 1.23-.04.62-.25 1.25-.21.63-.37 1.03-.16.4-.19.99-.03.59-.19 1.17-.17.57-.17.98 0 .42-.05 1.08-.04.66-.24 1.31-.21.65-.35 1.23-.14.58-.11 1.25.04.67.23 1.18.19.5.41.92.23.41.62 1.01.4.61.79 1.25.4.64.64 1.25.24.6.63 1.17.39.57.78 1.13.4.56.81 1 .42.45.98 1.18.55.74.57 1.51.02.76.02 1.58 0 .82 0 1.65 0 .82 0 1.68 0 .85 0 1.87 0 1.01-.01 2 0 .99-.04 1.84-.03.86-.2 1.7-.16.85-.16 1.79.01.95.01 1.77 0 .82 0 1.64 0 .82 0 1.67 0 .86 0 1.84 0 .99 0 1.84 0 .84 0 1.82-.01.97-.01 1.75 0 .79 0 1.44 0 .65-.01 1.44 0 .79-.05 1.49-.04.69-.24 1.53-.2.84-.36 1.62-.16.78-.15 1.57 0 .79 0 1.64-.01.85-.01 1.84-.01 1-.04 1.88-.04.88-.2 1.88-.16 1-.16 1.91 0 .92.01 1.56.01.63.04 1.36.04.73.22 1.31.19.59.37 1.29.17.7.17 1.52.01.83.01 1.47 0 .65 0 1.43 0 .78-.01 1.4 0 .62-.01 1.28 0 .66-.05 1.52-.04.86-.24 1.7-.2.84-.36 1.61-.15.76-.15 1.51 0 .74 0 1.35 0 .62-.01 1.24-.01.62-.06 1.29-.04.66-.26 1.31-.21.65-.41 1.23-.2.59-.35.94-.15.35-.14.71 0 .35-.01.8-.01.45-.06 1.1-.05.65-.26 1.11-.21.47-.36.86-.15.38-.18.99-.03.6-.19 1.28-.17.68-.16 1.62 0 .93 0 1.74 0 .81.01 1.58.01.78.04 1.39.03.61.19 1.39.16.79.17 1.44 0 .65 0 1.25 0 .61.01 1.21.01.59.03 1.08.03.5.21.85.18.36.37.82.19.47.23.85.04.39.19.67.16.29.37.55.21.26.42.76.21.5.24.88.04.39.2.67.16.28.36.52.2.25.41.7.21.45.23.61.02.17.19.37.16.19.2.39.03.19.18.31.14.13.35.34.21.22.44.52.23.3.28.57.05.27.21.55.16.29.36.56.19.26.24.54.05.28.22.66.17.37.21.6.03.24.2.6.17.36.19.52.02.15.17.3.16.15.39.5.23.35.27.79.04.44.21.85.17.41.21.82.03.41.2.84.16.42.17.89.01.48 0 .88 0 .41-.01.81-.01.4-.06.72-.06.33-.29.78-.23.46-.45.87-.23.41-.44.66-.22.25-.46.66-.24.41-.6.81-.37.4-.56.78-.2.37-.49.82-.3.45-.68.67-.39.23-.51.38-.13.16-.26.45-.14.29-.18.54-.04.25-.27.69-.23.45-.37.63-.14.18-.16.55-.02.37-.18.77-.16.39-.16.73.01.34.01.74 0 .4 0 .77 0 .37 0 .57 0 .21 0 .41 0 .21 0 .41 0 .2 0 .41 0 .21 0 .42 0 .21 0 .46 0 .24 0 .65 0 .41.01.82.01.42.04.88.04.46.24 1.3.19.85.36 1.91.18 1.06.21 2.11.04 1.05.2 2.2.16 1.14.16 1.99 0 .84 0 1.65 0 .82-.01 1.64-.01.82-.05 1.65-.05.82-.26 1.48-.22.65-.43 1.23-.2.59-.37.97-.17.38-.29.84-.12.47-.53.76-.42.29-.64.67-.23.38-.69.81-.47.43-.85.64-.38.21-.63.41-.24.21-.64.45-.41.23-.84.61-.43.37-.95.58-.52.22-.99.25-.47.04-1.09.21-.62.18-1.24.22-.63.04-1.29.24-.66.19-1.65.4-.98.2-1.79.4-.81.2-1.62.37-.82.17-1.45.18-.63.01-1.15.03-.52.03-.98.19-.46.17-1.14.17-.67.01-1.28.01-.62-.01-1.24-.01-.62-.01-1.28-.05-.66-.04-1.27-.21-.62-.17-1.24-.21-.62-.05-1.28-.26-.65-.22-1.26-.42-.61-.2-1.21-.39-.6-.2-1.12-.35-.53-.15-.93-.15-.4.01-1.01.01-.62 0-1.22 0-.6 0-1.17 0-.57 0-.97.01-.41.01-.8.04-.4.04-.96.23-.57.2-1.16.43-.58.23-1.23.63-.64.39-1.5.78-.86.39-1.67.59-.81.21-1.5.38-.69.17-1.51.18-.81.01-1.43.04-.62.03-1.44.19-.82.17-1.62.17-.81.01-1.42.01-.6.01-1.17.04-.56.03-1.17.2-.61.17-1.21.22-.59.04-1.13.25-.54.21-1.16.58-.62.37-1.28.59-.66.22-1.33.43-.67.21-1.5.41-.84.2-1.69.36-.87.17-1.75.17-.89-.01-1.88-.06-1-.04-1.68-.26-.69-.21-1.47-.42-.78-.2-1.4-.42-.63-.23-1.28-.5-.64-.28-1.11-.71-.47-.44-1.06-.85-.58-.42-1.03-.88-.45-.46-.87-.92-.41-.47-1.14-.63-.73-.16-1.59-.33-.87-.16-2.08-.2-1.21-.04-2.42-.25-1.2-.2-2.18-.4-.99-.2-1.77-.35-.78-.16-1.56-.15-.78 0-1.57.04-.79.03-1.65.2-.86.17-1.88.21-1.02.04-2.01.24-1 .2-2.02.41-1.02.2-2.03.4-1.02.19-2.02.36-1.01.17-1.8.17-.8 0-1.38 0-.58 0-1.02 0-.44 0-1.01 0-.57 0-.98.01-.41.01-.86.04-.44.04-1.2.23-.75.19-1.44.37-.69.18-1.5.21-.82.03-1.61.2-.8.16-1.49.16-.69 0-1.51-.01-.82-.01-1.67-.05-.86-.05-1.67-.26-.82-.22-1.43-.43-.6-.22-1.03-.43-.43-.22-.84-.43-.4-.21-.82-.45-.42-.24-.7-.51-.27-.27-.64-.64-.37-.37-.58-.58-.22-.22-.46-.48-.24-.26-.63-.78-.39-.52-.41-1.05-.02-.54-.02-.98 0-.45 0-1.06 0-.6 0-1.18 0-.58 0-1.02 0-.45 0-1.03 0-.58.01-1.03.01-.45.05-1.09.04-.64.21-1.09.17-.44.2-1.02.04-.58.21-1.02.17-.45.21-1.03.04-.59.25-1.07.21-.49.36-1.04.16-.55.19-1.17.04-.61.21-1.23.17-.62.2-1.25.03-.64.2-1.43.17-.78.2-1.43.04-.65.2-1.46.16-.81.16-1.59-.01-.78-.01-1.59-.01-.8-.04-1.58-.03-.77-.21-1.55-.17-.78-.21-1.41-.05-.63-.26-1.32-.21-.7-.58-1.29-.37-.59-.59-1.14-.23-.56-.6-1-.38-.44-.62-1-.24-.57-.61-.94-.37-.37-.8-.85-.42-.48-.83-1.16-.4-.67-.62-1.32-.22-.65-.42-1.28-.2-.62-.41-1.3-.2-.67-.37-1.54-.17-.86-.17-1.72 0-.85 0-1.66 0-.82 0-1.64 0-.82 0-1.64 0-.82 0-1.68 0-.85.01-1.83.01-.99.05-1.85.04-.86.24-1.7.2-.84.36-1.61.16-.78.17-1.55 0-.77.05-1.52.04-.75.25-1.92.21-1.18.42-2.01.2-.83.41-1.64.2-.82.4-1.64.21-.81.41-1.63.2-.82.4-1.63.2-.81.36-1.59.17-.79.21-1.61.04-.82.25-1.68.21-.85.41-1.67.21-.82.4-1.67.19-.84.36-1.84.17-.99.2-2.04.03-1.05.2-2.24.18-1.18.22-2.21.04-1.03.25-2.07.2-1.04.4-2.02.2-.98.35-1.77.16-.79.16-1.6 0-.8 0-1.75-.01-.95-.01-1.59-.01-.65-.05-1.43-.03-.78-.23-1.57-.19-.8-.37-1.68-.17-.89-.21-1.86-.04-.97-.24-1.75-.2-.78-.4-1.6-.21-.82-.41-1.63-.21-.82-.41-1.62-.21-.81-.41-1.58-.21-.76-.44-1.39-.23-.62-.63-1.42-.39-.81-.77-1.66-.39-.85-.6-1.7-.21-.85-.42-1.68-.2-.82-.4-1.68-.2-.87-.37-1.88-.18-1.01-.21-1.81-.03-.81-.2-1.6-.16-.79-.16-1.48 0-.69 0-1.51 0-.81 0-1.63 0-.82 0-1.63 0-.82.01-1.65 0-.82.04-1.67.03-.85.19-1.65.17-.8.17-1.55-.01-.75-.01-1.39 0-.65 0-1.43 0-.77.01-1.39 0-.61 0-1.23.01-.62.05-1.28.03-.66.2-1.26.16-.61.17-1.19 0-.57.04-1.24.04-.66.21-1.3.17-.65.21-1.43.04-.79.25-1.45.2-.65.37-1.26.16-.61.21-1.44.05-.82.3-1.7.25-.87.62-1.68.36-.82.56-1.6.2-.79.41-1.61.21-.83.46-1.67.25-.84.63-1.63.38-.8.61-1.45.24-.65.6-1.45.36-.8.54-1.58.19-.78.35-1.56.17-.78.2-1.6.03-.81.19-1.62.17-.81.16-1.57-.01-.77-.04-1.5-.03-.73-.2-1.35-.17-.62-.21-1.27-.03-.66-.2-1.43-.17-.78-.21-1.38-.03-.61-.2-1.23-.17-.62-.21-1.28-.04-.65-.24-1.44-.2-.79-.4-1.6-.21-.82-.41-1.63-.21-.82-.41-1.63-.2-.81-.41-1.58-.2-.77-.4-1.42-.2-.64-.41-1.42-.2-.77-.4-1.38-.2-.6-.4-1.23-.2-.64-.38-1.34-.17-.71-.18-1.56-.01-.85-.04-1.62-.03-.78-.2-1.56-.17-.78-.21-1.43-.03-.64-.2-1.43-.17-.78-.2-1.43-.04-.66-.2-1.47-.17-.82-.18-1.62-.01-.8-.03-1.37-.03-.57-.2-1.2-.16-.62-.16-1.28-.01-.67-.01-1.32.01-.64.01-1.43.01-.78.05-1.44.04-.66.21-1.27.17-.62.2-1.23.04-.61.21-1.24.17-.62.21-1.27.04-.64.24-1.49.2-.84.37-1.62.16-.78.2-1.6.05-.82.26-1.65.21-.82.42-1.47.2-.64.39-1.42.2-.77.36-1.39.16-.61.2-1.39.03-.78.2-1.44.17-.65.2-1.46.04-.8.2-1.62.16-.81.17-1.6 0-.79.04-1.64.04-.85.21-1.66.17-.82.2-1.63.03-.81.19-1.59.17-.77.17-1.39-.01-.62-.01-1.43 0-.81 0-1.6 0-.79 0-1.48 0-.68 0-1.66 0-.98-.01-1.8 0-.82-.04-1.64-.03-.82-.2-1.79-.17-.97-.2-1.74-.03-.78-.19-1.44-.17-.66-.17-1.51-.01-.86-.01-1.67-.01-.81-.04-1.59-.03-.77-.19-1.57-.17-.79-.17-1.49 0-.7 0-1.56 0-.86 0-1.91-.01-1.04-.01-2.19-.01-1.14-.04-1.96-.03-.82-.21-1.8-.17-.98-.21-1.78-.03-.81-.23-1.59-.2-.78-.4-1.6-.21-.82-.41-1.63-.21-.82-.42-1.63-.21-.81-.43-1.61-.22-.79-.57-1.65-.34-.85-.38-1.7-.04-.85-.21-1.66-.17-.82-.21-1.62-.04-.8-.23-1.55-.19-.75-.36-1.44-.17-.69-.17-1.51 0-.83 0-1.48 0-.65.01-1.44 0-.79.04-1.47.03-.68.2-1.45.16-.77.16-1.35 0-.59 0-1.24.01-.65.05-1.47.04-.82.21-1.44.17-.62.22-1.24.04-.61.28-1.26.23-.65.48-1.13.25-.48.61-1.07.35-.59.54-1.17.19-.58.38-1.2.19-.63.35-1.37.16-.74.2-1.36.03-.63.2-1.28.17-.65.21-1.46.03-.81.19-1.62.17-.81.17-1.6 0-.78.04-1.63.04-.84.2-1.62.16-.78.16-1.39 0-.61.01-1.4 0-.8.04-1.48.03-.69.2-1.5.16-.81.16-1.59-.01-.78-.01-1.61 0-.82 0-1.67 0-.85 0-1.84-.01-.99-.04-1.86-.03-.86-.2-2.04-.17-1.19-.17-2.19-.01-1-.05-1.82-.04-.81-.23-1.76-.19-.94-.37-1.76-.17-.82-.2-1.5-.04-.69-.2-1.65-.17-.95-.17-1.64 0-.68 0-1.5 0-.81 0-1.64 0-.82-.01-1.66-.01-.85-.04-1.8-.03-.96-.2-1.81-.17-.85-.2-1.82-.04-.98-.21-1.8-.17-.82-.2-1.64-.03-.82-.2-1.65-.16-.83-.17-1.71-.01-.89-.04-1.88-.03-1-.2-2.02-.16-1.02-.16-2.03 0-1.01 0-1.86-.01-.85-.01-1.83-.01-.97-.04-1.76-.03-.79-.2-1.64-.17-.85-.21-1.83-.03-.98-.2-1.79-.17-.82-.21-1.63-.04-.82-.23-1.62-.19-.79-.36-1.68-.17-.89-.17-1.91-.01-1.01-.01-1.84 0-.82 0-1.67 0-.84-.01-1.81 0-.97-.03-1.71-.03-.74-.19-1.39-.17-.66-.17-1.49 0-.83.01-1.49 0-.66.04-1.5.03-.85.2-1.66.16-.8.16-1.55 0-.75 0-1.4.01-.65.05-1.47.03-.82.2-1.43.16-.61.17-1.19 0-.58.05-1.24.05-.67.26-1.32.22-.66.42-1.27.2-.61.4-1.21.19-.6.36-1.14.16-.54.2-1 .04-.45.25-1.1.22-.65.41-1.26.2-.6.36-1.17.16-.57.2-1.19.04-.62.25-1.27.2-.65.36-1.21.16-.57.2-1.18.03-.61.19-1.18.17-.57.17-.97 0-.41.04-1.04.04-.64.2-1.07.17-.44.16-.95-.01-.52-.01-.95 0-.44 0-.98 0-.55-.01-.82 0-.28-.04-.85-.03-.58-.23-1.21-.19-.63-.37-1.49-.18-.86-.22-1.68-.04-.82-.23-1.65-.2-.83-.4-1.86-.2-1.02-.37-2.03-.16-1.01-.17-1.85 0-.84 0-1.62 0-.79 0-1.43 0-.65 0-1.42 0-.77-.01-1.37 0-.6-.03-1.12-.03-.52-.19-.99-.17-.46-.18-1.16-.01-.7-.04-1.43-.03-.73-.2-1.34-.17-.6-.21-1.21-.03-.6-.2-1.18-.17-.57-.21-1.01-.04-.45-.23-1.02-.18-.57-.36-1.19-.18-.62-.22-1.06-.03-.44-.2-1.02-.17-.58-.21-1.03-.03-.44-.19-1.03-.17-.6-.17-1.09-.01-.5-.01-1.1 0-.61 0-1.18 0-.57 0-.99 0-.41.01-.86 0-.44.01-1.04 0-.59.05-1.09.05-.49.26-1.12.21-.62.37-.99.16-.36.19-.77.04-.41.21-.82.17-.41.21-.83.05-.42.28-.89.22-.47.43-.88.2-.4.41-.81.2-.41.4-.82.21-.41.41-.82.2-.41.4-.84.2-.43.4-1.03.21-.61.46-1.25.25-.65.62-1.24.37-.6.59-1.16.22-.56.44-.82.23-.26.51-.67.27-.41.56-.52.29-.1.66-.45.38-.35.8-.58.42-.25.88-.63.46-.39 1.04-.62.57-.23 1.03-.59.46-.35.93-.4.47-.05.92-.22.46-.17 1.1-.17.64-.01 1.08-.01.44 0 1.01 0 .58 0 .99 0 .41.01.83.01.42.01.9.05.47.05.88.22.4.17.81.2.4.03.77.2.37.16.56.16.18 0 .65.04.48.05.88.22.4.17.81.21.41.05.66.22.24.17.61.19.37.02.75.2.39.17.63.2.23.03.63.19.39.16.77.15.37-.01.94-.01.57 0 .98 0 .41 0 .82 0 .41 0 .82 0 .41 0 .82 0 .41 0 .85-.01.44-.01.99-.04.55-.03 1.06-.21.52-.18.97-.37.45-.18.86-.22.41-.04.83-.23.42-.19 1.07-.4.65-.21 1.35-.38.71-.17 1.56-.18.86 0 1.65 0 .79 0 1.49 0 .69 0 1.72 0 1.03 0 2.08 0 1.05 0 2.24.01 1.18.01 2.19.04 1.01.04 1.82.2.8.16 1.55.16.75 0 1.4.01.66.01 1.48.04.83.04 1.46.2.64.16 1.37.16.72 0 1.3 0 .58 0 1.03.01.45 0 1.09.05.63.04.99.2.37.16.53.15.17 0 .54 0 .38 0 .61.01.23.01.54.07.32.06.49.21.17.16.21.14 4.32-.03 4.32-.03h0z"/></svg>