<svg preserveAspectRatio="none" xmlns="http://www.w3.org/2000/svg" viewBox="8.32 8.31 112.03 411.56"><path fill="#000" d="M 60.62 18.85 L 60.62 18.85 L 60.61 14.63 L 60.60 14.70 L 60.58 14.77 L 60.56 14.83 L 60.53 14.89 L 60.50 14.95 L 60.45 15.01 L 60.41 15.06 L 60.36 15.10 L 60.30 15.15 L 60.24 15.18 L 60.18 15.21 L 60.12 15.23 L 60.05 15.25 L 59.98 15.26 L 51.35 15.27 L 59.86 15.26 L 59.79 15.25 L 59.72 15.23 L 59.66 15.21 L 59.60 15.18 L 59.54 15.15 L 59.48 15.10 L 59.43 15.06 L 59.39 15.01 L 59.34 14.95 L 59.31 14.89 L 59.28 14.83 L 59.26 14.77 L 59.24 14.70 L 59.23 14.63 L 59.22 10.29 L 59.22 14.44 L 59.22 14.31 L 59.24 14.27 L 59.26 14.23 L 59.14 14.10 L 59.02 13.96 L 59.06 13.89 L 59.10 13.83 L 59.17 13.90 L 59.25 13.98 L 59.00 13.98 L 58.75 13.97 L 58.57 13.97 L 58.38 13.97 L 58.02 13.96 L 57.66 13.96 L 57.32 13.82 L 56.99 13.69 L 56.73 13.67 L 56.47 13.66 L 55.98 13.65 L 55.49 13.64 L 54.99 13.51 L 54.50 13.37 L 54.14 13.35 L 53.78 13.32 L 53.26 13.17 L 52.74 13.02 L 52.36 12.85 L 51.97 12.68 L 51.62 12.50 L 51.26 12.33 L 50.82 12.04 L 50.37 11.76 L 49.93 11.58 L 49.48 11.41 L 49.02 11.25 L 48.56 11.09 L 47.86 10.94 L 47.16 10.78 L 46.52 10.75 L 45.88 10.72 L 45.24 10.72 L 44.59 10.71 L 44.07 10.71 L 43.54 10.71 L 42.92 10.71 L 42.29 10.71 L 41.86 10.70 L 41.43 10.69 L 40.99 10.93 L 40.55 11.17 L 40.07 11.35 L 39.59 11.52 L 39.15 11.79 L 38.72 12.06 L 38.42 12.29 L 38.13 12.51 L 37.81 12.55 L 37.49 12.60 L 37.36 12.71 L 37.22 12.82 L 36.92 12.98 L 36.61 13.14 L 36.16 13.43 L 35.71 13.73 L 35.38 13.90 L 35.04 14.08 L 34.84 14.25 L 34.64 14.42 L 34.25 14.62 L 33.85 14.83 L 33.45 14.87 L 33.05 14.92 L 32.84 14.93 L 32.63 14.94 L 32.39 14.93 L 32.15 14.92 L 31.84 15.05 L 31.53 15.18 L 31.19 15.21 L 30.85 15.24 L 30.39 15.38 L 29.94 15.51 L 29.54 15.54 L 29.13 15.58 L 28.66 15.58 L 28.19 15.59 L 27.89 15.58 L 27.60 15.58 L 27.28 15.71 L 26.96 15.84 L 26.44 15.87 L 25.92 15.90 L 25.56 15.91 L 25.19 15.91 L 24.86 15.92 L 24.53 15.92 L 24.20 15.92 L 23.87 15.92 L 23.54 15.92 L 23.22 15.92 L 22.79 15.90 L 22.36 15.89 L 22.15 15.75 L 21.94 15.62 L 21.74 15.61 L 21.54 15.60 L 21.23 15.60 L 20.92 15.59 L 20.60 15.59 L 20.28 15.59 L 19.95 15.59 L 19.63 15.59 L 19.30 15.59 L 18.98 15.59 L 18.52 15.59 L 18.06 15.59 L 17.76 15.59 L 17.45 15.58 L 17.00 15.71 L 16.56 15.84 L 16.22 15.86 L 15.89 15.89 L 15.64 15.99 L 15.38 16.10 L 14.98 16.35 L 14.57 16.61 L 14.27 16.88 L 13.96 17.16 L 13.68 17.55 L 13.39 17.94 L 13.20 18.41 L 13.01 18.88 L 12.72 19.33 L 12.44 19.79 L 12.39 20.10 L 12.35 20.42 L 12.20 20.91 L 12.05 21.40 L 11.90 21.84 L 11.75 22.28 L 11.72 22.88 L 11.69 23.48 L 11.56 24.13 L 11.42 24.77 L 11.39 25.52 L 11.37 26.26 L 11.36 26.93 L 11.36 27.61 L 11.36 28.26 L 11.36 28.92 L 11.36 29.44 L 11.36 29.97 L 11.36 30.46 L 11.36 30.96 L 11.36 31.45 L 11.36 31.94 L 11.36 32.43 L 11.36 32.92 L 11.35 33.44 L 11.35 33.97 L 11.22 34.60 L 11.09 35.23 L 11.07 35.71 L 11.04 36.19 L 11.04 36.81 L 11.03 37.42 L 11.03 37.94 L 11.03 38.45 L 11.03 39.08 L 11.03 39.70 L 11.03 40.35 L 11.03 41.00 L 11.03 41.65 L 11.03 42.30 L 11.03 42.92 L 11.03 43.54 L 11.16 44.18 L 11.29 44.82 L 11.31 45.33 L 11.33 45.84 L 11.47 46.34 L 11.60 46.83 L 11.63 47.34 L 11.66 47.85 L 11.80 48.57 L 11.93 49.30 L 12.09 50.13 L 12.25 50.95 L 12.28 51.77 L 12.31 52.58 L 12.45 53.24 L 12.58 53.89 L 12.74 54.71 L 12.90 55.52 L 12.93 56.20 L 12.97 56.88 L 13.10 57.51 L 13.23 58.13 L 13.39 58.81 L 13.55 59.50 L 13.59 60.29 L 13.62 61.09 L 13.76 62.03 L 13.89 62.97 L 13.92 63.71 L 13.95 64.44 L 13.96 65.24 L 13.96 66.04 L 13.96 66.99 L 13.97 67.93 L 13.97 68.90 L 13.97 69.87 L 13.97 70.85 L 13.97 71.83 L 13.96 72.65 L 13.96 73.47 L 14.09 74.29 L 14.22 75.10 L 14.25 76.08 L 14.28 77.05 L 14.28 78.42 L 14.29 79.79 L 14.29 80.72 L 14.29 81.64 L 14.29 82.35 L 14.29 83.06 L 14.29 83.72 L 14.29 84.38 L 14.29 84.78 L 14.29 85.17 L 14.29 85.82 L 14.29 86.46 L 14.15 87.02 L 14.01 87.57 L 13.85 88.20 L 13.69 88.84 L 13.53 89.36 L 13.36 89.89 L 13.20 90.38 L 13.04 90.87 L 12.89 91.44 L 12.73 92.02 L 12.70 92.50 L 12.68 92.97 L 12.67 93.45 L 12.66 93.94 L 12.66 94.30 L 12.66 94.65 L 12.66 95.16 L 12.65 95.67 L 12.52 96.17 L 12.39 96.66 L 12.37 96.98 L 12.35 97.29 L 12.34 97.61 L 12.34 97.93 L 12.34 98.39 L 12.34 98.85 L 12.33 99.26 L 12.32 99.68 L 12.19 100.02 L 12.06 100.36 L 12.04 100.76 L 12.02 101.15 L 12.02 101.63 L 12.01 102.10 L 12.01 102.59 L 12.01 103.07 L 12.01 103.56 L 12.01 104.05 L 12.01 104.80 L 12.01 105.55 L 12.01 106.05 L 12.00 106.54 L 12.13 107.04 L 12.26 107.53 L 12.29 108.02 L 12.32 108.52 L 12.45 109.14 L 12.59 109.76 L 12.61 110.27 L 12.64 110.78 L 12.77 111.27 L 12.91 111.76 L 12.94 112.25 L 12.96 112.74 L 13.09 113.19 L 13.22 113.64 L 13.38 114.16 L 13.55 114.69 L 13.59 115.36 L 13.62 116.04 L 13.63 116.69 L 13.64 117.34 L 13.64 117.83 L 13.64 118.32 L 13.77 118.94 L 13.90 119.56 L 13.92 120.24 L 13.95 120.92 L 13.96 121.58 L 13.96 122.24 L 13.96 123.05 L 13.96 123.86 L 13.83 124.68 L 13.70 125.50 L 13.68 126.02 L 13.65 126.55 L 13.65 127.18 L 13.64 127.80 L 13.64 128.45 L 13.64 129.09 L 13.64 129.75 L 13.64 130.40 L 13.64 130.96 L 13.64 131.51 L 13.50 132.15 L 13.37 132.78 L 13.35 133.27 L 13.33 133.75 L 13.32 134.40 L 13.31 135.05 L 13.18 135.73 L 13.04 136.41 L 12.88 137.20 L 12.72 137.99 L 12.57 138.64 L 12.41 139.29 L 12.38 139.95 L 12.34 140.62 L 12.20 141.17 L 12.05 141.73 L 11.89 142.36 L 11.73 143.00 L 11.58 143.48 L 11.43 143.97 L 11.40 144.54 L 11.37 145.12 L 11.37 145.75 L 11.36 146.39 L 11.36 147.04 L 11.36 147.69 L 11.36 148.34 L 11.36 149.00 L 11.36 149.78 L 11.36 150.56 L 11.36 151.24 L 11.36 151.92 L 11.36 152.71 L 11.36 153.50 L 11.35 154.13 L 11.35 154.77 L 11.48 155.29 L 11.61 155.81 L 11.64 156.44 L 11.66 157.08 L 11.79 157.69 L 11.92 158.31 L 12.07 158.93 L 12.22 159.56 L 12.51 160.31 L 12.79 161.06 L 13.09 161.71 L 13.40 162.36 L 13.85 163.14 L 14.30 163.93 L 14.68 164.65 L 15.05 165.37 L 15.26 166.21 L 15.48 167.04 L 15.66 167.89 L 15.83 168.73 L 15.87 169.55 L 15.90 170.38 L 16.04 171.19 L 16.18 172.01 L 16.21 172.72 L 16.24 173.43 L 16.24 174.10 L 16.25 174.77 L 16.25 175.42 L 16.25 176.08 L 16.25 176.86 L 16.25 177.64 L 16.25 178.35 L 16.25 179.05 L 16.11 180.01 L 15.98 180.96 L 15.82 181.69 L 15.66 182.41 L 15.50 183.07 L 15.33 183.73 L 15.18 184.48 L 15.02 185.24 L 14.99 185.91 L 14.96 186.58 L 14.82 187.39 L 14.68 188.20 L 14.51 189.16 L 14.35 190.12 L 14.06 191.09 L 13.77 192.07 L 13.58 193.15 L 13.40 194.24 L 13.23 195.22 L 13.07 196.20 L 13.03 197.18 L 13.00 198.17 L 12.86 199.04 L 12.72 199.91 L 12.57 200.84 L 12.41 201.77 L 12.38 202.74 L 12.35 203.71 L 12.21 204.69 L 12.07 205.67 L 12.05 206.62 L 12.02 207.58 L 12.02 208.42 L 12.01 209.26 L 12.01 210.11 L 12.01 210.95 L 11.87 211.93 L 11.74 212.90 L 11.58 213.88 L 11.43 214.85 L 11.26 215.96 L 11.10 217.06 L 10.94 218.18 L 10.78 219.29 L 10.75 220.39 L 10.72 221.49 L 10.84 222.62 L 10.97 223.75 L 10.99 224.78 L 11.02 225.81 L 11.02 226.78 L 11.03 227.75 L 11.16 228.84 L 11.29 229.93 L 11.44 231.33 L 11.60 232.72 L 11.76 234.05 L 11.92 235.37 L 12.08 236.67 L 12.25 237.98 L 12.41 239.15 L 12.57 240.32 L 12.73 241.31 L 12.89 242.30 L 13.17 243.26 L 13.46 244.22 L 13.78 245.20 L 14.10 246.17 L 14.42 247.15 L 14.75 248.13 L 15.08 249.13 L 15.41 250.13 L 15.61 251.13 L 15.81 252.13 L 15.98 252.95 L 16.14 253.77 L 16.43 254.57 L 16.71 255.36 L 17.04 256.20 L 17.36 257.03 L 17.57 257.90 L 17.78 258.77 L 17.82 259.63 L 17.86 260.48 L 17.87 261.59 L 17.88 262.70 L 17.74 263.72 L 17.61 264.75 L 17.46 265.84 L 17.30 266.94 L 17.27 267.92 L 17.24 268.91 L 17.24 269.75 L 17.23 270.60 L 17.23 271.43 L 17.23 272.25 L 17.23 273.19 L 17.23 274.14 L 17.23 274.98 L 17.23 275.83 L 17.23 276.91 L 17.23 277.99 L 17.23 279.12 L 17.23 280.25 L 17.23 281.13 L 17.23 282.01 L 17.23 283.00 L 17.23 283.99 L 17.08 284.76 L 16.94 285.54 L 16.65 286.34 L 16.36 287.14 L 16.18 287.92 L 16.00 288.71 L 15.83 289.66 L 15.66 290.62 L 15.37 291.60 L 15.07 292.57 L 14.89 293.53 L 14.70 294.48 L 14.53 295.46 L 14.37 296.43 L 14.21 297.39 L 14.04 298.34 L 14.01 299.32 L 13.98 300.29 L 13.84 301.27 L 13.71 302.25 L 13.68 303.22 L 13.65 304.20 L 13.51 305.18 L 13.38 306.16 L 13.35 307.14 L 13.32 308.12 L 13.19 309.12 L 13.05 310.12 L 12.89 311.21 L 12.74 312.30 L 12.71 313.30 L 12.67 314.31 L 12.53 315.31 L 12.40 316.32 L 12.24 317.28 L 12.08 318.24 L 12.05 319.35 L 12.02 320.45 L 11.88 321.46 L 11.75 322.46 L 11.72 323.55 L 11.70 324.64 L 11.69 325.78 L 11.68 326.91 L 11.68 327.79 L 11.68 328.67 L 11.68 329.63 L 11.68 330.58 L 11.68 331.40 L 11.68 332.23 L 11.81 333.17 L 11.94 334.12 L 11.97 334.98 L 12.00 335.85 L 12.00 336.78 L 12.00 337.71 L 12.13 338.55 L 12.27 339.39 L 12.29 340.19 L 12.31 341.00 L 12.44 341.52 L 12.57 342.04 L 12.73 342.68 L 12.89 343.32 L 13.05 344.10 L 13.22 344.89 L 13.38 345.71 L 13.55 346.53 L 13.71 347.61 L 13.88 348.69 L 14.04 349.67 L 14.20 350.66 L 14.36 351.36 L 14.51 352.06 L 14.68 352.62 L 14.85 353.18 L 14.89 353.73 L 14.93 354.28 L 14.93 354.91 L 14.94 355.55 L 14.94 356.19 L 14.94 356.84 L 14.94 357.49 L 14.94 358.15 L 14.94 358.96 L 14.94 359.78 L 14.81 360.46 L 14.68 361.15 L 14.66 361.78 L 14.63 362.40 L 14.63 363.18 L 14.62 363.96 L 14.62 364.63 L 14.62 365.31 L 14.62 366.10 L 14.62 366.89 L 14.62 367.52 L 14.61 368.16 L 14.74 368.68 L 14.87 369.20 L 14.90 369.87 L 14.93 370.54 L 14.94 371.06 L 14.94 371.59 L 14.94 372.21 L 14.94 372.84 L 14.94 373.49 L 14.94 374.14 L 14.94 374.79 L 14.94 375.44 L 14.94 376.22 L 14.94 377.01 L 14.94 377.72 L 14.94 378.43 L 14.80 379.14 L 14.66 379.85 L 14.51 380.34 L 14.36 380.84 L 14.33 381.46 L 14.30 382.07 L 14.17 382.72 L 14.03 383.36 L 14.00 383.85 L 13.98 384.34 L 13.97 384.86 L 13.96 385.38 L 13.83 386.01 L 13.70 386.64 L 13.68 387.12 L 13.65 387.60 L 13.65 388.09 L 13.64 388.57 L 13.64 389.19 L 13.64 389.81 L 13.64 390.46 L 13.64 391.10 L 13.64 391.62 L 13.64 392.15 L 13.64 392.77 L 13.64 393.40 L 13.64 394.05 L 13.64 394.69 L 13.64 395.34 L 13.64 396.00 L 13.64 396.60 L 13.63 397.21 L 13.76 397.73 L 13.89 398.24 L 13.92 398.73 L 13.94 399.22 L 14.08 399.71 L 14.22 400.20 L 14.24 400.70 L 14.27 401.20 L 14.41 401.82 L 14.54 402.45 L 14.57 403.09 L 14.60 403.74 L 14.73 404.36 L 14.86 404.98 L 15.01 405.61 L 15.17 406.25 L 15.33 406.77 L 15.49 407.29 L 15.65 407.91 L 15.81 408.54 L 15.99 409.09 L 16.16 409.64 L 16.19 410.28 L 16.23 410.91 L 16.35 411.37 L 16.47 411.82 L 16.59 412.11 L 16.72 412.41 L 16.97 412.69 L 17.22 412.97 L 17.41 413.16 L 17.59 413.35 L 17.90 413.67 L 18.22 413.99 L 18.56 414.47 L 18.90 414.95 L 19.21 415.41 L 19.53 415.88 L 19.81 416.19 L 20.10 416.50 L 20.48 416.78 L 20.86 417.07 L 21.39 417.23 L 21.91 417.40 L 22.25 417.43 L 22.58 417.46 L 22.84 417.48 L 23.09 417.49 L 23.40 417.36 L 23.71 417.24 L 24.10 417.20 L 24.49 417.17 L 24.67 417.20 L 24.86 417.24 L 25.00 417.01 L 25.13 416.78 L 25.62 416.57 L 26.11 416.35 L 26.56 416.07 L 27.01 415.78 L 27.48 415.47 L 27.96 415.16 L 28.59 414.69 L 29.22 414.23 L 29.90 413.86 L 30.58 413.49 L 31.40 413.14 L 32.22 412.79 L 32.91 412.59 L 33.60 412.39 L 34.17 412.21 L 34.73 412.03 L 35.28 411.99 L 35.83 411.95 L 36.33 411.95 L 36.83 411.94 L 37.19 411.94 L 37.56 411.94 L 37.89 411.94 L 38.22 411.94 L 38.74 411.94 L 39.26 411.95 L 39.67 412.09 L 40.08 412.24 L 40.49 412.38 L 40.90 412.52 L 41.50 412.55 L 42.11 412.58 L 42.62 412.72 L 43.14 412.85 L 43.66 412.89 L 44.18 412.92 L 44.83 413.20 L 45.49 413.47 L 46.12 413.65 L 46.75 413.83 L 47.29 414.00 L 47.83 414.18 L 48.59 414.47 L 49.35 414.77 L 49.87 414.95 L 50.40 415.13 L 51.02 415.30 L 51.65 415.47 L 52.18 415.64 L 52.70 415.80 L 53.20 415.97 L 53.70 416.13 L 54.14 416.28 L 54.59 416.43 L 55.16 416.46 L 55.72 416.49 L 56.26 416.50 L 56.80 416.50 L 57.56 416.64 L 58.32 416.77 L 58.99 416.79 L 59.66 416.82 L 60.44 416.96 L 61.22 417.09 L 62.01 417.12 L 62.79 417.14 L 63.60 417.15 L 64.40 417.15 L 65.05 417.16 L 65.70 417.16 L 66.35 417.03 L 67.00 416.90 L 67.56 416.87 L 68.12 416.84 L 68.75 416.84 L 69.39 416.83 L 70.04 416.83 L 70.68 416.83 L 71.34 416.83 L 71.99 416.83 L 72.77 416.83 L 73.55 416.83 L 74.36 416.83 L 75.17 416.83 L 75.99 416.83 L 76.80 416.83 L 77.62 416.83 L 78.43 416.83 L 79.12 416.83 L 79.80 416.83 L 80.42 416.83 L 81.04 416.83 L 81.51 416.72 L 81.98 416.60 L 82.47 416.44 L 82.97 416.28 L 83.59 416.12 L 84.21 415.96 L 84.72 415.80 L 85.24 415.63 L 85.91 415.46 L 86.58 415.29 L 87.37 415.25 L 88.16 415.22 L 88.83 415.08 L 89.51 414.95 L 90.17 414.92 L 90.82 414.89 L 91.48 414.76 L 92.13 414.62 L 92.76 414.60 L 93.39 414.57 L 93.74 414.45 L 94.08 414.32 L 94.53 414.17 L 94.99 414.02 L 95.34 413.86 L 95.69 413.70 L 96.17 413.53 L 96.65 413.36 L 97.12 413.20 L 97.59 413.04 L 97.93 412.89 L 98.26 412.74 L 98.84 412.45 L 99.41 412.17 L 99.92 411.85 L 100.42 411.54 L 100.82 411.33 L 101.21 411.11 L 101.70 410.93 L 102.19 410.75 L 102.67 410.60 L 103.14 410.44 L 103.54 410.26 L 103.94 410.08 L 104.41 410.05 L 104.88 410.01 L 105.19 409.89 L 105.51 409.76 L 105.94 409.62 L 106.37 409.47 L 106.82 409.20 L 107.26 408.93 L 107.73 408.63 L 108.19 408.33 L 108.52 408.02 L 108.85 407.72 L 109.14 407.45 L 109.42 407.18 L 109.58 406.80 L 109.74 406.41 L 109.89 405.98 L 110.05 405.56 L 110.07 405.10 L 110.10 404.63 L 110.24 403.89 L 110.38 403.14 L 110.41 402.47 L 110.43 401.80 L 110.57 401.02 L 110.70 400.23 L 110.73 399.54 L 110.76 398.86 L 110.90 398.16 L 111.05 397.46 L 111.20 396.96 L 111.35 396.46 L 111.38 395.85 L 111.41 395.24 L 111.55 394.56 L 111.70 393.88 L 111.85 393.23 L 112.01 392.58 L 112.17 391.83 L 112.32 391.08 L 112.36 390.26 L 112.39 389.45 L 112.53 388.89 L 112.66 388.34 L 112.69 387.71 L 112.72 387.09 L 112.85 386.44 L 112.99 385.79 L 113.01 385.30 L 113.04 384.81 L 113.04 384.20 L 113.05 383.58 L 113.05 383.06 L 113.05 382.55 L 113.05 382.05 L 113.05 381.56 L 113.05 380.94 L 113.05 380.32 L 113.05 379.71 L 113.06 379.09 L 112.93 378.45 L 112.80 377.81 L 112.77 377.25 L 112.74 376.70 L 112.74 376.11 L 112.73 375.52 L 112.60 375.00 L 112.47 374.49 L 112.44 373.83 L 112.41 373.16 L 112.41 372.50 L 112.40 371.85 L 112.40 371.33 L 112.40 370.81 L 112.40 370.18 L 112.40 369.55 L 112.40 369.17 L 112.40 368.78 L 112.40 368.31 L 112.40 367.84 L 112.40 367.54 L 112.41 367.23 L 112.28 366.78 L 112.15 366.32 L 112.12 365.79 L 112.09 365.26 L 112.08 364.63 L 112.08 364.01 L 112.08 363.49 L 112.07 362.97 L 112.07 362.35 L 112.07 361.72 L 112.08 361.12 L 112.08 360.51 L 111.95 360.00 L 111.82 359.48 L 111.79 358.82 L 111.76 358.15 L 111.76 357.63 L 111.75 357.10 L 111.75 356.48 L 111.75 355.85 L 111.75 355.20 L 111.75 354.55 L 111.75 353.90 L 111.75 353.25 L 111.75 352.73 L 111.75 352.21 L 111.75 351.71 L 111.75 351.22 L 111.75 350.72 L 111.75 350.23 L 111.75 349.61 L 111.75 348.99 L 111.75 348.48 L 111.75 347.96 L 111.75 347.29 L 111.75 346.63 L 111.88 346.10 L 112.02 345.58 L 112.04 344.96 L 112.07 344.34 L 112.20 343.69 L 112.34 343.04 L 112.36 342.56 L 112.39 342.07 L 112.39 341.42 L 112.40 340.77 L 112.53 340.11 L 112.67 339.46 L 112.69 338.69 L 112.72 337.92 L 112.85 336.96 L 112.99 336.00 L 113.15 334.90 L 113.31 333.80 L 113.47 332.67 L 113.63 331.53 L 113.79 330.39 L 113.96 329.25 L 114.12 328.08 L 114.29 326.92 L 114.59 325.90 L 114.88 324.89 L 115.07 323.77 L 115.26 322.65 L 115.56 321.64 L 115.86 320.63 L 116.05 319.67 L 116.23 318.70 L 116.40 317.73 L 116.57 316.75 L 116.73 315.77 L 116.90 314.79 L 117.06 313.96 L 117.22 313.14 L 117.25 312.32 L 117.28 311.51 L 117.42 310.56 L 117.55 309.61 L 117.58 308.90 L 117.61 308.18 L 117.75 307.39 L 117.88 306.59 L 117.91 305.68 L 117.93 304.77 L 117.94 303.93 L 117.94 303.09 L 117.95 302.41 L 117.95 301.72 L 117.95 300.96 L 117.95 300.20 L 117.83 299.56 L 117.70 298.92 L 117.54 298.24 L 117.38 297.56 L 117.34 296.86 L 117.31 296.17 L 117.30 295.38 L 117.30 294.59 L 117.30 293.81 L 117.30 293.02 L 117.17 292.21 L 117.04 291.40 L 117.01 290.56 L 116.98 289.72 L 116.98 288.90 L 116.97 288.08 L 116.97 287.26 L 116.97 286.44 L 116.97 285.76 L 116.97 285.07 L 116.97 284.41 L 116.97 283.76 L 116.97 283.10 L 116.97 282.45 L 116.97 281.79 L 116.97 281.14 L 116.97 280.49 L 116.97 279.84 L 116.97 279.18 L 116.97 278.53 L 116.97 277.75 L 116.97 276.97 L 116.97 276.16 L 116.97 275.35 L 116.97 274.53 L 116.97 273.72 L 116.97 273.03 L 116.97 272.35 L 116.97 271.56 L 116.97 270.77 L 116.97 270.12 L 116.97 269.48 L 116.84 268.83 L 116.71 268.18 L 116.69 267.65 L 116.66 267.13 L 116.52 266.37 L 116.39 265.61 L 116.36 264.93 L 116.33 264.25 L 116.20 263.33 L 116.06 262.41 L 116.03 261.45 L 116.01 260.48 L 115.87 259.66 L 115.74 258.85 L 115.59 258.04 L 115.43 257.23 L 115.27 256.54 L 115.11 255.86 L 114.94 255.07 L 114.78 254.28 L 114.61 253.57 L 114.45 252.86 L 114.41 252.06 L 114.38 251.26 L 114.24 250.45 L 114.10 249.64 L 114.07 248.67 L 114.05 247.69 L 114.04 246.85 L 114.03 246.00 L 114.03 245.07 L 114.03 244.15 L 113.90 243.31 L 113.77 242.47 L 113.75 241.63 L 113.72 240.78 L 113.71 240.09 L 113.71 239.40 L 113.71 238.74 L 113.71 238.08 L 113.71 237.42 L 113.71 236.77 L 113.71 236.11 L 113.70 235.46 L 113.70 234.68 L 113.70 233.90 L 113.70 233.22 L 113.70 232.54 L 113.70 231.75 L 113.70 230.96 L 113.70 230.28 L 113.70 229.60 L 113.70 228.94 L 113.70 228.29 L 113.70 227.63 L 113.70 226.98 L 113.70 226.33 L 113.70 225.67 L 113.71 225.11 L 113.71 224.56 L 113.84 223.92 L 113.97 223.29 L 114.00 222.64 L 114.02 222.00 L 114.16 221.34 L 114.30 220.69 L 114.32 220.04 L 114.35 219.39 L 114.49 218.70 L 114.63 218.01 L 114.79 217.39 L 114.94 216.76 L 114.97 216.12 L 115.00 215.47 L 115.14 214.82 L 115.27 214.17 L 115.30 213.55 L 115.32 212.93 L 115.33 212.41 L 115.33 211.90 L 115.33 211.27 L 115.34 210.65 L 115.34 210.13 L 115.34 209.62 L 115.34 208.96 L 115.34 208.30 L 115.47 207.64 L 115.60 206.99 L 115.63 206.24 L 115.65 205.49 L 115.65 204.82 L 115.66 204.15 L 115.66 203.62 L 115.66 203.10 L 115.66 202.47 L 115.66 201.84 L 115.66 201.19 L 115.66 200.55 L 115.66 199.89 L 115.66 199.24 L 115.66 198.59 L 115.66 197.94 L 115.66 197.29 L 115.66 196.63 L 115.66 195.98 L 115.66 195.33 L 115.66 194.68 L 115.66 194.02 L 115.66 193.37 L 115.66 192.72 L 115.66 191.96 L 115.66 191.21 L 115.53 190.40 L 115.40 189.60 L 115.38 188.76 L 115.35 187.92 L 115.34 187.23 L 115.34 186.54 L 115.34 185.78 L 115.34 185.02 L 115.21 184.35 L 115.08 183.68 L 115.05 183.02 L 115.03 182.36 L 114.89 181.71 L 114.76 181.06 L 114.73 180.40 L 114.70 179.74 L 114.57 178.96 L 114.43 178.17 L 114.40 177.36 L 114.37 176.55 L 114.24 175.74 L 114.10 174.92 L 114.08 174.25 L 114.05 173.57 L 113.92 172.95 L 113.79 172.34 L 113.64 171.82 L 113.48 171.31 L 113.31 170.64 L 113.14 169.97 L 113.11 169.42 L 113.07 168.86 L 113.06 168.22 L 113.06 167.58 L 113.05 166.94 L 113.05 166.29 L 113.05 165.63 L 113.05 164.98 L 113.05 164.30 L 113.06 163.61 L 113.19 162.92 L 113.33 162.24 L 113.48 161.45 L 113.64 160.66 L 113.81 159.97 L 113.97 159.28 L 114.13 158.62 L 114.30 157.97 L 114.46 157.31 L 114.62 156.66 L 114.79 156.00 L 114.95 155.35 L 115.11 154.71 L 115.27 154.06 L 115.44 153.28 L 115.60 152.50 L 115.76 151.84 L 115.91 151.19 L 115.95 150.54 L 115.98 149.89 L 116.12 149.23 L 116.25 148.58 L 116.28 148.09 L 116.30 147.60 L 116.31 147.12 L 116.31 146.63 L 116.31 146.14 L 116.31 145.65 L 116.31 145.16 L 116.32 144.67 L 116.32 144.18 L 116.32 143.69 L 116.32 143.04 L 116.32 142.38 L 116.45 141.73 L 116.58 141.07 L 116.61 140.59 L 116.63 140.10 L 116.63 139.48 L 116.64 138.86 L 116.64 138.35 L 116.64 137.83 L 116.64 137.18 L 116.64 136.52 L 116.78 135.74 L 116.91 134.96 L 116.93 134.31 L 116.95 133.66 L 116.96 133.00 L 116.97 132.35 L 116.97 131.70 L 116.97 131.05 L 116.97 130.53 L 116.97 130.01 L 116.97 129.38 L 116.97 128.75 L 116.97 128.24 L 116.97 127.72 L 116.97 127.09 L 116.97 126.47 L 116.97 125.82 L 116.97 125.17 L 116.97 124.56 L 116.97 123.96 L 116.84 123.44 L 116.71 122.93 L 116.69 122.29 L 116.66 121.66 L 116.53 121.05 L 116.40 120.43 L 116.24 119.79 L 116.09 119.14 L 115.92 118.46 L 115.75 117.77 L 115.72 117.12 L 115.69 116.47 L 115.56 116.00 L 115.43 115.52 L 115.27 114.99 L 115.10 114.46 L 115.07 113.82 L 115.03 113.18 L 114.89 112.53 L 114.76 111.88 L 114.73 111.20 L 114.70 110.51 L 114.69 109.72 L 114.69 108.93 L 114.69 108.25 L 114.68 107.57 L 114.68 106.78 L 114.68 105.99 L 114.68 105.44 L 114.68 104.89 L 114.68 104.26 L 114.68 103.63 L 114.68 103.11 L 114.68 102.60 L 114.69 101.93 L 114.69 101.27 L 114.82 100.62 L 114.95 99.97 L 114.97 99.35 L 115.00 98.73 L 115.00 98.08 L 115.01 97.44 L 115.01 96.88 L 115.01 96.33 L 115.14 95.69 L 115.28 95.06 L 115.30 94.41 L 115.33 93.76 L 115.46 93.11 L 115.60 92.46 L 115.63 91.81 L 115.65 91.17 L 115.79 90.38 L 115.93 89.60 L 115.95 89.04 L 115.98 88.49 L 116.12 87.86 L 116.25 87.22 L 116.28 86.71 L 116.31 86.19 L 116.45 85.52 L 116.60 84.85 L 116.76 84.33 L 116.92 83.81 L 117.07 83.22 L 117.22 82.64 L 117.25 82.00 L 117.28 81.36 L 117.42 80.71 L 117.56 80.06 L 117.58 79.57 L 117.61 79.08 L 117.61 78.47 L 117.62 77.85 L 117.62 77.33 L 117.62 76.82 L 117.62 76.19 L 117.62 75.57 L 117.62 75.05 L 117.62 74.53 L 117.62 74.04 L 117.62 73.54 L 117.62 73.05 L 117.62 72.56 L 117.62 72.07 L 117.62 71.58 L 117.62 71.06 L 117.62 70.53 L 117.76 69.91 L 117.89 69.28 L 117.91 68.67 L 117.93 68.06 L 117.94 67.54 L 117.94 67.03 L 117.95 66.45 L 117.95 65.86 L 117.82 65.36 L 117.69 64.85 L 117.67 64.21 L 117.64 63.58 L 117.51 62.98 L 117.38 62.37 L 117.23 61.87 L 117.08 61.37 L 116.91 60.83 L 116.74 60.30 L 116.72 59.86 L 116.70 59.43 L 116.46 59.12 L 116.21 58.81 L 115.99 58.25 L 115.77 57.70 L 115.73 57.20 L 115.69 56.69 L 115.56 56.25 L 115.44 55.80 L 115.27 55.27 L 115.10 54.74 L 115.06 54.07 L 115.03 53.40 L 115.02 52.87 L 115.01 52.35 L 115.01 51.76 L 115.01 51.17 L 114.88 50.53 L 114.75 49.89 L 114.73 49.33 L 114.70 48.78 L 114.69 48.15 L 114.69 47.51 L 114.69 46.86 L 114.68 46.21 L 114.68 45.69 L 114.68 45.17 L 114.69 44.63 L 114.69 44.09 L 114.82 43.59 L 114.95 43.09 L 114.98 42.61 L 115.00 42.12 L 115.14 41.50 L 115.27 40.88 L 115.30 40.37 L 115.33 39.85 L 115.47 39.19 L 115.62 38.52 L 115.77 38.03 L 115.92 37.54 L 115.95 37.05 L 115.98 36.56 L 116.13 36.02 L 116.28 35.49 L 116.43 35.04 L 116.57 34.58 L 116.61 34.10 L 116.64 33.62 L 116.78 33.09 L 116.93 32.55 L 117.08 32.10 L 117.23 31.65 L 117.25 31.21 L 117.28 30.77 L 117.28 30.29 L 117.29 29.81 L 117.30 29.41 L 117.30 29.00 L 117.43 28.53 L 117.56 28.06 L 117.59 27.62 L 117.61 27.18 L 117.61 26.70 L 117.62 26.22 L 117.62 25.74 L 117.62 25.25 L 117.63 24.96 L 117.63 24.66 L 117.50 24.34 L 117.38 24.02 L 117.35 23.70 L 117.33 23.38 L 117.19 23.05 L 117.06 22.72 L 117.02 22.33 L 116.98 21.94 L 116.98 21.53 L 116.98 21.12 L 116.87 20.82 L 116.75 20.52 L 116.60 20.07 L 116.44 19.62 L 116.29 19.29 L 116.14 18.96 L 115.98 18.63 L 115.82 18.30 L 115.70 18.05 L 115.59 17.80 L 115.35 17.65 L 115.10 17.50 L 114.92 17.34 L 114.75 17.18 L 114.55 17.06 L 114.35 16.95 L 114.04 16.92 L 113.74 16.89 L 113.42 16.75 L 113.10 16.62 L 112.84 16.60 L 112.58 16.58 L 112.26 16.58 L 111.95 16.57 L 111.76 16.57 L 111.56 16.57 L 111.40 16.57 L 111.23 16.57 L 110.95 16.55 L 110.67 16.53 L 110.39 16.33 L 110.11 16.14 L 109.93 15.97 L 109.76 15.80 L 109.59 15.63 L 109.42 15.47 L 109.30 15.34 L 109.17 15.21 L 108.97 15.09 L 108.77 14.98 L 108.60 14.95 L 108.42 14.92 L 108.13 14.79 L 107.85 14.66 L 107.54 14.63 L 107.22 14.61 L 106.90 14.48 L 106.58 14.35 L 106.19 14.33 L 105.80 14.31 L 105.33 14.30 L 104.85 14.30 L 104.24 14.30 L 103.62 14.30 L 103.10 14.30 L 102.59 14.30 L 102.10 14.30 L 101.60 14.30 L 101.11 14.30 L 100.62 14.30 L 100.17 14.29 L 99.71 14.29 L 99.10 14.42 L 98.49 14.55 L 98.00 14.57 L 97.51 14.58 L 97.15 14.72 L 96.79 14.86 L 96.32 14.88 L 95.86 14.91 L 95.51 15.04 L 95.16 15.18 L 94.82 15.21 L 94.47 15.24 L 94.05 15.37 L 93.63 15.49 L 93.11 15.66 L 92.59 15.83 L 91.96 15.86 L 91.33 15.89 L 90.81 16.03 L 90.30 16.17 L 89.63 16.20 L 88.96 16.23 L 88.44 16.24 L 87.91 16.24 L 87.42 16.24 L 86.92 16.24 L 86.30 16.24 L 85.68 16.24 L 85.12 16.24 L 84.55 16.24 L 84.05 16.11 L 83.54 15.97 L 83.18 15.95 L 82.81 15.92 L 82.35 15.78 L 81.89 15.65 L 81.45 15.63 L 81.01 15.60 L 80.67 15.60 L 80.32 15.59 L 79.92 15.59 L 79.53 15.58 L 79.19 15.45 L 78.85 15.31 L 78.40 15.29 L 77.94 15.26 L 77.54 15.11 L 77.15 14.96 L 76.73 14.82 L 76.32 14.68 L 75.89 14.65 L 75.47 14.63 L 74.81 14.62 L 74.16 14.61 L 73.64 14.49 L 73.11 14.35 L 72.72 14.32 L 72.34 14.29 L 72.01 14.16 L 71.67 14.02 L 71.22 13.99 L 70.76 13.97 L 70.41 13.83 L 70.05 13.69 L 69.78 13.68 L 69.51 13.66 L 69.20 13.65 L 68.88 13.65 L 68.56 13.65 L 68.23 13.64 L 68.04 13.64 L 67.84 13.64 L 67.54 13.64 L 67.24 13.64 L 67.12 13.64 L 67.01 13.63 L 66.73 13.75 L 66.45 13.88 L 66.20 13.92 L 65.94 13.95 L 65.72 13.94 L 65.50 13.93 L 65.33 14.06 L 65.16 14.18 L 65.01 14.20 L 64.85 14.22 L 64.68 14.36 L 64.51 14.50 L 64.10 14.55 L 63.69 14.60 L 63.49 14.60 L 63.28 14.61 L 63.23 14.59 L 63.17 14.57 L 63.02 14.70 L 62.87 14.82 L 62.46 14.87 L 62.06 14.92 L 61.86 14.93 L 61.65 14.94 L 61.48 14.94 L 61.31 14.94 L 61.14 14.94 L 60.98 14.94 L 60.81 14.94 L 60.65 14.94 L 60.49 14.94 L 60.32 14.94 L 60.16 14.94 L 60.00 14.94 L 59.84 14.94 L 59.68 14.94 L 59.39 14.94 L 59.09 14.94 L 58.79 14.92 L 58.49 14.90 L 58.20 14.70 L 57.92 14.52 L 57.82 14.41 L 57.73 14.30 L 57.62 14.29 L 57.51 14.28 L 57.22 14.14 L 56.94 14.01 L 56.66 13.94 L 56.38 13.87 L 56.10 13.50 L 55.83 13.12 L 55.78 12.91 L 55.72 12.69 L 55.81 12.48 L 55.90 12.28 L 56.10 12.17 L 56.30 12.06 L 56.52 12.10 L 56.74 12.13 L 58.20 12.90 L 59.66 13.66 L 59.71 13.71 L 59.76 13.76 L 59.80 13.82 L 59.84 13.87 L 59.86 13.94 L 59.89 14.00 L 59.91 14.07 L 59.92 14.13 L 59.92 14.20 L 59.92 14.27 L 59.91 14.34 L 59.90 14.41 L 59.87 14.47 L 59.84 14.53 L 59.81 14.58 L 59.77 14.64 L 59.72 14.69 L 59.67 14.74 L 59.62 14.78 L 59.56 14.81 L 59.50 14.84 L 59.43 14.87 L 59.37 14.88 L 59.30 14.90 L 59.23 14.90 L 59.16 14.90 L 59.10 14.88 L 59.03 14.87 L 58.96 14.85 L 58.90 14.82 L 58.84 14.78 L 58.79 14.75 L 58.74 14.70 L 58.69 14.65 L 58.65 14.59 L 60.62 18.85 L 60.62 18.85 L 60.62 18.85 L 60.62 14.44 L 60.62 14.31 L 60.60 14.04 L 60.58 13.77 L 60.43 13.58 L 60.29 13.39 L 60.20 13.13 L 60.12 12.88 L 59.78 12.73 L 59.43 12.59 L 59.10 12.58 L 58.77 12.57 L 58.58 12.57 L 58.39 12.57 L 58.16 12.58 L 57.93 12.58 L 57.62 12.46 L 57.31 12.33 L 56.92 12.29 L 56.53 12.26 L 56.11 12.26 L 55.68 12.25 L 55.21 12.12 L 54.74 11.99 L 54.38 11.97 L 54.03 11.94 L 53.62 11.82 L 53.22 11.70 L 52.89 11.56 L 52.57 11.41 L 52.26 11.26 L 51.95 11.11 L 51.48 10.81 L 51.01 10.51 L 50.49 10.30 L 49.97 10.10 L 49.45 9.92 L 48.94 9.74 L 48.14 9.57 L 47.34 9.40 L 46.63 9.36 L 45.92 9.32 L 45.26 9.32 L 44.60 9.31 L 44.07 9.31 L 43.55 9.31 L 42.92 9.31 L 42.29 9.31 L 41.69 9.32 L 41.09 9.33 L 40.54 9.61 L 39.98 9.89 L 39.48 10.08 L 38.98 10.26 L 38.44 10.59 L 37.90 10.92 L 37.74 11.07 L 37.57 11.23 L 37.28 11.26 L 36.98 11.29 L 36.73 11.46 L 36.49 11.63 L 36.19 11.78 L 35.90 11.93 L 35.45 12.23 L 35.00 12.52 L 34.63 12.72 L 34.26 12.92 L 34.06 13.09 L 33.85 13.26 L 33.65 13.38 L 33.44 13.50 L 33.20 13.52 L 32.96 13.53 L 32.78 13.54 L 32.60 13.55 L 32.24 13.55 L 31.88 13.56 L 31.54 13.70 L 31.21 13.83 L 30.90 13.85 L 30.59 13.87 L 30.14 14.01 L 29.68 14.15 L 29.38 14.17 L 29.07 14.19 L 28.62 14.19 L 28.17 14.20 L 27.76 14.21 L 27.34 14.21 L 27.00 14.35 L 26.66 14.48 L 26.26 14.50 L 25.87 14.51 L 25.53 14.52 L 25.18 14.52 L 24.85 14.53 L 24.52 14.53 L 24.20 14.53 L 23.87 14.53 L 23.54 14.53 L 23.22 14.53 L 22.99 14.54 L 22.77 14.56 L 22.59 14.43 L 22.41 14.31 L 22.01 14.26 L 21.61 14.22 L 21.27 14.21 L 20.94 14.20 L 20.61 14.20 L 20.28 14.20 L 19.96 14.20 L 19.63 14.20 L 19.30 14.20 L 18.98 14.20 L 18.52 14.20 L 18.06 14.20 L 17.66 14.20 L 17.26 14.21 L 16.79 14.34 L 16.31 14.47 L 15.94 14.50 L 15.57 14.53 L 15.15 14.69 L 14.74 14.85 L 14.23 15.17 L 13.72 15.49 L 13.32 15.86 L 12.92 16.22 L 12.54 16.74 L 12.17 17.26 L 11.96 17.75 L 11.76 18.25 L 11.45 18.77 L 11.13 19.30 L 11.06 19.70 L 10.98 20.10 L 10.85 20.54 L 10.71 20.97 L 10.54 21.50 L 10.37 22.03 L 10.34 22.66 L 10.30 23.30 L 10.17 23.95 L 10.03 24.60 L 10.00 25.41 L 9.97 26.23 L 9.96 26.92 L 9.96 27.60 L 9.96 28.26 L 9.96 28.92 L 9.96 29.44 L 9.96 29.97 L 9.96 30.46 L 9.96 30.96 L 9.96 31.45 L 9.96 31.94 L 9.96 32.43 L 9.96 32.92 L 9.96 33.37 L 9.96 33.83 L 9.83 34.44 L 9.70 35.05 L 9.67 35.60 L 9.64 36.15 L 9.64 36.78 L 9.63 37.42 L 9.63 37.93 L 9.63 38.45 L 9.63 39.08 L 9.63 39.70 L 9.63 40.35 L 9.63 41.00 L 9.63 41.65 L 9.63 42.30 L 9.63 42.99 L 9.63 43.67 L 9.76 44.33 L 9.90 45.00 L 9.92 45.53 L 9.95 46.06 L 10.09 46.56 L 10.22 47.06 L 10.25 47.53 L 10.27 48.01 L 10.41 48.78 L 10.55 49.56 L 10.71 50.34 L 10.86 51.12 L 10.89 51.93 L 10.92 52.74 L 11.06 53.45 L 11.21 54.17 L 11.36 54.93 L 11.51 55.69 L 11.55 56.38 L 11.58 57.06 L 11.72 57.75 L 11.86 58.44 L 12.01 59.06 L 12.17 59.69 L 12.20 60.46 L 12.23 61.22 L 12.36 62.16 L 12.50 63.10 L 12.53 63.79 L 12.55 64.47 L 12.56 65.26 L 12.56 66.05 L 12.56 66.99 L 12.57 67.93 L 12.57 68.90 L 12.57 69.87 L 12.57 70.85 L 12.57 71.83 L 12.57 72.70 L 12.57 73.58 L 12.70 74.41 L 12.83 75.23 L 12.85 76.15 L 12.88 77.08 L 12.88 78.44 L 12.89 79.79 L 12.89 80.72 L 12.89 81.64 L 12.89 82.35 L 12.89 83.06 L 12.89 83.72 L 12.89 84.39 L 12.89 84.78 L 12.89 85.17 L 12.89 85.73 L 12.90 86.29 L 12.78 86.76 L 12.65 87.23 L 12.50 87.84 L 12.34 88.46 L 12.19 88.96 L 12.03 89.47 L 11.86 89.97 L 11.70 90.47 L 11.52 91.13 L 11.35 91.80 L 11.31 92.36 L 11.28 92.92 L 11.27 93.42 L 11.26 93.93 L 11.26 94.29 L 11.26 94.65 L 11.26 95.07 L 11.27 95.49 L 11.14 95.96 L 11.01 96.43 L 10.98 96.83 L 10.95 97.23 L 10.94 97.58 L 10.94 97.92 L 10.94 98.38 L 10.94 98.84 L 10.94 99.13 L 10.95 99.42 L 10.82 99.74 L 10.69 100.06 L 10.66 100.58 L 10.62 101.10 L 10.62 101.60 L 10.61 102.09 L 10.61 102.58 L 10.61 103.07 L 10.61 103.56 L 10.61 104.05 L 10.61 104.80 L 10.61 105.55 L 10.61 106.14 L 10.61 106.72 L 10.75 107.23 L 10.88 107.74 L 10.90 108.23 L 10.93 108.71 L 11.06 109.33 L 11.20 109.95 L 11.23 110.48 L 11.26 111.00 L 11.39 111.50 L 11.53 111.99 L 11.56 112.48 L 11.58 112.97 L 11.73 113.51 L 11.87 114.04 L 12.02 114.49 L 12.17 114.94 L 12.20 115.51 L 12.22 116.08 L 12.23 116.72 L 12.24 117.35 L 12.24 117.91 L 12.24 118.46 L 12.37 119.10 L 12.51 119.73 L 12.53 120.34 L 12.55 120.95 L 12.56 121.60 L 12.56 122.24 L 12.57 123.00 L 12.57 123.75 L 12.44 124.55 L 12.31 125.35 L 12.28 125.93 L 12.25 126.51 L 12.25 127.15 L 12.24 127.79 L 12.24 128.44 L 12.24 129.09 L 12.24 129.75 L 12.24 130.40 L 12.24 130.88 L 12.24 131.37 L 12.11 131.99 L 11.98 132.60 L 11.96 133.16 L 11.93 133.71 L 11.92 134.31 L 11.92 134.91 L 11.79 135.52 L 11.67 136.13 L 11.51 136.91 L 11.36 137.69 L 11.19 138.39 L 11.02 139.09 L 10.99 139.75 L 10.96 140.40 L 10.83 140.89 L 10.70 141.38 L 10.54 142.00 L 10.39 142.62 L 10.22 143.17 L 10.05 143.72 L 10.01 144.40 L 9.97 145.07 L 9.97 145.73 L 9.96 146.38 L 9.96 147.04 L 9.96 147.69 L 9.96 148.34 L 9.96 149.00 L 9.96 149.78 L 9.96 150.56 L 9.96 151.24 L 9.96 151.92 L 9.96 152.71 L 9.96 153.50 L 9.96 154.22 L 9.96 154.94 L 10.09 155.47 L 10.22 156.01 L 10.25 156.63 L 10.27 157.25 L 10.42 157.93 L 10.56 158.61 L 10.72 159.29 L 10.89 159.97 L 11.19 160.78 L 11.50 161.60 L 11.83 162.31 L 12.16 163.01 L 12.62 163.81 L 13.08 164.60 L 13.41 165.24 L 13.74 165.87 L 13.93 166.61 L 14.12 167.36 L 14.28 168.13 L 14.44 168.91 L 14.48 169.71 L 14.51 170.52 L 14.65 171.34 L 14.79 172.15 L 14.81 172.81 L 14.84 173.47 L 14.84 174.12 L 14.85 174.77 L 14.85 175.42 L 14.85 176.08 L 14.85 176.86 L 14.85 177.64 L 14.85 178.30 L 14.85 178.95 L 14.73 179.83 L 14.60 180.71 L 14.45 181.40 L 14.29 182.09 L 14.13 182.76 L 13.97 183.42 L 13.80 184.24 L 13.63 185.06 L 13.60 185.74 L 13.57 186.43 L 13.43 187.20 L 13.30 187.96 L 13.14 188.88 L 12.99 189.80 L 12.70 190.78 L 12.40 191.75 L 12.21 192.88 L 12.02 194.00 L 11.85 195.03 L 11.67 196.06 L 11.64 197.05 L 11.61 198.03 L 11.47 198.86 L 11.34 199.68 L 11.18 200.66 L 11.02 201.63 L 10.98 202.61 L 10.95 203.59 L 10.82 204.57 L 10.68 205.55 L 10.65 206.55 L 10.62 207.55 L 10.62 208.40 L 10.61 209.26 L 10.61 210.06 L 10.61 210.86 L 10.48 211.78 L 10.35 212.70 L 10.20 213.67 L 10.04 214.64 L 9.88 215.75 L 9.72 216.86 L 9.55 218.02 L 9.39 219.17 L 9.35 220.36 L 9.32 221.54 L 9.44 222.69 L 9.57 223.84 L 9.59 224.84 L 9.62 225.83 L 9.62 226.83 L 9.63 227.83 L 9.76 228.96 L 9.89 230.09 L 10.05 231.49 L 10.21 232.89 L 10.37 234.21 L 10.53 235.54 L 10.70 236.85 L 10.86 238.16 L 11.02 239.34 L 11.19 240.52 L 11.35 241.57 L 11.52 242.61 L 11.82 243.63 L 12.12 244.64 L 12.45 245.62 L 12.77 246.61 L 13.09 247.59 L 13.42 248.57 L 13.74 249.53 L 14.06 250.49 L 14.25 251.44 L 14.44 252.40 L 14.62 253.28 L 14.79 254.15 L 15.10 255.00 L 15.40 255.85 L 15.71 256.65 L 16.03 257.45 L 16.21 258.21 L 16.39 258.97 L 16.43 259.75 L 16.46 260.52 L 16.47 261.57 L 16.48 262.62 L 16.35 263.59 L 16.23 264.56 L 16.07 265.69 L 15.91 266.82 L 15.88 267.85 L 15.84 268.88 L 15.84 269.74 L 15.83 270.60 L 15.83 271.42 L 15.83 272.25 L 15.83 273.19 L 15.83 274.14 L 15.83 274.98 L 15.83 275.83 L 15.83 276.91 L 15.83 277.99 L 15.83 279.12 L 15.83 280.25 L 15.83 281.13 L 15.83 282.01 L 15.83 282.93 L 15.83 283.86 L 15.71 284.52 L 15.59 285.17 L 15.31 285.96 L 15.02 286.75 L 14.83 287.59 L 14.63 288.43 L 14.47 289.36 L 14.30 290.29 L 14.01 291.26 L 13.71 292.23 L 13.52 293.23 L 13.32 294.23 L 13.16 295.21 L 12.99 296.20 L 12.82 297.20 L 12.65 298.20 L 12.62 299.19 L 12.58 300.17 L 12.45 301.15 L 12.31 302.13 L 12.28 303.11 L 12.26 304.09 L 12.12 305.07 L 11.98 306.04 L 11.96 307.02 L 11.93 308.00 L 11.80 308.96 L 11.66 309.92 L 11.50 311.05 L 11.34 312.18 L 11.31 313.18 L 11.28 314.19 L 11.14 315.15 L 11.01 316.11 L 10.85 317.11 L 10.69 318.11 L 10.66 319.22 L 10.63 320.34 L 10.49 321.34 L 10.35 322.35 L 10.32 323.49 L 10.30 324.62 L 10.29 325.76 L 10.28 326.90 L 10.28 327.78 L 10.28 328.67 L 10.28 329.62 L 10.28 330.58 L 10.28 331.45 L 10.28 332.32 L 10.41 333.28 L 10.55 334.24 L 10.57 335.06 L 10.60 335.88 L 10.60 336.85 L 10.61 337.82 L 10.74 338.67 L 10.87 339.52 L 10.90 340.35 L 10.93 341.19 L 11.07 341.78 L 11.21 342.37 L 11.37 343.00 L 11.53 343.63 L 11.69 344.40 L 11.85 345.17 L 12.01 345.97 L 12.17 346.77 L 12.33 347.84 L 12.49 348.91 L 12.66 349.92 L 12.82 350.93 L 12.99 351.67 L 13.16 352.42 L 13.32 352.93 L 13.47 353.44 L 13.50 353.88 L 13.53 354.33 L 13.54 354.94 L 13.54 355.55 L 13.54 356.20 L 13.54 356.84 L 13.54 357.50 L 13.54 358.15 L 13.55 358.90 L 13.55 359.65 L 13.42 360.32 L 13.29 360.99 L 13.26 361.68 L 13.23 362.37 L 13.23 363.16 L 13.22 363.95 L 13.22 364.63 L 13.22 365.31 L 13.22 366.10 L 13.22 366.89 L 13.22 367.61 L 13.22 368.33 L 13.36 368.87 L 13.49 369.40 L 13.51 369.99 L 13.53 370.57 L 13.54 371.09 L 13.54 371.60 L 13.54 372.22 L 13.54 372.84 L 13.54 373.49 L 13.54 374.14 L 13.54 374.79 L 13.54 375.44 L 13.54 376.22 L 13.54 377.01 L 13.55 377.65 L 13.55 378.29 L 13.43 378.90 L 13.30 379.51 L 13.14 380.06 L 12.98 380.61 L 12.95 381.25 L 12.91 381.89 L 12.78 382.53 L 12.64 383.18 L 12.61 383.74 L 12.58 384.29 L 12.58 384.76 L 12.57 385.23 L 12.44 385.84 L 12.31 386.46 L 12.28 387.01 L 12.25 387.56 L 12.25 388.06 L 12.24 388.56 L 12.24 389.19 L 12.24 389.81 L 12.24 390.46 L 12.24 391.10 L 12.24 391.62 L 12.24 392.15 L 12.24 392.77 L 12.24 393.40 L 12.24 394.04 L 12.24 394.69 L 12.24 395.34 L 12.24 396.00 L 12.24 396.69 L 12.24 397.39 L 12.38 397.92 L 12.51 398.45 L 12.54 398.95 L 12.56 399.45 L 12.70 399.94 L 12.83 400.43 L 12.86 400.91 L 12.89 401.39 L 13.02 402.01 L 13.16 402.63 L 13.18 403.27 L 13.21 403.92 L 13.35 404.60 L 13.49 405.29 L 13.66 405.95 L 13.82 406.62 L 13.98 407.15 L 14.14 407.67 L 14.31 408.30 L 14.47 408.93 L 14.62 409.41 L 14.78 409.89 L 14.81 410.51 L 14.84 411.13 L 14.99 411.70 L 15.15 412.28 L 15.34 412.72 L 15.53 413.15 L 15.86 413.54 L 16.19 413.92 L 16.39 414.13 L 16.59 414.33 L 16.87 414.61 L 17.15 414.89 L 17.45 415.32 L 17.75 415.74 L 18.09 416.24 L 18.43 416.74 L 18.79 417.14 L 19.16 417.55 L 19.69 417.93 L 20.23 418.31 L 20.93 418.54 L 21.63 418.77 L 22.06 418.82 L 22.49 418.86 L 22.91 418.86 L 23.33 418.87 L 23.68 418.74 L 24.03 418.60 L 24.29 418.59 L 24.56 418.57 L 25.02 418.53 L 25.49 418.48 L 25.75 418.18 L 26.00 417.89 L 26.38 417.74 L 26.75 417.59 L 27.26 417.28 L 27.76 416.96 L 28.26 416.63 L 28.76 416.31 L 29.37 415.86 L 29.97 415.41 L 30.58 415.08 L 31.19 414.75 L 31.94 414.43 L 32.69 414.11 L 33.35 413.92 L 34.01 413.73 L 34.50 413.57 L 35.00 413.41 L 35.44 413.38 L 35.89 413.35 L 36.37 413.35 L 36.85 413.34 L 37.20 413.34 L 37.56 413.34 L 37.89 413.34 L 38.22 413.34 L 38.62 413.33 L 39.02 413.32 L 39.31 413.44 L 39.61 413.56 L 40.12 413.73 L 40.64 413.90 L 41.26 413.93 L 41.89 413.96 L 42.40 414.10 L 42.92 414.24 L 43.39 414.26 L 43.86 414.28 L 44.44 414.54 L 45.02 414.79 L 45.69 414.98 L 46.35 415.17 L 46.85 415.33 L 47.36 415.50 L 48.11 415.79 L 48.86 416.08 L 49.42 416.28 L 49.99 416.47 L 50.62 416.64 L 51.26 416.81 L 51.76 416.97 L 52.27 417.13 L 52.77 417.30 L 53.26 417.46 L 53.79 417.63 L 54.33 417.81 L 55.00 417.85 L 55.68 417.89 L 56.17 417.89 L 56.67 417.90 L 57.42 418.03 L 58.17 418.16 L 58.84 418.19 L 59.52 418.21 L 60.29 418.35 L 61.08 418.48 L 61.92 418.51 L 62.76 418.54 L 63.58 418.55 L 64.40 418.55 L 65.12 418.55 L 65.84 418.55 L 66.51 418.42 L 67.18 418.29 L 67.67 418.27 L 68.16 418.24 L 68.78 418.24 L 69.39 418.23 L 70.04 418.23 L 70.69 418.23 L 71.34 418.23 L 71.99 418.23 L 72.77 418.23 L 73.55 418.23 L 74.36 418.23 L 75.17 418.23 L 75.99 418.23 L 76.80 418.23 L 77.62 418.23 L 78.43 418.23 L 79.12 418.23 L 79.80 418.23 L 80.50 418.23 L 81.21 418.22 L 81.78 418.08 L 82.36 417.94 L 82.86 417.79 L 83.35 417.63 L 83.97 417.47 L 84.60 417.30 L 85.11 417.14 L 85.63 416.98 L 86.21 416.83 L 86.79 416.67 L 87.56 416.64 L 88.32 416.61 L 89.00 416.47 L 89.68 416.34 L 90.34 416.31 L 91.00 416.28 L 91.65 416.14 L 92.30 416.01 L 92.98 415.98 L 93.65 415.95 L 94.09 415.80 L 94.53 415.65 L 95.02 415.49 L 95.50 415.32 L 95.86 415.16 L 96.22 415.00 L 96.66 414.84 L 97.11 414.68 L 97.61 414.52 L 98.11 414.35 L 98.49 414.17 L 98.86 414.00 L 99.48 413.70 L 100.09 413.39 L 100.61 413.07 L 101.12 412.75 L 101.45 412.57 L 101.78 412.39 L 102.22 412.23 L 102.66 412.08 L 103.16 411.91 L 103.65 411.74 L 103.97 411.59 L 104.28 411.44 L 104.74 411.41 L 105.19 411.38 L 105.59 411.23 L 105.98 411.08 L 106.47 410.91 L 106.97 410.74 L 107.49 410.42 L 108.01 410.11 L 108.53 409.77 L 109.04 409.43 L 109.43 409.09 L 109.81 408.74 L 110.19 408.36 L 110.57 407.97 L 110.81 407.45 L 111.04 406.92 L 111.23 406.38 L 111.42 405.84 L 111.45 405.33 L 111.49 404.81 L 111.63 404.05 L 111.77 403.30 L 111.80 402.63 L 111.82 401.95 L 111.96 401.16 L 112.10 400.38 L 112.12 399.70 L 112.15 399.03 L 112.28 398.42 L 112.41 397.80 L 112.57 397.25 L 112.73 396.70 L 112.77 396.06 L 112.80 395.42 L 112.93 394.80 L 113.06 394.19 L 113.22 393.54 L 113.38 392.88 L 113.55 392.07 L 113.71 391.25 L 113.75 390.45 L 113.78 389.65 L 113.91 389.09 L 114.05 388.54 L 114.08 387.90 L 114.11 387.26 L 114.24 386.62 L 114.38 385.97 L 114.41 385.41 L 114.44 384.86 L 114.44 384.22 L 114.45 383.59 L 114.45 383.07 L 114.45 382.55 L 114.45 382.05 L 114.45 381.56 L 114.45 380.94 L 114.45 380.32 L 114.45 379.64 L 114.45 378.96 L 114.32 378.30 L 114.19 377.64 L 114.16 377.15 L 114.14 376.66 L 114.13 376.00 L 114.12 375.34 L 113.99 374.81 L 113.86 374.29 L 113.84 373.71 L 113.81 373.12 L 113.81 372.48 L 113.80 371.84 L 113.80 371.32 L 113.80 370.80 L 113.80 370.18 L 113.80 369.55 L 113.80 369.17 L 113.80 368.78 L 113.80 368.31 L 113.80 367.84 L 113.80 367.44 L 113.79 367.04 L 113.66 366.56 L 113.53 366.09 L 113.51 365.66 L 113.49 365.22 L 113.48 364.61 L 113.48 364.00 L 113.48 363.48 L 113.47 362.97 L 113.47 362.35 L 113.47 361.72 L 113.47 361.03 L 113.47 360.34 L 113.34 359.81 L 113.21 359.28 L 113.18 358.70 L 113.16 358.11 L 113.15 357.60 L 113.15 357.09 L 113.15 356.47 L 113.15 355.85 L 113.15 355.20 L 113.15 354.55 L 113.15 353.90 L 113.15 353.25 L 113.15 352.73 L 113.15 352.21 L 113.15 351.71 L 113.15 351.22 L 113.15 350.72 L 113.15 350.23 L 113.15 349.61 L 113.15 348.99 L 113.15 348.48 L 113.15 347.96 L 113.14 347.38 L 113.14 346.80 L 113.27 346.29 L 113.40 345.78 L 113.43 345.15 L 113.46 344.51 L 113.59 343.87 L 113.73 343.22 L 113.76 342.67 L 113.79 342.11 L 113.79 341.51 L 113.79 340.91 L 113.92 340.27 L 114.06 339.63 L 114.08 338.83 L 114.11 338.04 L 114.24 337.12 L 114.38 336.20 L 114.54 335.10 L 114.69 334.00 L 114.85 332.86 L 115.02 331.73 L 115.18 330.59 L 115.34 329.45 L 115.50 328.33 L 115.66 327.21 L 115.95 326.21 L 116.25 325.20 L 116.43 324.09 L 116.62 322.97 L 116.92 321.97 L 117.22 320.97 L 117.41 319.96 L 117.61 318.96 L 117.78 317.97 L 117.95 316.99 L 118.11 316.01 L 118.27 315.04 L 118.44 314.17 L 118.61 313.30 L 118.64 312.47 L 118.67 311.64 L 118.81 310.69 L 118.95 309.74 L 118.98 309.03 L 119.00 308.33 L 119.14 307.53 L 119.28 306.73 L 119.30 305.76 L 119.33 304.79 L 119.34 303.95 L 119.34 303.10 L 119.35 302.41 L 119.35 301.72 L 119.34 300.89 L 119.34 300.07 L 119.21 299.35 L 119.07 298.63 L 118.92 297.99 L 118.77 297.36 L 118.74 296.75 L 118.71 296.13 L 118.70 295.36 L 118.70 294.58 L 118.69 293.75 L 118.69 292.91 L 118.56 292.09 L 118.43 291.27 L 118.41 290.48 L 118.38 289.69 L 118.38 288.88 L 118.37 288.07 L 118.37 287.26 L 118.37 286.44 L 118.37 285.76 L 118.37 285.07 L 118.37 284.41 L 118.37 283.76 L 118.37 283.10 L 118.37 282.45 L 118.37 281.79 L 118.37 281.14 L 118.37 280.49 L 118.37 279.84 L 118.37 279.18 L 118.37 278.53 L 118.37 277.75 L 118.37 276.97 L 118.37 276.16 L 118.37 275.35 L 118.37 274.53 L 118.37 273.72 L 118.37 273.03 L 118.37 272.35 L 118.37 271.56 L 118.37 270.77 L 118.37 270.05 L 118.36 269.34 L 118.23 268.67 L 118.10 268.01 L 118.08 267.49 L 118.05 266.97 L 117.91 266.21 L 117.78 265.46 L 117.75 264.79 L 117.73 264.12 L 117.59 263.20 L 117.45 262.29 L 117.43 261.32 L 117.40 260.35 L 117.26 259.48 L 117.12 258.60 L 116.96 257.77 L 116.80 256.93 L 116.64 256.25 L 116.47 255.56 L 116.31 254.77 L 116.15 253.98 L 115.99 253.32 L 115.83 252.67 L 115.80 251.90 L 115.77 251.12 L 115.63 250.31 L 115.50 249.50 L 115.47 248.58 L 115.44 247.67 L 115.44 246.83 L 115.43 245.99 L 115.43 245.02 L 115.43 244.04 L 115.30 243.19 L 115.17 242.34 L 115.14 241.55 L 115.12 240.75 L 115.11 240.07 L 115.11 239.39 L 115.11 238.73 L 115.11 238.07 L 115.11 237.42 L 115.11 236.77 L 115.11 236.11 L 115.10 235.46 L 115.10 234.68 L 115.10 233.90 L 115.10 233.22 L 115.10 232.54 L 115.10 231.75 L 115.10 230.96 L 115.10 230.28 L 115.10 229.60 L 115.10 228.94 L 115.10 228.29 L 115.10 227.63 L 115.10 226.98 L 115.10 226.33 L 115.10 225.67 L 115.10 225.19 L 115.10 224.70 L 115.23 224.08 L 115.36 223.46 L 115.39 222.81 L 115.41 222.17 L 115.55 221.52 L 115.68 220.86 L 115.71 220.21 L 115.74 219.56 L 115.87 218.94 L 116.00 218.32 L 116.16 217.64 L 116.32 216.96 L 116.36 216.30 L 116.39 215.65 L 116.53 214.99 L 116.66 214.34 L 116.69 213.65 L 116.72 212.97 L 116.73 212.44 L 116.73 211.91 L 116.73 211.28 L 116.74 210.65 L 116.74 210.13 L 116.74 209.62 L 116.73 209.03 L 116.73 208.44 L 116.86 207.79 L 116.99 207.15 L 117.02 206.34 L 117.05 205.52 L 117.05 204.84 L 117.06 204.15 L 117.06 203.63 L 117.06 203.10 L 117.06 202.47 L 117.06 201.84 L 117.06 201.19 L 117.06 200.55 L 117.06 199.89 L 117.06 199.24 L 117.06 198.59 L 117.06 197.94 L 117.06 197.29 L 117.06 196.63 L 117.06 195.98 L 117.06 195.33 L 117.06 194.68 L 117.06 194.02 L 117.06 193.37 L 117.06 192.72 L 117.06 191.91 L 117.06 191.10 L 116.93 190.28 L 116.80 189.47 L 116.77 188.68 L 116.75 187.89 L 116.74 187.21 L 116.74 186.53 L 116.74 185.71 L 116.73 184.89 L 116.60 184.20 L 116.47 183.52 L 116.44 182.85 L 116.42 182.19 L 116.28 181.54 L 116.15 180.89 L 116.12 180.24 L 116.09 179.59 L 115.96 178.81 L 115.82 178.03 L 115.79 177.22 L 115.77 176.41 L 115.63 175.60 L 115.50 174.78 L 115.47 174.09 L 115.44 173.40 L 115.30 172.70 L 115.15 171.99 L 114.99 171.46 L 114.83 170.93 L 114.68 170.34 L 114.52 169.75 L 114.50 169.28 L 114.47 168.81 L 114.46 168.19 L 114.46 167.58 L 114.45 166.93 L 114.45 166.29 L 114.45 165.63 L 114.45 164.98 L 114.45 164.36 L 114.45 163.75 L 114.57 163.13 L 114.70 162.51 L 114.86 161.73 L 115.01 160.96 L 115.17 160.29 L 115.33 159.61 L 115.49 158.96 L 115.66 158.30 L 115.82 157.65 L 115.98 157.00 L 116.14 156.34 L 116.31 155.69 L 116.47 155.03 L 116.64 154.37 L 116.80 153.59 L 116.96 152.80 L 117.13 152.10 L 117.30 151.39 L 117.33 150.73 L 117.37 150.07 L 117.50 149.41 L 117.64 148.76 L 117.67 148.20 L 117.70 147.65 L 117.71 147.14 L 117.71 146.64 L 117.71 146.15 L 117.71 145.65 L 117.71 145.16 L 117.72 144.67 L 117.72 144.18 L 117.72 143.69 L 117.71 143.11 L 117.71 142.52 L 117.84 141.89 L 117.97 141.25 L 118.00 140.69 L 118.03 140.14 L 118.03 139.51 L 118.04 138.87 L 118.04 138.35 L 118.04 137.83 L 118.04 137.24 L 118.04 136.64 L 118.17 135.87 L 118.30 135.10 L 118.33 134.39 L 118.35 133.69 L 118.36 133.02 L 118.37 132.36 L 118.37 131.71 L 118.37 131.05 L 118.37 130.53 L 118.37 130.01 L 118.37 129.38 L 118.37 128.75 L 118.37 128.24 L 118.37 127.72 L 118.37 127.09 L 118.37 126.47 L 118.37 125.82 L 118.37 125.17 L 118.37 124.48 L 118.36 123.79 L 118.23 123.26 L 118.10 122.73 L 118.07 122.11 L 118.05 121.49 L 117.91 120.81 L 117.77 120.13 L 117.61 119.47 L 117.45 118.81 L 117.29 118.19 L 117.14 117.57 L 117.10 116.91 L 117.07 116.26 L 116.92 115.69 L 116.78 115.13 L 116.63 114.67 L 116.48 114.21 L 116.45 113.60 L 116.42 113.00 L 116.28 112.35 L 116.15 111.71 L 116.12 111.09 L 116.10 110.48 L 116.09 109.70 L 116.09 108.92 L 116.09 108.25 L 116.08 107.57 L 116.08 106.78 L 116.08 105.99 L 116.08 105.44 L 116.08 104.89 L 116.08 104.26 L 116.08 103.63 L 116.08 103.11 L 116.08 102.60 L 116.08 102.00 L 116.08 101.41 L 116.21 100.77 L 116.34 100.13 L 116.37 99.45 L 116.40 98.76 L 116.40 98.10 L 116.41 97.45 L 116.41 96.96 L 116.41 96.47 L 116.54 95.85 L 116.67 95.23 L 116.69 94.58 L 116.72 93.94 L 116.85 93.28 L 116.99 92.63 L 117.02 91.98 L 117.05 91.32 L 117.18 90.54 L 117.32 89.75 L 117.34 89.21 L 117.37 88.67 L 117.51 88.04 L 117.64 87.41 L 117.67 86.89 L 117.70 86.37 L 117.82 85.79 L 117.95 85.21 L 118.11 84.70 L 118.26 84.19 L 118.43 83.52 L 118.61 82.85 L 118.64 82.20 L 118.67 81.54 L 118.81 80.89 L 118.95 80.24 L 118.98 79.68 L 119.01 79.13 L 119.01 78.49 L 119.02 77.86 L 119.02 77.34 L 119.02 76.82 L 119.02 76.19 L 119.02 75.57 L 119.02 75.05 L 119.02 74.53 L 119.02 74.04 L 119.02 73.54 L 119.02 73.05 L 119.02 72.56 L 119.02 72.07 L 119.02 71.58 L 119.02 71.13 L 119.02 70.68 L 119.15 70.06 L 119.28 69.45 L 119.30 68.77 L 119.33 68.09 L 119.34 67.56 L 119.34 67.04 L 119.34 66.36 L 119.34 65.69 L 119.21 65.17 L 119.08 64.64 L 119.05 64.03 L 119.03 63.41 L 118.88 62.72 L 118.74 62.03 L 118.58 61.49 L 118.41 60.95 L 118.26 60.49 L 118.11 60.03 L 118.06 59.49 L 118.01 58.94 L 117.72 58.53 L 117.43 58.13 L 117.29 57.75 L 117.14 57.38 L 117.10 56.92 L 117.07 56.45 L 116.92 55.92 L 116.78 55.39 L 116.63 54.94 L 116.48 54.49 L 116.45 53.92 L 116.43 53.35 L 116.42 52.85 L 116.41 52.34 L 116.41 51.68 L 116.41 51.03 L 116.28 50.37 L 116.14 49.71 L 116.12 49.23 L 116.10 48.74 L 116.09 48.12 L 116.09 47.50 L 116.09 46.86 L 116.08 46.21 L 116.08 45.69 L 116.08 45.17 L 116.08 44.72 L 116.08 44.27 L 116.21 43.79 L 116.34 43.31 L 116.36 42.81 L 116.39 42.31 L 116.53 41.69 L 116.66 41.07 L 116.69 40.56 L 116.72 40.04 L 116.84 39.46 L 116.97 38.87 L 117.14 38.33 L 117.30 37.79 L 117.33 37.29 L 117.36 36.79 L 117.49 36.34 L 117.62 35.89 L 117.78 35.37 L 117.95 34.84 L 117.98 34.35 L 118.02 33.85 L 118.14 33.40 L 118.27 32.96 L 118.44 32.43 L 118.60 31.91 L 118.64 31.37 L 118.68 30.82 L 118.68 30.32 L 118.69 29.82 L 118.69 29.51 L 118.69 29.20 L 118.82 28.74 L 118.95 28.29 L 118.98 27.76 L 119.01 27.23 L 119.01 26.73 L 119.02 26.23 L 119.02 25.74 L 119.02 25.25 L 119.01 24.83 L 119.01 24.40 L 118.87 24.06 L 118.74 23.71 L 118.71 23.38 L 118.69 23.05 L 118.55 22.72 L 118.42 22.39 L 118.40 22.13 L 118.38 21.87 L 118.37 21.37 L 118.36 20.86 L 118.21 20.46 L 118.07 20.05 L 117.91 19.58 L 117.74 19.11 L 117.57 18.73 L 117.40 18.36 L 117.24 18.02 L 117.07 17.68 L 116.86 17.28 L 116.64 16.88 L 116.30 16.64 L 115.96 16.39 L 115.76 16.22 L 115.56 16.04 L 115.16 15.82 L 114.76 15.61 L 114.42 15.57 L 114.09 15.53 L 113.76 15.40 L 113.43 15.26 L 113.04 15.22 L 112.65 15.18 L 112.31 15.18 L 111.97 15.17 L 111.77 15.17 L 111.57 15.17 L 111.40 15.17 L 111.23 15.17 L 111.18 15.19 L 111.13 15.21 L 111.08 15.15 L 111.03 15.08 L 110.88 14.94 L 110.73 14.79 L 110.57 14.64 L 110.41 14.49 L 110.21 14.29 L 110.01 14.10 L 109.63 13.88 L 109.24 13.67 L 109.04 13.63 L 108.83 13.60 L 108.52 13.46 L 108.21 13.31 L 107.88 13.29 L 107.55 13.26 L 107.22 13.12 L 106.89 12.98 L 106.37 12.95 L 105.85 12.91 L 105.36 12.90 L 104.86 12.90 L 104.24 12.90 L 103.62 12.90 L 103.11 12.90 L 102.59 12.90 L 102.10 12.90 L 101.60 12.90 L 101.11 12.90 L 100.62 12.90 L 100.09 12.90 L 99.57 12.90 L 98.94 13.03 L 98.31 13.16 L 97.77 13.19 L 97.23 13.22 L 96.86 13.36 L 96.50 13.50 L 96.03 13.52 L 95.56 13.55 L 95.21 13.69 L 94.85 13.82 L 94.53 13.85 L 94.21 13.87 L 93.71 14.02 L 93.22 14.17 L 92.77 14.31 L 92.33 14.46 L 91.72 14.49 L 91.11 14.52 L 90.60 14.65 L 90.09 14.78 L 89.50 14.81 L 88.92 14.83 L 88.41 14.84 L 87.90 14.84 L 87.41 14.84 L 86.92 14.84 L 86.30 14.84 L 85.68 14.84 L 85.21 14.85 L 84.73 14.85 L 84.25 14.72 L 83.77 14.59 L 83.41 14.57 L 83.06 14.55 L 82.59 14.42 L 82.13 14.28 L 81.60 14.25 L 81.06 14.22 L 80.70 14.21 L 80.33 14.20 L 80.06 14.21 L 79.79 14.21 L 79.47 14.09 L 79.16 13.96 L 78.70 13.93 L 78.24 13.90 L 77.93 13.78 L 77.62 13.66 L 77.11 13.49 L 76.60 13.31 L 76.06 13.28 L 75.52 13.24 L 74.93 13.24 L 74.35 13.23 L 73.84 13.10 L 73.34 12.97 L 73.00 12.95 L 72.66 12.93 L 72.32 12.79 L 71.98 12.66 L 71.52 12.63 L 71.06 12.60 L 70.71 12.46 L 70.36 12.33 L 69.97 12.29 L 69.58 12.26 L 69.24 12.25 L 68.90 12.25 L 68.57 12.25 L 68.24 12.24 L 68.04 12.24 L 67.84 12.24 L 67.54 12.24 L 67.24 12.24 L 66.98 12.25 L 66.72 12.26 L 66.40 12.39 L 66.07 12.53 L 65.95 12.54 L 65.83 12.56 L 65.45 12.58 L 65.07 12.60 L 64.86 12.74 L 64.64 12.88 L 64.46 12.91 L 64.28 12.94 L 64.13 13.08 L 63.97 13.21 L 63.79 13.21 L 63.61 13.21 L 63.43 13.21 L 63.26 13.22 L 62.98 13.24 L 62.70 13.26 L 62.53 13.40 L 62.35 13.53 L 62.16 13.54 L 61.98 13.54 L 61.80 13.54 L 61.63 13.55 L 61.47 13.55 L 61.30 13.55 L 61.14 13.55 L 60.98 13.55 L 60.81 13.55 L 60.65 13.55 L 60.49 13.55 L 60.32 13.55 L 60.16 13.55 L 60.00 13.55 L 59.84 13.55 L 59.68 13.55 L 59.39 13.55 L 59.09 13.55 L 59.02 13.57 L 58.94 13.59 L 58.89 13.52 L 58.83 13.46 L 58.60 13.25 L 58.37 13.05 L 58.15 13.00 L 57.94 12.95 L 57.64 12.81 L 57.34 12.67 L 57.24 12.68 L 57.14 12.70 L 57.07 12.54 L 57.01 12.38 L 56.97 12.80 L 56.94 13.22 L 56.84 12.68 L 56.74 12.13 L 56.52 12.10 L 56.30 12.06 L 56.10 12.17 L 55.90 12.28 L 55.81 12.48 L 55.72 12.69 L 55.78 12.91 L 55.83 13.12 L 56.38 13.17 L 56.94 13.22 L 56.52 13.30 L 56.10 13.37 L 57.50 14.10 L 58.90 14.82 L 58.96 14.85 L 59.03 14.87 L 59.10 14.88 L 59.16 14.90 L 59.23 14.90 L 59.30 14.90 L 59.37 14.88 L 59.43 14.87 L 59.50 14.84 L 59.56 14.81 L 59.62 14.78 L 59.67 14.74 L 59.72 14.69 L 59.77 14.64 L 59.81 14.58 L 59.84 14.53 L 59.87 14.47 L 59.90 14.41 L 59.91 14.34 L 59.92 14.27 L 59.92 14.20 L 59.92 14.13 L 59.91 14.07 L 59.89 14.00 L 59.86 13.94 L 59.84 13.87 L 59.80 13.82 L 59.76 13.76 L 59.71 13.71 L 59.66 13.66 L 59.60 13.63 L 59.55 13.59 L 59.48 13.56 L 59.42 13.54 L 59.35 13.53 L 59.28 13.51 L 59.22 13.51 L 59.15 13.51 L 59.08 13.53 L 59.01 13.54 L 58.95 13.57 L 58.89 13.60 L 58.83 13.64 L 58.77 13.67 L 58.73 13.72 L 58.68 13.77 L 58.64 13.83 L 58.60 13.89 L 58.58 13.95 L 58.55 14.01 L 58.54 14.08 L 58.53 14.15 L 58.53 14.22 L 58.53 14.29 L 58.54 14.35 L 58.56 14.42 L 58.58 14.48 L 58.61 14.55 Z"/></svg>
