<svg preserveAspectRatio="none" xmlns="http://www.w3.org/2000/svg" viewBox="8.13 8.13 169.42 172.56" width="169.42" height="172.56" xmlns:v="https://vecta.io/nano"><path fill="#1e1e1e" d="M92.56 18.618q0 0-.53-.27-.53-.26-1.26-.19-.73.08-1.3.26-.57.18-1.27.31-.69.14-1.6.17-.9.02-2.01.12-1.11.09-2.39.2-1.28.1-2.39.21-1.12.11-2.06.13-.95.02-1.84.02-.88 0-1.84-.18-.97-.19-1.89-.31-.93-.11-1.86-.13-.93-.02-1.72-.02-.79-.01-1.56-.01-.77 0-1.67-.09-.9-.09-1.77-.2-.88-.11-1.75-.21-.87-.11-1.57-.22-.71-.11-1.29-.23-.58-.11-1.21-.2-.63-.11-1.4-.12-.77-.02-1.53-.02-.77 0-1.67-.1-.9-.09-1.64-.1-.74-.01-1.35.07-.61.08-1.4.1-.8.02-1.51.11-.72.09-1.52.11-.81.01-1.58.01-.77 0-1.53 0-.76 0-1.43 0-.68 0-1.27.09-.6.09-1.19.27-.59.18-1.25.23-.66.05-1.23.06-.57.01-1.65.11-1.08.11-1.99.3-.91.18-1.69.22-.77.03-1.64-.21-.87-.23-1.65-.67-.79-.43-1.43-.73-.64-.29-1.46-.41-.83-.12-1.93.65-1.1.75-1.62 1.34-.53.59-.97 1.14-.45.55-.79.99-.34.44-.98 1.41-.64.97-1.13 1.82-.49.86-1.12 1.92-.64 1.06-.99 1.91-.35.85-.58 1.59-.23.75-.45 1.43-.23.68-.34 1.37-.11.68-.32 1.56-.21.88-.43 1.75-.21.87-.33 1.7-.12.83-.33 1.65-.21.83-.33 1.56-.12.72-.22 1.65-.11.92-.22 1.98-.11 1.05-.13 2.01-.01.96-.11 1.97-.09 1.02-.2 1.92-.11.9-.12 1.64-.02.74-.12 1.55-.09.81-.1 1.44-.02.63-.02 1.46 0 .83 0 1.6 0 .77.08 1.58.09.81.28 1.63.19.81.32 1.62.13.81.32 1.53.19.72.4 1.48.22.76.36 1.66.13.91.25 1.88.11.97.22 1.76.11.79.22 1.65.11.86.22 1.63.1.78.13 1.68.02.91.02 1.79 0 .87.09 1.7.09.82.11 1.55.02.73.02 1.48 0 .76 0 1.61 0 .86 0 1.63 0 .78-.09 1.68-.09.9-.1 1.64-.02.74-.02 1.5 0 .76 0 1.61 0 .85 0 1.63 0 .78 0 1.54 0 .77-.1 1.58-.09.81-.1 1.44-.02.63-.11 1.42-.1.8-.21 1.48-.1.68-.32 1.4-.21.71-.32 1.24-.12.53-.23 1.07-.11.54-.22 1.54-.12 1-.22 1.61-.1.6-.11 1.19-.02.59-.12 1.13-.1.54-.11 1.34-.01.79.07 1.57.08.78.29 1.64.21.85.24 1.47.03.61.14 1.7.11 1.09.22 2.17.11 1.09.3 2.11.19 1.02.22 1.63.03.62.03 1.17 0 .56.09 1.13.08.58.19 1.22.1.64.13 1.35.02.71.11 1.42.09.7.11 1.41.02.71.02 1.47.01.75-.09 1.4-.09.65-.2 1.83-.11 1.18-.22 1.84-.1.65-.12 1.25-.01.59-.01 1.15-.01.55-.01 1.19 0 .63 0 1.19 0 .56-.09 1.26-.1.7-.11 1.3-.01.6-.01 1.15 0 .56-.1 1.17-.1.62-.11 1.53-.01.92-.01 1.46 0 .54-.1 1.23-.09.7-.2 1.74-.12 1.04-.13 1.74-.01.7.18 1.45.18.75.21 1.36.03.61.03 1.17.01.55.11 1.63.11 1.07.3 1.98.19.91.33 1.87.13.96.13 1.59.01.63.01 1.28 0 .65-.01 1.19 0 .55.67 1.06.66.52 1.18 1.13.52.6.93.95.41.35 1.2.52.79.17 1.27.42.48.24.89.61.42.36.98 1.03.57.67 1.02 1.34.45.68.8 1.13.36.45 1.13.05.78-.4 1.39-.67.6-.28 1.15-.5.55-.23 1.1-.45.54-.22 1.11-.58.56-.36 1.01-.69.45-.32 1.27-.65.83-.32 1.36-.26.53.06 1.09.06.57.01 1.33-.07.75-.09 1.35-.11.61-.02 1.16-.03.55 0 1.33-.18.79-.18 1.53-.43.74-.24 1.44-.25.7-.01 1.55.2.85.21 1.79.54.94.34 1.83.65.88.31 1.47.53.59.22 1.51.44.92.21 1.72.44.8.22 1.76.23.96.01 1.53-.08.57-.09 1.21-.19.64-.1 1.35-.13.71-.02 1.31-.11.61-.09 1.22-.11.61-.02 1.61-.02 1-.01 1.57-.09.57-.09 1.27-.11.7-.02 1.4-.11.7-.09 1.4-.27.71-.19 1.41-.32.7-.13 1.33-.16.63-.03 1.71-.14 1.08-.11 1.78-.2.69-.09 1.54-.19.85-.11 1.62-.22.77-.1 1.43-.21.67-.11 1.32-.22.66-.1 1.21-.21.55-.11 1.3-.22.75-.11 1.56-.3.81-.2 1.52-.33.71-.13 1.43-.15.72-.03 1.3-.03.57-.01 1.47-.01.9 0 1.52 0 .61 0 1.26 0 .65 0 1.39 0 .73 0 1.4 0 .67 0 1.33 0 .65 0 1.21.1.55.1 1.28.21.73.12 1.58.23.84.11 1.94.42 1.1.32 2.12.54 1.02.21 1.93.44.91.22 1.77.82.86.61 1.55.77.7.16 1.53.27.83.1 1.78.31.96.22 1.85.34.89.12 1.75-.09.85-.21 1.66-.22.81 0 1.58-.09.76-.08 1.29-.18.53-.11 1.67-.35 1.15-.24 1.71-.25.57 0 1.56.1.98.09 1.87.1.89.01 1.45-.07.55-.09 1.19-.19.64-.11 1.54-.13.89-.02 1.67-.03.78 0 1.68.09.91.09 1.56.11.65.01 1.24-.07.59-.09 1.23-.19.65-.11 1.3-.21.65-.11 1.36-.14.71-.02 1.29-.02.57-.01 1.11.09.55.1 1.25.11.7.01 1.34.01.64 0 1.31 0 .67 0 1.54.11.86.1 1.91.11 1.05 0 1.94 0 .9 0 1.42.1.52.1 1.34.32.82.23 1.62.23.8.01 1.9-.39 1.1-.4 1.6-.59.5-.19 1.1-.33.6-.14 1.45-.58.85-.45 1.23-.81.39-.37.98-.76.58-.39 1.14-.73.55-.34 1.1-.53.54-.18 1.24-.46.69-.28 1.34-.99.64-.72.96-1.15.32-.43.65-.86.32-.43.62-1.24.29-.8.5-1.46.21-.66.32-1.26.11-.59.13-1.18.01-.58.11-1.28.1-.7.11-1.39.01-.7.01-1.54 0-.84 0-1.61.01-.78.01-1.63 0-.86-.09-1.68-.09-.82-.28-1.54-.18-.72-.4-1.68-.21-.95-.43-2.12-.22-1.17-.36-2.21-.13-1.03-.15-2.06-.03-1.03-.2-1.64-.17-.61-.3-1.31-.13-.69-.24-1.45-.11-.76-.14-1.66-.02-.91-.02-1.78-.01-.88-.01-1.66 0-.78 0-1.55 0-.76.1-1.49.09-.73.1-1.43.01-.7.11-1.5.1-.81.11-1.43.01-.63.01-1.28.01-.64-.1-1.54-.1-.9-.21-1.67-.11-.76-.01-1.74.09-.97.19-1.57.11-.6.12-1.19.01-.59.21-1.42.19-.83.31-1.72.11-.89.32-1.82.21-.92.32-1.84.12-.93.33-1.93.21-1.01.33-1.88.12-.86.23-1.81.11-.95.21-1.93.11-.97.22-2.04.11-1.07.22-2.15.11-1.08.22-2.09.11-1 .12-1.76.02-.77-.07-1.47-.08-.71-.27-1.52-.18-.8-.31-1.71-.14-.9-.33-1.63-.19-.74-.4-1.49-.21-.76-.43-1.41-.21-.66-.43-1.42-.22-.76-.36-1.57-.14-.81-.34-1.63-.19-.82-.4-1.59-.21-.76-.43-1.41-.21-.66-.35-1.27-.13-.6-.17-1.23-.03-.62-.03-1.18-.01-.56-.01-1.2 0-.64.1-1.27.09-.63.2-1.35.1-.72.32-1.45.21-.73.32-1.34.12-.61.22-1.34.11-.72.22-1.4.11-.67.22-1.87.11-1.19.13-1.88.01-.69.1-1.58.1-.88.21-1.76.1-.87.21-1.65.11-.79.13-1.51.01-.71.01-1.47.01-.75.01-1.51 0-.76 0-1.61 0-.86.09-1.77.09-.91.2-1.7.11-.8.12-1.51.02-.72.02-1.57 0-.84 0-1.62 0-.77 0-1.63 0-.85 0-1.63 0-.78.1-1.51.09-.73.1-1.34.01-.61.02-1.25 0-.65-.09-1.24-.08-.59-.1-1.39-.02-.79-.02-1.56-.01-.76-.01-1.44 0-.67-.19-1.7-.18-1.03-.29-1.57-.11-.55-.22-1.19-.11-.65-.3-1.24-.18-.6-.4-1.24-.21-.64-.47-1.12-.26-.48-1.3-1-1.03-.53-1.73-.75-.7-.21-1.38-.44-.68-.22-1.26-.44-.59-.23-1.08-.46-.49-.23-1.43-.65-.94-.42-1.55-.63-.61-.21-1.18-.43-.58-.23-1.18-.56-.61-.34-1.14-.81-.53-.47-1-.77-.48-.29-1.43-.73-.94-.43-1.81-.64-.86-.2-1.47-.42-.6-.22-1.7-.43-1.1-.22-1.78-.23-.67-.01-1.51-.02-.84 0-1.47.09-.63.08-1.37.19-.75.1-1.37.12-.63.03-1.34-.06-.72-.1-1.51-.3-.79-.21-1.68-.32-.88-.11-1.45-.13-.57-.02-1.35-.12-.78-.09-1.49-.11-.71-.01-1.64-.01-.94 0-1.91 0-.97 0-1.77 0-.8 0-1.56 0-.77 0-1.54 0-.76 0-1.43 0-.67 0-1.51 0-.84 0-1.75-.1-.91-.09-1.65-.1-.74-.02-1.59-.02-.85 0-1.54 0-.68 0-1.87 0-1.19 0-1.95.17-.75.17-1.65.3-.89.12-1.67.23-.78.11-1.45.22-.66.11-1.32.22-.65.11-1.42.38-.76.27-1.89.68-1.13.41-2.04.75-.91.34-1.51.57-.6.24-1.1.5-.5.26-1.51 1.07-1.02.81-1.86 1.45-.84.63-1.49 1.25-.64.62-1.22 1.1-.59.49-.78.76-.19.26-.27.32-.09.06-.19.09-.1.03-.21.04-.11.01-.21 0-.11-.02-.2-.06-.1-.04-.19-.1-.08-.07-.15-.15-.07-.08-.11-.18-.05-.09-.07-.19-.02-.11-.02-.21 0-.11.03-.21.03-.11.08-.2.05-.09.13-.17.07-.07 1.03-1.07.95-.99 1.03-1.06.07-.08.17-.13.09-.04.2-.06.09-.01.2.01.1.02.2.07.09.05.16.13.07.08.11.18.04.1.05.2.01.1-.02.2-.02.11-.08.2-.06.08-.14.15-.08.07-.18.1-.1.04-.21.04-.1.01-.2-.03-.1-.03-.18-.09-.09-.06-.15-.15-.06-.08-.09-.19-.04-.1-.03-.19 0-.11.04-.21.03-.1.1-.18.07-.08.16-.14.09-.06.19-.08.1-.03.2-.02.11.01.2.05.1.04.18.11.08.07.13.17.05.09.07.19.02.11.01.2-.02.11-.07.2-.04.1-.04.1 0 0-.92 1.29-.93 1.29-1.01 1.35-.09.06-.19.09-.1.03-.21.04-.11.01-.21 0-.11-.02-.2-.06-.1-.04-.19-.1-.08-.07-.15-.15-.07-.08-.11-.18-.05-.09-.07-.19-.02-.11-.02-.21 0-.11.03-.21.03-.11.08-.2.05-.09.13-.17.07-.07.25-.33.19-.26.74-.72.54-.45 1.26-1.12.71-.68 1.53-1.3.81-.61 1.82-1.42 1.01-.81 1.75-1.22.74-.4 1.36-.64.61-.24 1.53-.59.92-.34 2.06-.75 1.14-.41 2.05-.72.91-.31 1.56-.42.66-.11 1.35-.22.68-.11 1.46-.22.78-.11 1.62-.23.83-.11 1.77-.3.93-.19 2.13-.19 1.19 0 1.88 0 .69 0 1.55 0 .86 0 1.68.02.82.02 1.63.11.82.08 1.66.08.84 0 1.51 0 .67 0 1.43 0 .77 0 1.54 0 .76 0 1.56 0 .8 0 1.77.01.98 0 1.93 0 .95 0 1.75.02.81.02 1.5.11.7.09 1.35.12.66.02 1.65.15.99.14 1.68.32.69.19 1.79.26 1.1.07 1.85-.04.76-.1 1.5-.2.75-.09 1.6-.09.86.01 1.67.03.8.03 1.46.14.66.12 1.74.44 1.07.32 1.63.44.56.12 1.51.49.94.37 1.54.64.61.27 1.57 1.02.96.74 1.45 1.02.49.28 1.03.49.55.21 1.2.44.66.23 1.21.46.56.23 1.42.65.86.42 1.4.63.55.21 1.21.43.66.22 1.47.48.81.24 1.6.62.79.38 1.41.87.62.5.97 1.15.35.65.57 1.31.22.67.43 1.37.21.7.32 1.33.11.62.22 1.17.11.55.21 1.11.11.56.21 1.19.09.64.09 1.31 0 .67.01 1.42 0 .75.01 1.44.01.7.11 1.41.09.72.09 1.38-.01.66-.02 1.37-.02.7-.11 1.32-.09.61-.09 1.39 0 .78 0 1.63 0 .86 0 1.64 0 .78 0 1.64 0 .86-.03 1.67-.02.82-.12 1.58-.11.77-.19 1.59-.09.83-.09 1.68 0 .85 0 1.61 0 .77-.01 1.54 0 .77-.02 1.59-.02.81-.13 1.58-.11.78-.22 1.64-.1.86-.19 1.67-.09.81-.11 1.6-.02.8-.11 1.39-.09.59-.12 1.21-.02.62-.13 1.28-.11.67-.22 1.43-.11.76-.25 1.46-.13.7-.32 1.3-.18.6-.38 1.83-.19 1.22-.19 1.85 0 .64.02 1.64.01 1 .13 1.52.12.53.34 1.22.22.69.44 1.49.22.79.43 1.67.21.88.32 1.59.12.71.33 1.44.22.74.44 1.43.22.69.44 1.46.22.77.43 1.6.21.83.33 1.66.11.83.32 1.73.2.91.29 1.73.09.83.07 1.67-.02.84-.13 1.84-.11.99-.22 2.08-.11 1.08-.22 2.16-.11 1.07-.22 2.05-.1.98-.22 1.95-.11.98-.24 1.9-.13.91-.33 1.86-.19.94-.32 1.95-.14 1-.33 1.84-.19.84-.33 1.83-.13.99-.3 1.64-.17.65-.19 1.36-.03.7-.22 1.68-.19.98-.18 1.72 0 .74.12 1.56.11.82.21 1.37.1.56.1 1.22-.01.67-.03 1.38-.02.72-.11 1.43-.08.72-.1 1.51-.02.8-.11 1.41-.09.62-.09 1.38 0 .77 0 1.55.01.77.01 1.63 0 .86.02 1.66.01.79.12 1.52.11.73.22 1.36.12.64.31 1.44.2.81.22 1.75.02.95.14 1.93.13.98.34 2.12.21 1.14.43 2.08.21.93.41 1.77.21.84.3 1.76.1.91.1 1.77 0 .85 0 1.63 0 .78-.01 1.64 0 .85-.02 1.65-.02.8-.11 1.4-.09.61-.12 1.33-.03.72-.17 1.42-.13.7-.33 1.3-.19.61-.36 1.23-.17.63-.45 1.12-.27.49-.6.93-.32.44-.66.88-.34.44-.72.92-.39.47-1.34 1.17-.95.7-1.73.92-.78.21-1.31.53-.53.32-.99.62-.47.29-.96.75-.49.45-1.04.81-.54.35-1.64.68-1.1.33-1.71.55-.62.22-1.15.32-.54.1-1.25.41-.72.31-1.28.31-.56 0-1.41-.13-.85-.14-1.62-.33-.77-.18-1.66-.18-.89 0-1.43 0-.55 0-1.59-.03-1.05-.03-1.71-.11-.65-.08-1.39-.08-.74 0-1.34 0-.6-.01-1.48-.11-.88-.11-1.44-.1-.55 0-1.14.01-.59.02-1.25.12-.65.11-1.32.22-.67.11-1.39.2-.73.09-1.45.07-.73-.01-1.53-.1-.81-.09-1.58-.09-.76.01-1.54.02-.77.01-1.42.12-.66.1-1.8.2-1.15.09-1.75.06-.6-.02-1.4-.1-.8-.08-1.75-.07-.94.02-1.55.23-.6.22-1.15.33-.54.1-1.13.2-.58.1-1.25.1-.67 0-1.4.01-.72 0-1.33.21-.61.2-1.67.07-1.07-.14-2.03-.35-.97-.22-1.65-.3-.69-.09-1.25-.15-.56-.06-1.23-.38-.68-.33-1.17-.74-.5-.41-1.37-.62-.87-.21-1.42-.32-.55-.12-1.62-.44-1.06-.32-1.93-.43-.87-.1-1.64-.22-.77-.11-1.59-.29-.81-.19-1.47-.19-.65 0-1.32 0-.67 0-1.4 0-.74 0-1.39 0-.65 0-1.26 0-.62 0-1.51 0-.9 0-1.45.01-.55 0-1.15.01-.59.02-1.26.14-.66.12-1.54.32-.88.21-1.59.31-.71.11-1.29.22-.57.11-1.23.22-.66.11-1.34.22-.69.11-1.47.22-.78.11-1.63.22-.85.1-1.63.2-.78.09-1.33.1-.54.01-1.57.13-1.03.11-1.67.23-.64.12-1.46.32-.81.21-1.6.31-.79.09-1.38.1-.6.02-1.82.11-1.22.1-2.18.11-.96.01-1.67.11-.7.1-1.29.11-.6.01-1.26.12-.66.11-1.35.2-.7.1-1.26.09-.55 0-1.17-.03-.61-.03-1.38-.25-.77-.21-1.32-.33-.56-.12-1.54-.44-.98-.33-2.02-.69-1.04-.37-1.83-.65-.79-.29-1.43-.47-.64-.18-1.42-.19-.77-.02-1.67.33-.91.35-1.44.45-.54.1-1.07.1-.53.01-1.5.11-.97.11-1.73.11-.76-.01-1.29-.11-.53-.11-1.06.1-.54.2-1.03.55-.49.36-1.2.79-.7.43-1.24.65-.54.22-1.52.62-.97.4-1.43.74-.47.33-1.5.49-1.04.17-1.72-.4-.68-.57-1.23-1.33-.55-.77-1.08-1.4-.53-.63-1.02-1.02-.49-.4-1.03-.52-.55-.11-1.06-.28-.5-.16-1.17-.75-.68-.59-1.08-1.13-.4-.54-1.12-1.05-.71-.51-.93-1.05-.22-.54-.23-1.13 0-.58 0-1.22 0-.65-.01-1.25 0-.6-.12-1.42-.12-.82-.22-1.35-.11-.52-.22-1.54-.11-1.01-.21-2.16-.1-1.14-.21-2.02-.12-.88-.22-1.75-.09-.88.02-1.77.11-.89.13-1.5.01-.61.1-1.18.09-.58.09-1.12 0-.54 0-1.08 0-.55.11-1.54.11-.99.11-1.55 0-.57.02-1.28.02-.7.11-1.27.08-.58.08-1.14 0-.56 0-1.2 0-.64.01-1.21 0-.58.02-1.29.03-.71.13-1.35.11-.64.2-1.23.08-.58.19-1.7.1-1.11.1-1.85 0-.74-.01-1.36-.02-.63-.11-1.41-.1-.79-.11-1.38-.01-.6-.12-1.25-.11-.66-.2-1.36-.1-.69-.11-1.7-.02-1.01-.12-1.56-.11-.55-.22-1.64-.11-1.09-.22-2.18-.11-1.09-.21-2.12-.11-1.04-.33-1.93-.21-.88-.31-1.4-.1-.53-.1-1.42.01-.89.11-1.8.11-.91.14-1.62.02-.7.22-1.72.19-1.02.22-1.63.02-.62.14-1.17.11-.56.24-1.15.14-.6.32-1.2.19-.59.29-1.25.1-.65.19-1.35.09-.71.11-1.42.02-.71.11-1.42.09-.72.09-1.48 0-.76 0-1.54 0-.78 0-1.63 0-.86 0-1.63 0-.77.02-1.59.02-.81.1-1.62.09-.81.09-1.59 0-.77 0-1.62 0-.85 0-1.59 0-.74-.02-1.4-.01-.65-.1-1.57-.1-.91-.1-1.77 0-.86-.02-1.67-.01-.8-.12-1.58-.11-.79-.22-1.64-.11-.85-.22-1.66-.11-.8-.22-1.75-.11-.94-.22-1.74-.12-.8-.34-1.57-.21-.77-.42-1.57-.21-.81-.33-1.57-.12-.75-.33-1.67-.2-.91-.29-1.82-.09-.9-.09-1.67 0-.78 0-1.62 0-.85.02-1.57.02-.71.11-1.43.09-.73.11-1.55.02-.83.13-1.71.1-.88.19-1.83.1-.94.12-1.97.02-1.04.13-2.11.11-1.07.22-2.03.12-.96.25-1.77.13-.8.33-1.53.19-.74.32-1.65.14-.91.35-1.78.22-.86.41-1.68.2-.82.34-1.63.15-.81.37-1.48.22-.67.48-1.5.26-.82.66-1.78.41-.96 1.04-2.01.62-1.05 1.18-2 .55-.95.91-1.42.37-.47.65-.97.27-.49.63-.96.36-.47.83-1.05.47-.57 1.1-1.25.64-.7 1.47-1.34.84-.65 1.65-.95.8-.3 1.89-.16 1.09.15 1.62.33.52.18 1.16.59.63.41 1.2.76.57.35 1.18.34.61-.01 1.36-.12.75-.12 1.84-.23 1.09-.11 1.7-.21.61-.1 1.6-.12 1-.02 1.71-.23.72-.21 1.44-.3.71-.1 1.38-.1.68 0 1.44 0 .76 0 1.51 0 .76 0 1.47-.02.72-.01 1.52-.1.81-.1 1.51-.11.7-.01 1.44-.1.74-.1 1.55-.08.82.02 1.63.11.81.09 1.59.09.78 0 1.68.03.89.02 1.54.13.65.11 1.2.22.56.11 1.23.21.68.11 1.55.22.87.11 1.73.21.86.11 1.67.19.8.09 1.57.09.77 0 1.58.01.8 0 1.83.02 1.02.03 2.01.16 1 .12 1.78.29.79.17 1.66.17.86 0 1.74-.02.88-.02 2.01-.12 1.13-.11 2.41-.22 1.27-.11 2.43-.2 1.16-.1 1.93-.11.76-.01 1.36-.12.6-.12 1.3-.33.69-.2 1.33-.29.64-.09 1.24 0 .59.09 1.15.36.54.28.63.34.09.05.16.13.07.08.12.17.05.1.08.2.03.1.03.21 0 .09-.02.2-.03.1-.07.2-.05.09-.12.17-.07.08-.15.14-.09.07-.19.11-.1.04-.2.05-.11.02-.2 0-.11-.01-.21-.04-.1-.04-.1-.04h0z"/></svg>