<svg preserveAspectRatio="none" xmlns="http://www.w3.org/2000/svg" viewBox="8.32 8.31 112.03 411.56" width="112.03" height="411.56" xmlns:v="https://vecta.io/nano"><path fill="#1e1e1e" d="M60.622 18.848q0 0-.01-4.22-.01.07-.03.14-.02.06-.05.12-.03.06-.08.12-.04.05-.09.09-.06.05-.12.08-.06.03-.12.05-.07.02-.14.03-8.63.01-.12 0-.07-.01-.14-.03-.06-.02-.12-.05-.06-.03-.12-.08-.05-.04-.09-.09-.05-.06-.08-.12-.03-.06-.05-.12-.02-.07-.03-.14-.01-4.34-.01-.19 0-.13.02-.17.02-.04-.1-.17-.12-.14-.08-.21.04-.06.11.01.08.08-.17.08-.25-.01-.43-.01-.19 0-.55-.01-.36 0-.7-.14-.33-.13-.59-.15-.26-.01-.75-.02-.49-.01-.99-.14-.49-.14-.85-.16-.36-.03-.88-.18-.52-.15-.9-.32-.39-.17-.74-.35-.36-.17-.8-.46-.45-.28-.89-.46-.45-.17-.91-.33-.46-.16-1.16-.31-.7-.16-1.34-.19-.64-.03-1.28-.03-.65-.01-1.17-.01-.53 0-1.15 0-.63 0-1.06-.01-.43-.01-.87.23-.44.24-.92.42-.48.17-.92.44-.43.27-.73.5-.29.22-.61.26-.32.05-.45.16-.14.11-.44.27-.31.16-.76.45-.45.3-.78.47-.34.18-.54.35-.2.17-.59.37-.4.21-.8.25-.4.05-.61.06-.21.01-.45 0-.24-.01-.55.12-.31.13-.65.16-.34.03-.8.17-.45.13-.85.16-.41.04-.88.04-.47.01-.77 0-.29 0-.61.13-.32.13-.84.16-.52.03-.88.04-.37 0-.7.01-.33 0-.66 0-.33 0-.66 0-.32 0-.75-.02-.43-.01-.64-.15-.21-.13-.41-.14-.2-.01-.51-.01-.31-.01-.63-.01-.32 0-.65 0-.32 0-.65 0-.32 0-.78 0-.46 0-.76 0-.31-.01-.76.12-.44.13-.78.15-.33.03-.58.13-.26.11-.66.36-.41.26-.71.53-.31.28-.59.67-.29.39-.48.86-.19.47-.48.92-.28.46-.33.77-.04.32-.19.81-.15.49-.3.93-.15.44-.18 1.04-.03.6-.16 1.25-.14.64-.17 1.39-.02.74-.03 1.41 0 .68 0 1.33 0 .66 0 1.18 0 .53 0 1.02 0 .5 0 .99 0 .49 0 .98 0 .49-.01 1.01 0 .53-.13 1.16-.13.63-.15 1.11-.03.48-.03 1.1-.01.61-.01 1.13 0 .51 0 1.14 0 .62 0 1.27 0 .65 0 1.3 0 .65 0 1.27 0 .62.13 1.26.13.64.15 1.15.02.51.16 1.01.13.49.16 1 .03.51.17 1.23.13.73.29 1.56.16.82.19 1.64.03.81.17 1.47.13.65.29 1.47.16.81.19 1.49.04.68.17 1.31.13.62.29 1.3.16.69.2 1.48.03.8.17 1.74.13.94.16 1.68.03.73.04 1.53 0 .8 0 1.75.01.94.01 1.91 0 .97 0 1.95 0 .98-.01 1.8 0 .82.13 1.64.13.81.16 1.79.03.97.03 2.34.01 1.37.01 2.3 0 .92 0 1.63 0 .71 0 1.37 0 .66 0 1.06 0 .39 0 1.04 0 .64-.14 1.2-.14.55-.3 1.18-.16.64-.32 1.16-.17.53-.33 1.02-.16.49-.31 1.06-.16.58-.19 1.06-.02.47-.03.95-.01.49-.01.85 0 .35 0 .86-.01.51-.14 1.01-.13.49-.15.81-.02.31-.03.63 0 .32 0 .78 0 .46-.01.87-.01.42-.14.76-.13.34-.15.74-.02.39-.02.87-.01.47-.01.96 0 .48 0 .97 0 .49 0 1.24 0 .75 0 1.25-.01.49.12.99.13.49.16.98.03.5.16 1.12.14.62.16 1.13.03.51.16 1 .14.49.17.98.02.49.15.94.13.45.29.97.17.53.21 1.2.03.68.04 1.33.01.65.01 1.14 0 .49.13 1.11.13.62.15 1.3.03.68.04 1.34 0 .66 0 1.47 0 .81-.13 1.63-.13.82-.15 1.34-.03.53-.03 1.16-.01.62-.01 1.27 0 .64 0 1.3 0 .65 0 1.21 0 .55-.14 1.19-.13.63-.15 1.12-.02.48-.03 1.13-.01.65-.14 1.33-.14.68-.3 1.47-.16.79-.31 1.44-.16.65-.19 1.31-.04.67-.18 1.22-.15.56-.31 1.19-.16.64-.31 1.12-.15.49-.18 1.06-.03.58-.03 1.21-.01.64-.01 1.29 0 .65 0 1.3 0 .66 0 1.44 0 .78 0 1.46 0 .68 0 1.47 0 .79-.01 1.42 0 .64.13 1.16.13.52.16 1.15.02.64.15 1.25.13.62.28 1.24.15.63.44 1.38.28.75.58 1.4.31.65.76 1.43.45.79.83 1.51.37.72.58 1.56.22.83.4 1.68.17.84.21 1.66.03.83.17 1.64.14.82.17 1.53.03.71.03 1.38.01.67.01 1.32 0 .66 0 1.44 0 .78 0 1.49 0 .7-.14 1.66-.13.95-.29 1.68-.16.72-.32 1.38-.17.66-.32 1.41-.16.76-.19 1.43-.03.67-.17 1.48-.14.81-.31 1.77-.16.96-.45 1.93-.29.98-.48 2.06-.18 1.09-.35 2.07-.16.98-.2 1.96-.03.99-.17 1.86-.14.87-.29 1.8-.16.93-.19 1.9-.03.97-.17 1.95-.14.98-.16 1.93-.03.96-.03 1.8-.01.84-.01 1.69 0 .84-.14 1.82-.13.97-.29 1.95-.15.97-.32 2.08-.16 1.1-.32 2.22-.16 1.11-.19 2.21-.03 1.1.09 2.23.13 1.13.15 2.16.03 1.03.03 2 .01.97.14 2.06.13 1.09.28 2.49.16 1.39.32 2.72.16 1.32.32 2.62.17 1.31.33 2.48.16 1.17.32 2.16.16.99.44 1.95.29.96.61 1.94.32.97.64 1.95.33.98.66 1.98.33 1 .53 2 .2 1 .37 1.82.16.82.45 1.62.28.79.61 1.63.32.83.53 1.7.21.87.25 1.73.04.85.05 1.96.01 1.11-.13 2.13-.13 1.03-.28 2.12-.16 1.1-.19 2.08-.03.99-.03 1.83-.01.85-.01 1.68 0 .82 0 1.76 0 .95 0 1.79 0 .85 0 1.93 0 1.08 0 2.21 0 1.13 0 2.01 0 .88 0 1.87 0 .99-.15 1.76-.14.78-.43 1.58-.29.8-.47 1.58-.18.79-.35 1.74-.17.96-.46 1.94-.3.97-.48 1.93-.19.95-.36 1.93-.16.97-.32 1.93-.17.95-.2 1.93-.03.97-.17 1.95-.13.98-.16 1.95-.03.98-.17 1.96-.13.98-.16 1.96-.03.98-.16 1.98-.14 1-.3 2.09-.15 1.09-.18 2.09-.04 1.01-.18 2.01-.13 1.01-.29 1.97-.16.96-.19 2.07-.03 1.1-.17 2.11-.13 1-.16 2.09-.02 1.09-.03 2.23-.01 1.13-.01 2.01 0 .88 0 1.84 0 .95 0 1.77 0 .83.13 1.77.13.95.16 1.81.03.87.03 1.8 0 .93.13 1.77.14.84.16 1.64.02.81.15 1.33.13.52.29 1.16.16.64.32 1.42.17.79.33 1.61.17.82.33 1.9.17 1.08.33 2.06.16.99.32 1.69.15.7.32 1.26.17.56.21 1.11.04.55.04 1.18.01.64.01 1.28 0 .65 0 1.3 0 .66 0 1.47 0 .82-.13 1.5-.13.69-.15 1.32-.03.62-.03 1.4-.01.78-.01 1.45 0 .68 0 1.47 0 .79 0 1.42-.01.64.12 1.16.13.52.16 1.19.03.67.04 1.19 0 .53 0 1.15 0 .63 0 1.28 0 .65 0 1.3 0 .65 0 1.43 0 .79 0 1.5 0 .71-.14 1.42-.14.71-.29 1.2-.15.5-.18 1.12-.03.61-.16 1.26-.14.64-.17 1.13-.02.49-.03 1.01-.01.52-.14 1.15-.13.63-.15 1.11-.03.48-.03.97-.01.48-.01 1.1 0 .62 0 1.27 0 .64 0 1.16 0 .53 0 1.15 0 .63 0 1.28 0 .64 0 1.29 0 .66 0 1.26-.01.61.12 1.13.13.51.16 1 .02.49.16.98.14.49.16.99.03.5.17 1.12.13.63.16 1.27.03.65.16 1.27.13.62.28 1.25.16.64.32 1.16.16.52.32 1.14.16.63.34 1.18.17.55.2 1.19.04.63.16 1.09.12.45.24.74.13.3.38.58.25.28.44.47.18.19.49.51.32.32.66.8.34.48.65.94.32.47.6.78.29.31.67.59.38.29.91.45.52.17.86.2.33.03.59.05.25.01.56-.12.31-.12.7-.16.39-.03.57 0 .19.04.33-.19.13-.23.62-.44.49-.22.94-.5.45-.29.92-.6.48-.31 1.11-.78.63-.46 1.31-.83.68-.37 1.5-.72.82-.35 1.51-.55.69-.2 1.26-.38.56-.18 1.11-.22.55-.04 1.05-.04.5-.01.86-.01.37 0 .7 0 .33 0 .85 0 .52.01.93.15.41.15.82.29.41.14 1.01.17.61.03 1.12.17.52.13 1.04.17.52.03 1.17.31.66.27 1.29.45.63.18 1.17.35.54.18 1.3.47.76.3 1.28.48.53.18 1.15.35.63.17 1.16.34.52.16 1.02.33.5.16.94.31.45.15 1.02.18.56.03 1.1.04.54 0 1.3.14.76.13 1.43.15.67.03 1.45.17.78.13 1.57.16.78.02 1.59.03.8 0 1.45.01.65 0 1.3-.13.65-.13 1.21-.16.56-.03 1.19-.03.64-.01 1.29-.01.64 0 1.3 0 .65 0 1.43 0 .78 0 1.59 0 .81 0 1.63 0 .81 0 1.63 0 .81 0 1.5 0 .68 0 1.3 0 .62 0 1.09-.11.47-.12.96-.28.5-.16 1.12-.32.62-.16 1.13-.32.52-.17 1.19-.34.67-.17 1.46-.21.79-.03 1.46-.17.68-.13 1.34-.16.65-.03 1.31-.16.65-.14 1.28-.16.63-.03.98-.15.34-.13.79-.28.46-.15.81-.31.35-.16.83-.33.48-.17.95-.33.47-.16.81-.31.33-.15.91-.44.57-.28 1.08-.6.5-.31.9-.52.39-.22.88-.4.49-.18.97-.33.47-.16.87-.34.4-.18.87-.21.47-.04.78-.16.32-.13.75-.27.43-.15.88-.42.44-.27.91-.57.46-.3.79-.61.33-.3.62-.57.28-.27.44-.65.16-.39.31-.82.16-.42.18-.88.03-.47.17-1.21.14-.75.17-1.42.02-.67.16-1.45.13-.79.16-1.48.03-.68.17-1.38.15-.7.3-1.2.15-.5.18-1.11.03-.61.17-1.29.15-.68.3-1.33.16-.65.32-1.4.15-.75.19-1.57.03-.81.17-1.37.13-.55.16-1.18.03-.62.16-1.27.14-.65.16-1.14.03-.49.03-1.1.01-.62.01-1.14 0-.51 0-1.01 0-.49 0-1.11 0-.62 0-1.23.01-.62-.12-1.26-.13-.64-.16-1.2-.03-.55-.03-1.14-.01-.59-.14-1.11-.13-.51-.16-1.17-.03-.67-.03-1.33-.01-.65-.01-1.17 0-.52 0-1.15 0-.63 0-1.01 0-.39 0-.86 0-.47 0-.77.01-.31-.12-.76-.13-.46-.16-.99-.03-.53-.04-1.16 0-.62 0-1.14-.01-.52-.01-1.14 0-.63.01-1.23 0-.61-.13-1.12-.13-.52-.16-1.18-.03-.67-.03-1.19-.01-.53-.01-1.15 0-.63 0-1.28 0-.65 0-1.3 0-.65 0-1.17 0-.52 0-1.02 0-.49 0-.99 0-.49 0-1.11 0-.62 0-1.13 0-.52 0-1.19 0-.66.13-1.19.14-.52.16-1.14.03-.62.16-1.27.14-.65.16-1.13.03-.49.03-1.14.01-.65.14-1.31.14-.65.16-1.42.03-.77.16-1.73.14-.96.3-2.06.16-1.1.32-2.23.16-1.14.32-2.28.17-1.14.33-2.31.17-1.16.47-2.18.29-1.01.48-2.13.19-1.12.49-2.13.3-1.01.49-1.97.18-.97.35-1.94.17-.98.33-1.96.17-.98.33-1.81.16-.82.19-1.64.03-.81.17-1.76.13-.95.16-1.66.03-.72.17-1.51.13-.8.16-1.71.02-.91.03-1.75 0-.84.01-1.52 0-.69 0-1.45 0-.76-.12-1.4-.13-.64-.29-1.32-.16-.68-.2-1.38-.03-.69-.04-1.48 0-.79 0-1.57 0-.79-.13-1.6-.13-.81-.16-1.65-.03-.84-.03-1.66-.01-.82-.01-1.64 0-.82 0-1.5 0-.69 0-1.35 0-.65 0-1.31 0-.65 0-1.31 0-.65 0-1.3 0-.65 0-1.31 0-.65 0-1.43 0-.78 0-1.59 0-.81 0-1.63 0-.81 0-1.5 0-.68 0-1.47 0-.79 0-1.44 0-.64-.13-1.29-.13-.65-.15-1.18-.03-.52-.17-1.28-.13-.76-.16-1.44-.03-.68-.16-1.6-.14-.92-.17-1.88-.02-.97-.16-1.79-.13-.81-.28-1.62-.16-.81-.32-1.5-.16-.68-.33-1.47-.16-.79-.33-1.5-.16-.71-.2-1.51-.03-.8-.17-1.61-.14-.81-.17-1.78-.02-.98-.03-1.82-.01-.85-.01-1.78 0-.92-.13-1.76-.13-.84-.15-1.68-.03-.85-.04-1.54 0-.69 0-1.35 0-.66 0-1.32 0-.65 0-1.31-.01-.65-.01-1.43 0-.78 0-1.46 0-.68 0-1.47 0-.79 0-1.47 0-.68 0-1.34 0-.65 0-1.31 0-.65 0-1.3 0-.66.01-1.22 0-.55.13-1.19.13-.63.16-1.28.02-.64.16-1.3.14-.65.16-1.3.03-.65.17-1.34.14-.69.3-1.31.15-.63.18-1.27.03-.65.17-1.3.13-.65.16-1.27.02-.62.03-1.14 0-.51 0-1.14.01-.62.01-1.14 0-.51 0-1.17 0-.66.13-1.32.13-.65.16-1.4.02-.75.02-1.42.01-.67.01-1.2 0-.52 0-1.15 0-.63 0-1.28 0-.64 0-1.3 0-.65 0-1.3 0-.65 0-1.3 0-.66 0-1.31 0-.65 0-1.3 0-.66 0-1.31 0-.65 0-1.41 0-.75-.13-1.56-.13-.8-.15-1.64-.03-.84-.04-1.53 0-.69 0-1.45 0-.76-.13-1.43-.13-.67-.16-1.33-.02-.66-.16-1.31-.13-.65-.16-1.31-.03-.66-.16-1.44-.14-.79-.17-1.6-.03-.81-.16-1.62-.14-.82-.16-1.49-.03-.68-.16-1.3-.13-.61-.28-1.13-.16-.51-.33-1.18-.17-.67-.2-1.22-.04-.56-.05-1.2 0-.64-.01-1.28 0-.65 0-1.31 0-.65 0-1.33.01-.69.14-1.38.14-.68.29-1.47.16-.79.33-1.48.16-.69.32-1.35.17-.65.33-1.31.16-.65.33-1.31.16-.65.32-1.29.16-.65.33-1.43.16-.78.32-1.44.15-.65.19-1.3.03-.65.17-1.31.13-.65.16-1.14.02-.49.03-.97 0-.49 0-.98 0-.49 0-.98.01-.49.01-.98 0-.49 0-1.14 0-.66.13-1.31.13-.66.16-1.14.02-.49.02-1.11.01-.62.01-1.13 0-.52 0-1.17 0-.66.14-1.44.13-.78.15-1.43.02-.65.03-1.31.01-.65.01-1.3 0-.65 0-1.17 0-.52 0-1.15 0-.63 0-1.14 0-.52 0-1.15 0-.62 0-1.27 0-.65 0-1.26 0-.6-.13-1.12-.13-.51-.15-1.15-.03-.63-.16-1.24-.13-.62-.29-1.26-.15-.65-.32-1.33-.17-.69-.2-1.34-.03-.65-.16-1.12-.13-.48-.29-1.01-.17-.53-.2-1.17-.04-.64-.18-1.29-.13-.65-.16-1.33-.03-.69-.04-1.48 0-.79 0-1.47-.01-.68-.01-1.47 0-.79 0-1.34 0-.55 0-1.18 0-.63 0-1.15 0-.51.01-1.18 0-.66.13-1.31.13-.65.15-1.27.03-.62.03-1.27.01-.64.01-1.2 0-.55.13-1.19.14-.63.16-1.28.03-.65.16-1.3.14-.65.17-1.3.02-.64.16-1.43.14-.78.16-1.34.03-.55.17-1.18.13-.64.16-1.15.03-.52.17-1.19.15-.67.31-1.19.16-.52.31-1.11.15-.58.18-1.22.03-.64.17-1.29.14-.65.16-1.14.03-.49.03-1.1.01-.62.01-1.14 0-.51 0-1.14 0-.62 0-1.14 0-.52 0-1.01 0-.5 0-.99 0-.49 0-.98 0-.49 0-1.01 0-.53.14-1.15.13-.63.15-1.24.02-.61.03-1.13 0-.51.01-1.09 0-.59-.13-1.09-.13-.51-.15-1.15-.03-.63-.16-1.23-.13-.61-.28-1.11-.15-.5-.32-1.04-.17-.53-.19-.97-.02-.43-.26-.74-.25-.31-.47-.87-.22-.55-.26-1.05-.04-.51-.17-.95-.12-.45-.29-.98-.17-.53-.21-1.2-.03-.67-.04-1.2-.01-.52-.01-1.11 0-.59-.13-1.23-.13-.64-.15-1.2-.03-.55-.04-1.18 0-.64 0-1.29-.01-.65-.01-1.17 0-.52.01-1.06 0-.54.13-1.04.13-.5.16-.98.02-.49.16-1.11.13-.62.16-1.13.03-.52.17-1.18.15-.67.3-1.16.15-.49.18-.98.03-.49.18-1.03.15-.53.3-.98.14-.46.18-.94.03-.48.17-1.01.15-.54.3-.99.15-.45.17-.89.03-.44.03-.92.01-.48.02-.88 0-.41.13-.88.13-.47.16-.91.02-.44.02-.92.01-.48.01-.96 0-.49.01-.78 0-.3-.13-.62-.12-.32-.15-.64-.02-.32-.16-.65-.13-.33-.17-.72-.04-.39-.04-.8 0-.41-.11-.71-.12-.3-.27-.75-.16-.45-.31-.78-.15-.33-.31-.66-.16-.33-.28-.58-.11-.25-.35-.4-.25-.15-.43-.31-.17-.16-.37-.28-.2-.11-.51-.14-.3-.03-.62-.17-.32-.13-.58-.15-.26-.02-.58-.02-.31-.01-.5-.01-.2 0-.36 0-.17 0-.45-.02-.28-.02-.56-.22-.28-.19-.46-.36-.17-.17-.34-.34-.17-.16-.29-.29-.13-.13-.33-.25-.2-.11-.37-.14-.18-.03-.47-.16-.28-.13-.59-.16-.32-.02-.64-.15-.32-.13-.71-.15-.39-.02-.86-.03-.48 0-1.09 0-.62 0-1.14 0-.51 0-1 0-.5 0-.99 0-.49 0-.94-.01-.46 0-1.07.13-.61.13-1.1.15-.49.01-.85.15-.36.14-.83.16-.46.03-.81.16-.35.14-.69.17-.35.03-.77.16-.42.12-.94.29-.52.17-1.15.2-.63.03-1.15.17-.51.14-1.18.17-.67.03-1.19.04-.53 0-1.02 0-.5 0-1.12 0-.62 0-1.18 0-.57 0-1.07-.13-.51-.14-.87-.16-.37-.03-.83-.17-.46-.13-.9-.15-.44-.03-.78-.03-.35-.01-.75-.01-.39-.01-.73-.14-.34-.14-.79-.16-.46-.03-.86-.18-.39-.15-.81-.29-.41-.14-.84-.17-.42-.02-1.08-.03-.65-.01-1.17-.13-.53-.14-.92-.17-.38-.03-.71-.16-.34-.14-.79-.17-.46-.02-.81-.16-.36-.14-.63-.15-.27-.02-.58-.03-.32 0-.64 0-.33-.01-.52-.01-.2 0-.5 0-.3 0-.42 0-.11-.01-.39.11-.28.13-.53.17-.26.03-.48.02-.22-.01-.39.12-.17.12-.32.14-.16.02-.33.16-.17.14-.58.19-.41.05-.61.05-.21.01-.26-.01-.06-.02-.21.11-.15.12-.56.17-.4.05-.6.06-.21.01-.38.01-.17 0-.34 0-.16 0-.33 0-.16 0-.32 0-.17 0-.33 0-.16 0-.32 0-.16 0-.45 0-.3 0-.6-.02-.3-.02-.59-.22-.28-.18-.38-.29-.09-.11-.2-.12-.11-.01-.4-.15-.28-.13-.56-.2-.28-.07-.56-.44-.27-.38-.32-.59-.06-.22.03-.43.09-.2.29-.31.2-.11.42-.07.22.03 1.68.8 1.46.76 1.51.81.05.05.09.11.04.05.06.12.03.06.05.13.01.06.01.13 0 .07-.01.14-.01.07-.04.13-.03.06-.06.11-.04.06-.09.11-.05.05-.1.09-.06.03-.12.06-.07.03-.13.04-.07.02-.14.02-.07 0-.13-.02-.07-.01-.14-.03-.06-.03-.12-.07-.05-.03-.1-.08-.05-.05-.09-.11-.04-.04-.07-.11-.02-.06-.04-.13-.01-.06-.01-.13 0-.07.01-.14.01-.07.04-.13.02-.06.06-.12.04-.06.09-.11.04-.05.1-.08.06-.04.12-.07.06-.03.13-.04.07-.02.14-.02.06 0 .13.02.07.01.13.03.07.03.12.07.06.03.11.08.05.05.09.11.04.05.06.12.03.06.05.13.01.06.01.13 0 .07-.01.14-.01.07-.04.13-.03.06-.06.11-.04.06-.09.11-.05.05-.1.09-.06.03-.12.06-.07.03-.13.04-.07.02-.14.02-.07 0-.13-.02-.07-.01-.14-.03-.06-.03-1.46-.75-1.4-.73-.98-.8.42-.08-.14-.13-.55-.05-.6-.26-.06-.22.03-.43.09-.2.29-.31.2-.11.42-.07.22.03.32.58.1.54.13.12.04-.42.1-.26.07.16.17.14.1-.01.4.13.3.14.51.19.22.05.45.25.23.21.29.27.05.07.13.05.07-.02.37-.02.29 0 .45 0 .16 0 .32 0 .16 0 .33 0 .16 0 .32 0 .17 0 .33 0 .16 0 .33 0 .16 0 .33-.01.18 0 .36 0 .19-.01.37-.14.17-.14.45-.16.28-.02.45-.03.18 0 .36 0 .18 0 .34-.13.15-.14.33-.17.18-.03.4-.17.21-.14.59-.16.38-.02.5-.04.12-.01.45-.15.32-.13.58-.14.26-.01.56-.01.3 0 .5 0 .2 0 .53.01.33 0 .67 0 .34.01.73.04.39.04.74.17.35.14.81.17.46.03.8.16.34.14.68.16.34.02.84.15.51.13 1.09.14.59 0 1.13.04.54.03 1.05.21.51.17.82.29.31.12.77.15.46.03.77.16.32.12.59.12.27-.01.64 0 .36.01.9.04.53.03.99.17.47.13.82.15.36.02.84.15.48.13.96.13.47-.01 1.09-.01.62 0 1.11 0 .49 0 1 0 .51-.01 1.09-.03.59-.03 1.1-.16.51-.13 1.12-.16.61-.03 1.05-.18.45-.14.94-.29.5-.15.82-.17.32-.03.68-.16.35-.14.82-.17.47-.02.83-.16.37-.14.91-.17.54-.03 1.17-.16.63-.13 1.15-.13.53 0 1.02 0 .49 0 .99 0 .49 0 1.01 0 .51 0 1.13 0 .62 0 1.12 0 .49.01 1.01.05.52.03.85.17.33.14.66.17.33.02.64.17.31.14.52.17.2.04.59.25.38.22.58.41.2.2.36.35.16.15.31.3.15.14.2.21.05.06.1.04.05-.02.22-.02.17 0 .37 0 .2 0 .54.01.34 0 .73.04.39.04.72.18.33.13.66.17.34.04.74.25.4.22.6.4.2.17.54.42.34.24.56.64.21.4.38.74.16.34.33.71.17.38.34.85.16.47.3.88.15.4.16.91.01.5.03.76.02.26.15.59.14.33.16.66.03.33.16.68.14.34.14.77.01.42.01.91 0 .49-.01.99 0 .5-.03 1.03-.03.53-.16.98-.13.46-.13.77 0 .31-.01.81 0 .5-.04 1.05-.04.54-.2 1.06-.17.53-.3.97-.12.45-.16.95-.03.49-.2 1.02-.16.52-.29.97-.13.45-.16.95-.03.5-.19 1.04-.17.54-.3 1.13-.12.58-.15 1.1-.03.51-.16 1.13-.14.62-.17 1.12-.02.5-.15.98-.13.48-.13.93 0 .45 0 .97 0 .52.01 1.17 0 .64 0 1.26.01.62.03 1.11.02.48.16 1.14.13.66.13 1.31 0 .66.01 1.17.01.5.03 1.07.03.57.18 1.02.15.45.29.98.15.53.18 1 .04.46.19.83.14.38.43.78.29.41.34.96.05.54.2 1 .15.46.32 1 .16.54.3 1.23.15.69.17 1.31.03.61.16 1.14.13.52.13 1.19 0 .68 0 1.2-.01.53-.04 1.21-.02.68-.15 1.29-.13.62-.13 1.07 0 .45 0 .94 0 .49 0 .98 0 .49 0 .99 0 .49 0 1.01 0 .52 0 1.14 0 .63 0 1.15 0 .52-.01 1.15 0 .64-.03 1.19-.03.56-.17 1.21-.14.65-.17 1.31-.03.65-.21 1.32-.17.67-.32 1.18-.16.51-.29 1.09-.12.58-.15 1.1-.03.52-.16 1.15-.14.63-.17 1.17-.02.54-.16 1.33-.13.78-.16 1.44-.03.65-.17 1.3-.13.66-.16 1.3-.02.65-.15 1.27-.13.62-.13 1.11 0 .49-.01 1.14 0 .66-.03 1.35-.03.68-.16 1.32-.13.64-.13 1.23 0 .6 0 1.11 0 .52 0 1.15 0 .63 0 1.18 0 .55 0 1.34 0 .79.01 1.47 0 .67 0 1.45.01.78.03 1.39.03.62.16 1.26.14.65.17 1.25.03.61.18 1.07.15.46.29 1.02.15.57.18 1.22.04.66.19 1.28.16.62.32 1.28.16.66.3 1.34.14.68.16 1.3.03.62.16 1.15.13.53.14 1.22 0 .69 0 1.34 0 .65 0 1.27 0 .63 0 1.15 0 .51 0 1.14 0 .63 0 1.15 0 .52 0 1.18 0 .65-.01 1.31-.01.67-.03 1.37-.03.71-.16 1.48-.13.77-.13 1.37 0 .59 0 1.11 0 .52-.01 1.16 0 .63-.03 1.18-.03.56-.16 1.2-.13.63-.13 1.22.01.58.01 1.07 0 .49-.01.98 0 .49 0 .99 0 .49 0 .99-.01.51-.04 1.06-.03.56-.17 1.21-.13.66-.17 1.32-.03.66-.2 1.37-.17.7-.33 1.49-.16.78-.33 1.44-.16.66-.33 1.31-.16.66-.32 1.31-.16.65-.33 1.31-.16.65-.32 1.33-.16.67-.31 1.44-.16.78-.29 1.4-.12.62-.12 1.23 0 .62 0 1.27 0 .66 0 1.3.01.65.01 1.26.01.62.04 1.09.02.47.18 1.06.15.59.31 1.12.16.53.31 1.24.14.7.17 1.39.03.69.16 1.51.14.81.16 1.62.03.81.17 1.59.13.78.16 1.43.03.65.16 1.3.14.65.16 1.31.03.67.16 1.35.13.69.14 1.51 0 .82 0 1.5.01.68.03 1.47.03.79.16 1.6.13.82.13 1.63 0 .81 0 1.46 0 .65 0 1.31 0 .65 0 1.3 0 .65 0 1.31 0 .65 0 1.3 0 .65 0 1.3 0 .66 0 1.3 0 .65 0 1.28 0 .63 0 1.16 0 .52-.01 1.21 0 .68-.03 1.5-.03.81-.16 1.45-.13.65-.13 1.24.01.59.01 1.1 0 .52-.01 1.15 0 .63 0 1.16-.01.53-.04 1.21-.03.69-.16 1.34-.14.66-.17 1.31-.04.66-.2 1.34-.16.68-.29 1.3-.13.62-.16 1.27-.03.65-.16 1.31-.14.65-.16 1.29-.03.65-.16 1.27-.13.62-.13 1.11 0 .48 0 1.14 0 .65 0 1.3 0 .66 0 1.31 0 .66 0 1.34 0 .68 0 1.47 0 .79 0 1.47 0 .68 0 1.46 0 .78.01 1.43 0 .66 0 1.31 0 .65 0 1.31 0 .66 0 1.34.01.68.03 1.48.03.79.16 1.64.13.85.13 1.83 0 .97.01 1.81 0 .84.03 1.75.03.92.16 1.73.14.81.17 1.59.03.77.19 1.42.16.66.32 1.45.16.79.33 1.48.16.68.32 1.52.16.83.3 1.71.14.87.17 1.84.02.97.16 1.88.14.92.16 1.59.03.67.16 1.42.14.76.17 1.28.02.52.15 1.18.13.67.14 1.38 0 .72 0 1.51 0 .79 0 1.47 0 .69 0 1.5 0 .82 0 1.63 0 .81 0 1.59 0 .78 0 1.43 0 .66 0 1.31 0 .65 0 1.3 0 .66 0 1.31 0 .66 0 1.31 0 .66 0 1.35 0 .68 0 1.5 0 .81.01 1.62 0 .81.03 1.6.02.79.15 1.61.13.82.13 1.66.01.83.01 1.61.01.77.04 1.39.03.61.18 1.24.15.64.29 1.36.13.72.13 1.54.01.83.01 1.52-.01.69-.01 1.54-.01.84-.04 1.81-.02.97-.16 1.77-.14.8-.16 1.5-.03.71-.17 1.66-.14.95-.17 1.78-.03.83-.2 1.7-.17.87-.33 1.84-.16.98-.33 1.96-.17.99-.37 1.99-.19 1.01-.49 2.01-.3 1-.49 2.12-.18 1.11-.48 2.12-.29 1-.45 2.12-.16 1.12-.32 2.26-.16 1.14-.33 2.27-.16 1.14-.31 2.24-.16 1.1-.3 2.02-.13.92-.16 1.71-.02.8-.16 1.44-.13.64-.13 1.24 0 .6-.03 1.16-.03.55-.17 1.2-.13.64-.16 1.28-.03.63-.16 1.14-.13.51-.13 1.09.01.58.01 1.1 0 .51 0 1.13 0 .62 0 1.11 0 .5 0 .99 0 .5 0 1.02 0 .52 0 1.17 0 .65 0 1.3 0 .65 0 1.27 0 .62 0 1.13.01.51.03 1.1.03.58.16 1.11.13.53.13 1.22 0 .69 0 1.32 0 .62.01 1.13 0 .52 0 1.13.01.61.03 1.05.02.43.15.9.13.48.14.88 0 .4 0 .87 0 .47 0 .86 0 .38 0 1.01 0 .62 0 1.14 0 .52.01 1.16 0 .64.03 1.23.02.58.15 1.1.13.53.14 1.19.01.66.03 1.15.03.49.16 1.15.13.66.13 1.34 0 .68 0 1.3 0 .62 0 1.11 0 .5 0 1.02 0 .52-.01 1.15 0 .64-.03 1.19-.03.56-.17 1.21-.13.64-.16 1.28-.03.64-.17 1.19-.13.56-.16 1.36-.04.8-.2 1.62-.17.81-.33 1.47-.16.65-.29 1.26-.13.62-.16 1.26-.04.64-.2 1.19-.16.55-.29 1.17-.13.61-.16 1.28-.02.68-.16 1.46-.14.79-.16 1.47-.03.67-.17 1.42-.14.76-.18 1.28-.03.51-.22 1.05-.19.54-.42 1.07-.24.52-.62.91-.38.38-.76.73-.39.34-.9.68-.52.34-1.04.65-.52.32-1.02.49-.49.17-.88.32-.4.15-.85.18-.46.03-.77.18-.32.15-.81.32-.5.17-.94.32-.44.16-.77.34-.33.18-.84.5-.52.32-1.13.63-.62.3-.99.47-.38.18-.88.35-.5.16-.95.32-.44.16-.8.32-.36.16-.84.33-.49.16-.93.31-.44.15-1.11.18-.68.03-1.33.16-.65.14-1.31.17-.66.03-1.34.16-.68.14-1.44.17-.77.03-1.35.19-.58.15-1.1.31-.51.16-1.14.33-.62.16-1.11.32-.5.15-1.08.29-.57.14-1.28.15-.7 0-1.38 0-.69 0-1.5 0-.82 0-1.63 0-.82 0-1.63 0-.81 0-1.59 0-.78 0-1.43 0-.65 0-1.3 0-.65 0-1.26.01-.62 0-1.11.03-.49.02-1.16.15-.67.13-1.39.13-.72 0-1.54 0-.82-.01-1.66-.04-.84-.03-1.63-.16-.77-.14-1.45-.16-.67-.03-1.42-.16-.75-.13-1.25-.14-.49 0-1.17-.04-.67-.04-1.21-.22-.53-.17-1.02-.33-.5-.17-1.01-.33-.5-.16-1.14-.33-.63-.17-1.2-.36-.56-.2-1.31-.49-.75-.29-1.26-.46-.5-.16-1.16-.35-.67-.19-1.25-.44-.58-.26-1.05-.28-.47-.02-.99-.16-.51-.14-1.14-.17-.62-.03-1.14-.2-.51-.17-.81-.29-.29-.12-.69-.11-.4.01-.73.01-.33 0-.69 0-.35 0-.83.01-.48 0-.93.03-.44.03-.94.19-.49.16-1.15.35-.66.19-1.41.51-.75.32-1.36.65-.61.33-1.21.78-.61.45-1.11.77-.5.33-1 .65-.51.31-.88.46-.38.15-.63.44-.26.3-.73.35-.46.04-.73.06-.26.01-.61.15-.35.13-.77.12-.42 0-.85-.04-.43-.05-1.13-.28-.7-.23-1.24-.61-.53-.38-.9-.79-.36-.4-.7-.9-.34-.5-.64-.92-.3-.43-.58-.71-.28-.28-.48-.48-.2-.21-.53-.59-.33-.39-.52-.82-.19-.44-.35-1.02-.15-.57-.18-1.19-.03-.62-.19-1.1-.15-.48-.31-1.11-.17-.63-.33-1.15-.16-.53-.32-1.2-.17-.66-.31-1.35-.14-.68-.17-1.33-.02-.64-.16-1.26-.13-.62-.16-1.1-.03-.48-.16-.97-.14-.49-.16-.99-.03-.5-.16-1.03-.14-.53-.14-1.23 0-.69 0-1.35 0-.65 0-1.3 0-.64 0-1.27 0-.62 0-1.15 0-.52 0-1.16 0-.65 0-1.27 0-.63.01-1.13 0-.5.03-1.05.03-.55.16-1.17.13-.61.14-1.08 0-.47.03-1.02.03-.56.17-1.21.13-.64.17-1.28.03-.64.19-1.19.16-.55.29-1.16.12-.61.12-1.25-.01-.64-.01-1.43 0-.78 0-1.43 0-.65 0-1.3 0-.65 0-1.27 0-.62 0-1.13-.01-.52-.03-1.1-.02-.59-.15-1.12-.14-.54-.14-1.26 0-.72 0-1.51 0-.79 0-1.47 0-.68.01-1.47 0-.79.03-1.48.03-.69.16-1.36.13-.67.13-1.42-.01-.75-.01-1.4 0-.66 0-1.3 0-.65 0-1.26-.01-.61-.04-1.06-.03-.44-.18-.95-.16-.51-.33-1.26-.17-.74-.33-1.75-.17-1.01-.33-2.08-.16-1.07-.32-1.87-.16-.8-.32-1.57-.16-.77-.32-1.4-.16-.63-.3-1.22-.14-.59-.17-1.43-.03-.83-.16-1.68-.13-.85-.14-1.82 0-.97-.03-1.79-.02-.82-.16-1.78-.13-.96-.13-1.83 0-.87 0-1.83 0-.95 0-1.84 0-.88.01-2.02.01-1.14.03-2.27.03-1.14.17-2.15.14-1 .17-2.12.03-1.11.19-2.11.16-1 .29-1.96.14-.96.17-1.97.03-1 .19-2.13.16-1.13.3-2.09.13-.96.16-1.94.02-.98.16-1.95.14-.98.16-1.96.03-.98.17-1.96.13-.98.17-1.96.03-.99.2-1.99.17-1 .34-1.99.16-.98.36-1.98.19-1 .49-1.97.29-.97.46-1.9.16-.93.36-1.77.19-.84.48-1.63.28-.79.4-1.44.12-.66.12-1.59 0-.92 0-1.8 0-.88 0-2.01 0-1.13 0-2.21 0-1.08 0-1.93 0-.84 0-1.79 0-.94 0-1.77 0-.82.01-1.68 0-.86.04-1.89.03-1.03.19-2.16.16-1.13.28-2.1.13-.97.12-2.02-.01-1.05-.04-1.82-.04-.78-.22-1.54-.18-.76-.5-1.56-.31-.8-.61-1.65-.31-.85-.48-1.72-.18-.88-.37-1.84-.19-.95-.51-1.91-.32-.96-.65-1.94-.32-.98-.64-1.97-.33-.98-.63-1.99-.3-1.02-.47-2.06-.16-1.05-.33-2.23-.16-1.18-.32-2.49-.17-1.31-.33-2.64-.16-1.32-.32-2.72-.16-1.4-.29-2.53-.13-1.13-.14-2.13 0-1-.03-1.99-.02-1-.15-2.15-.12-1.15-.09-2.33.04-1.19.2-2.34.17-1.16.33-2.27.16-1.11.32-2.08.15-.97.28-1.89.13-.92.13-1.72 0-.8.01-1.66 0-.85.03-1.85.03-1 .17-1.98.13-.98.16-1.96.04-.98.2-1.95.16-.98.29-1.8.14-.83.17-1.81.03-.99.21-2.02.17-1.03.36-2.15.19-1.13.49-2.1.29-.98.44-1.9.16-.92.29-1.68.14-.77.17-1.46.03-.68.2-1.5.17-.82.33-1.48.16-.67.32-1.36.15-.69.28-1.57.12-.88.12-1.53 0-.66 0-1.44 0-.78 0-1.44 0-.65-.01-1.3 0-.65-.03-1.31-.02-.66-.16-1.47-.14-.82-.17-1.63-.04-.8-.2-1.58-.16-.77-.35-1.52-.19-.74-.52-1.37-.33-.64-.79-1.43-.46-.8-.79-1.5-.33-.71-.64-1.53-.3-.81-.47-1.49-.16-.68-.3-1.36-.15-.68-.17-1.3-.03-.62-.16-1.16-.13-.53-.13-1.25 0-.72 0-1.51 0-.79 0-1.47 0-.68 0-1.46 0-.78 0-1.44 0-.65 0-1.3 0-.66.01-1.31 0-.66.04-1.33.04-.68.21-1.23.17-.55.32-1.17.16-.62.29-1.11.13-.49.16-1.14.03-.66.2-1.36.17-.7.32-1.48.16-.78.28-1.39.13-.61.13-1.21.01-.6.04-1.15.02-.56.15-1.17.13-.62.13-1.11 0-.48 0-1.13 0-.66 0-1.31 0-.65.01-1.29 0-.64.03-1.22.03-.58.16-1.38.13-.8.13-1.55-.01-.76-.01-1.4-.01-.65-.03-1.26-.02-.61-.16-1.24-.13-.64-.13-1.19 0-.56-.01-1.19-.01-.64-.03-1.21-.03-.57-.18-1.02-.15-.45-.29-.98-.15-.54-.17-1.03-.03-.49-.17-.98-.13-.5-.16-1.02-.03-.53-.17-1.15-.13-.62-.16-1.1-.02-.49-.15-1-.14-.51-.14-1.09 0-.59 0-1.34 0-.75 0-1.24 0-.49 0-.98 0-.49.01-.98 0-.5.04-1.02.03-.52.16-.84.13-.32.12-.61 0-.29 0-.75 0-.46 0-.8.01-.35.04-.75.03-.4.16-.87.13-.47.12-.89 0-.42 0-.78 0-.36.01-.87.01-.5.04-1.06.04-.56.21-1.23.18-.66.34-1.16.17-.5.33-1.01.15-.5.31-1.12.15-.61.28-1.08.12-.47.11-1.03 0-.56 0-.95 0-.39 0-1.06 0-.66 0-1.37 0-.71 0-1.63 0-.93-.01-2.28 0-1.36-.03-2.29-.02-.92-.15-1.74-.13-.83-.13-1.71 0-.87 0-1.85 0-.98 0-1.95 0-.97-.01-1.91 0-.94 0-1.73-.01-.79-.03-1.47-.03-.69-.17-1.63-.13-.94-.16-1.7-.03-.77-.19-1.4-.15-.62-.29-1.31-.14-.69-.17-1.37-.04-.69-.19-1.45-.15-.76-.3-1.48-.14-.71-.17-1.52-.03-.81-.18-1.59-.16-.78-.3-1.56-.14-.77-.16-1.25-.03-.47-.16-.97-.14-.5-.17-1.03-.02-.53-.16-1.2-.13-.66-.13-1.34 0-.69 0-1.34 0-.65 0-1.3 0-.65 0-1.27 0-.63 0-1.15 0-.51.01-1.15 0-.63.03-1.18.03-.55.16-1.16.13-.61.13-1.07 0-.45 0-.94 0-.49 0-.98 0-.49 0-.99 0-.49 0-1.02 0-.52 0-1.18 0-.66 0-1.34.01-.69.04-1.51.03-.81.17-1.46.13-.65.17-1.29.03-.63.2-1.16.17-.53.31-.96.13-.44.21-.84.07-.4.39-.93.31-.52.51-1.02.21-.49.58-1.01.38-.52.78-.88.4-.37.91-.69.51-.32.92-.48.42-.16.79-.19.37-.03.85-.16.47-.13.87-.14.4 0 .86 0 .46 0 .78 0 .33 0 .66 0 .32 0 .65 0 .33 0 .66.01.34.01.74.05.4.05.58.17.18.13.4.11.23-.01.55-.01.33 0 .66 0 .32 0 .65 0 .33-.01.68-.01.34-.01.73-.02.4-.02.74-.15.34-.14.76-.14.41-.01.86-.02.45 0 .76-.02.3-.02.76-.16.45-.14.76-.16.31-.02.64-.15.34-.14.7-.15.36 0 .54-.01.18-.01.42-.02.24-.02.45-.14.2-.12.41-.29.2-.17.57-.37.37-.2.82-.49.45-.3.74-.45.3-.15.54-.32.25-.17.55-.2.29-.03.46-.19.16-.15.7-.48.54-.33 1.04-.51.5-.19 1.06-.47.55-.28 1.15-.29.6-.01 1.23-.01.63 0 1.15 0 .53 0 1.19.01.66 0 1.37.04.71.04 1.51.21.8.17 1.31.35.52.18 1.04.38.52.21.99.51.47.3.78.45.31.15.63.3.33.14.73.26.41.12.76.15.36.02.83.15.47.13.9.14.42 0 .81.03.39.04.7.17.31.12.54.12.23-.01.42-.01.19 0 .52.01.33.01.68.15.34.15.42.4.09.26.23.45.15.19.17.46.02.27.02.4 0 4.41 0 4.41h0z"/></svg>