<svg xmlns="http://www.w3.org/2000/svg" viewBox="8.31 8.31 145.11 527.39"><path fill="#000" d="M 84.53 12.16 L 84.53 12.16 L 80.31 12.17 L 80.38 12.18 L 80.45 12.20 L 80.51 12.22 L 80.57 12.25 L 80.63 12.28 L 80.69 12.33 L 80.74 12.37 L 80.78 12.42 L 80.83 12.48 L 80.86 12.54 L 80.89 12.60 L 80.91 12.66 L 80.93 12.73 L 80.94 12.80 L 80.95 21.43 L 80.94 12.92 L 80.93 12.99 L 80.91 13.06 L 80.89 13.12 L 80.86 13.18 L 80.83 13.24 L 80.78 13.30 L 80.74 13.35 L 80.69 13.39 L 80.63 13.44 L 80.57 13.47 L 80.51 13.50 L 80.45 13.52 L 80.38 13.54 L 80.31 13.55 L 75.97 13.56 L 79.97 13.53 L 79.69 13.51 L 79.47 13.34 L 79.25 13.17 L 79.15 13.16 L 79.06 13.16 L 78.89 13.15 L 78.71 13.15 L 78.35 13.15 L 77.99 13.15 L 77.68 13.14 L 77.37 13.13 L 76.99 12.97 L 76.60 12.81 L 76.11 12.79 L 75.61 12.76 L 75.18 12.76 L 74.75 12.75 L 74.18 12.75 L 73.60 12.75 L 72.79 12.75 L 71.98 12.74 L 71.32 12.58 L 70.67 12.41 L 69.93 12.38 L 69.19 12.36 L 68.55 12.35 L 67.91 12.34 L 67.10 12.34 L 66.28 12.34 L 65.47 12.17 L 64.65 12.01 L 63.70 11.98 L 62.76 11.95 L 61.59 11.94 L 60.42 11.93 L 59.37 11.93 L 58.32 11.93 L 57.29 11.93 L 56.26 11.93 L 55.57 11.93 L 54.87 11.93 L 54.08 11.93 L 53.29 11.93 L 52.52 11.93 L 51.75 11.93 L 51.15 12.08 L 50.55 12.23 L 49.96 12.42 L 49.37 12.60 L 48.88 12.82 L 48.39 13.02 L 47.97 13.06 L 47.55 13.11 L 47.18 13.26 L 46.81 13.42 L 46.18 13.64 L 45.55 13.85 L 44.90 13.90 L 44.24 13.94 L 43.78 13.95 L 43.32 13.96 L 42.90 13.96 L 42.48 13.96 L 42.07 13.96 L 41.66 13.96 L 41.25 13.96 L 40.84 13.96 L 40.43 13.96 L 40.02 13.96 L 39.45 13.96 L 38.88 13.96 L 38.37 13.96 L 37.87 13.95 L 37.43 13.78 L 36.99 13.61 L 36.74 13.58 L 36.48 13.54 L 36.12 13.38 L 35.75 13.21 L 35.32 13.17 L 34.88 13.12 L 34.64 12.95 L 34.39 12.79 L 34.05 12.77 L 33.71 12.74 L 33.31 12.57 L 32.91 12.40 L 32.57 12.38 L 32.23 12.36 L 31.92 12.34 L 31.62 12.33 L 31.24 12.16 L 30.85 11.99 L 30.45 11.96 L 30.05 11.93 L 29.65 11.76 L 29.24 11.59 L 28.90 11.56 L 28.55 11.54 L 28.16 11.53 L 27.76 11.53 L 27.36 11.52 L 26.95 11.52 L 26.38 11.52 L 25.81 11.52 L 25.37 11.52 L 24.93 11.52 L 24.41 11.52 L 23.90 11.51 L 23.47 11.67 L 23.04 11.83 L 22.68 11.85 L 22.32 11.86 L 21.96 12.17 L 21.59 12.48 L 21.02 12.71 L 20.45 12.93 L 20.03 13.29 L 19.61 13.65 L 19.20 13.88 L 18.79 14.12 L 18.35 14.51 L 17.91 14.91 L 17.70 14.96 L 17.50 15.01 L 17.35 15.28 L 17.21 15.55 L 17.02 15.76 L 16.83 15.96 L 16.64 16.47 L 16.45 16.98 L 16.09 17.58 L 15.72 18.18 L 15.50 18.75 L 15.27 19.33 L 15.06 19.95 L 14.84 20.57 L 14.63 21.04 L 14.42 21.51 L 14.21 21.93 L 14.00 22.35 L 13.80 22.76 L 13.59 23.17 L 13.39 23.58 L 13.18 23.99 L 12.98 24.40 L 12.78 24.81 L 12.59 25.16 L 12.41 25.51 L 12.38 25.90 L 12.34 26.30 L 12.17 26.71 L 12.00 27.11 L 11.96 27.52 L 11.93 27.93 L 11.74 28.38 L 11.56 28.83 L 11.38 29.35 L 11.20 29.87 L 11.16 30.26 L 11.13 30.64 L 11.13 31.20 L 11.12 31.77 L 11.12 32.21 L 11.11 32.65 L 11.11 33.06 L 11.11 33.48 L 11.11 34.05 L 11.11 34.62 L 11.11 35.23 L 11.11 35.83 L 11.11 36.23 L 11.11 36.63 L 11.27 37.20 L 11.43 37.77 L 11.46 38.21 L 11.49 38.65 L 11.66 39.23 L 11.83 39.80 L 11.87 40.25 L 11.90 40.69 L 12.06 41.23 L 12.22 41.77 L 12.43 42.40 L 12.63 43.04 L 12.68 43.50 L 12.72 43.95 L 12.89 44.53 L 13.06 45.12 L 13.09 45.73 L 13.13 46.34 L 13.30 46.95 L 13.47 47.56 L 13.51 48.39 L 13.55 49.21 L 13.55 49.80 L 13.55 50.39 L 13.71 50.84 L 13.88 51.29 L 13.92 51.93 L 13.96 52.57 L 13.96 53.18 L 13.97 53.80 L 13.97 54.58 L 13.97 55.35 L 13.97 56.00 L 13.97 56.64 L 13.97 57.43 L 13.97 58.21 L 13.97 58.99 L 13.97 59.77 L 14.13 60.72 L 14.29 61.66 L 14.48 62.66 L 14.68 63.66 L 14.88 64.54 L 15.09 65.42 L 15.13 66.25 L 15.17 67.08 L 15.34 67.86 L 15.50 68.64 L 15.70 69.31 L 15.90 69.99 L 15.95 70.66 L 15.99 71.33 L 16.00 71.62 L 16.01 71.92 L 16.01 72.48 L 16.01 73.03 L 16.01 73.46 L 16.01 73.90 L 16.01 74.54 L 16.00 75.18 L 15.84 75.63 L 15.67 76.08 L 15.65 76.60 L 15.62 77.12 L 15.61 77.60 L 15.60 78.08 L 15.44 78.67 L 15.27 79.26 L 15.24 79.86 L 15.21 80.46 L 15.03 81.12 L 14.85 81.77 L 14.66 82.35 L 14.47 82.93 L 14.43 83.54 L 14.39 84.14 L 14.21 84.80 L 14.03 85.45 L 13.83 86.07 L 13.63 86.69 L 13.44 87.27 L 13.24 87.84 L 13.20 88.29 L 13.16 88.73 L 12.98 89.35 L 12.80 89.97 L 12.60 90.58 L 12.40 91.19 L 12.20 91.80 L 12.00 92.41 L 11.80 92.98 L 11.61 93.55 L 11.58 94.11 L 11.54 94.67 L 11.53 95.32 L 11.52 95.96 L 11.35 96.58 L 11.19 97.20 L 11.16 97.93 L 11.13 98.66 L 11.12 99.30 L 11.12 99.94 L 11.11 100.76 L 11.11 101.57 L 10.95 102.39 L 10.78 103.20 L 10.75 103.99 L 10.72 104.77 L 10.72 105.42 L 10.71 106.06 L 10.70 106.80 L 10.70 107.54 L 10.86 108.18 L 11.02 108.82 L 11.06 109.64 L 11.10 110.47 L 11.10 111.45 L 11.11 112.43 L 11.11 113.28 L 11.11 114.13 L 11.11 114.95 L 11.11 115.78 L 11.11 116.72 L 11.11 117.67 L 11.27 118.48 L 11.42 119.29 L 11.63 120.14 L 11.83 120.99 L 11.87 121.81 L 11.91 122.63 L 12.08 123.45 L 12.25 124.27 L 12.28 125.25 L 12.32 126.24 L 12.49 127.08 L 12.66 127.93 L 12.69 128.79 L 12.73 129.65 L 12.74 130.63 L 12.74 131.62 L 12.75 132.47 L 12.75 133.32 L 12.75 134.28 L 12.75 135.24 L 12.91 136.25 L 13.07 137.26 L 13.11 138.31 L 13.14 139.35 L 13.14 140.18 L 13.15 141.01 L 13.31 141.83 L 13.48 142.65 L 13.51 143.47 L 13.54 144.28 L 13.71 145.10 L 13.88 145.92 L 13.92 146.90 L 13.95 147.88 L 14.12 148.73 L 14.29 149.58 L 14.33 150.60 L 14.36 151.62 L 14.37 152.48 L 14.38 153.33 L 14.38 154.16 L 14.38 154.98 L 14.38 155.80 L 14.38 156.62 L 14.38 157.24 L 14.38 157.87 L 14.54 158.81 L 14.70 159.75 L 14.74 160.42 L 14.77 161.09 L 14.93 161.86 L 15.10 162.62 L 15.30 163.62 L 15.50 164.63 L 15.54 165.51 L 15.59 166.39 L 15.59 167.36 L 15.60 168.33 L 15.77 169.50 L 15.93 170.67 L 15.96 171.59 L 16.00 172.50 L 16.00 173.50 L 16.01 174.50 L 16.01 175.35 L 16.01 176.21 L 16.01 177.03 L 16.01 177.86 L 16.01 178.71 L 16.01 179.56 L 15.85 180.39 L 15.68 181.21 L 15.65 181.83 L 15.62 182.45 L 15.62 183.23 L 15.61 184.01 L 15.61 184.69 L 15.60 185.37 L 15.44 186.16 L 15.27 186.95 L 15.24 187.72 L 15.21 188.50 L 15.21 189.34 L 15.20 190.19 L 15.03 191.01 L 14.87 191.83 L 14.83 192.66 L 14.80 193.48 L 14.63 194.14 L 14.46 194.80 L 14.42 195.41 L 14.39 196.02 L 14.21 196.84 L 14.04 197.66 L 13.83 198.32 L 13.63 198.99 L 13.41 199.65 L 13.19 200.30 L 12.81 200.94 L 12.43 201.58 L 12.21 202.00 L 11.99 202.42 L 11.80 202.94 L 11.61 203.45 L 11.57 204.04 L 11.53 204.63 L 11.36 205.24 L 11.19 205.85 L 11.16 206.58 L 11.13 207.31 L 11.12 207.94 L 11.12 208.58 L 11.11 209.24 L 11.11 209.89 L 10.95 210.68 L 10.78 211.46 L 10.75 212.07 L 10.72 212.68 L 10.71 213.46 L 10.71 214.23 L 10.71 214.88 L 10.71 215.52 L 10.70 216.26 L 10.70 217.00 L 10.86 217.60 L 11.01 218.21 L 11.21 219.03 L 11.42 219.84 L 11.46 220.66 L 11.50 221.48 L 11.67 222.29 L 11.84 223.11 L 11.87 223.89 L 11.90 224.68 L 12.22 225.46 L 12.54 226.24 L 12.78 227.08 L 13.02 227.91 L 13.23 228.74 L 13.44 229.56 L 13.64 230.38 L 13.85 231.19 L 14.05 232.01 L 14.26 232.83 L 14.47 233.68 L 14.68 234.53 L 14.72 235.36 L 14.76 236.19 L 14.94 237.17 L 15.11 238.15 L 15.14 239.03 L 15.18 239.91 L 15.19 241.07 L 15.19 242.22 L 15.20 243.27 L 15.20 244.32 L 15.20 245.18 L 15.20 246.04 L 15.20 246.67 L 15.19 247.30 L 15.36 248.08 L 15.52 248.86 L 15.55 249.70 L 15.59 250.55 L 15.60 251.37 L 15.60 252.19 L 15.60 252.97 L 15.60 253.74 L 15.76 254.39 L 15.93 255.03 L 15.96 255.83 L 15.99 256.63 L 16.16 257.60 L 16.33 258.58 L 16.37 259.45 L 16.41 260.33 L 16.41 261.16 L 16.42 261.99 L 16.42 262.97 L 16.42 263.96 L 16.42 264.64 L 16.42 265.33 L 16.42 266.12 L 16.42 266.91 L 16.42 267.72 L 16.42 268.53 L 16.42 269.22 L 16.42 269.91 L 16.26 270.70 L 16.09 271.49 L 16.06 272.30 L 16.03 273.11 L 15.86 273.93 L 15.69 274.74 L 15.65 275.53 L 15.62 276.31 L 15.61 277.15 L 15.61 278.00 L 15.44 278.82 L 15.28 279.64 L 15.24 280.47 L 15.21 281.30 L 15.04 281.95 L 14.87 282.60 L 14.83 283.39 L 14.80 284.17 L 14.62 284.85 L 14.44 285.54 L 14.24 286.33 L 14.05 287.12 L 13.84 287.77 L 13.64 288.41 L 13.44 289.15 L 13.25 289.89 L 13.21 290.69 L 13.17 291.50 L 12.99 292.34 L 12.82 293.19 L 12.62 293.98 L 12.43 294.77 L 12.39 295.43 L 12.35 296.09 L 12.18 296.71 L 12.01 297.33 L 11.97 297.95 L 11.94 298.56 L 11.77 299.17 L 11.60 299.79 L 11.57 300.35 L 11.54 300.92 L 11.53 301.69 L 11.53 302.45 L 11.52 303.10 L 11.52 303.74 L 11.52 304.32 L 11.52 304.89 L 11.68 305.49 L 11.84 306.10 L 11.88 306.76 L 11.91 307.41 L 11.92 308.16 L 11.92 308.91 L 12.09 309.71 L 12.25 310.52 L 12.28 311.17 L 12.32 311.81 L 12.49 312.60 L 12.66 313.38 L 12.69 314.03 L 12.72 314.68 L 12.89 315.46 L 13.07 316.24 L 13.10 317.09 L 13.14 317.94 L 13.14 318.72 L 13.15 319.50 L 13.30 320.10 L 13.46 320.70 L 13.65 321.31 L 13.84 321.92 L 14.05 322.54 L 14.25 323.16 L 14.46 323.94 L 14.66 324.72 L 14.86 325.37 L 15.07 326.01 L 15.28 326.80 L 15.48 327.60 L 15.69 328.41 L 15.89 329.22 L 16.10 330.04 L 16.30 330.85 L 16.50 331.67 L 16.71 332.48 L 16.92 333.33 L 17.13 334.18 L 17.17 334.83 L 17.21 335.48 L 17.38 336.10 L 17.55 336.72 L 17.59 337.35 L 17.63 337.97 L 17.80 338.75 L 17.97 339.52 L 18.00 340.16 L 18.03 340.80 L 18.20 341.42 L 18.37 342.04 L 18.41 342.86 L 18.45 343.68 L 18.45 344.53 L 18.46 345.39 L 18.30 346.21 L 18.13 347.03 L 18.10 347.85 L 18.07 348.67 L 17.89 349.52 L 17.72 350.37 L 17.51 351.22 L 17.30 352.08 L 16.93 352.91 L 16.56 353.75 L 16.32 354.40 L 16.08 355.06 L 15.71 355.84 L 15.34 356.61 L 15.11 357.39 L 14.88 358.17 L 14.67 358.98 L 14.46 359.78 L 14.25 360.63 L 14.04 361.47 L 13.67 362.30 L 13.30 363.12 L 13.08 363.88 L 12.86 364.63 L 12.81 365.44 L 12.76 366.26 L 12.58 366.95 L 12.40 367.65 L 12.21 368.23 L 12.02 368.82 L 11.98 369.59 L 11.94 370.36 L 11.77 371.00 L 11.60 371.65 L 11.57 372.23 L 11.54 372.80 L 11.53 373.45 L 11.52 374.10 L 11.35 374.72 L 11.19 375.34 L 11.16 375.91 L 11.13 376.48 L 11.12 377.08 L 11.12 377.69 L 11.12 378.30 L 11.11 378.91 L 11.11 379.69 L 11.11 380.46 L 11.11 381.11 L 11.11 381.75 L 11.11 382.57 L 11.11 383.39 L 10.95 384.20 L 10.78 385.02 L 10.75 385.80 L 10.72 386.58 L 10.72 387.39 L 10.71 388.20 L 10.71 389.02 L 10.71 389.84 L 10.71 390.65 L 10.71 391.47 L 10.71 392.29 L 10.71 393.10 L 10.70 393.72 L 10.70 394.34 L 10.86 395.11 L 11.03 395.89 L 11.06 396.71 L 11.09 397.52 L 11.26 398.47 L 11.42 399.42 L 11.62 400.25 L 11.81 401.09 L 12.01 401.91 L 12.22 402.73 L 12.41 403.52 L 12.61 404.31 L 12.96 405.09 L 13.31 405.87 L 13.72 406.70 L 14.12 407.53 L 14.38 408.21 L 14.63 408.90 L 14.85 409.70 L 15.07 410.50 L 15.28 411.32 L 15.48 412.13 L 15.69 412.95 L 15.89 413.76 L 16.10 414.58 L 16.30 415.40 L 16.51 416.25 L 16.72 417.10 L 16.76 418.09 L 16.81 419.08 L 16.97 419.89 L 17.14 420.71 L 17.34 421.56 L 17.54 422.41 L 17.59 423.26 L 17.63 424.12 L 17.64 424.78 L 17.64 425.44 L 17.65 426.39 L 17.65 427.34 L 17.65 428.22 L 17.65 429.10 L 17.48 429.96 L 17.31 430.81 L 17.11 431.79 L 16.92 432.77 L 16.72 433.76 L 16.52 434.75 L 16.48 435.76 L 16.44 436.77 L 16.27 437.95 L 16.10 439.13 L 16.06 440.19 L 16.03 441.25 L 15.85 442.31 L 15.68 443.37 L 15.48 444.24 L 15.28 445.11 L 15.07 445.94 L 14.87 446.77 L 14.67 447.56 L 14.48 448.34 L 14.44 449.15 L 14.40 449.96 L 14.22 450.81 L 14.04 451.66 L 13.84 452.48 L 13.64 453.31 L 13.44 454.13 L 13.24 454.94 L 13.03 455.76 L 12.83 456.58 L 12.62 457.39 L 12.42 458.21 L 12.22 459.02 L 12.02 459.82 L 11.82 460.93 L 11.62 462.04 L 11.58 462.73 L 11.54 463.42 L 11.53 464.25 L 11.52 465.07 L 11.35 465.92 L 11.18 466.77 L 10.99 467.56 L 10.80 468.35 L 10.76 469.13 L 10.72 469.91 L 10.72 470.88 L 10.71 471.85 L 10.71 472.70 L 10.71 473.55 L 10.71 474.37 L 10.71 475.19 L 10.71 476.01 L 10.71 476.83 L 10.71 477.65 L 10.71 478.46 L 10.70 479.25 L 10.70 480.03 L 10.86 480.79 L 11.01 481.56 L 11.20 482.19 L 11.39 482.83 L 11.59 483.44 L 11.79 484.06 L 11.98 484.64 L 12.17 485.22 L 12.50 485.77 L 12.84 486.32 L 13.21 486.74 L 13.58 487.16 L 14.03 487.62 L 14.47 488.08 L 14.72 488.66 L 14.97 489.24 L 15.35 489.69 L 15.72 490.13 L 15.98 490.73 L 16.23 491.33 L 16.61 491.95 L 16.99 492.57 L 17.25 493.43 L 17.52 494.28 L 17.57 494.94 L 17.62 495.60 L 17.79 496.39 L 17.96 497.18 L 18.00 498.02 L 18.04 498.87 L 18.05 499.69 L 18.05 500.52 L 18.05 501.37 L 18.05 502.22 L 17.89 503.05 L 17.72 503.87 L 17.69 504.53 L 17.66 505.18 L 17.49 505.97 L 17.32 506.75 L 17.28 507.41 L 17.25 508.07 L 17.08 508.69 L 16.91 509.31 L 16.87 509.92 L 16.84 510.54 L 16.65 511.21 L 16.47 511.88 L 16.28 512.30 L 16.09 512.71 L 16.06 513.29 L 16.02 513.86 L 15.85 514.30 L 15.68 514.74 L 15.64 515.32 L 15.61 515.90 L 15.44 516.34 L 15.27 516.78 L 15.24 517.30 L 15.21 517.82 L 15.21 518.25 L 15.20 518.68 L 15.20 519.26 L 15.20 519.83 L 15.20 520.28 L 15.20 520.72 L 15.20 521.30 L 15.20 521.88 L 15.20 522.48 L 15.20 523.09 L 15.20 523.54 L 15.20 523.98 L 15.18 524.28 L 15.16 524.58 L 15.42 524.88 L 15.68 525.18 L 15.90 525.41 L 16.11 525.64 L 16.32 525.85 L 16.52 526.06 L 16.89 526.43 L 17.26 526.80 L 17.46 527.00 L 17.66 527.21 L 17.99 527.39 L 18.32 527.57 L 18.71 527.77 L 19.11 527.97 L 19.49 528.17 L 19.88 528.36 L 20.42 528.55 L 20.96 528.75 L 21.67 528.94 L 22.39 529.13 L 23.15 529.17 L 23.92 529.21 L 24.72 529.21 L 25.53 529.22 L 26.15 529.22 L 26.76 529.23 L 27.54 529.07 L 28.32 528.90 L 29.12 528.87 L 29.92 528.84 L 30.54 528.68 L 31.15 528.52 L 31.97 528.31 L 32.78 528.11 L 33.30 528.06 L 33.83 528.02 L 34.26 528.01 L 34.70 528.00 L 35.28 528.00 L 35.86 528.00 L 36.30 528.00 L 36.74 528.00 L 37.32 528.00 L 37.90 528.00 L 38.64 528.00 L 39.38 528.00 L 40.32 527.84 L 41.25 527.68 L 42.26 527.49 L 43.26 527.29 L 44.28 527.09 L 45.30 526.89 L 46.35 526.68 L 47.40 526.47 L 48.42 526.43 L 49.44 526.39 L 50.30 526.22 L 51.15 526.05 L 52.01 526.01 L 52.87 525.98 L 53.73 525.97 L 54.59 525.96 L 55.44 526.13 L 56.29 526.30 L 57.27 526.49 L 58.25 526.69 L 59.39 526.89 L 60.54 527.09 L 61.76 527.13 L 62.98 527.17 L 63.91 527.34 L 64.84 527.52 L 65.78 527.76 L 66.71 528.00 L 67.28 528.59 L 67.85 529.18 L 68.25 529.59 L 68.65 529.99 L 69.22 530.40 L 69.79 530.81 L 70.20 531.20 L 70.61 531.58 L 71.13 531.80 L 71.64 532.01 L 72.22 532.21 L 72.81 532.42 L 73.58 532.62 L 74.35 532.83 L 74.95 533.02 L 75.56 533.22 L 76.46 533.25 L 77.35 533.29 L 78.15 533.30 L 78.95 533.31 L 79.73 533.15 L 80.50 533.00 L 81.30 532.81 L 82.10 532.62 L 82.74 532.42 L 83.38 532.22 L 83.96 532.03 L 84.55 531.84 L 85.15 531.48 L 85.76 531.11 L 86.45 530.85 L 87.14 530.59 L 87.76 530.54 L 88.39 530.49 L 89.01 530.31 L 89.63 530.14 L 90.28 530.10 L 90.94 530.06 L 91.56 530.05 L 92.19 530.05 L 92.93 530.05 L 93.67 530.05 L 94.47 529.88 L 95.27 529.72 L 95.96 529.69 L 96.64 529.65 L 97.39 529.65 L 98.14 529.64 L 98.75 529.49 L 99.35 529.33 L 100.11 529.14 L 100.86 528.95 L 101.62 528.61 L 102.38 528.26 L 103.04 527.86 L 103.70 527.46 L 104.36 527.20 L 105.02 526.94 L 105.68 526.71 L 106.34 526.49 L 106.84 526.44 L 107.34 526.39 L 107.78 526.38 L 108.21 526.37 L 108.79 526.37 L 109.36 526.37 L 109.97 526.37 L 110.57 526.37 L 111.19 526.37 L 111.80 526.37 L 112.29 526.37 L 112.79 526.37 L 113.42 526.55 L 114.06 526.72 L 114.67 526.92 L 115.28 527.12 L 115.90 527.32 L 116.51 527.53 L 117.08 527.72 L 117.65 527.91 L 118.25 527.95 L 118.86 527.99 L 119.47 528.16 L 120.08 528.33 L 120.65 528.36 L 121.21 528.39 L 121.82 528.40 L 122.42 528.40 L 123.03 528.41 L 123.64 528.41 L 124.19 528.41 L 124.74 528.42 L 125.18 528.26 L 125.62 528.10 L 126.26 528.06 L 126.90 528.02 L 127.48 528.01 L 128.06 528.01 L 128.80 527.85 L 129.53 527.69 L 130.34 527.49 L 131.15 527.30 L 132.12 527.10 L 133.09 526.90 L 133.80 526.69 L 134.51 526.48 L 135.14 526.44 L 135.77 526.40 L 136.38 526.23 L 137.00 526.05 L 137.43 526.02 L 137.86 525.99 L 138.17 525.87 L 138.48 525.74 L 138.87 525.39 L 139.26 525.04 L 139.67 524.81 L 140.08 524.57 L 140.33 524.36 L 140.58 524.15 L 140.95 523.94 L 141.32 523.74 L 141.66 523.44 L 141.99 523.13 L 142.26 522.71 L 142.52 522.29 L 142.86 522.09 L 143.19 521.89 L 143.22 521.61 L 143.26 521.32 L 143.44 520.90 L 143.63 520.47 L 143.82 519.92 L 144.01 519.36 L 144.21 518.81 L 144.40 518.25 L 144.43 517.53 L 144.47 516.81 L 144.47 516.01 L 144.48 515.21 L 144.48 514.40 L 144.48 513.59 L 144.49 512.80 L 144.49 512.00 L 144.32 510.87 L 144.16 509.73 L 144.13 508.69 L 144.10 507.64 L 143.93 506.65 L 143.77 505.66 L 143.57 504.79 L 143.37 503.91 L 143.32 503.38 L 143.28 502.84 L 143.27 502.40 L 143.26 501.96 L 143.26 501.55 L 143.26 501.13 L 143.26 500.89 L 143.26 500.64 L 143.26 500.43 L 143.26 500.22 L 143.26 500.01 L 143.26 499.80 L 143.26 499.60 L 143.26 499.40 L 143.26 499.19 L 143.26 498.99 L 143.26 498.78 L 143.26 498.58 L 143.26 498.21 L 143.26 497.84 L 143.26 497.44 L 143.26 497.04 L 143.27 496.57 L 143.27 496.10 L 143.44 495.67 L 143.61 495.25 L 143.65 494.81 L 143.69 494.36 L 143.89 494.05 L 144.09 493.74 L 144.26 493.44 L 144.42 493.13 L 144.46 492.90 L 144.50 492.67 L 144.71 492.21 L 144.92 491.76 L 145.18 491.44 L 145.45 491.12 L 145.80 490.92 L 146.15 490.72 L 146.33 490.43 L 146.50 490.14 L 146.73 489.71 L 146.96 489.29 L 147.33 488.88 L 147.70 488.46 L 147.94 488.06 L 148.17 487.66 L 148.38 487.41 L 148.59 487.17 L 148.77 486.83 L 148.96 486.49 L 149.14 486.14 L 149.32 485.80 L 149.34 485.63 L 149.37 485.46 L 149.38 485.12 L 149.38 484.77 L 149.38 484.37 L 149.39 483.97 L 149.39 483.63 L 149.40 483.29 L 149.24 482.90 L 149.08 482.50 L 149.05 482.10 L 149.01 481.69 L 148.84 481.28 L 148.67 480.88 L 148.65 480.50 L 148.63 480.13 L 148.51 479.99 L 148.40 479.84 L 148.16 479.57 L 147.93 479.29 L 147.87 479.04 L 147.81 478.78 L 147.63 478.41 L 147.46 478.03 L 147.42 477.79 L 147.39 477.55 L 147.22 477.18 L 147.05 476.80 L 147.03 476.61 L 147.01 476.41 L 146.87 476.25 L 146.73 476.10 L 146.49 475.65 L 146.25 475.20 L 146.23 474.99 L 146.20 474.79 L 146.09 474.66 L 145.97 474.54 L 145.79 474.35 L 145.60 474.15 L 145.34 473.87 L 145.08 473.58 L 145.03 473.37 L 144.98 473.15 L 144.81 472.94 L 144.64 472.73 L 144.58 472.48 L 144.53 472.24 L 144.40 471.95 L 144.27 471.67 L 144.08 471.44 L 143.89 471.21 L 143.64 470.75 L 143.39 470.28 L 143.35 469.86 L 143.30 469.44 L 143.17 469.13 L 143.04 468.82 L 142.85 468.58 L 142.66 468.35 L 142.41 467.89 L 142.17 467.42 L 142.12 467.00 L 142.08 466.58 L 141.93 466.23 L 141.77 465.89 L 141.56 465.42 L 141.34 464.96 L 141.29 464.31 L 141.24 463.67 L 141.23 463.05 L 141.22 462.43 L 141.22 461.82 L 141.22 461.21 L 141.22 460.63 L 141.22 460.05 L 141.06 459.29 L 140.90 458.52 L 140.86 457.84 L 140.83 457.16 L 140.82 456.37 L 140.81 455.58 L 140.81 454.77 L 140.81 453.95 L 140.81 452.93 L 140.81 451.91 L 140.98 451.22 L 141.14 450.52 L 141.18 449.88 L 141.22 449.23 L 141.41 448.71 L 141.60 448.19 L 141.78 447.82 L 141.96 447.45 L 141.99 446.95 L 142.02 446.45 L 142.02 446.02 L 142.03 445.59 L 142.04 445.12 L 142.05 444.64 L 142.23 444.17 L 142.40 443.71 L 142.60 443.15 L 142.79 442.58 L 142.98 442.02 L 143.17 441.46 L 143.21 440.91 L 143.24 440.35 L 143.25 439.75 L 143.26 439.15 L 143.26 438.54 L 143.26 437.93 L 143.26 437.12 L 143.26 436.30 L 143.43 435.46 L 143.60 434.61 L 143.79 433.82 L 143.99 433.03 L 144.02 432.25 L 144.06 431.47 L 144.07 430.83 L 144.07 430.18 L 144.07 429.56 L 144.08 428.94 L 144.08 428.17 L 144.08 427.39 L 144.08 426.74 L 144.08 426.10 L 144.08 425.36 L 144.08 424.62 L 143.93 424.03 L 143.78 423.43 L 143.57 422.78 L 143.37 422.13 L 143.32 421.30 L 143.28 420.47 L 143.27 419.81 L 143.26 419.16 L 143.26 418.18 L 143.26 417.21 L 143.43 416.20 L 143.59 415.18 L 143.62 414.35 L 143.65 413.53 L 143.66 412.55 L 143.66 411.56 L 143.67 410.71 L 143.67 409.86 L 143.67 409.01 L 143.67 408.15 L 143.84 407.29 L 144.01 406.43 L 144.20 405.64 L 144.39 404.84 L 144.43 404.23 L 144.47 403.61 L 144.47 402.84 L 144.48 402.07 L 144.48 401.42 L 144.48 400.78 L 144.48 399.99 L 144.48 399.21 L 144.49 398.24 L 144.49 397.26 L 144.49 396.42 L 144.49 395.57 L 144.49 394.58 L 144.49 393.60 L 144.49 392.74 L 144.49 391.89 L 144.49 391.07 L 144.49 390.25 L 144.49 389.43 L 144.49 388.61 L 144.49 387.60 L 144.49 386.58 L 144.65 385.73 L 144.82 384.87 L 144.85 384.08 L 144.88 383.29 L 144.88 382.31 L 144.89 381.34 L 144.89 380.32 L 144.89 379.31 L 144.89 378.46 L 144.89 377.60 L 144.89 376.78 L 144.89 375.95 L 144.89 375.13 L 144.89 374.31 L 144.91 373.78 L 144.93 373.24 L 144.51 372.73 L 144.08 372.22 L 143.65 371.77 L 143.22 371.31 L 142.79 370.70 L 142.36 370.10 L 141.93 369.46 L 141.50 368.82 L 141.26 368.20 L 141.01 367.58 L 140.65 367.00 L 140.29 366.42 L 139.88 365.80 L 139.48 365.18 L 139.21 364.69 L 138.95 364.21 L 138.72 363.55 L 138.48 362.90 L 138.43 362.03 L 138.38 361.16 L 138.55 360.45 L 138.72 359.75 L 138.90 359.16 L 139.09 358.57 L 139.12 358.00 L 139.16 357.44 L 139.17 356.95 L 139.18 356.47 L 139.35 355.88 L 139.51 355.29 L 139.55 354.67 L 139.58 354.05 L 139.77 353.56 L 139.95 353.06 L 140.13 352.53 L 140.32 352.00 L 140.35 351.41 L 140.39 350.81 L 140.56 350.20 L 140.73 349.59 L 140.78 348.94 L 140.82 348.29 L 141.17 347.63 L 141.52 346.96 L 141.75 346.36 L 141.98 345.76 L 142.34 344.99 L 142.71 344.23 L 142.94 343.44 L 143.17 342.65 L 143.38 342.00 L 143.60 341.34 L 143.80 340.72 L 144.01 340.10 L 144.21 339.48 L 144.42 338.87 L 144.63 338.24 L 144.84 337.61 L 145.05 337.15 L 145.25 336.70 L 145.44 336.15 L 145.64 335.60 L 145.83 334.87 L 146.03 334.14 L 146.07 333.66 L 146.11 333.17 L 146.29 332.56 L 146.47 331.95 L 146.67 331.17 L 146.86 330.40 L 147.06 329.78 L 147.25 329.17 L 147.29 328.60 L 147.32 328.04 L 147.33 327.43 L 147.34 326.83 L 147.34 326.22 L 147.34 325.61 L 147.35 324.79 L 147.35 323.97 L 147.51 323.32 L 147.68 322.66 L 147.71 322.08 L 147.74 321.51 L 147.74 320.90 L 147.75 320.30 L 147.75 319.85 L 147.75 319.40 L 147.75 318.82 L 147.75 318.24 L 147.75 317.63 L 147.75 317.03 L 147.75 316.42 L 147.75 315.81 L 147.75 315.07 L 147.76 314.32 L 147.61 313.59 L 147.46 312.85 L 147.10 312.05 L 146.75 311.25 L 146.51 310.43 L 146.28 309.62 L 145.91 308.81 L 145.54 308.01 L 145.28 307.29 L 145.03 306.58 L 144.98 305.77 L 144.92 304.96 L 144.77 304.22 L 144.62 303.49 L 144.28 302.89 L 143.95 302.30 L 143.56 301.69 L 143.16 301.08 L 142.74 300.44 L 142.32 299.80 L 142.05 299.13 L 141.78 298.47 L 141.57 297.67 L 141.35 296.87 L 141.14 296.05 L 140.93 295.23 L 140.73 294.25 L 140.52 293.27 L 140.32 292.43 L 140.11 291.59 L 139.91 290.76 L 139.71 289.94 L 139.50 289.09 L 139.29 288.24 L 139.24 287.35 L 139.20 286.46 L 139.36 285.44 L 139.52 284.41 L 139.71 283.58 L 139.90 282.75 L 139.94 281.93 L 139.98 281.11 L 140.16 280.25 L 140.34 279.39 L 140.54 278.72 L 140.74 278.06 L 140.94 277.27 L 141.15 276.47 L 141.52 275.49 L 141.89 274.52 L 142.13 273.64 L 142.38 272.77 L 142.77 272.08 L 143.16 271.39 L 143.56 270.60 L 143.97 269.80 L 144.40 269.12 L 144.83 268.43 L 145.40 267.82 L 145.97 267.20 L 146.39 266.45 L 146.82 265.70 L 147.22 265.07 L 147.62 264.45 L 147.85 263.87 L 148.08 263.29 L 148.29 262.68 L 148.50 262.08 L 148.71 261.47 L 148.91 260.86 L 149.11 260.25 L 149.31 259.65 L 149.52 258.86 L 149.73 258.07 L 150.09 257.28 L 150.45 256.50 L 150.51 255.91 L 150.58 255.33 L 150.59 254.73 L 150.60 254.13 L 150.61 253.62 L 150.62 253.10 L 150.79 252.68 L 150.95 252.25 L 150.98 251.74 L 151.00 251.23 L 151.01 250.80 L 151.02 250.37 L 151.02 249.95 L 151.02 249.54 L 151.02 249.13 L 151.02 248.72 L 151.02 248.31 L 151.02 247.91 L 151.02 247.33 L 151.02 246.76 L 151.02 246.20 L 151.03 245.64 L 150.86 245.04 L 150.70 244.44 L 150.67 243.65 L 150.63 242.87 L 150.46 242.06 L 150.29 241.25 L 150.26 240.43 L 150.22 239.61 L 150.05 238.63 L 149.88 237.64 L 149.85 236.60 L 149.81 235.56 L 149.81 234.57 L 149.80 233.58 L 149.65 232.79 L 149.50 232.00 L 149.15 231.20 L 148.80 230.40 L 148.55 229.72 L 148.31 229.04 L 148.10 228.25 L 147.89 227.46 L 147.68 226.81 L 147.47 226.16 L 147.27 225.37 L 147.06 224.58 L 146.86 223.80 L 146.67 223.01 L 146.31 222.23 L 145.96 221.45 L 145.57 220.65 L 145.18 219.85 L 144.60 218.85 L 144.01 217.85 L 143.72 216.95 L 143.42 216.04 L 143.20 215.04 L 142.98 214.03 L 142.77 213.02 L 142.56 212.01 L 142.36 211.16 L 142.16 210.31 L 141.96 209.51 L 141.76 208.70 L 141.38 207.69 L 141.01 206.68 L 140.93 205.64 L 140.85 204.59 L 140.67 203.57 L 140.49 202.54 L 140.46 201.49 L 140.42 200.44 L 140.41 199.45 L 140.41 198.45 L 140.25 197.63 L 140.09 196.80 L 139.89 195.82 L 139.70 194.84 L 139.49 193.96 L 139.28 193.09 L 139.24 192.22 L 139.20 191.36 L 139.19 190.37 L 139.18 189.38 L 139.18 188.37 L 139.18 187.35 L 139.18 186.33 L 139.18 185.31 L 139.18 184.46 L 139.18 183.60 L 139.18 182.77 L 139.18 181.95 L 139.18 181.13 L 139.18 180.31 L 139.18 179.46 L 139.18 178.61 L 139.35 177.75 L 139.52 176.89 L 139.72 176.07 L 139.91 175.24 L 140.11 174.46 L 140.31 173.67 L 140.35 173.01 L 140.39 172.35 L 140.56 171.74 L 140.73 171.12 L 140.76 170.35 L 140.80 169.58 L 140.97 168.75 L 141.15 167.91 L 141.35 166.93 L 141.54 165.95 L 141.75 165.10 L 141.95 164.25 L 142.15 163.29 L 142.35 162.34 L 142.39 161.49 L 142.43 160.63 L 142.61 159.77 L 142.79 158.90 L 142.98 158.27 L 143.17 157.65 L 143.21 156.91 L 143.24 156.18 L 143.25 155.51 L 143.26 154.84 L 143.43 153.86 L 143.60 152.88 L 143.80 151.87 L 143.99 150.85 L 144.20 149.99 L 144.40 149.12 L 144.60 148.33 L 144.80 147.54 L 144.84 146.76 L 144.87 145.98 L 144.88 145.30 L 144.89 144.62 L 145.07 143.79 L 145.24 142.95 L 145.43 142.33 L 145.62 141.71 L 145.66 141.09 L 145.70 140.48 L 145.87 139.86 L 146.04 139.25 L 146.08 138.64 L 146.11 138.03 L 146.29 137.38 L 146.47 136.74 L 146.66 136.00 L 146.85 135.25 L 146.88 134.62 L 146.92 133.98 L 147.09 133.20 L 147.26 132.42 L 147.30 131.64 L 147.33 130.87 L 147.33 130.22 L 147.34 129.58 L 147.34 128.96 L 147.34 128.34 L 147.34 127.73 L 147.34 127.11 L 147.34 126.50 L 147.34 125.89 L 147.34 125.44 L 147.34 124.99 L 147.34 124.41 L 147.34 123.83 L 147.34 123.22 L 147.34 122.62 L 147.35 122.23 L 147.36 121.85 L 147.21 121.49 L 147.06 121.13 L 146.85 120.51 L 146.64 119.89 L 146.59 119.39 L 146.55 118.89 L 146.54 118.30 L 146.53 117.71 L 146.54 117.33 L 146.54 116.95 L 146.39 116.59 L 146.24 116.23 L 146.03 115.61 L 145.82 114.99 L 145.79 114.55 L 145.75 114.12 L 145.58 113.71 L 145.41 113.29 L 145.36 112.82 L 145.32 112.34 L 145.31 111.92 L 145.31 111.50 L 145.30 111.09 L 145.30 110.68 L 145.30 110.27 L 145.30 109.86 L 145.30 109.45 L 145.30 109.04 L 145.30 108.63 L 145.30 108.22 L 145.30 107.81 L 145.30 107.41 L 145.30 107.00 L 145.30 106.59 L 145.31 106.11 L 145.31 105.64 L 145.48 105.22 L 145.65 104.80 L 145.67 104.45 L 145.69 104.11 L 145.70 103.71 L 145.71 103.32 L 145.71 102.84 L 145.72 102.37 L 145.91 101.89 L 146.10 101.41 L 146.27 101.05 L 146.45 100.69 L 146.49 100.13 L 146.52 99.58 L 146.70 99.13 L 146.87 98.69 L 146.89 98.34 L 146.92 97.98 L 146.93 97.36 L 146.94 96.74 L 147.11 96.29 L 147.28 95.84 L 147.30 95.48 L 147.33 95.12 L 147.33 94.57 L 147.34 94.01 L 147.34 93.57 L 147.34 93.13 L 147.35 92.61 L 147.35 92.09 L 147.19 91.66 L 147.03 91.24 L 146.99 90.76 L 146.95 90.29 L 146.95 89.76 L 146.95 89.24 L 146.79 88.80 L 146.62 88.37 L 146.59 87.79 L 146.56 87.22 L 146.39 86.78 L 146.22 86.34 L 146.18 85.86 L 146.14 85.39 L 146.13 84.80 L 146.12 84.21 L 146.12 83.61 L 146.12 83.00 L 146.12 82.39 L 146.12 81.78 L 146.12 81.16 L 146.12 80.55 L 146.12 79.94 L 146.12 79.33 L 146.12 78.71 L 146.12 78.10 L 146.12 77.53 L 146.12 76.97 L 145.96 76.37 L 145.80 75.77 L 145.76 75.27 L 145.73 74.78 L 145.73 74.25 L 145.73 73.72 L 145.56 73.29 L 145.40 72.85 L 145.37 72.27 L 145.33 71.70 L 145.18 71.30 L 145.02 70.90 L 144.82 70.32 L 144.62 69.73 L 144.41 69.09 L 144.19 68.44 L 144.15 67.99 L 144.11 67.53 L 143.95 66.99 L 143.79 66.45 L 143.59 65.85 L 143.39 65.25 L 143.20 64.65 L 143.00 64.06 L 142.78 63.57 L 142.57 63.08 L 142.52 62.43 L 142.46 61.78 L 142.46 61.32 L 142.45 60.87 L 142.45 60.24 L 142.45 59.61 L 142.61 59.00 L 142.78 58.38 L 142.81 57.92 L 142.85 57.47 L 143.03 56.83 L 143.22 56.20 L 143.43 55.73 L 143.64 55.26 L 143.82 54.90 L 144.00 54.54 L 144.03 54.04 L 144.06 53.55 L 144.07 52.89 L 144.08 52.24 L 144.25 51.78 L 144.42 51.33 L 144.44 50.81 L 144.47 50.29 L 144.48 49.81 L 144.49 49.32 L 144.66 48.74 L 144.82 48.15 L 144.85 47.59 L 144.88 47.03 L 144.88 46.43 L 144.89 45.83 L 144.89 45.17 L 144.90 44.52 L 145.06 43.90 L 145.23 43.28 L 145.26 42.66 L 145.29 42.05 L 145.47 41.39 L 145.65 40.73 L 145.84 40.16 L 146.03 39.58 L 146.07 39.02 L 146.10 38.46 L 146.11 38.02 L 146.11 37.58 L 146.12 36.94 L 146.13 36.30 L 146.30 35.85 L 146.46 35.39 L 146.49 35.03 L 146.51 34.68 L 146.52 34.28 L 146.52 33.88 L 146.53 33.48 L 146.53 33.07 L 146.53 32.50 L 146.53 31.93 L 146.53 31.49 L 146.53 31.05 L 146.53 30.47 L 146.53 29.89 L 146.53 29.45 L 146.53 29.00 L 146.53 28.43 L 146.53 27.85 L 146.53 27.24 L 146.53 26.64 L 146.53 26.24 L 146.53 25.84 L 146.39 25.33 L 146.24 24.82 L 146.05 24.39 L 145.86 23.95 L 145.64 23.33 L 145.42 22.70 L 145.39 22.44 L 145.35 22.18 L 145.18 21.78 L 145.00 21.39 L 144.98 21.02 L 144.95 20.65 L 144.84 20.51 L 144.73 20.36 L 144.39 20.01 L 144.05 19.66 L 143.81 19.42 L 143.58 19.19 L 143.34 18.94 L 143.10 18.69 L 142.88 18.31 L 142.67 17.93 L 142.47 17.69 L 142.26 17.46 L 142.09 17.12 L 141.91 16.79 L 141.59 16.59 L 141.27 16.39 L 141.01 16.16 L 140.74 15.92 L 140.49 15.67 L 140.24 15.43 L 140.03 15.05 L 139.81 14.67 L 139.67 14.50 L 139.53 14.33 L 139.18 14.13 L 138.84 13.94 L 138.60 13.74 L 138.37 13.53 L 138.00 13.33 L 137.62 13.12 L 137.35 12.89 L 137.07 12.67 L 136.85 12.45 L 136.63 12.24 L 136.52 12.10 L 136.41 11.96 L 136.10 11.95 L 135.80 11.93 L 135.34 11.74 L 134.88 11.55 L 134.53 11.37 L 134.17 11.19 L 133.77 11.15 L 133.37 11.11 L 132.97 10.94 L 132.57 10.77 L 132.06 10.75 L 131.56 10.72 L 130.97 10.72 L 130.37 10.71 L 129.76 10.71 L 129.15 10.71 L 128.38 10.71 L 127.60 10.71 L 127.00 10.70 L 126.40 10.70 L 125.79 10.86 L 125.19 11.02 L 124.76 11.05 L 124.33 11.08 L 123.92 11.25 L 123.50 11.42 L 123.03 11.46 L 122.55 11.51 L 121.97 11.51 L 121.38 11.52 L 120.94 11.52 L 120.49 11.52 L 120.08 11.52 L 119.66 11.52 L 119.30 11.52 L 118.94 11.52 L 118.38 11.68 L 117.82 11.84 L 117.33 11.88 L 116.85 11.91 L 116.30 11.92 L 115.76 11.92 L 115.16 12.08 L 114.56 12.25 L 113.90 12.29 L 113.25 12.32 L 112.46 12.33 L 111.68 12.34 L 111.03 12.34 L 110.38 12.34 L 109.76 12.34 L 109.14 12.34 L 108.53 12.34 L 107.92 12.34 L 107.30 12.34 L 106.69 12.34 L 106.08 12.34 L 105.47 12.34 L 104.85 12.34 L 104.24 12.34 L 103.46 12.34 L 102.69 12.34 L 102.04 12.34 L 101.40 12.34 L 100.81 12.34 L 100.23 12.34 L 99.46 12.50 L 98.69 12.66 L 97.88 12.69 L 97.06 12.73 L 96.08 12.89 L 95.10 13.06 L 94.25 13.09 L 93.40 13.13 L 92.42 13.30 L 91.44 13.47 L 90.89 13.50 L 90.34 13.54 L 89.73 13.54 L 89.12 13.55 L 88.51 13.55 L 87.90 13.55 L 87.29 13.55 L 86.68 13.55 L 86.23 13.55 L 85.78 13.55 L 85.53 13.55 L 85.27 13.55 L 84.90 13.55 L 84.52 13.55 L 84.05 13.55 L 83.58 13.54 L 83.16 13.38 L 82.74 13.21 L 82.39 13.19 L 82.05 13.16 L 81.65 13.16 L 81.26 13.15 L 80.69 13.15 L 80.13 13.15 L 79.69 13.15 L 79.25 13.15 L 78.84 13.15 L 78.42 13.15 L 77.85 13.15 L 77.27 13.15 L 76.67 13.15 L 76.06 13.15 L 75.45 13.15 L 74.84 13.15 L 74.39 13.15 L 73.94 13.15 L 73.53 13.15 L 73.11 13.15 L 72.70 13.15 L 72.29 13.15 L 71.72 13.15 L 71.15 13.15 L 70.71 13.15 L 70.26 13.15 L 69.94 13.14 L 69.63 13.13 L 69.56 13.11 L 69.49 13.09 L 69.43 13.06 L 69.37 13.03 L 69.32 12.99 L 69.27 12.94 L 69.22 12.89 L 69.18 12.85 L 69.15 12.78 L 69.11 12.72 L 69.10 12.66 L 69.08 12.59 L 69.07 12.52 L 69.06 12.46 L 69.07 12.39 L 69.08 12.32 L 69.10 12.25 L 69.11 12.19 L 69.15 12.13 L 69.18 12.07 L 69.22 12.01 L 69.27 11.96 L 69.32 11.92 L 69.37 11.87 L 69.43 11.84 L 69.49 11.81 L 69.56 11.79 L 69.63 11.77 L 69.69 11.76 L 69.76 11.76 L 69.83 11.76 L 84.53 12.16 L 84.53 12.16 L 84.53 12.16 L 80.21 12.19 L 80.17 12.21 L 80.00 12.05 L 79.83 11.90 L 79.51 11.84 L 79.20 11.78 L 78.97 11.77 L 78.74 11.76 L 78.36 11.76 L 77.99 11.76 L 77.82 11.76 L 77.66 11.77 L 77.29 11.61 L 76.93 11.45 L 76.30 11.41 L 75.66 11.36 L 75.21 11.36 L 74.76 11.35 L 74.18 11.35 L 73.60 11.35 L 72.88 11.35 L 72.15 11.35 L 71.51 11.19 L 70.88 11.03 L 70.05 10.99 L 69.23 10.96 L 68.57 10.95 L 67.92 10.94 L 67.17 10.94 L 66.42 10.94 L 65.62 10.78 L 64.81 10.62 L 63.80 10.58 L 62.79 10.55 L 61.61 10.54 L 60.42 10.53 L 59.37 10.53 L 58.32 10.53 L 57.29 10.53 L 56.26 10.53 L 55.57 10.53 L 54.87 10.53 L 54.08 10.53 L 53.29 10.53 L 52.43 10.53 L 51.58 10.54 L 50.87 10.71 L 50.17 10.88 L 49.52 11.09 L 48.87 11.30 L 48.45 11.49 L 48.03 11.68 L 47.62 11.72 L 47.21 11.76 L 46.76 11.94 L 46.31 12.13 L 45.79 12.31 L 45.28 12.49 L 44.73 12.52 L 44.18 12.55 L 43.74 12.56 L 43.30 12.57 L 42.89 12.57 L 42.48 12.57 L 42.07 12.57 L 41.66 12.57 L 41.25 12.57 L 40.84 12.57 L 40.43 12.57 L 40.02 12.57 L 39.45 12.57 L 38.88 12.57 L 38.51 12.58 L 38.13 12.59 L 37.74 12.43 L 37.34 12.27 L 37.11 12.24 L 36.87 12.21 L 36.48 12.04 L 36.10 11.86 L 35.73 11.84 L 35.36 11.82 L 35.12 11.65 L 34.87 11.48 L 34.46 11.43 L 34.05 11.39 L 33.65 11.22 L 33.25 11.05 L 32.77 11.00 L 32.30 10.96 L 32.12 10.96 L 31.93 10.96 L 31.56 10.80 L 31.19 10.63 L 30.79 10.60 L 30.38 10.57 L 29.98 10.40 L 29.57 10.23 L 29.10 10.18 L 28.62 10.14 L 28.20 10.13 L 27.78 10.13 L 27.37 10.12 L 26.96 10.12 L 26.38 10.12 L 25.81 10.12 L 25.37 10.12 L 24.93 10.12 L 24.29 10.13 L 23.65 10.13 L 23.19 10.30 L 22.74 10.47 L 22.27 10.52 L 21.80 10.57 L 21.34 10.92 L 20.88 11.28 L 20.31 11.51 L 19.73 11.74 L 19.27 12.13 L 18.81 12.51 L 18.39 12.76 L 17.97 12.99 L 17.59 13.34 L 17.22 13.69 L 16.93 13.79 L 16.64 13.90 L 16.37 14.31 L 16.09 14.72 L 15.86 14.98 L 15.64 15.24 L 15.42 15.80 L 15.20 16.36 L 14.83 16.96 L 14.46 17.55 L 14.21 18.20 L 13.96 18.84 L 13.75 19.45 L 13.55 20.05 L 13.35 20.48 L 13.15 20.91 L 12.95 21.32 L 12.75 21.73 L 12.54 22.14 L 12.34 22.55 L 12.14 22.96 L 11.93 23.37 L 11.73 23.77 L 11.52 24.18 L 11.30 24.65 L 11.07 25.12 L 11.02 25.54 L 10.98 25.96 L 10.81 26.37 L 10.64 26.78 L 10.60 27.19 L 10.57 27.60 L 10.41 27.96 L 10.25 28.33 L 10.04 28.95 L 9.83 29.58 L 9.78 30.07 L 9.73 30.57 L 9.73 31.16 L 9.72 31.76 L 9.72 32.20 L 9.71 32.65 L 9.71 33.06 L 9.71 33.48 L 9.71 34.05 L 9.71 34.62 L 9.71 35.23 L 9.71 35.83 L 9.72 36.33 L 9.72 36.82 L 9.89 37.42 L 10.05 38.01 L 10.08 38.45 L 10.12 38.90 L 10.29 39.48 L 10.46 40.06 L 10.49 40.50 L 10.53 40.94 L 10.71 41.56 L 10.89 42.18 L 11.07 42.75 L 11.26 43.32 L 11.30 43.77 L 11.34 44.21 L 11.51 44.78 L 11.68 45.36 L 11.71 45.96 L 11.75 46.57 L 11.92 47.17 L 12.09 47.78 L 12.12 48.51 L 12.15 49.24 L 12.16 49.94 L 12.17 50.64 L 12.34 51.10 L 12.50 51.57 L 12.53 52.09 L 12.56 52.61 L 12.56 53.21 L 12.57 53.81 L 12.57 54.58 L 12.57 55.35 L 12.57 56.00 L 12.57 56.64 L 12.57 57.43 L 12.57 58.21 L 12.57 59.05 L 12.58 59.89 L 12.74 60.90 L 12.91 61.91 L 13.11 62.93 L 13.31 63.96 L 13.51 64.79 L 13.70 65.62 L 13.74 66.44 L 13.78 67.26 L 13.96 68.12 L 14.14 68.98 L 14.33 69.61 L 14.53 70.24 L 14.56 70.82 L 14.60 71.39 L 14.60 71.67 L 14.61 71.94 L 14.61 72.49 L 14.61 73.03 L 14.61 73.47 L 14.61 73.90 L 14.62 74.42 L 14.63 74.93 L 14.46 75.37 L 14.30 75.80 L 14.26 76.44 L 14.22 77.07 L 14.22 77.48 L 14.22 77.88 L 14.05 78.45 L 13.89 79.02 L 13.86 79.63 L 13.82 80.24 L 13.66 80.81 L 13.50 81.37 L 13.30 82.02 L 13.09 82.67 L 13.05 83.29 L 13.01 83.91 L 12.85 84.48 L 12.69 85.05 L 12.49 85.65 L 12.30 86.26 L 12.08 86.91 L 11.87 87.56 L 11.83 88.01 L 11.79 88.47 L 11.63 89.01 L 11.46 89.55 L 11.27 90.15 L 11.07 90.75 L 10.87 91.36 L 10.67 91.97 L 10.45 92.63 L 10.24 93.28 L 10.19 93.95 L 10.14 94.61 L 10.14 95.19 L 10.13 95.77 L 9.97 96.38 L 9.80 96.99 L 9.77 97.81 L 9.73 98.63 L 9.72 99.28 L 9.72 99.93 L 9.72 100.68 L 9.72 101.43 L 9.56 102.23 L 9.39 103.04 L 9.36 103.89 L 9.32 104.73 L 9.32 105.39 L 9.31 106.05 L 9.31 106.88 L 9.31 107.71 L 9.48 108.37 L 9.64 109.02 L 9.67 109.76 L 9.70 110.50 L 9.70 111.47 L 9.71 112.44 L 9.71 113.28 L 9.71 114.13 L 9.71 114.95 L 9.71 115.78 L 9.72 116.79 L 9.72 117.81 L 9.89 118.70 L 10.06 119.59 L 10.25 120.38 L 10.44 121.18 L 10.48 122.00 L 10.52 122.81 L 10.69 123.63 L 10.86 124.44 L 10.89 125.42 L 10.93 126.40 L 11.10 127.25 L 11.27 128.10 L 11.30 128.89 L 11.33 129.68 L 11.34 130.65 L 11.34 131.63 L 11.35 132.48 L 11.35 133.33 L 11.35 134.34 L 11.35 135.35 L 11.51 136.37 L 11.68 137.39 L 11.71 138.39 L 11.74 139.38 L 11.75 140.27 L 11.76 141.15 L 11.92 141.98 L 12.09 142.81 L 12.12 143.63 L 12.15 144.45 L 12.32 145.27 L 12.49 146.09 L 12.53 147.07 L 12.56 148.04 L 12.73 148.89 L 12.90 149.74 L 12.93 150.70 L 12.96 151.65 L 12.97 152.50 L 12.98 153.34 L 12.98 154.16 L 12.98 154.99 L 12.98 155.80 L 12.98 156.62 L 12.98 157.30 L 12.98 157.99 L 13.15 158.94 L 13.31 159.90 L 13.35 160.59 L 13.38 161.27 L 13.55 162.09 L 13.73 162.91 L 13.92 163.85 L 14.11 164.80 L 14.15 165.61 L 14.19 166.43 L 14.20 167.43 L 14.20 168.43 L 14.37 169.62 L 14.54 170.80 L 14.57 171.66 L 14.60 172.53 L 14.61 173.52 L 14.61 174.51 L 14.61 175.36 L 14.61 176.21 L 14.61 177.03 L 14.61 177.86 L 14.62 178.64 L 14.62 179.42 L 14.46 180.23 L 14.29 181.04 L 14.26 181.73 L 14.22 182.41 L 14.22 183.21 L 14.21 184.00 L 14.21 184.61 L 14.21 185.22 L 14.05 186.00 L 13.89 186.78 L 13.85 187.62 L 13.81 188.47 L 13.81 189.25 L 13.81 190.04 L 13.64 190.85 L 13.48 191.66 L 13.45 192.47 L 13.41 193.28 L 13.24 193.93 L 13.07 194.58 L 13.04 195.21 L 13.00 195.83 L 12.84 196.57 L 12.68 197.31 L 12.49 197.94 L 12.30 198.56 L 12.11 199.14 L 11.92 199.72 L 11.57 200.31 L 11.21 200.90 L 10.96 201.38 L 10.71 201.86 L 10.48 202.51 L 10.24 203.16 L 10.20 203.77 L 10.15 204.39 L 9.98 205.01 L 9.81 205.63 L 9.77 206.45 L 9.73 207.27 L 9.72 207.92 L 9.72 208.57 L 9.72 209.16 L 9.72 209.74 L 9.56 210.51 L 9.39 211.28 L 9.36 211.96 L 9.32 212.64 L 9.32 213.43 L 9.31 214.22 L 9.31 214.87 L 9.31 215.52 L 9.31 216.35 L 9.31 217.17 L 9.48 217.86 L 9.65 218.55 L 9.84 219.30 L 10.03 220.05 L 10.07 220.85 L 10.11 221.65 L 10.28 222.47 L 10.45 223.28 L 10.49 224.13 L 10.53 224.98 L 10.87 225.83 L 11.22 226.69 L 11.44 227.48 L 11.66 228.28 L 11.87 229.09 L 12.08 229.90 L 12.29 230.72 L 12.49 231.53 L 12.70 232.35 L 12.90 233.17 L 13.10 233.95 L 13.30 234.73 L 13.33 235.54 L 13.37 236.34 L 13.54 237.32 L 13.72 238.30 L 13.75 239.12 L 13.78 239.94 L 13.79 241.08 L 13.79 242.23 L 13.80 243.27 L 13.80 244.32 L 13.80 245.18 L 13.80 246.04 L 13.80 246.74 L 13.80 247.44 L 13.97 248.23 L 14.13 249.03 L 14.16 249.80 L 14.19 250.58 L 14.20 251.39 L 14.20 252.20 L 14.21 253.06 L 14.21 253.91 L 14.38 254.57 L 14.54 255.23 L 14.57 256.01 L 14.60 256.78 L 14.77 257.75 L 14.94 258.72 L 14.97 259.54 L 15.01 260.36 L 15.01 261.18 L 15.02 262.00 L 15.02 262.98 L 15.02 263.96 L 15.02 264.64 L 15.02 265.33 L 15.02 266.12 L 15.02 266.91 L 15.02 267.72 L 15.02 268.53 L 15.03 269.15 L 15.03 269.77 L 14.86 270.54 L 14.70 271.32 L 14.67 272.13 L 14.64 272.94 L 14.47 273.76 L 14.30 274.57 L 14.26 275.42 L 14.22 276.27 L 14.22 277.06 L 14.21 277.85 L 14.05 278.66 L 13.89 279.48 L 13.85 280.28 L 13.82 281.09 L 13.65 281.74 L 13.48 282.40 L 13.45 283.18 L 13.41 283.96 L 13.25 284.57 L 13.09 285.19 L 12.89 285.96 L 12.70 286.74 L 12.50 287.38 L 12.29 288.03 L 12.08 288.85 L 11.87 289.68 L 11.82 290.50 L 11.78 291.32 L 11.62 292.10 L 11.45 292.88 L 11.25 293.72 L 11.05 294.57 L 11.01 295.21 L 10.97 295.86 L 10.80 296.48 L 10.63 297.11 L 10.59 297.72 L 10.56 298.33 L 10.39 298.95 L 10.22 299.56 L 10.18 300.22 L 10.14 300.88 L 10.13 301.66 L 10.13 302.45 L 10.12 303.09 L 10.12 303.74 L 10.13 304.41 L 10.13 305.07 L 10.29 305.69 L 10.46 306.32 L 10.49 306.89 L 10.51 307.46 L 10.52 308.26 L 10.53 309.06 L 10.70 309.88 L 10.86 310.69 L 10.90 311.35 L 10.93 312.00 L 11.10 312.78 L 11.27 313.57 L 11.30 314.21 L 11.34 314.86 L 11.51 315.64 L 11.68 316.42 L 11.71 317.20 L 11.74 317.97 L 11.75 318.82 L 11.76 319.67 L 11.93 320.38 L 12.11 321.08 L 12.31 321.72 L 12.51 322.35 L 12.71 322.95 L 12.91 323.56 L 13.11 324.33 L 13.32 325.11 L 13.52 325.75 L 13.72 326.40 L 13.92 327.17 L 14.13 327.94 L 14.33 328.75 L 14.53 329.56 L 14.74 330.38 L 14.94 331.19 L 15.15 332.01 L 15.35 332.82 L 15.55 333.61 L 15.75 334.40 L 15.79 335.05 L 15.83 335.71 L 16.00 336.33 L 16.17 336.95 L 16.20 337.56 L 16.24 338.16 L 16.41 338.94 L 16.58 339.71 L 16.61 340.37 L 16.65 341.02 L 16.82 341.64 L 16.99 342.26 L 17.02 342.99 L 17.05 343.72 L 17.06 344.49 L 17.07 345.25 L 16.90 346.06 L 16.74 346.87 L 16.71 347.68 L 16.68 348.50 L 16.51 349.28 L 16.35 350.06 L 16.16 350.84 L 15.98 351.62 L 15.62 352.42 L 15.26 353.22 L 15.02 353.87 L 14.79 354.52 L 14.41 355.32 L 14.03 356.11 L 13.78 356.95 L 13.53 357.79 L 13.32 358.62 L 13.11 359.44 L 12.91 360.23 L 12.71 361.01 L 12.35 361.83 L 11.98 362.64 L 11.73 363.51 L 11.48 364.39 L 11.43 365.21 L 11.38 366.04 L 11.22 366.65 L 11.05 367.26 L 10.85 367.91 L 10.64 368.57 L 10.60 369.36 L 10.56 370.14 L 10.39 370.79 L 10.22 371.43 L 10.18 372.09 L 10.14 372.76 L 10.14 373.33 L 10.13 373.91 L 9.97 374.52 L 9.80 375.12 L 9.77 375.78 L 9.73 376.44 L 9.72 377.06 L 9.72 377.68 L 9.72 378.29 L 9.71 378.91 L 9.71 379.68 L 9.71 380.46 L 9.71 381.11 L 9.71 381.75 L 9.72 382.50 L 9.72 383.25 L 9.55 384.05 L 9.39 384.85 L 9.36 385.70 L 9.32 386.55 L 9.32 387.37 L 9.31 388.20 L 9.31 389.02 L 9.31 389.83 L 9.31 390.65 L 9.31 391.47 L 9.31 392.28 L 9.31 393.10 L 9.31 393.79 L 9.31 394.48 L 9.47 395.27 L 9.64 396.06 L 9.67 396.87 L 9.70 397.67 L 9.88 398.68 L 10.05 399.69 L 10.25 400.56 L 10.45 401.42 L 10.65 402.24 L 10.86 403.07 L 11.07 403.92 L 11.28 404.77 L 11.67 405.62 L 12.05 406.47 L 12.44 407.28 L 12.84 408.08 L 13.07 408.70 L 13.30 409.33 L 13.51 410.09 L 13.71 410.86 L 13.92 411.67 L 14.12 412.47 L 14.33 413.29 L 14.53 414.10 L 14.74 414.92 L 14.94 415.74 L 15.14 416.52 L 15.34 417.30 L 15.38 418.27 L 15.42 419.24 L 15.59 420.13 L 15.77 421.01 L 15.96 421.81 L 16.16 422.60 L 16.19 423.38 L 16.23 424.16 L 16.24 424.81 L 16.24 425.45 L 16.25 426.40 L 16.25 427.35 L 16.25 428.15 L 16.25 428.96 L 16.09 429.75 L 15.94 430.54 L 15.74 431.52 L 15.54 432.50 L 15.34 433.54 L 15.13 434.58 L 15.09 435.61 L 15.05 436.64 L 14.87 437.82 L 14.70 439.01 L 14.67 440.06 L 14.64 441.11 L 14.47 442.10 L 14.30 443.10 L 14.11 443.94 L 13.92 444.79 L 13.71 445.61 L 13.51 446.43 L 13.30 447.28 L 13.09 448.14 L 13.05 448.96 L 13.01 449.78 L 12.84 450.57 L 12.68 451.35 L 12.48 452.16 L 12.28 452.97 L 12.08 453.79 L 11.88 454.61 L 11.67 455.42 L 11.47 456.24 L 11.27 457.06 L 11.06 457.87 L 10.86 458.70 L 10.65 459.53 L 10.44 460.71 L 10.23 461.88 L 10.19 462.63 L 10.14 463.38 L 10.14 464.15 L 10.13 464.92 L 9.97 465.70 L 9.81 466.47 L 9.61 467.31 L 9.41 468.15 L 9.37 469.01 L 9.33 469.87 L 9.32 470.86 L 9.31 471.84 L 9.31 472.69 L 9.31 473.55 L 9.31 474.37 L 9.31 475.19 L 9.31 476.01 L 9.31 476.83 L 9.31 477.65 L 9.31 478.46 L 9.31 479.31 L 9.31 480.17 L 9.48 481.03 L 9.65 481.90 L 9.85 482.57 L 10.06 483.25 L 10.26 483.87 L 10.46 484.50 L 10.68 485.15 L 10.90 485.80 L 11.30 486.47 L 11.71 487.15 L 12.13 487.63 L 12.56 488.11 L 12.93 488.48 L 13.30 488.85 L 13.54 489.42 L 13.78 489.98 L 14.16 490.42 L 14.53 490.86 L 14.76 491.42 L 14.98 491.97 L 15.35 492.56 L 15.72 493.15 L 15.93 493.85 L 16.14 494.54 L 16.19 495.17 L 16.23 495.80 L 16.40 496.58 L 16.58 497.36 L 16.61 498.13 L 16.64 498.91 L 16.65 499.71 L 16.65 500.52 L 16.66 501.30 L 16.66 502.08 L 16.50 502.89 L 16.34 503.70 L 16.30 504.35 L 16.27 505.00 L 16.10 505.78 L 15.93 506.57 L 15.90 507.21 L 15.87 507.84 L 15.70 508.46 L 15.53 509.08 L 15.49 509.69 L 15.46 510.31 L 15.30 510.86 L 15.15 511.41 L 14.94 511.90 L 14.73 512.38 L 14.69 512.97 L 14.65 513.55 L 14.48 514.00 L 14.31 514.44 L 14.27 515.02 L 14.24 515.60 L 14.07 516.04 L 13.90 516.49 L 13.86 517.13 L 13.82 517.77 L 13.81 518.22 L 13.80 518.67 L 13.80 519.25 L 13.80 519.83 L 13.80 520.28 L 13.80 520.72 L 13.80 521.30 L 13.80 521.88 L 13.80 522.48 L 13.80 523.09 L 13.80 523.54 L 13.80 523.98 L 13.82 524.52 L 13.84 525.05 L 14.23 525.57 L 14.62 526.09 L 14.86 526.35 L 15.10 526.61 L 15.32 526.83 L 15.53 527.04 L 15.90 527.41 L 16.27 527.78 L 16.54 528.05 L 16.82 528.32 L 17.24 528.56 L 17.66 528.80 L 18.06 529.01 L 18.47 529.22 L 18.90 529.44 L 19.33 529.65 L 19.93 529.87 L 20.54 530.08 L 21.36 530.30 L 22.17 530.51 L 23.03 530.56 L 23.88 530.60 L 24.70 530.61 L 25.52 530.62 L 26.21 530.62 L 26.90 530.62 L 27.70 530.46 L 28.49 530.29 L 29.31 530.26 L 30.12 530.23 L 30.81 530.05 L 31.50 529.87 L 32.25 529.68 L 33.01 529.49 L 33.45 529.45 L 33.90 529.42 L 34.31 529.41 L 34.72 529.40 L 35.29 529.40 L 35.86 529.40 L 36.30 529.40 L 36.74 529.40 L 37.32 529.40 L 37.90 529.40 L 38.70 529.40 L 39.49 529.40 L 40.50 529.23 L 41.50 529.06 L 42.52 528.87 L 43.53 528.67 L 44.55 528.47 L 45.57 528.26 L 46.57 528.06 L 47.56 527.86 L 48.58 527.82 L 49.60 527.78 L 50.46 527.61 L 51.32 527.44 L 52.11 527.41 L 52.90 527.37 L 53.68 527.37 L 54.46 527.36 L 55.24 527.52 L 56.02 527.67 L 57.01 527.87 L 57.99 528.07 L 59.19 528.27 L 60.40 528.48 L 61.61 528.52 L 62.82 528.56 L 63.69 528.72 L 64.55 528.89 L 65.28 529.05 L 66.01 529.21 L 66.42 529.68 L 66.84 530.14 L 67.29 530.60 L 67.74 531.06 L 68.32 531.48 L 68.91 531.89 L 69.38 532.33 L 69.85 532.76 L 70.49 533.04 L 71.14 533.31 L 71.77 533.54 L 72.39 533.76 L 73.17 533.96 L 73.95 534.17 L 74.64 534.38 L 75.32 534.60 L 76.32 534.64 L 77.31 534.69 L 78.20 534.70 L 79.08 534.70 L 79.95 534.53 L 80.80 534.37 L 81.64 534.17 L 82.47 533.97 L 83.14 533.76 L 83.81 533.55 L 84.47 533.33 L 85.13 533.11 L 85.75 532.74 L 86.37 532.37 L 86.91 532.16 L 87.45 531.95 L 88.04 531.91 L 88.64 531.86 L 89.25 531.69 L 89.86 531.52 L 90.42 531.49 L 90.99 531.46 L 91.59 531.45 L 92.20 531.45 L 93.01 531.44 L 93.81 531.44 L 94.63 531.27 L 95.45 531.11 L 96.07 531.08 L 96.69 531.05 L 97.50 531.04 L 98.32 531.03 L 99.01 530.86 L 99.70 530.69 L 100.51 530.48 L 101.32 530.28 L 102.18 529.89 L 103.04 529.50 L 103.68 529.11 L 104.33 528.71 L 104.91 528.48 L 105.50 528.25 L 106.07 528.05 L 106.63 527.86 L 107.03 527.82 L 107.42 527.79 L 107.83 527.78 L 108.23 527.77 L 108.80 527.77 L 109.37 527.77 L 109.97 527.77 L 110.57 527.77 L 111.19 527.77 L 111.80 527.77 L 112.20 527.76 L 112.60 527.76 L 113.13 527.91 L 113.65 528.06 L 114.25 528.26 L 114.85 528.45 L 115.46 528.65 L 116.07 528.85 L 116.72 529.07 L 117.38 529.28 L 118.00 529.33 L 118.62 529.37 L 119.24 529.54 L 119.85 529.71 L 120.51 529.75 L 121.17 529.79 L 121.79 529.80 L 122.41 529.80 L 123.03 529.81 L 123.64 529.81 L 124.31 529.80 L 124.99 529.80 L 125.45 529.63 L 125.91 529.47 L 126.43 529.44 L 126.95 529.42 L 127.58 529.41 L 128.21 529.40 L 129.03 529.23 L 129.84 529.06 L 130.65 528.86 L 131.46 528.66 L 132.44 528.46 L 133.43 528.25 L 134.09 528.06 L 134.75 527.86 L 135.38 527.82 L 136.00 527.78 L 136.62 527.60 L 137.24 527.43 L 137.71 527.39 L 138.18 527.36 L 138.70 527.14 L 139.22 526.93 L 139.65 526.56 L 140.08 526.18 L 140.49 525.95 L 140.89 525.71 L 141.13 525.50 L 141.38 525.30 L 141.76 525.09 L 142.14 524.88 L 142.61 524.45 L 143.07 524.02 L 143.30 523.64 L 143.52 523.26 L 143.94 522.97 L 144.35 522.68 L 144.47 522.21 L 144.59 521.75 L 144.76 521.37 L 144.93 520.99 L 145.13 520.40 L 145.34 519.82 L 145.56 519.17 L 145.77 518.51 L 145.82 517.69 L 145.86 516.86 L 145.87 516.04 L 145.88 515.22 L 145.88 514.40 L 145.88 513.59 L 145.88 512.75 L 145.88 511.90 L 145.72 510.76 L 145.56 509.61 L 145.52 508.56 L 145.49 507.51 L 145.31 506.45 L 145.14 505.39 L 144.95 504.54 L 144.75 503.70 L 144.71 503.24 L 144.68 502.78 L 144.67 502.36 L 144.66 501.95 L 144.66 501.54 L 144.66 501.13 L 144.66 500.89 L 144.66 500.64 L 144.66 500.43 L 144.66 500.22 L 144.66 500.01 L 144.66 499.80 L 144.66 499.60 L 144.66 499.40 L 144.66 499.19 L 144.66 498.99 L 144.66 498.78 L 144.66 498.58 L 144.66 498.21 L 144.66 497.84 L 144.66 497.44 L 144.66 497.04 L 144.65 496.70 L 144.65 496.36 L 144.81 495.97 L 144.97 495.57 L 144.99 495.20 L 145.01 494.83 L 145.15 494.65 L 145.29 494.47 L 145.52 494.02 L 145.75 493.58 L 145.79 493.33 L 145.83 493.08 L 145.97 492.79 L 146.10 492.50 L 146.23 492.34 L 146.35 492.19 L 146.74 491.96 L 147.12 491.74 L 147.42 491.29 L 147.71 490.84 L 147.91 490.47 L 148.10 490.09 L 148.47 489.69 L 148.83 489.29 L 149.07 488.88 L 149.31 488.47 L 149.53 488.22 L 149.74 487.97 L 149.97 487.56 L 150.19 487.15 L 150.42 486.69 L 150.65 486.24 L 150.71 485.91 L 150.76 485.59 L 150.77 485.19 L 150.78 484.79 L 150.78 484.38 L 150.79 483.98 L 150.78 483.50 L 150.77 483.03 L 150.61 482.61 L 150.44 482.18 L 150.41 481.77 L 150.37 481.36 L 150.20 480.95 L 150.03 480.54 L 149.99 480.10 L 149.95 479.66 L 149.72 479.31 L 149.49 478.96 L 149.33 478.81 L 149.18 478.66 L 149.16 478.51 L 149.14 478.35 L 148.97 477.99 L 148.80 477.63 L 148.77 477.39 L 148.73 477.16 L 148.56 476.79 L 148.39 476.41 L 148.34 476.13 L 148.29 475.85 L 148.10 475.59 L 147.90 475.32 L 147.74 475.03 L 147.58 474.75 L 147.53 474.48 L 147.48 474.21 L 147.25 473.91 L 147.02 473.61 L 146.81 473.39 L 146.60 473.18 L 146.46 473.05 L 146.31 472.93 L 146.28 472.74 L 146.24 472.54 L 146.08 472.35 L 145.91 472.15 L 145.89 471.98 L 145.87 471.82 L 145.66 471.37 L 145.45 470.92 L 145.25 470.67 L 145.05 470.43 L 144.89 470.15 L 144.73 469.87 L 144.69 469.48 L 144.66 469.10 L 144.45 468.60 L 144.24 468.10 L 144.03 467.84 L 143.82 467.58 L 143.66 467.29 L 143.51 467.01 L 143.47 466.62 L 143.43 466.24 L 143.24 465.77 L 143.05 465.31 L 142.87 464.95 L 142.69 464.60 L 142.66 464.10 L 142.64 463.61 L 142.63 463.02 L 142.62 462.42 L 142.62 461.81 L 142.62 461.21 L 142.62 460.56 L 142.61 459.91 L 142.45 459.12 L 142.29 458.34 L 142.26 457.73 L 142.23 457.12 L 142.22 456.34 L 142.21 455.57 L 142.21 454.76 L 142.21 453.95 L 142.21 453.02 L 142.20 452.08 L 142.37 451.40 L 142.53 450.72 L 142.56 450.12 L 142.59 449.51 L 142.74 449.13 L 142.89 448.74 L 143.10 448.27 L 143.31 447.81 L 143.36 447.16 L 143.41 446.51 L 143.42 446.06 L 143.43 445.61 L 143.43 445.26 L 143.42 444.90 L 143.57 444.55 L 143.72 444.20 L 143.92 443.61 L 144.12 443.03 L 144.33 442.38 L 144.55 441.73 L 144.59 441.07 L 144.64 440.40 L 144.65 439.78 L 144.66 439.16 L 144.66 438.54 L 144.66 437.93 L 144.66 437.19 L 144.66 436.44 L 144.81 435.68 L 144.97 434.91 L 145.17 434.07 L 145.37 433.23 L 145.41 432.37 L 145.46 431.51 L 145.46 430.85 L 145.47 430.19 L 145.47 429.57 L 145.48 428.95 L 145.48 428.17 L 145.48 427.39 L 145.48 426.74 L 145.48 426.10 L 145.47 425.27 L 145.47 424.45 L 145.30 423.75 L 145.12 423.05 L 144.93 422.46 L 144.75 421.88 L 144.71 421.15 L 144.68 420.42 L 144.67 419.79 L 144.66 419.15 L 144.66 418.23 L 144.66 417.32 L 144.82 416.32 L 144.98 415.32 L 145.02 414.44 L 145.05 413.56 L 145.06 412.56 L 145.06 411.57 L 145.07 410.72 L 145.07 409.87 L 145.07 409.08 L 145.06 408.29 L 145.22 407.51 L 145.38 406.73 L 145.58 405.89 L 145.78 405.05 L 145.82 404.36 L 145.87 403.66 L 145.87 402.87 L 145.88 402.08 L 145.88 401.43 L 145.88 400.78 L 145.88 399.99 L 145.88 399.21 L 145.89 398.24 L 145.89 397.26 L 145.89 396.42 L 145.89 395.57 L 145.89 394.58 L 145.89 393.60 L 145.89 392.74 L 145.89 391.89 L 145.89 391.07 L 145.89 390.25 L 145.89 389.43 L 145.89 388.61 L 145.88 387.66 L 145.88 386.72 L 146.04 385.87 L 146.21 385.03 L 146.24 384.17 L 146.28 383.32 L 146.28 382.33 L 146.29 381.34 L 146.29 380.33 L 146.29 379.31 L 146.29 378.46 L 146.29 377.60 L 146.29 376.78 L 146.29 375.95 L 146.29 375.13 L 146.29 374.31 L 146.27 373.55 L 146.25 372.78 L 145.70 372.04 L 145.14 371.31 L 144.72 370.86 L 144.31 370.42 L 143.91 369.86 L 143.52 369.30 L 143.13 368.73 L 142.74 368.16 L 142.50 367.56 L 142.26 366.95 L 141.86 366.31 L 141.47 365.67 L 141.07 365.06 L 140.68 364.46 L 140.45 364.05 L 140.23 363.63 L 140.04 363.13 L 139.85 362.62 L 139.81 361.95 L 139.78 361.28 L 139.92 360.70 L 140.06 360.12 L 140.27 359.47 L 140.47 358.82 L 140.51 358.16 L 140.56 357.50 L 140.56 357.08 L 140.56 356.67 L 140.73 356.10 L 140.89 355.52 L 140.92 354.93 L 140.95 354.34 L 141.11 353.94 L 141.27 353.54 L 141.48 352.91 L 141.69 352.28 L 141.73 351.66 L 141.77 351.05 L 141.94 350.43 L 142.11 349.82 L 142.14 349.25 L 142.17 348.67 L 142.48 348.11 L 142.80 347.55 L 143.03 346.93 L 143.26 346.31 L 143.64 345.52 L 144.02 344.73 L 144.26 343.90 L 144.51 343.07 L 144.72 342.42 L 144.93 341.78 L 145.13 341.16 L 145.34 340.54 L 145.54 339.92 L 145.75 339.31 L 145.94 338.71 L 146.14 338.12 L 146.35 337.67 L 146.55 337.22 L 146.76 336.62 L 146.98 336.01 L 147.19 335.20 L 147.41 334.38 L 147.45 333.91 L 147.49 333.43 L 147.65 332.87 L 147.82 332.32 L 148.01 331.55 L 148.21 330.78 L 148.42 330.11 L 148.63 329.43 L 148.68 328.76 L 148.72 328.09 L 148.73 327.47 L 148.74 326.84 L 148.74 326.23 L 148.74 325.61 L 148.74 324.88 L 148.74 324.14 L 148.90 323.51 L 149.06 322.87 L 149.10 322.21 L 149.14 321.55 L 149.14 320.93 L 149.15 320.30 L 149.15 319.85 L 149.15 319.40 L 149.15 318.82 L 149.15 318.24 L 149.15 317.63 L 149.15 317.03 L 149.15 316.42 L 149.15 315.81 L 149.15 315.00 L 149.15 314.18 L 148.97 313.31 L 148.79 312.43 L 148.43 311.60 L 148.07 310.77 L 147.83 309.95 L 147.59 309.13 L 147.21 308.30 L 146.84 307.47 L 146.62 306.88 L 146.40 306.29 L 146.35 305.53 L 146.31 304.77 L 146.12 303.88 L 145.93 303.00 L 145.54 302.29 L 145.15 301.58 L 144.74 300.95 L 144.34 300.32 L 143.95 299.73 L 143.56 299.15 L 143.34 298.58 L 143.11 298.02 L 142.91 297.27 L 142.70 296.51 L 142.50 295.72 L 142.29 294.92 L 142.09 293.94 L 141.89 292.96 L 141.68 292.11 L 141.47 291.25 L 141.27 290.43 L 141.07 289.60 L 140.87 288.82 L 140.67 288.03 L 140.63 287.29 L 140.59 286.54 L 140.74 285.61 L 140.89 284.67 L 141.09 283.81 L 141.29 282.94 L 141.33 282.11 L 141.37 281.28 L 141.53 280.51 L 141.69 279.73 L 141.89 279.09 L 142.08 278.44 L 142.28 277.67 L 142.48 276.89 L 142.85 275.92 L 143.22 274.95 L 143.44 274.13 L 143.67 273.31 L 144.03 272.68 L 144.39 272.05 L 144.79 271.27 L 145.18 270.50 L 145.57 269.89 L 145.95 269.28 L 146.52 268.65 L 147.10 268.03 L 147.56 267.23 L 148.01 266.42 L 148.44 265.76 L 148.87 265.09 L 149.13 264.43 L 149.39 263.78 L 149.61 263.15 L 149.83 262.53 L 150.03 261.91 L 150.24 261.30 L 150.45 260.68 L 150.65 260.05 L 150.85 259.29 L 151.05 258.53 L 151.43 257.70 L 151.80 256.87 L 151.89 256.15 L 151.97 255.43 L 151.99 254.79 L 152.00 254.15 L 152.00 253.76 L 152.00 253.37 L 152.16 252.96 L 152.32 252.55 L 152.36 251.92 L 152.40 251.28 L 152.41 250.83 L 152.42 250.38 L 152.42 249.96 L 152.42 249.54 L 152.42 249.13 L 152.42 248.72 L 152.42 248.31 L 152.42 247.91 L 152.42 247.33 L 152.42 246.76 L 152.42 246.11 L 152.41 245.46 L 152.25 244.84 L 152.09 244.23 L 152.05 243.46 L 152.02 242.69 L 151.85 241.88 L 151.68 241.08 L 151.65 240.27 L 151.62 239.46 L 151.45 238.48 L 151.28 237.50 L 151.24 236.52 L 151.21 235.53 L 151.20 234.49 L 151.19 233.44 L 151.02 232.51 L 150.84 231.59 L 150.47 230.74 L 150.10 229.88 L 149.87 229.25 L 149.65 228.62 L 149.44 227.85 L 149.23 227.07 L 149.02 226.42 L 148.82 225.78 L 148.62 225.00 L 148.42 224.23 L 148.20 223.39 L 147.99 222.55 L 147.61 221.70 L 147.23 220.85 L 146.82 220.02 L 146.41 219.19 L 145.85 218.23 L 145.29 217.27 L 145.03 216.47 L 144.77 215.68 L 144.56 214.71 L 144.35 213.74 L 144.14 212.72 L 143.93 211.71 L 143.72 210.84 L 143.52 209.98 L 143.31 209.13 L 143.10 208.29 L 142.74 207.34 L 142.38 206.38 L 142.31 205.40 L 142.24 204.42 L 142.06 203.41 L 141.89 202.39 L 141.85 201.40 L 141.82 200.41 L 141.81 199.36 L 141.80 198.31 L 141.63 197.42 L 141.46 196.53 L 141.26 195.54 L 141.07 194.54 L 140.87 193.72 L 140.67 192.89 L 140.63 192.11 L 140.60 191.32 L 140.59 190.35 L 140.58 189.37 L 140.58 188.36 L 140.58 187.35 L 140.58 186.33 L 140.58 185.31 L 140.58 184.46 L 140.58 183.60 L 140.58 182.77 L 140.58 181.95 L 140.58 181.13 L 140.58 180.31 L 140.57 179.53 L 140.57 178.75 L 140.73 177.97 L 140.89 177.19 L 141.08 176.38 L 141.27 175.58 L 141.48 174.73 L 141.69 173.88 L 141.73 173.23 L 141.77 172.58 L 141.94 171.96 L 142.11 171.34 L 142.15 170.55 L 142.19 169.76 L 142.35 168.98 L 142.52 168.20 L 142.71 167.22 L 142.91 166.25 L 143.11 165.40 L 143.32 164.55 L 143.53 163.53 L 143.74 162.51 L 143.78 161.66 L 143.82 160.81 L 143.98 160.03 L 144.14 159.25 L 144.35 158.57 L 144.55 157.89 L 144.60 157.05 L 144.64 156.22 L 144.65 155.59 L 144.65 154.97 L 144.81 154.05 L 144.97 153.14 L 145.17 152.14 L 145.36 151.15 L 145.56 150.30 L 145.76 149.45 L 145.97 148.60 L 146.18 147.74 L 146.23 146.88 L 146.27 146.03 L 146.28 145.40 L 146.29 144.77 L 146.44 144.04 L 146.60 143.30 L 146.80 142.63 L 147.00 141.96 L 147.04 141.33 L 147.08 140.71 L 147.25 140.10 L 147.42 139.48 L 147.46 138.87 L 147.49 138.25 L 147.66 137.67 L 147.82 137.10 L 148.02 136.28 L 148.23 135.47 L 148.27 134.82 L 148.31 134.17 L 148.48 133.38 L 148.65 132.60 L 148.69 131.75 L 148.73 130.91 L 148.73 130.25 L 148.74 129.59 L 148.74 128.97 L 148.74 128.34 L 148.74 127.73 L 148.74 127.11 L 148.74 126.50 L 148.74 125.89 L 148.74 125.44 L 148.74 124.99 L 148.74 124.41 L 148.74 123.83 L 148.74 123.22 L 148.74 122.62 L 148.74 122.10 L 148.73 121.59 L 148.55 121.12 L 148.37 120.65 L 148.19 120.12 L 148.01 119.60 L 147.98 119.21 L 147.95 118.82 L 147.94 118.26 L 147.93 117.70 L 147.92 117.19 L 147.92 116.69 L 147.74 116.21 L 147.56 115.74 L 147.38 115.22 L 147.19 114.69 L 147.15 114.24 L 147.11 113.79 L 146.94 113.38 L 146.77 112.96 L 146.74 112.62 L 146.72 112.27 L 146.71 111.88 L 146.71 111.48 L 146.70 111.08 L 146.70 110.67 L 146.70 110.26 L 146.70 109.86 L 146.70 109.45 L 146.70 109.04 L 146.70 108.63 L 146.70 108.22 L 146.70 107.81 L 146.70 107.41 L 146.70 107.00 L 146.70 106.59 L 146.70 106.25 L 146.69 105.90 L 146.85 105.51 L 147.01 105.12 L 147.05 104.64 L 147.09 104.17 L 147.10 103.75 L 147.11 103.33 L 147.10 102.98 L 147.10 102.64 L 147.24 102.30 L 147.38 101.97 L 147.59 101.51 L 147.81 101.05 L 147.85 100.46 L 147.89 99.88 L 148.06 99.44 L 148.23 99.00 L 148.27 98.53 L 148.32 98.05 L 148.32 97.52 L 148.32 97.00 L 148.48 96.57 L 148.65 96.14 L 148.69 95.66 L 148.73 95.19 L 148.73 94.60 L 148.74 94.02 L 148.74 93.57 L 148.74 93.13 L 148.74 92.49 L 148.73 91.85 L 148.57 91.39 L 148.40 90.94 L 148.38 90.58 L 148.35 90.22 L 148.34 89.60 L 148.33 88.98 L 148.16 88.53 L 147.99 88.08 L 147.96 87.50 L 147.93 86.92 L 147.76 86.48 L 147.59 86.03 L 147.56 85.68 L 147.54 85.32 L 147.53 84.76 L 147.52 84.20 L 147.52 83.60 L 147.52 83.00 L 147.52 82.39 L 147.52 81.78 L 147.52 81.16 L 147.52 80.55 L 147.52 79.94 L 147.52 79.33 L 147.52 78.71 L 147.52 78.10 L 147.52 77.44 L 147.51 76.79 L 147.35 76.16 L 147.18 75.53 L 147.15 75.13 L 147.13 74.72 L 147.11 74.09 L 147.10 73.46 L 146.94 73.01 L 146.77 72.56 L 146.74 71.98 L 146.70 71.40 L 146.52 70.91 L 146.34 70.43 L 146.14 69.85 L 145.95 69.28 L 145.76 68.72 L 145.56 68.15 L 145.52 67.71 L 145.48 67.27 L 145.30 66.65 L 145.12 66.03 L 144.92 65.42 L 144.72 64.81 L 144.51 64.18 L 144.30 63.55 L 144.11 63.14 L 143.92 62.74 L 143.89 62.23 L 143.86 61.72 L 143.85 61.29 L 143.85 60.86 L 143.84 60.33 L 143.84 59.80 L 144.00 59.20 L 144.16 58.61 L 144.19 58.17 L 144.22 57.72 L 144.38 57.20 L 144.53 56.68 L 144.72 56.26 L 144.90 55.85 L 145.13 55.38 L 145.35 54.90 L 145.40 54.25 L 145.46 53.61 L 145.46 53.05 L 145.46 52.49 L 145.62 52.05 L 145.79 51.61 L 145.83 50.98 L 145.87 50.34 L 145.87 49.93 L 145.87 49.53 L 146.04 48.96 L 146.20 48.38 L 146.24 47.73 L 146.28 47.08 L 146.28 46.46 L 146.29 45.84 L 146.29 45.27 L 146.29 44.70 L 146.45 44.10 L 146.61 43.49 L 146.64 42.88 L 146.68 42.27 L 146.84 41.70 L 147.00 41.14 L 147.20 40.49 L 147.41 39.84 L 147.45 39.18 L 147.50 38.51 L 147.51 38.05 L 147.51 37.59 L 147.51 37.07 L 147.51 36.55 L 147.67 36.12 L 147.83 35.69 L 147.87 35.22 L 147.91 34.74 L 147.92 34.32 L 147.92 33.90 L 147.93 33.49 L 147.93 33.07 L 147.93 32.50 L 147.93 31.93 L 147.93 31.49 L 147.93 31.05 L 147.93 30.47 L 147.93 29.89 L 147.93 29.45 L 147.93 29.00 L 147.93 28.43 L 147.93 27.85 L 147.93 27.24 L 147.93 26.64 L 147.92 26.14 L 147.92 25.64 L 147.74 24.99 L 147.56 24.34 L 147.36 23.89 L 147.16 23.44 L 146.97 22.90 L 146.78 22.37 L 146.74 22.08 L 146.69 21.78 L 146.53 21.41 L 146.36 21.04 L 146.31 20.60 L 146.27 20.17 L 146.04 19.82 L 145.81 19.48 L 145.43 19.08 L 145.05 18.68 L 144.81 18.44 L 144.57 18.20 L 144.39 18.02 L 144.22 17.85 L 144.02 17.49 L 143.82 17.13 L 143.62 16.90 L 143.41 16.66 L 143.18 16.25 L 142.94 15.83 L 142.53 15.55 L 142.12 15.28 L 141.91 15.09 L 141.70 14.90 L 141.53 14.74 L 141.35 14.57 L 141.16 14.22 L 140.96 13.86 L 140.69 13.56 L 140.42 13.25 L 140.04 13.02 L 139.65 12.81 L 139.41 12.60 L 139.17 12.39 L 138.79 12.19 L 138.42 11.98 L 138.22 11.81 L 138.02 11.63 L 137.81 11.44 L 137.61 11.24 L 137.31 10.97 L 137.01 10.70 L 136.58 10.64 L 136.15 10.57 L 135.81 10.42 L 135.47 10.27 L 135.01 10.06 L 134.55 9.84 L 134.13 9.80 L 133.72 9.76 L 133.30 9.58 L 132.89 9.41 L 132.25 9.37 L 131.61 9.32 L 130.99 9.32 L 130.38 9.31 L 129.77 9.31 L 129.15 9.31 L 128.38 9.31 L 127.60 9.31 L 126.91 9.31 L 126.22 9.31 L 125.59 9.48 L 124.96 9.64 L 124.49 9.68 L 124.01 9.72 L 123.59 9.89 L 123.18 10.06 L 122.83 10.08 L 122.49 10.11 L 121.93 10.11 L 121.37 10.12 L 120.93 10.12 L 120.49 10.12 L 120.08 10.12 L 119.66 10.12 L 119.20 10.13 L 118.75 10.13 L 118.16 10.30 L 117.58 10.46 L 117.18 10.49 L 116.79 10.52 L 116.17 10.53 L 115.56 10.53 L 114.95 10.70 L 114.34 10.87 L 113.77 10.89 L 113.20 10.92 L 112.44 10.93 L 111.67 10.94 L 111.03 10.94 L 110.38 10.94 L 109.76 10.94 L 109.14 10.94 L 108.53 10.94 L 107.92 10.94 L 107.30 10.94 L 106.69 10.94 L 106.08 10.94 L 105.47 10.94 L 104.85 10.94 L 104.24 10.94 L 103.46 10.94 L 102.69 10.94 L 102.04 10.94 L 101.40 10.94 L 100.74 10.94 L 100.09 10.94 L 99.30 11.11 L 98.52 11.27 L 97.72 11.30 L 96.91 11.34 L 95.93 11.51 L 94.96 11.68 L 94.11 11.71 L 93.26 11.74 L 92.27 11.91 L 91.28 12.08 L 90.78 12.12 L 90.28 12.15 L 89.70 12.16 L 89.11 12.16 L 88.51 12.16 L 87.90 12.16 L 87.29 12.16 L 86.68 12.16 L 86.23 12.16 L 85.78 12.16 L 85.53 12.16 L 85.27 12.16 L 84.90 12.16 L 84.52 12.16 L 84.18 12.17 L 83.85 12.18 L 83.45 12.02 L 83.06 11.86 L 82.59 11.82 L 82.12 11.77 L 81.69 11.77 L 81.27 11.76 L 80.70 11.76 L 80.13 11.76 L 79.69 11.76 L 79.25 11.76 L 78.84 11.76 L 78.42 11.76 L 77.85 11.76 L 77.27 11.76 L 76.67 11.76 L 76.06 11.76 L 75.45 11.76 L 74.84 11.76 L 74.39 11.76 L 73.94 11.76 L 73.53 11.76 L 73.11 11.76 L 72.70 11.76 L 72.29 11.76 L 71.72 11.76 L 71.15 11.76 L 70.71 11.76 L 70.26 11.76 L 70.01 11.76 L 69.76 11.76 L 69.69 11.76 L 69.63 11.77 L 69.56 11.79 L 69.49 11.81 L 69.43 11.84 L 69.37 11.87 L 69.32 11.92 L 69.27 11.96 L 69.22 12.01 L 69.18 12.07 L 69.15 12.13 L 69.11 12.19 L 69.10 12.25 L 69.08 12.32 L 69.07 12.39 L 69.06 12.46 L 69.07 12.52 L 69.08 12.59 L 69.10 12.66 L 69.11 12.72 L 69.15 12.78 L 69.18 12.85 L 69.22 12.89 L 69.27 12.94 L 69.32 12.99 L 69.37 13.03 L 69.43 13.06 L 69.49 13.09 L 69.56 13.11 L 69.63 13.13 L 69.69 13.14 L 69.76 13.15 L 69.83 13.14 L 69.90 13.13 L 69.96 13.11 L 70.03 13.09 L 70.09 13.06 L 70.15 13.03 L 70.20 12.99 L 70.26 12.94 L 70.30 12.89 L 70.34 12.85 L 70.38 12.78 L 70.41 12.72 L 70.43 12.66 L 70.45 12.59 L 70.45 12.52 L 70.46 12.46 L 70.45 12.39 L 70.45 12.32 L 70.43 12.25 L 70.41 12.19 L 70.38 12.13 L 70.34 12.07 L 70.30 12.01 L 70.26 11.96 L 70.20 11.92 L 70.15 11.87 L 70.09 11.84 L 70.03 11.81 L 69.96 11.79 L 69.90 11.77 Z"/></svg>
