<svg preserveAspectRatio="none" xmlns="http://www.w3.org/2000/svg" viewBox="8.13 8.13 169.42 172.56" xmlns:v="https://vecta.io/nano"><path d="M92.56 18.62h0l-.53-.27-.53-.26-.73.07-.73.08-.57.18-.57.18-.7.13-.69.14-.91.03-.9.02-1.11.1-1.11.09-1.28.11-1.28.1-1.11.11-1.12.11-.94.02-.95.02h-.89-.88l-.96-.18-.97-.19-.92-.12-.93-.11-.93-.02-.93-.02h-.79l-.79-.01h-.77-.77l-.9-.09-.9-.09-.87-.11-.88-.11-.87-.1-.87-.11-.7-.11-.71-.11-.58-.12-.58-.11-.63-.09-.63-.11-.77-.01-.77-.02h-.76-.77l-.9-.1-.9-.09-.74-.01-.74-.01-.61.08-.61.08-.79.02-.8.02-.71.09-.72.09-.8.02-.81.01h-.77-.77-.76-.76-.67-.68l-.59.09-.6.09-.59.18-.59.18-.66.05-.66.05-.57.01-.57.01-1.08.1-1.08.11-.91.19-.91.18-.78.04-.77.03-.87-.24-.87-.23-.78-.44-.79-.43-.64-.3-.64-.29-.82-.12-.83-.12-1.1.77-1.1.75-.52.59-.53.59-.44.55-.45.55-.34.44-.34.44-.64.97-.64.97-.49.85-.49.86-.63 1.06-.64 1.06-.35.85-.35.85-.23.74-.23.75-.22.68-.23.68-.11.69-.11.68-.21.88-.21.88-.22.87-.21.87-.12.83-.12.83-.21.82-.21.83-.12.73-.12.72-.1.93-.11.92-.11 1.06-.11 1.05-.02.96-.01.96-.1 1.01-.09 1.02-.11.9-.11.9-.01.74-.02.74-.1.81-.09.81-.01.63-.02.63v.83.83.77.77l.08.81.09.81.19.82.19.81.13.81.13.81.19.72.19.72.21.76.22.76.14.9.13.91.12.97.11.97.11.79.11.79.11.86.11.86.11.77.1.78.03.9.02.91V78v.87l.09.83.09.82.02.73.02.73v.75.76.85.86.77.78l-.09.9-.09.9-.01.74-.02.74v.76.76.85.85.78.78.76.77l-.1.81-.09.81-.01.63-.02.63-.09.79-.1.8-.11.68-.1.68-.22.72-.21.71-.11.53-.12.53-.11.54-.11.54-.11 1-.12 1-.1.61-.1.6-.01.59-.02.59-.1.54-.1.54-.01.8-.01.79.08.78.08.78.21.86.21.85.03.62.03.61.11 1.09.11 1.09.11 1.08.11 1.09.19 1.02.19 1.02.03.61.03.62v.55.56l.09.57.08.58.11.64.1.64.03.71.02.71.09.71.09.7.02.71.02.71v.76l.01.75-.1.65-.09.65-.11 1.18-.11 1.18-.11.66-.1.65-.02.6-.01.59v.56l-.01.55v.64.63.56.56l-.09.7-.1.7-.01.6-.01.6v.55.56l-.1.61-.1.62-.01.91-.01.92v.54.54l-.1.69-.09.7-.11 1.04-.12 1.04-.01.7-.01.7.19.75.18.75.03.61.03.61v.56l.01.55.1 1.08.11 1.07.19.91.19.91.14.96.13.96v.63l.01.63v.65.65l-.01.54v.55l.67.51.66.52.52.61.52.6.41.35.41.35.79.17.79.17.48.25.48.24.41.37.42.36.56.67.57.67.45.67.45.68.35.45.36.45.77-.4.78-.4.61-.27.6-.28.55-.22.55-.23.55-.22.54-.22.57-.36.56-.36.45-.33.45-.32.82-.33.83-.32.53.06.53.06h.56l.57.01.76-.08.75-.09.6-.02.61-.02.55-.01h.55l.78-.18.79-.18.74-.25.74-.24.7-.01.7-.01.85.21.85.21.94.33.94.34.89.31.88.31.59.22.59.22.92.22.92.21.8.23.8.22.96.01.96.01.57-.09.57-.09.64-.1.64-.1.71-.03.71-.02.6-.09.61-.09.61-.02.61-.02h1l1-.01.57-.08.57-.09.7-.02.7-.02.7-.09.7-.09.7-.18.71-.19.7-.13.7-.13.63-.03.63-.03 1.08-.11 1.08-.11.7-.09.69-.09.85-.1.85-.11.77-.11.77-.1.66-.11.67-.11.65-.11.66-.1.55-.11.55-.11.75-.11.75-.11.81-.19.81-.2.71-.13.71-.13.72-.02.72-.03h.58l.57-.01h.9.9.62.61.65.65.74.73.67.67.66.65l.56.1.55.1.73.11.73.12.85.11.84.11 1.1.31 1.1.32 1.02.22 1.02.21.91.23.91.22.86.6.86.61.69.16.7.16.83.11.83.1.95.21.96.22.89.12.89.12.86-.21.85-.21.81-.01h.81l.77-.09.76-.08.53-.1.53-.11 1.14-.24 1.15-.24.56-.01h.57l.99.1.98.09.89.01.89.01.56-.08.55-.09.64-.1.64-.11.9-.02.89-.02.78-.01h.78l.9.09.91.09.65.02.65.01.59-.08.59-.09.64-.1.65-.11.65-.1.65-.11.71-.03.71-.02h.58l.57-.01.54.1.55.1.7.01.7.01h.64.64.67.67l.87.11.86.1 1.05.01h1.05.89.9l.52.1.52.1.82.22.82.23h.8l.8.01 1.1-.4 1.1-.4.5-.19.5-.19.6-.14.6-.14.85-.44.85-.45.38-.36.39-.37.59-.39.58-.39.56-.34.55-.34.55-.19.54-.18.7-.28.69-.28.65-.71.64-.72.32-.43.32-.43.33-.43.32-.43.3-.81.29-.8.21-.66.21-.66.11-.6.11-.59.02-.59.01-.58.1-.7.1-.7.01-.69.01-.7v-.84-.84-.77l.01-.78v-.85-.86l-.09-.82-.09-.82-.19-.72-.18-.72-.22-.96-.21-.95-.22-1.17-.22-1.17-.14-1.04-.13-1.03-.02-1.03-.03-1.03-.17-.61-.17-.61-.13-.7-.13-.69-.11-.76-.11-.76-.03-.9-.02-.91v-.87l-.01-.88v-.78-.78-.77-.76l.1-.73.09-.73.01-.7.01-.7.1-.8.1-.81.01-.62.01-.63v-.65l.01-.64-.11-.9-.1-.9-.11-.77-.11-.76.1-.98.09-.97.1-.6.11-.6.01-.59.01-.59.2-.83.19-.83.12-.89.11-.89.21-.93.21-.92.11-.92.12-.93.21-1 .21-1.01.12-.87.12-.86.11-.95.11-.95.1-.98.11-.97.11-1.07.11-1.07.11-1.08.11-1.08.11-1.01.11-1 .01-.76.02-.77-.09-.7-.08-.71-.19-.81-.18-.8-.13-.91-.14-.9-.19-.73-.19-.74-.21-.75-.21-.76-.22-.65-.21-.66-.22-.76-.22-.76-.14-.81-.14-.81-.2-.82-.19-.82-.21-.77-.21-.76-.22-.65-.21-.66-.14-.61-.13-.6-.04-.63-.03-.62v-.56l-.01-.56v-.64-.64l.1-.63.09-.63.11-.72.1-.72.22-.73.21-.73.11-.61.12-.61.1-.73.11-.72.11-.68.11-.67.11-1.2.11-1.19.02-.69.01-.69.09-.89.1-.88.11-.88.1-.87.11-.78.11-.79.02-.72.01-.71v-.76l.01-.75V52v-.76-.85-.86l.09-.91.09-.91.11-.79.11-.8.01-.71.02-.72v-.85V43v-.78-.77-.86-.85-.78-.78l.1-.73.09-.73.01-.61.01-.61.01-.64v-.65l-.09-.59-.08-.59-.02-.8-.02-.79v-.77l-.01-.76v-.68-.67l-.19-1.03-.18-1.03-.11-.54-.11-.55-.11-.64-.11-.65-.19-.59-.18-.6-.22-.64-.21-.64-.26-.48-.26-.48-1.04-.52-1.03-.53-.7-.22-.7-.21-.68-.23-.68-.22-.58-.22-.59-.23-.49-.23-.49-.23-.94-.42-.94-.42-.61-.21-.61-.21-.57-.22-.58-.23-.6-.33-.61-.34-.53-.47-.53-.47-.47-.3-.48-.29-.95-.44-.94-.43-.87-.21-.86-.2-.61-.22-.6-.22-1.1-.21-1.1-.22-.68-.01-.67-.01-.84-.01h-.84l-.63.09-.63.08-.74.11-.75.1-.62.02-.63.03-.71-.09-.72-.1-.79-.2-.79-.21-.89-.11-.88-.11-.57-.02-.57-.02-.78-.1-.78-.09-.71-.02-.71-.01h-.93-.94-.97-.97-.8-.8-.76-.77-.77-.76-.67-.67-.84-.84l-.91-.1-.91-.09-.74-.01-.74-.02h-.85-.85-.69-.68-1.19-1.19l-.76.17-.75.17-.9.13-.89.12-.78.11-.78.11-.67.11-.66.11-.66.11-.65.11-.77.27-.76.27-1.13.41-1.13.41-.91.34-.91.34-.6.23-.6.24-.5.26-.5.26-1.01.81-1.02.81-.84.64-.84.63-.65.62-.64.62-.58.48-.59.49-.19.27-.19.26-.08.06-.09.06-.1.03-.1.03-.11.01-.11.01-.1-.01-.11-.02-.09-.04-.1-.04-.09-.06-.08-.07-.07-.08-.07-.08-.04-.1-.05-.09-.02-.1-.02-.11v-.1-.11l.03-.1.03-.11.05-.09.05-.09.08-.08.07-.07.96-1 .95-.99.08-.07.07-.08.1-.05.09-.04.11-.02.09-.01.11.02.1.02.1.05.09.05.07.08.07.08.04.1.04.1.01.1.01.1-.03.1-.02.11-.06.09-.06.08-.08.07-.08.07-.1.03-.1.04h-.11l-.1.01-.1-.04-.1-.03-.08-.06-.09-.06-.06-.09-.06-.08-.03-.11-.04-.1.01-.09v-.11l.04-.1.03-.1.07-.08.07-.08.09-.06.09-.06.1-.02.1-.03.1.01.11.01.09.04.1.04.08.07-.82 1.26h0 0l.1.04.1.03.11.01.09.02.11-.02.1-.01.1-.04.1-.04.09-.07.08-.06.07-.08.07-.08.05-.09.04-.1.03-.1.02-.11v-.09-.11l-.03-.1-.03-.1-.05-.1-.05-.09-.07-.08-.07-.08-.09-.05-.09-.06-.54-.28-.56-.27-.59-.09-.6-.09-.64.09-.64.09-.69.2-.7.21-.6.12-.6.11-.76.01-.77.01-1.16.1-1.16.09-1.27.11-1.28.11-1.13.11-1.13.1-.88.02-.88.02h-.86-.87l-.79-.17-.78-.17-1-.12-.99-.13-1.02-.03-1.03-.02h-.8l-.81-.01h-.77-.77l-.8-.09-.81-.08-.86-.11-.86-.1-.87-.11-.87-.11-.68-.11-.67-.1-.56-.11-.55-.11-.65-.11-.65-.11-.89-.02-.9-.03h-.78-.78l-.81-.09-.81-.09-.82-.02-.81-.02-.74.1-.74.09-.7.01-.7.01-.81.1-.8.09-.72.01-.71.02h-.76-.75-.76-.76-.68-.67l-.71.1-.72.09-.72.21-.71.21-1 .02-.99.02-.61.1-.61.1-1.09.11-1.09.11-.75.12-.75.11-.61.01-.61.01-.57-.35-.57-.35-.63-.41-.64-.41-.52-.18-.53-.18-1.09-.15-1.09-.14-.8.3-.81.3-.84.65-.83.64-.64.7-.63.68-.47.57-.47.58-.36.47-.36.47-.27.49-.28.5-.37.47-.36.47-.55.95-.56.95-.62 1.05-.63 1.05-.41.96-.4.96-.26.82-.26.83-.22.67-.22.67-.15.81-.14.81-.2.82-.19.82-.22.86-.21.87-.14.91-.13.91-.19.74-.2.73-.13.8-.13.81-.12.96-.11.96-.11 1.07-.11 1.07-.02 1.04-.02 1.03-.1.94-.09.95-.1.88-.11.88-.02.83-.02.82-.09.73-.09.72-.02.71-.02.72v.85.84.78.77l.09.9.09.91.2.91.21.92.12.75.12.76.21.81.21.8.21.77.22.77.12.8.11.8.11.94.11.95.11.8.11.81.11.85.11.85.11.79.11.78.01.8.02.81v.86.86l.1.91.09.92.01.65.02.66v.74.74.85.85.77.78l-.09.81-.08.81-.02.81-.02.82v.77.77.86.85.78.78.76.76l-.09.72-.09.71-.02.71-.02.71-.09.71-.09.7-.1.65-.1.66-.19.59-.18.6-.14.6-.13.59-.11.56-.12.55-.02.62-.03.61-.19 1.02-.2 1.02-.02.7-.03.71-.11.91-.1.91-.01.89v.89l.1.53.1.52.21.88.22.89.11 1.04.1 1.03.11 1.09.11 1.09.11 1.09.11 1.09.11.55.1.55.02 1.01.01 1.01.1.69.09.7.11.66.11.65.01.6.01.59.1.79.09.78.02.63.01.62v.74.74l-.1 1.11-.11 1.12-.08.58-.09.59-.11.64-.1.64-.03.71-.02.71v.58l-.01.57v.64.64.56.56l-.08.58-.09.57-.02.7-.02.71v.57.56l-.11.99-.11.99v.55.54.54.54l-.09.58-.09.57-.01.61-.02.61-.11.89-.11.89.09.88.1.87.12.88.11.88.1 1.14.1 1.15.11 1.01.11 1.02.11.52.1.53.12.82.12.82v.6l.01.6v.65.64.58l.01.59.22.54.22.54.71.51.72.51.4.54.4.54.68.59.67.59.5.16.51.17.55.11.54.12.49.4.49.39.53.63.53.63.55.77.55.76.68.57.68.57 1.04-.17 1.03-.16.47-.33.46-.34.97-.4.98-.4.54-.22.54-.22.7-.43.71-.43.49-.36.49-.35.54-.2.53-.21.53.11.53.1.76.01h.76l.97-.11.97-.1.53-.01h.53l.54-.1.53-.1.91-.35.9-.35.77.02.78.01.64.18.64.18.79.29.79.28 1.04.37 1.04.36.98.33.98.32.56.12.55.12.77.21.77.22.61.03.62.03h.55l.56.01.7-.1.69-.09.66-.11.66-.11.6-.01.59-.01.7-.1.71-.1.96-.01.96-.01 1.22-.1 1.22-.09.6-.02.59-.01.79-.09.79-.1.81-.21.82-.2.64-.12.64-.12 1.03-.11 1.03-.12.54-.01.55-.01.78-.09.78-.1.85-.1.85-.11.78-.11.78-.11.69-.11.68-.11.66-.11.66-.11.57-.11.58-.11.71-.11.71-.1.88-.21.88-.2.66-.12.67-.12.59-.02.6-.01h.55l.55-.01h.9.89.62.61.65.65.74.73.67.67.65.66l.81.19.82.18.77.11.77.12.87.1.87.11 1.06.32 1.07.32.55.12.55.11.87.21.87.21.5.41.49.41.68.33.67.32.56.06.56.06.69.09.68.08.97.22.96.21 1.07.14 1.06.13.61-.2.61-.21h.72l.73-.01h.67.67l.58-.1.59-.1.54-.1.55-.11.6-.22.61-.21.94-.02.95-.01.8.08.8.08.6.02.6.03 1.15-.09 1.14-.1.66-.1.65-.11.77-.01.78-.01.76-.01h.77l.81.09.8.09.73.01.72.02.73-.09.72-.09.67-.11.67-.11.65-.11.66-.1.59-.02.59-.01h.55l.56-.01.88.11.88.1.6.01h.6.74.74l.65.08.66.08 1.05.03 1.04.03h.55.54.89.89l.77.18.77.19.85.14.85.13h.56.56l.72-.31.71-.31.54-.1.53-.1.62-.22.61-.22 1.1-.33 1.1-.33.54-.35.55-.36.49-.45.49-.46.47-.29.46-.3.53-.32.53-.32.78-.21.78-.22.95-.7.95-.7.39-.47.38-.48.34-.44.34-.44.32-.44.33-.44.27-.49.28-.49.17-.63.17-.62.19-.61.2-.6.13-.7.14-.7.03-.72.03-.72.09-.61.09-.6.02-.8.02-.8v-.85l.01-.86v-.78-.78-.85-.86l-.1-.91-.09-.92-.21-.84-.2-.84-.21-.93-.22-.94-.21-1.14-.21-1.14-.13-.98-.12-.98-.02-.95-.02-.94-.2-.81-.19-.8-.12-.64-.11-.63-.11-.73-.11-.73-.01-.79-.02-.8v-.86-.86l-.01-.77v-.78-.77-.76l.09-.62.09-.61.02-.8.02-.79.08-.72.09-.71.02-.72.02-.71.01-.67v-.66l-.1-.56-.1-.55-.11-.82-.12-.82v-.74l-.01-.74.19-.98.19-.98.03-.7.02-.71.17-.65.17-.65.13-.99.14-.99.19-.84.19-.84.14-1 .13-1.01.19-.94.2-.95.13-.91.13-.92.11-.98.12-.97.1-.98.11-.98.11-1.07.11-1.08.11-1.08.11-1.09.11-.99.11-1 .02-.84.02-.84-.09-.83-.09-.82-.2-.91-.21-.9-.11-.83-.12-.83-.21-.83-.21-.83-.22-.77-.22-.77-.22-.69-.22-.69-.22-.74-.21-.73-.12-.71-.11-.71-.21-.88-.21-.88-.22-.79-.22-.8-.22-.69-.22-.69-.12-.53-.12-.52-.01-1-.02-1v-.64-.63l.19-1.22.2-1.23.18-.6.19-.6.13-.7.14-.7.11-.76.11-.76.11-.67.11-.66.02-.62.03-.62.09-.59.09-.59.02-.8.02-.79.09-.81.09-.81.1-.86.11-.86.11-.78.11-.77.02-.81.02-.82v-.77l.01-.77V52v-.76-.85-.85l.09-.83.08-.82.11-.77.1-.76.02-.82.03-.81v-.86-.86-.78-.78-.86-.85-.78-.78l.09-.61.09-.62.02-.7.01-.71.01-.66v-.66l-.09-.72-.1-.71-.01-.7-.01-.69v-.75l-.01-.75v-.67-.67l-.09-.64-.1-.63-.11-.56-.1-.56-.11-.55-.11-.55-.11-.62-.11-.63-.21-.7-.21-.7-.22-.67-.22-.66-.35-.65-.35-.65-.62-.5-.62-.49-.79-.38-.79-.38-.81-.24-.81-.26-.66-.22-.66-.22-.55-.21-.54-.21-.86-.42-.86-.42-.56-.23-.55-.23-.66-.23-.65-.23-.55-.21-.54-.21-.49-.28-.49-.28-.96-.74-.96-.75-.61-.27-.6-.27-.94-.37-.95-.37-.56-.12-.56-.12-1.07-.32-1.08-.32-.66-.12-.66-.11-.8-.03-.81-.02-.86-.01h-.85l-.75.09-.74.1-.76.1-.75.11-1.1-.07-1.1-.07-.69-.19-.69-.18-.99-.14-.99-.13-.66-.02-.65-.03-.7-.09-.69-.09-.81-.02-.8-.02h-.95-.95-.98l-.97-.01h-.8-.8-.76-.77-.77-.76-.67-.67-.84-.84l-.82-.08-.81-.09-.82-.02-.82-.02h-.86-.86-.69-.69-1.19-1.2l-.93.19-.94.19-.83.11-.84.12-.78.11-.78.11-.68.11-.69.11-.66.11-.65.11-.91.31-.91.31-1.14.41-1.14.41-.92.34-.92.35-.61.24-.62.24-.74.4-.74.41-1.01.81-1.01.81-.81.61-.82.62-.71.68-.72.67-.54.45-.55.46-.19.26-.18.26-.07.07-.08.08-.05.09-.05.09-.03.11-.03.1v.11.1l.02.11.02.1.05.09.04.1.07.08.07.08.08.07.09.06.1.04.09.04.11.02.1.01.11-.01.11-.01.1-.03.1-.03.09-.06.08-.06.93-1.29.92-1.29h0 0l.04-.1.05-.09.02-.11.01-.09-.02-.11-.02-.1-.05-.09-.05-.1z"/></svg>