<svg preserveAspectRatio="none" xmlns="http://www.w3.org/2000/svg" viewBox="8.13 8.30 102.89 43.09"><path fill="#000" d="M 61.61 12.45 L 61.61 12.45 L 60.86 12.64 L 60.10 12.83 L 59.34 12.88 L 58.59 12.93 L 58.01 12.93 L 57.43 12.93 L 56.56 13.04 L 55.69 13.15 L 54.67 13.27 L 53.66 13.38 L 52.93 13.29 L 52.19 13.19 L 51.58 13.08 L 50.97 12.96 L 50.26 12.74 L 49.54 12.52 L 48.82 12.40 L 48.10 12.29 L 47.46 12.27 L 46.82 12.26 L 45.87 12.25 L 44.92 12.25 L 44.31 12.25 L 43.70 12.25 L 43.05 12.36 L 42.40 12.47 L 41.59 12.66 L 40.78 12.86 L 40.24 12.89 L 39.70 12.92 L 38.67 13.04 L 37.64 13.15 L 36.80 13.24 L 35.96 13.33 L 35.41 13.43 L 34.86 13.52 L 34.14 13.57 L 33.42 13.62 L 32.75 13.62 L 32.08 13.62 L 31.30 13.62 L 30.52 13.62 L 29.72 13.62 L 28.92 13.62 L 28.10 13.51 L 27.28 13.40 L 26.68 13.28 L 26.09 13.17 L 25.52 13.16 L 24.96 13.16 L 24.39 13.16 L 23.81 13.16 L 23.15 13.25 L 22.48 13.33 L 21.82 13.54 L 21.16 13.76 L 20.47 13.98 L 19.79 14.21 L 19.09 14.33 L 18.39 14.46 L 17.72 14.68 L 17.06 14.89 L 16.62 15.24 L 16.18 15.58 L 15.61 16.03 L 15.05 16.48 L 14.64 16.86 L 14.23 17.25 L 13.81 17.86 L 13.39 18.47 L 13.06 19.18 L 12.73 19.89 L 12.51 20.78 L 12.28 21.67 L 12.17 22.21 L 12.06 22.74 L 11.95 23.31 L 11.83 23.87 L 11.72 24.44 L 11.60 25.01 L 11.48 25.88 L 11.36 26.74 L 11.25 27.70 L 11.14 28.65 L 11.13 29.72 L 11.12 30.78 L 11.12 31.35 L 11.12 31.92 L 11.02 32.56 L 10.92 33.20 L 10.90 34.07 L 10.89 34.94 L 10.89 35.83 L 10.89 36.73 L 11.09 37.78 L 11.28 38.83 L 11.40 39.40 L 11.51 39.97 L 11.77 40.66 L 12.02 41.35 L 12.65 41.56 L 13.29 41.77 L 14.16 42.40 L 15.03 43.03 L 15.53 43.51 L 16.02 44.00 L 16.62 44.52 L 17.23 45.05 L 17.78 45.12 L 18.33 45.20 L 19.41 45.31 L 20.50 45.41 L 21.52 45.53 L 22.55 45.64 L 23.55 45.75 L 24.55 45.87 L 25.50 45.98 L 26.45 46.10 L 27.26 46.21 L 28.06 46.33 L 28.88 46.56 L 29.69 46.79 L 30.60 46.91 L 31.52 47.03 L 32.14 47.13 L 32.77 47.24 L 33.35 47.35 L 33.93 47.46 L 34.87 47.58 L 35.82 47.70 L 36.36 47.81 L 36.91 47.92 L 38.04 48.03 L 39.16 48.15 L 39.76 48.16 L 40.37 48.17 L 41.10 48.27 L 41.83 48.37 L 42.44 48.49 L 43.05 48.60 L 43.74 48.61 L 44.44 48.63 L 45.12 48.63 L 45.81 48.63 L 46.39 48.46 L 46.96 48.28 L 47.84 48.24 L 48.71 48.19 L 49.62 48.18 L 50.53 48.18 L 51.44 48.18 L 52.35 48.18 L 53.12 48.08 L 53.89 47.99 L 54.73 47.97 L 55.58 47.95 L 56.13 47.86 L 56.68 47.77 L 57.45 47.66 L 58.22 47.55 L 58.91 47.43 L 59.61 47.32 L 60.24 47.13 L 60.87 46.93 L 61.53 46.71 L 62.21 46.49 L 62.73 46.20 L 63.24 45.90 L 63.73 45.65 L 64.22 45.40 L 65.09 45.09 L 65.95 44.77 L 66.67 44.57 L 67.40 44.37 L 68.21 44.25 L 69.02 44.13 L 69.65 44.10 L 70.28 44.07 L 71.13 44.07 L 71.98 44.07 L 72.52 44.17 L 73.05 44.27 L 73.80 44.51 L 74.55 44.75 L 75.21 45.12 L 75.87 45.48 L 76.42 45.82 L 76.98 46.16 L 77.58 46.25 L 78.18 46.34 L 78.94 46.57 L 79.71 46.79 L 80.40 46.80 L 81.10 46.80 L 81.64 46.91 L 82.18 47.01 L 82.93 47.14 L 83.68 47.26 L 84.36 47.26 L 85.04 47.26 L 85.83 47.37 L 86.62 47.48 L 87.41 47.60 L 88.20 47.71 L 89.28 47.72 L 90.37 47.72 L 90.95 47.72 L 91.54 47.72 L 92.20 47.72 L 92.87 47.72 L 93.46 47.72 L 94.05 47.72 L 94.90 47.63 L 95.75 47.55 L 96.57 47.26 L 97.39 46.97 L 97.90 46.67 L 98.42 46.37 L 98.98 46.03 L 99.54 45.70 L 100.19 45.27 L 100.84 44.84 L 101.56 44.46 L 102.28 44.08 L 102.72 43.77 L 103.17 43.46 L 103.82 42.71 L 104.47 41.97 L 104.88 41.18 L 105.29 40.39 L 105.50 39.87 L 105.72 39.35 L 106.05 38.15 L 106.38 36.96 L 106.62 36.34 L 106.85 35.73 L 107.09 34.74 L 107.32 33.74 L 107.44 32.91 L 107.56 32.07 L 107.67 31.09 L 107.78 30.10 L 107.90 29.17 L 108.02 28.24 L 108.12 27.61 L 108.23 26.98 L 108.24 25.92 L 108.25 24.85 L 108.06 23.90 L 107.87 22.95 L 107.58 22.24 L 107.28 21.52 L 106.81 20.81 L 106.33 20.10 L 105.91 19.67 L 105.50 19.25 L 104.77 18.96 L 104.04 18.66 L 102.88 18.44 L 101.72 18.22 L 101.04 18.11 L 100.36 17.99 L 99.54 17.77 L 98.72 17.56 L 98.13 17.43 L 97.55 17.31 L 96.66 17.06 L 95.77 16.82 L 95.03 16.42 L 94.28 16.01 L 93.65 15.59 L 93.02 15.16 L 92.34 14.71 L 91.67 14.25 L 90.83 13.94 L 89.99 13.62 L 89.07 13.29 L 88.14 12.96 L 87.47 12.95 L 86.81 12.94 L 86.12 12.94 L 85.43 12.93 L 84.19 12.93 L 82.95 12.93 L 81.96 12.93 L 80.98 12.93 L 79.87 12.93 L 78.76 12.93 L 77.65 13.03 L 76.55 13.12 L 75.52 13.23 L 74.48 13.34 L 73.60 13.36 L 72.72 13.38 L 71.62 13.38 L 70.52 13.39 L 69.07 12.99 L 67.63 12.60 L 66.26 12.15 L 64.88 11.70 L 63.63 11.36 L 62.37 11.00 L 61.37 10.99 L 60.35 10.98 L 60.89 11.61 L 61.41 12.25 L 61.34 12.24 L 61.26 12.24 L 61.19 12.21 L 61.12 12.18 L 61.05 12.14 L 60.98 12.10 L 60.93 12.04 L 60.87 11.98 L 60.84 11.91 L 60.80 11.84 L 60.78 11.77 L 60.76 11.69 L 60.75 11.61 L 60.75 11.54 L 60.77 11.47 L 60.79 11.39 L 60.82 11.32 L 60.85 11.25 L 60.91 11.19 L 60.96 11.13 L 61.02 11.08 L 61.08 11.03 L 61.16 11.00 L 61.23 10.97 L 61.31 10.96 L 61.39 10.95 L 61.58 11.01 L 61.78 11.08 L 61.86 11.15 L 61.93 11.23 L 61.98 11.32 L 62.02 11.42 L 62.04 11.52 L 62.05 11.62 L 62.03 11.72 L 62.01 11.83 L 61.96 11.92 L 61.90 12.01 L 61.82 12.08 L 61.74 12.15 L 61.64 12.19 L 61.55 12.23 L 61.44 12.24 L 61.34 12.25 L 61.24 12.22 L 61.14 12.20 L 61.05 12.14 L 60.96 12.08 L 60.90 12.00 L 60.83 11.91 L 60.79 11.81 L 60.76 11.71 L 60.76 11.61 L 60.76 11.51 L 60.79 11.41 L 60.82 11.31 L 60.88 11.22 L 60.95 11.14 L 61.03 11.07 L 61.12 11.01 L 61.22 10.98 L 61.32 10.95 L 61.42 10.96 L 61.53 10.96 L 61.62 11.00 L 61.72 11.04 L 61.81 11.10 L 61.89 11.17 L 61.94 11.26 L 62.00 11.35 L 62.03 11.46 L 62.05 11.56 L 62.04 11.65 L 62.03 11.76 L 61.99 11.86 L 61.61 12.45 L 61.61 12.45 L 61.61 12.45 L 61.71 12.41 L 61.81 12.37 L 61.89 12.31 L 61.98 12.25 L 62.05 12.17 L 62.12 12.09 L 62.17 12.00 L 62.22 11.90 L 62.24 11.80 L 62.27 11.70 L 62.27 11.60 L 62.27 11.50 L 62.24 11.39 L 62.22 11.29 L 62.17 11.20 L 62.12 11.10 L 62.05 11.02 L 61.98 10.94 L 61.89 10.88 L 61.80 10.82 L 61.70 10.79 L 61.60 10.75 L 61.50 10.74 L 61.40 10.72 L 61.30 10.74 L 61.19 10.75 L 60.43 10.94 L 59.68 11.13 L 59.12 11.15 L 58.56 11.18 L 57.99 11.18 L 57.42 11.18 L 56.90 11.29 L 56.37 11.39 L 55.47 11.50 L 54.56 11.61 L 53.49 11.54 L 52.43 11.46 L 51.87 11.35 L 51.30 11.24 L 50.68 11.05 L 50.06 10.85 L 49.23 10.71 L 48.39 10.56 L 47.63 10.53 L 46.87 10.51 L 45.90 10.50 L 44.92 10.50 L 44.30 10.50 L 43.68 10.50 L 43.00 10.61 L 42.31 10.72 L 41.34 10.94 L 40.37 11.16 L 39.39 11.27 L 38.41 11.38 L 37.55 11.40 L 36.69 11.41 L 36.14 11.51 L 35.60 11.61 L 34.93 11.74 L 34.25 11.87 L 33.50 11.86 L 32.76 11.86 L 32.07 11.86 L 31.39 11.86 L 30.60 11.86 L 29.80 11.86 L 29.01 11.86 L 28.21 11.86 L 27.65 11.67 L 27.09 11.50 L 26.28 11.45 L 25.46 11.41 L 24.88 11.41 L 24.31 11.41 L 23.73 11.41 L 23.16 11.41 L 22.63 11.51 L 22.11 11.61 L 21.36 11.85 L 20.61 12.08 L 19.93 12.31 L 19.24 12.54 L 18.57 12.65 L 17.90 12.76 L 17.20 13.00 L 16.49 13.23 L 15.75 13.75 L 15.00 14.27 L 14.41 14.75 L 13.82 15.22 L 13.32 15.71 L 12.82 16.20 L 12.33 16.91 L 11.84 17.63 L 11.45 18.50 L 11.05 19.38 L 10.81 20.31 L 10.57 21.24 L 10.45 21.81 L 10.34 22.38 L 10.22 22.95 L 10.11 23.52 L 9.99 24.10 L 9.88 24.67 L 9.85 25.21 L 9.82 25.75 L 9.71 26.56 L 9.59 27.37 L 9.48 28.49 L 9.36 29.61 L 9.36 30.19 L 9.36 30.77 L 9.36 31.35 L 9.36 31.92 L 9.25 32.95 L 9.14 33.98 L 9.13 34.82 L 9.13 35.66 L 9.13 36.20 L 9.13 36.73 L 9.23 37.37 L 9.33 38.01 L 9.44 38.59 L 9.56 39.17 L 9.67 39.74 L 9.78 40.31 L 10.18 41.31 L 10.57 42.30 L 11.12 42.69 L 11.67 43.09 L 12.22 43.26 L 12.76 43.44 L 13.30 43.88 L 13.84 44.32 L 14.31 44.78 L 14.77 45.25 L 15.51 45.87 L 16.24 46.50 L 17.24 46.73 L 18.24 46.96 L 18.80 46.96 L 19.37 46.97 L 20.39 47.08 L 21.40 47.19 L 22.33 47.30 L 23.26 47.42 L 24.29 47.53 L 25.32 47.65 L 26.13 47.76 L 26.95 47.87 L 27.64 48.06 L 28.33 48.25 L 29.25 48.49 L 30.17 48.72 L 30.81 48.75 L 31.45 48.79 L 32.52 48.99 L 33.59 49.19 L 34.13 49.22 L 34.68 49.24 L 35.62 49.44 L 36.56 49.65 L 37.20 49.67 L 37.84 49.70 L 39.08 49.82 L 40.32 49.93 L 40.95 50.02 L 41.58 50.12 L 42.16 50.23 L 42.73 50.33 L 43.56 50.36 L 44.40 50.39 L 45.11 50.39 L 45.82 50.39 L 46.62 50.19 L 47.42 49.98 L 48.10 49.97 L 48.79 49.95 L 49.66 49.94 L 50.54 49.94 L 51.45 49.94 L 52.35 49.94 L 53.22 49.84 L 54.09 49.74 L 54.85 49.73 L 55.61 49.72 L 56.28 49.61 L 56.95 49.51 L 57.71 49.40 L 58.48 49.29 L 59.18 49.17 L 59.89 49.06 L 60.63 48.84 L 61.38 48.61 L 62.07 48.39 L 62.76 48.16 L 63.42 47.80 L 64.09 47.45 L 64.94 46.97 L 65.79 46.48 L 66.39 46.39 L 66.99 46.29 L 67.68 46.17 L 68.38 46.06 L 69.36 45.95 L 70.33 45.83 L 71.16 45.83 L 71.98 45.83 L 72.65 46.01 L 73.32 46.20 L 73.91 46.48 L 74.50 46.75 L 75.07 47.09 L 75.63 47.42 L 76.41 47.65 L 77.19 47.87 L 77.76 48.06 L 78.34 48.25 L 79.25 48.40 L 80.16 48.56 L 80.99 48.65 L 81.81 48.74 L 82.70 48.88 L 83.59 49.01 L 84.31 49.02 L 85.04 49.02 L 85.59 49.10 L 86.15 49.18 L 87.14 49.33 L 88.13 49.47 L 89.25 49.48 L 90.37 49.48 L 90.95 49.48 L 91.54 49.48 L 92.20 49.48 L 92.87 49.48 L 93.46 49.48 L 94.05 49.48 L 95.08 49.38 L 96.10 49.27 L 97.11 48.92 L 98.12 48.57 L 98.71 48.23 L 99.30 47.89 L 99.87 47.55 L 100.45 47.21 L 101.13 46.76 L 101.81 46.32 L 102.45 45.98 L 103.10 45.64 L 103.64 45.27 L 104.19 44.89 L 104.64 44.38 L 105.09 43.86 L 105.73 43.00 L 106.37 42.13 L 106.86 41.08 L 107.34 40.02 L 107.50 39.39 L 107.65 38.76 L 107.86 38.12 L 108.06 37.49 L 108.28 36.93 L 108.50 36.36 L 108.65 35.73 L 108.80 35.10 L 109.03 34.17 L 109.26 33.24 L 109.29 32.69 L 109.32 32.15 L 109.41 31.31 L 109.50 30.46 L 109.64 29.38 L 109.78 28.30 L 109.89 27.16 L 110.01 26.02 L 110.01 25.43 L 110.02 24.85 L 109.92 24.21 L 109.82 23.56 L 109.58 22.66 L 109.34 21.76 L 109.11 21.26 L 108.88 20.76 L 108.26 19.84 L 107.64 18.92 L 107.19 18.46 L 106.74 18.01 L 106.19 17.67 L 105.65 17.34 L 105.10 17.16 L 104.56 16.98 L 103.97 16.85 L 103.38 16.72 L 102.70 16.60 L 102.02 16.49 L 101.34 16.37 L 100.65 16.26 L 99.91 16.06 L 99.18 15.86 L 98.55 15.72 L 97.92 15.58 L 97.11 15.36 L 96.30 15.14 L 95.50 14.65 L 94.69 14.16 L 94.01 13.70 L 93.32 13.24 L 92.42 12.82 L 91.53 12.41 L 90.68 11.99 L 89.84 11.59 L 89.19 11.43 L 88.55 11.26 L 87.70 11.23 L 86.86 11.19 L 86.15 11.19 L 85.44 11.18 L 84.19 11.18 L 82.95 11.18 L 81.96 11.18 L 80.98 11.18 L 79.87 11.18 L 78.75 11.18 L 77.58 11.28 L 76.41 11.37 L 75.35 11.49 L 74.29 11.60 L 73.49 11.60 L 72.68 11.62 L 71.61 11.62 L 70.53 11.63 L 69.32 11.28 L 68.12 10.91 L 66.77 10.47 L 65.42 10.04 L 64.13 9.67 L 62.83 9.30 L 61.34 9.38 L 59.84 9.46 L 60.61 10.20 L 61.39 10.95 L 61.31 10.96 L 61.23 10.97 L 61.16 11.00 L 61.08 11.03 L 61.02 11.08 L 60.96 11.13 L 60.91 11.19 L 60.85 11.25 L 60.82 11.32 L 60.79 11.39 L 60.77 11.47 L 60.75 11.54 L 60.75 11.61 L 60.76 11.69 L 60.78 11.77 L 60.80 11.84 L 60.84 11.91 L 60.87 11.98 L 60.93 12.04 L 60.98 12.10 L 61.05 12.14 L 61.12 12.18 L 61.19 12.21 L 61.26 12.24 L 61.34 12.24 L 61.41 12.25 L 61.31 12.24 L 61.21 12.22 L 61.31 12.24 L 61.41 12.25 L 61.51 12.23 L 61.61 12.21 L 61.71 12.16 L 61.80 12.11 L 61.87 12.03 L 61.94 11.95 Z"/></svg>
