<svg preserveAspectRatio="none" xmlns="http://www.w3.org/2000/svg" viewBox="8.14 8.13 103.56 41.21"><path fill="#000" d="M 62.32 11.44 L 62.32 11.44 L 61.86 11.16 L 61.39 10.88 L 60.67 10.96 L 59.94 11.05 L 59.04 11.27 L 58.15 11.49 L 57.42 11.79 L 56.69 12.09 L 56.09 12.16 L 55.49 12.23 L 54.53 12.44 L 53.58 12.64 L 52.77 12.67 L 51.96 12.71 L 50.98 12.60 L 49.99 12.50 L 49.05 12.49 L 48.11 12.48 L 47.57 12.38 L 47.02 12.27 L 46.38 12.15 L 45.74 12.03 L 45.07 12.03 L 44.41 12.02 L 43.73 12.02 L 43.04 12.02 L 42.15 12.02 L 41.26 12.02 L 40.26 11.92 L 39.26 11.81 L 38.41 11.80 L 37.56 11.79 L 36.74 11.57 L 35.93 11.34 L 35.37 11.34 L 34.81 11.34 L 34.01 11.42 L 33.22 11.51 L 32.23 11.65 L 31.25 11.79 L 30.12 11.90 L 29.00 12.02 L 28.42 12.02 L 27.84 12.02 L 27.27 12.02 L 26.70 12.02 L 26.10 12.21 L 25.49 12.39 L 24.87 12.55 L 24.24 12.71 L 23.38 12.90 L 22.52 13.09 L 21.86 13.41 L 21.20 13.74 L 20.51 13.97 L 19.81 14.20 L 19.25 14.54 L 18.69 14.88 L 17.87 15.38 L 17.05 15.88 L 16.57 16.65 L 16.09 17.43 L 15.72 17.83 L 15.35 18.23 L 14.84 19.14 L 14.33 20.05 L 13.84 20.90 L 13.36 21.74 L 12.85 22.40 L 12.35 23.06 L 12.07 23.59 L 11.80 24.12 L 11.57 24.68 L 11.35 25.24 L 11.22 25.84 L 11.09 26.45 L 11.11 27.29 L 11.12 28.13 L 11.12 28.94 L 11.12 29.74 L 11.01 30.27 L 10.91 30.79 L 10.90 31.40 L 10.89 32.00 L 11.18 32.78 L 11.48 33.57 L 11.72 34.49 L 11.96 35.41 L 12.19 36.33 L 12.42 37.24 L 12.54 38.05 L 12.66 38.87 L 12.77 39.42 L 12.88 39.97 L 13.25 40.54 L 13.61 41.12 L 14.47 41.44 L 15.32 41.77 L 16.12 42.11 L 16.93 42.45 L 17.81 42.56 L 18.69 42.68 L 19.68 42.91 L 20.67 43.14 L 21.52 43.37 L 22.37 43.59 L 23.28 43.60 L 24.18 43.61 L 24.74 43.71 L 25.29 43.82 L 26.05 44.06 L 26.82 44.29 L 27.50 44.52 L 28.18 44.75 L 28.94 44.75 L 29.70 44.75 L 30.25 44.75 L 30.80 44.75 L 31.73 44.75 L 32.66 44.75 L 33.56 44.86 L 34.45 44.96 L 35.19 45.08 L 35.92 45.20 L 36.62 45.32 L 37.32 45.43 L 38.10 45.55 L 38.88 45.66 L 39.76 45.88 L 40.65 46.11 L 41.57 46.11 L 42.49 46.12 L 43.04 46.12 L 43.59 46.12 L 44.53 46.12 L 45.46 46.13 L 46.37 46.34 L 47.27 46.56 L 47.97 46.57 L 48.67 46.58 L 49.21 46.58 L 49.76 46.58 L 50.33 46.58 L 50.89 46.58 L 51.46 46.58 L 52.03 46.58 L 52.60 46.58 L 53.17 46.58 L 54.09 46.47 L 55.02 46.36 L 55.63 46.11 L 56.25 45.87 L 57.02 45.59 L 57.79 45.30 L 58.61 45.26 L 59.43 45.21 L 60.12 45.13 L 60.81 45.04 L 61.81 45.01 L 62.80 44.98 L 63.52 45.09 L 64.24 45.21 L 64.94 45.44 L 65.64 45.66 L 66.17 45.60 L 66.69 45.54 L 67.27 45.42 L 67.84 45.31 L 68.66 45.18 L 69.48 45.04 L 70.01 45.02 L 70.54 44.99 L 71.45 44.88 L 72.37 44.76 L 73.19 44.76 L 74.00 44.75 L 74.71 44.75 L 75.42 44.75 L 76.04 44.87 L 76.65 44.98 L 77.29 44.98 L 77.93 44.98 L 78.62 44.98 L 79.30 44.98 L 80.08 44.98 L 80.86 44.98 L 81.41 44.98 L 81.96 44.98 L 82.52 44.98 L 83.09 44.98 L 84.15 44.78 L 85.20 44.59 L 85.71 44.40 L 86.21 44.21 L 87.06 43.85 L 87.91 43.49 L 88.63 43.44 L 89.35 43.38 L 90.24 43.38 L 91.13 43.38 L 92.03 43.27 L 92.93 43.16 L 93.66 43.27 L 94.40 43.38 L 94.99 43.61 L 95.59 43.84 L 96.15 43.95 L 96.71 44.06 L 97.61 43.70 L 98.51 43.34 L 99.42 42.88 L 100.33 42.43 L 101.25 41.97 L 102.16 41.51 L 102.94 41.08 L 103.72 40.64 L 104.51 40.08 L 105.30 39.52 L 105.81 38.80 L 106.33 38.08 L 106.61 37.44 L 106.89 36.79 L 107.11 36.01 L 107.34 35.23 L 107.57 34.43 L 107.80 33.63 L 108.14 32.93 L 108.48 32.23 L 108.59 31.39 L 108.69 30.56 L 108.81 29.65 L 108.92 28.74 L 108.93 27.82 L 108.94 26.90 L 108.94 26.06 L 108.94 25.23 L 108.86 24.54 L 108.78 23.85 L 108.64 23.08 L 108.50 22.31 L 108.25 21.70 L 108.00 21.09 L 107.67 20.53 L 107.34 19.97 L 107.05 19.20 L 106.75 18.42 L 106.48 17.95 L 106.22 17.48 L 105.73 17.26 L 105.25 17.04 L 104.35 16.59 L 103.45 16.13 L 102.92 15.92 L 102.40 15.70 L 101.76 15.48 L 101.13 15.27 L 100.50 15.15 L 99.88 15.03 L 99.07 14.81 L 98.26 14.59 L 97.59 14.47 L 96.93 14.35 L 96.41 14.22 L 95.89 14.10 L 94.96 13.98 L 94.02 13.86 L 93.48 13.75 L 92.93 13.64 L 92.38 13.41 L 91.83 13.17 L 90.78 13.06 L 89.73 12.94 L 89.06 12.94 L 88.39 12.94 L 87.53 12.94 L 86.66 12.94 L 85.78 12.72 L 84.89 12.50 L 83.89 12.49 L 82.90 12.48 L 82.22 12.48 L 81.54 12.48 L 80.95 12.48 L 80.36 12.48 L 79.72 12.38 L 79.08 12.28 L 78.41 12.17 L 77.74 12.06 L 76.75 11.93 L 75.75 11.80 L 75.10 11.80 L 74.45 11.80 L 73.68 11.79 L 72.91 11.79 L 71.96 11.89 L 71.02 11.98 L 70.06 12.00 L 69.10 12.02 L 68.08 12.02 L 67.06 12.02 L 66.13 12.02 L 65.20 12.02 L 64.13 12.12 L 63.07 12.21 L 60.45 12.57 L 57.82 12.92 L 57.73 12.88 L 57.63 12.84 L 57.55 12.77 L 57.47 12.70 L 57.42 12.61 L 57.36 12.51 L 57.34 12.41 L 57.32 12.31 L 57.34 12.20 L 57.35 12.10 L 57.40 12.00 L 57.44 11.90 L 57.52 11.83 L 57.59 11.75 L 57.69 11.71 L 57.78 11.66 L 57.89 11.64 L 57.99 11.63 L 58.10 11.65 L 58.20 11.67 L 58.29 11.72 L 58.39 11.77 L 58.46 11.85 L 58.53 11.93 L 58.57 12.02 L 58.61 12.12 L 58.62 12.23 L 58.63 12.33 L 58.61 12.44 L 58.58 12.54 L 58.53 12.63 L 58.47 12.72 L 58.39 12.79 L 58.30 12.85 L 58.21 12.89 L 58.11 12.93 L 58.00 12.93 L 57.89 12.94 L 57.79 12.90 L 57.69 12.87 L 57.60 12.81 L 57.52 12.75 L 57.45 12.67 L 57.39 12.58 L 57.36 12.48 L 57.33 12.38 L 57.33 12.27 L 57.33 12.16 L 57.37 12.06 L 57.40 11.96 L 57.47 11.88 L 62.32 11.44 L 62.32 11.44 L 62.32 11.44 L 62.42 11.48 L 62.52 11.53 L 62.62 11.55 L 62.72 11.56 L 62.82 11.56 L 62.93 11.55 L 63.03 11.52 L 63.13 11.49 L 63.22 11.43 L 63.31 11.38 L 63.39 11.30 L 63.46 11.23 L 63.51 11.13 L 63.57 11.04 L 63.60 10.94 L 63.63 10.84 L 63.64 10.73 L 63.64 10.64 L 63.62 10.53 L 63.60 10.43 L 63.56 10.33 L 63.52 10.24 L 63.45 10.15 L 63.39 10.07 L 63.30 10.01 L 63.22 9.94 L 62.74 9.65 L 62.26 9.36 L 61.45 9.25 L 60.64 9.13 L 60.11 9.24 L 59.57 9.34 L 58.65 9.57 L 57.72 9.79 L 56.85 10.14 L 55.97 10.49 L 55.07 10.60 L 54.16 10.69 L 53.38 10.82 L 52.60 10.94 L 51.84 10.94 L 51.08 10.95 L 50.09 10.84 L 49.09 10.73 L 48.24 10.65 L 47.38 10.56 L 46.61 10.42 L 45.83 10.28 L 45.12 10.28 L 44.41 10.27 L 43.73 10.27 L 43.04 10.27 L 42.15 10.27 L 41.26 10.27 L 40.44 10.19 L 39.61 10.10 L 38.98 10.07 L 38.36 10.05 L 37.73 9.97 L 37.11 9.88 L 36.33 9.74 L 35.55 9.60 L 34.75 9.59 L 33.94 9.59 L 33.40 9.69 L 32.86 9.79 L 32.02 9.92 L 31.17 10.04 L 30.56 10.14 L 29.95 10.24 L 28.89 10.26 L 27.83 10.27 L 27.25 10.27 L 26.68 10.27 L 25.82 10.50 L 24.96 10.71 L 24.27 10.83 L 23.59 10.95 L 22.82 11.17 L 22.05 11.39 L 21.31 11.74 L 20.57 12.09 L 19.89 12.32 L 19.21 12.56 L 18.63 12.90 L 18.04 13.24 L 17.33 13.64 L 16.62 14.04 L 15.98 14.66 L 15.35 15.28 L 14.98 15.87 L 14.61 16.46 L 14.03 17.27 L 13.45 18.07 L 13.13 18.61 L 12.81 19.15 L 12.55 19.64 L 12.30 20.14 L 11.86 20.81 L 11.42 21.48 L 10.97 22.05 L 10.52 22.62 L 10.16 23.32 L 9.80 24.03 L 9.69 24.61 L 9.59 25.19 L 9.48 25.96 L 9.36 26.73 L 9.36 27.43 L 9.36 28.13 L 9.36 28.93 L 9.36 29.74 L 9.25 30.51 L 9.14 31.29 L 9.26 32.06 L 9.37 32.82 L 9.59 33.47 L 9.81 34.12 L 10.03 34.98 L 10.25 35.84 L 10.48 36.75 L 10.71 37.66 L 10.82 38.46 L 10.94 39.25 L 11.05 39.80 L 11.16 40.34 L 11.41 40.84 L 11.66 41.34 L 12.33 42.07 L 13.00 42.81 L 13.92 43.14 L 14.85 43.46 L 15.64 43.80 L 16.44 44.14 L 16.99 44.18 L 17.54 44.22 L 18.45 44.33 L 19.36 44.45 L 20.18 44.75 L 21.01 45.06 L 22.02 45.21 L 23.03 45.36 L 23.60 45.37 L 24.16 45.37 L 24.88 45.56 L 25.59 45.75 L 26.27 45.97 L 26.95 46.19 L 27.85 46.35 L 28.75 46.51 L 29.77 46.51 L 30.80 46.51 L 31.73 46.51 L 32.66 46.51 L 33.37 46.60 L 34.09 46.69 L 34.76 46.79 L 35.44 46.90 L 36.33 47.04 L 37.22 47.19 L 38.01 47.31 L 38.80 47.42 L 39.51 47.62 L 40.23 47.81 L 40.86 47.85 L 41.50 47.88 L 42.55 47.88 L 43.59 47.89 L 44.52 47.88 L 45.45 47.88 L 46.15 48.08 L 46.85 48.27 L 47.75 48.31 L 48.65 48.34 L 49.21 48.34 L 49.76 48.34 L 50.33 48.34 L 50.89 48.34 L 51.46 48.34 L 52.03 48.34 L 52.61 48.34 L 53.18 48.34 L 53.74 48.24 L 54.30 48.14 L 55.23 48.02 L 56.16 47.90 L 56.64 47.65 L 57.12 47.40 L 57.73 47.19 L 58.34 46.97 L 58.89 46.97 L 59.45 46.97 L 60.31 46.87 L 61.18 46.76 L 62.00 46.75 L 62.81 46.74 L 63.61 46.93 L 64.41 47.11 L 65.21 47.27 L 66.00 47.42 L 66.66 47.30 L 67.33 47.18 L 67.89 47.06 L 68.46 46.95 L 69.16 46.86 L 69.86 46.76 L 70.76 46.65 L 71.67 46.54 L 72.40 46.53 L 73.13 46.52 L 73.93 46.52 L 74.72 46.51 L 75.30 46.59 L 75.87 46.67 L 76.56 46.71 L 77.24 46.74 L 77.93 46.74 L 78.61 46.74 L 79.30 46.74 L 79.99 46.74 L 80.97 46.74 L 81.96 46.74 L 82.52 46.74 L 83.09 46.74 L 83.73 46.64 L 84.38 46.54 L 84.96 46.43 L 85.54 46.32 L 86.18 46.09 L 86.82 45.86 L 87.33 45.62 L 87.84 45.38 L 88.61 45.26 L 89.37 45.15 L 90.25 45.14 L 91.14 45.14 L 91.68 45.04 L 92.22 44.94 L 92.86 44.93 L 93.49 44.92 L 94.25 45.21 L 95.01 45.51 L 95.81 45.66 L 96.61 45.82 L 97.53 45.58 L 98.46 45.34 L 99.33 44.90 L 100.21 44.46 L 101.12 44.00 L 102.03 43.55 L 102.95 43.09 L 103.86 42.63 L 104.49 42.26 L 105.11 41.89 L 105.71 41.43 L 106.31 40.97 L 106.84 40.23 L 107.37 39.50 L 107.70 39.06 L 108.02 38.62 L 108.28 38.00 L 108.55 37.38 L 108.78 36.58 L 109.01 35.77 L 109.24 34.97 L 109.47 34.18 L 109.80 33.50 L 110.14 32.83 L 110.19 32.26 L 110.23 31.70 L 110.35 30.78 L 110.47 29.87 L 110.58 28.95 L 110.69 28.04 L 110.70 27.47 L 110.70 26.91 L 110.70 26.07 L 110.70 25.23 L 110.59 24.31 L 110.48 23.40 L 110.37 22.79 L 110.25 22.18 L 109.88 21.19 L 109.51 20.19 L 109.17 19.61 L 108.82 19.02 L 108.62 18.44 L 108.42 17.85 L 108.04 17.17 L 107.66 16.49 L 106.86 15.98 L 106.06 15.47 L 105.14 15.02 L 104.23 14.56 L 103.65 14.32 L 103.07 14.08 L 102.39 13.84 L 101.70 13.60 L 100.96 13.45 L 100.22 13.30 L 99.47 13.10 L 98.72 12.89 L 97.99 12.75 L 97.25 12.61 L 96.31 12.39 L 95.37 12.16 L 94.73 12.13 L 94.09 12.10 L 93.32 11.83 L 92.55 11.56 L 91.92 11.41 L 91.29 11.25 L 90.54 11.22 L 89.79 11.18 L 89.10 11.18 L 88.40 11.18 L 87.54 11.18 L 86.68 11.18 L 86.00 10.98 L 85.31 10.79 L 84.77 10.76 L 84.23 10.73 L 83.57 10.72 L 82.91 10.72 L 82.23 10.72 L 81.55 10.72 L 80.96 10.72 L 80.37 10.72 L 79.20 10.53 L 78.03 10.33 L 76.92 10.19 L 75.82 10.05 L 75.14 10.05 L 74.46 10.04 L 73.68 10.04 L 72.91 10.04 L 71.88 10.14 L 70.85 10.24 L 69.96 10.25 L 69.07 10.26 L 68.06 10.27 L 67.06 10.27 L 66.13 10.27 L 65.20 10.27 L 64.06 10.37 L 62.91 10.46 L 60.53 11.05 L 58.13 11.65 L 58.13 11.65 L 58.13 11.65 L 58.03 11.64 L 57.92 11.63 L 57.82 11.66 L 57.72 11.68 L 57.63 11.74 L 57.54 11.80 Z"/></svg>
