<?xml version="1.0" standalone="no"?>
<!DOCTYPE svg PUBLIC "-//W3C//DTD SVG 1.1//EN" "http://www.w3.org/Graphics/SVG/1.1/DTD/svg11.dtd">
<svg preserveAspectRatio="none" version="1.1" xmlns="http://www.w3.org/2000/svg" viewBox="8.13 8.30 102.89 43.09" width="102.89" height="43.09"><!-- svg-source:excalidraw --><metadata></metadata><defs><style class="style-fonts">
      </style></defs><g transform="translate(61.396077360005066 11.598989073422388) rotate(0 -1.8274160839112739 18.159947333868445)" stroke="none"><path fill="#1e1e1e" d="M 0.21,0.85 Q 0.21,0.85 -0.54,1.04 -1.30,1.23 -2.06,1.28 -2.81,1.33 -3.39,1.33 -3.97,1.33 -4.84,1.44 -5.71,1.55 -6.73,1.67 -7.74,1.78 -8.47,1.69 -9.21,1.59 -9.82,1.48 -10.43,1.36 -11.14,1.14 -11.86,0.92 -12.58,0.80 -13.30,0.69 -13.94,0.67 -14.58,0.66 -15.53,0.65 -16.48,0.65 -17.09,0.65 -17.70,0.65 -18.35,0.76 -19.00,0.87 -19.81,1.06 -20.62,1.26 -21.16,1.29 -21.70,1.32 -22.73,1.44 -23.76,1.55 -24.60,1.64 -25.44,1.73 -25.99,1.83 -26.54,1.92 -27.26,1.97 -27.98,2.02 -28.65,2.02 -29.32,2.02 -30.10,2.02 -30.88,2.02 -31.68,2.02 -32.48,2.02 -33.30,1.91 -34.12,1.80 -34.72,1.68 -35.31,1.57 -35.88,1.56 -36.44,1.56 -37.01,1.56 -37.59,1.56 -38.25,1.65 -38.92,1.73 -39.58,1.94 -40.24,2.16 -40.93,2.38 -41.61,2.61 -42.31,2.73 -43.01,2.86 -43.68,3.08 -44.34,3.29 -44.78,3.64 -45.22,3.98 -45.79,4.43 -46.35,4.88 -46.76,5.26 -47.17,5.65 -47.59,6.26 -48.01,6.87 -48.34,7.58 -48.67,8.29 -48.89,9.18 -49.12,10.07 -49.23,10.61 -49.34,11.14 -49.45,11.71 -49.57,12.27 -49.68,12.84 -49.80,13.41 -49.92,14.28 -50.04,15.14 -50.15,16.10 -50.26,17.05 -50.27,18.12 -50.28,19.18 -50.28,19.75 -50.28,20.32 -50.38,20.96 -50.48,21.60 -50.50,22.47 -50.51,23.34 -50.51,24.23 -50.51,25.13 -50.31,26.18 -50.12,27.23 -50.00,27.80 -49.89,28.37 -49.63,29.06 -49.38,29.75 -48.75,29.96 -48.11,30.17 -47.24,30.80 -46.37,31.43 -45.87,31.91 -45.38,32.40 -44.78,32.92 -44.17,33.45 -43.62,33.52 -43.07,33.60 -41.99,33.71 -40.90,33.81 -39.88,33.93 -38.85,34.04 -37.85,34.15 -36.85,34.27 -35.90,34.38 -34.95,34.50 -34.14,34.61 -33.34,34.73 -32.52,34.96 -31.71,35.19 -30.80,35.31 -29.88,35.43 -29.26,35.53 -28.63,35.64 -28.05,35.75 -27.47,35.86 -26.53,35.98 -25.58,36.10 -25.04,36.21 -24.49,36.32 -23.36,36.43 -22.24,36.55 -21.64,36.56 -21.03,36.57 -20.30,36.67 -19.57,36.77 -18.96,36.89 -18.35,37.00 -17.66,37.01 -16.96,37.03 -16.28,37.03 -15.59,37.03 -15.01,36.86 -14.44,36.68 -13.56,36.64 -12.69,36.59 -11.78,36.58 -10.87,36.58 -9.96,36.58 -9.05,36.58 -8.28,36.48 -7.51,36.39 -6.67,36.37 -5.82,36.35 -5.27,36.26 -4.72,36.17 -3.95,36.06 -3.18,35.95 -2.49,35.83 -1.79,35.72 -1.16,35.53 -0.53,35.33 0.13,35.11 0.81,34.89 1.33,34.60 1.84,34.30 2.33,34.05 2.82,33.80 3.69,33.49 4.55,33.17 5.27,32.97 6.00,32.77 6.81,32.65 7.62,32.53 8.25,32.50 8.88,32.47 9.73,32.47 10.58,32.47 11.12,32.57 11.65,32.67 12.40,32.91 13.15,33.15 13.81,33.52 14.47,33.88 15.02,34.22 15.58,34.56 16.18,34.65 16.78,34.74 17.54,34.97 18.31,35.19 19.00,35.20 19.70,35.20 20.24,35.31 20.78,35.41 21.53,35.54 22.28,35.66 22.96,35.66 23.64,35.66 24.43,35.77 25.22,35.88 26.01,36.00 26.80,36.11 27.88,36.12 28.97,36.12 29.55,36.12 30.14,36.12 30.80,36.12 31.47,36.12 32.06,36.12 32.65,36.12 33.50,36.03 34.35,35.95 35.17,35.66 35.99,35.37 36.50,35.07 37.02,34.77 37.58,34.43 38.14,34.10 38.79,33.67 39.44,33.24 40.16,32.86 40.88,32.48 41.32,32.17 41.77,31.86 42.42,31.11 43.07,30.37 43.48,29.58 43.89,28.79 44.10,28.27 44.32,27.75 44.65,26.55 44.98,25.36 45.22,24.74 45.45,24.13 45.69,23.14 45.92,22.14 46.04,21.31 46.16,20.47 46.27,19.49 46.38,18.50 46.50,17.57 46.62,16.64 46.72,16.01 46.83,15.38 46.84,14.32 46.85,13.25 46.66,12.30 46.47,11.35 46.18,10.64 45.88,9.92 45.41,9.21 44.93,8.50 44.51,8.07 44.10,7.65 43.37,7.36 42.64,7.06 41.48,6.84 40.32,6.62 39.64,6.51 38.96,6.39 38.14,6.17 37.32,5.96 36.73,5.83 36.15,5.71 35.26,5.46 34.37,5.22 33.63,4.82 32.88,4.41 32.25,3.99 31.62,3.56 30.94,3.11 30.27,2.65 29.43,2.34 28.59,2.02 27.67,1.69 26.74,1.36 26.07,1.35 25.41,1.34 24.72,1.34 24.03,1.33 22.79,1.33 21.55,1.33 20.56,1.33 19.58,1.33 18.47,1.33 17.36,1.33 16.25,1.43 15.15,1.52 14.12,1.63 13.08,1.74 12.20,1.76 11.32,1.78 10.22,1.78 9.12,1.79 7.67,1.39 6.23,1.00 4.86,0.55 3.48,0.10 2.23,-0.24 0.97,-0.60 -0.03,-0.61 -1.05,-0.62 -0.51,0.01 0.01,0.65 -0.06,0.64 -0.14,0.64 -0.21,0.61 -0.28,0.58 -0.35,0.54 -0.42,0.50 -0.47,0.44 -0.53,0.38 -0.56,0.31 -0.60,0.24 -0.62,0.17 -0.64,0.09 -0.65,0.01 -0.65,-0.06 -0.63,-0.13 -0.61,-0.21 -0.58,-0.28 -0.55,-0.35 -0.49,-0.41 -0.44,-0.47 -0.38,-0.52 -0.32,-0.57 -0.24,-0.60 -0.17,-0.63 -0.09,-0.64 -0.01,-0.65 0.18,-0.59 0.38,-0.52 0.46,-0.45 0.53,-0.37 0.58,-0.28 0.62,-0.18 0.64,-0.08 0.65,0.02 0.63,0.12 0.61,0.23 0.56,0.32 0.50,0.41 0.42,0.48 0.34,0.55 0.24,0.59 0.15,0.63 0.04,0.64 -0.06,0.65 -0.16,0.62 -0.26,0.60 -0.35,0.54 -0.44,0.48 -0.50,0.40 -0.57,0.31 -0.61,0.21 -0.64,0.11 -0.64,0.01 -0.64,-0.09 -0.61,-0.19 -0.58,-0.29 -0.52,-0.38 -0.45,-0.46 -0.37,-0.53 -0.28,-0.59 -0.18,-0.62 -0.08,-0.65 0.02,-0.64 0.13,-0.64 0.22,-0.60 0.32,-0.56 0.41,-0.50 0.49,-0.43 0.54,-0.34 0.60,-0.25 0.63,-0.14 0.65,-0.04 0.64,0.05 0.63,0.16 0.59,0.26 0.54,0.35 0.47,0.43 0.40,0.51 0.31,0.56 0.21,0.61 0.11,0.63 0.01,0.65 -0.09,0.64 -0.19,0.62 -0.09,0.64 0.01,0.65 -0.06,0.64 -0.14,0.64 -0.21,0.61 -0.28,0.58 -0.35,0.54 -0.42,0.50 -0.47,0.44 -0.53,0.38 -0.56,0.31 -0.60,0.24 -0.62,0.17 -0.64,0.09 -0.65,0.01 -0.65,-0.06 -0.63,-0.13 -0.61,-0.21 -0.58,-0.28 -0.55,-0.35 -0.49,-0.41 -0.44,-0.47 -0.38,-0.52 -0.32,-0.57 -0.24,-0.60 -0.17,-0.63 -0.09,-0.64 -0.01,-0.65 -0.79,-1.40 -1.56,-2.14 -0.06,-2.22 1.43,-2.30 2.73,-1.93 4.02,-1.56 5.37,-1.13 6.72,-0.69 7.92,-0.32 9.13,0.03 10.21,0.02 11.28,0.02 12.09,0.00 12.89,-0.00 13.95,-0.11 15.01,-0.23 16.18,-0.32 17.35,-0.42 18.47,-0.42 19.58,-0.42 20.56,-0.42 21.55,-0.42 22.79,-0.42 24.04,-0.42 24.75,-0.41 25.46,-0.41 26.30,-0.37 27.15,-0.34 27.79,-0.17 28.44,-0.01 29.28,0.39 30.13,0.81 31.02,1.22 31.92,1.64 32.61,2.10 33.29,2.56 34.10,3.05 34.90,3.54 35.71,3.76 36.52,3.98 37.15,4.12 37.78,4.26 38.51,4.46 39.25,4.66 39.94,4.77 40.62,4.89 41.30,5.00 41.98,5.12 42.57,5.25 43.16,5.38 43.70,5.56 44.25,5.74 44.79,6.07 45.34,6.41 45.79,6.86 46.24,7.32 46.86,8.24 47.48,9.16 47.71,9.66 47.94,10.16 48.18,11.06 48.42,11.96 48.52,12.61 48.62,13.25 48.61,13.83 48.61,14.42 48.49,15.56 48.38,16.70 48.24,17.78 48.10,18.86 48.01,19.71 47.92,20.55 47.89,21.09 47.86,21.64 47.63,22.57 47.40,23.50 47.25,24.13 47.10,24.76 46.88,25.33 46.66,25.89 46.46,26.52 46.25,27.16 46.10,27.79 45.94,28.42 45.46,29.48 44.97,30.53 44.33,31.40 43.69,32.26 43.24,32.78 42.79,33.29 42.24,33.67 41.70,34.04 41.05,34.38 40.41,34.72 39.73,35.16 39.05,35.61 38.47,35.95 37.90,36.29 37.31,36.63 36.72,36.97 35.71,37.32 34.70,37.67 33.68,37.78 32.65,37.88 32.06,37.88 31.47,37.88 30.80,37.88 30.14,37.88 29.55,37.88 28.97,37.88 27.85,37.88 26.73,37.87 25.74,37.73 24.75,37.58 24.19,37.50 23.64,37.42 22.91,37.42 22.19,37.41 21.30,37.28 20.41,37.14 19.59,37.05 18.76,36.96 17.85,36.80 16.94,36.65 16.36,36.46 15.79,36.27 15.01,36.05 14.23,35.82 13.67,35.49 13.10,35.15 12.51,34.88 11.92,34.60 11.25,34.41 10.58,34.23 9.76,34.23 8.93,34.23 7.96,34.35 6.98,34.46 6.28,34.57 5.59,34.69 4.99,34.79 4.39,34.88 3.54,35.37 2.69,35.85 2.02,36.20 1.36,36.56 0.67,36.79 -0.02,37.01 -0.77,37.24 -1.51,37.46 -2.22,37.57 -2.92,37.69 -3.69,37.80 -4.45,37.91 -5.12,38.01 -5.79,38.12 -6.55,38.13 -7.31,38.14 -8.18,38.24 -9.05,38.34 -9.95,38.34 -10.86,38.34 -11.74,38.34 -12.61,38.35 -13.30,38.37 -13.98,38.38 -14.78,38.59 -15.58,38.79 -16.29,38.79 -17.00,38.79 -17.84,38.76 -18.67,38.73 -19.24,38.63 -19.82,38.52 -20.45,38.42 -21.08,38.33 -22.32,38.22 -23.56,38.10 -24.20,38.07 -24.84,38.05 -25.78,37.84 -26.72,37.64 -27.27,37.62 -27.81,37.59 -28.88,37.39 -29.95,37.19 -30.59,37.15 -31.23,37.12 -32.15,36.89 -33.07,36.65 -33.76,36.46 -34.45,36.27 -35.27,36.16 -36.08,36.05 -37.11,35.93 -38.14,35.82 -39.07,35.70 -40.00,35.59 -41.01,35.48 -42.03,35.37 -42.60,35.36 -43.16,35.36 -44.16,35.13 -45.16,34.90 -45.89,34.27 -46.63,33.65 -47.09,33.18 -47.56,32.72 -48.10,32.28 -48.64,31.84 -49.18,31.66 -49.73,31.49 -50.28,31.09 -50.83,30.70 -51.22,29.71 -51.62,28.71 -51.73,28.14 -51.84,27.57 -51.96,26.99 -52.07,26.41 -52.17,25.77 -52.27,25.13 -52.27,24.60 -52.27,24.06 -52.27,23.22 -52.26,22.38 -52.15,21.35 -52.04,20.32 -52.04,19.75 -52.04,19.17 -52.04,18.59 -52.04,18.01 -51.92,16.89 -51.81,15.77 -51.69,14.96 -51.58,14.15 -51.55,13.61 -51.52,13.07 -51.41,12.50 -51.29,11.92 -51.18,11.35 -51.06,10.78 -50.95,10.21 -50.83,9.64 -50.59,8.71 -50.35,7.78 -49.95,6.90 -49.56,6.03 -49.07,5.31 -48.58,4.60 -48.08,4.11 -47.58,3.62 -46.99,3.15 -46.40,2.67 -45.65,2.15 -44.91,1.63 -44.20,1.40 -43.50,1.16 -42.83,1.05 -42.16,0.94 -41.47,0.71 -40.79,0.48 -40.04,0.25 -39.29,0.01 -38.77,-0.09 -38.24,-0.19 -37.67,-0.19 -37.09,-0.19 -36.52,-0.19 -35.94,-0.19 -35.12,-0.15 -34.31,-0.10 -33.75,0.07 -33.19,0.26 -32.39,0.26 -31.60,0.26 -30.80,0.26 -30.01,0.26 -29.33,0.26 -28.64,0.26 -27.90,0.26 -27.15,0.27 -26.47,0.14 -25.80,0.01 -25.26,-0.09 -24.71,-0.19 -23.85,-0.20 -22.99,-0.22 -22.01,-0.33 -21.03,-0.44 -20.06,-0.66 -19.09,-0.88 -18.40,-0.99 -17.72,-1.10 -17.10,-1.10 -16.48,-1.10 -15.50,-1.10 -14.53,-1.09 -13.77,-1.07 -13.01,-1.04 -12.17,-0.89 -11.34,-0.75 -10.72,-0.55 -10.10,-0.36 -9.53,-0.25 -8.97,-0.14 -7.91,-0.06 -6.84,0.01 -5.93,-0.10 -5.03,-0.21 -4.50,-0.31 -3.98,-0.42 -3.41,-0.42 -2.84,-0.42 -2.28,-0.45 -1.72,-0.47 -0.97,-0.66 -0.21,-0.85 -0.10,-0.86 -0.00,-0.88 0.10,-0.86 0.20,-0.85 0.30,-0.81 0.40,-0.78 0.49,-0.72 0.58,-0.66 0.65,-0.58 0.72,-0.50 0.77,-0.40 0.82,-0.31 0.84,-0.21 0.87,-0.10 0.87,-0.00 0.87,0.10 0.84,0.20 0.82,0.30 0.77,0.40 0.72,0.49 0.65,0.57 0.58,0.65 0.49,0.71 0.41,0.77 0.31,0.81 0.21,0.85 0.21,0.85 L 0.21,0.85 Z"></path></g></svg>