<?xml version="1.0" standalone="no"?>
<!DOCTYPE svg PUBLIC "-//W3C//DTD SVG 1.1//EN" "http://www.w3.org/Graphics/SVG/1.1/DTD/svg11.dtd">
<svg preserveAspectRatio="none" version="1.1" xmlns="http://www.w3.org/2000/svg" viewBox="8.14 8.13 103.56 41.21" width="103.56" height="41.21"><!-- svg-source:excalidraw --><metadata></metadata><defs><style class="style-fonts">
      </style></defs><g transform="translate(62.76663942293851 10.68528103146673) rotate(0 -2.855337631111354 18.04573382862401)" stroke="none"><path fill="#1e1e1e" d="M -0.45,0.75 Q -0.45,0.75 -0.91,0.47 -1.38,0.19 -2.10,0.27 -2.83,0.36 -3.73,0.58 -4.62,0.80 -5.35,1.10 -6.08,1.40 -6.68,1.47 -7.28,1.54 -8.24,1.75 -9.19,1.95 -10.00,1.98 -10.81,2.02 -11.79,1.91 -12.78,1.81 -13.72,1.80 -14.66,1.79 -15.20,1.69 -15.75,1.58 -16.39,1.46 -17.03,1.34 -17.70,1.34 -18.36,1.33 -19.04,1.33 -19.73,1.33 -20.62,1.33 -21.51,1.33 -22.51,1.23 -23.51,1.12 -24.36,1.11 -25.21,1.10 -26.03,0.88 -26.84,0.65 -27.40,0.65 -27.96,0.65 -28.76,0.73 -29.55,0.82 -30.54,0.96 -31.52,1.10 -32.65,1.21 -33.77,1.33 -34.35,1.33 -34.93,1.33 -35.50,1.33 -36.07,1.33 -36.67,1.52 -37.28,1.70 -37.90,1.86 -38.53,2.02 -39.39,2.21 -40.25,2.40 -40.91,2.72 -41.57,3.05 -42.26,3.28 -42.96,3.51 -43.52,3.85 -44.08,4.19 -44.90,4.69 -45.72,5.19 -46.20,5.96 -46.68,6.74 -47.05,7.14 -47.42,7.54 -47.93,8.45 -48.44,9.36 -48.93,10.21 -49.41,11.05 -49.92,11.71 -50.42,12.37 -50.70,12.90 -50.97,13.43 -51.20,13.99 -51.42,14.55 -51.55,15.15 -51.68,15.76 -51.66,16.60 -51.65,17.44 -51.65,18.25 -51.65,19.05 -51.76,19.58 -51.86,20.10 -51.87,20.71 -51.88,21.31 -51.59,22.09 -51.29,22.88 -51.05,23.80 -50.81,24.72 -50.58,25.64 -50.35,26.55 -50.23,27.36 -50.11,28.18 -50.00,28.73 -49.89,29.28 -49.52,29.85 -49.16,30.43 -48.30,30.75 -47.45,31.08 -46.65,31.42 -45.84,31.76 -44.96,31.87 -44.08,31.99 -43.09,32.22 -42.10,32.45 -41.25,32.68 -40.40,32.90 -39.49,32.91 -38.59,32.92 -38.03,33.02 -37.48,33.13 -36.72,33.37 -35.95,33.60 -35.27,33.83 -34.59,34.06 -33.83,34.06 -33.07,34.06 -32.52,34.06 -31.97,34.06 -31.04,34.06 -30.11,34.06 -29.21,34.17 -28.32,34.27 -27.58,34.39 -26.85,34.51 -26.15,34.63 -25.45,34.74 -24.67,34.86 -23.89,34.97 -23.01,35.19 -22.12,35.42 -21.20,35.42 -20.28,35.43 -19.73,35.43 -19.18,35.43 -18.24,35.43 -17.31,35.44 -16.40,35.65 -15.50,35.87 -14.80,35.88 -14.10,35.89 -13.56,35.89 -13.01,35.89 -12.44,35.89 -11.88,35.89 -11.31,35.89 -10.74,35.89 -10.17,35.89 -9.60,35.89 -8.68,35.78 -7.75,35.67 -7.14,35.42 -6.52,35.18 -5.75,34.90 -4.98,34.61 -4.16,34.57 -3.34,34.52 -2.65,34.44 -1.96,34.35 -0.96,34.32 0.03,34.29 0.75,34.40 1.47,34.52 2.17,34.75 2.87,34.97 3.40,34.91 3.92,34.85 4.50,34.73 5.07,34.62 5.89,34.49 6.71,34.35 7.24,34.33 7.77,34.30 8.68,34.19 9.60,34.07 10.42,34.07 11.23,34.06 11.94,34.06 12.65,34.06 13.27,34.18 13.88,34.29 14.52,34.29 15.16,34.29 15.85,34.29 16.53,34.29 17.31,34.29 18.09,34.29 18.64,34.29 19.19,34.29 19.75,34.29 20.32,34.29 21.38,34.09 22.43,33.90 22.94,33.71 23.44,33.52 24.29,33.16 25.14,32.80 25.86,32.75 26.58,32.69 27.47,32.69 28.36,32.69 29.26,32.58 30.16,32.47 30.89,32.58 31.63,32.69 32.22,32.92 32.82,33.15 33.38,33.26 33.94,33.37 34.84,33.01 35.74,32.65 36.65,32.19 37.56,31.74 38.48,31.28 39.39,30.82 40.17,30.39 40.95,29.95 41.74,29.39 42.53,28.83 43.04,28.11 43.56,27.39 43.84,26.75 44.12,26.10 44.34,25.32 44.57,24.54 44.80,23.74 45.03,22.94 45.37,22.24 45.71,21.54 45.82,20.70 45.92,19.87 46.04,18.96 46.15,18.05 46.16,17.13 46.17,16.21 46.17,15.37 46.17,14.54 46.09,13.85 46.01,13.16 45.87,12.39 45.73,11.62 45.48,11.01 45.23,10.40 44.90,9.84 44.57,9.28 44.28,8.51 43.98,7.73 43.71,7.26 43.45,6.79 42.96,6.57 42.48,6.35 41.58,5.90 40.68,5.44 40.15,5.23 39.63,5.01 38.99,4.79 38.36,4.58 37.73,4.46 37.11,4.34 36.30,4.12 35.49,3.90 34.82,3.78 34.16,3.66 33.64,3.53 33.12,3.41 32.19,3.29 31.25,3.17 30.71,3.06 30.16,2.95 29.61,2.72 29.06,2.48 28.01,2.37 26.96,2.25 26.29,2.25 25.62,2.25 24.76,2.25 23.89,2.25 23.01,2.03 22.12,1.81 21.12,1.80 20.13,1.79 19.45,1.79 18.77,1.79 18.18,1.79 17.59,1.79 16.95,1.69 16.31,1.59 15.64,1.48 14.97,1.37 13.98,1.24 12.98,1.11 12.33,1.11 11.68,1.11 10.91,1.10 10.14,1.10 9.19,1.20 8.25,1.29 7.29,1.31 6.33,1.33 5.31,1.33 4.29,1.33 3.36,1.33 2.43,1.33 1.36,1.43 0.30,1.52 -2.32,1.88 -4.95,2.23 -5.04,2.19 -5.14,2.15 -5.22,2.08 -5.30,2.01 -5.35,1.92 -5.41,1.82 -5.43,1.72 -5.45,1.62 -5.43,1.51 -5.42,1.41 -5.37,1.31 -5.33,1.21 -5.25,1.14 -5.18,1.06 -5.08,1.02 -4.99,0.97 -4.88,0.95 -4.78,0.94 -4.67,0.96 -4.57,0.98 -4.48,1.03 -4.38,1.08 -4.31,1.16 -4.24,1.24 -4.20,1.33 -4.16,1.43 -4.15,1.54 -4.14,1.64 -4.16,1.75 -4.19,1.85 -4.24,1.94 -4.30,2.03 -4.38,2.10 -4.47,2.16 -4.56,2.20 -4.66,2.24 -4.77,2.24 -4.88,2.25 -4.98,2.21 -5.08,2.18 -5.17,2.12 -5.25,2.06 -5.32,1.98 -5.38,1.89 -5.41,1.79 -5.44,1.69 -5.44,1.58 -5.44,1.47 -5.40,1.37 -5.37,1.27 -5.30,1.19 -5.23,1.11 -5.14,1.05 -5.05,0.99 -4.95,0.97 -4.85,0.94 -4.74,0.95 -4.64,0.96 -4.64,0.96 -4.64,0.96 -2.24,0.36 0.14,-0.23 1.29,-0.32 2.43,-0.42 3.36,-0.42 4.29,-0.42 5.29,-0.42 6.30,-0.43 7.19,-0.44 8.08,-0.45 9.11,-0.55 10.14,-0.65 10.91,-0.65 11.69,-0.65 12.37,-0.64 13.05,-0.64 14.15,-0.50 15.26,-0.36 16.43,-0.16 17.60,0.03 18.19,0.03 18.78,0.03 19.46,0.03 20.14,0.03 20.80,0.03 21.46,0.04 22.00,0.07 22.54,0.10 23.23,0.29 23.91,0.49 24.77,0.49 25.63,0.49 26.33,0.49 27.02,0.49 27.77,0.53 28.52,0.56 29.15,0.72 29.78,0.87 30.55,1.14 31.32,1.41 31.96,1.44 32.60,1.47 33.54,1.70 34.48,1.92 35.22,2.06 35.95,2.20 36.70,2.41 37.45,2.61 38.19,2.76 38.93,2.91 39.62,3.15 40.30,3.39 40.88,3.63 41.46,3.87 42.37,4.33 43.29,4.78 44.09,5.29 44.89,5.80 45.27,6.48 45.65,7.16 45.85,7.75 46.05,8.33 46.40,8.92 46.74,9.50 47.11,10.50 47.48,11.49 47.60,12.10 47.71,12.71 47.82,13.62 47.93,14.54 47.93,15.38 47.93,16.22 47.93,16.78 47.92,17.35 47.81,18.26 47.70,19.18 47.58,20.09 47.46,21.01 47.42,21.57 47.37,22.14 47.03,22.81 46.70,23.49 46.47,24.28 46.24,25.08 46.01,25.89 45.78,26.69 45.51,27.31 45.25,27.93 44.93,28.37 44.60,28.81 44.07,29.54 43.54,30.28 42.94,30.74 42.34,31.20 41.72,31.57 41.09,31.94 40.18,32.40 39.26,32.86 38.35,33.31 37.44,33.77 36.56,34.21 35.69,34.65 34.76,34.89 33.84,35.13 33.04,34.97 32.24,34.82 31.48,34.52 30.72,34.23 30.09,34.24 29.45,34.25 28.91,34.35 28.37,34.45 27.48,34.45 26.60,34.46 25.84,34.57 25.07,34.69 24.56,34.93 24.05,35.17 23.41,35.40 22.77,35.63 22.19,35.74 21.61,35.85 20.96,35.95 20.32,36.05 19.75,36.05 19.19,36.05 18.20,36.05 17.22,36.05 16.53,36.05 15.84,36.05 15.16,36.05 14.47,36.05 13.79,36.02 13.10,35.98 12.53,35.90 11.95,35.82 11.16,35.83 10.36,35.83 9.63,35.84 8.90,35.85 7.99,35.96 7.09,36.07 6.39,36.17 5.69,36.26 5.12,36.37 4.56,36.49 3.89,36.61 3.23,36.73 2.44,36.58 1.64,36.42 0.84,36.24 0.04,36.05 -0.77,36.06 -1.59,36.07 -2.46,36.18 -3.32,36.28 -3.88,36.28 -4.43,36.28 -5.04,36.50 -5.65,36.71 -6.13,36.96 -6.61,37.21 -7.54,37.33 -8.47,37.45 -9.03,37.55 -9.59,37.65 -10.16,37.65 -10.74,37.65 -11.31,37.65 -11.88,37.65 -12.44,37.65 -13.01,37.65 -13.56,37.65 -14.12,37.65 -15.02,37.62 -15.92,37.58 -16.62,37.39 -17.32,37.19 -18.25,37.19 -19.18,37.20 -20.22,37.19 -21.27,37.19 -21.91,37.16 -22.54,37.12 -23.26,36.93 -23.97,36.73 -24.76,36.62 -25.55,36.50 -26.44,36.35 -27.33,36.21 -28.01,36.10 -28.68,36.00 -29.40,35.91 -30.11,35.82 -31.04,35.82 -31.97,35.82 -33.00,35.82 -34.02,35.82 -34.92,35.66 -35.82,35.50 -36.50,35.28 -37.18,35.06 -37.89,34.87 -38.61,34.68 -39.17,34.68 -39.74,34.67 -40.75,34.52 -41.76,34.37 -42.59,34.06 -43.41,33.76 -44.32,33.64 -45.23,33.53 -45.78,33.49 -46.33,33.45 -47.13,33.11 -47.92,32.77 -48.85,32.45 -49.77,32.12 -50.44,31.38 -51.11,30.65 -51.36,30.15 -51.61,29.65 -51.72,29.11 -51.83,28.56 -51.95,27.77 -52.06,26.97 -52.29,26.06 -52.52,25.15 -52.74,24.29 -52.96,23.43 -53.18,22.78 -53.40,22.13 -53.51,21.37 -53.63,20.60 -53.52,19.82 -53.41,19.05 -53.41,18.24 -53.41,17.44 -53.41,16.74 -53.41,16.04 -53.29,15.27 -53.18,14.50 -53.08,13.92 -52.97,13.34 -52.61,12.63 -52.25,11.93 -51.80,11.36 -51.35,10.79 -50.91,10.12 -50.47,9.45 -50.22,8.95 -49.96,8.46 -49.64,7.92 -49.32,7.38 -48.74,6.58 -48.16,5.77 -47.79,5.18 -47.42,4.59 -46.79,3.97 -46.15,3.35 -45.44,2.95 -44.73,2.55 -44.14,2.21 -43.56,1.87 -42.88,1.63 -42.20,1.40 -41.46,1.05 -40.72,0.70 -39.95,0.48 -39.18,0.26 -38.50,0.14 -37.81,0.02 -36.95,-0.19 -36.09,-0.42 -35.52,-0.42 -34.94,-0.42 -33.88,-0.43 -32.82,-0.45 -32.21,-0.55 -31.60,-0.65 -30.75,-0.77 -29.91,-0.90 -29.37,-1.00 -28.83,-1.10 -28.02,-1.10 -27.22,-1.09 -26.44,-0.95 -25.66,-0.81 -25.04,-0.72 -24.41,-0.64 -23.79,-0.62 -23.16,-0.59 -22.33,-0.50 -21.51,-0.42 -20.62,-0.42 -19.73,-0.42 -19.04,-0.42 -18.36,-0.42 -17.65,-0.41 -16.94,-0.41 -16.16,-0.27 -15.39,-0.13 -14.53,-0.04 -13.68,0.04 -12.68,0.15 -11.69,0.26 -10.93,0.25 -10.17,0.25 -9.39,0.13 -8.61,0.00 -7.70,-0.09 -6.80,-0.20 -5.92,-0.55 -5.05,-0.90 -4.12,-1.12 -3.20,-1.35 -2.66,-1.45 -2.13,-1.56 -1.32,-1.44 -0.51,-1.33 -0.03,-1.04 0.45,-0.75 0.53,-0.68 0.62,-0.62 0.68,-0.54 0.75,-0.45 0.79,-0.36 0.83,-0.26 0.85,-0.16 0.87,-0.05 0.87,0.04 0.86,0.15 0.83,0.25 0.80,0.35 0.74,0.44 0.69,0.54 0.62,0.61 0.54,0.69 0.45,0.74 0.36,0.80 0.26,0.83 0.16,0.86 0.05,0.87 -0.05,0.87 -0.15,0.86 -0.25,0.84 -0.35,0.79 -0.45,0.75 -0.45,0.75 L -0.45,0.75 Z"></path></g></svg>