<svg preserveAspectRatio="none" xmlns="http://www.w3.org/2000/svg" viewBox="8.30 8.31 92.67 44.30" width="92.67" height="44.30" xmlns:v="https://vecta.io/nano"><path fill="#1e1e1e" d="M58.153 13.41q0 0 .03.07.02.06.03.13.01.07.01.12 0 .07-.02.14-.01.07-.04.13-.03.06-.07.12-.04.05-.09.1-.05.05-.1.08-.06.04-.13.07-.06.02-.13.03-.07.01-.12.01-.07 0-.14-.02-.07-.01-.13-.04-.06-.03-.12-.07-.05-.04-.1-.09-.05-.05-.08-.1-.04-.06-.23-.43-.18-.39-.14-.49.03-.11.07-.04.04.07-.23.04-.27-.03-.5-.2-.22-.18-.32-.18-.09 0-.44-.01-.34-.01-.74-.01-.4 0-.72-.01-.32 0-.71-.17-.4-.17-.73-.19-.34-.03-.74-.03-.4-.01-.97-.01-.58 0-1.03 0-.44 0-.86 0-.42 0-1 0-.58 0-1.03 0-.44 0-1.03 0-.59 0-1.03 0-.45 0-1.04 0-.58 0-1.15 0-.57-.01-1.17.16-.61.16-1.04.19-.43.03-.79.18-.36.15-.83.37-.47.22-1.06.26-.59.04-1.04.2-.44.18-.92.22-.48.04-.91.05-.43.01-.85.01-.41 0-.95 0-.53 0-1.13.16-.6.16-1.27.2-.66.04-1.29.04-.63.01-1.31.01-.68-.01-1.15-.17-.46-.17-.99-.2-.53-.02-1.03-.04-.51-.01-1.03-.22-.53-.19-.84-.43-.3-.24-.53-.46-.23-.21-.34-.36-.12-.14-.37-.14-.24-.01-.58-.04-.33-.03-.55-.2-.23-.17-.59-.2-.37-.03-.61-.2-.24-.18-.51-.19-.28-.01-.6-.02-.33-.02-.72.14-.38.16-.62.19-.24.03-.62.2-.38.17-.57.19-.19.02-.45.26-.26.24-.44.55-.19.31-.39 1.15-.19.86-.41 1.73-.22.88-.59 1.71-.38.84-.61 1.64-.23.8-.45 1.65-.22.85-.59 1.65-.36.81-.43 1.44-.07.64-.25 1.26-.18.62-.21 1.19-.03.58-.04 1.19 0 .61-.01 1.23 0 .62 0 1.24 0 .62 0 1.23 0 .62 0 1.08 0 .45 0 .88 0 .42 0 1.12 0 .7.16 1.34.17.64.2 1.64.04 1 .05 1.85 0 .86 0 1.47-.01.61.15 1.02.15.41.35 1 .2.59.4 1.19.19.59.37.99.17.39.46.72.28.33.77.53.5.21 1.11.43.62.21 1.44.6.81.39 1.45.79.65.4 1.19.62.55.22 1.11.26.56.04 1.25.06.69.02 1.3-.3.6-.31 1.46-.56.86-.25 1.56-.3.7-.05 1.17-.06.47-.01 1.06-.01.6 0 1.15 0 .56 0 1.43-.31.88-.31 1.74-.71.86-.4 1.75-.66.89-.26 1.6-.31.71-.06 1.41-.06.71-.01 1.24.18.53.18.97.39.44.2.9.44.46.23.92.63.45.41.82.78.37.37.84.56.47.2 1.01.24.55.04 1.15.05.61.01 1.39.01.78 0 1.6 0 .82 0 1.64 0 .83 0 1.65 0 .83 0 1.66 0 .82 0 1.65 0 .83 0 1.65 0 .83 0 1.49 0 .65 0 1.28 0 .63 0 1.25 0 .62 0 1.45.01.83 0 1.52.17.7.18 1.48.37.79.2 1.74.4.95.2 1.77.24.83.03 1.65.04.83.01 1.66.01.82 0 1.65 0 .82 0 1.49 0 .66 0 1.24.01.58 0 1.14-.15.55-.15 1.03-.35.49-.21 1.1-.26.61-.04 1.17-.2.55-.16 1.04-.37.49-.21 1.08-.25.6-.04 1.05-.22.45-.17 1.09-.21.65-.04 1.4-.05.74 0 1.33-.15.58-.15 1.03-.35.44-.19 1.01-.39.57-.19 1.16-.55.59-.36 1.01-.58.43-.23.79-.55.36-.33.75-.87.39-.53.77-1.1.39-.56.61-1.26.22-.69.26-1.3.04-.6.06-1.26.01-.66.19-1.32.17-.66.37-1.45.2-.79.41-1.46.21-.66.42-1.29.2-.63.42-1.27.21-.64.4-1.06.2-.42.23-.81.04-.4.23-1.04.19-.63.39-1.09.2-.45.4-1.02.2-.57.4-1.14.19-.56.23-1.13.03-.56.04-1.17.01-.61.01-1.18.01-.58-.15-1.14-.15-.57-.33-1.14-.18-.58-.54-1.17-.36-.6-.77-1.39-.41-.8-.82-1.62-.42-.82-.82-1.63-.41-.81-.78-1.41-.36-.59-.82-.96-.46-.38-.96-.44-.51-.07-1.03-.09-.52-.02-1.23.28-.7.3-1.52.7-.82.38-1.84.8-1.02.42-1.93.69-.92.26-1.85.31-.94.05-1.52-.12-.58-.18-1.03-.39-.46-.2-.88-.41-.42-.21-.85-.42-.43-.21-1.03-.59-.6-.39-1.18-.77-.58-.39-1.2-.64-.61-.24-1.18-.6-.58-.36-1.27-.42-.69-.06-1.66-.07-.97-.02-2.47-.02-1.5 0-3.44.16-1.94.16-3.81.36-1.87.2-3.21.4-1.33.2-2.08.4-.75.2-.5-.04.24-.25-.34-.1-.59.15-.68-.01-.09-.15-.09-.33.01-.18.1-.34.09-.15.24-.24.16-.09.59.34.42.43.34.1-.09-.34.79.58.87.92.91.98.03.06.05.13.01.07.02.13.01.07 0 .14-.01.07-.03.13-.02.07-.06.13-.03.06-.07.1-.05.05-.1.1-.05.04-.11.07-.06.03-.12.05-.07.02-.14.03-.07 0-.13-.01-.07 0-.14-.03-.06-.02-.12-.05-.06-.03-.12-.08-.05-.04-.09-.09-.04-.05-.07-.11-.04-.06-.05-.13-.02-.06-.03-.13 0-.07 0-.14.01-.07.03-.13.02-.07.06-.13.03-.06.08-.11.04-.05.09-.1.06-.04.12-.07.06-.03.13-.05.06-.02.13-.02.07-.01.14 0 .06.01.13.03.07.02.13.05.05.04.1.08.05.04.09.1.04.05.08.11.03.06.05.13.01.07.02.13.01.07 0 .14-.01.07-.03.13-.02.07-.06.13-.03.06-.07.1-.05.05-.1.1-.05.04-.11.07-.06.03-.12.05-.07.02-.14.03-.07 0-.13-.01-.07 0-.14-.03-.06-.02-.12-.05-.06-.03-.12-.08-.05-.04-.89-.9-.83-.87-.92-1.03-.09-.15-.09-.33.01-.18.1-.34.09-.15.24-.24.16-.09.95-.3.79-.21 2.17-.42 1.4-.21 3.29-.41 1.89-.2 3.86-.37 1.98-.16 3.52-.16 1.53 0 2.53.02 1 .01 1.88.11.88.09 1.54.49.67.4 1.29.65.63.25 1.27.67.64.42 1.2.78.56.36.95.56.4.2.81.4.41.2.82.39.4.18.82.32.41.12 1.14.08.74-.05 1.54-.27.8-.24 1.76-.64.97-.4 1.79-.79.81-.4 1.68-.75.86-.35 1.58-.34.71.02 1.43.14.72.12 1.42.67.7.55 1.16 1.27.45.71.88 1.55.42.84.83 1.66.41.82.81 1.59.4.77.78 1.42.38.65.6 1.31.21.67.39 1.34.17.68.18 1.34 0 .67-.01 1.3-.01.63-.06 1.3-.05.68-.26 1.34-.22.66-.43 1.26-.22.6-.41 1.04-.2.44-.36.96-.16.53-.2.97-.05.45-.27.94-.22.49-.42 1.09-.2.61-.4 1.23-.21.63-.41 1.27-.2.64-.4 1.42-.2.78-.35 1.36-.16.58-.17 1.17-.01.6-.06 1.3-.06.7-.34 1.57-.27.87-.71 1.53-.45.66-.89 1.26-.44.61-.92 1.04-.48.43-.96.69-.48.26-1.12.64-.64.38-1.25.6-.61.21-1.08.42-.48.2-1.2.38-.72.19-1.53.2-.81 0-1.33.03-.53.03-.97.2-.45.17-1.03.21-.58.04-1 .23-.41.19-1.09.38-.67.19-1.23.22-.57.04-.99.23-.42.18-1.11.37-.7.18-1.37.18-.67 0-1.33 0-.67 0-1.49 0-.83 0-1.66 0-.83 0-1.67-.01-.84-.01-1.73-.05-.9-.04-1.92-.25-1.01-.22-1.81-.42-.8-.2-1.41-.35-.61-.16-1.36-.16-.74 0-1.36 0-.62 0-1.25 0-.63 0-1.28 0-.66 0-1.49 0-.82 0-1.65 0-.83 0-1.65 0-.83 0-1.66 0-.82 0-1.65 0-.82 0-1.64 0-.82 0-1.61 0-.79 0-1.42-.01-.63-.01-1.31-.07-.68-.06-1.37-.35-.69-.3-1.15-.74-.45-.44-.82-.78-.37-.33-.75-.51-.37-.18-.77-.37-.4-.19-.78-.33-.38-.15-.94-.13-.55.01-1.17.06-.62.04-1.39.27-.77.22-1.61.62-.84.39-1.87.74-1.02.36-1.69.36-.67.01-1.26.01-.58 0-1.03.01-.45.01-1.06.05-.61.04-1.33.25-.73.21-1.43.56-.7.34-1.58.34-.88 0-1.57-.06-.68-.06-1.39-.33-.7-.28-1.37-.69-.66-.41-1.41-.77-.75-.35-1.35-.57-.61-.21-1.25-.5-.65-.29-1.11-.81-.46-.51-.7-1.03-.24-.51-.45-1.14-.21-.63-.41-1.22-.2-.58-.38-1.1-.17-.52-.18-1.25-.01-.72-.01-1.57-.01-.84-.04-1.76-.03-.91-.2-1.56-.16-.65-.17-1.44 0-.79 0-1.21 0-.43 0-.88 0-.46 0-1.08 0-.62 0-1.24 0-.62 0-1.24.01-.62.01-1.25.01-.63.05-1.3.04-.67.22-1.3.19-.64.27-1.33.08-.68.46-1.53.38-.85.58-1.66.21-.8.46-1.66.25-.85.62-1.67.37-.83.57-1.64.2-.81.42-1.77.23-.94.53-1.43.3-.49.8-.92.5-.43.79-.49.29-.05.67-.22.38-.17.64-.21.25-.03.69-.2.44-.17.93-.17.49 0 .97.06.48.05.72.22.24.18.62.21.38.04.58.2.21.16.35.15.15-.01.65.07.49.07.8.34.3.27.5.46.2.2.39.36.2.16.51.28.32.13.71.13.39 0 1.04.04.64.04 1.08.2.45.16 1.01.16.55-.01 1.16-.01.62-.01 1.19-.04.57-.03 1.19-.2.63-.16 1.25-.17.62 0 1.03 0 .42 0 .82-.01.4 0 .76-.03.35-.03.8-.2.45-.17 1.02-.21.56-.04.93-.22.36-.18.84-.37.49-.2.96-.23.48-.04 1.11-.21.63-.17 1.29-.17.66 0 1.24 0 .59 0 1.04 0 .44 0 1.03 0 .59 0 1.03 0 .45 0 1.03 0 .58 0 1 0 .42 0 .87 0 .44 0 1.02 0 .58 0 1.01.01.43.01.9.05.48.04.84.2.37.17.54.16.18-.01.59-.01.41.01.8.01.4.01.72.07.32.07.51.23.18.16.31.15.13-.01.51.15.37.16.48.52.1.35.25.63.14.28.14.28h0z"/></svg>