<svg preserveAspectRatio="none" xmlns="http://www.w3.org/2000/svg" viewBox="8.30 8.31 92.67 44.30"><path fill="#000" d="M 58.15 13.41 L 58.15 13.41 L 58.18 13.48 L 58.20 13.54 L 58.21 13.61 L 58.22 13.68 L 58.22 13.73 L 58.22 13.80 L 58.20 13.87 L 58.19 13.94 L 58.16 14.00 L 58.13 14.06 L 58.09 14.12 L 58.05 14.17 L 58.00 14.22 L 57.95 14.27 L 57.90 14.30 L 57.84 14.34 L 57.77 14.37 L 57.71 14.39 L 57.64 14.40 L 57.57 14.41 L 57.52 14.41 L 57.45 14.41 L 57.38 14.39 L 57.31 14.38 L 57.25 14.35 L 57.19 14.32 L 57.13 14.28 L 57.08 14.24 L 57.03 14.19 L 56.98 14.14 L 56.95 14.09 L 56.91 14.03 L 56.72 13.66 L 56.54 13.27 L 56.58 13.17 L 56.61 13.06 L 56.65 13.13 L 56.69 13.20 L 56.42 13.17 L 56.15 13.14 L 55.92 12.97 L 55.70 12.79 L 55.60 12.79 L 55.51 12.79 L 55.16 12.78 L 54.82 12.77 L 54.42 12.77 L 54.02 12.77 L 53.70 12.76 L 53.38 12.76 L 52.99 12.59 L 52.59 12.42 L 52.26 12.40 L 51.92 12.37 L 51.52 12.37 L 51.12 12.36 L 50.55 12.36 L 49.97 12.36 L 49.52 12.36 L 49.08 12.36 L 48.66 12.36 L 48.24 12.36 L 47.66 12.36 L 47.08 12.36 L 46.63 12.36 L 46.19 12.36 L 45.60 12.36 L 45.01 12.36 L 44.57 12.36 L 44.12 12.36 L 43.53 12.36 L 42.95 12.36 L 42.38 12.36 L 41.81 12.35 L 41.21 12.52 L 40.60 12.68 L 40.17 12.71 L 39.74 12.74 L 39.38 12.89 L 39.02 13.04 L 38.55 13.26 L 38.08 13.48 L 37.49 13.52 L 36.90 13.56 L 36.45 13.72 L 36.01 13.90 L 35.53 13.94 L 35.05 13.98 L 34.62 13.99 L 34.19 14.00 L 33.77 14.00 L 33.36 14.00 L 32.82 14.00 L 32.29 14.00 L 31.69 14.16 L 31.09 14.32 L 30.42 14.36 L 29.76 14.40 L 29.13 14.40 L 28.50 14.41 L 27.82 14.41 L 27.14 14.40 L 26.67 14.24 L 26.21 14.07 L 25.68 14.04 L 25.15 14.02 L 24.65 14.00 L 24.14 13.99 L 23.62 13.78 L 23.09 13.59 L 22.78 13.35 L 22.48 13.11 L 22.25 12.89 L 22.02 12.68 L 21.91 12.53 L 21.79 12.39 L 21.54 12.39 L 21.30 12.38 L 20.96 12.35 L 20.63 12.32 L 20.41 12.15 L 20.18 11.98 L 19.82 11.95 L 19.45 11.92 L 19.21 11.75 L 18.97 11.57 L 18.70 11.56 L 18.42 11.55 L 18.10 11.54 L 17.77 11.52 L 17.38 11.68 L 17.00 11.84 L 16.76 11.87 L 16.52 11.90 L 16.14 12.07 L 15.76 12.24 L 15.57 12.26 L 15.38 12.28 L 15.12 12.52 L 14.86 12.76 L 14.68 13.07 L 14.49 13.38 L 14.29 14.22 L 14.10 15.08 L 13.88 15.95 L 13.66 16.83 L 13.29 17.66 L 12.91 18.50 L 12.68 19.30 L 12.45 20.10 L 12.23 20.95 L 12.01 21.80 L 11.64 22.60 L 11.28 23.41 L 11.21 24.04 L 11.14 24.68 L 10.96 25.30 L 10.78 25.92 L 10.75 26.49 L 10.72 27.07 L 10.71 27.68 L 10.71 28.29 L 10.70 28.91 L 10.70 29.53 L 10.70 30.15 L 10.70 30.77 L 10.70 31.38 L 10.70 32.00 L 10.70 32.46 L 10.70 32.91 L 10.70 33.34 L 10.70 33.76 L 10.70 34.46 L 10.70 35.16 L 10.86 35.80 L 11.03 36.44 L 11.06 37.44 L 11.10 38.44 L 11.11 39.29 L 11.11 40.15 L 11.11 40.76 L 11.10 41.37 L 11.26 41.78 L 11.41 42.19 L 11.61 42.78 L 11.81 43.37 L 12.01 43.97 L 12.20 44.56 L 12.38 44.96 L 12.55 45.35 L 12.84 45.68 L 13.12 46.01 L 13.61 46.21 L 14.11 46.42 L 14.72 46.64 L 15.34 46.85 L 16.16 47.24 L 16.97 47.63 L 17.61 48.03 L 18.26 48.43 L 18.80 48.65 L 19.35 48.87 L 19.91 48.91 L 20.47 48.95 L 21.16 48.97 L 21.85 48.99 L 22.46 48.67 L 23.06 48.36 L 23.92 48.11 L 24.78 47.86 L 25.48 47.81 L 26.18 47.76 L 26.65 47.75 L 27.12 47.74 L 27.71 47.74 L 28.31 47.74 L 28.86 47.74 L 29.42 47.74 L 30.29 47.43 L 31.17 47.12 L 32.03 46.72 L 32.89 46.32 L 33.78 46.06 L 34.67 45.80 L 35.38 45.75 L 36.09 45.69 L 36.79 45.69 L 37.50 45.68 L 38.03 45.87 L 38.56 46.05 L 39.00 46.26 L 39.44 46.46 L 39.90 46.70 L 40.36 46.93 L 40.82 47.33 L 41.27 47.74 L 41.64 48.11 L 42.01 48.48 L 42.48 48.67 L 42.95 48.87 L 43.49 48.91 L 44.04 48.95 L 44.64 48.96 L 45.25 48.97 L 46.03 48.97 L 46.81 48.97 L 47.63 48.97 L 48.45 48.97 L 49.27 48.97 L 50.10 48.97 L 50.92 48.97 L 51.75 48.97 L 52.58 48.97 L 53.40 48.97 L 54.23 48.97 L 55.06 48.97 L 55.88 48.97 L 56.71 48.97 L 57.37 48.97 L 58.02 48.97 L 58.65 48.97 L 59.28 48.97 L 59.90 48.97 L 60.52 48.97 L 61.35 48.98 L 62.18 48.98 L 62.87 49.15 L 63.57 49.33 L 64.35 49.52 L 65.14 49.72 L 66.09 49.92 L 67.04 50.12 L 67.86 50.16 L 68.69 50.19 L 69.51 50.20 L 70.34 50.21 L 71.17 50.21 L 71.99 50.21 L 72.82 50.21 L 73.64 50.21 L 74.31 50.21 L 74.97 50.21 L 75.55 50.22 L 76.13 50.22 L 76.69 50.07 L 77.24 49.92 L 77.72 49.72 L 78.21 49.51 L 78.82 49.46 L 79.43 49.42 L 79.99 49.26 L 80.54 49.10 L 81.03 48.89 L 81.52 48.68 L 82.11 48.64 L 82.71 48.60 L 83.16 48.42 L 83.61 48.25 L 84.25 48.21 L 84.90 48.17 L 85.65 48.16 L 86.39 48.16 L 86.98 48.01 L 87.56 47.86 L 88.01 47.66 L 88.45 47.47 L 89.02 47.27 L 89.59 47.08 L 90.18 46.72 L 90.77 46.36 L 91.19 46.14 L 91.62 45.91 L 91.98 45.59 L 92.34 45.26 L 92.73 44.72 L 93.12 44.19 L 93.50 43.62 L 93.89 43.06 L 94.11 42.36 L 94.33 41.67 L 94.37 41.06 L 94.41 40.46 L 94.43 39.80 L 94.44 39.14 L 94.62 38.48 L 94.79 37.82 L 94.99 37.03 L 95.19 36.24 L 95.40 35.57 L 95.61 34.91 L 95.82 34.28 L 96.02 33.65 L 96.24 33.01 L 96.45 32.37 L 96.64 31.95 L 96.84 31.53 L 96.87 31.14 L 96.91 30.74 L 97.10 30.10 L 97.29 29.47 L 97.49 29.01 L 97.69 28.56 L 97.89 27.99 L 98.09 27.42 L 98.29 26.85 L 98.48 26.29 L 98.52 25.72 L 98.55 25.16 L 98.56 24.55 L 98.57 23.94 L 98.57 23.37 L 98.58 22.79 L 98.42 22.23 L 98.27 21.66 L 98.09 21.09 L 97.91 20.51 L 97.55 19.92 L 97.19 19.32 L 96.78 18.53 L 96.37 17.73 L 95.96 16.91 L 95.54 16.09 L 95.14 15.28 L 94.73 14.47 L 94.36 13.87 L 94.00 13.28 L 93.54 12.91 L 93.08 12.53 L 92.58 12.47 L 92.07 12.40 L 91.55 12.38 L 91.03 12.36 L 90.32 12.66 L 89.62 12.96 L 88.80 13.36 L 87.98 13.74 L 86.96 14.16 L 85.94 14.58 L 85.03 14.85 L 84.11 15.11 L 83.18 15.16 L 82.24 15.21 L 81.66 15.04 L 81.08 14.86 L 80.63 14.65 L 80.17 14.45 L 79.75 14.24 L 79.33 14.03 L 78.90 13.82 L 78.47 13.61 L 77.87 13.23 L 77.27 12.84 L 76.69 12.46 L 76.11 12.07 L 75.49 11.82 L 74.88 11.58 L 74.31 11.22 L 73.73 10.86 L 73.04 10.80 L 72.35 10.74 L 71.38 10.73 L 70.41 10.71 L 68.91 10.71 L 67.41 10.71 L 65.47 10.87 L 63.53 11.03 L 61.66 11.23 L 59.79 11.43 L 58.45 11.63 L 57.12 11.83 L 56.37 12.03 L 55.62 12.23 L 55.87 11.99 L 56.11 11.74 L 55.53 11.89 L 54.94 12.04 L 54.85 11.88 L 54.76 11.73 L 54.76 11.55 L 54.77 11.37 L 54.86 11.21 L 54.95 11.06 L 55.10 10.97 L 55.26 10.88 L 55.69 11.31 L 56.11 11.74 L 56.03 11.41 L 55.94 11.07 L 56.82 11.99 L 57.69 12.91 L 57.73 12.97 L 57.76 13.03 L 57.78 13.10 L 57.79 13.17 L 57.80 13.23 L 57.81 13.30 L 57.80 13.37 L 57.79 13.44 L 57.77 13.50 L 57.75 13.57 L 57.71 13.63 L 57.68 13.69 L 57.64 13.73 L 57.59 13.78 L 57.54 13.83 L 57.49 13.87 L 57.43 13.90 L 57.37 13.93 L 57.31 13.95 L 57.24 13.97 L 57.17 13.98 L 57.10 13.98 L 57.04 13.97 L 56.97 13.97 L 56.90 13.94 L 56.84 13.92 L 56.78 13.89 L 58.15 13.41 L 58.15 13.41 L 58.15 13.41 L 58.01 13.13 L 57.86 12.85 L 57.76 12.50 L 57.65 12.14 L 57.28 11.98 L 56.90 11.82 L 56.77 11.83 L 56.64 11.84 L 56.46 11.68 L 56.27 11.52 L 55.95 11.45 L 55.63 11.39 L 55.23 11.38 L 54.84 11.38 L 54.43 11.37 L 54.02 11.37 L 53.84 11.38 L 53.67 11.39 L 53.30 11.22 L 52.94 11.06 L 52.46 11.02 L 51.99 10.98 L 51.56 10.97 L 51.13 10.96 L 50.55 10.96 L 49.97 10.96 L 49.53 10.96 L 49.08 10.96 L 48.66 10.96 L 48.24 10.96 L 47.66 10.96 L 47.08 10.96 L 46.63 10.96 L 46.19 10.96 L 45.60 10.96 L 45.01 10.96 L 44.57 10.96 L 44.12 10.96 L 43.53 10.96 L 42.95 10.96 L 42.29 10.96 L 41.63 10.96 L 41.00 11.13 L 40.37 11.30 L 39.89 11.34 L 39.42 11.37 L 38.93 11.57 L 38.45 11.76 L 38.09 11.94 L 37.72 12.12 L 37.16 12.16 L 36.59 12.20 L 36.14 12.37 L 35.69 12.54 L 35.34 12.57 L 34.98 12.60 L 34.58 12.60 L 34.18 12.61 L 33.76 12.61 L 33.35 12.61 L 32.73 12.61 L 32.11 12.62 L 31.48 12.78 L 30.86 12.95 L 30.29 12.98 L 29.72 13.01 L 29.10 13.02 L 28.49 13.02 L 27.94 13.03 L 27.38 13.03 L 26.93 12.87 L 26.49 12.71 L 25.85 12.67 L 25.20 12.63 L 24.81 12.63 L 24.42 12.63 L 24.10 12.50 L 23.79 12.38 L 23.59 12.22 L 23.40 12.06 L 23.20 11.86 L 23.00 11.67 L 22.70 11.40 L 22.39 11.13 L 21.90 11.06 L 21.40 10.98 L 21.25 10.99 L 21.11 11.00 L 20.90 10.84 L 20.70 10.68 L 20.32 10.64 L 19.94 10.61 L 19.70 10.43 L 19.46 10.26 L 18.98 10.21 L 18.50 10.15 L 18.01 10.15 L 17.52 10.15 L 17.08 10.32 L 16.64 10.49 L 16.39 10.52 L 16.13 10.56 L 15.75 10.73 L 15.37 10.90 L 15.08 10.95 L 14.79 11.01 L 14.29 11.44 L 13.79 11.87 L 13.49 12.36 L 13.19 12.85 L 12.96 13.79 L 12.74 14.75 L 12.54 15.56 L 12.34 16.37 L 11.97 17.20 L 11.60 18.02 L 11.35 18.87 L 11.10 19.73 L 10.89 20.53 L 10.69 21.34 L 10.31 22.19 L 9.93 23.04 L 9.85 23.72 L 9.77 24.41 L 9.58 25.05 L 9.40 25.68 L 9.36 26.35 L 9.32 27.02 L 9.31 27.65 L 9.31 28.28 L 9.30 28.90 L 9.30 29.52 L 9.30 30.14 L 9.30 30.76 L 9.30 31.38 L 9.30 32.00 L 9.30 32.46 L 9.30 32.91 L 9.30 33.34 L 9.30 33.76 L 9.30 34.55 L 9.31 35.34 L 9.47 35.99 L 9.64 36.64 L 9.67 37.55 L 9.70 38.47 L 9.71 39.31 L 9.71 40.16 L 9.72 40.88 L 9.73 41.61 L 9.90 42.13 L 10.08 42.65 L 10.28 43.23 L 10.48 43.82 L 10.69 44.45 L 10.90 45.08 L 11.14 45.59 L 11.38 46.11 L 11.84 46.62 L 12.30 47.14 L 12.95 47.43 L 13.59 47.72 L 14.20 47.93 L 14.80 48.15 L 15.55 48.50 L 16.30 48.86 L 16.96 49.27 L 17.63 49.68 L 18.33 49.96 L 19.04 50.23 L 19.72 50.29 L 20.41 50.35 L 21.29 50.35 L 22.17 50.35 L 22.87 50.01 L 23.57 49.66 L 24.30 49.45 L 25.02 49.24 L 25.63 49.20 L 26.24 49.16 L 26.69 49.15 L 27.14 49.14 L 27.72 49.14 L 28.31 49.14 L 28.98 49.13 L 29.65 49.13 L 30.67 48.77 L 31.70 48.42 L 32.54 48.03 L 33.38 47.63 L 34.15 47.41 L 34.92 47.18 L 35.54 47.14 L 36.16 47.09 L 36.71 47.08 L 37.27 47.06 L 37.65 47.21 L 38.03 47.35 L 38.43 47.54 L 38.83 47.73 L 39.20 47.91 L 39.58 48.09 L 39.95 48.42 L 40.32 48.76 L 40.77 49.20 L 41.23 49.64 L 41.92 49.94 L 42.61 50.23 L 43.29 50.29 L 43.97 50.35 L 44.60 50.36 L 45.23 50.37 L 46.02 50.37 L 46.81 50.37 L 47.63 50.37 L 48.45 50.37 L 49.27 50.37 L 50.10 50.37 L 50.92 50.37 L 51.75 50.37 L 52.58 50.37 L 53.40 50.37 L 54.23 50.37 L 55.06 50.37 L 55.88 50.37 L 56.71 50.37 L 57.37 50.37 L 58.02 50.37 L 58.65 50.37 L 59.28 50.37 L 59.90 50.37 L 60.52 50.37 L 61.26 50.37 L 62.01 50.37 L 62.62 50.53 L 63.23 50.68 L 64.03 50.88 L 64.83 51.08 L 65.84 51.30 L 66.86 51.51 L 67.76 51.55 L 68.65 51.59 L 69.49 51.60 L 70.33 51.61 L 71.16 51.61 L 71.99 51.61 L 72.82 51.61 L 73.64 51.61 L 74.31 51.61 L 74.97 51.61 L 75.64 51.61 L 76.31 51.61 L 77.01 51.43 L 77.70 51.24 L 78.12 51.06 L 78.54 50.87 L 79.11 50.83 L 79.67 50.80 L 80.34 50.61 L 81.02 50.42 L 81.43 50.23 L 81.85 50.04 L 82.43 50.00 L 83.01 49.96 L 83.46 49.79 L 83.90 49.62 L 84.43 49.59 L 84.95 49.56 L 85.76 49.56 L 86.57 49.55 L 87.29 49.36 L 88.01 49.18 L 88.49 48.98 L 88.96 48.77 L 89.57 48.56 L 90.18 48.34 L 90.82 47.96 L 91.46 47.58 L 91.94 47.32 L 92.42 47.06 L 92.90 46.63 L 93.38 46.20 L 93.82 45.59 L 94.26 44.99 L 94.71 44.33 L 95.15 43.67 L 95.42 42.80 L 95.70 41.93 L 95.76 41.23 L 95.81 40.53 L 95.82 39.93 L 95.83 39.34 L 95.99 38.76 L 96.14 38.18 L 96.34 37.40 L 96.54 36.62 L 96.74 35.98 L 96.94 35.34 L 97.15 34.71 L 97.35 34.09 L 97.55 33.48 L 97.75 32.88 L 97.97 32.39 L 98.19 31.90 L 98.24 31.45 L 98.28 31.01 L 98.44 30.48 L 98.60 29.96 L 98.80 29.52 L 98.99 29.08 L 99.21 28.48 L 99.42 27.88 L 99.64 27.22 L 99.85 26.56 L 99.90 25.88 L 99.95 25.21 L 99.96 24.58 L 99.97 23.95 L 99.97 23.28 L 99.96 22.62 L 99.79 21.94 L 99.61 21.27 L 99.40 20.60 L 99.18 19.94 L 98.80 19.29 L 98.42 18.64 L 98.02 17.87 L 97.62 17.10 L 97.21 16.28 L 96.80 15.46 L 96.38 14.62 L 95.95 13.78 L 95.50 13.07 L 95.04 12.35 L 94.34 11.80 L 93.64 11.25 L 92.92 11.13 L 92.20 11.01 L 91.49 10.99 L 90.77 10.98 L 89.91 11.33 L 89.04 11.68 L 88.23 12.08 L 87.41 12.47 L 86.44 12.87 L 85.48 13.27 L 84.68 13.51 L 83.88 13.73 L 83.14 13.78 L 82.41 13.82 L 82.00 13.70 L 81.58 13.56 L 81.18 13.38 L 80.77 13.19 L 80.36 12.99 L 79.95 12.79 L 79.55 12.59 L 79.16 12.39 L 78.60 12.03 L 78.04 11.67 L 77.40 11.25 L 76.76 10.83 L 76.13 10.58 L 75.51 10.33 L 74.84 9.93 L 74.18 9.53 L 73.30 9.44 L 72.42 9.34 L 71.42 9.33 L 70.42 9.31 L 68.89 9.31 L 67.35 9.31 L 65.37 9.47 L 63.40 9.64 L 61.51 9.84 L 59.62 10.04 L 58.22 10.25 L 56.84 10.46 L 56.05 10.67 L 55.26 10.88 L 55.10 10.97 L 54.95 11.06 L 54.86 11.21 L 54.77 11.37 L 54.76 11.55 L 54.76 11.73 L 54.85 11.88 L 54.94 12.04 L 55.77 12.91 L 56.61 13.77 L 56.66 13.81 L 56.72 13.86 L 56.78 13.89 L 56.84 13.92 L 56.90 13.94 L 56.97 13.97 L 57.04 13.97 L 57.10 13.98 L 57.17 13.98 L 57.24 13.97 L 57.31 13.95 L 57.37 13.93 L 57.43 13.90 L 57.49 13.87 L 57.54 13.83 L 57.59 13.78 L 57.64 13.73 L 57.68 13.69 L 57.71 13.63 L 57.75 13.57 L 57.77 13.50 L 57.79 13.44 L 57.80 13.37 L 57.81 13.30 L 57.80 13.23 L 57.79 13.17 L 57.78 13.10 L 57.76 13.03 L 57.73 12.97 L 57.69 12.91 L 57.65 12.86 L 57.61 12.80 L 57.56 12.76 L 57.51 12.72 L 57.46 12.68 L 57.40 12.65 L 57.33 12.63 L 57.26 12.61 L 57.20 12.60 L 57.13 12.59 L 57.06 12.60 L 56.99 12.60 L 56.93 12.62 L 56.86 12.64 L 56.80 12.67 L 56.74 12.70 L 56.68 12.74 L 56.63 12.79 L 56.59 12.84 L 56.54 12.89 L 56.51 12.95 L 56.47 13.01 L 56.45 13.08 L 56.43 13.14 L 56.42 13.21 L 56.42 13.28 L 56.42 13.35 L 56.43 13.42 L 56.45 13.48 L 56.46 13.55 L 56.50 13.61 L 56.53 13.67 L 56.57 13.72 L 56.61 13.77 L 56.66 13.81 L 56.72 13.86 Z"/></svg>
